; NON-PLATED HOLES START AT T1
; THROUGH (PLATED) HOLES START AT T100
M48
INCH
T100C0.015748
T101C0.035000
T102C0.035433
T103C0.038000
%
T100
X007131Y004510
T101
X006015Y001868
X007127Y001868
X008328Y002972
X004147Y005868
X002147Y005868
X007127Y005868
X006015Y005868
X008328Y003972
X008328Y004972
X002147Y001868
X004147Y001868
T102
X003142Y002873
X005142Y005873
X003142Y005873
X005142Y002873
T103
X009981Y004871
X010141Y006881
X007142Y006881
X009142Y006881
X002142Y006881
X009981Y003871
X005142Y006881
X008141Y000877
X010140Y000877
X004141Y000877
X009141Y000877
X003141Y000877
X006141Y000877
X004142Y006881
X009981Y002871
X006142Y006881
X007141Y000877
X003142Y006881
X005141Y000877
X002141Y000877
X008142Y006881
T00
M30
