G04 MADE WITH FRITZING*
G04 WWW.FRITZING.ORG*
G04 DOUBLE SIDED*
G04 HOLES PLATED*
G04 CONTOUR ON CENTER OF CONTOUR VECTOR*
%ASAXBY*%
%FSLAX23Y23*%
%MOIN*%
%OFA0B0*%
%SFA1.0B1.0*%
%ADD10C,0.075000*%
%ADD11C,0.078000*%
%ADD12C,0.074000*%
%ADD13C,0.039370*%
%ADD14R,0.111551X0.063726*%
%ADD15R,0.078000X0.078000*%
%ADD16C,0.012000*%
%ADD17C,0.000100*%
%ADD18R,0.001000X0.001000*%
%LNCOPPER1*%
G90*
G70*
G54D10*
X975Y191D03*
X416Y393D03*
X838Y596D03*
X77Y704D03*
G54D11*
X1014Y688D03*
X914Y688D03*
X814Y688D03*
X714Y688D03*
X614Y688D03*
X514Y688D03*
X414Y688D03*
X314Y688D03*
X214Y688D03*
X214Y88D03*
X314Y88D03*
X414Y88D03*
X514Y88D03*
X614Y88D03*
X714Y88D03*
X814Y88D03*
X914Y88D03*
X1014Y88D03*
G54D10*
X833Y297D03*
X833Y397D03*
X833Y497D03*
X415Y187D03*
X415Y587D03*
X215Y587D03*
X215Y187D03*
X713Y587D03*
X713Y187D03*
X602Y587D03*
X602Y187D03*
G54D12*
X514Y287D03*
X514Y587D03*
X514Y287D03*
X514Y587D03*
X314Y287D03*
X314Y587D03*
X314Y287D03*
X314Y587D03*
G54D11*
X998Y287D03*
X998Y387D03*
X998Y487D03*
G54D13*
X713Y451D03*
G54D14*
X72Y173D03*
X72Y288D03*
X72Y396D03*
X72Y503D03*
X72Y612D03*
G54D15*
X998Y287D03*
G54D16*
X516Y185D02*
X331Y394D01*
D02*
X73Y456D02*
X72Y477D01*
D02*
X151Y612D02*
X123Y612D01*
D02*
X151Y502D02*
X151Y612D01*
D02*
X314Y502D02*
X151Y502D01*
D02*
X314Y570D02*
X314Y502D01*
D02*
X331Y394D02*
X123Y396D01*
D02*
X655Y140D02*
X655Y456D01*
D02*
X655Y456D02*
X73Y456D01*
D02*
X203Y290D02*
X123Y289D01*
D02*
X626Y103D02*
X655Y140D01*
D02*
X514Y107D02*
X516Y185D01*
D02*
X400Y101D02*
X203Y290D01*
D02*
X314Y20D02*
X73Y20D01*
D02*
X73Y20D02*
X72Y146D01*
D02*
X314Y69D02*
X314Y20D01*
D02*
X915Y387D02*
X915Y210D01*
D02*
X915Y210D02*
X814Y210D01*
D02*
X814Y210D02*
X814Y107D01*
D02*
X979Y387D02*
X915Y387D01*
D02*
X775Y626D02*
X728Y675D01*
D02*
X713Y297D02*
X775Y297D01*
D02*
X775Y297D02*
X775Y626D01*
D02*
X979Y487D02*
X914Y487D01*
D02*
X914Y487D02*
X914Y669D01*
D02*
X532Y587D02*
X584Y587D01*
D02*
X713Y204D02*
X713Y297D01*
D02*
X214Y586D02*
X214Y669D01*
D02*
X214Y586D02*
X214Y586D01*
D02*
X415Y604D02*
X414Y669D01*
D02*
X775Y297D02*
X815Y297D01*
D02*
X713Y569D02*
X713Y459D01*
G54D17*
G36*
X55Y131D02*
X56Y130D01*
X56Y130D01*
X56Y129D01*
X56Y129D01*
X56Y32D01*
X56Y31D01*
X55Y30D01*
X55Y30D01*
X54Y30D01*
X32Y30D01*
X31Y31D01*
X30Y31D01*
X30Y32D01*
X30Y32D01*
X30Y129D01*
X31Y130D01*
X31Y130D01*
X32Y131D01*
X32Y131D01*
X54Y131D01*
X55Y131D01*
D02*
G37*
D02*
G36*
X55Y131D02*
X56Y130D01*
X56Y130D01*
X56Y129D01*
X56Y129D01*
X56Y32D01*
X56Y31D01*
X55Y30D01*
X55Y30D01*
X54Y30D01*
X32Y30D01*
X31Y31D01*
X30Y31D01*
X30Y32D01*
X30Y32D01*
X30Y129D01*
X31Y130D01*
X31Y130D01*
X32Y131D01*
X32Y131D01*
X54Y131D01*
X55Y131D01*
D02*
G37*
D02*
G36*
X865Y78D02*
X866Y78D01*
X866Y77D01*
X867Y77D01*
X869Y70D01*
X870Y68D01*
X874Y60D01*
X880Y53D01*
X887Y47D01*
X895Y43D01*
X896Y42D01*
X904Y40D01*
X909Y39D01*
X914Y39D01*
X915Y39D01*
X920Y39D01*
X925Y40D01*
X933Y43D01*
X934Y43D01*
X942Y47D01*
X949Y53D01*
X955Y60D01*
X959Y69D01*
X959Y70D01*
X962Y77D01*
X962Y78D01*
X963Y78D01*
X964Y78D01*
X965Y78D01*
X966Y78D01*
X966Y77D01*
X966Y77D01*
X969Y70D01*
X970Y68D01*
X974Y60D01*
X980Y53D01*
X987Y47D01*
X995Y43D01*
X996Y42D01*
X1004Y40D01*
X1009Y39D01*
X1013Y39D01*
X1015Y39D01*
X1019Y39D01*
X1025Y40D01*
X1033Y43D01*
X1042Y47D01*
X1049Y53D01*
X1055Y60D01*
X1057Y64D01*
X1057Y65D01*
X1058Y65D01*
X1059Y65D01*
X1060Y65D01*
X1061Y64D01*
X1061Y63D01*
X1061Y32D01*
X1061Y31D01*
X1060Y30D01*
X1059Y30D01*
X1059Y30D01*
X332Y30D01*
X331Y31D01*
X331Y31D01*
X330Y32D01*
X330Y32D01*
X330Y40D01*
X331Y41D01*
X331Y42D01*
X332Y42D01*
X333Y43D01*
X342Y47D01*
X349Y53D01*
X355Y60D01*
X359Y69D01*
X359Y70D01*
X362Y77D01*
X362Y78D01*
X363Y78D01*
X364Y79D01*
X365Y78D01*
X366Y78D01*
X366Y77D01*
X367Y77D01*
X369Y70D01*
X370Y68D01*
X374Y60D01*
X380Y53D01*
X386Y47D01*
X387Y47D01*
X395Y43D01*
X396Y42D01*
X404Y40D01*
X409Y39D01*
X414Y39D01*
X415Y39D01*
X420Y39D01*
X425Y40D01*
X433Y43D01*
X442Y47D01*
X449Y53D01*
X455Y60D01*
X459Y69D01*
X459Y70D01*
X462Y77D01*
X462Y78D01*
X463Y78D01*
X464Y79D01*
X465Y78D01*
X466Y78D01*
X466Y77D01*
X467Y77D01*
X469Y70D01*
X470Y68D01*
X474Y60D01*
X480Y53D01*
X487Y47D01*
X495Y43D01*
X496Y42D01*
X504Y40D01*
X509Y39D01*
X514Y39D01*
X515Y39D01*
X520Y39D01*
X525Y40D01*
X533Y43D01*
X534Y43D01*
X542Y47D01*
X549Y53D01*
X555Y60D01*
X559Y69D01*
X559Y70D01*
X562Y77D01*
X562Y78D01*
X563Y78D01*
X564Y79D01*
X565Y78D01*
X566Y78D01*
X566Y77D01*
X567Y77D01*
X569Y70D01*
X570Y68D01*
X574Y60D01*
X580Y53D01*
X587Y47D01*
X595Y43D01*
X596Y42D01*
X604Y40D01*
X609Y39D01*
X614Y39D01*
X615Y39D01*
X620Y39D01*
X625Y40D01*
X633Y43D01*
X634Y43D01*
X642Y47D01*
X649Y53D01*
X655Y60D01*
X659Y69D01*
X659Y70D01*
X662Y77D01*
X662Y78D01*
X663Y78D01*
X664Y79D01*
X665Y78D01*
X666Y78D01*
X666Y77D01*
X667Y77D01*
X669Y70D01*
X670Y68D01*
X674Y60D01*
X680Y53D01*
X687Y47D01*
X695Y43D01*
X696Y42D01*
X704Y40D01*
X709Y39D01*
X714Y39D01*
X715Y39D01*
X720Y39D01*
X725Y40D01*
X733Y43D01*
X734Y43D01*
X742Y47D01*
X749Y53D01*
X755Y60D01*
X759Y69D01*
X759Y70D01*
X762Y77D01*
X762Y78D01*
X763Y78D01*
X764Y79D01*
X765Y78D01*
X766Y78D01*
X766Y77D01*
X767Y77D01*
X769Y70D01*
X770Y68D01*
X774Y60D01*
X780Y53D01*
X787Y47D01*
X795Y43D01*
X796Y42D01*
X804Y40D01*
X809Y39D01*
X814Y39D01*
X815Y39D01*
X820Y39D01*
X825Y40D01*
X833Y43D01*
X834Y43D01*
X842Y47D01*
X849Y53D01*
X855Y60D01*
X859Y69D01*
X859Y70D01*
X862Y77D01*
X862Y78D01*
X863Y78D01*
X864Y79D01*
X865Y78D01*
D02*
G37*
D02*
G36*
X865Y78D02*
X866Y78D01*
X866Y77D01*
X867Y77D01*
X869Y70D01*
X870Y68D01*
X874Y60D01*
X880Y53D01*
X887Y47D01*
X895Y43D01*
X896Y42D01*
X904Y40D01*
X909Y39D01*
X914Y39D01*
X915Y39D01*
X920Y39D01*
X925Y40D01*
X933Y43D01*
X934Y43D01*
X942Y47D01*
X949Y53D01*
X955Y60D01*
X959Y69D01*
X959Y70D01*
X962Y77D01*
X962Y78D01*
X963Y78D01*
X964Y78D01*
X965Y78D01*
X966Y78D01*
X966Y77D01*
X966Y77D01*
X969Y70D01*
X970Y68D01*
X974Y60D01*
X980Y53D01*
X987Y47D01*
X995Y43D01*
X996Y42D01*
X1004Y40D01*
X1009Y39D01*
X1013Y39D01*
X1015Y39D01*
X1019Y39D01*
X1025Y40D01*
X1033Y43D01*
X1042Y47D01*
X1049Y53D01*
X1055Y60D01*
X1057Y64D01*
X1057Y65D01*
X1058Y65D01*
X1059Y65D01*
X1060Y65D01*
X1061Y64D01*
X1061Y63D01*
X1061Y32D01*
X1061Y31D01*
X1060Y30D01*
X1059Y30D01*
X1059Y30D01*
X332Y30D01*
X331Y31D01*
X331Y31D01*
X330Y32D01*
X330Y32D01*
X330Y40D01*
X331Y41D01*
X331Y42D01*
X332Y42D01*
X333Y43D01*
X342Y47D01*
X349Y53D01*
X355Y60D01*
X359Y69D01*
X359Y70D01*
X362Y77D01*
X362Y78D01*
X363Y78D01*
X364Y79D01*
X365Y78D01*
X366Y78D01*
X366Y77D01*
X367Y77D01*
X369Y70D01*
X370Y68D01*
X374Y60D01*
X380Y53D01*
X386Y47D01*
X387Y47D01*
X395Y43D01*
X396Y42D01*
X404Y40D01*
X409Y39D01*
X414Y39D01*
X415Y39D01*
X420Y39D01*
X425Y40D01*
X433Y43D01*
X442Y47D01*
X449Y53D01*
X455Y60D01*
X459Y69D01*
X459Y70D01*
X462Y77D01*
X462Y78D01*
X463Y78D01*
X464Y79D01*
X465Y78D01*
X466Y78D01*
X466Y77D01*
X467Y77D01*
X469Y70D01*
X470Y68D01*
X474Y60D01*
X480Y53D01*
X487Y47D01*
X495Y43D01*
X496Y42D01*
X504Y40D01*
X509Y39D01*
X514Y39D01*
X515Y39D01*
X520Y39D01*
X525Y40D01*
X533Y43D01*
X534Y43D01*
X542Y47D01*
X549Y53D01*
X555Y60D01*
X559Y69D01*
X559Y70D01*
X562Y77D01*
X562Y78D01*
X563Y78D01*
X564Y79D01*
X565Y78D01*
X566Y78D01*
X566Y77D01*
X567Y77D01*
X569Y70D01*
X570Y68D01*
X574Y60D01*
X580Y53D01*
X587Y47D01*
X595Y43D01*
X596Y42D01*
X604Y40D01*
X609Y39D01*
X614Y39D01*
X615Y39D01*
X620Y39D01*
X625Y40D01*
X633Y43D01*
X634Y43D01*
X642Y47D01*
X649Y53D01*
X655Y60D01*
X659Y69D01*
X659Y70D01*
X662Y77D01*
X662Y78D01*
X663Y78D01*
X664Y79D01*
X665Y78D01*
X666Y78D01*
X666Y77D01*
X667Y77D01*
X669Y70D01*
X670Y68D01*
X674Y60D01*
X680Y53D01*
X687Y47D01*
X695Y43D01*
X696Y42D01*
X704Y40D01*
X709Y39D01*
X714Y39D01*
X715Y39D01*
X720Y39D01*
X725Y40D01*
X733Y43D01*
X734Y43D01*
X742Y47D01*
X749Y53D01*
X755Y60D01*
X759Y69D01*
X759Y70D01*
X762Y77D01*
X762Y78D01*
X763Y78D01*
X764Y79D01*
X765Y78D01*
X766Y78D01*
X766Y77D01*
X767Y77D01*
X769Y70D01*
X770Y68D01*
X774Y60D01*
X780Y53D01*
X787Y47D01*
X795Y43D01*
X796Y42D01*
X804Y40D01*
X809Y39D01*
X814Y39D01*
X815Y39D01*
X820Y39D01*
X825Y40D01*
X833Y43D01*
X834Y43D01*
X842Y47D01*
X849Y53D01*
X855Y60D01*
X859Y69D01*
X859Y70D01*
X862Y77D01*
X862Y78D01*
X863Y78D01*
X864Y79D01*
X865Y78D01*
D02*
G37*
D02*
G36*
X265Y78D02*
X266Y78D01*
X266Y77D01*
X267Y77D01*
X269Y70D01*
X270Y68D01*
X274Y60D01*
X280Y53D01*
X286Y47D01*
X287Y47D01*
X295Y43D01*
X297Y42D01*
X297Y42D01*
X298Y41D01*
X298Y40D01*
X298Y38D01*
X298Y37D01*
X297Y36D01*
X296Y36D01*
X296Y36D01*
X227Y36D01*
X226Y36D01*
X225Y37D01*
X225Y38D01*
X225Y38D01*
X225Y39D01*
X225Y39D01*
X226Y40D01*
X226Y40D01*
X233Y43D01*
X242Y47D01*
X249Y53D01*
X255Y60D01*
X259Y69D01*
X259Y70D01*
X262Y77D01*
X262Y78D01*
X263Y78D01*
X264Y79D01*
X265Y78D01*
D02*
G37*
D02*
G36*
X265Y78D02*
X266Y78D01*
X266Y77D01*
X267Y77D01*
X269Y70D01*
X270Y68D01*
X274Y60D01*
X280Y53D01*
X286Y47D01*
X287Y47D01*
X295Y43D01*
X297Y42D01*
X297Y42D01*
X298Y41D01*
X298Y40D01*
X298Y38D01*
X298Y37D01*
X297Y36D01*
X296Y36D01*
X296Y36D01*
X227Y36D01*
X226Y36D01*
X225Y37D01*
X225Y38D01*
X225Y38D01*
X225Y39D01*
X225Y39D01*
X226Y40D01*
X226Y40D01*
X233Y43D01*
X242Y47D01*
X249Y53D01*
X255Y60D01*
X259Y69D01*
X259Y70D01*
X262Y77D01*
X262Y78D01*
X263Y78D01*
X264Y79D01*
X265Y78D01*
D02*
G37*
D02*
G36*
X197Y273D02*
X198Y273D01*
X240Y232D01*
X240Y231D01*
X241Y231D01*
X240Y230D01*
X240Y229D01*
X239Y229D01*
X239Y228D01*
X238Y228D01*
X237Y229D01*
X234Y230D01*
X232Y231D01*
X224Y233D01*
X223Y234D01*
X215Y234D01*
X214Y234D01*
X205Y233D01*
X204Y233D01*
X196Y230D01*
X188Y226D01*
X181Y221D01*
X180Y220D01*
X176Y214D01*
X175Y213D01*
X171Y205D01*
X169Y197D01*
X168Y195D01*
X167Y187D01*
X167Y186D01*
X168Y179D01*
X169Y177D01*
X171Y169D01*
X172Y168D01*
X175Y160D01*
X181Y154D01*
X182Y153D01*
X188Y148D01*
X189Y147D01*
X196Y143D01*
X205Y140D01*
X206Y140D01*
X206Y139D01*
X207Y138D01*
X207Y137D01*
X206Y137D01*
X206Y136D01*
X205Y136D01*
X203Y135D01*
X195Y133D01*
X187Y128D01*
X179Y122D01*
X174Y115D01*
X169Y107D01*
X169Y106D01*
X166Y98D01*
X165Y92D01*
X165Y87D01*
X165Y83D01*
X166Y77D01*
X169Y69D01*
X174Y60D01*
X180Y53D01*
X187Y47D01*
X195Y43D01*
X196Y42D01*
X202Y40D01*
X203Y40D01*
X203Y39D01*
X204Y38D01*
X204Y38D01*
X203Y37D01*
X203Y36D01*
X202Y36D01*
X201Y36D01*
X91Y36D01*
X89Y36D01*
X89Y37D01*
X89Y38D01*
X88Y38D01*
X89Y129D01*
X89Y130D01*
X90Y130D01*
X90Y131D01*
X91Y131D01*
X129Y131D01*
X131Y131D01*
X132Y132D01*
X134Y132D01*
X135Y133D01*
X136Y135D01*
X137Y136D01*
X138Y137D01*
X138Y139D01*
X138Y141D01*
X138Y205D01*
X138Y207D01*
X137Y208D01*
X137Y210D01*
X136Y211D01*
X134Y212D01*
X133Y213D01*
X131Y214D01*
X130Y214D01*
X128Y214D01*
X32Y215D01*
X31Y215D01*
X30Y216D01*
X30Y216D01*
X30Y217D01*
X30Y244D01*
X31Y245D01*
X31Y246D01*
X32Y246D01*
X32Y246D01*
X129Y246D01*
X131Y247D01*
X132Y247D01*
X134Y248D01*
X135Y249D01*
X136Y250D01*
X137Y252D01*
X138Y253D01*
X138Y255D01*
X138Y256D01*
X138Y271D01*
X139Y272D01*
X139Y273D01*
X140Y273D01*
X141Y273D01*
X196Y274D01*
X197Y273D01*
D02*
G37*
D02*
G36*
X197Y273D02*
X198Y273D01*
X240Y232D01*
X240Y231D01*
X241Y231D01*
X240Y230D01*
X240Y229D01*
X239Y229D01*
X239Y228D01*
X238Y228D01*
X237Y229D01*
X234Y230D01*
X232Y231D01*
X224Y233D01*
X223Y234D01*
X215Y234D01*
X214Y234D01*
X205Y233D01*
X204Y233D01*
X196Y230D01*
X188Y226D01*
X181Y221D01*
X180Y220D01*
X176Y214D01*
X175Y213D01*
X171Y205D01*
X169Y197D01*
X168Y195D01*
X167Y187D01*
X167Y186D01*
X168Y179D01*
X169Y177D01*
X171Y169D01*
X172Y168D01*
X175Y160D01*
X181Y154D01*
X182Y153D01*
X188Y148D01*
X189Y147D01*
X196Y143D01*
X205Y140D01*
X206Y140D01*
X206Y139D01*
X207Y138D01*
X207Y137D01*
X206Y137D01*
X206Y136D01*
X205Y136D01*
X203Y135D01*
X195Y133D01*
X187Y128D01*
X179Y122D01*
X174Y115D01*
X169Y107D01*
X169Y106D01*
X166Y98D01*
X165Y92D01*
X165Y87D01*
X165Y83D01*
X166Y77D01*
X169Y69D01*
X174Y60D01*
X180Y53D01*
X187Y47D01*
X195Y43D01*
X196Y42D01*
X202Y40D01*
X203Y40D01*
X203Y39D01*
X204Y38D01*
X204Y38D01*
X203Y37D01*
X203Y36D01*
X202Y36D01*
X201Y36D01*
X91Y36D01*
X89Y36D01*
X89Y37D01*
X89Y38D01*
X88Y38D01*
X89Y129D01*
X89Y130D01*
X90Y130D01*
X90Y131D01*
X91Y131D01*
X129Y131D01*
X131Y131D01*
X132Y132D01*
X134Y132D01*
X135Y133D01*
X136Y135D01*
X137Y136D01*
X138Y137D01*
X138Y139D01*
X138Y141D01*
X138Y205D01*
X138Y207D01*
X137Y208D01*
X137Y210D01*
X136Y211D01*
X134Y212D01*
X133Y213D01*
X131Y214D01*
X130Y214D01*
X128Y214D01*
X32Y215D01*
X31Y215D01*
X30Y216D01*
X30Y216D01*
X30Y217D01*
X30Y244D01*
X31Y245D01*
X31Y246D01*
X32Y246D01*
X32Y246D01*
X129Y246D01*
X131Y247D01*
X132Y247D01*
X134Y248D01*
X135Y249D01*
X136Y250D01*
X137Y252D01*
X138Y253D01*
X138Y255D01*
X138Y256D01*
X138Y271D01*
X139Y272D01*
X139Y273D01*
X140Y273D01*
X141Y273D01*
X196Y274D01*
X197Y273D01*
D02*
G37*
D02*
G36*
X965Y679D02*
X966Y678D01*
X966Y678D01*
X967Y677D01*
X969Y669D01*
X970Y668D01*
X973Y662D01*
X974Y660D01*
X979Y654D01*
X980Y653D01*
X987Y648D01*
X987Y647D01*
X995Y643D01*
X996Y643D01*
X1004Y640D01*
X1009Y640D01*
X1014Y639D01*
X1015Y639D01*
X1020Y640D01*
X1025Y641D01*
X1033Y643D01*
X1042Y648D01*
X1042Y648D01*
X1049Y653D01*
X1050Y654D01*
X1055Y661D01*
X1055Y662D01*
X1057Y664D01*
X1057Y665D01*
X1058Y665D01*
X1058Y665D01*
X1059Y665D01*
X1060Y665D01*
X1061Y664D01*
X1061Y664D01*
X1061Y663D01*
X1061Y113D01*
X1061Y111D01*
X1060Y111D01*
X1059Y111D01*
X1059Y110D01*
X1058Y111D01*
X1057Y111D01*
X1057Y111D01*
X1054Y115D01*
X1048Y123D01*
X1041Y128D01*
X1033Y133D01*
X1032Y133D01*
X1024Y136D01*
X1018Y137D01*
X1014Y137D01*
X1010Y137D01*
X1004Y136D01*
X996Y133D01*
X994Y132D01*
X987Y128D01*
X979Y122D01*
X974Y115D01*
X969Y107D01*
X969Y106D01*
X966Y98D01*
X966Y98D01*
X965Y97D01*
X964Y97D01*
X963Y97D01*
X963Y97D01*
X962Y98D01*
X962Y98D01*
X962Y99D01*
X959Y107D01*
X954Y115D01*
X949Y123D01*
X941Y128D01*
X933Y133D01*
X932Y133D01*
X924Y136D01*
X918Y137D01*
X914Y137D01*
X910Y137D01*
X903Y135D01*
X895Y133D01*
X887Y128D01*
X879Y122D01*
X874Y115D01*
X869Y107D01*
X869Y106D01*
X866Y98D01*
X866Y98D01*
X865Y97D01*
X864Y97D01*
X863Y97D01*
X863Y97D01*
X862Y98D01*
X862Y98D01*
X862Y99D01*
X859Y107D01*
X855Y115D01*
X849Y123D01*
X841Y128D01*
X833Y133D01*
X832Y133D01*
X831Y134D01*
X830Y134D01*
X830Y135D01*
X830Y192D01*
X831Y193D01*
X831Y194D01*
X832Y194D01*
X833Y194D01*
X917Y194D01*
X919Y195D01*
X922Y196D01*
X924Y197D01*
X926Y198D01*
X928Y201D01*
X929Y203D01*
X931Y206D01*
X931Y208D01*
X931Y210D01*
X931Y369D01*
X932Y370D01*
X932Y371D01*
X933Y371D01*
X933Y371D01*
X951Y371D01*
X952Y371D01*
X952Y370D01*
X953Y369D01*
X953Y368D01*
X954Y367D01*
X957Y361D01*
X958Y359D01*
X963Y353D01*
X964Y352D01*
X971Y347D01*
X972Y346D01*
X979Y342D01*
X980Y342D01*
X983Y341D01*
X984Y340D01*
X984Y340D01*
X984Y339D01*
X984Y338D01*
X983Y337D01*
X983Y336D01*
X982Y336D01*
X958Y336D01*
X957Y336D01*
X955Y335D01*
X954Y335D01*
X952Y334D01*
X951Y332D01*
X950Y331D01*
X950Y330D01*
X949Y328D01*
X949Y326D01*
X949Y247D01*
X949Y246D01*
X950Y244D01*
X950Y244D01*
X951Y242D01*
X953Y241D01*
X954Y239D01*
X956Y239D01*
X957Y238D01*
X959Y238D01*
X1038Y238D01*
X1040Y239D01*
X1041Y239D01*
X1043Y240D01*
X1044Y241D01*
X1045Y242D01*
X1046Y244D01*
X1047Y245D01*
X1047Y247D01*
X1047Y248D01*
X1047Y327D01*
X1047Y329D01*
X1046Y330D01*
X1046Y332D01*
X1044Y333D01*
X1043Y334D01*
X1042Y335D01*
X1040Y336D01*
X1039Y336D01*
X1037Y336D01*
X1014Y336D01*
X1013Y337D01*
X1012Y337D01*
X1012Y338D01*
X1012Y338D01*
X1012Y339D01*
X1012Y340D01*
X1013Y341D01*
X1013Y341D01*
X1017Y342D01*
X1025Y347D01*
X1026Y347D01*
X1033Y352D01*
X1034Y353D01*
X1039Y360D01*
X1039Y361D01*
X1043Y368D01*
X1043Y369D01*
X1046Y377D01*
X1047Y382D01*
X1047Y387D01*
X1047Y388D01*
X1047Y393D01*
X1046Y397D01*
X1043Y406D01*
X1039Y415D01*
X1038Y415D01*
X1033Y422D01*
X1032Y423D01*
X1025Y428D01*
X1017Y432D01*
X1016Y432D01*
X1009Y435D01*
X1008Y435D01*
X1008Y436D01*
X1007Y437D01*
X1007Y437D01*
X1007Y438D01*
X1008Y439D01*
X1008Y439D01*
X1009Y440D01*
X1017Y442D01*
X1025Y447D01*
X1026Y447D01*
X1033Y452D01*
X1034Y453D01*
X1039Y460D01*
X1039Y461D01*
X1043Y468D01*
X1043Y469D01*
X1046Y477D01*
X1047Y482D01*
X1047Y487D01*
X1047Y488D01*
X1047Y493D01*
X1046Y497D01*
X1043Y506D01*
X1039Y515D01*
X1038Y515D01*
X1033Y522D01*
X1032Y523D01*
X1025Y528D01*
X1017Y532D01*
X1016Y532D01*
X1008Y535D01*
X1003Y536D01*
X999Y536D01*
X998Y536D01*
X993Y536D01*
X987Y535D01*
X979Y532D01*
X971Y528D01*
X970Y527D01*
X964Y522D01*
X963Y521D01*
X958Y515D01*
X957Y514D01*
X953Y506D01*
X953Y505D01*
X952Y504D01*
X951Y503D01*
X951Y503D01*
X932Y503D01*
X931Y504D01*
X931Y504D01*
X930Y505D01*
X930Y505D01*
X930Y641D01*
X931Y642D01*
X931Y643D01*
X932Y643D01*
X933Y643D01*
X942Y648D01*
X949Y653D01*
X950Y655D01*
X955Y661D01*
X955Y662D01*
X959Y669D01*
X960Y670D01*
X962Y678D01*
X962Y678D01*
X963Y679D01*
X964Y679D01*
X965Y679D01*
D02*
G37*
D02*
G36*
X637Y440D02*
X638Y439D01*
X638Y439D01*
X639Y438D01*
X639Y438D01*
X639Y222D01*
X638Y221D01*
X638Y221D01*
X637Y220D01*
X637Y220D01*
X636Y220D01*
X635Y221D01*
X628Y226D01*
X620Y230D01*
X611Y233D01*
X610Y234D01*
X602Y234D01*
X600Y234D01*
X592Y233D01*
X591Y233D01*
X583Y230D01*
X575Y226D01*
X568Y221D01*
X567Y220D01*
X562Y214D01*
X562Y213D01*
X558Y205D01*
X555Y197D01*
X555Y195D01*
X554Y187D01*
X554Y186D01*
X555Y179D01*
X555Y177D01*
X558Y169D01*
X558Y168D01*
X562Y160D01*
X568Y154D01*
X569Y153D01*
X575Y148D01*
X576Y147D01*
X583Y143D01*
X592Y141D01*
X593Y140D01*
X600Y139D01*
X601Y139D01*
X602Y139D01*
X602Y138D01*
X603Y137D01*
X603Y137D01*
X602Y136D01*
X602Y135D01*
X601Y135D01*
X595Y133D01*
X587Y128D01*
X579Y122D01*
X574Y115D01*
X569Y107D01*
X569Y106D01*
X566Y98D01*
X566Y98D01*
X565Y97D01*
X564Y97D01*
X563Y97D01*
X563Y97D01*
X562Y98D01*
X562Y98D01*
X562Y99D01*
X559Y107D01*
X555Y115D01*
X549Y123D01*
X541Y128D01*
X533Y133D01*
X532Y133D01*
X531Y134D01*
X531Y135D01*
X531Y135D01*
X531Y186D01*
X531Y188D01*
X531Y191D01*
X530Y192D01*
X529Y194D01*
X528Y195D01*
X483Y247D01*
X482Y247D01*
X482Y248D01*
X482Y248D01*
X483Y249D01*
X483Y250D01*
X484Y250D01*
X485Y250D01*
X486Y250D01*
X486Y250D01*
X488Y249D01*
X489Y248D01*
X496Y244D01*
X497Y244D01*
X505Y241D01*
X514Y240D01*
X524Y241D01*
X532Y244D01*
X533Y245D01*
X540Y249D01*
X547Y254D01*
X548Y255D01*
X553Y261D01*
X557Y269D01*
X560Y278D01*
X560Y279D01*
X561Y287D01*
X561Y289D01*
X560Y297D01*
X560Y298D01*
X557Y306D01*
X553Y314D01*
X548Y320D01*
X547Y321D01*
X540Y326D01*
X532Y331D01*
X532Y331D01*
X524Y333D01*
X514Y334D01*
X505Y333D01*
X496Y331D01*
X495Y330D01*
X488Y326D01*
X481Y321D01*
X480Y320D01*
X475Y314D01*
X471Y306D01*
X468Y297D01*
X468Y296D01*
X467Y288D01*
X468Y278D01*
X471Y269D01*
X474Y264D01*
X474Y263D01*
X474Y262D01*
X474Y261D01*
X473Y261D01*
X472Y260D01*
X471Y260D01*
X471Y261D01*
X470Y261D01*
X470Y261D01*
X342Y406D01*
X339Y408D01*
X336Y409D01*
X334Y410D01*
X331Y410D01*
X140Y412D01*
X139Y412D01*
X139Y413D01*
X138Y414D01*
X138Y414D01*
X138Y429D01*
X138Y431D01*
X137Y432D01*
X137Y434D01*
X136Y435D01*
X135Y436D01*
X134Y437D01*
X134Y438D01*
X134Y438D01*
X135Y439D01*
X135Y439D01*
X136Y440D01*
X136Y440D01*
X137Y440D01*
X637Y440D01*
D02*
G37*
D02*
G36*
X258Y214D02*
X259Y214D01*
X345Y132D01*
X345Y131D01*
X346Y130D01*
X345Y129D01*
X345Y129D01*
X344Y128D01*
X344Y128D01*
X343Y128D01*
X342Y128D01*
X334Y132D01*
X332Y133D01*
X324Y136D01*
X318Y137D01*
X314Y137D01*
X310Y137D01*
X303Y135D01*
X295Y133D01*
X287Y128D01*
X279Y122D01*
X274Y115D01*
X269Y107D01*
X269Y106D01*
X266Y98D01*
X266Y98D01*
X265Y97D01*
X264Y97D01*
X263Y97D01*
X263Y97D01*
X262Y98D01*
X262Y98D01*
X262Y99D01*
X259Y107D01*
X255Y115D01*
X249Y123D01*
X241Y128D01*
X233Y133D01*
X232Y133D01*
X223Y136D01*
X223Y136D01*
X222Y137D01*
X222Y138D01*
X222Y139D01*
X223Y140D01*
X223Y140D01*
X224Y140D01*
X225Y141D01*
X233Y143D01*
X241Y148D01*
X242Y148D01*
X248Y153D01*
X249Y154D01*
X254Y160D01*
X258Y168D01*
X259Y169D01*
X261Y177D01*
X261Y179D01*
X262Y187D01*
X262Y188D01*
X261Y196D01*
X261Y197D01*
X258Y205D01*
X255Y211D01*
X255Y212D01*
X255Y213D01*
X256Y214D01*
X256Y214D01*
X257Y214D01*
X257Y215D01*
X258Y214D01*
D02*
G37*
D02*
G36*
X258Y214D02*
X259Y214D01*
X345Y132D01*
X345Y131D01*
X346Y130D01*
X345Y129D01*
X345Y129D01*
X344Y128D01*
X344Y128D01*
X343Y128D01*
X342Y128D01*
X334Y132D01*
X332Y133D01*
X324Y136D01*
X318Y137D01*
X314Y137D01*
X310Y137D01*
X303Y135D01*
X295Y133D01*
X287Y128D01*
X279Y122D01*
X274Y115D01*
X269Y107D01*
X269Y106D01*
X266Y98D01*
X266Y98D01*
X265Y97D01*
X264Y97D01*
X263Y97D01*
X263Y97D01*
X262Y98D01*
X262Y98D01*
X262Y99D01*
X259Y107D01*
X255Y115D01*
X249Y123D01*
X241Y128D01*
X233Y133D01*
X232Y133D01*
X223Y136D01*
X223Y136D01*
X222Y137D01*
X222Y138D01*
X222Y139D01*
X223Y140D01*
X223Y140D01*
X224Y140D01*
X225Y141D01*
X233Y143D01*
X241Y148D01*
X242Y148D01*
X248Y153D01*
X249Y154D01*
X254Y160D01*
X258Y168D01*
X259Y169D01*
X261Y177D01*
X261Y179D01*
X262Y187D01*
X262Y188D01*
X261Y196D01*
X261Y197D01*
X258Y205D01*
X255Y211D01*
X255Y212D01*
X255Y213D01*
X256Y214D01*
X256Y214D01*
X257Y214D01*
X257Y215D01*
X258Y214D01*
D02*
G37*
D02*
G36*
X865Y679D02*
X866Y678D01*
X866Y678D01*
X867Y677D01*
X869Y669D01*
X873Y662D01*
X874Y660D01*
X879Y654D01*
X880Y653D01*
X887Y648D01*
X895Y643D01*
X897Y643D01*
X897Y642D01*
X898Y642D01*
X898Y641D01*
X898Y486D01*
X899Y483D01*
X899Y481D01*
X900Y480D01*
X901Y478D01*
X902Y477D01*
X903Y476D01*
X906Y473D01*
X908Y473D01*
X910Y472D01*
X912Y471D01*
X914Y471D01*
X951Y471D01*
X952Y471D01*
X952Y470D01*
X953Y469D01*
X953Y468D01*
X954Y467D01*
X957Y461D01*
X958Y459D01*
X963Y453D01*
X964Y452D01*
X971Y447D01*
X972Y446D01*
X979Y442D01*
X980Y442D01*
X988Y439D01*
X988Y439D01*
X989Y438D01*
X989Y438D01*
X989Y437D01*
X989Y436D01*
X988Y435D01*
X988Y435D01*
X987Y435D01*
X979Y432D01*
X971Y428D01*
X970Y427D01*
X964Y422D01*
X963Y421D01*
X958Y415D01*
X957Y414D01*
X953Y406D01*
X953Y405D01*
X952Y404D01*
X952Y403D01*
X951Y403D01*
X913Y403D01*
X912Y403D01*
X909Y402D01*
X907Y401D01*
X905Y399D01*
X904Y398D01*
X901Y395D01*
X901Y394D01*
X900Y391D01*
X899Y390D01*
X899Y387D01*
X899Y228D01*
X899Y227D01*
X898Y227D01*
X897Y226D01*
X897Y226D01*
X812Y226D01*
X811Y226D01*
X808Y225D01*
X806Y224D01*
X804Y222D01*
X803Y221D01*
X800Y219D01*
X800Y217D01*
X799Y214D01*
X798Y213D01*
X798Y210D01*
X798Y135D01*
X798Y134D01*
X797Y133D01*
X796Y133D01*
X795Y133D01*
X787Y128D01*
X779Y122D01*
X774Y115D01*
X769Y107D01*
X769Y106D01*
X766Y98D01*
X766Y98D01*
X765Y97D01*
X764Y97D01*
X763Y97D01*
X763Y97D01*
X762Y98D01*
X762Y98D01*
X762Y99D01*
X759Y107D01*
X755Y115D01*
X749Y123D01*
X741Y128D01*
X733Y133D01*
X732Y133D01*
X724Y136D01*
X723Y136D01*
X722Y136D01*
X722Y137D01*
X721Y137D01*
X721Y138D01*
X721Y139D01*
X721Y139D01*
X722Y140D01*
X723Y141D01*
X731Y143D01*
X739Y148D01*
X740Y148D01*
X746Y153D01*
X747Y154D01*
X752Y160D01*
X756Y168D01*
X757Y169D01*
X759Y177D01*
X759Y179D01*
X760Y187D01*
X760Y188D01*
X759Y196D01*
X759Y197D01*
X756Y205D01*
X752Y213D01*
X751Y214D01*
X746Y220D01*
X745Y221D01*
X739Y226D01*
X731Y231D01*
X730Y231D01*
X729Y231D01*
X729Y232D01*
X729Y233D01*
X729Y233D01*
X729Y279D01*
X729Y280D01*
X730Y281D01*
X731Y281D01*
X731Y281D01*
X787Y281D01*
X788Y281D01*
X789Y280D01*
X790Y278D01*
X794Y271D01*
X794Y270D01*
X799Y264D01*
X800Y263D01*
X806Y258D01*
X807Y258D01*
X814Y254D01*
X815Y253D01*
X823Y251D01*
X825Y251D01*
X833Y250D01*
X834Y250D01*
X842Y251D01*
X843Y251D01*
X851Y254D01*
X859Y258D01*
X860Y259D01*
X866Y264D01*
X867Y265D01*
X872Y271D01*
X876Y279D01*
X877Y280D01*
X879Y288D01*
X880Y289D01*
X880Y297D01*
X880Y298D01*
X879Y307D01*
X877Y315D01*
X876Y317D01*
X872Y324D01*
X872Y325D01*
X867Y331D01*
X865Y332D01*
X860Y336D01*
X851Y341D01*
X843Y344D01*
X841Y344D01*
X833Y345D01*
X824Y344D01*
X822Y343D01*
X815Y341D01*
X814Y340D01*
X806Y337D01*
X799Y331D01*
X799Y330D01*
X795Y326D01*
X795Y326D01*
X794Y325D01*
X793Y325D01*
X792Y326D01*
X792Y326D01*
X791Y327D01*
X791Y328D01*
X791Y367D01*
X792Y368D01*
X792Y369D01*
X793Y369D01*
X793Y369D01*
X794Y369D01*
X795Y369D01*
X795Y369D01*
X799Y364D01*
X800Y363D01*
X806Y358D01*
X807Y358D01*
X814Y354D01*
X815Y353D01*
X823Y351D01*
X825Y351D01*
X833Y350D01*
X842Y351D01*
X843Y351D01*
X851Y354D01*
X859Y358D01*
X860Y359D01*
X866Y364D01*
X867Y365D01*
X872Y371D01*
X876Y379D01*
X877Y380D01*
X879Y388D01*
X880Y389D01*
X880Y397D01*
X880Y398D01*
X879Y407D01*
X877Y415D01*
X876Y417D01*
X872Y424D01*
X872Y425D01*
X867Y431D01*
X865Y432D01*
X860Y436D01*
X851Y441D01*
X843Y444D01*
X841Y444D01*
X833Y445D01*
X824Y444D01*
X822Y443D01*
X815Y441D01*
X814Y440D01*
X806Y437D01*
X799Y431D01*
X799Y430D01*
X795Y426D01*
X795Y426D01*
X794Y425D01*
X793Y425D01*
X792Y426D01*
X792Y426D01*
X791Y427D01*
X791Y428D01*
X791Y467D01*
X792Y468D01*
X792Y469D01*
X793Y469D01*
X793Y469D01*
X794Y469D01*
X795Y469D01*
X795Y469D01*
X799Y464D01*
X800Y463D01*
X806Y458D01*
X807Y458D01*
X814Y454D01*
X815Y453D01*
X823Y451D01*
X825Y451D01*
X833Y450D01*
X842Y451D01*
X843Y451D01*
X851Y454D01*
X859Y458D01*
X860Y459D01*
X866Y464D01*
X867Y465D01*
X872Y471D01*
X876Y479D01*
X877Y480D01*
X879Y488D01*
X880Y489D01*
X880Y497D01*
X880Y498D01*
X879Y507D01*
X877Y515D01*
X876Y517D01*
X872Y524D01*
X867Y531D01*
X866Y532D01*
X860Y536D01*
X859Y537D01*
X851Y541D01*
X850Y541D01*
X842Y544D01*
X841Y544D01*
X833Y545D01*
X832Y545D01*
X824Y544D01*
X822Y543D01*
X815Y541D01*
X814Y540D01*
X806Y537D01*
X806Y536D01*
X799Y531D01*
X798Y530D01*
X795Y526D01*
X795Y526D01*
X794Y525D01*
X793Y525D01*
X792Y526D01*
X792Y526D01*
X791Y527D01*
X791Y528D01*
X791Y627D01*
X791Y630D01*
X790Y632D01*
X789Y635D01*
X788Y637D01*
X787Y637D01*
X759Y666D01*
X759Y666D01*
X758Y667D01*
X759Y668D01*
X760Y670D01*
X762Y678D01*
X763Y678D01*
X763Y679D01*
X764Y679D01*
X764Y679D01*
X765Y679D01*
X766Y678D01*
X766Y678D01*
X767Y677D01*
X769Y669D01*
X773Y662D01*
X774Y660D01*
X779Y654D01*
X780Y653D01*
X787Y648D01*
X795Y643D01*
X804Y640D01*
X809Y640D01*
X814Y639D01*
X815Y639D01*
X820Y640D01*
X824Y640D01*
X833Y643D01*
X842Y648D01*
X849Y653D01*
X850Y655D01*
X855Y661D01*
X855Y662D01*
X859Y669D01*
X860Y670D01*
X862Y678D01*
X863Y678D01*
X863Y679D01*
X864Y679D01*
X864Y679D01*
X865Y679D01*
D02*
G37*
D02*
G36*
X674Y159D02*
X675Y159D01*
X675Y158D01*
X679Y154D01*
X680Y153D01*
X686Y148D01*
X687Y147D01*
X694Y143D01*
X703Y141D01*
X704Y140D01*
X705Y140D01*
X705Y140D01*
X705Y139D01*
X706Y138D01*
X705Y137D01*
X705Y136D01*
X704Y136D01*
X703Y135D01*
X695Y133D01*
X687Y128D01*
X679Y122D01*
X674Y115D01*
X669Y107D01*
X669Y106D01*
X666Y98D01*
X666Y98D01*
X665Y97D01*
X664Y97D01*
X663Y97D01*
X663Y97D01*
X662Y98D01*
X662Y98D01*
X662Y99D01*
X659Y107D01*
X656Y113D01*
X656Y114D01*
X656Y115D01*
X656Y116D01*
X668Y131D01*
X669Y133D01*
X670Y135D01*
X671Y138D01*
X671Y139D01*
X671Y157D01*
X671Y158D01*
X672Y159D01*
X673Y159D01*
X673Y159D01*
X674Y159D01*
D02*
G37*
D02*
G36*
X674Y159D02*
X675Y159D01*
X675Y158D01*
X679Y154D01*
X680Y153D01*
X686Y148D01*
X687Y147D01*
X694Y143D01*
X703Y141D01*
X704Y140D01*
X705Y140D01*
X705Y140D01*
X705Y139D01*
X706Y138D01*
X705Y137D01*
X705Y136D01*
X704Y136D01*
X703Y135D01*
X695Y133D01*
X687Y128D01*
X679Y122D01*
X674Y115D01*
X669Y107D01*
X669Y106D01*
X666Y98D01*
X666Y98D01*
X665Y97D01*
X664Y97D01*
X663Y97D01*
X663Y97D01*
X662Y98D01*
X662Y98D01*
X662Y99D01*
X659Y107D01*
X656Y113D01*
X656Y114D01*
X656Y115D01*
X656Y116D01*
X668Y131D01*
X669Y133D01*
X670Y135D01*
X671Y138D01*
X671Y139D01*
X671Y157D01*
X671Y158D01*
X672Y159D01*
X673Y159D01*
X673Y159D01*
X674Y159D01*
D02*
G37*
D02*
G36*
X323Y378D02*
X324Y378D01*
X324Y378D01*
X499Y180D01*
X499Y179D01*
X499Y178D01*
X499Y135D01*
X499Y135D01*
X498Y134D01*
X497Y133D01*
X495Y133D01*
X487Y128D01*
X479Y122D01*
X474Y115D01*
X469Y107D01*
X469Y106D01*
X466Y98D01*
X466Y98D01*
X465Y97D01*
X464Y97D01*
X463Y97D01*
X463Y97D01*
X462Y98D01*
X462Y98D01*
X462Y99D01*
X459Y107D01*
X455Y115D01*
X449Y123D01*
X441Y128D01*
X433Y133D01*
X432Y133D01*
X423Y136D01*
X423Y136D01*
X422Y137D01*
X422Y138D01*
X422Y139D01*
X423Y140D01*
X423Y140D01*
X424Y140D01*
X425Y141D01*
X433Y143D01*
X441Y148D01*
X442Y148D01*
X448Y153D01*
X449Y154D01*
X454Y160D01*
X458Y168D01*
X459Y169D01*
X461Y177D01*
X461Y179D01*
X462Y187D01*
X462Y188D01*
X461Y196D01*
X461Y197D01*
X458Y205D01*
X454Y213D01*
X453Y214D01*
X448Y220D01*
X447Y221D01*
X441Y226D01*
X433Y230D01*
X424Y233D01*
X423Y234D01*
X415Y234D01*
X414Y234D01*
X405Y233D01*
X404Y233D01*
X396Y230D01*
X388Y226D01*
X381Y221D01*
X380Y220D01*
X376Y214D01*
X375Y213D01*
X371Y205D01*
X369Y197D01*
X368Y195D01*
X367Y187D01*
X367Y186D01*
X368Y179D01*
X369Y177D01*
X371Y169D01*
X372Y168D01*
X375Y160D01*
X381Y154D01*
X382Y153D01*
X388Y148D01*
X389Y147D01*
X396Y143D01*
X405Y140D01*
X406Y140D01*
X406Y139D01*
X407Y138D01*
X407Y137D01*
X406Y137D01*
X406Y136D01*
X405Y136D01*
X403Y135D01*
X395Y133D01*
X393Y132D01*
X392Y132D01*
X392Y132D01*
X391Y132D01*
X213Y302D01*
X210Y304D01*
X208Y305D01*
X204Y306D01*
X140Y305D01*
X139Y305D01*
X139Y306D01*
X138Y307D01*
X138Y307D01*
X138Y321D01*
X138Y323D01*
X137Y324D01*
X137Y325D01*
X136Y327D01*
X134Y328D01*
X133Y329D01*
X131Y330D01*
X130Y330D01*
X128Y330D01*
X32Y330D01*
X31Y331D01*
X30Y331D01*
X30Y332D01*
X30Y332D01*
X30Y353D01*
X31Y354D01*
X31Y354D01*
X32Y355D01*
X32Y355D01*
X129Y355D01*
X131Y355D01*
X132Y355D01*
X134Y356D01*
X135Y357D01*
X136Y358D01*
X137Y360D01*
X138Y361D01*
X138Y363D01*
X138Y365D01*
X138Y378D01*
X139Y379D01*
X139Y379D01*
X140Y380D01*
X141Y380D01*
X323Y378D01*
D02*
G37*
D02*
G36*
X665Y679D02*
X666Y678D01*
X666Y678D01*
X667Y677D01*
X669Y669D01*
X673Y662D01*
X674Y660D01*
X679Y654D01*
X680Y653D01*
X687Y648D01*
X695Y643D01*
X704Y640D01*
X709Y640D01*
X712Y639D01*
X713Y639D01*
X713Y639D01*
X714Y639D01*
X720Y640D01*
X725Y641D01*
X734Y644D01*
X735Y644D01*
X736Y643D01*
X736Y643D01*
X759Y620D01*
X759Y620D01*
X759Y619D01*
X759Y610D01*
X759Y609D01*
X758Y608D01*
X757Y608D01*
X757Y608D01*
X756Y608D01*
X755Y608D01*
X755Y609D01*
X752Y613D01*
X751Y614D01*
X746Y620D01*
X745Y621D01*
X739Y626D01*
X731Y630D01*
X723Y633D01*
X721Y634D01*
X714Y634D01*
X714Y634D01*
X713Y635D01*
X712Y634D01*
X703Y633D01*
X702Y633D01*
X694Y630D01*
X693Y630D01*
X686Y626D01*
X679Y621D01*
X678Y620D01*
X674Y614D01*
X673Y613D01*
X669Y605D01*
X666Y597D01*
X666Y595D01*
X665Y587D01*
X665Y586D01*
X666Y578D01*
X667Y576D01*
X669Y569D01*
X673Y560D01*
X679Y554D01*
X680Y553D01*
X686Y548D01*
X687Y547D01*
X694Y543D01*
X696Y543D01*
X696Y542D01*
X697Y541D01*
X697Y541D01*
X697Y477D01*
X697Y476D01*
X696Y475D01*
X692Y472D01*
X692Y472D01*
X689Y468D01*
X686Y462D01*
X684Y457D01*
X684Y456D01*
X683Y452D01*
X684Y450D01*
X684Y445D01*
X686Y440D01*
X689Y435D01*
X692Y430D01*
X693Y429D01*
X697Y427D01*
X702Y424D01*
X707Y422D01*
X708Y422D01*
X713Y421D01*
X719Y422D01*
X720Y422D01*
X725Y424D01*
X730Y427D01*
X731Y427D01*
X734Y430D01*
X735Y430D01*
X738Y434D01*
X740Y440D01*
X742Y445D01*
X742Y446D01*
X743Y451D01*
X743Y452D01*
X742Y457D01*
X742Y458D01*
X740Y463D01*
X738Y468D01*
X734Y472D01*
X733Y473D01*
X730Y476D01*
X729Y476D01*
X729Y477D01*
X729Y477D01*
X729Y541D01*
X729Y542D01*
X730Y543D01*
X730Y543D01*
X732Y544D01*
X739Y548D01*
X740Y548D01*
X746Y553D01*
X747Y554D01*
X752Y560D01*
X755Y565D01*
X755Y566D01*
X756Y566D01*
X757Y566D01*
X758Y566D01*
X759Y565D01*
X759Y565D01*
X759Y564D01*
X759Y315D01*
X759Y314D01*
X758Y314D01*
X757Y313D01*
X757Y313D01*
X711Y313D01*
X709Y313D01*
X706Y312D01*
X705Y311D01*
X702Y309D01*
X701Y308D01*
X699Y305D01*
X698Y304D01*
X697Y301D01*
X697Y300D01*
X697Y297D01*
X697Y233D01*
X696Y232D01*
X696Y231D01*
X693Y230D01*
X686Y226D01*
X679Y221D01*
X678Y220D01*
X675Y215D01*
X674Y215D01*
X673Y215D01*
X673Y215D01*
X672Y215D01*
X671Y216D01*
X671Y216D01*
X671Y217D01*
X671Y457D01*
X670Y460D01*
X670Y462D01*
X669Y464D01*
X668Y465D01*
X666Y467D01*
X664Y469D01*
X662Y470D01*
X659Y471D01*
X657Y472D01*
X655Y472D01*
X140Y472D01*
X139Y472D01*
X139Y473D01*
X138Y474D01*
X138Y474D01*
X138Y487D01*
X139Y488D01*
X139Y488D01*
X140Y489D01*
X141Y489D01*
X141Y489D01*
X144Y487D01*
X146Y486D01*
X148Y486D01*
X151Y486D01*
X316Y486D01*
X318Y486D01*
X321Y488D01*
X322Y488D01*
X324Y489D01*
X326Y491D01*
X327Y492D01*
X328Y495D01*
X330Y498D01*
X330Y502D01*
X330Y542D01*
X331Y543D01*
X331Y544D01*
X333Y545D01*
X340Y549D01*
X341Y549D01*
X347Y554D01*
X348Y555D01*
X353Y561D01*
X357Y569D01*
X360Y578D01*
X360Y579D01*
X361Y587D01*
X361Y589D01*
X360Y597D01*
X357Y606D01*
X357Y606D01*
X353Y614D01*
X348Y620D01*
X347Y621D01*
X341Y626D01*
X340Y627D01*
X332Y631D01*
X332Y631D01*
X324Y633D01*
X316Y634D01*
X315Y635D01*
X314Y635D01*
X314Y634D01*
X305Y633D01*
X296Y631D01*
X295Y630D01*
X288Y626D01*
X281Y621D01*
X280Y620D01*
X275Y614D01*
X271Y606D01*
X268Y597D01*
X268Y596D01*
X267Y587D01*
X268Y578D01*
X269Y577D01*
X271Y569D01*
X275Y561D01*
X281Y554D01*
X282Y553D01*
X288Y549D01*
X297Y544D01*
X298Y543D01*
X298Y543D01*
X298Y542D01*
X298Y520D01*
X298Y519D01*
X297Y518D01*
X296Y518D01*
X296Y518D01*
X169Y518D01*
X168Y518D01*
X167Y519D01*
X167Y520D01*
X167Y520D01*
X167Y567D01*
X167Y568D01*
X168Y569D01*
X168Y569D01*
X169Y569D01*
X170Y569D01*
X170Y569D01*
X171Y568D01*
X175Y560D01*
X181Y554D01*
X182Y553D01*
X188Y548D01*
X189Y547D01*
X196Y543D01*
X197Y543D01*
X205Y540D01*
X206Y540D01*
X214Y539D01*
X216Y539D01*
X224Y540D01*
X225Y541D01*
X233Y543D01*
X241Y548D01*
X242Y548D01*
X248Y553D01*
X249Y554D01*
X254Y560D01*
X258Y568D01*
X259Y569D01*
X261Y577D01*
X261Y579D01*
X262Y587D01*
X261Y595D01*
X261Y597D01*
X258Y605D01*
X254Y613D01*
X253Y614D01*
X248Y620D01*
X247Y621D01*
X241Y626D01*
X233Y630D01*
X232Y631D01*
X231Y631D01*
X231Y632D01*
X230Y633D01*
X230Y633D01*
X230Y641D01*
X231Y642D01*
X231Y643D01*
X232Y643D01*
X233Y643D01*
X242Y648D01*
X249Y653D01*
X250Y655D01*
X255Y661D01*
X255Y662D01*
X259Y669D01*
X260Y670D01*
X262Y678D01*
X263Y678D01*
X263Y679D01*
X264Y679D01*
X264Y679D01*
X265Y679D01*
X266Y678D01*
X266Y678D01*
X267Y677D01*
X269Y669D01*
X273Y662D01*
X274Y660D01*
X279Y654D01*
X280Y653D01*
X287Y648D01*
X295Y643D01*
X304Y640D01*
X309Y640D01*
X313Y639D01*
X314Y639D01*
X315Y639D01*
X320Y640D01*
X324Y640D01*
X333Y643D01*
X342Y648D01*
X349Y653D01*
X350Y655D01*
X355Y661D01*
X355Y662D01*
X359Y669D01*
X360Y670D01*
X362Y678D01*
X363Y678D01*
X363Y679D01*
X364Y679D01*
X364Y679D01*
X365Y679D01*
X366Y678D01*
X366Y678D01*
X367Y677D01*
X369Y669D01*
X373Y662D01*
X374Y660D01*
X379Y654D01*
X380Y653D01*
X387Y648D01*
X395Y643D01*
X397Y643D01*
X398Y642D01*
X398Y641D01*
X398Y641D01*
X398Y640D01*
X398Y633D01*
X398Y632D01*
X398Y631D01*
X397Y631D01*
X395Y630D01*
X388Y626D01*
X381Y621D01*
X380Y620D01*
X376Y614D01*
X375Y613D01*
X371Y605D01*
X368Y597D01*
X368Y595D01*
X367Y587D01*
X367Y586D01*
X368Y578D01*
X369Y576D01*
X371Y569D01*
X375Y560D01*
X381Y554D01*
X382Y553D01*
X388Y548D01*
X389Y547D01*
X396Y543D01*
X397Y543D01*
X405Y540D01*
X406Y540D01*
X414Y539D01*
X416Y539D01*
X424Y540D01*
X425Y541D01*
X433Y543D01*
X441Y548D01*
X442Y548D01*
X448Y553D01*
X449Y554D01*
X454Y560D01*
X458Y568D01*
X459Y569D01*
X461Y577D01*
X461Y579D01*
X462Y587D01*
X461Y595D01*
X461Y597D01*
X458Y605D01*
X454Y613D01*
X453Y614D01*
X448Y620D01*
X447Y621D01*
X441Y626D01*
X433Y630D01*
X432Y631D01*
X431Y631D01*
X431Y632D01*
X430Y633D01*
X430Y641D01*
X431Y642D01*
X431Y642D01*
X432Y643D01*
X434Y644D01*
X442Y648D01*
X449Y653D01*
X450Y655D01*
X455Y661D01*
X455Y662D01*
X459Y669D01*
X460Y670D01*
X462Y678D01*
X463Y678D01*
X463Y679D01*
X464Y679D01*
X464Y679D01*
X465Y679D01*
X466Y678D01*
X466Y678D01*
X467Y677D01*
X469Y669D01*
X473Y662D01*
X474Y660D01*
X479Y654D01*
X480Y653D01*
X487Y648D01*
X495Y643D01*
X504Y640D01*
X509Y640D01*
X513Y639D01*
X514Y639D01*
X515Y639D01*
X520Y640D01*
X524Y640D01*
X533Y643D01*
X542Y648D01*
X549Y653D01*
X550Y655D01*
X555Y661D01*
X555Y662D01*
X559Y669D01*
X560Y670D01*
X562Y678D01*
X563Y678D01*
X563Y679D01*
X564Y679D01*
X564Y679D01*
X565Y679D01*
X566Y678D01*
X566Y678D01*
X567Y677D01*
X569Y669D01*
X573Y662D01*
X574Y660D01*
X579Y654D01*
X580Y653D01*
X587Y648D01*
X595Y643D01*
X604Y640D01*
X609Y640D01*
X614Y639D01*
X615Y639D01*
X620Y640D01*
X624Y640D01*
X633Y643D01*
X642Y648D01*
X649Y653D01*
X650Y655D01*
X655Y661D01*
X655Y662D01*
X659Y669D01*
X660Y670D01*
X662Y678D01*
X663Y678D01*
X663Y679D01*
X664Y679D01*
X664Y679D01*
X665Y679D01*
D02*
G37*
D02*
G36*
X133Y571D02*
X133Y571D01*
X134Y570D01*
X134Y569D01*
X135Y569D01*
X135Y546D01*
X134Y545D01*
X134Y544D01*
X133Y544D01*
X132Y544D01*
X131Y544D01*
X129Y545D01*
X128Y545D01*
X32Y545D01*
X31Y545D01*
X30Y546D01*
X30Y547D01*
X30Y547D01*
X30Y568D01*
X31Y569D01*
X31Y570D01*
X32Y570D01*
X32Y570D01*
X129Y570D01*
X131Y571D01*
X132Y571D01*
X133Y571D01*
D02*
G37*
D02*
G36*
X133Y571D02*
X133Y571D01*
X134Y570D01*
X134Y569D01*
X135Y569D01*
X135Y546D01*
X134Y545D01*
X134Y544D01*
X133Y544D01*
X132Y544D01*
X131Y544D01*
X129Y545D01*
X128Y545D01*
X32Y545D01*
X31Y545D01*
X30Y546D01*
X30Y547D01*
X30Y547D01*
X30Y568D01*
X31Y569D01*
X31Y570D01*
X32Y570D01*
X32Y570D01*
X129Y570D01*
X131Y571D01*
X132Y571D01*
X133Y571D01*
D02*
G37*
D02*
G36*
X1059Y750D02*
X1060Y750D01*
X1061Y749D01*
X1061Y749D01*
X1061Y748D01*
X1061Y713D01*
X1061Y712D01*
X1060Y712D01*
X1059Y711D01*
X1059Y711D01*
X1058Y711D01*
X1057Y711D01*
X1057Y712D01*
X1055Y716D01*
X1054Y716D01*
X1049Y723D01*
X1048Y723D01*
X1041Y729D01*
X1033Y733D01*
X1032Y733D01*
X1024Y736D01*
X1019Y737D01*
X1015Y737D01*
X1014Y737D01*
X1009Y737D01*
X1003Y736D01*
X995Y733D01*
X994Y733D01*
X987Y729D01*
X986Y728D01*
X980Y723D01*
X979Y722D01*
X974Y716D01*
X973Y715D01*
X969Y707D01*
X969Y706D01*
X966Y699D01*
X966Y698D01*
X965Y698D01*
X964Y698D01*
X963Y698D01*
X962Y698D01*
X962Y699D01*
X962Y699D01*
X959Y707D01*
X955Y716D01*
X954Y716D01*
X949Y723D01*
X948Y724D01*
X942Y729D01*
X933Y733D01*
X924Y736D01*
X920Y737D01*
X915Y737D01*
X914Y737D01*
X909Y737D01*
X904Y736D01*
X896Y733D01*
X894Y733D01*
X887Y729D01*
X886Y728D01*
X880Y723D01*
X879Y722D01*
X874Y716D01*
X873Y715D01*
X869Y707D01*
X866Y699D01*
X866Y698D01*
X865Y698D01*
X864Y697D01*
X863Y697D01*
X863Y698D01*
X862Y698D01*
X862Y699D01*
X862Y699D01*
X859Y707D01*
X855Y716D01*
X854Y716D01*
X849Y723D01*
X848Y724D01*
X842Y729D01*
X833Y733D01*
X824Y736D01*
X820Y737D01*
X815Y737D01*
X814Y737D01*
X809Y737D01*
X804Y736D01*
X796Y733D01*
X794Y733D01*
X787Y729D01*
X786Y728D01*
X780Y723D01*
X779Y722D01*
X774Y716D01*
X773Y715D01*
X769Y707D01*
X766Y699D01*
X766Y698D01*
X765Y698D01*
X764Y697D01*
X763Y697D01*
X763Y698D01*
X762Y698D01*
X762Y699D01*
X762Y699D01*
X759Y707D01*
X755Y716D01*
X754Y716D01*
X749Y723D01*
X748Y724D01*
X742Y729D01*
X733Y733D01*
X724Y736D01*
X719Y737D01*
X715Y737D01*
X714Y737D01*
X709Y737D01*
X704Y736D01*
X696Y733D01*
X694Y733D01*
X687Y729D01*
X686Y728D01*
X680Y723D01*
X679Y722D01*
X674Y716D01*
X673Y715D01*
X669Y707D01*
X666Y699D01*
X666Y698D01*
X665Y698D01*
X664Y697D01*
X663Y697D01*
X663Y698D01*
X662Y698D01*
X662Y699D01*
X662Y699D01*
X659Y707D01*
X655Y716D01*
X654Y716D01*
X649Y723D01*
X648Y724D01*
X642Y729D01*
X633Y733D01*
X624Y736D01*
X620Y737D01*
X615Y737D01*
X614Y737D01*
X609Y737D01*
X604Y736D01*
X596Y733D01*
X594Y733D01*
X587Y729D01*
X586Y728D01*
X580Y723D01*
X579Y722D01*
X574Y716D01*
X573Y715D01*
X569Y707D01*
X566Y699D01*
X566Y698D01*
X565Y698D01*
X564Y697D01*
X563Y697D01*
X563Y698D01*
X562Y698D01*
X562Y699D01*
X562Y699D01*
X559Y707D01*
X555Y716D01*
X554Y716D01*
X549Y723D01*
X548Y724D01*
X542Y729D01*
X533Y733D01*
X524Y736D01*
X520Y737D01*
X515Y737D01*
X514Y737D01*
X509Y737D01*
X504Y736D01*
X496Y733D01*
X494Y733D01*
X487Y729D01*
X486Y728D01*
X480Y723D01*
X479Y722D01*
X474Y716D01*
X473Y715D01*
X469Y707D01*
X466Y699D01*
X466Y698D01*
X465Y698D01*
X464Y697D01*
X463Y697D01*
X463Y698D01*
X462Y698D01*
X462Y699D01*
X462Y699D01*
X459Y707D01*
X455Y716D01*
X454Y716D01*
X449Y723D01*
X448Y724D01*
X442Y729D01*
X433Y733D01*
X424Y736D01*
X420Y737D01*
X415Y737D01*
X414Y737D01*
X409Y737D01*
X404Y736D01*
X396Y733D01*
X394Y733D01*
X387Y729D01*
X386Y728D01*
X380Y723D01*
X379Y722D01*
X374Y716D01*
X373Y715D01*
X369Y707D01*
X366Y699D01*
X366Y698D01*
X365Y698D01*
X364Y697D01*
X363Y697D01*
X363Y698D01*
X362Y698D01*
X362Y699D01*
X362Y699D01*
X359Y707D01*
X355Y716D01*
X354Y716D01*
X349Y723D01*
X348Y724D01*
X342Y729D01*
X333Y733D01*
X324Y736D01*
X320Y737D01*
X315Y737D01*
X314Y737D01*
X309Y737D01*
X304Y736D01*
X296Y733D01*
X294Y733D01*
X287Y729D01*
X286Y728D01*
X280Y723D01*
X279Y722D01*
X274Y716D01*
X273Y715D01*
X269Y707D01*
X266Y699D01*
X266Y698D01*
X265Y698D01*
X264Y697D01*
X263Y697D01*
X263Y698D01*
X262Y698D01*
X262Y699D01*
X262Y699D01*
X259Y707D01*
X255Y716D01*
X254Y716D01*
X249Y723D01*
X248Y724D01*
X242Y729D01*
X233Y733D01*
X224Y736D01*
X220Y737D01*
X215Y737D01*
X214Y737D01*
X209Y737D01*
X204Y736D01*
X196Y733D01*
X194Y733D01*
X187Y729D01*
X186Y728D01*
X180Y723D01*
X179Y722D01*
X174Y716D01*
X173Y715D01*
X169Y707D01*
X167Y699D01*
X166Y698D01*
X166Y694D01*
X165Y693D01*
X165Y689D01*
X165Y688D01*
X166Y683D01*
X167Y678D01*
X169Y669D01*
X173Y662D01*
X174Y660D01*
X179Y654D01*
X180Y653D01*
X187Y648D01*
X195Y643D01*
X197Y643D01*
X197Y642D01*
X198Y642D01*
X198Y641D01*
X198Y633D01*
X198Y631D01*
X197Y631D01*
X195Y630D01*
X188Y626D01*
X181Y621D01*
X180Y620D01*
X176Y614D01*
X175Y613D01*
X171Y605D01*
X171Y605D01*
X170Y605D01*
X169Y604D01*
X169Y604D01*
X168Y605D01*
X167Y606D01*
X167Y606D01*
X167Y607D01*
X167Y614D01*
X166Y617D01*
X166Y618D01*
X165Y620D01*
X164Y621D01*
X162Y623D01*
X159Y626D01*
X158Y626D01*
X155Y628D01*
X153Y628D01*
X151Y628D01*
X140Y628D01*
X139Y629D01*
X139Y629D01*
X138Y630D01*
X138Y631D01*
X138Y645D01*
X138Y647D01*
X137Y648D01*
X137Y650D01*
X136Y651D01*
X134Y652D01*
X133Y653D01*
X131Y654D01*
X130Y654D01*
X128Y654D01*
X32Y654D01*
X31Y655D01*
X30Y655D01*
X30Y656D01*
X30Y656D01*
X30Y748D01*
X31Y750D01*
X31Y750D01*
X32Y750D01*
X32Y750D01*
X1059Y750D01*
D02*
G37*
D02*
G54D18*
X264Y679D02*
X265Y679D01*
X364Y679D02*
X365Y679D01*
X464Y679D02*
X465Y679D01*
X564Y679D02*
X565Y679D01*
X664Y679D02*
X665Y679D01*
X263Y678D02*
X266Y678D01*
X363Y678D02*
X366Y678D01*
X463Y678D02*
X466Y678D01*
X563Y678D02*
X566Y678D01*
X663Y678D02*
X666Y678D01*
X263Y677D02*
X267Y677D01*
X363Y677D02*
X367Y677D01*
X463Y677D02*
X467Y677D01*
X563Y677D02*
X567Y677D01*
X663Y677D02*
X667Y677D01*
X262Y676D02*
X267Y676D01*
X362Y676D02*
X367Y676D01*
X462Y676D02*
X467Y676D01*
X562Y676D02*
X567Y676D01*
X662Y676D02*
X667Y676D01*
X262Y675D02*
X267Y675D01*
X362Y675D02*
X367Y675D01*
X462Y675D02*
X467Y675D01*
X562Y675D02*
X567Y675D01*
X662Y675D02*
X667Y675D01*
X262Y674D02*
X268Y674D01*
X362Y674D02*
X368Y674D01*
X462Y674D02*
X468Y674D01*
X562Y674D02*
X568Y674D01*
X662Y674D02*
X668Y674D01*
X261Y673D02*
X268Y673D01*
X361Y673D02*
X368Y673D01*
X461Y673D02*
X468Y673D01*
X561Y673D02*
X568Y673D01*
X661Y673D02*
X668Y673D01*
X261Y672D02*
X268Y672D01*
X361Y672D02*
X368Y672D01*
X461Y672D02*
X468Y672D01*
X561Y672D02*
X568Y672D01*
X661Y672D02*
X668Y672D01*
X261Y671D02*
X269Y671D01*
X361Y671D02*
X369Y671D01*
X461Y671D02*
X469Y671D01*
X561Y671D02*
X569Y671D01*
X661Y671D02*
X669Y671D01*
X260Y670D02*
X269Y670D01*
X360Y670D02*
X369Y670D01*
X460Y670D02*
X469Y670D01*
X560Y670D02*
X569Y670D01*
X660Y670D02*
X669Y670D01*
X260Y669D02*
X269Y669D01*
X360Y669D02*
X369Y669D01*
X460Y669D02*
X469Y669D01*
X560Y669D02*
X569Y669D01*
X660Y669D02*
X669Y669D01*
X259Y668D02*
X270Y668D01*
X359Y668D02*
X370Y668D01*
X459Y668D02*
X470Y668D01*
X559Y668D02*
X570Y668D01*
X659Y668D02*
X670Y668D01*
X259Y667D02*
X270Y667D01*
X359Y667D02*
X370Y667D01*
X459Y667D02*
X470Y667D01*
X559Y667D02*
X570Y667D01*
X659Y667D02*
X670Y667D01*
X258Y666D02*
X271Y666D01*
X358Y666D02*
X371Y666D01*
X458Y666D02*
X471Y666D01*
X558Y666D02*
X571Y666D01*
X658Y666D02*
X671Y666D01*
X258Y665D02*
X271Y665D01*
X358Y665D02*
X371Y665D01*
X458Y665D02*
X471Y665D01*
X558Y665D02*
X571Y665D01*
X658Y665D02*
X671Y665D01*
X257Y664D02*
X272Y664D01*
X357Y664D02*
X372Y664D01*
X457Y664D02*
X472Y664D01*
X557Y664D02*
X572Y664D01*
X657Y664D02*
X672Y664D01*
X257Y663D02*
X273Y663D01*
X357Y663D02*
X373Y663D01*
X457Y663D02*
X473Y663D01*
X557Y663D02*
X573Y663D01*
X657Y663D02*
X673Y663D01*
X256Y662D02*
X273Y662D01*
X356Y662D02*
X373Y662D01*
X456Y662D02*
X473Y662D01*
X556Y662D02*
X573Y662D01*
X656Y662D02*
X673Y662D01*
X256Y661D02*
X274Y661D01*
X356Y661D02*
X374Y661D01*
X456Y661D02*
X474Y661D01*
X556Y661D02*
X574Y661D01*
X656Y661D02*
X674Y661D01*
X255Y660D02*
X274Y660D01*
X355Y660D02*
X374Y660D01*
X455Y660D02*
X474Y660D01*
X555Y660D02*
X574Y660D01*
X655Y660D02*
X674Y660D01*
X254Y659D02*
X275Y659D01*
X354Y659D02*
X375Y659D01*
X454Y659D02*
X475Y659D01*
X554Y659D02*
X575Y659D01*
X654Y659D02*
X675Y659D01*
X253Y658D02*
X276Y658D01*
X353Y658D02*
X376Y658D01*
X453Y658D02*
X476Y658D01*
X553Y658D02*
X576Y658D01*
X653Y658D02*
X676Y658D01*
X253Y657D02*
X277Y657D01*
X353Y657D02*
X377Y657D01*
X453Y657D02*
X477Y657D01*
X553Y657D02*
X577Y657D01*
X653Y657D02*
X677Y657D01*
X252Y656D02*
X278Y656D01*
X352Y656D02*
X378Y656D01*
X452Y656D02*
X478Y656D01*
X552Y656D02*
X578Y656D01*
X652Y656D02*
X678Y656D01*
X251Y655D02*
X278Y655D01*
X351Y655D02*
X378Y655D01*
X451Y655D02*
X478Y655D01*
X551Y655D02*
X578Y655D01*
X651Y655D02*
X678Y655D01*
X250Y654D02*
X279Y654D01*
X350Y654D02*
X379Y654D01*
X450Y654D02*
X479Y654D01*
X550Y654D02*
X579Y654D01*
X650Y654D02*
X679Y654D01*
X249Y653D02*
X280Y653D01*
X349Y653D02*
X380Y653D01*
X449Y653D02*
X480Y653D01*
X549Y653D02*
X580Y653D01*
X649Y653D02*
X680Y653D01*
X248Y652D02*
X282Y652D01*
X348Y652D02*
X382Y652D01*
X448Y652D02*
X482Y652D01*
X548Y652D02*
X582Y652D01*
X648Y652D02*
X682Y652D01*
X247Y651D02*
X283Y651D01*
X347Y651D02*
X383Y651D01*
X447Y651D02*
X483Y651D01*
X547Y651D02*
X583Y651D01*
X647Y651D02*
X683Y651D01*
X245Y650D02*
X284Y650D01*
X345Y650D02*
X384Y650D01*
X445Y650D02*
X484Y650D01*
X545Y650D02*
X584Y650D01*
X645Y650D02*
X684Y650D01*
X244Y649D02*
X285Y649D01*
X344Y649D02*
X385Y649D01*
X444Y649D02*
X485Y649D01*
X544Y649D02*
X585Y649D01*
X644Y649D02*
X685Y649D01*
X243Y648D02*
X287Y648D01*
X343Y648D02*
X387Y648D01*
X443Y648D02*
X487Y648D01*
X543Y648D02*
X587Y648D01*
X643Y648D02*
X687Y648D01*
X241Y647D02*
X288Y647D01*
X341Y647D02*
X388Y647D01*
X441Y647D02*
X488Y647D01*
X541Y647D02*
X588Y647D01*
X641Y647D02*
X688Y647D01*
X239Y646D02*
X290Y646D01*
X339Y646D02*
X390Y646D01*
X439Y646D02*
X490Y646D01*
X539Y646D02*
X590Y646D01*
X639Y646D02*
X690Y646D01*
X237Y645D02*
X292Y645D01*
X337Y645D02*
X392Y645D01*
X437Y645D02*
X492Y645D01*
X537Y645D02*
X592Y645D01*
X637Y645D02*
X692Y645D01*
X235Y644D02*
X294Y644D01*
X335Y644D02*
X394Y644D01*
X435Y644D02*
X494Y644D01*
X535Y644D02*
X594Y644D01*
X635Y644D02*
X694Y644D01*
X233Y643D02*
X296Y643D01*
X333Y643D02*
X396Y643D01*
X433Y643D02*
X496Y643D01*
X533Y643D02*
X596Y643D01*
X633Y643D02*
X696Y643D01*
X733Y643D02*
X736Y643D01*
X232Y642D02*
X299Y642D01*
X330Y642D02*
X398Y642D01*
X432Y642D02*
X499Y642D01*
X530Y642D02*
X599Y642D01*
X630Y642D02*
X699Y642D01*
X730Y642D02*
X737Y642D01*
X231Y641D02*
X303Y641D01*
X327Y641D02*
X398Y641D01*
X431Y641D02*
X503Y641D01*
X527Y641D02*
X603Y641D01*
X627Y641D02*
X703Y641D01*
X727Y641D02*
X738Y641D01*
X231Y640D02*
X307Y640D01*
X322Y640D02*
X398Y640D01*
X431Y640D02*
X507Y640D01*
X522Y640D02*
X607Y640D01*
X622Y640D02*
X707Y640D01*
X722Y640D02*
X739Y640D01*
X231Y639D02*
X398Y639D01*
X431Y639D02*
X740Y639D01*
X231Y638D02*
X398Y638D01*
X431Y638D02*
X741Y638D01*
X231Y637D02*
X398Y637D01*
X431Y637D02*
X742Y637D01*
X231Y636D02*
X398Y636D01*
X431Y636D02*
X743Y636D01*
X231Y635D02*
X398Y635D01*
X431Y635D02*
X744Y635D01*
X231Y634D02*
X309Y634D01*
X320Y634D02*
X398Y634D01*
X431Y634D02*
X509Y634D01*
X520Y634D02*
X597Y634D01*
X607Y634D02*
X708Y634D01*
X719Y634D02*
X745Y634D01*
X231Y633D02*
X303Y633D01*
X326Y633D02*
X398Y633D01*
X431Y633D02*
X503Y633D01*
X526Y633D02*
X590Y633D01*
X613Y633D02*
X702Y633D01*
X725Y633D02*
X746Y633D01*
X232Y632D02*
X300Y632D01*
X329Y632D02*
X398Y632D01*
X432Y632D02*
X500Y632D01*
X529Y632D02*
X587Y632D01*
X616Y632D02*
X699Y632D01*
X728Y632D02*
X747Y632D01*
X233Y631D02*
X297Y631D01*
X332Y631D02*
X397Y631D01*
X433Y631D02*
X497Y631D01*
X532Y631D02*
X584Y631D01*
X620Y631D02*
X696Y631D01*
X731Y631D02*
X748Y631D01*
X235Y630D02*
X295Y630D01*
X335Y630D02*
X395Y630D01*
X435Y630D02*
X495Y630D01*
X535Y630D02*
X582Y630D01*
X622Y630D02*
X693Y630D01*
X733Y630D02*
X749Y630D01*
X237Y629D02*
X293Y629D01*
X337Y629D02*
X393Y629D01*
X437Y629D02*
X493Y629D01*
X536Y629D02*
X580Y629D01*
X624Y629D02*
X691Y629D01*
X735Y629D02*
X750Y629D01*
X239Y628D02*
X291Y628D01*
X338Y628D02*
X391Y628D01*
X439Y628D02*
X491Y628D01*
X538Y628D02*
X578Y628D01*
X626Y628D02*
X689Y628D01*
X737Y628D02*
X751Y628D01*
X241Y627D02*
X289Y627D01*
X340Y627D02*
X389Y627D01*
X441Y627D02*
X489Y627D01*
X540Y627D02*
X576Y627D01*
X628Y627D02*
X687Y627D01*
X739Y627D02*
X752Y627D01*
X243Y626D02*
X288Y626D01*
X342Y626D02*
X388Y626D01*
X443Y626D02*
X487Y626D01*
X542Y626D02*
X575Y626D01*
X629Y626D02*
X686Y626D01*
X741Y626D02*
X753Y626D01*
X244Y625D02*
X286Y625D01*
X343Y625D02*
X387Y625D01*
X444Y625D02*
X486Y625D01*
X543Y625D02*
X573Y625D01*
X631Y625D02*
X684Y625D01*
X742Y625D02*
X754Y625D01*
X245Y624D02*
X285Y624D01*
X344Y624D02*
X385Y624D01*
X445Y624D02*
X485Y624D01*
X544Y624D02*
X572Y624D01*
X632Y624D02*
X683Y624D01*
X743Y624D02*
X755Y624D01*
X246Y623D02*
X284Y623D01*
X346Y623D02*
X384Y623D01*
X446Y623D02*
X484Y623D01*
X546Y623D02*
X571Y623D01*
X633Y623D02*
X682Y623D01*
X744Y623D02*
X756Y623D01*
X248Y622D02*
X283Y622D01*
X347Y622D02*
X383Y622D01*
X448Y622D02*
X483Y622D01*
X547Y622D02*
X570Y622D01*
X634Y622D02*
X681Y622D01*
X746Y622D02*
X757Y622D01*
X249Y621D02*
X281Y621D01*
X348Y621D02*
X382Y621D01*
X449Y621D02*
X481Y621D01*
X548Y621D02*
X568Y621D01*
X636Y621D02*
X680Y621D01*
X747Y621D02*
X758Y621D01*
X250Y620D02*
X280Y620D01*
X349Y620D02*
X381Y620D01*
X450Y620D02*
X480Y620D01*
X549Y620D02*
X567Y620D01*
X637Y620D02*
X679Y620D01*
X748Y620D02*
X759Y620D01*
X251Y619D02*
X279Y619D01*
X350Y619D02*
X380Y619D01*
X451Y619D02*
X479Y619D01*
X550Y619D02*
X566Y619D01*
X637Y619D02*
X678Y619D01*
X749Y619D02*
X759Y619D01*
X251Y618D02*
X279Y618D01*
X351Y618D02*
X379Y618D01*
X451Y618D02*
X479Y618D01*
X551Y618D02*
X566Y618D01*
X638Y618D02*
X677Y618D01*
X749Y618D02*
X759Y618D01*
X252Y617D02*
X278Y617D01*
X351Y617D02*
X378Y617D01*
X452Y617D02*
X478Y617D01*
X551Y617D02*
X565Y617D01*
X639Y617D02*
X676Y617D01*
X750Y617D02*
X759Y617D01*
X253Y616D02*
X277Y616D01*
X352Y616D02*
X377Y616D01*
X453Y616D02*
X477Y616D01*
X552Y616D02*
X564Y616D01*
X640Y616D02*
X675Y616D01*
X751Y616D02*
X759Y616D01*
X254Y615D02*
X276Y615D01*
X353Y615D02*
X377Y615D01*
X454Y615D02*
X476Y615D01*
X553Y615D02*
X563Y615D01*
X641Y615D02*
X675Y615D01*
X752Y615D02*
X759Y615D01*
X255Y614D02*
X276Y614D01*
X354Y614D02*
X376Y614D01*
X455Y614D02*
X476Y614D01*
X554Y614D02*
X563Y614D01*
X641Y614D02*
X674Y614D01*
X753Y614D02*
X759Y614D01*
X255Y613D02*
X275Y613D01*
X354Y613D02*
X375Y613D01*
X455Y613D02*
X475Y613D01*
X554Y613D02*
X562Y613D01*
X642Y613D02*
X673Y613D01*
X753Y613D02*
X759Y613D01*
X256Y612D02*
X274Y612D01*
X355Y612D02*
X375Y612D01*
X456Y612D02*
X474Y612D01*
X555Y612D02*
X561Y612D01*
X643Y612D02*
X673Y612D01*
X754Y612D02*
X759Y612D01*
X256Y611D02*
X274Y611D01*
X356Y611D02*
X374Y611D01*
X456Y611D02*
X474Y611D01*
X556Y611D02*
X561Y611D01*
X643Y611D02*
X672Y611D01*
X754Y611D02*
X759Y611D01*
X257Y610D02*
X273Y610D01*
X356Y610D02*
X373Y610D01*
X457Y610D02*
X473Y610D01*
X556Y610D02*
X560Y610D01*
X644Y610D02*
X671Y610D01*
X755Y610D02*
X759Y610D01*
X257Y609D02*
X273Y609D01*
X357Y609D02*
X373Y609D01*
X457Y609D02*
X473Y609D01*
X557Y609D02*
X560Y609D01*
X644Y609D02*
X671Y609D01*
X755Y609D02*
X759Y609D01*
X258Y608D02*
X272Y608D01*
X357Y608D02*
X372Y608D01*
X458Y608D02*
X472Y608D01*
X558Y608D02*
X558Y608D01*
X645Y608D02*
X670Y608D01*
X757Y608D02*
X757Y608D01*
X258Y607D02*
X272Y607D01*
X358Y607D02*
X372Y607D01*
X458Y607D02*
X472Y607D01*
X645Y607D02*
X670Y607D01*
X259Y606D02*
X271Y606D01*
X358Y606D02*
X371Y606D01*
X459Y606D02*
X471Y606D01*
X646Y606D02*
X669Y606D01*
X259Y605D02*
X271Y605D01*
X359Y605D02*
X371Y605D01*
X459Y605D02*
X471Y605D01*
X646Y605D02*
X669Y605D01*
X260Y604D02*
X271Y604D01*
X359Y604D02*
X371Y604D01*
X460Y604D02*
X470Y604D01*
X646Y604D02*
X669Y604D01*
X260Y603D02*
X270Y603D01*
X359Y603D02*
X370Y603D01*
X460Y603D02*
X470Y603D01*
X647Y603D02*
X668Y603D01*
X260Y602D02*
X270Y602D01*
X359Y602D02*
X370Y602D01*
X460Y602D02*
X470Y602D01*
X647Y602D02*
X668Y602D01*
X261Y601D02*
X270Y601D01*
X360Y601D02*
X370Y601D01*
X461Y601D02*
X470Y601D01*
X647Y601D02*
X668Y601D01*
X261Y600D02*
X269Y600D01*
X360Y600D02*
X369Y600D01*
X461Y600D02*
X469Y600D01*
X648Y600D02*
X667Y600D01*
X261Y599D02*
X269Y599D01*
X360Y599D02*
X369Y599D01*
X461Y599D02*
X469Y599D01*
X648Y599D02*
X667Y599D01*
X262Y598D02*
X269Y598D01*
X361Y598D02*
X369Y598D01*
X462Y598D02*
X469Y598D01*
X648Y598D02*
X667Y598D01*
X262Y597D02*
X268Y597D01*
X361Y597D02*
X368Y597D01*
X462Y597D02*
X468Y597D01*
X649Y597D02*
X666Y597D01*
X262Y596D02*
X268Y596D01*
X361Y596D02*
X368Y596D01*
X462Y596D02*
X468Y596D01*
X649Y596D02*
X666Y596D01*
X262Y595D02*
X268Y595D01*
X361Y595D02*
X368Y595D01*
X462Y595D02*
X468Y595D01*
X649Y595D02*
X666Y595D01*
X262Y594D02*
X268Y594D01*
X361Y594D02*
X368Y594D01*
X462Y594D02*
X468Y594D01*
X649Y594D02*
X666Y594D01*
X263Y593D02*
X268Y593D01*
X362Y593D02*
X368Y593D01*
X463Y593D02*
X468Y593D01*
X649Y593D02*
X666Y593D01*
X263Y592D02*
X268Y592D01*
X362Y592D02*
X368Y592D01*
X463Y592D02*
X468Y592D01*
X649Y592D02*
X666Y592D01*
X263Y591D02*
X268Y591D01*
X362Y591D02*
X368Y591D01*
X463Y591D02*
X468Y591D01*
X650Y591D02*
X666Y591D01*
X263Y590D02*
X267Y590D01*
X362Y590D02*
X367Y590D01*
X463Y590D02*
X467Y590D01*
X650Y590D02*
X665Y590D01*
X263Y589D02*
X267Y589D01*
X362Y589D02*
X367Y589D01*
X463Y589D02*
X467Y589D01*
X650Y589D02*
X665Y589D01*
X263Y588D02*
X267Y588D01*
X362Y588D02*
X367Y588D01*
X463Y588D02*
X467Y588D01*
X650Y588D02*
X665Y588D01*
X263Y587D02*
X267Y587D01*
X362Y587D02*
X367Y587D01*
X463Y587D02*
X467Y587D01*
X650Y587D02*
X665Y587D01*
X263Y586D02*
X267Y586D01*
X362Y586D02*
X367Y586D01*
X463Y586D02*
X467Y586D01*
X650Y586D02*
X665Y586D01*
X263Y585D02*
X267Y585D01*
X362Y585D02*
X367Y585D01*
X463Y585D02*
X467Y585D01*
X650Y585D02*
X665Y585D01*
X263Y584D02*
X268Y584D01*
X362Y584D02*
X367Y584D01*
X463Y584D02*
X468Y584D01*
X650Y584D02*
X665Y584D01*
X263Y583D02*
X268Y583D01*
X362Y583D02*
X368Y583D01*
X463Y583D02*
X468Y583D01*
X650Y583D02*
X666Y583D01*
X263Y582D02*
X268Y582D01*
X362Y582D02*
X368Y582D01*
X463Y582D02*
X468Y582D01*
X649Y582D02*
X666Y582D01*
X263Y581D02*
X268Y581D01*
X361Y581D02*
X368Y581D01*
X463Y581D02*
X468Y581D01*
X649Y581D02*
X666Y581D01*
X262Y580D02*
X268Y580D01*
X361Y580D02*
X368Y580D01*
X462Y580D02*
X468Y580D01*
X649Y580D02*
X666Y580D01*
X262Y579D02*
X268Y579D01*
X361Y579D02*
X368Y579D01*
X462Y579D02*
X468Y579D01*
X649Y579D02*
X666Y579D01*
X262Y578D02*
X268Y578D01*
X361Y578D02*
X368Y578D01*
X462Y578D02*
X468Y578D01*
X649Y578D02*
X666Y578D01*
X262Y577D02*
X269Y577D01*
X361Y577D02*
X368Y577D01*
X462Y577D02*
X469Y577D01*
X649Y577D02*
X666Y577D01*
X262Y576D02*
X269Y576D01*
X360Y576D02*
X369Y576D01*
X462Y576D02*
X469Y576D01*
X648Y576D02*
X667Y576D01*
X261Y575D02*
X269Y575D01*
X360Y575D02*
X369Y575D01*
X461Y575D02*
X469Y575D01*
X648Y575D02*
X667Y575D01*
X261Y574D02*
X270Y574D01*
X360Y574D02*
X369Y574D01*
X461Y574D02*
X470Y574D01*
X648Y574D02*
X667Y574D01*
X261Y573D02*
X270Y573D01*
X359Y573D02*
X370Y573D01*
X461Y573D02*
X470Y573D01*
X647Y573D02*
X668Y573D01*
X260Y572D02*
X270Y572D01*
X359Y572D02*
X370Y572D01*
X460Y572D02*
X470Y572D01*
X647Y572D02*
X668Y572D01*
X260Y571D02*
X270Y571D01*
X359Y571D02*
X370Y571D01*
X460Y571D02*
X470Y571D01*
X647Y571D02*
X668Y571D01*
X260Y570D02*
X271Y570D01*
X359Y570D02*
X371Y570D01*
X460Y570D02*
X471Y570D01*
X647Y570D02*
X669Y570D01*
X169Y569D02*
X171Y569D01*
X259Y569D02*
X271Y569D01*
X358Y569D02*
X371Y569D01*
X459Y569D02*
X471Y569D01*
X646Y569D02*
X669Y569D01*
X168Y568D02*
X171Y568D01*
X259Y568D02*
X272Y568D01*
X358Y568D02*
X371Y568D01*
X459Y568D02*
X472Y568D01*
X646Y568D02*
X669Y568D01*
X168Y567D02*
X172Y567D01*
X258Y567D02*
X272Y567D01*
X357Y567D02*
X372Y567D01*
X458Y567D02*
X472Y567D01*
X645Y567D02*
X670Y567D01*
X168Y566D02*
X172Y566D01*
X258Y566D02*
X273Y566D01*
X357Y566D02*
X372Y566D01*
X458Y566D02*
X473Y566D01*
X557Y566D02*
X559Y566D01*
X645Y566D02*
X670Y566D01*
X756Y566D02*
X758Y566D01*
X168Y565D02*
X173Y565D01*
X257Y565D02*
X273Y565D01*
X356Y565D02*
X373Y565D01*
X457Y565D02*
X473Y565D01*
X556Y565D02*
X560Y565D01*
X644Y565D02*
X671Y565D01*
X755Y565D02*
X759Y565D01*
X168Y564D02*
X174Y564D01*
X257Y564D02*
X274Y564D01*
X355Y564D02*
X374Y564D01*
X457Y564D02*
X474Y564D01*
X556Y564D02*
X560Y564D01*
X644Y564D02*
X672Y564D01*
X755Y564D02*
X759Y564D01*
X168Y563D02*
X174Y563D01*
X256Y563D02*
X274Y563D01*
X355Y563D02*
X374Y563D01*
X456Y563D02*
X474Y563D01*
X555Y563D02*
X561Y563D01*
X643Y563D02*
X672Y563D01*
X754Y563D02*
X759Y563D01*
X168Y562D02*
X175Y562D01*
X256Y562D02*
X275Y562D01*
X354Y562D02*
X375Y562D01*
X456Y562D02*
X475Y562D01*
X554Y562D02*
X561Y562D01*
X642Y562D02*
X673Y562D01*
X754Y562D02*
X759Y562D01*
X168Y561D02*
X175Y561D01*
X255Y561D02*
X276Y561D01*
X354Y561D02*
X375Y561D01*
X455Y561D02*
X476Y561D01*
X554Y561D02*
X562Y561D01*
X642Y561D02*
X673Y561D01*
X753Y561D02*
X759Y561D01*
X168Y560D02*
X176Y560D01*
X255Y560D02*
X276Y560D01*
X353Y560D02*
X376Y560D01*
X454Y560D02*
X476Y560D01*
X553Y560D02*
X563Y560D01*
X641Y560D02*
X674Y560D01*
X752Y560D02*
X759Y560D01*
X168Y559D02*
X177Y559D01*
X254Y559D02*
X277Y559D01*
X352Y559D02*
X377Y559D01*
X454Y559D02*
X477Y559D01*
X552Y559D02*
X563Y559D01*
X640Y559D02*
X675Y559D01*
X752Y559D02*
X759Y559D01*
X168Y558D02*
X177Y558D01*
X253Y558D02*
X278Y558D01*
X351Y558D02*
X377Y558D01*
X453Y558D02*
X478Y558D01*
X551Y558D02*
X564Y558D01*
X640Y558D02*
X675Y558D01*
X751Y558D02*
X759Y558D01*
X168Y557D02*
X178Y557D01*
X252Y557D02*
X279Y557D01*
X351Y557D02*
X378Y557D01*
X452Y557D02*
X479Y557D01*
X551Y557D02*
X565Y557D01*
X639Y557D02*
X676Y557D01*
X750Y557D02*
X759Y557D01*
X168Y556D02*
X179Y556D01*
X251Y556D02*
X280Y556D01*
X350Y556D02*
X379Y556D01*
X451Y556D02*
X480Y556D01*
X550Y556D02*
X566Y556D01*
X638Y556D02*
X677Y556D01*
X749Y556D02*
X759Y556D01*
X168Y555D02*
X180Y555D01*
X251Y555D02*
X280Y555D01*
X349Y555D02*
X380Y555D01*
X451Y555D02*
X480Y555D01*
X549Y555D02*
X567Y555D01*
X637Y555D02*
X678Y555D01*
X749Y555D02*
X759Y555D01*
X168Y554D02*
X181Y554D01*
X250Y554D02*
X281Y554D01*
X348Y554D02*
X381Y554D01*
X450Y554D02*
X481Y554D01*
X548Y554D02*
X567Y554D01*
X637Y554D02*
X679Y554D01*
X748Y554D02*
X759Y554D01*
X168Y553D02*
X182Y553D01*
X249Y553D02*
X282Y553D01*
X347Y553D02*
X382Y553D01*
X449Y553D02*
X482Y553D01*
X547Y553D02*
X568Y553D01*
X635Y553D02*
X680Y553D01*
X747Y553D02*
X759Y553D01*
X168Y552D02*
X183Y552D01*
X247Y552D02*
X284Y552D01*
X346Y552D02*
X383Y552D01*
X447Y552D02*
X484Y552D01*
X546Y552D02*
X570Y552D01*
X634Y552D02*
X681Y552D01*
X745Y552D02*
X759Y552D01*
X168Y551D02*
X184Y551D01*
X246Y551D02*
X285Y551D01*
X344Y551D02*
X384Y551D01*
X446Y551D02*
X485Y551D01*
X544Y551D02*
X571Y551D01*
X633Y551D02*
X682Y551D01*
X744Y551D02*
X759Y551D01*
X168Y550D02*
X185Y550D01*
X245Y550D02*
X286Y550D01*
X343Y550D02*
X385Y550D01*
X445Y550D02*
X486Y550D01*
X543Y550D02*
X572Y550D01*
X632Y550D02*
X683Y550D01*
X743Y550D02*
X759Y550D01*
X168Y549D02*
X187Y549D01*
X244Y549D02*
X288Y549D01*
X342Y549D02*
X387Y549D01*
X444Y549D02*
X488Y549D01*
X542Y549D02*
X573Y549D01*
X631Y549D02*
X685Y549D01*
X742Y549D02*
X759Y549D01*
X168Y548D02*
X188Y548D01*
X242Y548D02*
X289Y548D01*
X340Y548D02*
X388Y548D01*
X442Y548D02*
X489Y548D01*
X540Y548D02*
X575Y548D01*
X629Y548D02*
X686Y548D01*
X740Y548D02*
X759Y548D01*
X168Y547D02*
X190Y547D01*
X241Y547D02*
X291Y547D01*
X338Y547D02*
X390Y547D01*
X441Y547D02*
X491Y547D01*
X538Y547D02*
X576Y547D01*
X627Y547D02*
X688Y547D01*
X739Y547D02*
X759Y547D01*
X168Y546D02*
X191Y546D01*
X239Y546D02*
X293Y546D01*
X336Y546D02*
X391Y546D01*
X439Y546D02*
X493Y546D01*
X536Y546D02*
X578Y546D01*
X626Y546D02*
X689Y546D01*
X737Y546D02*
X759Y546D01*
X168Y545D02*
X193Y545D01*
X237Y545D02*
X295Y545D01*
X335Y545D02*
X393Y545D01*
X437Y545D02*
X495Y545D01*
X535Y545D02*
X580Y545D01*
X624Y545D02*
X691Y545D01*
X735Y545D02*
X759Y545D01*
X168Y544D02*
X195Y544D01*
X235Y544D02*
X297Y544D01*
X333Y544D02*
X395Y544D01*
X435Y544D02*
X497Y544D01*
X532Y544D02*
X582Y544D01*
X622Y544D02*
X693Y544D01*
X733Y544D02*
X759Y544D01*
X168Y543D02*
X198Y543D01*
X233Y543D02*
X298Y543D01*
X332Y543D02*
X398Y543D01*
X433Y543D02*
X500Y543D01*
X529Y543D02*
X584Y543D01*
X619Y543D02*
X695Y543D01*
X731Y543D02*
X759Y543D01*
X168Y542D02*
X201Y542D01*
X230Y542D02*
X298Y542D01*
X331Y542D02*
X401Y542D01*
X430Y542D02*
X504Y542D01*
X526Y542D02*
X588Y542D01*
X616Y542D02*
X696Y542D01*
X730Y542D02*
X759Y542D01*
X168Y541D02*
X204Y541D01*
X227Y541D02*
X298Y541D01*
X331Y541D02*
X404Y541D01*
X427Y541D02*
X510Y541D01*
X520Y541D02*
X591Y541D01*
X613Y541D02*
X697Y541D01*
X730Y541D02*
X759Y541D01*
X168Y540D02*
X210Y540D01*
X220Y540D02*
X298Y540D01*
X331Y540D02*
X410Y540D01*
X420Y540D02*
X597Y540D01*
X607Y540D02*
X697Y540D01*
X730Y540D02*
X759Y540D01*
X168Y539D02*
X298Y539D01*
X331Y539D02*
X697Y539D01*
X730Y539D02*
X759Y539D01*
X168Y538D02*
X298Y538D01*
X331Y538D02*
X697Y538D01*
X730Y538D02*
X759Y538D01*
X168Y537D02*
X298Y537D01*
X331Y537D02*
X697Y537D01*
X730Y537D02*
X759Y537D01*
X168Y536D02*
X298Y536D01*
X331Y536D02*
X697Y536D01*
X730Y536D02*
X759Y536D01*
X168Y535D02*
X298Y535D01*
X331Y535D02*
X697Y535D01*
X730Y535D02*
X759Y535D01*
X168Y534D02*
X298Y534D01*
X331Y534D02*
X697Y534D01*
X730Y534D02*
X759Y534D01*
X168Y533D02*
X298Y533D01*
X331Y533D02*
X697Y533D01*
X730Y533D02*
X759Y533D01*
X168Y532D02*
X298Y532D01*
X331Y532D02*
X697Y532D01*
X730Y532D02*
X759Y532D01*
X168Y531D02*
X298Y531D01*
X331Y531D02*
X697Y531D01*
X730Y531D02*
X759Y531D01*
X168Y530D02*
X298Y530D01*
X331Y530D02*
X697Y530D01*
X730Y530D02*
X759Y530D01*
X168Y529D02*
X298Y529D01*
X331Y529D02*
X697Y529D01*
X730Y529D02*
X759Y529D01*
X168Y528D02*
X298Y528D01*
X331Y528D02*
X697Y528D01*
X730Y528D02*
X759Y528D01*
X168Y527D02*
X298Y527D01*
X331Y527D02*
X697Y527D01*
X730Y527D02*
X759Y527D01*
X168Y526D02*
X298Y526D01*
X331Y526D02*
X697Y526D01*
X730Y526D02*
X759Y526D01*
X168Y525D02*
X298Y525D01*
X331Y525D02*
X697Y525D01*
X730Y525D02*
X759Y525D01*
X168Y524D02*
X298Y524D01*
X331Y524D02*
X697Y524D01*
X730Y524D02*
X759Y524D01*
X168Y523D02*
X298Y523D01*
X331Y523D02*
X697Y523D01*
X730Y523D02*
X759Y523D01*
X168Y522D02*
X298Y522D01*
X331Y522D02*
X697Y522D01*
X730Y522D02*
X759Y522D01*
X168Y521D02*
X298Y521D01*
X331Y521D02*
X697Y521D01*
X730Y521D02*
X759Y521D01*
X168Y520D02*
X298Y520D01*
X331Y520D02*
X697Y520D01*
X730Y520D02*
X759Y520D01*
X168Y519D02*
X298Y519D01*
X331Y519D02*
X697Y519D01*
X730Y519D02*
X759Y519D01*
X331Y518D02*
X697Y518D01*
X730Y518D02*
X759Y518D01*
X331Y517D02*
X697Y517D01*
X730Y517D02*
X759Y517D01*
X331Y516D02*
X697Y516D01*
X730Y516D02*
X759Y516D01*
X331Y515D02*
X697Y515D01*
X730Y515D02*
X759Y515D01*
X331Y514D02*
X697Y514D01*
X730Y514D02*
X759Y514D01*
X331Y513D02*
X697Y513D01*
X730Y513D02*
X759Y513D01*
X331Y512D02*
X697Y512D01*
X730Y512D02*
X759Y512D01*
X331Y511D02*
X697Y511D01*
X730Y511D02*
X759Y511D01*
X331Y510D02*
X697Y510D01*
X730Y510D02*
X759Y510D01*
X331Y509D02*
X697Y509D01*
X730Y509D02*
X759Y509D01*
X331Y508D02*
X697Y508D01*
X730Y508D02*
X759Y508D01*
X331Y507D02*
X697Y507D01*
X730Y507D02*
X759Y507D01*
X331Y506D02*
X697Y506D01*
X730Y506D02*
X759Y506D01*
X331Y505D02*
X697Y505D01*
X730Y505D02*
X759Y505D01*
X331Y504D02*
X697Y504D01*
X730Y504D02*
X759Y504D01*
X331Y503D02*
X697Y503D01*
X730Y503D02*
X759Y503D01*
X331Y502D02*
X697Y502D01*
X730Y502D02*
X759Y502D01*
X331Y501D02*
X697Y501D01*
X730Y501D02*
X759Y501D01*
X331Y500D02*
X697Y500D01*
X730Y500D02*
X759Y500D01*
X331Y499D02*
X697Y499D01*
X730Y499D02*
X759Y499D01*
X331Y498D02*
X697Y498D01*
X730Y498D02*
X759Y498D01*
X330Y497D02*
X697Y497D01*
X730Y497D02*
X759Y497D01*
X330Y496D02*
X697Y496D01*
X730Y496D02*
X759Y496D01*
X330Y495D02*
X697Y495D01*
X730Y495D02*
X759Y495D01*
X329Y494D02*
X697Y494D01*
X730Y494D02*
X759Y494D01*
X328Y493D02*
X697Y493D01*
X730Y493D02*
X759Y493D01*
X328Y492D02*
X697Y492D01*
X730Y492D02*
X759Y492D01*
X327Y491D02*
X697Y491D01*
X730Y491D02*
X759Y491D01*
X326Y490D02*
X697Y490D01*
X730Y490D02*
X759Y490D01*
X324Y489D02*
X697Y489D01*
X730Y489D02*
X759Y489D01*
X140Y488D02*
X143Y488D01*
X323Y488D02*
X697Y488D01*
X730Y488D02*
X759Y488D01*
X139Y487D02*
X145Y487D01*
X320Y487D02*
X697Y487D01*
X730Y487D02*
X759Y487D01*
X139Y486D02*
X697Y486D01*
X730Y486D02*
X759Y486D01*
X139Y485D02*
X697Y485D01*
X730Y485D02*
X759Y485D01*
X139Y484D02*
X697Y484D01*
X730Y484D02*
X759Y484D01*
X139Y483D02*
X697Y483D01*
X730Y483D02*
X759Y483D01*
X139Y482D02*
X697Y482D01*
X730Y482D02*
X759Y482D01*
X139Y481D02*
X697Y481D01*
X730Y481D02*
X759Y481D01*
X139Y480D02*
X697Y480D01*
X730Y480D02*
X759Y480D01*
X139Y479D02*
X697Y479D01*
X730Y479D02*
X759Y479D01*
X139Y478D02*
X697Y478D01*
X730Y478D02*
X759Y478D01*
X139Y477D02*
X697Y477D01*
X730Y477D02*
X759Y477D01*
X139Y476D02*
X696Y476D01*
X731Y476D02*
X759Y476D01*
X139Y475D02*
X695Y475D01*
X732Y475D02*
X759Y475D01*
X139Y474D02*
X694Y474D01*
X733Y474D02*
X759Y474D01*
X140Y473D02*
X693Y473D01*
X734Y473D02*
X759Y473D01*
X658Y472D02*
X692Y472D01*
X735Y472D02*
X759Y472D01*
X661Y471D02*
X691Y471D01*
X736Y471D02*
X759Y471D01*
X664Y470D02*
X690Y470D01*
X737Y470D02*
X759Y470D01*
X665Y469D02*
X689Y469D01*
X738Y469D02*
X759Y469D01*
X666Y468D02*
X689Y468D01*
X739Y468D02*
X759Y468D01*
X667Y467D02*
X688Y467D01*
X739Y467D02*
X759Y467D01*
X668Y466D02*
X688Y466D01*
X740Y466D02*
X759Y466D01*
X669Y465D02*
X687Y465D01*
X740Y465D02*
X759Y465D01*
X670Y464D02*
X686Y464D01*
X741Y464D02*
X759Y464D01*
X670Y463D02*
X686Y463D01*
X741Y463D02*
X759Y463D01*
X671Y462D02*
X686Y462D01*
X742Y462D02*
X759Y462D01*
X671Y461D02*
X685Y461D01*
X742Y461D02*
X759Y461D01*
X671Y460D02*
X685Y460D01*
X742Y460D02*
X759Y460D01*
X671Y459D02*
X685Y459D01*
X743Y459D02*
X759Y459D01*
X672Y458D02*
X684Y458D01*
X743Y458D02*
X759Y458D01*
X672Y457D02*
X684Y457D01*
X743Y457D02*
X759Y457D01*
X672Y456D02*
X684Y456D01*
X743Y456D02*
X759Y456D01*
X672Y455D02*
X684Y455D01*
X743Y455D02*
X759Y455D01*
X672Y454D02*
X684Y454D01*
X743Y454D02*
X759Y454D01*
X672Y453D02*
X684Y453D01*
X744Y453D02*
X759Y453D01*
X672Y452D02*
X683Y452D01*
X744Y452D02*
X759Y452D01*
X672Y451D02*
X683Y451D01*
X744Y451D02*
X759Y451D01*
X672Y450D02*
X683Y450D01*
X744Y450D02*
X759Y450D01*
X672Y449D02*
X684Y449D01*
X744Y449D02*
X759Y449D01*
X672Y448D02*
X684Y448D01*
X743Y448D02*
X759Y448D01*
X672Y447D02*
X684Y447D01*
X743Y447D02*
X759Y447D01*
X672Y446D02*
X684Y446D01*
X743Y446D02*
X759Y446D01*
X672Y445D02*
X684Y445D01*
X743Y445D02*
X759Y445D01*
X672Y444D02*
X685Y444D01*
X743Y444D02*
X759Y444D01*
X672Y443D02*
X685Y443D01*
X742Y443D02*
X759Y443D01*
X672Y442D02*
X685Y442D01*
X742Y442D02*
X759Y442D01*
X672Y441D02*
X685Y441D01*
X742Y441D02*
X759Y441D01*
X672Y440D02*
X686Y440D01*
X741Y440D02*
X759Y440D01*
X672Y439D02*
X686Y439D01*
X741Y439D02*
X759Y439D01*
X672Y438D02*
X687Y438D01*
X740Y438D02*
X759Y438D01*
X672Y437D02*
X687Y437D01*
X740Y437D02*
X759Y437D01*
X672Y436D02*
X688Y436D01*
X739Y436D02*
X759Y436D01*
X672Y435D02*
X688Y435D01*
X739Y435D02*
X759Y435D01*
X672Y434D02*
X689Y434D01*
X738Y434D02*
X759Y434D01*
X672Y433D02*
X690Y433D01*
X737Y433D02*
X759Y433D01*
X672Y432D02*
X691Y432D01*
X736Y432D02*
X759Y432D01*
X672Y431D02*
X692Y431D01*
X736Y431D02*
X759Y431D01*
X672Y430D02*
X692Y430D01*
X735Y430D02*
X759Y430D01*
X672Y429D02*
X694Y429D01*
X733Y429D02*
X759Y429D01*
X672Y428D02*
X695Y428D01*
X732Y428D02*
X759Y428D01*
X672Y427D02*
X696Y427D01*
X731Y427D02*
X759Y427D01*
X672Y426D02*
X698Y426D01*
X729Y426D02*
X759Y426D01*
X672Y425D02*
X700Y425D01*
X727Y425D02*
X759Y425D01*
X672Y424D02*
X702Y424D01*
X725Y424D02*
X759Y424D01*
X672Y423D02*
X705Y423D01*
X722Y423D02*
X759Y423D01*
X672Y422D02*
X710Y422D01*
X717Y422D02*
X759Y422D01*
X672Y421D02*
X759Y421D01*
X672Y420D02*
X759Y420D01*
X672Y419D02*
X759Y419D01*
X672Y418D02*
X759Y418D01*
X672Y417D02*
X759Y417D01*
X672Y416D02*
X759Y416D01*
X672Y415D02*
X759Y415D01*
X672Y414D02*
X759Y414D01*
X672Y413D02*
X759Y413D01*
X672Y412D02*
X759Y412D01*
X672Y411D02*
X759Y411D01*
X672Y410D02*
X759Y410D01*
X672Y409D02*
X759Y409D01*
X672Y408D02*
X759Y408D01*
X672Y407D02*
X759Y407D01*
X672Y406D02*
X759Y406D01*
X672Y405D02*
X759Y405D01*
X672Y404D02*
X759Y404D01*
X672Y403D02*
X759Y403D01*
X672Y402D02*
X759Y402D01*
X672Y401D02*
X759Y401D01*
X672Y400D02*
X759Y400D01*
X672Y399D02*
X759Y399D01*
X672Y398D02*
X759Y398D01*
X672Y397D02*
X759Y397D01*
X672Y396D02*
X759Y396D01*
X672Y395D02*
X759Y395D01*
X672Y394D02*
X759Y394D01*
X672Y393D02*
X759Y393D01*
X672Y392D02*
X759Y392D01*
X672Y391D02*
X759Y391D01*
X672Y390D02*
X759Y390D01*
X672Y389D02*
X759Y389D01*
X672Y388D02*
X759Y388D01*
X672Y387D02*
X759Y387D01*
X672Y386D02*
X759Y386D01*
X672Y385D02*
X759Y385D01*
X672Y384D02*
X759Y384D01*
X672Y383D02*
X759Y383D01*
X672Y382D02*
X759Y382D01*
X672Y381D02*
X759Y381D01*
X141Y380D02*
X161Y380D01*
X672Y380D02*
X759Y380D01*
X140Y379D02*
X278Y379D01*
X672Y379D02*
X759Y379D01*
X139Y378D02*
X324Y378D01*
X672Y378D02*
X759Y378D01*
X139Y377D02*
X325Y377D01*
X672Y377D02*
X759Y377D01*
X139Y376D02*
X326Y376D01*
X672Y376D02*
X759Y376D01*
X139Y375D02*
X327Y375D01*
X672Y375D02*
X759Y375D01*
X139Y374D02*
X328Y374D01*
X672Y374D02*
X759Y374D01*
X139Y373D02*
X329Y373D01*
X672Y373D02*
X759Y373D01*
X139Y372D02*
X330Y372D01*
X672Y372D02*
X759Y372D01*
X139Y371D02*
X330Y371D01*
X672Y371D02*
X759Y371D01*
X139Y370D02*
X331Y370D01*
X672Y370D02*
X759Y370D01*
X139Y369D02*
X332Y369D01*
X672Y369D02*
X759Y369D01*
X139Y368D02*
X333Y368D01*
X672Y368D02*
X759Y368D01*
X139Y367D02*
X334Y367D01*
X672Y367D02*
X759Y367D01*
X139Y366D02*
X335Y366D01*
X672Y366D02*
X759Y366D01*
X139Y365D02*
X336Y365D01*
X672Y365D02*
X759Y365D01*
X139Y364D02*
X337Y364D01*
X672Y364D02*
X759Y364D01*
X139Y363D02*
X338Y363D01*
X672Y363D02*
X759Y363D01*
X139Y362D02*
X338Y362D01*
X672Y362D02*
X759Y362D01*
X138Y361D02*
X339Y361D01*
X672Y361D02*
X759Y361D01*
X138Y360D02*
X340Y360D01*
X672Y360D02*
X759Y360D01*
X137Y359D02*
X341Y359D01*
X672Y359D02*
X759Y359D01*
X136Y358D02*
X342Y358D01*
X672Y358D02*
X759Y358D01*
X135Y357D02*
X343Y357D01*
X672Y357D02*
X759Y357D01*
X134Y356D02*
X344Y356D01*
X672Y356D02*
X759Y356D01*
X130Y355D02*
X345Y355D01*
X672Y355D02*
X759Y355D01*
X32Y354D02*
X345Y354D01*
X672Y354D02*
X759Y354D01*
X31Y353D02*
X346Y353D01*
X672Y353D02*
X759Y353D01*
X31Y352D02*
X347Y352D01*
X672Y352D02*
X759Y352D01*
X31Y351D02*
X348Y351D01*
X672Y351D02*
X759Y351D01*
X31Y350D02*
X349Y350D01*
X672Y350D02*
X759Y350D01*
X31Y349D02*
X350Y349D01*
X672Y349D02*
X759Y349D01*
X31Y348D02*
X351Y348D01*
X672Y348D02*
X759Y348D01*
X31Y347D02*
X352Y347D01*
X672Y347D02*
X759Y347D01*
X31Y346D02*
X353Y346D01*
X672Y346D02*
X759Y346D01*
X31Y345D02*
X353Y345D01*
X672Y345D02*
X759Y345D01*
X31Y344D02*
X354Y344D01*
X672Y344D02*
X759Y344D01*
X31Y343D02*
X355Y343D01*
X672Y343D02*
X759Y343D01*
X31Y342D02*
X356Y342D01*
X672Y342D02*
X759Y342D01*
X31Y341D02*
X357Y341D01*
X672Y341D02*
X759Y341D01*
X31Y340D02*
X358Y340D01*
X672Y340D02*
X759Y340D01*
X31Y339D02*
X359Y339D01*
X672Y339D02*
X759Y339D01*
X31Y338D02*
X360Y338D01*
X672Y338D02*
X759Y338D01*
X31Y337D02*
X360Y337D01*
X672Y337D02*
X759Y337D01*
X31Y336D02*
X361Y336D01*
X672Y336D02*
X759Y336D01*
X31Y335D02*
X362Y335D01*
X672Y335D02*
X759Y335D01*
X31Y334D02*
X308Y334D01*
X321Y334D02*
X363Y334D01*
X672Y334D02*
X759Y334D01*
X31Y333D02*
X303Y333D01*
X327Y333D02*
X364Y333D01*
X672Y333D02*
X759Y333D01*
X31Y332D02*
X300Y332D01*
X330Y332D02*
X365Y332D01*
X672Y332D02*
X759Y332D01*
X32Y331D02*
X297Y331D01*
X333Y331D02*
X366Y331D01*
X672Y331D02*
X759Y331D01*
X132Y330D02*
X294Y330D01*
X335Y330D02*
X367Y330D01*
X672Y330D02*
X759Y330D01*
X134Y329D02*
X292Y329D01*
X337Y329D02*
X368Y329D01*
X672Y329D02*
X759Y329D01*
X136Y328D02*
X291Y328D01*
X339Y328D02*
X368Y328D01*
X672Y328D02*
X759Y328D01*
X137Y327D02*
X289Y327D01*
X341Y327D02*
X369Y327D01*
X672Y327D02*
X759Y327D01*
X137Y326D02*
X287Y326D01*
X342Y326D02*
X370Y326D01*
X672Y326D02*
X759Y326D01*
X138Y325D02*
X286Y325D01*
X343Y325D02*
X371Y325D01*
X672Y325D02*
X759Y325D01*
X139Y324D02*
X285Y324D01*
X345Y324D02*
X372Y324D01*
X672Y324D02*
X759Y324D01*
X139Y323D02*
X284Y323D01*
X346Y323D02*
X373Y323D01*
X672Y323D02*
X759Y323D01*
X139Y322D02*
X282Y322D01*
X347Y322D02*
X374Y322D01*
X672Y322D02*
X759Y322D01*
X139Y321D02*
X281Y321D01*
X348Y321D02*
X375Y321D01*
X672Y321D02*
X759Y321D01*
X139Y320D02*
X280Y320D01*
X349Y320D02*
X375Y320D01*
X672Y320D02*
X759Y320D01*
X139Y319D02*
X279Y319D01*
X350Y319D02*
X376Y319D01*
X672Y319D02*
X759Y319D01*
X139Y318D02*
X279Y318D01*
X351Y318D02*
X377Y318D01*
X672Y318D02*
X759Y318D01*
X139Y317D02*
X278Y317D01*
X352Y317D02*
X378Y317D01*
X672Y317D02*
X759Y317D01*
X139Y316D02*
X277Y316D01*
X352Y316D02*
X379Y316D01*
X672Y316D02*
X759Y316D01*
X139Y315D02*
X276Y315D01*
X353Y315D02*
X380Y315D01*
X672Y315D02*
X759Y315D01*
X139Y314D02*
X275Y314D01*
X354Y314D02*
X381Y314D01*
X672Y314D02*
X758Y314D01*
X139Y313D02*
X275Y313D01*
X355Y313D02*
X382Y313D01*
X672Y313D02*
X709Y313D01*
X139Y312D02*
X274Y312D01*
X355Y312D02*
X383Y312D01*
X672Y312D02*
X706Y312D01*
X139Y311D02*
X274Y311D01*
X356Y311D02*
X383Y311D01*
X672Y311D02*
X704Y311D01*
X139Y310D02*
X273Y310D01*
X356Y310D02*
X384Y310D01*
X672Y310D02*
X703Y310D01*
X139Y309D02*
X273Y309D01*
X357Y309D02*
X385Y309D01*
X672Y309D02*
X702Y309D01*
X139Y308D02*
X272Y308D01*
X357Y308D02*
X386Y308D01*
X672Y308D02*
X701Y308D01*
X139Y307D02*
X272Y307D01*
X358Y307D02*
X387Y307D01*
X672Y307D02*
X700Y307D01*
X140Y306D02*
X271Y306D01*
X358Y306D02*
X388Y306D01*
X672Y306D02*
X699Y306D01*
X210Y305D02*
X271Y305D01*
X359Y305D02*
X389Y305D01*
X672Y305D02*
X698Y305D01*
X212Y304D02*
X270Y304D01*
X359Y304D02*
X390Y304D01*
X672Y304D02*
X698Y304D01*
X213Y303D02*
X270Y303D01*
X359Y303D02*
X390Y303D01*
X672Y303D02*
X698Y303D01*
X215Y302D02*
X270Y302D01*
X360Y302D02*
X391Y302D01*
X672Y302D02*
X697Y302D01*
X216Y301D02*
X269Y301D01*
X360Y301D02*
X392Y301D01*
X672Y301D02*
X697Y301D01*
X217Y300D02*
X269Y300D01*
X360Y300D02*
X393Y300D01*
X672Y300D02*
X697Y300D01*
X218Y299D02*
X269Y299D01*
X361Y299D02*
X394Y299D01*
X672Y299D02*
X697Y299D01*
X219Y298D02*
X268Y298D01*
X361Y298D02*
X395Y298D01*
X672Y298D02*
X697Y298D01*
X220Y297D02*
X268Y297D01*
X361Y297D02*
X396Y297D01*
X672Y297D02*
X697Y297D01*
X221Y296D02*
X268Y296D01*
X361Y296D02*
X397Y296D01*
X672Y296D02*
X697Y296D01*
X222Y295D02*
X268Y295D01*
X361Y295D02*
X398Y295D01*
X672Y295D02*
X697Y295D01*
X223Y294D02*
X268Y294D01*
X361Y294D02*
X398Y294D01*
X672Y294D02*
X697Y294D01*
X224Y293D02*
X268Y293D01*
X362Y293D02*
X399Y293D01*
X672Y293D02*
X697Y293D01*
X225Y292D02*
X268Y292D01*
X362Y292D02*
X400Y292D01*
X672Y292D02*
X697Y292D01*
X226Y291D02*
X268Y291D01*
X362Y291D02*
X401Y291D01*
X672Y291D02*
X697Y291D01*
X227Y290D02*
X267Y290D01*
X362Y290D02*
X402Y290D01*
X672Y290D02*
X697Y290D01*
X228Y289D02*
X267Y289D01*
X362Y289D02*
X403Y289D01*
X672Y289D02*
X697Y289D01*
X229Y288D02*
X267Y288D01*
X362Y288D02*
X404Y288D01*
X672Y288D02*
X697Y288D01*
X230Y287D02*
X267Y287D01*
X362Y287D02*
X405Y287D01*
X672Y287D02*
X697Y287D01*
X231Y286D02*
X267Y286D01*
X362Y286D02*
X405Y286D01*
X672Y286D02*
X697Y286D01*
X233Y285D02*
X268Y285D01*
X362Y285D02*
X406Y285D01*
X672Y285D02*
X697Y285D01*
X234Y284D02*
X268Y284D01*
X362Y284D02*
X407Y284D01*
X672Y284D02*
X697Y284D01*
X235Y283D02*
X268Y283D01*
X362Y283D02*
X408Y283D01*
X672Y283D02*
X697Y283D01*
X236Y282D02*
X268Y282D01*
X362Y282D02*
X409Y282D01*
X672Y282D02*
X697Y282D01*
X237Y281D02*
X268Y281D01*
X361Y281D02*
X410Y281D01*
X672Y281D02*
X697Y281D01*
X238Y280D02*
X268Y280D01*
X361Y280D02*
X411Y280D01*
X672Y280D02*
X697Y280D01*
X239Y279D02*
X268Y279D01*
X361Y279D02*
X412Y279D01*
X672Y279D02*
X697Y279D01*
X240Y278D02*
X268Y278D01*
X361Y278D02*
X413Y278D01*
X672Y278D02*
X697Y278D01*
X241Y277D02*
X269Y277D01*
X361Y277D02*
X413Y277D01*
X672Y277D02*
X697Y277D01*
X242Y276D02*
X269Y276D01*
X360Y276D02*
X414Y276D01*
X672Y276D02*
X697Y276D01*
X243Y275D02*
X269Y275D01*
X360Y275D02*
X415Y275D01*
X672Y275D02*
X697Y275D01*
X244Y274D02*
X270Y274D01*
X360Y274D02*
X416Y274D01*
X672Y274D02*
X697Y274D01*
X245Y273D02*
X270Y273D01*
X359Y273D02*
X417Y273D01*
X672Y273D02*
X697Y273D01*
X246Y272D02*
X270Y272D01*
X359Y272D02*
X418Y272D01*
X672Y272D02*
X697Y272D01*
X247Y271D02*
X271Y271D01*
X359Y271D02*
X419Y271D01*
X672Y271D02*
X697Y271D01*
X248Y270D02*
X271Y270D01*
X358Y270D02*
X420Y270D01*
X672Y270D02*
X697Y270D01*
X249Y269D02*
X271Y269D01*
X358Y269D02*
X420Y269D01*
X672Y269D02*
X697Y269D01*
X250Y268D02*
X272Y268D01*
X358Y268D02*
X421Y268D01*
X672Y268D02*
X697Y268D01*
X251Y267D02*
X272Y267D01*
X357Y267D02*
X422Y267D01*
X672Y267D02*
X697Y267D01*
X252Y266D02*
X273Y266D01*
X356Y266D02*
X423Y266D01*
X672Y266D02*
X697Y266D01*
X253Y265D02*
X273Y265D01*
X356Y265D02*
X424Y265D01*
X672Y265D02*
X697Y265D01*
X254Y264D02*
X274Y264D01*
X355Y264D02*
X425Y264D01*
X672Y264D02*
X697Y264D01*
X256Y263D02*
X274Y263D01*
X355Y263D02*
X426Y263D01*
X672Y263D02*
X697Y263D01*
X257Y262D02*
X275Y262D01*
X354Y262D02*
X427Y262D01*
X672Y262D02*
X697Y262D01*
X258Y261D02*
X276Y261D01*
X354Y261D02*
X428Y261D01*
X672Y261D02*
X697Y261D01*
X259Y260D02*
X277Y260D01*
X353Y260D02*
X428Y260D01*
X672Y260D02*
X697Y260D01*
X260Y259D02*
X277Y259D01*
X352Y259D02*
X429Y259D01*
X672Y259D02*
X697Y259D01*
X261Y258D02*
X278Y258D01*
X351Y258D02*
X430Y258D01*
X672Y258D02*
X697Y258D01*
X262Y257D02*
X279Y257D01*
X350Y257D02*
X431Y257D01*
X672Y257D02*
X697Y257D01*
X263Y256D02*
X280Y256D01*
X350Y256D02*
X432Y256D01*
X672Y256D02*
X697Y256D01*
X264Y255D02*
X281Y255D01*
X349Y255D02*
X433Y255D01*
X672Y255D02*
X697Y255D01*
X265Y254D02*
X282Y254D01*
X348Y254D02*
X434Y254D01*
X672Y254D02*
X697Y254D01*
X266Y253D02*
X283Y253D01*
X346Y253D02*
X435Y253D01*
X672Y253D02*
X697Y253D01*
X267Y252D02*
X284Y252D01*
X345Y252D02*
X435Y252D01*
X672Y252D02*
X697Y252D01*
X268Y251D02*
X285Y251D01*
X344Y251D02*
X436Y251D01*
X672Y251D02*
X697Y251D01*
X269Y250D02*
X287Y250D01*
X343Y250D02*
X437Y250D01*
X672Y250D02*
X697Y250D01*
X270Y249D02*
X288Y249D01*
X342Y249D02*
X438Y249D01*
X672Y249D02*
X697Y249D01*
X271Y248D02*
X289Y248D01*
X340Y248D02*
X439Y248D01*
X672Y248D02*
X697Y248D01*
X272Y247D02*
X291Y247D01*
X338Y247D02*
X440Y247D01*
X672Y247D02*
X697Y247D01*
X273Y246D02*
X293Y246D01*
X336Y246D02*
X441Y246D01*
X672Y246D02*
X697Y246D01*
X274Y245D02*
X295Y245D01*
X334Y245D02*
X442Y245D01*
X672Y245D02*
X697Y245D01*
X275Y244D02*
X298Y244D01*
X331Y244D02*
X443Y244D01*
X672Y244D02*
X697Y244D01*
X276Y243D02*
X301Y243D01*
X328Y243D02*
X443Y243D01*
X672Y243D02*
X697Y243D01*
X277Y242D02*
X304Y242D01*
X325Y242D02*
X444Y242D01*
X672Y242D02*
X697Y242D01*
X279Y241D02*
X312Y241D01*
X317Y241D02*
X445Y241D01*
X672Y241D02*
X697Y241D01*
X280Y240D02*
X446Y240D01*
X672Y240D02*
X697Y240D01*
X281Y239D02*
X447Y239D01*
X672Y239D02*
X697Y239D01*
X282Y238D02*
X448Y238D01*
X672Y238D02*
X697Y238D01*
X283Y237D02*
X449Y237D01*
X672Y237D02*
X697Y237D01*
X284Y236D02*
X450Y236D01*
X672Y236D02*
X697Y236D01*
X285Y235D02*
X450Y235D01*
X672Y235D02*
X697Y235D01*
X286Y234D02*
X408Y234D01*
X423Y234D02*
X451Y234D01*
X672Y234D02*
X697Y234D01*
X287Y233D02*
X403Y233D01*
X427Y233D02*
X452Y233D01*
X672Y233D02*
X697Y233D01*
X288Y232D02*
X400Y232D01*
X430Y232D02*
X453Y232D01*
X672Y232D02*
X696Y232D01*
X289Y231D02*
X397Y231D01*
X434Y231D02*
X454Y231D01*
X672Y231D02*
X695Y231D01*
X290Y230D02*
X395Y230D01*
X436Y230D02*
X455Y230D01*
X672Y230D02*
X693Y230D01*
X291Y229D02*
X393Y229D01*
X438Y229D02*
X456Y229D01*
X672Y229D02*
X691Y229D01*
X292Y228D02*
X391Y228D01*
X439Y228D02*
X457Y228D01*
X672Y228D02*
X689Y228D01*
X293Y227D02*
X389Y227D01*
X441Y227D02*
X458Y227D01*
X672Y227D02*
X687Y227D01*
X294Y226D02*
X387Y226D01*
X443Y226D02*
X458Y226D01*
X672Y226D02*
X685Y226D01*
X295Y225D02*
X386Y225D01*
X444Y225D02*
X459Y225D01*
X672Y225D02*
X684Y225D01*
X296Y224D02*
X385Y224D01*
X445Y224D02*
X460Y224D01*
X672Y224D02*
X683Y224D01*
X297Y223D02*
X384Y223D01*
X447Y223D02*
X461Y223D01*
X672Y223D02*
X682Y223D01*
X298Y222D02*
X382Y222D01*
X448Y222D02*
X462Y222D01*
X672Y222D02*
X680Y222D01*
X299Y221D02*
X381Y221D01*
X449Y221D02*
X463Y221D01*
X672Y221D02*
X679Y221D01*
X300Y220D02*
X380Y220D01*
X450Y220D02*
X464Y220D01*
X672Y220D02*
X678Y220D01*
X302Y219D02*
X380Y219D01*
X451Y219D02*
X465Y219D01*
X672Y219D02*
X677Y219D01*
X303Y218D02*
X379Y218D01*
X452Y218D02*
X465Y218D01*
X672Y218D02*
X677Y218D01*
X304Y217D02*
X378Y217D01*
X452Y217D02*
X466Y217D01*
X672Y217D02*
X676Y217D01*
X305Y216D02*
X377Y216D01*
X453Y216D02*
X467Y216D01*
X672Y216D02*
X675Y216D01*
X306Y215D02*
X376Y215D01*
X454Y215D02*
X468Y215D01*
X307Y214D02*
X376Y214D01*
X455Y214D02*
X469Y214D01*
X308Y213D02*
X375Y213D01*
X455Y213D02*
X470Y213D01*
X309Y212D02*
X374Y212D01*
X456Y212D02*
X471Y212D01*
X310Y211D02*
X374Y211D01*
X456Y211D02*
X472Y211D01*
X311Y210D02*
X373Y210D01*
X457Y210D02*
X473Y210D01*
X312Y209D02*
X373Y209D01*
X457Y209D02*
X473Y209D01*
X313Y208D02*
X372Y208D01*
X458Y208D02*
X474Y208D01*
X314Y207D02*
X372Y207D01*
X459Y207D02*
X475Y207D01*
X315Y206D02*
X371Y206D01*
X459Y206D02*
X476Y206D01*
X316Y205D02*
X371Y205D01*
X459Y205D02*
X477Y205D01*
X317Y204D02*
X371Y204D01*
X460Y204D02*
X478Y204D01*
X318Y203D02*
X370Y203D01*
X460Y203D02*
X479Y203D01*
X319Y202D02*
X370Y202D01*
X460Y202D02*
X480Y202D01*
X320Y201D02*
X370Y201D01*
X461Y201D02*
X480Y201D01*
X321Y200D02*
X369Y200D01*
X461Y200D02*
X481Y200D01*
X322Y199D02*
X369Y199D01*
X461Y199D02*
X482Y199D01*
X323Y198D02*
X369Y198D01*
X462Y198D02*
X483Y198D01*
X325Y197D02*
X368Y197D01*
X462Y197D02*
X484Y197D01*
X326Y196D02*
X368Y196D01*
X462Y196D02*
X485Y196D01*
X327Y195D02*
X368Y195D01*
X462Y195D02*
X486Y195D01*
X328Y194D02*
X368Y194D01*
X462Y194D02*
X487Y194D01*
X329Y193D02*
X368Y193D01*
X463Y193D02*
X488Y193D01*
X330Y192D02*
X368Y192D01*
X463Y192D02*
X488Y192D01*
X331Y191D02*
X368Y191D01*
X463Y191D02*
X489Y191D01*
X332Y190D02*
X367Y190D01*
X463Y190D02*
X490Y190D01*
X333Y189D02*
X367Y189D01*
X463Y189D02*
X491Y189D01*
X334Y188D02*
X367Y188D01*
X463Y188D02*
X492Y188D01*
X335Y187D02*
X367Y187D01*
X463Y187D02*
X493Y187D01*
X336Y186D02*
X367Y186D01*
X463Y186D02*
X494Y186D01*
X337Y185D02*
X367Y185D01*
X463Y185D02*
X495Y185D01*
X338Y184D02*
X367Y184D01*
X463Y184D02*
X495Y184D01*
X339Y183D02*
X368Y183D01*
X463Y183D02*
X496Y183D01*
X340Y182D02*
X368Y182D01*
X463Y182D02*
X497Y182D01*
X341Y181D02*
X368Y181D01*
X463Y181D02*
X498Y181D01*
X342Y180D02*
X368Y180D01*
X462Y180D02*
X499Y180D01*
X343Y179D02*
X368Y179D01*
X462Y179D02*
X499Y179D01*
X344Y178D02*
X368Y178D01*
X462Y178D02*
X499Y178D01*
X345Y177D02*
X368Y177D01*
X462Y177D02*
X499Y177D01*
X346Y176D02*
X369Y176D01*
X462Y176D02*
X499Y176D01*
X348Y175D02*
X369Y175D01*
X461Y175D02*
X499Y175D01*
X349Y174D02*
X369Y174D01*
X461Y174D02*
X499Y174D01*
X350Y173D02*
X370Y173D01*
X461Y173D02*
X499Y173D01*
X351Y172D02*
X370Y172D01*
X460Y172D02*
X499Y172D01*
X352Y171D02*
X370Y171D01*
X460Y171D02*
X499Y171D01*
X353Y170D02*
X371Y170D01*
X460Y170D02*
X499Y170D01*
X354Y169D02*
X371Y169D01*
X459Y169D02*
X499Y169D01*
X355Y168D02*
X372Y168D01*
X459Y168D02*
X499Y168D01*
X356Y167D02*
X372Y167D01*
X458Y167D02*
X499Y167D01*
X357Y166D02*
X373Y166D01*
X458Y166D02*
X499Y166D01*
X358Y165D02*
X373Y165D01*
X457Y165D02*
X499Y165D01*
X359Y164D02*
X374Y164D01*
X457Y164D02*
X499Y164D01*
X360Y163D02*
X374Y163D01*
X456Y163D02*
X499Y163D01*
X361Y162D02*
X375Y162D01*
X456Y162D02*
X499Y162D01*
X362Y161D02*
X375Y161D01*
X455Y161D02*
X499Y161D01*
X363Y160D02*
X376Y160D01*
X454Y160D02*
X499Y160D01*
X364Y159D02*
X377Y159D01*
X454Y159D02*
X499Y159D01*
X365Y158D02*
X378Y158D01*
X453Y158D02*
X499Y158D01*
X366Y157D02*
X378Y157D01*
X452Y157D02*
X499Y157D01*
X367Y156D02*
X379Y156D01*
X451Y156D02*
X499Y156D01*
X368Y155D02*
X380Y155D01*
X450Y155D02*
X499Y155D01*
X369Y154D02*
X381Y154D01*
X449Y154D02*
X499Y154D01*
X371Y153D02*
X382Y153D01*
X448Y153D02*
X499Y153D01*
X372Y152D02*
X383Y152D01*
X447Y152D02*
X499Y152D01*
X373Y151D02*
X384Y151D01*
X446Y151D02*
X499Y151D01*
X374Y150D02*
X386Y150D01*
X445Y150D02*
X499Y150D01*
X375Y149D02*
X387Y149D01*
X443Y149D02*
X499Y149D01*
X376Y148D02*
X388Y148D01*
X442Y148D02*
X499Y148D01*
X377Y147D02*
X390Y147D01*
X440Y147D02*
X499Y147D01*
X378Y146D02*
X392Y146D01*
X438Y146D02*
X499Y146D01*
X379Y145D02*
X394Y145D01*
X436Y145D02*
X499Y145D01*
X380Y144D02*
X396Y144D01*
X435Y144D02*
X499Y144D01*
X381Y143D02*
X399Y143D01*
X432Y143D02*
X499Y143D01*
X382Y142D02*
X402Y142D01*
X429Y142D02*
X499Y142D01*
X383Y141D02*
X405Y141D01*
X426Y141D02*
X499Y141D01*
X384Y140D02*
X406Y140D01*
X424Y140D02*
X499Y140D01*
X385Y139D02*
X406Y139D01*
X423Y139D02*
X499Y139D01*
X386Y138D02*
X406Y138D01*
X423Y138D02*
X499Y138D01*
X387Y137D02*
X406Y137D01*
X424Y137D02*
X499Y137D01*
X388Y136D02*
X404Y136D01*
X425Y136D02*
X499Y136D01*
X389Y135D02*
X401Y135D01*
X429Y135D02*
X498Y135D01*
X390Y134D02*
X398Y134D01*
X432Y134D02*
X497Y134D01*
X391Y133D02*
X395Y133D01*
X434Y133D02*
X495Y133D01*
X436Y132D02*
X493Y132D01*
X438Y131D02*
X491Y131D01*
X440Y130D02*
X489Y130D01*
X442Y129D02*
X487Y129D01*
X443Y128D02*
X486Y128D01*
X445Y127D02*
X485Y127D01*
X446Y126D02*
X483Y126D01*
X447Y125D02*
X482Y125D01*
X448Y124D02*
X481Y124D01*
X450Y123D02*
X480Y123D01*
X450Y122D02*
X479Y122D01*
X451Y121D02*
X478Y121D01*
X452Y120D02*
X477Y120D01*
X453Y119D02*
X476Y119D01*
X454Y118D02*
X476Y118D01*
X454Y117D02*
X475Y117D01*
X455Y116D02*
X474Y116D01*
X456Y115D02*
X473Y115D01*
X456Y114D02*
X473Y114D01*
X457Y113D02*
X472Y113D01*
X457Y112D02*
X472Y112D01*
X458Y111D02*
X471Y111D01*
X459Y110D02*
X471Y110D01*
X459Y109D02*
X470Y109D01*
X460Y108D02*
X470Y108D01*
X460Y107D02*
X469Y107D01*
X460Y106D02*
X469Y106D01*
X461Y105D02*
X468Y105D01*
X461Y104D02*
X468Y104D01*
X461Y103D02*
X468Y103D01*
X462Y102D02*
X467Y102D01*
X462Y101D02*
X467Y101D01*
X462Y100D02*
X467Y100D01*
X463Y99D02*
X466Y99D01*
X463Y98D02*
X466Y98D01*
D02*
G04 End of Copper1*
M02*