G04 MADE WITH FRITZING*
G04 WWW.FRITZING.ORG*
G04 DOUBLE SIDED*
G04 HOLES PLATED*
G04 CONTOUR ON CENTER OF CONTOUR VECTOR*
%ASAXBY*%
%FSLAX23Y23*%
%MOIN*%
%OFA0B0*%
%SFA1.0B1.0*%
%ADD10C,0.075000*%
%ADD11C,0.039370*%
%ADD12C,0.074000*%
%ADD13C,0.078000*%
%ADD14R,0.078000X0.078000*%
%ADD15C,0.024000*%
%ADD16C,0.000100*%
%ADD17R,0.001000X0.001000*%
%LNCOPPER0*%
G90*
G70*
G54D10*
X77Y133D03*
G54D11*
X927Y593D03*
G54D12*
X194Y172D03*
X194Y281D03*
X194Y390D03*
X194Y499D03*
X194Y608D03*
X82Y227D03*
X82Y336D03*
X82Y445D03*
X82Y554D03*
G54D13*
X1146Y685D03*
X1046Y685D03*
X946Y685D03*
X846Y685D03*
X746Y685D03*
X646Y685D03*
X546Y685D03*
X446Y685D03*
X346Y685D03*
X346Y85D03*
X446Y85D03*
X546Y85D03*
X646Y85D03*
X746Y85D03*
X846Y85D03*
X946Y85D03*
X1046Y85D03*
X1146Y85D03*
G54D10*
X820Y339D03*
X820Y439D03*
X820Y539D03*
X508Y183D03*
X508Y583D03*
X342Y606D03*
X342Y206D03*
X1001Y597D03*
X1001Y197D03*
X700Y583D03*
X700Y183D03*
G54D12*
X590Y284D03*
X590Y584D03*
X425Y284D03*
X425Y584D03*
G54D13*
X1130Y262D03*
X1130Y362D03*
X1130Y462D03*
G54D14*
X1130Y262D03*
G54D15*
X1130Y539D02*
X837Y539D01*
D02*
X1130Y481D02*
X1130Y539D01*
D02*
X775Y592D02*
X752Y667D01*
D02*
X919Y593D02*
X775Y592D01*
D02*
X802Y439D02*
X700Y439D01*
D02*
X700Y439D02*
X700Y201D01*
D02*
X1146Y597D02*
X1019Y597D01*
D02*
X1146Y666D02*
X1146Y597D01*
D02*
X1046Y749D02*
X1046Y704D01*
D02*
X27Y749D02*
X1046Y749D01*
D02*
X27Y445D02*
X27Y749D01*
D02*
X62Y445D02*
X27Y445D01*
D02*
X425Y206D02*
X360Y206D01*
D02*
X425Y266D02*
X425Y206D01*
D02*
X276Y523D02*
X425Y523D01*
D02*
X425Y523D02*
X425Y566D01*
D02*
X208Y594D02*
X276Y523D01*
D02*
X590Y183D02*
X526Y183D01*
D02*
X590Y266D02*
X590Y183D01*
G54D16*
G36*
X997Y676D02*
X998Y675D01*
X998Y675D01*
X998Y674D01*
X1001Y666D01*
X1005Y658D01*
X1011Y650D01*
X1016Y646D01*
X1017Y646D01*
X1017Y645D01*
X1017Y644D01*
X1016Y643D01*
X1016Y643D01*
X1015Y642D01*
X1015Y642D01*
X1014Y642D01*
X1011Y643D01*
X1009Y643D01*
X1001Y644D01*
X1000Y644D01*
X992Y643D01*
X991Y643D01*
X983Y640D01*
X975Y636D01*
X974Y635D01*
X968Y630D01*
X967Y630D01*
X962Y623D01*
X957Y615D01*
X957Y614D01*
X955Y609D01*
X955Y609D01*
X954Y608D01*
X953Y608D01*
X952Y608D01*
X952Y608D01*
X951Y609D01*
X951Y610D01*
X947Y614D01*
X943Y617D01*
X938Y620D01*
X933Y622D01*
X931Y622D01*
X927Y622D01*
X925Y622D01*
X921Y622D01*
X920Y621D01*
X915Y620D01*
X910Y617D01*
X907Y615D01*
X907Y615D01*
X906Y614D01*
X793Y614D01*
X792Y614D01*
X792Y615D01*
X791Y616D01*
X780Y649D01*
X780Y650D01*
X780Y650D01*
X781Y651D01*
X786Y658D01*
X791Y666D01*
X791Y667D01*
X793Y675D01*
X794Y675D01*
X795Y676D01*
X795Y676D01*
X796Y676D01*
X797Y676D01*
X798Y675D01*
X798Y675D01*
X798Y674D01*
X801Y666D01*
X801Y665D01*
X805Y659D01*
X806Y657D01*
X811Y651D01*
X812Y650D01*
X818Y645D01*
X819Y644D01*
X827Y640D01*
X828Y640D01*
X836Y637D01*
X840Y636D01*
X845Y636D01*
X846Y636D01*
X851Y637D01*
X856Y637D01*
X865Y640D01*
X873Y645D01*
X874Y645D01*
X880Y650D01*
X881Y651D01*
X886Y658D01*
X891Y666D01*
X891Y667D01*
X893Y675D01*
X894Y675D01*
X895Y676D01*
X895Y676D01*
X896Y676D01*
X897Y676D01*
X898Y675D01*
X898Y675D01*
X898Y674D01*
X901Y666D01*
X905Y658D01*
X906Y657D01*
X911Y651D01*
X912Y650D01*
X918Y645D01*
X919Y644D01*
X927Y640D01*
X928Y640D01*
X936Y637D01*
X940Y636D01*
X945Y636D01*
X946Y636D01*
X951Y637D01*
X956Y637D01*
X965Y640D01*
X973Y645D01*
X974Y645D01*
X980Y650D01*
X981Y651D01*
X986Y658D01*
X991Y666D01*
X991Y667D01*
X993Y675D01*
X994Y675D01*
X995Y676D01*
X995Y676D01*
X996Y676D01*
X997Y676D01*
D02*
G37*
D02*
G36*
X997Y676D02*
X998Y675D01*
X998Y675D01*
X998Y674D01*
X1001Y666D01*
X1005Y658D01*
X1011Y650D01*
X1016Y646D01*
X1017Y646D01*
X1017Y645D01*
X1017Y644D01*
X1016Y643D01*
X1016Y643D01*
X1015Y642D01*
X1015Y642D01*
X1014Y642D01*
X1011Y643D01*
X1009Y643D01*
X1001Y644D01*
X1000Y644D01*
X992Y643D01*
X991Y643D01*
X983Y640D01*
X975Y636D01*
X974Y635D01*
X968Y630D01*
X967Y630D01*
X962Y623D01*
X957Y615D01*
X957Y614D01*
X955Y609D01*
X955Y609D01*
X954Y608D01*
X953Y608D01*
X952Y608D01*
X952Y608D01*
X951Y609D01*
X951Y610D01*
X947Y614D01*
X943Y617D01*
X938Y620D01*
X933Y622D01*
X931Y622D01*
X927Y622D01*
X925Y622D01*
X921Y622D01*
X920Y621D01*
X915Y620D01*
X910Y617D01*
X907Y615D01*
X907Y615D01*
X906Y614D01*
X793Y614D01*
X792Y614D01*
X792Y615D01*
X791Y616D01*
X780Y649D01*
X780Y650D01*
X780Y650D01*
X781Y651D01*
X786Y658D01*
X791Y666D01*
X791Y667D01*
X793Y675D01*
X794Y675D01*
X795Y676D01*
X795Y676D01*
X796Y676D01*
X797Y676D01*
X798Y675D01*
X798Y675D01*
X798Y674D01*
X801Y666D01*
X801Y665D01*
X805Y659D01*
X806Y657D01*
X811Y651D01*
X812Y650D01*
X818Y645D01*
X819Y644D01*
X827Y640D01*
X828Y640D01*
X836Y637D01*
X840Y636D01*
X845Y636D01*
X846Y636D01*
X851Y637D01*
X856Y637D01*
X865Y640D01*
X873Y645D01*
X874Y645D01*
X880Y650D01*
X881Y651D01*
X886Y658D01*
X891Y666D01*
X891Y667D01*
X893Y675D01*
X894Y675D01*
X895Y676D01*
X895Y676D01*
X896Y676D01*
X897Y676D01*
X898Y675D01*
X898Y675D01*
X898Y674D01*
X901Y666D01*
X905Y658D01*
X906Y657D01*
X911Y651D01*
X912Y650D01*
X918Y645D01*
X919Y644D01*
X927Y640D01*
X928Y640D01*
X936Y637D01*
X940Y636D01*
X945Y636D01*
X946Y636D01*
X951Y637D01*
X956Y637D01*
X965Y640D01*
X973Y645D01*
X974Y645D01*
X980Y650D01*
X981Y651D01*
X986Y658D01*
X991Y666D01*
X991Y667D01*
X993Y675D01*
X994Y675D01*
X995Y676D01*
X995Y676D01*
X996Y676D01*
X997Y676D01*
D02*
G37*
D02*
G36*
X1096Y676D02*
X1097Y676D01*
X1098Y675D01*
X1098Y674D01*
X1101Y666D01*
X1105Y658D01*
X1111Y650D01*
X1118Y645D01*
X1123Y642D01*
X1123Y642D01*
X1124Y640D01*
X1124Y621D01*
X1123Y620D01*
X1123Y619D01*
X1122Y619D01*
X1121Y619D01*
X1044Y619D01*
X1043Y619D01*
X1042Y620D01*
X1040Y623D01*
X1035Y630D01*
X1034Y631D01*
X1030Y634D01*
X1029Y635D01*
X1029Y636D01*
X1029Y636D01*
X1030Y637D01*
X1030Y638D01*
X1031Y638D01*
X1032Y638D01*
X1033Y638D01*
X1036Y637D01*
X1040Y636D01*
X1045Y636D01*
X1046Y636D01*
X1051Y637D01*
X1056Y637D01*
X1065Y640D01*
X1073Y645D01*
X1074Y645D01*
X1080Y650D01*
X1081Y651D01*
X1086Y658D01*
X1091Y666D01*
X1091Y667D01*
X1093Y675D01*
X1094Y675D01*
X1095Y676D01*
X1095Y676D01*
X1096Y676D01*
D02*
G37*
D02*
G36*
X1096Y676D02*
X1097Y676D01*
X1098Y675D01*
X1098Y674D01*
X1101Y666D01*
X1105Y658D01*
X1111Y650D01*
X1118Y645D01*
X1123Y642D01*
X1123Y642D01*
X1124Y640D01*
X1124Y621D01*
X1123Y620D01*
X1123Y619D01*
X1122Y619D01*
X1121Y619D01*
X1044Y619D01*
X1043Y619D01*
X1042Y620D01*
X1040Y623D01*
X1035Y630D01*
X1034Y631D01*
X1030Y634D01*
X1029Y635D01*
X1029Y636D01*
X1029Y636D01*
X1030Y637D01*
X1030Y638D01*
X1031Y638D01*
X1032Y638D01*
X1033Y638D01*
X1036Y637D01*
X1040Y636D01*
X1045Y636D01*
X1046Y636D01*
X1051Y637D01*
X1056Y637D01*
X1065Y640D01*
X1073Y645D01*
X1074Y645D01*
X1080Y650D01*
X1081Y651D01*
X1086Y658D01*
X1091Y666D01*
X1091Y667D01*
X1093Y675D01*
X1094Y675D01*
X1095Y676D01*
X1095Y676D01*
X1096Y676D01*
D02*
G37*
D02*
G36*
X1190Y747D02*
X1192Y747D01*
X1192Y746D01*
X1192Y746D01*
X1193Y745D01*
X1193Y710D01*
X1192Y709D01*
X1191Y708D01*
X1191Y708D01*
X1190Y708D01*
X1189Y708D01*
X1189Y708D01*
X1188Y709D01*
X1186Y712D01*
X1186Y713D01*
X1180Y720D01*
X1173Y726D01*
X1172Y726D01*
X1165Y730D01*
X1164Y730D01*
X1156Y733D01*
X1151Y734D01*
X1150Y734D01*
X1145Y734D01*
X1141Y734D01*
X1140Y734D01*
X1135Y733D01*
X1127Y730D01*
X1118Y726D01*
X1111Y720D01*
X1105Y713D01*
X1101Y704D01*
X1098Y696D01*
X1097Y695D01*
X1097Y695D01*
X1096Y694D01*
X1095Y695D01*
X1094Y695D01*
X1094Y696D01*
X1093Y696D01*
X1091Y704D01*
X1086Y712D01*
X1080Y720D01*
X1073Y726D01*
X1072Y726D01*
X1069Y728D01*
X1068Y729D01*
X1068Y730D01*
X1068Y745D01*
X1068Y746D01*
X1068Y747D01*
X1069Y747D01*
X1070Y747D01*
X1190Y747D01*
D02*
G37*
D02*
G36*
X1190Y747D02*
X1192Y747D01*
X1192Y746D01*
X1192Y746D01*
X1193Y745D01*
X1193Y710D01*
X1192Y709D01*
X1191Y708D01*
X1191Y708D01*
X1190Y708D01*
X1189Y708D01*
X1189Y708D01*
X1188Y709D01*
X1186Y712D01*
X1186Y713D01*
X1180Y720D01*
X1173Y726D01*
X1172Y726D01*
X1165Y730D01*
X1164Y730D01*
X1156Y733D01*
X1151Y734D01*
X1150Y734D01*
X1145Y734D01*
X1141Y734D01*
X1140Y734D01*
X1135Y733D01*
X1127Y730D01*
X1118Y726D01*
X1111Y720D01*
X1105Y713D01*
X1101Y704D01*
X1098Y696D01*
X1097Y695D01*
X1097Y695D01*
X1096Y694D01*
X1095Y695D01*
X1094Y695D01*
X1094Y696D01*
X1093Y696D01*
X1091Y704D01*
X1086Y712D01*
X1080Y720D01*
X1073Y726D01*
X1072Y726D01*
X1069Y728D01*
X1068Y729D01*
X1068Y730D01*
X1068Y745D01*
X1068Y746D01*
X1068Y747D01*
X1069Y747D01*
X1070Y747D01*
X1190Y747D01*
D02*
G37*
D02*
G54D17*
X51Y727D02*
X314Y727D01*
X50Y726D02*
X315Y726D01*
X50Y725D02*
X315Y725D01*
X50Y724D02*
X315Y724D01*
X50Y723D02*
X315Y723D01*
X50Y722D02*
X313Y722D01*
X50Y721D02*
X312Y721D01*
X50Y720D02*
X311Y720D01*
X50Y719D02*
X310Y719D01*
X50Y718D02*
X309Y718D01*
X50Y717D02*
X309Y717D01*
X50Y716D02*
X308Y716D01*
X50Y715D02*
X307Y715D01*
X50Y714D02*
X306Y714D01*
X50Y713D02*
X305Y713D01*
X50Y712D02*
X305Y712D01*
X50Y711D02*
X304Y711D01*
X50Y710D02*
X304Y710D01*
X50Y709D02*
X303Y709D01*
X50Y708D02*
X303Y708D01*
X50Y707D02*
X302Y707D01*
X50Y706D02*
X302Y706D01*
X50Y705D02*
X301Y705D01*
X50Y704D02*
X301Y704D01*
X50Y703D02*
X300Y703D01*
X50Y702D02*
X300Y702D01*
X50Y701D02*
X300Y701D01*
X50Y700D02*
X299Y700D01*
X50Y699D02*
X299Y699D01*
X50Y698D02*
X299Y698D01*
X50Y697D02*
X298Y697D01*
X50Y696D02*
X298Y696D01*
X50Y695D02*
X298Y695D01*
X50Y694D02*
X297Y694D01*
X50Y693D02*
X297Y693D01*
X50Y692D02*
X297Y692D01*
X50Y691D02*
X297Y691D01*
X50Y690D02*
X297Y690D01*
X50Y689D02*
X297Y689D01*
X50Y688D02*
X297Y688D01*
X50Y687D02*
X297Y687D01*
X50Y686D02*
X297Y686D01*
X50Y685D02*
X297Y685D01*
X50Y684D02*
X297Y684D01*
X50Y683D02*
X297Y683D01*
X50Y682D02*
X297Y682D01*
X50Y681D02*
X297Y681D01*
X50Y680D02*
X297Y680D01*
X50Y679D02*
X297Y679D01*
X50Y678D02*
X297Y678D01*
X50Y677D02*
X297Y677D01*
X50Y676D02*
X298Y676D01*
X396Y676D02*
X396Y676D01*
X496Y676D02*
X496Y676D01*
X596Y676D02*
X596Y676D01*
X696Y676D02*
X696Y676D01*
X50Y675D02*
X298Y675D01*
X394Y675D02*
X398Y675D01*
X494Y675D02*
X498Y675D01*
X594Y675D02*
X597Y675D01*
X694Y675D02*
X697Y675D01*
X50Y674D02*
X298Y674D01*
X394Y674D02*
X398Y674D01*
X494Y674D02*
X498Y674D01*
X594Y674D02*
X598Y674D01*
X694Y674D02*
X698Y674D01*
X50Y673D02*
X298Y673D01*
X394Y673D02*
X398Y673D01*
X494Y673D02*
X498Y673D01*
X594Y673D02*
X598Y673D01*
X694Y673D02*
X698Y673D01*
X50Y672D02*
X299Y672D01*
X393Y672D02*
X399Y672D01*
X493Y672D02*
X499Y672D01*
X593Y672D02*
X599Y672D01*
X693Y672D02*
X699Y672D01*
X50Y671D02*
X299Y671D01*
X393Y671D02*
X399Y671D01*
X493Y671D02*
X499Y671D01*
X593Y671D02*
X599Y671D01*
X693Y671D02*
X699Y671D01*
X50Y670D02*
X299Y670D01*
X393Y670D02*
X399Y670D01*
X493Y670D02*
X499Y670D01*
X593Y670D02*
X599Y670D01*
X693Y670D02*
X699Y670D01*
X50Y669D02*
X300Y669D01*
X392Y669D02*
X400Y669D01*
X492Y669D02*
X500Y669D01*
X592Y669D02*
X600Y669D01*
X692Y669D02*
X700Y669D01*
X50Y668D02*
X300Y668D01*
X392Y668D02*
X400Y668D01*
X492Y668D02*
X500Y668D01*
X592Y668D02*
X600Y668D01*
X692Y668D02*
X700Y668D01*
X50Y667D02*
X300Y667D01*
X392Y667D02*
X400Y667D01*
X492Y667D02*
X500Y667D01*
X592Y667D02*
X600Y667D01*
X692Y667D02*
X700Y667D01*
X50Y666D02*
X301Y666D01*
X391Y666D02*
X401Y666D01*
X491Y666D02*
X501Y666D01*
X591Y666D02*
X601Y666D01*
X691Y666D02*
X701Y666D01*
X50Y665D02*
X301Y665D01*
X391Y665D02*
X401Y665D01*
X491Y665D02*
X501Y665D01*
X591Y665D02*
X601Y665D01*
X691Y665D02*
X701Y665D01*
X50Y664D02*
X302Y664D01*
X390Y664D02*
X402Y664D01*
X490Y664D02*
X502Y664D01*
X590Y664D02*
X602Y664D01*
X690Y664D02*
X702Y664D01*
X50Y663D02*
X302Y663D01*
X390Y663D02*
X402Y663D01*
X490Y663D02*
X502Y663D01*
X590Y663D02*
X602Y663D01*
X690Y663D02*
X702Y663D01*
X50Y662D02*
X303Y662D01*
X389Y662D02*
X403Y662D01*
X489Y662D02*
X503Y662D01*
X589Y662D02*
X603Y662D01*
X689Y662D02*
X703Y662D01*
X1189Y662D02*
X1191Y662D01*
X50Y661D02*
X303Y661D01*
X389Y661D02*
X403Y661D01*
X489Y661D02*
X503Y661D01*
X589Y661D02*
X603Y661D01*
X689Y661D02*
X703Y661D01*
X1188Y661D02*
X1192Y661D01*
X50Y660D02*
X304Y660D01*
X388Y660D02*
X404Y660D01*
X488Y660D02*
X504Y660D01*
X588Y660D02*
X604Y660D01*
X688Y660D02*
X704Y660D01*
X1188Y660D02*
X1192Y660D01*
X50Y659D02*
X304Y659D01*
X388Y659D02*
X404Y659D01*
X488Y659D02*
X504Y659D01*
X588Y659D02*
X604Y659D01*
X687Y659D02*
X704Y659D01*
X1187Y659D02*
X1192Y659D01*
X50Y658D02*
X305Y658D01*
X387Y658D02*
X405Y658D01*
X487Y658D02*
X505Y658D01*
X587Y658D02*
X605Y658D01*
X687Y658D02*
X705Y658D01*
X1187Y658D02*
X1192Y658D01*
X50Y657D02*
X306Y657D01*
X386Y657D02*
X406Y657D01*
X486Y657D02*
X506Y657D01*
X586Y657D02*
X606Y657D01*
X686Y657D02*
X706Y657D01*
X1186Y657D02*
X1192Y657D01*
X50Y656D02*
X307Y656D01*
X386Y656D02*
X406Y656D01*
X485Y656D02*
X506Y656D01*
X585Y656D02*
X606Y656D01*
X685Y656D02*
X706Y656D01*
X1185Y656D02*
X1192Y656D01*
X50Y655D02*
X189Y655D01*
X200Y655D02*
X307Y655D01*
X385Y655D02*
X407Y655D01*
X485Y655D02*
X507Y655D01*
X585Y655D02*
X607Y655D01*
X685Y655D02*
X707Y655D01*
X1184Y655D02*
X1192Y655D01*
X50Y654D02*
X183Y654D01*
X206Y654D02*
X308Y654D01*
X384Y654D02*
X408Y654D01*
X484Y654D02*
X508Y654D01*
X584Y654D02*
X608Y654D01*
X684Y654D02*
X708Y654D01*
X1183Y654D02*
X1192Y654D01*
X50Y653D02*
X179Y653D01*
X209Y653D02*
X309Y653D01*
X383Y653D02*
X409Y653D01*
X483Y653D02*
X509Y653D01*
X583Y653D02*
X609Y653D01*
X683Y653D02*
X709Y653D01*
X1183Y653D02*
X1192Y653D01*
X50Y652D02*
X176Y652D01*
X212Y652D02*
X310Y652D01*
X382Y652D02*
X410Y652D01*
X482Y652D02*
X510Y652D01*
X582Y652D02*
X610Y652D01*
X682Y652D02*
X710Y652D01*
X1182Y652D02*
X1192Y652D01*
X50Y651D02*
X174Y651D01*
X214Y651D02*
X311Y651D01*
X382Y651D02*
X411Y651D01*
X481Y651D02*
X510Y651D01*
X581Y651D02*
X610Y651D01*
X681Y651D02*
X710Y651D01*
X1181Y651D02*
X1192Y651D01*
X50Y650D02*
X172Y650D01*
X216Y650D02*
X312Y650D01*
X380Y650D02*
X412Y650D01*
X480Y650D02*
X512Y650D01*
X580Y650D02*
X611Y650D01*
X680Y650D02*
X711Y650D01*
X1180Y650D02*
X1192Y650D01*
X50Y649D02*
X170Y649D01*
X218Y649D02*
X313Y649D01*
X379Y649D02*
X413Y649D01*
X479Y649D02*
X513Y649D01*
X579Y649D02*
X613Y649D01*
X679Y649D02*
X713Y649D01*
X1179Y649D02*
X1192Y649D01*
X50Y648D02*
X169Y648D01*
X220Y648D02*
X314Y648D01*
X378Y648D02*
X414Y648D01*
X478Y648D02*
X514Y648D01*
X578Y648D02*
X614Y648D01*
X678Y648D02*
X714Y648D01*
X1178Y648D02*
X1192Y648D01*
X50Y647D02*
X167Y647D01*
X221Y647D02*
X315Y647D01*
X377Y647D02*
X415Y647D01*
X477Y647D02*
X515Y647D01*
X577Y647D02*
X615Y647D01*
X677Y647D02*
X715Y647D01*
X1176Y647D02*
X1192Y647D01*
X50Y646D02*
X166Y646D01*
X223Y646D02*
X315Y646D01*
X376Y646D02*
X417Y646D01*
X475Y646D02*
X517Y646D01*
X575Y646D02*
X616Y646D01*
X675Y646D02*
X716Y646D01*
X1175Y646D02*
X1192Y646D01*
X50Y645D02*
X164Y645D01*
X224Y645D02*
X315Y645D01*
X374Y645D02*
X418Y645D01*
X474Y645D02*
X518Y645D01*
X574Y645D02*
X618Y645D01*
X674Y645D02*
X718Y645D01*
X1174Y645D02*
X1192Y645D01*
X50Y644D02*
X163Y644D01*
X225Y644D02*
X314Y644D01*
X374Y644D02*
X419Y644D01*
X472Y644D02*
X519Y644D01*
X572Y644D02*
X619Y644D01*
X672Y644D02*
X719Y644D01*
X1172Y644D02*
X1192Y644D01*
X50Y643D02*
X162Y643D01*
X226Y643D02*
X313Y643D01*
X374Y643D02*
X421Y643D01*
X471Y643D02*
X521Y643D01*
X570Y643D02*
X621Y643D01*
X670Y643D02*
X721Y643D01*
X1170Y643D02*
X1192Y643D01*
X50Y642D02*
X161Y642D01*
X228Y642D02*
X312Y642D01*
X374Y642D02*
X423Y642D01*
X469Y642D02*
X523Y642D01*
X569Y642D02*
X623Y642D01*
X669Y642D02*
X723Y642D01*
X1169Y642D02*
X1192Y642D01*
X50Y641D02*
X160Y641D01*
X229Y641D02*
X310Y641D01*
X375Y641D02*
X425Y641D01*
X467Y641D02*
X525Y641D01*
X567Y641D02*
X625Y641D01*
X667Y641D02*
X725Y641D01*
X1168Y641D02*
X1192Y641D01*
X50Y640D02*
X159Y640D01*
X229Y640D02*
X309Y640D01*
X376Y640D02*
X427Y640D01*
X465Y640D02*
X527Y640D01*
X565Y640D02*
X627Y640D01*
X664Y640D02*
X727Y640D01*
X1168Y640D02*
X1192Y640D01*
X50Y639D02*
X158Y639D01*
X230Y639D02*
X308Y639D01*
X377Y639D02*
X430Y639D01*
X461Y639D02*
X530Y639D01*
X561Y639D02*
X630Y639D01*
X661Y639D02*
X730Y639D01*
X1168Y639D02*
X1192Y639D01*
X50Y638D02*
X157Y638D01*
X231Y638D02*
X307Y638D01*
X378Y638D02*
X434Y638D01*
X458Y638D02*
X534Y638D01*
X558Y638D02*
X634Y638D01*
X658Y638D02*
X733Y638D01*
X1168Y638D02*
X1192Y638D01*
X50Y637D02*
X157Y637D01*
X232Y637D02*
X306Y637D01*
X379Y637D02*
X438Y637D01*
X454Y637D02*
X538Y637D01*
X554Y637D02*
X638Y637D01*
X654Y637D02*
X737Y637D01*
X1168Y637D02*
X1192Y637D01*
X50Y636D02*
X156Y636D01*
X233Y636D02*
X306Y636D01*
X379Y636D02*
X738Y636D01*
X1168Y636D02*
X1192Y636D01*
X50Y635D02*
X155Y635D01*
X233Y635D02*
X305Y635D01*
X380Y635D02*
X738Y635D01*
X1168Y635D02*
X1192Y635D01*
X50Y634D02*
X154Y634D01*
X234Y634D02*
X304Y634D01*
X381Y634D02*
X739Y634D01*
X1168Y634D02*
X1192Y634D01*
X50Y633D02*
X154Y633D01*
X235Y633D02*
X303Y633D01*
X382Y633D02*
X739Y633D01*
X1168Y633D02*
X1192Y633D01*
X50Y632D02*
X153Y632D01*
X235Y632D02*
X303Y632D01*
X382Y632D02*
X739Y632D01*
X1168Y632D02*
X1192Y632D01*
X50Y631D02*
X153Y631D01*
X236Y631D02*
X302Y631D01*
X383Y631D02*
X424Y631D01*
X426Y631D02*
X507Y631D01*
X510Y631D02*
X589Y631D01*
X591Y631D02*
X698Y631D01*
X701Y631D02*
X740Y631D01*
X1168Y631D02*
X1192Y631D01*
X50Y630D02*
X152Y630D01*
X236Y630D02*
X301Y630D01*
X384Y630D02*
X415Y630D01*
X435Y630D02*
X499Y630D01*
X519Y630D02*
X580Y630D01*
X600Y630D02*
X690Y630D01*
X710Y630D02*
X740Y630D01*
X1168Y630D02*
X1192Y630D01*
X50Y629D02*
X152Y629D01*
X237Y629D02*
X301Y629D01*
X384Y629D02*
X412Y629D01*
X438Y629D02*
X495Y629D01*
X522Y629D02*
X576Y629D01*
X603Y629D02*
X686Y629D01*
X713Y629D02*
X740Y629D01*
X1168Y629D02*
X1192Y629D01*
X50Y628D02*
X151Y628D01*
X237Y628D02*
X300Y628D01*
X385Y628D02*
X408Y628D01*
X441Y628D02*
X492Y628D01*
X525Y628D02*
X573Y628D01*
X606Y628D02*
X683Y628D01*
X716Y628D02*
X741Y628D01*
X1168Y628D02*
X1192Y628D01*
X50Y627D02*
X151Y627D01*
X238Y627D02*
X300Y627D01*
X385Y627D02*
X406Y627D01*
X444Y627D02*
X489Y627D01*
X528Y627D02*
X570Y627D01*
X609Y627D02*
X681Y627D01*
X719Y627D02*
X741Y627D01*
X1168Y627D02*
X1192Y627D01*
X50Y626D02*
X150Y626D01*
X238Y626D02*
X299Y626D01*
X386Y626D02*
X404Y626D01*
X446Y626D02*
X487Y626D01*
X530Y626D02*
X569Y626D01*
X611Y626D02*
X679Y626D01*
X721Y626D02*
X741Y626D01*
X1168Y626D02*
X1192Y626D01*
X50Y625D02*
X150Y625D01*
X238Y625D02*
X299Y625D01*
X386Y625D02*
X402Y625D01*
X448Y625D02*
X486Y625D01*
X532Y625D02*
X567Y625D01*
X613Y625D02*
X677Y625D01*
X723Y625D02*
X742Y625D01*
X1168Y625D02*
X1192Y625D01*
X50Y624D02*
X150Y624D01*
X239Y624D02*
X298Y624D01*
X387Y624D02*
X400Y624D01*
X450Y624D02*
X484Y624D01*
X534Y624D02*
X565Y624D01*
X615Y624D02*
X675Y624D01*
X725Y624D02*
X742Y624D01*
X1168Y624D02*
X1192Y624D01*
X50Y623D02*
X149Y623D01*
X239Y623D02*
X298Y623D01*
X387Y623D02*
X398Y623D01*
X451Y623D02*
X482Y623D01*
X535Y623D02*
X563Y623D01*
X616Y623D02*
X673Y623D01*
X727Y623D02*
X742Y623D01*
X1168Y623D02*
X1192Y623D01*
X50Y622D02*
X149Y622D01*
X239Y622D02*
X298Y622D01*
X387Y622D02*
X397Y622D01*
X453Y622D02*
X481Y622D01*
X537Y622D02*
X562Y622D01*
X618Y622D02*
X672Y622D01*
X728Y622D02*
X742Y622D01*
X1168Y622D02*
X1192Y622D01*
X50Y621D02*
X149Y621D01*
X240Y621D02*
X297Y621D01*
X388Y621D02*
X396Y621D01*
X454Y621D02*
X479Y621D01*
X538Y621D02*
X561Y621D01*
X619Y621D02*
X670Y621D01*
X729Y621D02*
X743Y621D01*
X1168Y621D02*
X1192Y621D01*
X50Y620D02*
X148Y620D01*
X240Y620D02*
X297Y620D01*
X388Y620D02*
X394Y620D01*
X455Y620D02*
X478Y620D01*
X539Y620D02*
X559Y620D01*
X620Y620D02*
X669Y620D01*
X730Y620D02*
X743Y620D01*
X1168Y620D02*
X1192Y620D01*
X50Y619D02*
X148Y619D01*
X240Y619D02*
X297Y619D01*
X388Y619D02*
X393Y619D01*
X457Y619D02*
X477Y619D01*
X541Y619D02*
X558Y619D01*
X621Y619D02*
X668Y619D01*
X732Y619D02*
X743Y619D01*
X1168Y619D02*
X1192Y619D01*
X50Y618D02*
X148Y618D01*
X241Y618D02*
X296Y618D01*
X389Y618D02*
X392Y618D01*
X458Y618D02*
X476Y618D01*
X542Y618D02*
X557Y618D01*
X623Y618D02*
X667Y618D01*
X733Y618D02*
X744Y618D01*
X1168Y618D02*
X1192Y618D01*
X50Y617D02*
X148Y617D01*
X241Y617D02*
X296Y617D01*
X390Y617D02*
X390Y617D01*
X459Y617D02*
X474Y617D01*
X543Y617D02*
X556Y617D01*
X624Y617D02*
X666Y617D01*
X734Y617D02*
X744Y617D01*
X1168Y617D02*
X1192Y617D01*
X50Y616D02*
X148Y616D01*
X241Y616D02*
X296Y616D01*
X460Y616D02*
X474Y616D01*
X544Y616D02*
X555Y616D01*
X625Y616D02*
X665Y616D01*
X735Y616D02*
X744Y616D01*
X1168Y616D02*
X1192Y616D01*
X50Y615D02*
X147Y615D01*
X241Y615D02*
X296Y615D01*
X460Y615D02*
X473Y615D01*
X545Y615D02*
X554Y615D01*
X625Y615D02*
X664Y615D01*
X736Y615D02*
X745Y615D01*
X1168Y615D02*
X1192Y615D01*
X50Y614D02*
X147Y614D01*
X241Y614D02*
X295Y614D01*
X461Y614D02*
X472Y614D01*
X545Y614D02*
X553Y614D01*
X626Y614D02*
X663Y614D01*
X737Y614D02*
X745Y614D01*
X1168Y614D02*
X1192Y614D01*
X50Y613D02*
X147Y613D01*
X241Y613D02*
X295Y613D01*
X462Y613D02*
X471Y613D01*
X546Y613D02*
X552Y613D01*
X627Y613D02*
X662Y613D01*
X737Y613D02*
X745Y613D01*
X1168Y613D02*
X1192Y613D01*
X50Y612D02*
X147Y612D01*
X241Y612D02*
X295Y612D01*
X463Y612D02*
X470Y612D01*
X547Y612D02*
X552Y612D01*
X628Y612D02*
X662Y612D01*
X738Y612D02*
X746Y612D01*
X1168Y612D02*
X1192Y612D01*
X50Y611D02*
X147Y611D01*
X241Y611D02*
X295Y611D01*
X464Y611D02*
X470Y611D01*
X548Y611D02*
X551Y611D01*
X629Y611D02*
X661Y611D01*
X739Y611D02*
X746Y611D01*
X1168Y611D02*
X1192Y611D01*
X50Y610D02*
X147Y610D01*
X242Y610D02*
X295Y610D01*
X464Y610D02*
X469Y610D01*
X629Y610D02*
X660Y610D01*
X740Y610D02*
X746Y610D01*
X1168Y610D02*
X1192Y610D01*
X50Y609D02*
X147Y609D01*
X242Y609D02*
X295Y609D01*
X465Y609D02*
X468Y609D01*
X630Y609D02*
X659Y609D01*
X740Y609D02*
X747Y609D01*
X1168Y609D02*
X1192Y609D01*
X50Y608D02*
X147Y608D01*
X242Y608D02*
X295Y608D01*
X466Y608D02*
X467Y608D01*
X630Y608D02*
X659Y608D01*
X741Y608D02*
X747Y608D01*
X1168Y608D02*
X1192Y608D01*
X50Y607D02*
X147Y607D01*
X242Y607D02*
X295Y607D01*
X631Y607D02*
X658Y607D01*
X741Y607D02*
X747Y607D01*
X1168Y607D02*
X1192Y607D01*
X50Y606D02*
X147Y606D01*
X241Y606D02*
X295Y606D01*
X631Y606D02*
X658Y606D01*
X742Y606D02*
X748Y606D01*
X1168Y606D02*
X1192Y606D01*
X50Y605D02*
X147Y605D01*
X241Y605D02*
X295Y605D01*
X632Y605D02*
X657Y605D01*
X742Y605D02*
X748Y605D01*
X1168Y605D02*
X1192Y605D01*
X50Y604D02*
X147Y604D01*
X241Y604D02*
X295Y604D01*
X632Y604D02*
X657Y604D01*
X743Y604D02*
X748Y604D01*
X1168Y604D02*
X1192Y604D01*
X50Y603D02*
X147Y603D01*
X241Y603D02*
X295Y603D01*
X633Y603D02*
X656Y603D01*
X743Y603D02*
X749Y603D01*
X1168Y603D02*
X1192Y603D01*
X50Y602D02*
X147Y602D01*
X241Y602D02*
X295Y602D01*
X633Y602D02*
X656Y602D01*
X744Y602D02*
X749Y602D01*
X1168Y602D02*
X1192Y602D01*
X50Y601D02*
X148Y601D01*
X241Y601D02*
X295Y601D01*
X634Y601D02*
X655Y601D01*
X744Y601D02*
X749Y601D01*
X1168Y601D02*
X1192Y601D01*
X50Y600D02*
X74Y600D01*
X91Y600D02*
X148Y600D01*
X241Y600D02*
X295Y600D01*
X634Y600D02*
X655Y600D01*
X745Y600D02*
X750Y600D01*
X1168Y600D02*
X1192Y600D01*
X50Y599D02*
X70Y599D01*
X95Y599D02*
X148Y599D01*
X241Y599D02*
X295Y599D01*
X634Y599D02*
X655Y599D01*
X745Y599D02*
X750Y599D01*
X1168Y599D02*
X1192Y599D01*
X50Y598D02*
X67Y598D01*
X98Y598D02*
X148Y598D01*
X240Y598D02*
X295Y598D01*
X635Y598D02*
X654Y598D01*
X745Y598D02*
X750Y598D01*
X1168Y598D02*
X1192Y598D01*
X50Y597D02*
X64Y597D01*
X101Y597D02*
X148Y597D01*
X240Y597D02*
X295Y597D01*
X635Y597D02*
X654Y597D01*
X745Y597D02*
X750Y597D01*
X1168Y597D02*
X1192Y597D01*
X50Y596D02*
X62Y596D01*
X103Y596D02*
X149Y596D01*
X240Y596D02*
X296Y596D01*
X635Y596D02*
X654Y596D01*
X746Y596D02*
X751Y596D01*
X1168Y596D02*
X1192Y596D01*
X50Y595D02*
X60Y595D01*
X105Y595D02*
X149Y595D01*
X240Y595D02*
X296Y595D01*
X636Y595D02*
X653Y595D01*
X746Y595D02*
X751Y595D01*
X1168Y595D02*
X1192Y595D01*
X50Y594D02*
X58Y594D01*
X107Y594D02*
X149Y594D01*
X240Y594D02*
X296Y594D01*
X636Y594D02*
X653Y594D01*
X746Y594D02*
X751Y594D01*
X1168Y594D02*
X1192Y594D01*
X50Y593D02*
X56Y593D01*
X109Y593D02*
X150Y593D01*
X240Y593D02*
X297Y593D01*
X636Y593D02*
X653Y593D01*
X747Y593D02*
X752Y593D01*
X1168Y593D02*
X1192Y593D01*
X50Y592D02*
X55Y592D01*
X110Y592D02*
X150Y592D01*
X241Y592D02*
X297Y592D01*
X636Y592D02*
X653Y592D01*
X747Y592D02*
X752Y592D01*
X1167Y592D02*
X1192Y592D01*
X50Y591D02*
X54Y591D01*
X111Y591D02*
X150Y591D01*
X242Y591D02*
X297Y591D01*
X636Y591D02*
X653Y591D01*
X747Y591D02*
X752Y591D01*
X1167Y591D02*
X1192Y591D01*
X52Y590D02*
X52Y590D01*
X113Y590D02*
X151Y590D01*
X243Y590D02*
X298Y590D01*
X637Y590D02*
X652Y590D01*
X747Y590D02*
X753Y590D01*
X1167Y590D02*
X1192Y590D01*
X114Y589D02*
X151Y589D01*
X244Y589D02*
X298Y589D01*
X637Y589D02*
X652Y589D01*
X747Y589D02*
X753Y589D01*
X1167Y589D02*
X1192Y589D01*
X115Y588D02*
X152Y588D01*
X245Y588D02*
X298Y588D01*
X637Y588D02*
X652Y588D01*
X747Y588D02*
X753Y588D01*
X1166Y588D02*
X1192Y588D01*
X116Y587D02*
X152Y587D01*
X246Y587D02*
X299Y587D01*
X637Y587D02*
X652Y587D01*
X747Y587D02*
X754Y587D01*
X1166Y587D02*
X1192Y587D01*
X117Y586D02*
X153Y586D01*
X247Y586D02*
X299Y586D01*
X637Y586D02*
X652Y586D01*
X748Y586D02*
X754Y586D01*
X1165Y586D02*
X1192Y586D01*
X118Y585D02*
X153Y585D01*
X248Y585D02*
X300Y585D01*
X637Y585D02*
X652Y585D01*
X748Y585D02*
X754Y585D01*
X1165Y585D02*
X1192Y585D01*
X119Y584D02*
X154Y584D01*
X249Y584D02*
X300Y584D01*
X637Y584D02*
X652Y584D01*
X748Y584D02*
X755Y584D01*
X1164Y584D02*
X1192Y584D01*
X120Y583D02*
X155Y583D01*
X250Y583D02*
X301Y583D01*
X637Y583D02*
X652Y583D01*
X748Y583D02*
X755Y583D01*
X1163Y583D02*
X1192Y583D01*
X120Y582D02*
X155Y582D01*
X251Y582D02*
X301Y582D01*
X637Y582D02*
X652Y582D01*
X748Y582D02*
X756Y582D01*
X1162Y582D02*
X1192Y582D01*
X121Y581D02*
X156Y581D01*
X252Y581D02*
X302Y581D01*
X637Y581D02*
X652Y581D01*
X748Y581D02*
X756Y581D01*
X1161Y581D02*
X1192Y581D01*
X122Y580D02*
X157Y580D01*
X253Y580D02*
X302Y580D01*
X637Y580D02*
X652Y580D01*
X747Y580D02*
X757Y580D01*
X1160Y580D02*
X1192Y580D01*
X122Y579D02*
X158Y579D01*
X254Y579D02*
X303Y579D01*
X637Y579D02*
X652Y579D01*
X747Y579D02*
X758Y579D01*
X1159Y579D02*
X1192Y579D01*
X123Y578D02*
X158Y578D01*
X255Y578D02*
X304Y578D01*
X637Y578D02*
X652Y578D01*
X747Y578D02*
X758Y578D01*
X1157Y578D02*
X1192Y578D01*
X124Y577D02*
X159Y577D01*
X256Y577D02*
X305Y577D01*
X636Y577D02*
X653Y577D01*
X747Y577D02*
X759Y577D01*
X1155Y577D02*
X1192Y577D01*
X124Y576D02*
X160Y576D01*
X257Y576D02*
X305Y576D01*
X636Y576D02*
X653Y576D01*
X747Y576D02*
X760Y576D01*
X1153Y576D02*
X1192Y576D01*
X125Y575D02*
X161Y575D01*
X258Y575D02*
X306Y575D01*
X636Y575D02*
X653Y575D01*
X747Y575D02*
X761Y575D01*
X1144Y575D02*
X1192Y575D01*
X125Y574D02*
X162Y574D01*
X259Y574D02*
X307Y574D01*
X636Y574D02*
X653Y574D01*
X747Y574D02*
X763Y574D01*
X1043Y574D02*
X1192Y574D01*
X126Y573D02*
X163Y573D01*
X260Y573D02*
X308Y573D01*
X636Y573D02*
X653Y573D01*
X746Y573D02*
X764Y573D01*
X1042Y573D02*
X1192Y573D01*
X126Y572D02*
X165Y572D01*
X261Y572D02*
X309Y572D01*
X376Y572D02*
X379Y572D01*
X635Y572D02*
X654Y572D01*
X746Y572D02*
X767Y572D01*
X1042Y572D02*
X1192Y572D01*
X126Y571D02*
X166Y571D01*
X262Y571D02*
X310Y571D01*
X375Y571D02*
X380Y571D01*
X635Y571D02*
X654Y571D01*
X746Y571D02*
X770Y571D01*
X1041Y571D02*
X1192Y571D01*
X127Y570D02*
X167Y570D01*
X263Y570D02*
X311Y570D01*
X374Y570D02*
X380Y570D01*
X635Y570D02*
X654Y570D01*
X745Y570D02*
X780Y570D01*
X1041Y570D02*
X1192Y570D01*
X127Y569D02*
X169Y569D01*
X264Y569D02*
X312Y569D01*
X373Y569D02*
X380Y569D01*
X634Y569D02*
X654Y569D01*
X745Y569D02*
X781Y569D01*
X1040Y569D02*
X1192Y569D01*
X127Y568D02*
X171Y568D01*
X264Y568D02*
X314Y568D01*
X371Y568D02*
X381Y568D01*
X634Y568D02*
X655Y568D01*
X745Y568D02*
X781Y568D01*
X1039Y568D02*
X1192Y568D01*
X128Y567D02*
X173Y567D01*
X265Y567D02*
X315Y567D01*
X370Y567D02*
X381Y567D01*
X634Y567D02*
X655Y567D01*
X744Y567D02*
X781Y567D01*
X1038Y567D02*
X1192Y567D01*
X128Y566D02*
X174Y566D01*
X266Y566D02*
X317Y566D01*
X368Y566D02*
X381Y566D01*
X633Y566D02*
X655Y566D01*
X744Y566D02*
X781Y566D01*
X1037Y566D02*
X1192Y566D01*
X128Y565D02*
X177Y565D01*
X267Y565D02*
X318Y565D01*
X367Y565D02*
X382Y565D01*
X633Y565D02*
X656Y565D01*
X744Y565D02*
X780Y565D01*
X1037Y565D02*
X1192Y565D01*
X129Y564D02*
X180Y564D01*
X268Y564D02*
X320Y564D01*
X365Y564D02*
X382Y564D01*
X632Y564D02*
X656Y564D01*
X743Y564D02*
X779Y564D01*
X1036Y564D02*
X1192Y564D01*
X129Y563D02*
X183Y563D01*
X205Y563D02*
X207Y563D01*
X269Y563D02*
X322Y563D01*
X363Y563D02*
X383Y563D01*
X632Y563D02*
X657Y563D01*
X743Y563D02*
X779Y563D01*
X1036Y563D02*
X1192Y563D01*
X129Y562D02*
X190Y562D01*
X199Y562D02*
X208Y562D01*
X270Y562D02*
X324Y562D01*
X360Y562D02*
X383Y562D01*
X631Y562D02*
X657Y562D01*
X742Y562D02*
X778Y562D01*
X1036Y562D02*
X1192Y562D01*
X129Y561D02*
X209Y561D01*
X271Y561D02*
X328Y561D01*
X357Y561D02*
X384Y561D01*
X631Y561D02*
X658Y561D01*
X742Y561D02*
X778Y561D01*
X1038Y561D02*
X1192Y561D01*
X129Y560D02*
X210Y560D01*
X272Y560D02*
X331Y560D01*
X354Y560D02*
X384Y560D01*
X466Y560D02*
X466Y560D01*
X630Y560D02*
X659Y560D01*
X741Y560D02*
X777Y560D01*
X1136Y560D02*
X1192Y560D01*
X129Y559D02*
X211Y559D01*
X273Y559D02*
X336Y559D01*
X349Y559D02*
X385Y559D01*
X465Y559D02*
X468Y559D01*
X630Y559D02*
X659Y559D01*
X741Y559D02*
X777Y559D01*
X1139Y559D02*
X1192Y559D01*
X130Y558D02*
X212Y558D01*
X274Y558D02*
X385Y558D01*
X464Y558D02*
X468Y558D01*
X629Y558D02*
X660Y558D01*
X740Y558D02*
X776Y558D01*
X1141Y558D02*
X1192Y558D01*
X130Y557D02*
X213Y557D01*
X275Y557D02*
X386Y557D01*
X463Y557D02*
X469Y557D01*
X548Y557D02*
X551Y557D01*
X628Y557D02*
X660Y557D01*
X739Y557D02*
X776Y557D01*
X1142Y557D02*
X1192Y557D01*
X130Y556D02*
X214Y556D01*
X276Y556D02*
X387Y556D01*
X463Y556D02*
X470Y556D01*
X548Y556D02*
X552Y556D01*
X628Y556D02*
X661Y556D01*
X739Y556D02*
X776Y556D01*
X1144Y556D02*
X1192Y556D01*
X130Y555D02*
X215Y555D01*
X277Y555D02*
X388Y555D01*
X462Y555D02*
X471Y555D01*
X547Y555D02*
X553Y555D01*
X627Y555D02*
X662Y555D01*
X738Y555D02*
X775Y555D01*
X1145Y555D02*
X1192Y555D01*
X130Y554D02*
X216Y554D01*
X278Y554D02*
X389Y554D01*
X461Y554D02*
X471Y554D01*
X546Y554D02*
X553Y554D01*
X626Y554D02*
X663Y554D01*
X737Y554D02*
X775Y554D01*
X1146Y554D02*
X1192Y554D01*
X130Y553D02*
X217Y553D01*
X279Y553D02*
X389Y553D01*
X460Y553D02*
X472Y553D01*
X545Y553D02*
X554Y553D01*
X625Y553D02*
X663Y553D01*
X736Y553D02*
X775Y553D01*
X1147Y553D02*
X1192Y553D01*
X130Y552D02*
X218Y552D01*
X280Y552D02*
X390Y552D01*
X459Y552D02*
X473Y552D01*
X544Y552D02*
X555Y552D01*
X624Y552D02*
X664Y552D01*
X736Y552D02*
X774Y552D01*
X1148Y552D02*
X1192Y552D01*
X130Y551D02*
X219Y551D01*
X281Y551D02*
X391Y551D01*
X459Y551D02*
X474Y551D01*
X544Y551D02*
X556Y551D01*
X623Y551D02*
X665Y551D01*
X735Y551D02*
X774Y551D01*
X1148Y551D02*
X1192Y551D01*
X130Y550D02*
X220Y550D01*
X282Y550D02*
X392Y550D01*
X457Y550D02*
X475Y550D01*
X543Y550D02*
X557Y550D01*
X622Y550D02*
X666Y550D01*
X734Y550D02*
X774Y550D01*
X1149Y550D02*
X1192Y550D01*
X129Y549D02*
X221Y549D01*
X283Y549D02*
X393Y549D01*
X456Y549D02*
X476Y549D01*
X541Y549D02*
X558Y549D01*
X621Y549D02*
X667Y549D01*
X733Y549D02*
X773Y549D01*
X1150Y549D02*
X1192Y549D01*
X129Y548D02*
X222Y548D01*
X284Y548D02*
X394Y548D01*
X455Y548D02*
X477Y548D01*
X540Y548D02*
X560Y548D01*
X620Y548D02*
X668Y548D01*
X731Y548D02*
X773Y548D01*
X1150Y548D02*
X1192Y548D01*
X129Y547D02*
X223Y547D01*
X285Y547D02*
X393Y547D01*
X454Y547D02*
X478Y547D01*
X539Y547D02*
X561Y547D01*
X619Y547D02*
X670Y547D01*
X730Y547D02*
X773Y547D01*
X1151Y547D02*
X1192Y547D01*
X129Y546D02*
X188Y546D01*
X200Y546D02*
X224Y546D01*
X286Y546D02*
X393Y546D01*
X452Y546D02*
X480Y546D01*
X538Y546D02*
X562Y546D01*
X617Y546D02*
X671Y546D01*
X729Y546D02*
X773Y546D01*
X1151Y546D02*
X1192Y546D01*
X129Y545D02*
X183Y545D01*
X206Y545D02*
X225Y545D01*
X451Y545D02*
X481Y545D01*
X536Y545D02*
X563Y545D01*
X616Y545D02*
X672Y545D01*
X728Y545D02*
X773Y545D01*
X1151Y545D02*
X1192Y545D01*
X129Y544D02*
X179Y544D01*
X209Y544D02*
X226Y544D01*
X449Y544D02*
X482Y544D01*
X535Y544D02*
X565Y544D01*
X614Y544D02*
X673Y544D01*
X726Y544D02*
X773Y544D01*
X1152Y544D02*
X1192Y544D01*
X128Y543D02*
X176Y543D01*
X212Y543D02*
X227Y543D01*
X448Y543D02*
X484Y543D01*
X533Y543D02*
X567Y543D01*
X612Y543D02*
X675Y543D01*
X724Y543D02*
X772Y543D01*
X1152Y543D02*
X1192Y543D01*
X128Y542D02*
X174Y542D01*
X214Y542D02*
X228Y542D01*
X447Y542D02*
X486Y542D01*
X531Y542D02*
X569Y542D01*
X610Y542D02*
X677Y542D01*
X722Y542D02*
X772Y542D01*
X1152Y542D02*
X1192Y542D01*
X128Y541D02*
X172Y541D01*
X216Y541D02*
X228Y541D01*
X447Y541D02*
X488Y541D01*
X529Y541D02*
X571Y541D01*
X608Y541D02*
X679Y541D01*
X721Y541D02*
X772Y541D01*
X1152Y541D02*
X1192Y541D01*
X128Y540D02*
X170Y540D01*
X218Y540D02*
X229Y540D01*
X447Y540D02*
X490Y540D01*
X527Y540D02*
X574Y540D01*
X605Y540D02*
X681Y540D01*
X718Y540D02*
X772Y540D01*
X1152Y540D02*
X1192Y540D01*
X127Y539D02*
X169Y539D01*
X220Y539D02*
X230Y539D01*
X447Y539D02*
X493Y539D01*
X524Y539D02*
X577Y539D01*
X602Y539D02*
X684Y539D01*
X715Y539D02*
X772Y539D01*
X1152Y539D02*
X1192Y539D01*
X127Y538D02*
X167Y538D01*
X222Y538D02*
X231Y538D01*
X447Y538D02*
X496Y538D01*
X521Y538D02*
X582Y538D01*
X598Y538D02*
X687Y538D01*
X712Y538D02*
X772Y538D01*
X1152Y538D02*
X1192Y538D01*
X127Y537D02*
X166Y537D01*
X223Y537D02*
X232Y537D01*
X447Y537D02*
X500Y537D01*
X517Y537D02*
X691Y537D01*
X708Y537D02*
X772Y537D01*
X1152Y537D02*
X1192Y537D01*
X126Y536D02*
X164Y536D01*
X224Y536D02*
X233Y536D01*
X447Y536D02*
X772Y536D01*
X1152Y536D02*
X1192Y536D01*
X126Y535D02*
X163Y535D01*
X225Y535D02*
X234Y535D01*
X447Y535D02*
X772Y535D01*
X1152Y535D02*
X1192Y535D01*
X125Y534D02*
X162Y534D01*
X227Y534D02*
X235Y534D01*
X447Y534D02*
X773Y534D01*
X1152Y534D02*
X1192Y534D01*
X125Y533D02*
X161Y533D01*
X228Y533D02*
X236Y533D01*
X447Y533D02*
X773Y533D01*
X1152Y533D02*
X1192Y533D01*
X124Y532D02*
X160Y532D01*
X229Y532D02*
X237Y532D01*
X447Y532D02*
X773Y532D01*
X1152Y532D02*
X1192Y532D01*
X124Y531D02*
X159Y531D01*
X229Y531D02*
X238Y531D01*
X447Y531D02*
X773Y531D01*
X1152Y531D02*
X1192Y531D01*
X123Y530D02*
X158Y530D01*
X230Y530D02*
X239Y530D01*
X447Y530D02*
X773Y530D01*
X1152Y530D02*
X1192Y530D01*
X123Y529D02*
X157Y529D01*
X231Y529D02*
X240Y529D01*
X447Y529D02*
X773Y529D01*
X1152Y529D02*
X1192Y529D01*
X122Y528D02*
X157Y528D01*
X232Y528D02*
X241Y528D01*
X447Y528D02*
X774Y528D01*
X1152Y528D02*
X1192Y528D01*
X121Y527D02*
X156Y527D01*
X233Y527D02*
X242Y527D01*
X447Y527D02*
X774Y527D01*
X1152Y527D02*
X1192Y527D01*
X121Y526D02*
X155Y526D01*
X233Y526D02*
X243Y526D01*
X447Y526D02*
X774Y526D01*
X1152Y526D02*
X1192Y526D01*
X120Y525D02*
X154Y525D01*
X234Y525D02*
X244Y525D01*
X447Y525D02*
X774Y525D01*
X1152Y525D02*
X1192Y525D01*
X119Y524D02*
X154Y524D01*
X235Y524D02*
X245Y524D01*
X447Y524D02*
X775Y524D01*
X1152Y524D02*
X1192Y524D01*
X118Y523D02*
X153Y523D01*
X235Y523D02*
X246Y523D01*
X447Y523D02*
X775Y523D01*
X1152Y523D02*
X1192Y523D01*
X117Y522D02*
X153Y522D01*
X236Y522D02*
X247Y522D01*
X447Y522D02*
X775Y522D01*
X1152Y522D02*
X1192Y522D01*
X116Y521D02*
X152Y521D01*
X236Y521D02*
X248Y521D01*
X447Y521D02*
X776Y521D01*
X1152Y521D02*
X1192Y521D01*
X115Y520D02*
X152Y520D01*
X237Y520D02*
X249Y520D01*
X447Y520D02*
X776Y520D01*
X1152Y520D02*
X1192Y520D01*
X114Y519D02*
X151Y519D01*
X237Y519D02*
X250Y519D01*
X447Y519D02*
X777Y519D01*
X1152Y519D02*
X1192Y519D01*
X113Y518D02*
X151Y518D01*
X238Y518D02*
X251Y518D01*
X447Y518D02*
X777Y518D01*
X1152Y518D02*
X1192Y518D01*
X51Y517D02*
X53Y517D01*
X112Y517D02*
X150Y517D01*
X238Y517D02*
X252Y517D01*
X446Y517D02*
X778Y517D01*
X1152Y517D02*
X1192Y517D01*
X50Y516D02*
X55Y516D01*
X110Y516D02*
X150Y516D01*
X238Y516D02*
X253Y516D01*
X446Y516D02*
X778Y516D01*
X862Y516D02*
X1106Y516D01*
X1152Y516D02*
X1192Y516D01*
X50Y515D02*
X56Y515D01*
X109Y515D02*
X150Y515D01*
X239Y515D02*
X254Y515D01*
X446Y515D02*
X779Y515D01*
X861Y515D02*
X1107Y515D01*
X1152Y515D02*
X1192Y515D01*
X50Y514D02*
X58Y514D01*
X107Y514D02*
X149Y514D01*
X239Y514D02*
X255Y514D01*
X445Y514D02*
X779Y514D01*
X861Y514D02*
X1107Y514D01*
X1152Y514D02*
X1192Y514D01*
X50Y513D02*
X60Y513D01*
X105Y513D02*
X149Y513D01*
X239Y513D02*
X256Y513D01*
X445Y513D02*
X780Y513D01*
X860Y513D02*
X1107Y513D01*
X1152Y513D02*
X1192Y513D01*
X50Y512D02*
X61Y512D01*
X103Y512D02*
X149Y512D01*
X240Y512D02*
X256Y512D01*
X444Y512D02*
X781Y512D01*
X859Y512D02*
X1107Y512D01*
X1152Y512D02*
X1192Y512D01*
X50Y511D02*
X63Y511D01*
X102Y511D02*
X148Y511D01*
X240Y511D02*
X257Y511D01*
X444Y511D02*
X781Y511D01*
X859Y511D02*
X1107Y511D01*
X1152Y511D02*
X1192Y511D01*
X50Y510D02*
X66Y510D01*
X99Y510D02*
X148Y510D01*
X240Y510D02*
X258Y510D01*
X443Y510D02*
X782Y510D01*
X858Y510D02*
X1107Y510D01*
X1152Y510D02*
X1192Y510D01*
X50Y509D02*
X69Y509D01*
X96Y509D02*
X148Y509D01*
X241Y509D02*
X259Y509D01*
X442Y509D02*
X783Y509D01*
X857Y509D02*
X1107Y509D01*
X1152Y509D02*
X1192Y509D01*
X50Y508D02*
X73Y508D01*
X92Y508D02*
X148Y508D01*
X241Y508D02*
X260Y508D01*
X441Y508D02*
X784Y508D01*
X856Y508D02*
X1107Y508D01*
X1152Y508D02*
X1192Y508D01*
X50Y507D02*
X81Y507D01*
X83Y507D02*
X148Y507D01*
X241Y507D02*
X261Y507D01*
X440Y507D02*
X785Y507D01*
X855Y507D02*
X1107Y507D01*
X1152Y507D02*
X1192Y507D01*
X50Y506D02*
X147Y506D01*
X241Y506D02*
X263Y506D01*
X439Y506D02*
X785Y506D01*
X855Y506D02*
X1107Y506D01*
X1152Y506D02*
X1192Y506D01*
X50Y505D02*
X147Y505D01*
X241Y505D02*
X264Y505D01*
X438Y505D02*
X786Y505D01*
X854Y505D02*
X1106Y505D01*
X1153Y505D02*
X1192Y505D01*
X50Y504D02*
X147Y504D01*
X241Y504D02*
X266Y504D01*
X436Y504D02*
X788Y504D01*
X852Y504D02*
X1104Y504D01*
X1155Y504D02*
X1192Y504D01*
X50Y503D02*
X147Y503D01*
X241Y503D02*
X268Y503D01*
X434Y503D02*
X789Y503D01*
X851Y503D02*
X1102Y503D01*
X1157Y503D02*
X1192Y503D01*
X50Y502D02*
X147Y502D01*
X241Y502D02*
X271Y502D01*
X431Y502D02*
X790Y502D01*
X850Y502D02*
X1101Y502D01*
X1158Y502D02*
X1192Y502D01*
X50Y501D02*
X147Y501D01*
X242Y501D02*
X791Y501D01*
X849Y501D02*
X1099Y501D01*
X1160Y501D02*
X1192Y501D01*
X50Y500D02*
X147Y500D01*
X242Y500D02*
X793Y500D01*
X847Y500D02*
X1098Y500D01*
X1161Y500D02*
X1192Y500D01*
X50Y499D02*
X147Y499D01*
X242Y499D02*
X794Y499D01*
X846Y499D02*
X1097Y499D01*
X1162Y499D02*
X1192Y499D01*
X50Y498D02*
X147Y498D01*
X242Y498D02*
X796Y498D01*
X844Y498D02*
X1096Y498D01*
X1163Y498D02*
X1192Y498D01*
X50Y497D02*
X147Y497D01*
X241Y497D02*
X798Y497D01*
X842Y497D02*
X1095Y497D01*
X1165Y497D02*
X1192Y497D01*
X50Y496D02*
X147Y496D01*
X241Y496D02*
X800Y496D01*
X840Y496D02*
X1094Y496D01*
X1165Y496D02*
X1192Y496D01*
X50Y495D02*
X147Y495D01*
X241Y495D02*
X802Y495D01*
X838Y495D02*
X1093Y495D01*
X1166Y495D02*
X1192Y495D01*
X50Y494D02*
X147Y494D01*
X241Y494D02*
X805Y494D01*
X835Y494D02*
X1092Y494D01*
X1167Y494D02*
X1192Y494D01*
X50Y493D02*
X147Y493D01*
X241Y493D02*
X808Y493D01*
X832Y493D02*
X1091Y493D01*
X1168Y493D02*
X1192Y493D01*
X50Y492D02*
X148Y492D01*
X241Y492D02*
X814Y492D01*
X826Y492D02*
X1091Y492D01*
X1169Y492D02*
X1192Y492D01*
X50Y491D02*
X74Y491D01*
X91Y491D02*
X148Y491D01*
X241Y491D02*
X1090Y491D01*
X1170Y491D02*
X1192Y491D01*
X50Y490D02*
X70Y490D01*
X95Y490D02*
X148Y490D01*
X241Y490D02*
X1089Y490D01*
X1170Y490D02*
X1192Y490D01*
X50Y489D02*
X67Y489D01*
X98Y489D02*
X148Y489D01*
X240Y489D02*
X1088Y489D01*
X1171Y489D02*
X1192Y489D01*
X50Y488D02*
X64Y488D01*
X101Y488D02*
X148Y488D01*
X240Y488D02*
X1088Y488D01*
X1171Y488D02*
X1192Y488D01*
X50Y487D02*
X62Y487D01*
X103Y487D02*
X149Y487D01*
X240Y487D02*
X1087Y487D01*
X1172Y487D02*
X1192Y487D01*
X50Y486D02*
X60Y486D01*
X105Y486D02*
X149Y486D01*
X239Y486D02*
X815Y486D01*
X825Y486D02*
X1087Y486D01*
X1173Y486D02*
X1192Y486D01*
X50Y485D02*
X58Y485D01*
X107Y485D02*
X149Y485D01*
X239Y485D02*
X809Y485D01*
X831Y485D02*
X1086Y485D01*
X1173Y485D02*
X1192Y485D01*
X50Y484D02*
X56Y484D01*
X109Y484D02*
X150Y484D01*
X239Y484D02*
X806Y484D01*
X834Y484D02*
X1086Y484D01*
X1174Y484D02*
X1192Y484D01*
X50Y483D02*
X55Y483D01*
X110Y483D02*
X150Y483D01*
X238Y483D02*
X803Y483D01*
X837Y483D02*
X1085Y483D01*
X1174Y483D02*
X1192Y483D01*
X50Y482D02*
X54Y482D01*
X111Y482D02*
X150Y482D01*
X238Y482D02*
X800Y482D01*
X840Y482D02*
X1085Y482D01*
X1175Y482D02*
X1192Y482D01*
X113Y481D02*
X151Y481D01*
X238Y481D02*
X798Y481D01*
X842Y481D02*
X1084Y481D01*
X1175Y481D02*
X1192Y481D01*
X114Y480D02*
X151Y480D01*
X237Y480D02*
X796Y480D01*
X844Y480D02*
X1084Y480D01*
X1175Y480D02*
X1192Y480D01*
X115Y479D02*
X152Y479D01*
X237Y479D02*
X794Y479D01*
X846Y479D02*
X1083Y479D01*
X1176Y479D02*
X1192Y479D01*
X116Y478D02*
X152Y478D01*
X236Y478D02*
X793Y478D01*
X847Y478D02*
X1083Y478D01*
X1176Y478D02*
X1192Y478D01*
X117Y477D02*
X153Y477D01*
X236Y477D02*
X791Y477D01*
X849Y477D02*
X1083Y477D01*
X1176Y477D02*
X1192Y477D01*
X118Y476D02*
X153Y476D01*
X235Y476D02*
X790Y476D01*
X850Y476D02*
X1082Y476D01*
X1177Y476D02*
X1192Y476D01*
X119Y475D02*
X154Y475D01*
X234Y475D02*
X789Y475D01*
X851Y475D02*
X1082Y475D01*
X1177Y475D02*
X1192Y475D01*
X120Y474D02*
X155Y474D01*
X234Y474D02*
X788Y474D01*
X852Y474D02*
X1082Y474D01*
X1177Y474D02*
X1192Y474D01*
X120Y473D02*
X155Y473D01*
X233Y473D02*
X787Y473D01*
X854Y473D02*
X1081Y473D01*
X1178Y473D02*
X1192Y473D01*
X121Y472D02*
X156Y472D01*
X232Y472D02*
X785Y472D01*
X855Y472D02*
X1081Y472D01*
X1178Y472D02*
X1192Y472D01*
X122Y471D02*
X157Y471D01*
X232Y471D02*
X785Y471D01*
X855Y471D02*
X1081Y471D01*
X1178Y471D02*
X1192Y471D01*
X122Y470D02*
X158Y470D01*
X231Y470D02*
X784Y470D01*
X856Y470D02*
X1081Y470D01*
X1178Y470D02*
X1192Y470D01*
X123Y469D02*
X158Y469D01*
X230Y469D02*
X783Y469D01*
X857Y469D02*
X1081Y469D01*
X1178Y469D02*
X1192Y469D01*
X124Y468D02*
X159Y468D01*
X229Y468D02*
X782Y468D01*
X858Y468D02*
X1081Y468D01*
X1179Y468D02*
X1192Y468D01*
X124Y467D02*
X160Y467D01*
X228Y467D02*
X781Y467D01*
X859Y467D02*
X1080Y467D01*
X1179Y467D02*
X1192Y467D01*
X125Y466D02*
X161Y466D01*
X227Y466D02*
X781Y466D01*
X859Y466D02*
X1080Y466D01*
X1179Y466D02*
X1192Y466D01*
X125Y465D02*
X162Y465D01*
X226Y465D02*
X780Y465D01*
X860Y465D02*
X1080Y465D01*
X1179Y465D02*
X1192Y465D01*
X126Y464D02*
X163Y464D01*
X225Y464D02*
X779Y464D01*
X861Y464D02*
X1080Y464D01*
X1179Y464D02*
X1192Y464D01*
X126Y463D02*
X165Y463D01*
X224Y463D02*
X779Y463D01*
X861Y463D02*
X1080Y463D01*
X1179Y463D02*
X1192Y463D01*
X126Y462D02*
X166Y462D01*
X222Y462D02*
X778Y462D01*
X862Y462D02*
X1080Y462D01*
X1179Y462D02*
X1192Y462D01*
X127Y461D02*
X167Y461D01*
X221Y461D02*
X777Y461D01*
X862Y461D02*
X1080Y461D01*
X1179Y461D02*
X1192Y461D01*
X127Y460D02*
X169Y460D01*
X220Y460D02*
X693Y460D01*
X863Y460D02*
X1080Y460D01*
X1179Y460D02*
X1192Y460D01*
X127Y459D02*
X171Y459D01*
X218Y459D02*
X690Y459D01*
X863Y459D02*
X1080Y459D01*
X1179Y459D02*
X1192Y459D01*
X128Y458D02*
X173Y458D01*
X216Y458D02*
X688Y458D01*
X864Y458D02*
X1080Y458D01*
X1179Y458D02*
X1192Y458D01*
X128Y457D02*
X175Y457D01*
X214Y457D02*
X687Y457D01*
X864Y457D02*
X1080Y457D01*
X1179Y457D02*
X1192Y457D01*
X128Y456D02*
X177Y456D01*
X211Y456D02*
X685Y456D01*
X864Y456D02*
X1081Y456D01*
X1179Y456D02*
X1192Y456D01*
X129Y455D02*
X180Y455D01*
X208Y455D02*
X684Y455D01*
X865Y455D02*
X1081Y455D01*
X1178Y455D02*
X1192Y455D01*
X129Y454D02*
X183Y454D01*
X205Y454D02*
X683Y454D01*
X865Y454D02*
X1081Y454D01*
X1178Y454D02*
X1192Y454D01*
X129Y453D02*
X190Y453D01*
X198Y453D02*
X682Y453D01*
X865Y453D02*
X1081Y453D01*
X1178Y453D02*
X1192Y453D01*
X129Y452D02*
X682Y452D01*
X866Y452D02*
X1081Y452D01*
X1178Y452D02*
X1192Y452D01*
X129Y451D02*
X681Y451D01*
X866Y451D02*
X1082Y451D01*
X1178Y451D02*
X1192Y451D01*
X129Y450D02*
X680Y450D01*
X866Y450D02*
X1082Y450D01*
X1177Y450D02*
X1192Y450D01*
X130Y449D02*
X680Y449D01*
X867Y449D02*
X1082Y449D01*
X1177Y449D02*
X1192Y449D01*
X130Y448D02*
X679Y448D01*
X867Y448D02*
X1083Y448D01*
X1177Y448D02*
X1192Y448D01*
X130Y447D02*
X679Y447D01*
X867Y447D02*
X1083Y447D01*
X1176Y447D02*
X1192Y447D01*
X130Y446D02*
X679Y446D01*
X867Y446D02*
X1083Y446D01*
X1176Y446D02*
X1192Y446D01*
X130Y445D02*
X678Y445D01*
X867Y445D02*
X1084Y445D01*
X1176Y445D02*
X1192Y445D01*
X130Y444D02*
X678Y444D01*
X867Y444D02*
X1084Y444D01*
X1175Y444D02*
X1192Y444D01*
X130Y443D02*
X678Y443D01*
X868Y443D02*
X1084Y443D01*
X1175Y443D02*
X1192Y443D01*
X130Y442D02*
X678Y442D01*
X868Y442D02*
X1085Y442D01*
X1174Y442D02*
X1192Y442D01*
X130Y441D02*
X677Y441D01*
X868Y441D02*
X1085Y441D01*
X1174Y441D02*
X1192Y441D01*
X129Y440D02*
X677Y440D01*
X868Y440D02*
X1086Y440D01*
X1173Y440D02*
X1192Y440D01*
X129Y439D02*
X677Y439D01*
X868Y439D02*
X1086Y439D01*
X1173Y439D02*
X1192Y439D01*
X129Y438D02*
X677Y438D01*
X868Y438D02*
X1087Y438D01*
X1172Y438D02*
X1192Y438D01*
X129Y437D02*
X188Y437D01*
X200Y437D02*
X677Y437D01*
X868Y437D02*
X1087Y437D01*
X1172Y437D02*
X1192Y437D01*
X129Y436D02*
X183Y436D01*
X206Y436D02*
X677Y436D01*
X868Y436D02*
X1088Y436D01*
X1171Y436D02*
X1192Y436D01*
X129Y435D02*
X179Y435D01*
X209Y435D02*
X677Y435D01*
X868Y435D02*
X1089Y435D01*
X1171Y435D02*
X1192Y435D01*
X128Y434D02*
X176Y434D01*
X212Y434D02*
X677Y434D01*
X867Y434D02*
X1089Y434D01*
X1170Y434D02*
X1192Y434D01*
X128Y433D02*
X174Y433D01*
X214Y433D02*
X677Y433D01*
X867Y433D02*
X1090Y433D01*
X1169Y433D02*
X1192Y433D01*
X128Y432D02*
X172Y432D01*
X216Y432D02*
X677Y432D01*
X867Y432D02*
X1091Y432D01*
X1168Y432D02*
X1192Y432D01*
X128Y431D02*
X170Y431D01*
X218Y431D02*
X677Y431D01*
X867Y431D02*
X1092Y431D01*
X1167Y431D02*
X1192Y431D01*
X127Y430D02*
X169Y430D01*
X220Y430D02*
X677Y430D01*
X867Y430D02*
X1093Y430D01*
X1167Y430D02*
X1192Y430D01*
X127Y429D02*
X167Y429D01*
X222Y429D02*
X677Y429D01*
X867Y429D02*
X1093Y429D01*
X1166Y429D02*
X1192Y429D01*
X127Y428D02*
X166Y428D01*
X223Y428D02*
X677Y428D01*
X866Y428D02*
X1094Y428D01*
X1165Y428D02*
X1192Y428D01*
X126Y427D02*
X164Y427D01*
X224Y427D02*
X677Y427D01*
X866Y427D02*
X1095Y427D01*
X1164Y427D02*
X1192Y427D01*
X126Y426D02*
X163Y426D01*
X225Y426D02*
X677Y426D01*
X866Y426D02*
X1096Y426D01*
X1163Y426D02*
X1192Y426D01*
X125Y425D02*
X162Y425D01*
X227Y425D02*
X677Y425D01*
X865Y425D02*
X1098Y425D01*
X1162Y425D02*
X1192Y425D01*
X125Y424D02*
X161Y424D01*
X228Y424D02*
X677Y424D01*
X865Y424D02*
X1099Y424D01*
X1160Y424D02*
X1192Y424D01*
X124Y423D02*
X160Y423D01*
X229Y423D02*
X677Y423D01*
X865Y423D02*
X1100Y423D01*
X1159Y423D02*
X1192Y423D01*
X32Y422D02*
X41Y422D01*
X124Y422D02*
X159Y422D01*
X229Y422D02*
X677Y422D01*
X865Y422D02*
X1102Y422D01*
X1158Y422D02*
X1192Y422D01*
X31Y421D02*
X42Y421D01*
X123Y421D02*
X158Y421D01*
X230Y421D02*
X677Y421D01*
X864Y421D02*
X1103Y421D01*
X1156Y421D02*
X1192Y421D01*
X31Y420D02*
X42Y420D01*
X123Y420D02*
X157Y420D01*
X231Y420D02*
X677Y420D01*
X864Y420D02*
X1105Y420D01*
X1154Y420D02*
X1192Y420D01*
X31Y419D02*
X43Y419D01*
X122Y419D02*
X157Y419D01*
X232Y419D02*
X677Y419D01*
X863Y419D02*
X1107Y419D01*
X1152Y419D02*
X1192Y419D01*
X31Y418D02*
X44Y418D01*
X121Y418D02*
X156Y418D01*
X233Y418D02*
X677Y418D01*
X863Y418D02*
X1109Y418D01*
X1150Y418D02*
X1192Y418D01*
X31Y417D02*
X45Y417D01*
X121Y417D02*
X155Y417D01*
X233Y417D02*
X677Y417D01*
X725Y417D02*
X731Y417D01*
X862Y417D02*
X1111Y417D01*
X1148Y417D02*
X1192Y417D01*
X31Y416D02*
X45Y416D01*
X120Y416D02*
X154Y416D01*
X234Y416D02*
X677Y416D01*
X723Y416D02*
X778Y416D01*
X862Y416D02*
X1114Y416D01*
X1145Y416D02*
X1192Y416D01*
X31Y415D02*
X46Y415D01*
X119Y415D02*
X154Y415D01*
X235Y415D02*
X677Y415D01*
X722Y415D02*
X779Y415D01*
X861Y415D02*
X1117Y415D01*
X1142Y415D02*
X1192Y415D01*
X31Y414D02*
X47Y414D01*
X118Y414D02*
X153Y414D01*
X235Y414D02*
X677Y414D01*
X722Y414D02*
X779Y414D01*
X861Y414D02*
X1119Y414D01*
X1140Y414D02*
X1192Y414D01*
X31Y413D02*
X48Y413D01*
X117Y413D02*
X153Y413D01*
X236Y413D02*
X677Y413D01*
X722Y413D02*
X780Y413D01*
X860Y413D02*
X1120Y413D01*
X1139Y413D02*
X1192Y413D01*
X31Y412D02*
X49Y412D01*
X116Y412D02*
X152Y412D01*
X236Y412D02*
X677Y412D01*
X722Y412D02*
X781Y412D01*
X859Y412D02*
X1120Y412D01*
X1139Y412D02*
X1192Y412D01*
X31Y411D02*
X50Y411D01*
X115Y411D02*
X152Y411D01*
X237Y411D02*
X677Y411D01*
X722Y411D02*
X781Y411D01*
X859Y411D02*
X1120Y411D01*
X1140Y411D02*
X1192Y411D01*
X31Y410D02*
X51Y410D01*
X114Y410D02*
X151Y410D01*
X237Y410D02*
X677Y410D01*
X722Y410D02*
X782Y410D01*
X858Y410D02*
X1118Y410D01*
X1141Y410D02*
X1192Y410D01*
X31Y409D02*
X52Y409D01*
X113Y409D02*
X151Y409D01*
X238Y409D02*
X677Y409D01*
X722Y409D02*
X783Y409D01*
X857Y409D02*
X1115Y409D01*
X1144Y409D02*
X1192Y409D01*
X31Y408D02*
X53Y408D01*
X112Y408D02*
X150Y408D01*
X238Y408D02*
X677Y408D01*
X722Y408D02*
X784Y408D01*
X856Y408D02*
X1112Y408D01*
X1147Y408D02*
X1192Y408D01*
X31Y407D02*
X55Y407D01*
X110Y407D02*
X150Y407D01*
X238Y407D02*
X677Y407D01*
X722Y407D02*
X785Y407D01*
X855Y407D02*
X1110Y407D01*
X1150Y407D02*
X1192Y407D01*
X31Y406D02*
X56Y406D01*
X109Y406D02*
X150Y406D01*
X239Y406D02*
X677Y406D01*
X722Y406D02*
X785Y406D01*
X855Y406D02*
X1108Y406D01*
X1151Y406D02*
X1192Y406D01*
X31Y405D02*
X58Y405D01*
X107Y405D02*
X149Y405D01*
X239Y405D02*
X677Y405D01*
X722Y405D02*
X786Y405D01*
X854Y405D02*
X1106Y405D01*
X1153Y405D02*
X1192Y405D01*
X31Y404D02*
X60Y404D01*
X105Y404D02*
X149Y404D01*
X239Y404D02*
X677Y404D01*
X722Y404D02*
X788Y404D01*
X852Y404D02*
X1104Y404D01*
X1155Y404D02*
X1192Y404D01*
X31Y403D02*
X61Y403D01*
X103Y403D02*
X149Y403D01*
X240Y403D02*
X677Y403D01*
X722Y403D02*
X789Y403D01*
X851Y403D02*
X1102Y403D01*
X1157Y403D02*
X1192Y403D01*
X31Y402D02*
X63Y402D01*
X102Y402D02*
X148Y402D01*
X240Y402D02*
X677Y402D01*
X722Y402D02*
X790Y402D01*
X850Y402D02*
X1101Y402D01*
X1158Y402D02*
X1192Y402D01*
X31Y401D02*
X66Y401D01*
X99Y401D02*
X148Y401D01*
X240Y401D02*
X677Y401D01*
X722Y401D02*
X791Y401D01*
X849Y401D02*
X1099Y401D01*
X1160Y401D02*
X1192Y401D01*
X31Y400D02*
X69Y400D01*
X96Y400D02*
X148Y400D01*
X241Y400D02*
X677Y400D01*
X722Y400D02*
X793Y400D01*
X847Y400D02*
X1098Y400D01*
X1161Y400D02*
X1192Y400D01*
X31Y399D02*
X73Y399D01*
X92Y399D02*
X148Y399D01*
X241Y399D02*
X677Y399D01*
X722Y399D02*
X794Y399D01*
X846Y399D02*
X1097Y399D01*
X1162Y399D02*
X1192Y399D01*
X31Y398D02*
X81Y398D01*
X83Y398D02*
X148Y398D01*
X241Y398D02*
X677Y398D01*
X722Y398D02*
X796Y398D01*
X844Y398D02*
X1096Y398D01*
X1164Y398D02*
X1192Y398D01*
X31Y397D02*
X147Y397D01*
X241Y397D02*
X677Y397D01*
X722Y397D02*
X798Y397D01*
X842Y397D02*
X1095Y397D01*
X1165Y397D02*
X1192Y397D01*
X31Y396D02*
X147Y396D01*
X241Y396D02*
X677Y396D01*
X722Y396D02*
X800Y396D01*
X840Y396D02*
X1094Y396D01*
X1166Y396D02*
X1192Y396D01*
X31Y395D02*
X147Y395D01*
X241Y395D02*
X677Y395D01*
X722Y395D02*
X802Y395D01*
X838Y395D02*
X1093Y395D01*
X1166Y395D02*
X1192Y395D01*
X31Y394D02*
X147Y394D01*
X241Y394D02*
X677Y394D01*
X722Y394D02*
X806Y394D01*
X835Y394D02*
X1092Y394D01*
X1167Y394D02*
X1192Y394D01*
X31Y393D02*
X147Y393D01*
X241Y393D02*
X677Y393D01*
X722Y393D02*
X809Y393D01*
X831Y393D02*
X1091Y393D01*
X1168Y393D02*
X1192Y393D01*
X31Y392D02*
X147Y392D01*
X242Y392D02*
X677Y392D01*
X722Y392D02*
X815Y392D01*
X825Y392D02*
X1090Y392D01*
X1169Y392D02*
X1192Y392D01*
X31Y391D02*
X147Y391D01*
X242Y391D02*
X677Y391D01*
X722Y391D02*
X1090Y391D01*
X1170Y391D02*
X1192Y391D01*
X31Y390D02*
X147Y390D01*
X242Y390D02*
X677Y390D01*
X722Y390D02*
X1089Y390D01*
X1170Y390D02*
X1192Y390D01*
X31Y389D02*
X147Y389D01*
X242Y389D02*
X677Y389D01*
X722Y389D02*
X1088Y389D01*
X1171Y389D02*
X1192Y389D01*
X31Y388D02*
X147Y388D01*
X241Y388D02*
X677Y388D01*
X722Y388D02*
X1088Y388D01*
X1171Y388D02*
X1192Y388D01*
X31Y387D02*
X147Y387D01*
X241Y387D02*
X677Y387D01*
X722Y387D02*
X1087Y387D01*
X1172Y387D02*
X1192Y387D01*
X31Y386D02*
X147Y386D01*
X241Y386D02*
X677Y386D01*
X722Y386D02*
X815Y386D01*
X826Y386D02*
X1087Y386D01*
X1173Y386D02*
X1192Y386D01*
X31Y385D02*
X147Y385D01*
X241Y385D02*
X677Y385D01*
X722Y385D02*
X809Y385D01*
X831Y385D02*
X1086Y385D01*
X1173Y385D02*
X1192Y385D01*
X31Y384D02*
X147Y384D01*
X241Y384D02*
X677Y384D01*
X722Y384D02*
X805Y384D01*
X835Y384D02*
X1086Y384D01*
X1174Y384D02*
X1192Y384D01*
X31Y383D02*
X80Y383D01*
X86Y383D02*
X148Y383D01*
X241Y383D02*
X677Y383D01*
X722Y383D02*
X802Y383D01*
X838Y383D02*
X1085Y383D01*
X1174Y383D02*
X1192Y383D01*
X31Y382D02*
X72Y382D01*
X93Y382D02*
X148Y382D01*
X241Y382D02*
X677Y382D01*
X722Y382D02*
X800Y382D01*
X840Y382D02*
X1085Y382D01*
X1175Y382D02*
X1192Y382D01*
X31Y381D02*
X69Y381D01*
X96Y381D02*
X148Y381D01*
X241Y381D02*
X677Y381D01*
X722Y381D02*
X798Y381D01*
X842Y381D02*
X1084Y381D01*
X1175Y381D02*
X1192Y381D01*
X31Y380D02*
X66Y380D01*
X100Y380D02*
X148Y380D01*
X240Y380D02*
X677Y380D01*
X722Y380D02*
X796Y380D01*
X844Y380D02*
X1084Y380D01*
X1175Y380D02*
X1192Y380D01*
X31Y379D02*
X63Y379D01*
X102Y379D02*
X148Y379D01*
X240Y379D02*
X677Y379D01*
X722Y379D02*
X794Y379D01*
X846Y379D02*
X1083Y379D01*
X1176Y379D02*
X1192Y379D01*
X31Y378D02*
X61Y378D01*
X104Y378D02*
X149Y378D01*
X240Y378D02*
X677Y378D01*
X722Y378D02*
X793Y378D01*
X847Y378D02*
X1083Y378D01*
X1176Y378D02*
X1192Y378D01*
X31Y377D02*
X59Y377D01*
X106Y377D02*
X149Y377D01*
X239Y377D02*
X677Y377D01*
X722Y377D02*
X791Y377D01*
X849Y377D02*
X1083Y377D01*
X1176Y377D02*
X1192Y377D01*
X31Y376D02*
X57Y376D01*
X108Y376D02*
X149Y376D01*
X239Y376D02*
X677Y376D01*
X722Y376D02*
X790Y376D01*
X850Y376D02*
X1082Y376D01*
X1177Y376D02*
X1192Y376D01*
X31Y375D02*
X56Y375D01*
X109Y375D02*
X150Y375D01*
X239Y375D02*
X677Y375D01*
X722Y375D02*
X789Y375D01*
X851Y375D02*
X1082Y375D01*
X1177Y375D02*
X1192Y375D01*
X31Y374D02*
X54Y374D01*
X111Y374D02*
X150Y374D01*
X238Y374D02*
X677Y374D01*
X722Y374D02*
X788Y374D01*
X852Y374D02*
X1082Y374D01*
X1177Y374D02*
X1192Y374D01*
X31Y373D02*
X53Y373D01*
X112Y373D02*
X150Y373D01*
X238Y373D02*
X677Y373D01*
X722Y373D02*
X786Y373D01*
X854Y373D02*
X1081Y373D01*
X1178Y373D02*
X1192Y373D01*
X31Y372D02*
X52Y372D01*
X113Y372D02*
X151Y372D01*
X238Y372D02*
X677Y372D01*
X722Y372D02*
X785Y372D01*
X855Y372D02*
X1081Y372D01*
X1178Y372D02*
X1192Y372D01*
X31Y371D02*
X51Y371D01*
X114Y371D02*
X151Y371D01*
X237Y371D02*
X677Y371D01*
X722Y371D02*
X785Y371D01*
X855Y371D02*
X1081Y371D01*
X1178Y371D02*
X1192Y371D01*
X31Y370D02*
X49Y370D01*
X116Y370D02*
X152Y370D01*
X237Y370D02*
X677Y370D01*
X722Y370D02*
X784Y370D01*
X856Y370D02*
X1081Y370D01*
X1178Y370D02*
X1192Y370D01*
X31Y369D02*
X48Y369D01*
X117Y369D02*
X152Y369D01*
X236Y369D02*
X677Y369D01*
X722Y369D02*
X783Y369D01*
X857Y369D02*
X1081Y369D01*
X1179Y369D02*
X1192Y369D01*
X31Y368D02*
X48Y368D01*
X117Y368D02*
X153Y368D01*
X236Y368D02*
X677Y368D01*
X722Y368D02*
X782Y368D01*
X858Y368D02*
X1081Y368D01*
X1179Y368D02*
X1192Y368D01*
X31Y367D02*
X47Y367D01*
X118Y367D02*
X153Y367D01*
X235Y367D02*
X677Y367D01*
X722Y367D02*
X781Y367D01*
X859Y367D02*
X1080Y367D01*
X1179Y367D02*
X1192Y367D01*
X31Y366D02*
X46Y366D01*
X119Y366D02*
X154Y366D01*
X234Y366D02*
X677Y366D01*
X722Y366D02*
X781Y366D01*
X859Y366D02*
X1080Y366D01*
X1179Y366D02*
X1192Y366D01*
X31Y365D02*
X45Y365D01*
X120Y365D02*
X155Y365D01*
X234Y365D02*
X677Y365D01*
X722Y365D02*
X780Y365D01*
X860Y365D02*
X1080Y365D01*
X1179Y365D02*
X1192Y365D01*
X31Y364D02*
X44Y364D01*
X121Y364D02*
X155Y364D01*
X233Y364D02*
X677Y364D01*
X722Y364D02*
X779Y364D01*
X861Y364D02*
X1080Y364D01*
X1179Y364D02*
X1192Y364D01*
X31Y363D02*
X43Y363D01*
X121Y363D02*
X156Y363D01*
X232Y363D02*
X677Y363D01*
X722Y363D02*
X779Y363D01*
X861Y363D02*
X1080Y363D01*
X1179Y363D02*
X1192Y363D01*
X31Y362D02*
X43Y362D01*
X122Y362D02*
X157Y362D01*
X232Y362D02*
X677Y362D01*
X722Y362D02*
X778Y362D01*
X862Y362D02*
X1080Y362D01*
X1179Y362D02*
X1192Y362D01*
X31Y361D02*
X42Y361D01*
X123Y361D02*
X158Y361D01*
X231Y361D02*
X677Y361D01*
X722Y361D02*
X778Y361D01*
X862Y361D02*
X1080Y361D01*
X1179Y361D02*
X1192Y361D01*
X31Y360D02*
X42Y360D01*
X123Y360D02*
X158Y360D01*
X230Y360D02*
X677Y360D01*
X722Y360D02*
X777Y360D01*
X863Y360D02*
X1080Y360D01*
X1179Y360D02*
X1192Y360D01*
X31Y359D02*
X41Y359D01*
X124Y359D02*
X159Y359D01*
X229Y359D02*
X677Y359D01*
X722Y359D02*
X777Y359D01*
X863Y359D02*
X1080Y359D01*
X1179Y359D02*
X1192Y359D01*
X31Y358D02*
X41Y358D01*
X124Y358D02*
X160Y358D01*
X228Y358D02*
X677Y358D01*
X722Y358D02*
X776Y358D01*
X864Y358D02*
X1080Y358D01*
X1179Y358D02*
X1192Y358D01*
X31Y357D02*
X40Y357D01*
X125Y357D02*
X161Y357D01*
X227Y357D02*
X677Y357D01*
X722Y357D02*
X776Y357D01*
X864Y357D02*
X1080Y357D01*
X1179Y357D02*
X1192Y357D01*
X31Y356D02*
X40Y356D01*
X125Y356D02*
X162Y356D01*
X226Y356D02*
X677Y356D01*
X722Y356D02*
X775Y356D01*
X865Y356D02*
X1081Y356D01*
X1179Y356D02*
X1192Y356D01*
X31Y355D02*
X39Y355D01*
X126Y355D02*
X163Y355D01*
X225Y355D02*
X677Y355D01*
X722Y355D02*
X775Y355D01*
X865Y355D02*
X1081Y355D01*
X1178Y355D02*
X1192Y355D01*
X31Y354D02*
X39Y354D01*
X126Y354D02*
X165Y354D01*
X224Y354D02*
X677Y354D01*
X722Y354D02*
X775Y354D01*
X865Y354D02*
X1081Y354D01*
X1178Y354D02*
X1192Y354D01*
X31Y353D02*
X38Y353D01*
X127Y353D02*
X166Y353D01*
X222Y353D02*
X677Y353D01*
X722Y353D02*
X774Y353D01*
X866Y353D02*
X1081Y353D01*
X1178Y353D02*
X1192Y353D01*
X31Y352D02*
X38Y352D01*
X127Y352D02*
X167Y352D01*
X221Y352D02*
X677Y352D01*
X722Y352D02*
X774Y352D01*
X866Y352D02*
X1081Y352D01*
X1178Y352D02*
X1192Y352D01*
X31Y351D02*
X38Y351D01*
X127Y351D02*
X169Y351D01*
X220Y351D02*
X677Y351D01*
X722Y351D02*
X774Y351D01*
X866Y351D02*
X1082Y351D01*
X1178Y351D02*
X1192Y351D01*
X31Y350D02*
X37Y350D01*
X128Y350D02*
X171Y350D01*
X218Y350D02*
X677Y350D01*
X722Y350D02*
X774Y350D01*
X867Y350D02*
X1082Y350D01*
X1177Y350D02*
X1192Y350D01*
X31Y349D02*
X37Y349D01*
X128Y349D02*
X173Y349D01*
X216Y349D02*
X677Y349D01*
X722Y349D02*
X773Y349D01*
X867Y349D02*
X1082Y349D01*
X1177Y349D02*
X1192Y349D01*
X31Y348D02*
X37Y348D01*
X128Y348D02*
X175Y348D01*
X214Y348D02*
X677Y348D01*
X722Y348D02*
X773Y348D01*
X867Y348D02*
X1083Y348D01*
X1177Y348D02*
X1192Y348D01*
X31Y347D02*
X36Y347D01*
X129Y347D02*
X177Y347D01*
X211Y347D02*
X677Y347D01*
X722Y347D02*
X773Y347D01*
X867Y347D02*
X1083Y347D01*
X1176Y347D02*
X1192Y347D01*
X31Y346D02*
X36Y346D01*
X129Y346D02*
X180Y346D01*
X208Y346D02*
X677Y346D01*
X722Y346D02*
X773Y346D01*
X867Y346D02*
X1083Y346D01*
X1176Y346D02*
X1192Y346D01*
X31Y345D02*
X36Y345D01*
X129Y345D02*
X183Y345D01*
X205Y345D02*
X677Y345D01*
X722Y345D02*
X773Y345D01*
X867Y345D02*
X1084Y345D01*
X1176Y345D02*
X1192Y345D01*
X31Y344D02*
X36Y344D01*
X129Y344D02*
X190Y344D01*
X198Y344D02*
X677Y344D01*
X722Y344D02*
X773Y344D01*
X867Y344D02*
X1084Y344D01*
X1175Y344D02*
X1192Y344D01*
X31Y343D02*
X36Y343D01*
X129Y343D02*
X677Y343D01*
X722Y343D02*
X772Y343D01*
X868Y343D02*
X1084Y343D01*
X1175Y343D02*
X1192Y343D01*
X31Y342D02*
X36Y342D01*
X129Y342D02*
X677Y342D01*
X722Y342D02*
X772Y342D01*
X868Y342D02*
X1085Y342D01*
X1174Y342D02*
X1192Y342D01*
X31Y341D02*
X35Y341D01*
X129Y341D02*
X677Y341D01*
X722Y341D02*
X772Y341D01*
X868Y341D02*
X1085Y341D01*
X1174Y341D02*
X1192Y341D01*
X31Y340D02*
X35Y340D01*
X130Y340D02*
X677Y340D01*
X722Y340D02*
X772Y340D01*
X868Y340D02*
X1086Y340D01*
X1173Y340D02*
X1192Y340D01*
X31Y339D02*
X35Y339D01*
X130Y339D02*
X677Y339D01*
X722Y339D02*
X772Y339D01*
X868Y339D02*
X1086Y339D01*
X1173Y339D02*
X1192Y339D01*
X31Y338D02*
X35Y338D01*
X130Y338D02*
X677Y338D01*
X722Y338D02*
X772Y338D01*
X868Y338D02*
X1087Y338D01*
X1172Y338D02*
X1192Y338D01*
X31Y337D02*
X35Y337D01*
X130Y337D02*
X677Y337D01*
X722Y337D02*
X772Y337D01*
X868Y337D02*
X1087Y337D01*
X1172Y337D02*
X1192Y337D01*
X31Y336D02*
X35Y336D01*
X130Y336D02*
X677Y336D01*
X722Y336D02*
X772Y336D01*
X868Y336D02*
X1088Y336D01*
X1171Y336D02*
X1192Y336D01*
X31Y335D02*
X35Y335D01*
X130Y335D02*
X677Y335D01*
X722Y335D02*
X772Y335D01*
X868Y335D02*
X1089Y335D01*
X1171Y335D02*
X1192Y335D01*
X31Y334D02*
X35Y334D01*
X130Y334D02*
X677Y334D01*
X722Y334D02*
X773Y334D01*
X867Y334D02*
X1089Y334D01*
X1170Y334D02*
X1192Y334D01*
X31Y333D02*
X35Y333D01*
X130Y333D02*
X677Y333D01*
X722Y333D02*
X773Y333D01*
X867Y333D02*
X1090Y333D01*
X1169Y333D02*
X1192Y333D01*
X31Y332D02*
X35Y332D01*
X130Y332D02*
X677Y332D01*
X722Y332D02*
X773Y332D01*
X867Y332D02*
X1091Y332D01*
X1168Y332D02*
X1192Y332D01*
X31Y331D02*
X36Y331D01*
X129Y331D02*
X421Y331D01*
X428Y331D02*
X586Y331D01*
X593Y331D02*
X677Y331D01*
X722Y331D02*
X773Y331D01*
X867Y331D02*
X1092Y331D01*
X1167Y331D02*
X1192Y331D01*
X31Y330D02*
X36Y330D01*
X129Y330D02*
X414Y330D01*
X436Y330D02*
X579Y330D01*
X600Y330D02*
X677Y330D01*
X722Y330D02*
X773Y330D01*
X867Y330D02*
X1093Y330D01*
X1167Y330D02*
X1192Y330D01*
X31Y329D02*
X36Y329D01*
X129Y329D02*
X411Y329D01*
X439Y329D02*
X576Y329D01*
X604Y329D02*
X677Y329D01*
X722Y329D02*
X773Y329D01*
X867Y329D02*
X1093Y329D01*
X1166Y329D02*
X1192Y329D01*
X31Y328D02*
X36Y328D01*
X129Y328D02*
X188Y328D01*
X200Y328D02*
X408Y328D01*
X442Y328D02*
X573Y328D01*
X607Y328D02*
X677Y328D01*
X722Y328D02*
X774Y328D01*
X866Y328D02*
X1094Y328D01*
X1165Y328D02*
X1192Y328D01*
X31Y327D02*
X36Y327D01*
X129Y327D02*
X183Y327D01*
X206Y327D02*
X405Y327D01*
X444Y327D02*
X570Y327D01*
X609Y327D02*
X677Y327D01*
X722Y327D02*
X774Y327D01*
X866Y327D02*
X1095Y327D01*
X1164Y327D02*
X1192Y327D01*
X31Y326D02*
X36Y326D01*
X129Y326D02*
X179Y326D01*
X209Y326D02*
X403Y326D01*
X446Y326D02*
X568Y326D01*
X611Y326D02*
X677Y326D01*
X722Y326D02*
X774Y326D01*
X866Y326D02*
X1097Y326D01*
X1163Y326D02*
X1192Y326D01*
X31Y325D02*
X37Y325D01*
X128Y325D02*
X176Y325D01*
X212Y325D02*
X402Y325D01*
X448Y325D02*
X566Y325D01*
X613Y325D02*
X677Y325D01*
X722Y325D02*
X775Y325D01*
X865Y325D02*
X1098Y325D01*
X1161Y325D02*
X1192Y325D01*
X31Y324D02*
X37Y324D01*
X128Y324D02*
X174Y324D01*
X214Y324D02*
X400Y324D01*
X450Y324D02*
X565Y324D01*
X615Y324D02*
X677Y324D01*
X722Y324D02*
X775Y324D01*
X865Y324D02*
X1099Y324D01*
X1160Y324D02*
X1192Y324D01*
X31Y323D02*
X37Y323D01*
X128Y323D02*
X172Y323D01*
X216Y323D02*
X398Y323D01*
X452Y323D02*
X563Y323D01*
X617Y323D02*
X677Y323D01*
X722Y323D02*
X775Y323D01*
X865Y323D02*
X1100Y323D01*
X1159Y323D02*
X1192Y323D01*
X31Y322D02*
X38Y322D01*
X127Y322D02*
X170Y322D01*
X218Y322D02*
X397Y322D01*
X453Y322D02*
X561Y322D01*
X618Y322D02*
X677Y322D01*
X722Y322D02*
X775Y322D01*
X864Y322D02*
X1102Y322D01*
X1158Y322D02*
X1192Y322D01*
X31Y321D02*
X38Y321D01*
X127Y321D02*
X169Y321D01*
X220Y321D02*
X395Y321D01*
X454Y321D02*
X560Y321D01*
X619Y321D02*
X677Y321D01*
X722Y321D02*
X776Y321D01*
X864Y321D02*
X1103Y321D01*
X1156Y321D02*
X1192Y321D01*
X31Y320D02*
X38Y320D01*
X127Y320D02*
X167Y320D01*
X222Y320D02*
X394Y320D01*
X456Y320D02*
X559Y320D01*
X620Y320D02*
X677Y320D01*
X722Y320D02*
X776Y320D01*
X864Y320D02*
X1105Y320D01*
X1154Y320D02*
X1192Y320D01*
X31Y319D02*
X39Y319D01*
X126Y319D02*
X166Y319D01*
X223Y319D02*
X393Y319D01*
X457Y319D02*
X558Y319D01*
X622Y319D02*
X677Y319D01*
X722Y319D02*
X777Y319D01*
X863Y319D02*
X1107Y319D01*
X1152Y319D02*
X1192Y319D01*
X31Y318D02*
X39Y318D01*
X126Y318D02*
X164Y318D01*
X224Y318D02*
X392Y318D01*
X458Y318D02*
X557Y318D01*
X623Y318D02*
X677Y318D01*
X722Y318D02*
X777Y318D01*
X863Y318D02*
X1109Y318D01*
X1150Y318D02*
X1192Y318D01*
X31Y317D02*
X39Y317D01*
X126Y317D02*
X163Y317D01*
X225Y317D02*
X391Y317D01*
X459Y317D02*
X556Y317D01*
X624Y317D02*
X677Y317D01*
X722Y317D02*
X778Y317D01*
X862Y317D02*
X1111Y317D01*
X1148Y317D02*
X1192Y317D01*
X31Y316D02*
X40Y316D01*
X125Y316D02*
X162Y316D01*
X227Y316D02*
X390Y316D01*
X460Y316D02*
X555Y316D01*
X625Y316D02*
X677Y316D01*
X722Y316D02*
X778Y316D01*
X862Y316D02*
X1114Y316D01*
X1145Y316D02*
X1192Y316D01*
X31Y315D02*
X40Y315D01*
X124Y315D02*
X161Y315D01*
X228Y315D02*
X389Y315D01*
X461Y315D02*
X554Y315D01*
X626Y315D02*
X677Y315D01*
X722Y315D02*
X779Y315D01*
X861Y315D02*
X1115Y315D01*
X1144Y315D02*
X1192Y315D01*
X31Y314D02*
X41Y314D01*
X124Y314D02*
X160Y314D01*
X229Y314D02*
X388Y314D01*
X461Y314D02*
X553Y314D01*
X626Y314D02*
X677Y314D01*
X722Y314D02*
X779Y314D01*
X861Y314D02*
X1115Y314D01*
X1144Y314D02*
X1192Y314D01*
X31Y313D02*
X42Y313D01*
X123Y313D02*
X159Y313D01*
X229Y313D02*
X387Y313D01*
X462Y313D02*
X552Y313D01*
X627Y313D02*
X677Y313D01*
X722Y313D02*
X780Y313D01*
X860Y313D02*
X1115Y313D01*
X1144Y313D02*
X1192Y313D01*
X31Y312D02*
X42Y312D01*
X123Y312D02*
X158Y312D01*
X230Y312D02*
X387Y312D01*
X463Y312D02*
X552Y312D01*
X628Y312D02*
X677Y312D01*
X722Y312D02*
X781Y312D01*
X859Y312D02*
X1114Y312D01*
X1145Y312D02*
X1192Y312D01*
X31Y311D02*
X43Y311D01*
X122Y311D02*
X157Y311D01*
X231Y311D02*
X386Y311D01*
X464Y311D02*
X551Y311D01*
X629Y311D02*
X677Y311D01*
X722Y311D02*
X781Y311D01*
X859Y311D02*
X1088Y311D01*
X1172Y311D02*
X1192Y311D01*
X31Y310D02*
X43Y310D01*
X122Y310D02*
X157Y310D01*
X232Y310D02*
X385Y310D01*
X464Y310D02*
X550Y310D01*
X629Y310D02*
X677Y310D01*
X722Y310D02*
X782Y310D01*
X858Y310D02*
X1085Y310D01*
X1174Y310D02*
X1192Y310D01*
X31Y309D02*
X44Y309D01*
X121Y309D02*
X156Y309D01*
X233Y309D02*
X385Y309D01*
X465Y309D02*
X550Y309D01*
X630Y309D02*
X677Y309D01*
X722Y309D02*
X783Y309D01*
X857Y309D02*
X1084Y309D01*
X1176Y309D02*
X1192Y309D01*
X31Y308D02*
X45Y308D01*
X120Y308D02*
X155Y308D01*
X233Y308D02*
X384Y308D01*
X466Y308D02*
X549Y308D01*
X630Y308D02*
X677Y308D01*
X722Y308D02*
X784Y308D01*
X856Y308D02*
X1083Y308D01*
X1177Y308D02*
X1192Y308D01*
X31Y307D02*
X46Y307D01*
X119Y307D02*
X154Y307D01*
X234Y307D02*
X384Y307D01*
X466Y307D02*
X548Y307D01*
X631Y307D02*
X677Y307D01*
X722Y307D02*
X785Y307D01*
X855Y307D02*
X1082Y307D01*
X1177Y307D02*
X1192Y307D01*
X31Y306D02*
X46Y306D01*
X119Y306D02*
X154Y306D01*
X235Y306D02*
X383Y306D01*
X467Y306D02*
X548Y306D01*
X632Y306D02*
X677Y306D01*
X722Y306D02*
X785Y306D01*
X855Y306D02*
X1081Y306D01*
X1178Y306D02*
X1192Y306D01*
X31Y305D02*
X47Y305D01*
X118Y305D02*
X153Y305D01*
X235Y305D02*
X383Y305D01*
X467Y305D02*
X547Y305D01*
X632Y305D02*
X677Y305D01*
X722Y305D02*
X786Y305D01*
X854Y305D02*
X1081Y305D01*
X1178Y305D02*
X1192Y305D01*
X31Y304D02*
X48Y304D01*
X117Y304D02*
X153Y304D01*
X236Y304D02*
X382Y304D01*
X468Y304D02*
X547Y304D01*
X633Y304D02*
X677Y304D01*
X722Y304D02*
X788Y304D01*
X852Y304D02*
X1081Y304D01*
X1179Y304D02*
X1192Y304D01*
X31Y303D02*
X49Y303D01*
X116Y303D02*
X152Y303D01*
X236Y303D02*
X381Y303D01*
X468Y303D02*
X546Y303D01*
X633Y303D02*
X677Y303D01*
X722Y303D02*
X789Y303D01*
X851Y303D02*
X1080Y303D01*
X1179Y303D02*
X1192Y303D01*
X31Y302D02*
X50Y302D01*
X115Y302D02*
X152Y302D01*
X237Y302D02*
X381Y302D01*
X469Y302D02*
X546Y302D01*
X633Y302D02*
X677Y302D01*
X722Y302D02*
X790Y302D01*
X850Y302D02*
X1080Y302D01*
X1179Y302D02*
X1192Y302D01*
X31Y301D02*
X51Y301D01*
X114Y301D02*
X151Y301D01*
X237Y301D02*
X381Y301D01*
X469Y301D02*
X546Y301D01*
X634Y301D02*
X677Y301D01*
X722Y301D02*
X791Y301D01*
X849Y301D02*
X1080Y301D01*
X1179Y301D02*
X1192Y301D01*
X31Y300D02*
X53Y300D01*
X112Y300D02*
X151Y300D01*
X238Y300D02*
X380Y300D01*
X469Y300D02*
X545Y300D01*
X634Y300D02*
X677Y300D01*
X722Y300D02*
X793Y300D01*
X847Y300D02*
X1080Y300D01*
X1179Y300D02*
X1192Y300D01*
X31Y299D02*
X54Y299D01*
X111Y299D02*
X150Y299D01*
X238Y299D02*
X380Y299D01*
X470Y299D02*
X545Y299D01*
X634Y299D02*
X677Y299D01*
X722Y299D02*
X794Y299D01*
X846Y299D02*
X1080Y299D01*
X1179Y299D02*
X1192Y299D01*
X31Y298D02*
X55Y298D01*
X110Y298D02*
X150Y298D01*
X238Y298D02*
X380Y298D01*
X470Y298D02*
X545Y298D01*
X635Y298D02*
X677Y298D01*
X722Y298D02*
X796Y298D01*
X844Y298D02*
X1080Y298D01*
X1179Y298D02*
X1192Y298D01*
X31Y297D02*
X57Y297D01*
X108Y297D02*
X150Y297D01*
X239Y297D02*
X379Y297D01*
X470Y297D02*
X544Y297D01*
X635Y297D02*
X677Y297D01*
X722Y297D02*
X798Y297D01*
X842Y297D02*
X1080Y297D01*
X1179Y297D02*
X1192Y297D01*
X31Y296D02*
X58Y296D01*
X107Y296D02*
X149Y296D01*
X239Y296D02*
X379Y296D01*
X471Y296D02*
X544Y296D01*
X635Y296D02*
X677Y296D01*
X722Y296D02*
X800Y296D01*
X840Y296D02*
X1080Y296D01*
X1179Y296D02*
X1192Y296D01*
X31Y295D02*
X60Y295D01*
X105Y295D02*
X149Y295D01*
X239Y295D02*
X379Y295D01*
X471Y295D02*
X544Y295D01*
X636Y295D02*
X677Y295D01*
X722Y295D02*
X803Y295D01*
X837Y295D02*
X1080Y295D01*
X1179Y295D02*
X1192Y295D01*
X31Y294D02*
X62Y294D01*
X103Y294D02*
X149Y294D01*
X240Y294D02*
X379Y294D01*
X471Y294D02*
X543Y294D01*
X636Y294D02*
X677Y294D01*
X722Y294D02*
X806Y294D01*
X834Y294D02*
X1080Y294D01*
X1179Y294D02*
X1192Y294D01*
X31Y293D02*
X64Y293D01*
X101Y293D02*
X148Y293D01*
X240Y293D02*
X378Y293D01*
X471Y293D02*
X543Y293D01*
X636Y293D02*
X677Y293D01*
X722Y293D02*
X809Y293D01*
X831Y293D02*
X1080Y293D01*
X1179Y293D02*
X1192Y293D01*
X31Y292D02*
X67Y292D01*
X98Y292D02*
X148Y292D01*
X240Y292D02*
X378Y292D01*
X471Y292D02*
X543Y292D01*
X636Y292D02*
X677Y292D01*
X722Y292D02*
X815Y292D01*
X825Y292D02*
X1080Y292D01*
X1179Y292D02*
X1192Y292D01*
X31Y291D02*
X71Y291D01*
X94Y291D02*
X148Y291D01*
X241Y291D02*
X378Y291D01*
X472Y291D02*
X543Y291D01*
X636Y291D02*
X677Y291D01*
X722Y291D02*
X1080Y291D01*
X1179Y291D02*
X1192Y291D01*
X31Y290D02*
X76Y290D01*
X89Y290D02*
X148Y290D01*
X241Y290D02*
X378Y290D01*
X472Y290D02*
X543Y290D01*
X637Y290D02*
X677Y290D01*
X722Y290D02*
X1080Y290D01*
X1179Y290D02*
X1192Y290D01*
X31Y289D02*
X148Y289D01*
X241Y289D02*
X378Y289D01*
X472Y289D02*
X543Y289D01*
X637Y289D02*
X677Y289D01*
X722Y289D02*
X1080Y289D01*
X1179Y289D02*
X1192Y289D01*
X31Y288D02*
X147Y288D01*
X241Y288D02*
X378Y288D01*
X472Y288D02*
X543Y288D01*
X637Y288D02*
X677Y288D01*
X722Y288D02*
X1080Y288D01*
X1179Y288D02*
X1192Y288D01*
X31Y287D02*
X147Y287D01*
X241Y287D02*
X378Y287D01*
X472Y287D02*
X543Y287D01*
X637Y287D02*
X677Y287D01*
X722Y287D02*
X1080Y287D01*
X1179Y287D02*
X1192Y287D01*
X31Y286D02*
X147Y286D01*
X241Y286D02*
X378Y286D01*
X472Y286D02*
X542Y286D01*
X637Y286D02*
X677Y286D01*
X722Y286D02*
X1080Y286D01*
X1179Y286D02*
X1192Y286D01*
X31Y285D02*
X147Y285D01*
X241Y285D02*
X377Y285D01*
X472Y285D02*
X542Y285D01*
X637Y285D02*
X677Y285D01*
X722Y285D02*
X1080Y285D01*
X1179Y285D02*
X1192Y285D01*
X31Y284D02*
X147Y284D01*
X241Y284D02*
X377Y284D01*
X472Y284D02*
X542Y284D01*
X637Y284D02*
X677Y284D01*
X722Y284D02*
X1080Y284D01*
X1179Y284D02*
X1192Y284D01*
X31Y283D02*
X147Y283D01*
X242Y283D02*
X377Y283D01*
X472Y283D02*
X542Y283D01*
X637Y283D02*
X677Y283D01*
X722Y283D02*
X1080Y283D01*
X1179Y283D02*
X1192Y283D01*
X31Y282D02*
X147Y282D01*
X242Y282D02*
X378Y282D01*
X472Y282D02*
X543Y282D01*
X637Y282D02*
X677Y282D01*
X722Y282D02*
X1080Y282D01*
X1179Y282D02*
X1192Y282D01*
X31Y281D02*
X147Y281D01*
X242Y281D02*
X378Y281D01*
X472Y281D02*
X543Y281D01*
X637Y281D02*
X677Y281D01*
X722Y281D02*
X1080Y281D01*
X1179Y281D02*
X1192Y281D01*
X31Y280D02*
X147Y280D01*
X242Y280D02*
X378Y280D01*
X472Y280D02*
X543Y280D01*
X637Y280D02*
X677Y280D01*
X722Y280D02*
X1080Y280D01*
X1179Y280D02*
X1192Y280D01*
X31Y279D02*
X147Y279D01*
X241Y279D02*
X378Y279D01*
X472Y279D02*
X543Y279D01*
X637Y279D02*
X677Y279D01*
X722Y279D02*
X1080Y279D01*
X1179Y279D02*
X1192Y279D01*
X31Y278D02*
X147Y278D01*
X241Y278D02*
X378Y278D01*
X472Y278D02*
X543Y278D01*
X637Y278D02*
X677Y278D01*
X722Y278D02*
X1080Y278D01*
X1179Y278D02*
X1192Y278D01*
X31Y277D02*
X147Y277D01*
X241Y277D02*
X378Y277D01*
X472Y277D02*
X543Y277D01*
X636Y277D02*
X677Y277D01*
X722Y277D02*
X1080Y277D01*
X1179Y277D02*
X1192Y277D01*
X31Y276D02*
X147Y276D01*
X241Y276D02*
X378Y276D01*
X471Y276D02*
X543Y276D01*
X636Y276D02*
X677Y276D01*
X722Y276D02*
X1080Y276D01*
X1179Y276D02*
X1192Y276D01*
X31Y275D02*
X147Y275D01*
X241Y275D02*
X378Y275D01*
X471Y275D02*
X543Y275D01*
X636Y275D02*
X677Y275D01*
X722Y275D02*
X1080Y275D01*
X1179Y275D02*
X1192Y275D01*
X31Y274D02*
X79Y274D01*
X86Y274D02*
X148Y274D01*
X241Y274D02*
X379Y274D01*
X471Y274D02*
X544Y274D01*
X636Y274D02*
X677Y274D01*
X722Y274D02*
X1080Y274D01*
X1179Y274D02*
X1192Y274D01*
X31Y273D02*
X72Y273D01*
X93Y273D02*
X148Y273D01*
X241Y273D02*
X379Y273D01*
X471Y273D02*
X544Y273D01*
X636Y273D02*
X677Y273D01*
X722Y273D02*
X1080Y273D01*
X1179Y273D02*
X1192Y273D01*
X31Y272D02*
X69Y272D01*
X96Y272D02*
X148Y272D01*
X241Y272D02*
X379Y272D01*
X470Y272D02*
X544Y272D01*
X635Y272D02*
X677Y272D01*
X722Y272D02*
X1080Y272D01*
X1179Y272D02*
X1192Y272D01*
X31Y271D02*
X65Y271D01*
X100Y271D02*
X148Y271D01*
X240Y271D02*
X380Y271D01*
X470Y271D02*
X545Y271D01*
X635Y271D02*
X677Y271D01*
X722Y271D02*
X1080Y271D01*
X1179Y271D02*
X1192Y271D01*
X31Y270D02*
X63Y270D01*
X102Y270D02*
X148Y270D01*
X240Y270D02*
X380Y270D01*
X470Y270D02*
X545Y270D01*
X635Y270D02*
X677Y270D01*
X722Y270D02*
X1080Y270D01*
X1179Y270D02*
X1192Y270D01*
X31Y269D02*
X61Y269D01*
X104Y269D02*
X149Y269D01*
X240Y269D02*
X380Y269D01*
X469Y269D02*
X545Y269D01*
X634Y269D02*
X677Y269D01*
X722Y269D02*
X1080Y269D01*
X1179Y269D02*
X1192Y269D01*
X31Y268D02*
X59Y268D01*
X106Y268D02*
X149Y268D01*
X239Y268D02*
X381Y268D01*
X469Y268D02*
X546Y268D01*
X634Y268D02*
X677Y268D01*
X722Y268D02*
X1080Y268D01*
X1179Y268D02*
X1192Y268D01*
X31Y267D02*
X57Y267D01*
X108Y267D02*
X149Y267D01*
X239Y267D02*
X381Y267D01*
X469Y267D02*
X546Y267D01*
X634Y267D02*
X677Y267D01*
X722Y267D02*
X1080Y267D01*
X1179Y267D02*
X1192Y267D01*
X31Y266D02*
X56Y266D01*
X109Y266D02*
X150Y266D01*
X239Y266D02*
X381Y266D01*
X468Y266D02*
X546Y266D01*
X633Y266D02*
X677Y266D01*
X722Y266D02*
X1080Y266D01*
X1179Y266D02*
X1192Y266D01*
X31Y265D02*
X54Y265D01*
X111Y265D02*
X150Y265D01*
X238Y265D02*
X382Y265D01*
X468Y265D02*
X547Y265D01*
X633Y265D02*
X677Y265D01*
X722Y265D02*
X1080Y265D01*
X1179Y265D02*
X1192Y265D01*
X31Y264D02*
X53Y264D01*
X112Y264D02*
X150Y264D01*
X238Y264D02*
X382Y264D01*
X467Y264D02*
X547Y264D01*
X632Y264D02*
X677Y264D01*
X722Y264D02*
X1080Y264D01*
X1179Y264D02*
X1192Y264D01*
X31Y263D02*
X52Y263D01*
X113Y263D02*
X151Y263D01*
X238Y263D02*
X383Y263D01*
X467Y263D02*
X548Y263D01*
X632Y263D02*
X677Y263D01*
X722Y263D02*
X1080Y263D01*
X1179Y263D02*
X1192Y263D01*
X31Y262D02*
X51Y262D01*
X114Y262D02*
X151Y262D01*
X237Y262D02*
X383Y262D01*
X466Y262D02*
X548Y262D01*
X631Y262D02*
X677Y262D01*
X722Y262D02*
X1080Y262D01*
X1179Y262D02*
X1192Y262D01*
X31Y261D02*
X49Y261D01*
X116Y261D02*
X152Y261D01*
X237Y261D02*
X384Y261D01*
X466Y261D02*
X549Y261D01*
X631Y261D02*
X677Y261D01*
X722Y261D02*
X1080Y261D01*
X1179Y261D02*
X1192Y261D01*
X31Y260D02*
X48Y260D01*
X117Y260D02*
X152Y260D01*
X236Y260D02*
X384Y260D01*
X465Y260D02*
X549Y260D01*
X630Y260D02*
X677Y260D01*
X722Y260D02*
X1080Y260D01*
X1179Y260D02*
X1192Y260D01*
X31Y259D02*
X47Y259D01*
X117Y259D02*
X153Y259D01*
X236Y259D02*
X385Y259D01*
X465Y259D02*
X550Y259D01*
X630Y259D02*
X677Y259D01*
X722Y259D02*
X1080Y259D01*
X1179Y259D02*
X1192Y259D01*
X31Y258D02*
X47Y258D01*
X118Y258D02*
X153Y258D01*
X235Y258D02*
X386Y258D01*
X464Y258D02*
X551Y258D01*
X629Y258D02*
X677Y258D01*
X722Y258D02*
X1080Y258D01*
X1179Y258D02*
X1192Y258D01*
X31Y257D02*
X46Y257D01*
X119Y257D02*
X154Y257D01*
X234Y257D02*
X386Y257D01*
X463Y257D02*
X551Y257D01*
X628Y257D02*
X677Y257D01*
X722Y257D02*
X1080Y257D01*
X1179Y257D02*
X1192Y257D01*
X31Y256D02*
X45Y256D01*
X120Y256D02*
X155Y256D01*
X234Y256D02*
X387Y256D01*
X463Y256D02*
X552Y256D01*
X627Y256D02*
X677Y256D01*
X722Y256D02*
X1080Y256D01*
X1179Y256D02*
X1192Y256D01*
X31Y255D02*
X44Y255D01*
X121Y255D02*
X155Y255D01*
X233Y255D02*
X388Y255D01*
X462Y255D02*
X553Y255D01*
X627Y255D02*
X677Y255D01*
X722Y255D02*
X1080Y255D01*
X1179Y255D02*
X1192Y255D01*
X31Y254D02*
X43Y254D01*
X121Y254D02*
X156Y254D01*
X232Y254D02*
X389Y254D01*
X461Y254D02*
X554Y254D01*
X626Y254D02*
X677Y254D01*
X722Y254D02*
X1080Y254D01*
X1179Y254D02*
X1192Y254D01*
X31Y253D02*
X43Y253D01*
X122Y253D02*
X157Y253D01*
X232Y253D02*
X336Y253D01*
X349Y253D02*
X390Y253D01*
X460Y253D02*
X554Y253D01*
X625Y253D02*
X677Y253D01*
X722Y253D02*
X1080Y253D01*
X1179Y253D02*
X1192Y253D01*
X31Y252D02*
X42Y252D01*
X123Y252D02*
X158Y252D01*
X231Y252D02*
X331Y252D01*
X354Y252D02*
X390Y252D01*
X459Y252D02*
X555Y252D01*
X624Y252D02*
X677Y252D01*
X722Y252D02*
X1080Y252D01*
X1179Y252D02*
X1192Y252D01*
X31Y251D02*
X42Y251D01*
X123Y251D02*
X158Y251D01*
X230Y251D02*
X328Y251D01*
X357Y251D02*
X391Y251D01*
X458Y251D02*
X556Y251D01*
X623Y251D02*
X677Y251D01*
X722Y251D02*
X1080Y251D01*
X1179Y251D02*
X1192Y251D01*
X31Y250D02*
X41Y250D01*
X124Y250D02*
X159Y250D01*
X229Y250D02*
X325Y250D01*
X360Y250D02*
X392Y250D01*
X457Y250D02*
X557Y250D01*
X622Y250D02*
X677Y250D01*
X722Y250D02*
X1080Y250D01*
X1179Y250D02*
X1192Y250D01*
X31Y249D02*
X41Y249D01*
X124Y249D02*
X160Y249D01*
X228Y249D02*
X322Y249D01*
X363Y249D02*
X394Y249D01*
X456Y249D02*
X559Y249D01*
X621Y249D02*
X677Y249D01*
X722Y249D02*
X1080Y249D01*
X1179Y249D02*
X1192Y249D01*
X31Y248D02*
X40Y248D01*
X125Y248D02*
X161Y248D01*
X227Y248D02*
X320Y248D01*
X365Y248D02*
X395Y248D01*
X455Y248D02*
X560Y248D01*
X620Y248D02*
X677Y248D01*
X722Y248D02*
X1080Y248D01*
X1179Y248D02*
X1192Y248D01*
X31Y247D02*
X40Y247D01*
X125Y247D02*
X162Y247D01*
X226Y247D02*
X319Y247D01*
X366Y247D02*
X396Y247D01*
X453Y247D02*
X561Y247D01*
X618Y247D02*
X677Y247D01*
X722Y247D02*
X1080Y247D01*
X1179Y247D02*
X1192Y247D01*
X31Y246D02*
X39Y246D01*
X126Y246D02*
X163Y246D01*
X225Y246D02*
X317Y246D01*
X368Y246D02*
X397Y246D01*
X452Y246D02*
X562Y246D01*
X617Y246D02*
X677Y246D01*
X722Y246D02*
X1080Y246D01*
X1179Y246D02*
X1192Y246D01*
X31Y245D02*
X39Y245D01*
X126Y245D02*
X165Y245D01*
X224Y245D02*
X315Y245D01*
X370Y245D02*
X399Y245D01*
X451Y245D02*
X564Y245D01*
X616Y245D02*
X677Y245D01*
X722Y245D02*
X1080Y245D01*
X1179Y245D02*
X1192Y245D01*
X31Y244D02*
X38Y244D01*
X127Y244D02*
X166Y244D01*
X222Y244D02*
X314Y244D01*
X371Y244D02*
X401Y244D01*
X449Y244D02*
X566Y244D01*
X614Y244D02*
X677Y244D01*
X722Y244D02*
X995Y244D01*
X1007Y244D02*
X1080Y244D01*
X1179Y244D02*
X1192Y244D01*
X31Y243D02*
X38Y243D01*
X127Y243D02*
X167Y243D01*
X221Y243D02*
X313Y243D01*
X372Y243D02*
X402Y243D01*
X448Y243D02*
X567Y243D01*
X613Y243D02*
X677Y243D01*
X722Y243D02*
X989Y243D01*
X1013Y243D02*
X1080Y243D01*
X1179Y243D02*
X1192Y243D01*
X31Y242D02*
X38Y242D01*
X127Y242D02*
X169Y242D01*
X219Y242D02*
X311Y242D01*
X374Y242D02*
X402Y242D01*
X447Y242D02*
X567Y242D01*
X612Y242D02*
X677Y242D01*
X722Y242D02*
X986Y242D01*
X1016Y242D02*
X1080Y242D01*
X1179Y242D02*
X1192Y242D01*
X31Y241D02*
X37Y241D01*
X128Y241D02*
X171Y241D01*
X218Y241D02*
X310Y241D01*
X375Y241D02*
X402Y241D01*
X447Y241D02*
X567Y241D01*
X612Y241D02*
X677Y241D01*
X722Y241D02*
X983Y241D01*
X1019Y241D02*
X1080Y241D01*
X1179Y241D02*
X1192Y241D01*
X31Y240D02*
X37Y240D01*
X128Y240D02*
X173Y240D01*
X216Y240D02*
X309Y240D01*
X376Y240D02*
X402Y240D01*
X447Y240D02*
X567Y240D01*
X612Y240D02*
X677Y240D01*
X722Y240D02*
X981Y240D01*
X1021Y240D02*
X1080Y240D01*
X1179Y240D02*
X1192Y240D01*
X31Y239D02*
X37Y239D01*
X128Y239D02*
X175Y239D01*
X214Y239D02*
X308Y239D01*
X377Y239D02*
X402Y239D01*
X447Y239D02*
X567Y239D01*
X612Y239D02*
X677Y239D01*
X722Y239D02*
X979Y239D01*
X1023Y239D02*
X1080Y239D01*
X1179Y239D02*
X1192Y239D01*
X31Y238D02*
X36Y238D01*
X129Y238D02*
X177Y238D01*
X211Y238D02*
X307Y238D01*
X378Y238D02*
X402Y238D01*
X447Y238D02*
X567Y238D01*
X612Y238D02*
X677Y238D01*
X722Y238D02*
X977Y238D01*
X1025Y238D02*
X1080Y238D01*
X1179Y238D02*
X1192Y238D01*
X31Y237D02*
X36Y237D01*
X129Y237D02*
X180Y237D01*
X208Y237D02*
X306Y237D01*
X379Y237D02*
X402Y237D01*
X447Y237D02*
X567Y237D01*
X612Y237D02*
X677Y237D01*
X722Y237D02*
X975Y237D01*
X1027Y237D02*
X1080Y237D01*
X1179Y237D02*
X1192Y237D01*
X31Y236D02*
X36Y236D01*
X129Y236D02*
X183Y236D01*
X205Y236D02*
X305Y236D01*
X380Y236D02*
X402Y236D01*
X447Y236D02*
X567Y236D01*
X612Y236D02*
X677Y236D01*
X722Y236D02*
X974Y236D01*
X1029Y236D02*
X1080Y236D01*
X1179Y236D02*
X1192Y236D01*
X31Y235D02*
X36Y235D01*
X129Y235D02*
X190Y235D01*
X198Y235D02*
X305Y235D01*
X380Y235D02*
X402Y235D01*
X447Y235D02*
X567Y235D01*
X612Y235D02*
X677Y235D01*
X722Y235D02*
X972Y235D01*
X1030Y235D02*
X1080Y235D01*
X1179Y235D02*
X1192Y235D01*
X31Y234D02*
X36Y234D01*
X129Y234D02*
X304Y234D01*
X381Y234D02*
X402Y234D01*
X447Y234D02*
X567Y234D01*
X612Y234D02*
X677Y234D01*
X722Y234D02*
X971Y234D01*
X1031Y234D02*
X1080Y234D01*
X1179Y234D02*
X1192Y234D01*
X31Y233D02*
X36Y233D01*
X129Y233D02*
X303Y233D01*
X382Y233D02*
X402Y233D01*
X447Y233D02*
X567Y233D01*
X612Y233D02*
X677Y233D01*
X722Y233D02*
X970Y233D01*
X1032Y233D02*
X1080Y233D01*
X1179Y233D02*
X1192Y233D01*
X31Y232D02*
X35Y232D01*
X129Y232D02*
X302Y232D01*
X383Y232D02*
X402Y232D01*
X447Y232D02*
X567Y232D01*
X612Y232D02*
X677Y232D01*
X722Y232D02*
X969Y232D01*
X1034Y232D02*
X1080Y232D01*
X1179Y232D02*
X1192Y232D01*
X31Y231D02*
X35Y231D01*
X130Y231D02*
X302Y231D01*
X383Y231D02*
X402Y231D01*
X447Y231D02*
X504Y231D01*
X513Y231D02*
X567Y231D01*
X612Y231D02*
X677Y231D01*
X722Y231D02*
X967Y231D01*
X1035Y231D02*
X1080Y231D01*
X1179Y231D02*
X1192Y231D01*
X31Y230D02*
X35Y230D01*
X130Y230D02*
X301Y230D01*
X384Y230D02*
X402Y230D01*
X447Y230D02*
X498Y230D01*
X520Y230D02*
X567Y230D01*
X612Y230D02*
X677Y230D01*
X722Y230D02*
X966Y230D01*
X1036Y230D02*
X1080Y230D01*
X1179Y230D02*
X1192Y230D01*
X31Y229D02*
X35Y229D01*
X130Y229D02*
X301Y229D01*
X384Y229D02*
X402Y229D01*
X447Y229D02*
X494Y229D01*
X523Y229D02*
X567Y229D01*
X612Y229D02*
X677Y229D01*
X722Y229D02*
X966Y229D01*
X1037Y229D02*
X1080Y229D01*
X1179Y229D02*
X1192Y229D01*
X31Y228D02*
X35Y228D01*
X130Y228D02*
X300Y228D01*
X447Y228D02*
X491Y228D01*
X526Y228D02*
X567Y228D01*
X612Y228D02*
X677Y228D01*
X722Y228D02*
X965Y228D01*
X1037Y228D02*
X1080Y228D01*
X1179Y228D02*
X1192Y228D01*
X31Y227D02*
X35Y227D01*
X130Y227D02*
X300Y227D01*
X447Y227D02*
X489Y227D01*
X529Y227D02*
X567Y227D01*
X612Y227D02*
X677Y227D01*
X722Y227D02*
X964Y227D01*
X1038Y227D02*
X1080Y227D01*
X1179Y227D02*
X1192Y227D01*
X31Y226D02*
X35Y226D01*
X130Y226D02*
X299Y226D01*
X447Y226D02*
X487Y226D01*
X530Y226D02*
X567Y226D01*
X612Y226D02*
X677Y226D01*
X723Y226D02*
X963Y226D01*
X1039Y226D02*
X1080Y226D01*
X1179Y226D02*
X1192Y226D01*
X31Y225D02*
X35Y225D01*
X130Y225D02*
X299Y225D01*
X447Y225D02*
X485Y225D01*
X532Y225D02*
X567Y225D01*
X612Y225D02*
X676Y225D01*
X724Y225D02*
X962Y225D01*
X1040Y225D02*
X1080Y225D01*
X1179Y225D02*
X1192Y225D01*
X31Y224D02*
X35Y224D01*
X130Y224D02*
X298Y224D01*
X447Y224D02*
X483Y224D01*
X534Y224D02*
X567Y224D01*
X612Y224D02*
X674Y224D01*
X725Y224D02*
X962Y224D01*
X1041Y224D02*
X1080Y224D01*
X1179Y224D02*
X1192Y224D01*
X31Y223D02*
X35Y223D01*
X130Y223D02*
X298Y223D01*
X447Y223D02*
X482Y223D01*
X536Y223D02*
X567Y223D01*
X612Y223D02*
X673Y223D01*
X727Y223D02*
X961Y223D01*
X1041Y223D02*
X1080Y223D01*
X1179Y223D02*
X1192Y223D01*
X31Y222D02*
X36Y222D01*
X129Y222D02*
X298Y222D01*
X447Y222D02*
X480Y222D01*
X537Y222D02*
X567Y222D01*
X612Y222D02*
X671Y222D01*
X728Y222D02*
X960Y222D01*
X1042Y222D02*
X1080Y222D01*
X1179Y222D02*
X1192Y222D01*
X31Y221D02*
X36Y221D01*
X129Y221D02*
X297Y221D01*
X447Y221D02*
X479Y221D01*
X538Y221D02*
X567Y221D01*
X612Y221D02*
X670Y221D01*
X730Y221D02*
X960Y221D01*
X1042Y221D02*
X1080Y221D01*
X1179Y221D02*
X1192Y221D01*
X31Y220D02*
X36Y220D01*
X129Y220D02*
X297Y220D01*
X447Y220D02*
X478Y220D01*
X540Y220D02*
X567Y220D01*
X612Y220D02*
X669Y220D01*
X731Y220D02*
X959Y220D01*
X1043Y220D02*
X1081Y220D01*
X1178Y220D02*
X1192Y220D01*
X31Y219D02*
X36Y219D01*
X129Y219D02*
X153Y219D01*
X235Y219D02*
X297Y219D01*
X447Y219D02*
X477Y219D01*
X541Y219D02*
X567Y219D01*
X612Y219D02*
X668Y219D01*
X732Y219D02*
X959Y219D01*
X1043Y219D02*
X1081Y219D01*
X1178Y219D02*
X1192Y219D01*
X31Y218D02*
X36Y218D01*
X129Y218D02*
X151Y218D01*
X237Y218D02*
X296Y218D01*
X447Y218D02*
X475Y218D01*
X542Y218D02*
X567Y218D01*
X612Y218D02*
X666Y218D01*
X733Y218D02*
X958Y218D01*
X1044Y218D02*
X1082Y218D01*
X1177Y218D02*
X1192Y218D01*
X31Y217D02*
X36Y217D01*
X129Y217D02*
X150Y217D01*
X238Y217D02*
X296Y217D01*
X447Y217D02*
X474Y217D01*
X543Y217D02*
X567Y217D01*
X612Y217D02*
X665Y217D01*
X734Y217D02*
X958Y217D01*
X1044Y217D02*
X1083Y217D01*
X1177Y217D02*
X1192Y217D01*
X31Y216D02*
X37Y216D01*
X128Y216D02*
X149Y216D01*
X239Y216D02*
X296Y216D01*
X447Y216D02*
X473Y216D01*
X544Y216D02*
X567Y216D01*
X612Y216D02*
X665Y216D01*
X735Y216D02*
X957Y216D01*
X1045Y216D02*
X1083Y216D01*
X1176Y216D02*
X1192Y216D01*
X31Y215D02*
X37Y215D01*
X128Y215D02*
X148Y215D01*
X240Y215D02*
X295Y215D01*
X447Y215D02*
X473Y215D01*
X545Y215D02*
X567Y215D01*
X612Y215D02*
X664Y215D01*
X736Y215D02*
X957Y215D01*
X1045Y215D02*
X1085Y215D01*
X1174Y215D02*
X1192Y215D01*
X31Y214D02*
X37Y214D01*
X128Y214D02*
X148Y214D01*
X241Y214D02*
X295Y214D01*
X447Y214D02*
X472Y214D01*
X546Y214D02*
X567Y214D01*
X612Y214D02*
X663Y214D01*
X737Y214D02*
X956Y214D01*
X1046Y214D02*
X1087Y214D01*
X1172Y214D02*
X1192Y214D01*
X31Y213D02*
X38Y213D01*
X127Y213D02*
X147Y213D01*
X241Y213D02*
X295Y213D01*
X447Y213D02*
X471Y213D01*
X546Y213D02*
X567Y213D01*
X612Y213D02*
X662Y213D01*
X738Y213D02*
X956Y213D01*
X1046Y213D02*
X1192Y213D01*
X31Y212D02*
X38Y212D01*
X127Y212D02*
X147Y212D01*
X241Y212D02*
X295Y212D01*
X447Y212D02*
X470Y212D01*
X547Y212D02*
X567Y212D01*
X612Y212D02*
X661Y212D01*
X738Y212D02*
X956Y212D01*
X1046Y212D02*
X1192Y212D01*
X31Y211D02*
X38Y211D01*
X127Y211D02*
X147Y211D01*
X242Y211D02*
X295Y211D01*
X447Y211D02*
X469Y211D01*
X548Y211D02*
X567Y211D01*
X612Y211D02*
X661Y211D01*
X739Y211D02*
X956Y211D01*
X1047Y211D02*
X1192Y211D01*
X31Y210D02*
X39Y210D01*
X126Y210D02*
X147Y210D01*
X242Y210D02*
X295Y210D01*
X447Y210D02*
X469Y210D01*
X549Y210D02*
X567Y210D01*
X612Y210D02*
X660Y210D01*
X740Y210D02*
X955Y210D01*
X1047Y210D02*
X1192Y210D01*
X31Y209D02*
X39Y209D01*
X126Y209D02*
X147Y209D01*
X158Y209D02*
X231Y209D01*
X242Y209D02*
X295Y209D01*
X447Y209D02*
X468Y209D01*
X549Y209D02*
X567Y209D01*
X612Y209D02*
X659Y209D01*
X740Y209D02*
X955Y209D01*
X1047Y209D02*
X1192Y209D01*
X31Y208D02*
X39Y208D01*
X126Y208D02*
X147Y208D01*
X158Y208D02*
X231Y208D01*
X242Y208D02*
X295Y208D01*
X447Y208D02*
X468Y208D01*
X550Y208D02*
X567Y208D01*
X612Y208D02*
X659Y208D01*
X741Y208D02*
X955Y208D01*
X1048Y208D02*
X1192Y208D01*
X31Y207D02*
X40Y207D01*
X125Y207D02*
X147Y207D01*
X158Y207D02*
X231Y207D01*
X242Y207D02*
X295Y207D01*
X447Y207D02*
X467Y207D01*
X550Y207D02*
X567Y207D01*
X612Y207D02*
X658Y207D01*
X741Y207D02*
X954Y207D01*
X1048Y207D02*
X1192Y207D01*
X31Y206D02*
X40Y206D01*
X124Y206D02*
X147Y206D01*
X158Y206D02*
X231Y206D01*
X242Y206D02*
X295Y206D01*
X447Y206D02*
X467Y206D01*
X552Y206D02*
X565Y206D01*
X612Y206D02*
X658Y206D01*
X742Y206D02*
X954Y206D01*
X1048Y206D02*
X1192Y206D01*
X31Y205D02*
X41Y205D01*
X124Y205D02*
X147Y205D01*
X158Y205D02*
X231Y205D01*
X242Y205D02*
X295Y205D01*
X447Y205D02*
X466Y205D01*
X612Y205D02*
X657Y205D01*
X742Y205D02*
X954Y205D01*
X1048Y205D02*
X1192Y205D01*
X31Y204D02*
X42Y204D01*
X123Y204D02*
X147Y204D01*
X158Y204D02*
X231Y204D01*
X242Y204D02*
X295Y204D01*
X447Y204D02*
X466Y204D01*
X612Y204D02*
X657Y204D01*
X743Y204D02*
X954Y204D01*
X1048Y204D02*
X1192Y204D01*
X31Y203D02*
X42Y203D01*
X123Y203D02*
X147Y203D01*
X158Y203D02*
X231Y203D01*
X242Y203D02*
X295Y203D01*
X447Y203D02*
X465Y203D01*
X612Y203D02*
X656Y203D01*
X743Y203D02*
X954Y203D01*
X1048Y203D02*
X1192Y203D01*
X31Y202D02*
X43Y202D01*
X122Y202D02*
X147Y202D01*
X158Y202D02*
X231Y202D01*
X242Y202D02*
X295Y202D01*
X447Y202D02*
X465Y202D01*
X612Y202D02*
X656Y202D01*
X744Y202D02*
X954Y202D01*
X1049Y202D02*
X1192Y202D01*
X31Y201D02*
X43Y201D01*
X122Y201D02*
X147Y201D01*
X158Y201D02*
X231Y201D01*
X242Y201D02*
X295Y201D01*
X447Y201D02*
X464Y201D01*
X612Y201D02*
X655Y201D01*
X744Y201D02*
X953Y201D01*
X1049Y201D02*
X1192Y201D01*
X31Y200D02*
X44Y200D01*
X121Y200D02*
X147Y200D01*
X158Y200D02*
X231Y200D01*
X242Y200D02*
X295Y200D01*
X446Y200D02*
X464Y200D01*
X612Y200D02*
X655Y200D01*
X745Y200D02*
X953Y200D01*
X1049Y200D02*
X1192Y200D01*
X31Y199D02*
X45Y199D01*
X120Y199D02*
X147Y199D01*
X158Y199D02*
X231Y199D01*
X242Y199D02*
X295Y199D01*
X446Y199D02*
X464Y199D01*
X612Y199D02*
X655Y199D01*
X745Y199D02*
X953Y199D01*
X1049Y199D02*
X1192Y199D01*
X31Y198D02*
X46Y198D01*
X119Y198D02*
X147Y198D01*
X158Y198D02*
X231Y198D01*
X242Y198D02*
X295Y198D01*
X446Y198D02*
X463Y198D01*
X612Y198D02*
X654Y198D01*
X745Y198D02*
X953Y198D01*
X1049Y198D02*
X1192Y198D01*
X31Y197D02*
X46Y197D01*
X119Y197D02*
X147Y197D01*
X158Y197D02*
X231Y197D01*
X242Y197D02*
X296Y197D01*
X445Y197D02*
X463Y197D01*
X612Y197D02*
X654Y197D01*
X746Y197D02*
X953Y197D01*
X1049Y197D02*
X1192Y197D01*
X31Y196D02*
X47Y196D01*
X118Y196D02*
X147Y196D01*
X158Y196D02*
X231Y196D01*
X242Y196D02*
X296Y196D01*
X445Y196D02*
X463Y196D01*
X612Y196D02*
X654Y196D01*
X746Y196D02*
X953Y196D01*
X1049Y196D02*
X1192Y196D01*
X31Y195D02*
X48Y195D01*
X117Y195D02*
X147Y195D01*
X158Y195D02*
X231Y195D01*
X242Y195D02*
X296Y195D01*
X444Y195D02*
X462Y195D01*
X612Y195D02*
X653Y195D01*
X746Y195D02*
X953Y195D01*
X1049Y195D02*
X1192Y195D01*
X31Y194D02*
X49Y194D01*
X116Y194D02*
X147Y194D01*
X158Y194D02*
X231Y194D01*
X242Y194D02*
X296Y194D01*
X444Y194D02*
X462Y194D01*
X612Y194D02*
X653Y194D01*
X747Y194D02*
X953Y194D01*
X1049Y194D02*
X1192Y194D01*
X31Y193D02*
X50Y193D01*
X115Y193D02*
X147Y193D01*
X158Y193D02*
X231Y193D01*
X242Y193D02*
X297Y193D01*
X443Y193D02*
X462Y193D01*
X612Y193D02*
X653Y193D01*
X747Y193D02*
X953Y193D01*
X1049Y193D02*
X1192Y193D01*
X31Y192D02*
X51Y192D01*
X114Y192D02*
X147Y192D01*
X158Y192D02*
X189Y192D01*
X199Y192D02*
X231Y192D01*
X242Y192D02*
X297Y192D01*
X442Y192D02*
X462Y192D01*
X612Y192D02*
X653Y192D01*
X747Y192D02*
X954Y192D01*
X1049Y192D02*
X1192Y192D01*
X31Y191D02*
X53Y191D01*
X112Y191D02*
X147Y191D01*
X158Y191D02*
X186Y191D01*
X203Y191D02*
X231Y191D01*
X242Y191D02*
X297Y191D01*
X441Y191D02*
X461Y191D01*
X612Y191D02*
X653Y191D01*
X747Y191D02*
X954Y191D01*
X1048Y191D02*
X1192Y191D01*
X31Y190D02*
X54Y190D01*
X111Y190D02*
X147Y190D01*
X158Y190D02*
X184Y190D01*
X204Y190D02*
X231Y190D01*
X242Y190D02*
X298Y190D01*
X440Y190D02*
X461Y190D01*
X612Y190D02*
X652Y190D01*
X747Y190D02*
X954Y190D01*
X1048Y190D02*
X1192Y190D01*
X31Y189D02*
X55Y189D01*
X110Y189D02*
X147Y189D01*
X158Y189D02*
X182Y189D01*
X206Y189D02*
X231Y189D01*
X242Y189D02*
X298Y189D01*
X439Y189D02*
X461Y189D01*
X612Y189D02*
X652Y189D01*
X747Y189D02*
X954Y189D01*
X1048Y189D02*
X1192Y189D01*
X31Y188D02*
X57Y188D01*
X108Y188D02*
X147Y188D01*
X158Y188D02*
X181Y188D01*
X207Y188D02*
X231Y188D01*
X242Y188D02*
X298Y188D01*
X438Y188D02*
X461Y188D01*
X612Y188D02*
X652Y188D01*
X747Y188D02*
X954Y188D01*
X1048Y188D02*
X1192Y188D01*
X31Y187D02*
X59Y187D01*
X106Y187D02*
X147Y187D01*
X158Y187D02*
X180Y187D01*
X209Y187D02*
X231Y187D01*
X242Y187D02*
X299Y187D01*
X436Y187D02*
X461Y187D01*
X612Y187D02*
X652Y187D01*
X747Y187D02*
X954Y187D01*
X1048Y187D02*
X1192Y187D01*
X31Y186D02*
X60Y186D01*
X105Y186D02*
X147Y186D01*
X158Y186D02*
X179Y186D01*
X210Y186D02*
X231Y186D01*
X242Y186D02*
X299Y186D01*
X434Y186D02*
X461Y186D01*
X612Y186D02*
X652Y186D01*
X748Y186D02*
X955Y186D01*
X1047Y186D02*
X1192Y186D01*
X31Y185D02*
X62Y185D01*
X103Y185D02*
X147Y185D01*
X158Y185D02*
X178Y185D01*
X210Y185D02*
X231Y185D01*
X242Y185D02*
X300Y185D01*
X431Y185D02*
X461Y185D01*
X612Y185D02*
X652Y185D01*
X748Y185D02*
X955Y185D01*
X1047Y185D02*
X1192Y185D01*
X31Y184D02*
X64Y184D01*
X101Y184D02*
X147Y184D01*
X158Y184D02*
X177Y184D01*
X211Y184D02*
X231Y184D01*
X242Y184D02*
X300Y184D01*
X385Y184D02*
X461Y184D01*
X612Y184D02*
X652Y184D01*
X748Y184D02*
X955Y184D01*
X1047Y184D02*
X1192Y184D01*
X31Y183D02*
X67Y183D01*
X97Y183D02*
X147Y183D01*
X158Y183D02*
X177Y183D01*
X212Y183D02*
X231Y183D01*
X242Y183D02*
X301Y183D01*
X384Y183D02*
X461Y183D01*
X612Y183D02*
X652Y183D01*
X748Y183D02*
X956Y183D01*
X1047Y183D02*
X1192Y183D01*
X31Y182D02*
X71Y182D01*
X94Y182D02*
X147Y182D01*
X158Y182D02*
X176Y182D01*
X212Y182D02*
X231Y182D01*
X242Y182D02*
X301Y182D01*
X384Y182D02*
X461Y182D01*
X612Y182D02*
X652Y182D01*
X748Y182D02*
X956Y182D01*
X1046Y182D02*
X1192Y182D01*
X31Y181D02*
X76Y181D01*
X89Y181D02*
X147Y181D01*
X158Y181D02*
X176Y181D01*
X213Y181D02*
X231Y181D01*
X242Y181D02*
X302Y181D01*
X383Y181D02*
X461Y181D01*
X612Y181D02*
X652Y181D01*
X747Y181D02*
X956Y181D01*
X1046Y181D02*
X1192Y181D01*
X31Y180D02*
X147Y180D01*
X158Y180D02*
X175Y180D01*
X213Y180D02*
X231Y180D01*
X242Y180D02*
X303Y180D01*
X382Y180D02*
X461Y180D01*
X612Y180D02*
X652Y180D01*
X747Y180D02*
X957Y180D01*
X1046Y180D02*
X1192Y180D01*
X31Y179D02*
X147Y179D01*
X158Y179D02*
X175Y179D01*
X214Y179D02*
X231Y179D01*
X242Y179D02*
X303Y179D01*
X382Y179D02*
X461Y179D01*
X612Y179D02*
X652Y179D01*
X747Y179D02*
X957Y179D01*
X1045Y179D02*
X1192Y179D01*
X31Y178D02*
X147Y178D01*
X158Y178D02*
X175Y178D01*
X214Y178D02*
X231Y178D01*
X242Y178D02*
X304Y178D01*
X381Y178D02*
X461Y178D01*
X611Y178D02*
X652Y178D01*
X747Y178D02*
X957Y178D01*
X1045Y178D02*
X1192Y178D01*
X31Y177D02*
X147Y177D01*
X158Y177D02*
X174Y177D01*
X214Y177D02*
X231Y177D01*
X242Y177D02*
X305Y177D01*
X380Y177D02*
X461Y177D01*
X611Y177D02*
X653Y177D01*
X747Y177D02*
X958Y177D01*
X1044Y177D02*
X1192Y177D01*
X31Y176D02*
X147Y176D01*
X158Y176D02*
X174Y176D01*
X214Y176D02*
X231Y176D01*
X242Y176D02*
X306Y176D01*
X379Y176D02*
X462Y176D01*
X611Y176D02*
X653Y176D01*
X747Y176D02*
X958Y176D01*
X1044Y176D02*
X1192Y176D01*
X31Y175D02*
X147Y175D01*
X158Y175D02*
X174Y175D01*
X215Y175D02*
X231Y175D01*
X242Y175D02*
X306Y175D01*
X379Y175D02*
X462Y175D01*
X610Y175D02*
X653Y175D01*
X747Y175D02*
X959Y175D01*
X1043Y175D02*
X1192Y175D01*
X31Y174D02*
X147Y174D01*
X158Y174D02*
X174Y174D01*
X215Y174D02*
X231Y174D01*
X242Y174D02*
X307Y174D01*
X378Y174D02*
X462Y174D01*
X610Y174D02*
X653Y174D01*
X747Y174D02*
X960Y174D01*
X1043Y174D02*
X1192Y174D01*
X31Y173D02*
X147Y173D01*
X158Y173D02*
X174Y173D01*
X215Y173D02*
X231Y173D01*
X242Y173D02*
X308Y173D01*
X377Y173D02*
X462Y173D01*
X609Y173D02*
X653Y173D01*
X746Y173D02*
X960Y173D01*
X1042Y173D02*
X1192Y173D01*
X31Y172D02*
X147Y172D01*
X158Y172D02*
X174Y172D01*
X215Y172D02*
X231Y172D01*
X242Y172D02*
X309Y172D01*
X376Y172D02*
X463Y172D01*
X609Y172D02*
X654Y172D01*
X746Y172D02*
X961Y172D01*
X1042Y172D02*
X1192Y172D01*
X31Y171D02*
X147Y171D01*
X158Y171D02*
X174Y171D01*
X215Y171D02*
X231Y171D01*
X242Y171D02*
X310Y171D01*
X375Y171D02*
X463Y171D01*
X608Y171D02*
X654Y171D01*
X746Y171D02*
X961Y171D01*
X1041Y171D02*
X1192Y171D01*
X31Y170D02*
X147Y170D01*
X158Y170D02*
X174Y170D01*
X214Y170D02*
X231Y170D01*
X242Y170D02*
X312Y170D01*
X373Y170D02*
X463Y170D01*
X607Y170D02*
X654Y170D01*
X745Y170D02*
X962Y170D01*
X1040Y170D02*
X1192Y170D01*
X31Y169D02*
X147Y169D01*
X158Y169D02*
X174Y169D01*
X214Y169D02*
X231Y169D01*
X242Y169D02*
X313Y169D01*
X372Y169D02*
X463Y169D01*
X606Y169D02*
X655Y169D01*
X745Y169D02*
X963Y169D01*
X1040Y169D02*
X1192Y169D01*
X31Y168D02*
X147Y168D01*
X158Y168D02*
X174Y168D01*
X214Y168D02*
X231Y168D01*
X242Y168D02*
X314Y168D01*
X371Y168D02*
X464Y168D01*
X605Y168D02*
X655Y168D01*
X745Y168D02*
X963Y168D01*
X1039Y168D02*
X1192Y168D01*
X31Y167D02*
X147Y167D01*
X158Y167D02*
X175Y167D01*
X214Y167D02*
X231Y167D01*
X242Y167D02*
X315Y167D01*
X370Y167D02*
X464Y167D01*
X604Y167D02*
X655Y167D01*
X744Y167D02*
X964Y167D01*
X1038Y167D02*
X1192Y167D01*
X31Y166D02*
X147Y166D01*
X158Y166D02*
X175Y166D01*
X214Y166D02*
X231Y166D01*
X242Y166D02*
X317Y166D01*
X368Y166D02*
X464Y166D01*
X603Y166D02*
X656Y166D01*
X744Y166D02*
X965Y166D01*
X1037Y166D02*
X1192Y166D01*
X31Y165D02*
X147Y165D01*
X158Y165D02*
X175Y165D01*
X213Y165D02*
X231Y165D01*
X242Y165D02*
X319Y165D01*
X366Y165D02*
X465Y165D01*
X601Y165D02*
X656Y165D01*
X744Y165D02*
X966Y165D01*
X1036Y165D02*
X1192Y165D01*
X31Y164D02*
X147Y164D01*
X158Y164D02*
X176Y164D01*
X213Y164D02*
X231Y164D01*
X242Y164D02*
X321Y164D01*
X364Y164D02*
X465Y164D01*
X599Y164D02*
X657Y164D01*
X743Y164D02*
X967Y164D01*
X1036Y164D02*
X1192Y164D01*
X31Y163D02*
X147Y163D01*
X158Y163D02*
X176Y163D01*
X212Y163D02*
X231Y163D01*
X242Y163D02*
X323Y163D01*
X362Y163D02*
X466Y163D01*
X597Y163D02*
X657Y163D01*
X743Y163D02*
X968Y163D01*
X1035Y163D02*
X1192Y163D01*
X31Y162D02*
X147Y162D01*
X158Y162D02*
X177Y162D01*
X212Y162D02*
X231Y162D01*
X242Y162D02*
X325Y162D01*
X360Y162D02*
X466Y162D01*
X583Y162D02*
X658Y162D01*
X742Y162D02*
X969Y162D01*
X1033Y162D02*
X1192Y162D01*
X31Y161D02*
X147Y161D01*
X158Y161D02*
X178Y161D01*
X211Y161D02*
X231Y161D01*
X242Y161D02*
X328Y161D01*
X357Y161D02*
X467Y161D01*
X551Y161D02*
X658Y161D01*
X741Y161D02*
X970Y161D01*
X1032Y161D02*
X1192Y161D01*
X31Y160D02*
X147Y160D01*
X158Y160D02*
X178Y160D01*
X210Y160D02*
X231Y160D01*
X242Y160D02*
X332Y160D01*
X353Y160D02*
X468Y160D01*
X550Y160D02*
X659Y160D01*
X741Y160D02*
X971Y160D01*
X1031Y160D02*
X1192Y160D01*
X31Y159D02*
X147Y159D01*
X158Y159D02*
X179Y159D01*
X209Y159D02*
X231Y159D01*
X242Y159D02*
X339Y159D01*
X346Y159D02*
X468Y159D01*
X549Y159D02*
X659Y159D01*
X740Y159D02*
X973Y159D01*
X1030Y159D02*
X1192Y159D01*
X31Y158D02*
X147Y158D01*
X158Y158D02*
X180Y158D01*
X208Y158D02*
X231Y158D01*
X242Y158D02*
X469Y158D01*
X549Y158D02*
X660Y158D01*
X740Y158D02*
X974Y158D01*
X1028Y158D02*
X1192Y158D01*
X31Y157D02*
X147Y157D01*
X158Y157D02*
X181Y157D01*
X207Y157D02*
X231Y157D01*
X242Y157D02*
X469Y157D01*
X548Y157D02*
X660Y157D01*
X739Y157D02*
X976Y157D01*
X1026Y157D02*
X1192Y157D01*
X31Y156D02*
X147Y156D01*
X158Y156D02*
X183Y156D01*
X206Y156D02*
X231Y156D01*
X242Y156D02*
X470Y156D01*
X547Y156D02*
X661Y156D01*
X738Y156D02*
X978Y156D01*
X1025Y156D02*
X1192Y156D01*
X31Y155D02*
X147Y155D01*
X158Y155D02*
X185Y155D01*
X204Y155D02*
X231Y155D01*
X242Y155D02*
X471Y155D01*
X547Y155D02*
X662Y155D01*
X738Y155D02*
X980Y155D01*
X1023Y155D02*
X1192Y155D01*
X31Y154D02*
X147Y154D01*
X158Y154D02*
X187Y154D01*
X202Y154D02*
X231Y154D01*
X242Y154D02*
X472Y154D01*
X546Y154D02*
X663Y154D01*
X737Y154D02*
X981Y154D01*
X1021Y154D02*
X1192Y154D01*
X31Y153D02*
X147Y153D01*
X158Y153D02*
X190Y153D01*
X198Y153D02*
X231Y153D01*
X242Y153D02*
X472Y153D01*
X545Y153D02*
X664Y153D01*
X736Y153D02*
X984Y153D01*
X1018Y153D02*
X1192Y153D01*
X31Y152D02*
X147Y152D01*
X158Y152D02*
X231Y152D01*
X242Y152D02*
X473Y152D01*
X544Y152D02*
X664Y152D01*
X735Y152D02*
X987Y152D01*
X1015Y152D02*
X1192Y152D01*
X31Y151D02*
X147Y151D01*
X158Y151D02*
X231Y151D01*
X242Y151D02*
X474Y151D01*
X543Y151D02*
X665Y151D01*
X734Y151D02*
X990Y151D01*
X1012Y151D02*
X1192Y151D01*
X31Y150D02*
X147Y150D01*
X158Y150D02*
X231Y150D01*
X242Y150D02*
X475Y150D01*
X542Y150D02*
X666Y150D01*
X733Y150D02*
X997Y150D01*
X1005Y150D02*
X1192Y150D01*
X31Y149D02*
X147Y149D01*
X158Y149D02*
X231Y149D01*
X242Y149D02*
X476Y149D01*
X541Y149D02*
X667Y149D01*
X732Y149D02*
X1192Y149D01*
X31Y148D02*
X147Y148D01*
X158Y148D02*
X231Y148D01*
X242Y148D02*
X477Y148D01*
X540Y148D02*
X669Y148D01*
X731Y148D02*
X1192Y148D01*
X31Y147D02*
X147Y147D01*
X158Y147D02*
X231Y147D01*
X242Y147D02*
X479Y147D01*
X539Y147D02*
X670Y147D01*
X730Y147D02*
X1192Y147D01*
X31Y146D02*
X147Y146D01*
X158Y146D02*
X231Y146D01*
X242Y146D02*
X480Y146D01*
X537Y146D02*
X671Y146D01*
X729Y146D02*
X1192Y146D01*
X31Y145D02*
X147Y145D01*
X158Y145D02*
X231Y145D01*
X242Y145D02*
X481Y145D01*
X536Y145D02*
X672Y145D01*
X727Y145D02*
X1192Y145D01*
X31Y144D02*
X147Y144D01*
X158Y144D02*
X231Y144D01*
X242Y144D02*
X483Y144D01*
X535Y144D02*
X674Y144D01*
X726Y144D02*
X1192Y144D01*
X31Y143D02*
X147Y143D01*
X158Y143D02*
X231Y143D01*
X242Y143D02*
X485Y143D01*
X533Y143D02*
X676Y143D01*
X724Y143D02*
X1192Y143D01*
X31Y142D02*
X147Y142D01*
X158Y142D02*
X231Y142D01*
X242Y142D02*
X487Y142D01*
X531Y142D02*
X678Y142D01*
X722Y142D02*
X1192Y142D01*
X31Y141D02*
X147Y141D01*
X158Y141D02*
X231Y141D01*
X242Y141D02*
X489Y141D01*
X529Y141D02*
X680Y141D01*
X720Y141D02*
X1192Y141D01*
X31Y140D02*
X147Y140D01*
X158Y140D02*
X231Y140D01*
X242Y140D02*
X491Y140D01*
X526Y140D02*
X682Y140D01*
X718Y140D02*
X1192Y140D01*
X31Y139D02*
X147Y139D01*
X158Y139D02*
X231Y139D01*
X242Y139D02*
X494Y139D01*
X523Y139D02*
X685Y139D01*
X715Y139D02*
X1192Y139D01*
X31Y138D02*
X147Y138D01*
X158Y138D02*
X231Y138D01*
X242Y138D02*
X497Y138D01*
X520Y138D02*
X688Y138D01*
X712Y138D02*
X1192Y138D01*
X31Y137D02*
X147Y137D01*
X158Y137D02*
X231Y137D01*
X242Y137D02*
X503Y137D01*
X515Y137D02*
X694Y137D01*
X706Y137D02*
X1192Y137D01*
X31Y136D02*
X147Y136D01*
X158Y136D02*
X231Y136D01*
X242Y136D02*
X1192Y136D01*
X31Y135D02*
X147Y135D01*
X242Y135D02*
X1192Y135D01*
X31Y134D02*
X147Y134D01*
X242Y134D02*
X342Y134D01*
X349Y134D02*
X442Y134D01*
X449Y134D02*
X542Y134D01*
X549Y134D02*
X642Y134D01*
X649Y134D02*
X742Y134D01*
X749Y134D02*
X842Y134D01*
X849Y134D02*
X942Y134D01*
X949Y134D02*
X1042Y134D01*
X1049Y134D02*
X1142Y134D01*
X1149Y134D02*
X1192Y134D01*
X31Y133D02*
X147Y133D01*
X241Y133D02*
X336Y133D01*
X356Y133D02*
X436Y133D01*
X456Y133D02*
X536Y133D01*
X556Y133D02*
X636Y133D01*
X656Y133D02*
X736Y133D01*
X756Y133D02*
X835Y133D01*
X856Y133D02*
X935Y133D01*
X956Y133D02*
X1035Y133D01*
X1056Y133D02*
X1135Y133D01*
X1156Y133D02*
X1192Y133D01*
X31Y132D02*
X147Y132D01*
X241Y132D02*
X332Y132D01*
X360Y132D02*
X432Y132D01*
X460Y132D02*
X532Y132D01*
X560Y132D02*
X632Y132D01*
X660Y132D02*
X732Y132D01*
X759Y132D02*
X832Y132D01*
X859Y132D02*
X932Y132D01*
X959Y132D02*
X1032Y132D01*
X1059Y132D02*
X1132Y132D01*
X1159Y132D02*
X1192Y132D01*
X31Y131D02*
X148Y131D01*
X241Y131D02*
X329Y131D01*
X363Y131D02*
X429Y131D01*
X463Y131D02*
X529Y131D01*
X563Y131D02*
X629Y131D01*
X663Y131D02*
X729Y131D01*
X763Y131D02*
X829Y131D01*
X863Y131D02*
X929Y131D01*
X963Y131D02*
X1029Y131D01*
X1062Y131D02*
X1129Y131D01*
X1162Y131D02*
X1192Y131D01*
X31Y130D02*
X149Y130D01*
X240Y130D02*
X326Y130D01*
X366Y130D02*
X426Y130D01*
X466Y130D02*
X526Y130D01*
X566Y130D02*
X626Y130D01*
X665Y130D02*
X726Y130D01*
X765Y130D02*
X826Y130D01*
X865Y130D02*
X926Y130D01*
X965Y130D02*
X1026Y130D01*
X1065Y130D02*
X1126Y130D01*
X1165Y130D02*
X1192Y130D01*
X31Y129D02*
X149Y129D01*
X239Y129D02*
X324Y129D01*
X368Y129D02*
X424Y129D01*
X467Y129D02*
X524Y129D01*
X567Y129D02*
X624Y129D01*
X667Y129D02*
X724Y129D01*
X767Y129D02*
X824Y129D01*
X867Y129D02*
X924Y129D01*
X967Y129D02*
X1024Y129D01*
X1067Y129D02*
X1124Y129D01*
X1167Y129D02*
X1192Y129D01*
X31Y128D02*
X150Y128D01*
X238Y128D02*
X322Y128D01*
X369Y128D02*
X422Y128D01*
X469Y128D02*
X522Y128D01*
X569Y128D02*
X622Y128D01*
X669Y128D02*
X722Y128D01*
X769Y128D02*
X822Y128D01*
X869Y128D02*
X922Y128D01*
X969Y128D02*
X1022Y128D01*
X1069Y128D02*
X1122Y128D01*
X1169Y128D02*
X1192Y128D01*
X31Y127D02*
X152Y127D01*
X237Y127D02*
X321Y127D01*
X371Y127D02*
X421Y127D01*
X471Y127D02*
X521Y127D01*
X571Y127D02*
X620Y127D01*
X671Y127D02*
X720Y127D01*
X771Y127D02*
X820Y127D01*
X871Y127D02*
X920Y127D01*
X971Y127D02*
X1020Y127D01*
X1071Y127D02*
X1120Y127D01*
X1171Y127D02*
X1192Y127D01*
X31Y126D02*
X154Y126D01*
X234Y126D02*
X319Y126D01*
X373Y126D02*
X419Y126D01*
X473Y126D02*
X519Y126D01*
X573Y126D02*
X619Y126D01*
X673Y126D02*
X719Y126D01*
X773Y126D02*
X819Y126D01*
X873Y126D02*
X918Y126D01*
X973Y126D02*
X1018Y126D01*
X1073Y126D02*
X1118Y126D01*
X1173Y126D02*
X1192Y126D01*
X31Y125D02*
X317Y125D01*
X375Y125D02*
X417Y125D01*
X475Y125D02*
X517Y125D01*
X575Y125D02*
X617Y125D01*
X674Y125D02*
X717Y125D01*
X774Y125D02*
X817Y125D01*
X874Y125D02*
X917Y125D01*
X974Y125D02*
X1017Y125D01*
X1074Y125D02*
X1117Y125D01*
X1174Y125D02*
X1192Y125D01*
X31Y124D02*
X316Y124D01*
X376Y124D02*
X416Y124D01*
X476Y124D02*
X516Y124D01*
X576Y124D02*
X616Y124D01*
X676Y124D02*
X716Y124D01*
X776Y124D02*
X816Y124D01*
X876Y124D02*
X916Y124D01*
X976Y124D02*
X1016Y124D01*
X1076Y124D02*
X1116Y124D01*
X1175Y124D02*
X1192Y124D01*
X31Y123D02*
X315Y123D01*
X377Y123D02*
X415Y123D01*
X477Y123D02*
X515Y123D01*
X577Y123D02*
X615Y123D01*
X677Y123D02*
X715Y123D01*
X777Y123D02*
X815Y123D01*
X877Y123D02*
X915Y123D01*
X977Y123D02*
X1014Y123D01*
X1077Y123D02*
X1114Y123D01*
X1177Y123D02*
X1192Y123D01*
X31Y122D02*
X313Y122D01*
X378Y122D02*
X413Y122D01*
X478Y122D02*
X513Y122D01*
X578Y122D02*
X613Y122D01*
X678Y122D02*
X713Y122D01*
X778Y122D02*
X813Y122D01*
X878Y122D02*
X913Y122D01*
X978Y122D02*
X1013Y122D01*
X1078Y122D02*
X1113Y122D01*
X1178Y122D02*
X1192Y122D01*
X31Y121D02*
X312Y121D01*
X380Y121D02*
X412Y121D01*
X480Y121D02*
X512Y121D01*
X580Y121D02*
X612Y121D01*
X680Y121D02*
X712Y121D01*
X779Y121D02*
X812Y121D01*
X879Y121D02*
X912Y121D01*
X979Y121D02*
X1012Y121D01*
X1079Y121D02*
X1112Y121D01*
X1179Y121D02*
X1192Y121D01*
X31Y120D02*
X311Y120D01*
X381Y120D02*
X411Y120D01*
X481Y120D02*
X511Y120D01*
X581Y120D02*
X611Y120D01*
X681Y120D02*
X711Y120D01*
X781Y120D02*
X811Y120D01*
X881Y120D02*
X911Y120D01*
X981Y120D02*
X1011Y120D01*
X1080Y120D02*
X1111Y120D01*
X1180Y120D02*
X1192Y120D01*
X31Y119D02*
X310Y119D01*
X382Y119D02*
X410Y119D01*
X482Y119D02*
X510Y119D01*
X582Y119D02*
X610Y119D01*
X682Y119D02*
X710Y119D01*
X781Y119D02*
X810Y119D01*
X881Y119D02*
X910Y119D01*
X981Y119D02*
X1010Y119D01*
X1081Y119D02*
X1110Y119D01*
X1181Y119D02*
X1192Y119D01*
X31Y118D02*
X309Y118D01*
X383Y118D02*
X409Y118D01*
X483Y118D02*
X509Y118D01*
X582Y118D02*
X609Y118D01*
X682Y118D02*
X709Y118D01*
X782Y118D02*
X809Y118D01*
X882Y118D02*
X909Y118D01*
X982Y118D02*
X1009Y118D01*
X1082Y118D02*
X1109Y118D01*
X1182Y118D02*
X1192Y118D01*
X31Y117D02*
X308Y117D01*
X383Y117D02*
X408Y117D01*
X483Y117D02*
X508Y117D01*
X583Y117D02*
X608Y117D01*
X683Y117D02*
X708Y117D01*
X783Y117D02*
X808Y117D01*
X883Y117D02*
X908Y117D01*
X983Y117D02*
X1008Y117D01*
X1083Y117D02*
X1108Y117D01*
X1183Y117D02*
X1192Y117D01*
X31Y116D02*
X308Y116D01*
X384Y116D02*
X408Y116D01*
X484Y116D02*
X508Y116D01*
X584Y116D02*
X608Y116D01*
X684Y116D02*
X708Y116D01*
X784Y116D02*
X807Y116D01*
X884Y116D02*
X907Y116D01*
X984Y116D02*
X1007Y116D01*
X1084Y116D02*
X1107Y116D01*
X1184Y116D02*
X1192Y116D01*
X31Y115D02*
X307Y115D01*
X385Y115D02*
X407Y115D01*
X485Y115D02*
X507Y115D01*
X585Y115D02*
X607Y115D01*
X685Y115D02*
X707Y115D01*
X785Y115D02*
X807Y115D01*
X885Y115D02*
X907Y115D01*
X985Y115D02*
X1007Y115D01*
X1085Y115D02*
X1106Y115D01*
X1184Y115D02*
X1192Y115D01*
X31Y114D02*
X306Y114D01*
X386Y114D02*
X406Y114D01*
X486Y114D02*
X506Y114D01*
X586Y114D02*
X606Y114D01*
X686Y114D02*
X706Y114D01*
X786Y114D02*
X806Y114D01*
X885Y114D02*
X906Y114D01*
X985Y114D02*
X1006Y114D01*
X1085Y114D02*
X1106Y114D01*
X1185Y114D02*
X1192Y114D01*
X31Y113D02*
X305Y113D01*
X387Y113D02*
X405Y113D01*
X487Y113D02*
X505Y113D01*
X586Y113D02*
X605Y113D01*
X686Y113D02*
X705Y113D01*
X786Y113D02*
X805Y113D01*
X886Y113D02*
X905Y113D01*
X986Y113D02*
X1005Y113D01*
X1086Y113D02*
X1105Y113D01*
X1186Y113D02*
X1192Y113D01*
X31Y112D02*
X305Y112D01*
X387Y112D02*
X405Y112D01*
X487Y112D02*
X505Y112D01*
X587Y112D02*
X605Y112D01*
X687Y112D02*
X704Y112D01*
X787Y112D02*
X804Y112D01*
X887Y112D02*
X904Y112D01*
X987Y112D02*
X1004Y112D01*
X1087Y112D02*
X1104Y112D01*
X1187Y112D02*
X1192Y112D01*
X31Y111D02*
X304Y111D01*
X388Y111D02*
X404Y111D01*
X488Y111D02*
X504Y111D01*
X588Y111D02*
X604Y111D01*
X688Y111D02*
X704Y111D01*
X788Y111D02*
X804Y111D01*
X887Y111D02*
X904Y111D01*
X987Y111D02*
X1004Y111D01*
X1087Y111D02*
X1104Y111D01*
X1187Y111D02*
X1192Y111D01*
X31Y110D02*
X304Y110D01*
X388Y110D02*
X404Y110D01*
X488Y110D02*
X503Y110D01*
X588Y110D02*
X603Y110D01*
X688Y110D02*
X703Y110D01*
X788Y110D02*
X803Y110D01*
X888Y110D02*
X903Y110D01*
X988Y110D02*
X1003Y110D01*
X1088Y110D02*
X1103Y110D01*
X1188Y110D02*
X1192Y110D01*
X31Y109D02*
X303Y109D01*
X389Y109D02*
X403Y109D01*
X489Y109D02*
X503Y109D01*
X589Y109D02*
X603Y109D01*
X689Y109D02*
X703Y109D01*
X789Y109D02*
X803Y109D01*
X889Y109D02*
X903Y109D01*
X988Y109D02*
X1003Y109D01*
X1088Y109D02*
X1103Y109D01*
X1188Y109D02*
X1192Y109D01*
X31Y108D02*
X303Y108D01*
X389Y108D02*
X402Y108D01*
X489Y108D02*
X502Y108D01*
X589Y108D02*
X602Y108D01*
X689Y108D02*
X702Y108D01*
X789Y108D02*
X802Y108D01*
X889Y108D02*
X902Y108D01*
X989Y108D02*
X1002Y108D01*
X1089Y108D02*
X1102Y108D01*
X1190Y108D02*
X1190Y108D01*
X31Y107D02*
X302Y107D01*
X390Y107D02*
X402Y107D01*
X490Y107D02*
X502Y107D01*
X590Y107D02*
X602Y107D01*
X690Y107D02*
X702Y107D01*
X790Y107D02*
X802Y107D01*
X890Y107D02*
X902Y107D01*
X990Y107D02*
X1002Y107D01*
X1090Y107D02*
X1102Y107D01*
X31Y106D02*
X301Y106D01*
X390Y106D02*
X401Y106D01*
X490Y106D02*
X501Y106D01*
X590Y106D02*
X601Y106D01*
X690Y106D02*
X701Y106D01*
X790Y106D02*
X801Y106D01*
X890Y106D02*
X901Y106D01*
X990Y106D02*
X1001Y106D01*
X1090Y106D02*
X1101Y106D01*
X31Y105D02*
X301Y105D01*
X391Y105D02*
X401Y105D01*
X491Y105D02*
X501Y105D01*
X591Y105D02*
X601Y105D01*
X691Y105D02*
X701Y105D01*
X791Y105D02*
X801Y105D01*
X891Y105D02*
X901Y105D01*
X991Y105D02*
X1001Y105D01*
X1091Y105D02*
X1101Y105D01*
X31Y104D02*
X300Y104D01*
X391Y104D02*
X400Y104D01*
X491Y104D02*
X500Y104D01*
X591Y104D02*
X600Y104D01*
X691Y104D02*
X700Y104D01*
X791Y104D02*
X800Y104D01*
X891Y104D02*
X900Y104D01*
X991Y104D02*
X1000Y104D01*
X1091Y104D02*
X1100Y104D01*
X31Y103D02*
X300Y103D01*
X392Y103D02*
X400Y103D01*
X492Y103D02*
X500Y103D01*
X592Y103D02*
X600Y103D01*
X692Y103D02*
X700Y103D01*
X792Y103D02*
X800Y103D01*
X892Y103D02*
X900Y103D01*
X991Y103D02*
X1000Y103D01*
X1091Y103D02*
X1100Y103D01*
X31Y102D02*
X300Y102D01*
X392Y102D02*
X400Y102D01*
X492Y102D02*
X500Y102D01*
X592Y102D02*
X600Y102D01*
X692Y102D02*
X700Y102D01*
X792Y102D02*
X800Y102D01*
X892Y102D02*
X899Y102D01*
X992Y102D02*
X999Y102D01*
X1092Y102D02*
X1099Y102D01*
X31Y101D02*
X299Y101D01*
X392Y101D02*
X399Y101D01*
X492Y101D02*
X499Y101D01*
X592Y101D02*
X599Y101D01*
X692Y101D02*
X699Y101D01*
X792Y101D02*
X799Y101D01*
X892Y101D02*
X899Y101D01*
X992Y101D02*
X999Y101D01*
X1092Y101D02*
X1099Y101D01*
X31Y100D02*
X299Y100D01*
X393Y100D02*
X399Y100D01*
X493Y100D02*
X499Y100D01*
X593Y100D02*
X599Y100D01*
X693Y100D02*
X699Y100D01*
X793Y100D02*
X799Y100D01*
X893Y100D02*
X899Y100D01*
X992Y100D02*
X999Y100D01*
X1092Y100D02*
X1099Y100D01*
X31Y99D02*
X299Y99D01*
X393Y99D02*
X399Y99D01*
X493Y99D02*
X499Y99D01*
X593Y99D02*
X599Y99D01*
X693Y99D02*
X699Y99D01*
X793Y99D02*
X799Y99D01*
X893Y99D02*
X899Y99D01*
X993Y99D02*
X998Y99D01*
X1093Y99D02*
X1098Y99D01*
X31Y98D02*
X298Y98D01*
X393Y98D02*
X398Y98D01*
X493Y98D02*
X498Y98D01*
X593Y98D02*
X598Y98D01*
X693Y98D02*
X698Y98D01*
X793Y98D02*
X798Y98D01*
X893Y98D02*
X898Y98D01*
X993Y98D02*
X998Y98D01*
X1093Y98D02*
X1098Y98D01*
X31Y97D02*
X298Y97D01*
X394Y97D02*
X398Y97D01*
X494Y97D02*
X498Y97D01*
X594Y97D02*
X598Y97D01*
X694Y97D02*
X698Y97D01*
X794Y97D02*
X798Y97D01*
X893Y97D02*
X898Y97D01*
X993Y97D02*
X998Y97D01*
X1093Y97D02*
X1098Y97D01*
X31Y96D02*
X298Y96D01*
X394Y96D02*
X398Y96D01*
X494Y96D02*
X498Y96D01*
X594Y96D02*
X598Y96D01*
X694Y96D02*
X698Y96D01*
X794Y96D02*
X798Y96D01*
X894Y96D02*
X898Y96D01*
X994Y96D02*
X997Y96D01*
X1094Y96D02*
X1097Y96D01*
X31Y95D02*
X298Y95D01*
X395Y95D02*
X397Y95D01*
X495Y95D02*
X497Y95D01*
X595Y95D02*
X597Y95D01*
X695Y95D02*
X697Y95D01*
X795Y95D02*
X797Y95D01*
X894Y95D02*
X897Y95D01*
X994Y95D02*
X997Y95D01*
X1094Y95D02*
X1097Y95D01*
X31Y94D02*
X297Y94D01*
X31Y93D02*
X297Y93D01*
X31Y92D02*
X297Y92D01*
X31Y91D02*
X297Y91D01*
X31Y90D02*
X297Y90D01*
X31Y89D02*
X297Y89D01*
X31Y88D02*
X297Y88D01*
X31Y87D02*
X297Y87D01*
X31Y86D02*
X297Y86D01*
X31Y85D02*
X297Y85D01*
X31Y84D02*
X297Y84D01*
X31Y83D02*
X297Y83D01*
X31Y82D02*
X297Y82D01*
X31Y81D02*
X297Y81D01*
X31Y80D02*
X297Y80D01*
X31Y79D02*
X297Y79D01*
X31Y78D02*
X297Y78D01*
X31Y77D02*
X297Y77D01*
X31Y76D02*
X298Y76D01*
X396Y76D02*
X396Y76D01*
X496Y76D02*
X496Y76D01*
X596Y76D02*
X596Y76D01*
X696Y76D02*
X696Y76D01*
X796Y76D02*
X796Y76D01*
X896Y76D02*
X896Y76D01*
X31Y75D02*
X298Y75D01*
X394Y75D02*
X397Y75D01*
X494Y75D02*
X497Y75D01*
X594Y75D02*
X597Y75D01*
X694Y75D02*
X697Y75D01*
X794Y75D02*
X797Y75D01*
X894Y75D02*
X897Y75D01*
X994Y75D02*
X997Y75D01*
X1094Y75D02*
X1097Y75D01*
X31Y74D02*
X298Y74D01*
X394Y74D02*
X398Y74D01*
X494Y74D02*
X498Y74D01*
X594Y74D02*
X598Y74D01*
X694Y74D02*
X698Y74D01*
X794Y74D02*
X798Y74D01*
X894Y74D02*
X898Y74D01*
X994Y74D02*
X998Y74D01*
X1094Y74D02*
X1098Y74D01*
X31Y73D02*
X298Y73D01*
X394Y73D02*
X398Y73D01*
X494Y73D02*
X498Y73D01*
X594Y73D02*
X598Y73D01*
X693Y73D02*
X698Y73D01*
X793Y73D02*
X798Y73D01*
X893Y73D02*
X898Y73D01*
X993Y73D02*
X998Y73D01*
X1093Y73D02*
X1098Y73D01*
X31Y72D02*
X299Y72D01*
X393Y72D02*
X399Y72D01*
X493Y72D02*
X499Y72D01*
X593Y72D02*
X598Y72D01*
X693Y72D02*
X698Y72D01*
X793Y72D02*
X798Y72D01*
X893Y72D02*
X898Y72D01*
X993Y72D02*
X998Y72D01*
X1093Y72D02*
X1098Y72D01*
X31Y71D02*
X299Y71D01*
X393Y71D02*
X399Y71D01*
X493Y71D02*
X499Y71D01*
X593Y71D02*
X599Y71D01*
X693Y71D02*
X699Y71D01*
X793Y71D02*
X799Y71D01*
X893Y71D02*
X899Y71D01*
X993Y71D02*
X999Y71D01*
X1093Y71D02*
X1098Y71D01*
X31Y70D02*
X299Y70D01*
X393Y70D02*
X399Y70D01*
X493Y70D02*
X499Y70D01*
X593Y70D02*
X599Y70D01*
X692Y70D02*
X699Y70D01*
X792Y70D02*
X799Y70D01*
X892Y70D02*
X899Y70D01*
X992Y70D02*
X999Y70D01*
X1092Y70D02*
X1099Y70D01*
X31Y69D02*
X300Y69D01*
X392Y69D02*
X400Y69D01*
X492Y69D02*
X499Y69D01*
X592Y69D02*
X599Y69D01*
X692Y69D02*
X699Y69D01*
X792Y69D02*
X799Y69D01*
X892Y69D02*
X899Y69D01*
X992Y69D02*
X999Y69D01*
X1092Y69D02*
X1099Y69D01*
X31Y68D02*
X300Y68D01*
X392Y68D02*
X400Y68D01*
X492Y68D02*
X500Y68D01*
X592Y68D02*
X600Y68D01*
X692Y68D02*
X700Y68D01*
X792Y68D02*
X800Y68D01*
X892Y68D02*
X900Y68D01*
X992Y68D02*
X1000Y68D01*
X1092Y68D02*
X1099Y68D01*
X31Y67D02*
X300Y67D01*
X392Y67D02*
X400Y67D01*
X492Y67D02*
X500Y67D01*
X592Y67D02*
X600Y67D01*
X692Y67D02*
X700Y67D01*
X791Y67D02*
X800Y67D01*
X891Y67D02*
X900Y67D01*
X991Y67D02*
X1000Y67D01*
X1091Y67D02*
X1100Y67D01*
X31Y66D02*
X301Y66D01*
X391Y66D02*
X401Y66D01*
X491Y66D02*
X501Y66D01*
X591Y66D02*
X600Y66D01*
X691Y66D02*
X700Y66D01*
X791Y66D02*
X800Y66D01*
X891Y66D02*
X900Y66D01*
X991Y66D02*
X1000Y66D01*
X1091Y66D02*
X1100Y66D01*
X31Y65D02*
X301Y65D01*
X391Y65D02*
X401Y65D01*
X491Y65D02*
X501Y65D01*
X591Y65D02*
X601Y65D01*
X691Y65D02*
X701Y65D01*
X791Y65D02*
X801Y65D01*
X891Y65D02*
X901Y65D01*
X990Y65D02*
X1001Y65D01*
X1090Y65D02*
X1101Y65D01*
X31Y64D02*
X302Y64D01*
X390Y64D02*
X402Y64D01*
X490Y64D02*
X502Y64D01*
X590Y64D02*
X601Y64D01*
X690Y64D02*
X701Y64D01*
X790Y64D02*
X801Y64D01*
X890Y64D02*
X901Y64D01*
X990Y64D02*
X1001Y64D01*
X1090Y64D02*
X1101Y64D01*
X31Y63D02*
X302Y63D01*
X390Y63D02*
X402Y63D01*
X490Y63D02*
X502Y63D01*
X590Y63D02*
X602Y63D01*
X690Y63D02*
X702Y63D01*
X790Y63D02*
X802Y63D01*
X889Y63D02*
X902Y63D01*
X989Y63D02*
X1002Y63D01*
X1089Y63D02*
X1102Y63D01*
X31Y62D02*
X303Y62D01*
X389Y62D02*
X403Y62D01*
X489Y62D02*
X503Y62D01*
X589Y62D02*
X603Y62D01*
X689Y62D02*
X702Y62D01*
X789Y62D02*
X802Y62D01*
X889Y62D02*
X902Y62D01*
X989Y62D02*
X1002Y62D01*
X1089Y62D02*
X1102Y62D01*
X1189Y62D02*
X1191Y62D01*
X31Y61D02*
X303Y61D01*
X389Y61D02*
X403Y61D01*
X489Y61D02*
X503Y61D01*
X589Y61D02*
X603Y61D01*
X688Y61D02*
X703Y61D01*
X788Y61D02*
X803Y61D01*
X888Y61D02*
X903Y61D01*
X988Y61D02*
X1003Y61D01*
X1088Y61D02*
X1103Y61D01*
X1188Y61D02*
X1192Y61D01*
X31Y60D02*
X304Y60D01*
X388Y60D02*
X404Y60D01*
X488Y60D02*
X504Y60D01*
X588Y60D02*
X604Y60D01*
X688Y60D02*
X704Y60D01*
X788Y60D02*
X804Y60D01*
X888Y60D02*
X903Y60D01*
X988Y60D02*
X1003Y60D01*
X1088Y60D02*
X1103Y60D01*
X1188Y60D02*
X1192Y60D01*
X31Y59D02*
X304Y59D01*
X388Y59D02*
X404Y59D01*
X488Y59D02*
X504Y59D01*
X587Y59D02*
X604Y59D01*
X687Y59D02*
X704Y59D01*
X787Y59D02*
X804Y59D01*
X887Y59D02*
X904Y59D01*
X987Y59D02*
X1004Y59D01*
X1087Y59D02*
X1104Y59D01*
X1187Y59D02*
X1192Y59D01*
X31Y58D02*
X305Y58D01*
X387Y58D02*
X405Y58D01*
X487Y58D02*
X505Y58D01*
X587Y58D02*
X605Y58D01*
X687Y58D02*
X705Y58D01*
X787Y58D02*
X805Y58D01*
X887Y58D02*
X905Y58D01*
X987Y58D02*
X1005Y58D01*
X1087Y58D02*
X1104Y58D01*
X1187Y58D02*
X1192Y58D01*
X31Y57D02*
X306Y57D01*
X386Y57D02*
X406Y57D01*
X486Y57D02*
X505Y57D01*
X586Y57D02*
X605Y57D01*
X686Y57D02*
X705Y57D01*
X786Y57D02*
X805Y57D01*
X886Y57D02*
X905Y57D01*
X986Y57D02*
X1005Y57D01*
X1086Y57D02*
X1105Y57D01*
X1186Y57D02*
X1192Y57D01*
X31Y56D02*
X306Y56D01*
X385Y56D02*
X406Y56D01*
X485Y56D02*
X506Y56D01*
X585Y56D02*
X606Y56D01*
X685Y56D02*
X706Y56D01*
X785Y56D02*
X806Y56D01*
X885Y56D02*
X906Y56D01*
X985Y56D02*
X1006Y56D01*
X1085Y56D02*
X1106Y56D01*
X1185Y56D02*
X1192Y56D01*
X31Y55D02*
X307Y55D01*
X385Y55D02*
X407Y55D01*
X485Y55D02*
X507Y55D01*
X585Y55D02*
X607Y55D01*
X685Y55D02*
X707Y55D01*
X784Y55D02*
X807Y55D01*
X884Y55D02*
X907Y55D01*
X984Y55D02*
X1007Y55D01*
X1084Y55D02*
X1107Y55D01*
X1184Y55D02*
X1192Y55D01*
X31Y54D02*
X308Y54D01*
X384Y54D02*
X408Y54D01*
X484Y54D02*
X508Y54D01*
X584Y54D02*
X608Y54D01*
X684Y54D02*
X708Y54D01*
X784Y54D02*
X808Y54D01*
X884Y54D02*
X908Y54D01*
X984Y54D02*
X1008Y54D01*
X1084Y54D02*
X1108Y54D01*
X1183Y54D02*
X1192Y54D01*
X31Y53D02*
X309Y53D01*
X383Y53D02*
X409Y53D01*
X483Y53D02*
X509Y53D01*
X583Y53D02*
X609Y53D01*
X683Y53D02*
X709Y53D01*
X783Y53D02*
X809Y53D01*
X883Y53D02*
X908Y53D01*
X983Y53D02*
X1008Y53D01*
X1083Y53D02*
X1108Y53D01*
X1183Y53D02*
X1192Y53D01*
X31Y52D02*
X310Y52D01*
X382Y52D02*
X410Y52D01*
X482Y52D02*
X510Y52D01*
X582Y52D02*
X609Y52D01*
X682Y52D02*
X709Y52D01*
X782Y52D02*
X809Y52D01*
X882Y52D02*
X909Y52D01*
X982Y52D02*
X1009Y52D01*
X1082Y52D02*
X1109Y52D01*
X1182Y52D02*
X1192Y52D01*
X31Y51D02*
X310Y51D01*
X381Y51D02*
X410Y51D01*
X481Y51D02*
X510Y51D01*
X581Y51D02*
X610Y51D01*
X681Y51D02*
X710Y51D01*
X781Y51D02*
X810Y51D01*
X881Y51D02*
X910Y51D01*
X981Y51D02*
X1010Y51D01*
X1081Y51D02*
X1110Y51D01*
X1181Y51D02*
X1192Y51D01*
X31Y50D02*
X311Y50D01*
X380Y50D02*
X411Y50D01*
X480Y50D02*
X511Y50D01*
X580Y50D02*
X611Y50D01*
X680Y50D02*
X711Y50D01*
X780Y50D02*
X811Y50D01*
X880Y50D02*
X911Y50D01*
X980Y50D02*
X1011Y50D01*
X1080Y50D02*
X1111Y50D01*
X1180Y50D02*
X1192Y50D01*
X31Y49D02*
X313Y49D01*
X379Y49D02*
X413Y49D01*
X479Y49D02*
X513Y49D01*
X579Y49D02*
X613Y49D01*
X679Y49D02*
X712Y49D01*
X779Y49D02*
X812Y49D01*
X879Y49D02*
X912Y49D01*
X979Y49D02*
X1012Y49D01*
X1079Y49D02*
X1112Y49D01*
X1179Y49D02*
X1192Y49D01*
X31Y48D02*
X314Y48D01*
X378Y48D02*
X414Y48D01*
X478Y48D02*
X514Y48D01*
X578Y48D02*
X614Y48D01*
X678Y48D02*
X714Y48D01*
X778Y48D02*
X814Y48D01*
X878Y48D02*
X914Y48D01*
X978Y48D02*
X1014Y48D01*
X1078Y48D02*
X1113Y48D01*
X1178Y48D02*
X1192Y48D01*
X31Y47D02*
X315Y47D01*
X377Y47D02*
X415Y47D01*
X477Y47D02*
X515Y47D01*
X577Y47D02*
X615Y47D01*
X677Y47D02*
X715Y47D01*
X777Y47D02*
X815Y47D01*
X876Y47D02*
X915Y47D01*
X976Y47D02*
X1015Y47D01*
X1076Y47D02*
X1115Y47D01*
X1176Y47D02*
X1192Y47D01*
X31Y46D02*
X316Y46D01*
X375Y46D02*
X416Y46D01*
X475Y46D02*
X516Y46D01*
X575Y46D02*
X616Y46D01*
X675Y46D02*
X716Y46D01*
X775Y46D02*
X816Y46D01*
X875Y46D02*
X916Y46D01*
X975Y46D02*
X1016Y46D01*
X1075Y46D02*
X1116Y46D01*
X1175Y46D02*
X1192Y46D01*
X31Y45D02*
X318Y45D01*
X374Y45D02*
X418Y45D01*
X474Y45D02*
X518Y45D01*
X574Y45D02*
X618Y45D01*
X674Y45D02*
X717Y45D01*
X774Y45D02*
X817Y45D01*
X874Y45D02*
X917Y45D01*
X974Y45D02*
X1017Y45D01*
X1074Y45D02*
X1117Y45D01*
X1174Y45D02*
X1192Y45D01*
X31Y44D02*
X319Y44D01*
X372Y44D02*
X419Y44D01*
X472Y44D02*
X519Y44D01*
X572Y44D02*
X619Y44D01*
X672Y44D02*
X719Y44D01*
X772Y44D02*
X819Y44D01*
X872Y44D02*
X919Y44D01*
X972Y44D02*
X1019Y44D01*
X1072Y44D02*
X1119Y44D01*
X1172Y44D02*
X1192Y44D01*
X31Y43D02*
X321Y43D01*
X371Y43D02*
X421Y43D01*
X471Y43D02*
X521Y43D01*
X570Y43D02*
X621Y43D01*
X670Y43D02*
X721Y43D01*
X770Y43D02*
X821Y43D01*
X870Y43D02*
X921Y43D01*
X970Y43D02*
X1021Y43D01*
X1070Y43D02*
X1121Y43D01*
X1170Y43D02*
X1192Y43D01*
X31Y42D02*
X323Y42D01*
X369Y42D02*
X423Y42D01*
X469Y42D02*
X523Y42D01*
X569Y42D02*
X623Y42D01*
X669Y42D02*
X723Y42D01*
X769Y42D02*
X823Y42D01*
X868Y42D02*
X923Y42D01*
X968Y42D02*
X1023Y42D01*
X1068Y42D02*
X1123Y42D01*
X1168Y42D02*
X1192Y42D01*
X31Y41D02*
X325Y41D01*
X367Y41D02*
X425Y41D01*
X467Y41D02*
X525Y41D01*
X567Y41D02*
X625Y41D01*
X667Y41D02*
X725Y41D01*
X767Y41D02*
X825Y41D01*
X867Y41D02*
X925Y41D01*
X967Y41D02*
X1025Y41D01*
X1066Y41D02*
X1125Y41D01*
X1166Y41D02*
X1192Y41D01*
X31Y40D02*
X327Y40D01*
X365Y40D02*
X427Y40D01*
X465Y40D02*
X527Y40D01*
X565Y40D02*
X627Y40D01*
X665Y40D02*
X727Y40D01*
X764Y40D02*
X827Y40D01*
X864Y40D02*
X927Y40D01*
X964Y40D02*
X1027Y40D01*
X1064Y40D02*
X1127Y40D01*
X1164Y40D02*
X1192Y40D01*
X31Y39D02*
X330Y39D01*
X362Y39D02*
X430Y39D01*
X462Y39D02*
X530Y39D01*
X561Y39D02*
X630Y39D01*
X661Y39D02*
X730Y39D01*
X761Y39D02*
X830Y39D01*
X861Y39D02*
X930Y39D01*
X961Y39D02*
X1030Y39D01*
X1061Y39D02*
X1130Y39D01*
X1161Y39D02*
X1192Y39D01*
X31Y38D02*
X333Y38D01*
X358Y38D02*
X433Y38D01*
X458Y38D02*
X533Y38D01*
X558Y38D02*
X633Y38D01*
X658Y38D02*
X733Y38D01*
X758Y38D02*
X833Y38D01*
X858Y38D02*
X933Y38D01*
X958Y38D02*
X1033Y38D01*
X1058Y38D02*
X1133Y38D01*
X1158Y38D02*
X1192Y38D01*
X31Y37D02*
X337Y37D01*
X354Y37D02*
X437Y37D01*
X454Y37D02*
X537Y37D01*
X554Y37D02*
X637Y37D01*
X654Y37D02*
X737Y37D01*
X754Y37D02*
X837Y37D01*
X854Y37D02*
X937Y37D01*
X954Y37D02*
X1037Y37D01*
X1054Y37D02*
X1137Y37D01*
X1154Y37D02*
X1192Y37D01*
X31Y36D02*
X1192Y36D01*
X31Y35D02*
X1192Y35D01*
X31Y34D02*
X1192Y34D01*
X31Y33D02*
X1192Y33D01*
X31Y32D02*
X1192Y32D01*
X32Y31D02*
X1191Y31D01*
D02*
G04 End of Copper0*
M02*