G04 MADE WITH FRITZING*
G04 WWW.FRITZING.ORG*
G04 DOUBLE SIDED*
G04 HOLES PLATED*
G04 CONTOUR ON CENTER OF CONTOUR VECTOR*
%ASAXBY*%
%FSLAX23Y23*%
%MOIN*%
%OFA0B0*%
%SFA1.0B1.0*%
%ADD10C,0.010000*%
%ADD11C,0.008000*%
%ADD12R,0.001000X0.001000*%
%LNSILK1*%
G90*
G70*
G54D10*
X756Y369D02*
X756Y509D01*
D02*
X475Y293D02*
X475Y493D01*
D02*
X475Y493D02*
X541Y493D01*
D02*
X541Y493D02*
X541Y293D01*
D02*
X541Y293D02*
X475Y293D01*
D02*
X375Y496D02*
X375Y296D01*
D02*
X375Y296D02*
X309Y296D01*
D02*
X309Y296D02*
X309Y496D01*
D02*
X309Y496D02*
X375Y496D01*
D02*
X1034Y487D02*
X1034Y287D01*
D02*
X1034Y287D02*
X968Y287D01*
D02*
X968Y287D02*
X968Y487D01*
D02*
X968Y487D02*
X1034Y487D01*
D02*
X733Y474D02*
X733Y274D01*
D02*
X733Y274D02*
X667Y274D01*
D02*
X667Y274D02*
X667Y474D01*
D02*
X667Y474D02*
X733Y474D01*
G54D11*
D02*
X560Y334D02*
X560Y534D01*
D02*
X560Y534D02*
X590Y534D01*
D02*
X590Y534D02*
X620Y534D01*
D02*
X620Y534D02*
X620Y334D01*
D02*
X620Y334D02*
X590Y334D01*
D02*
X590Y334D02*
X560Y334D01*
D02*
X565Y509D02*
X615Y509D01*
D02*
X395Y334D02*
X395Y534D01*
D02*
X395Y534D02*
X425Y534D01*
D02*
X425Y534D02*
X455Y534D01*
D02*
X455Y534D02*
X455Y334D01*
D02*
X455Y334D02*
X425Y334D01*
D02*
X425Y334D02*
X395Y334D01*
D02*
X400Y509D02*
X450Y509D01*
G54D10*
D02*
X1180Y212D02*
X1180Y512D01*
D02*
X1180Y512D02*
X1080Y512D01*
D02*
X1080Y512D02*
X1080Y212D01*
D02*
X1080Y212D02*
X1180Y212D01*
G54D12*
X1Y777D02*
X1222Y777D01*
X1Y776D02*
X1222Y776D01*
X1Y775D02*
X1222Y775D01*
X1Y774D02*
X1222Y774D01*
X1Y773D02*
X1222Y773D01*
X1Y772D02*
X1222Y772D01*
X1Y771D02*
X1222Y771D01*
X1Y770D02*
X1222Y770D01*
X1Y769D02*
X8Y769D01*
X245Y769D02*
X252Y769D01*
X1215Y769D02*
X1222Y769D01*
X1Y768D02*
X8Y768D01*
X245Y768D02*
X252Y768D01*
X1215Y768D02*
X1222Y768D01*
X1Y767D02*
X8Y767D01*
X245Y767D02*
X252Y767D01*
X1215Y767D02*
X1222Y767D01*
X1Y766D02*
X8Y766D01*
X245Y766D02*
X252Y766D01*
X1215Y766D02*
X1222Y766D01*
X1Y765D02*
X8Y765D01*
X245Y765D02*
X252Y765D01*
X1215Y765D02*
X1222Y765D01*
X1Y764D02*
X8Y764D01*
X245Y764D02*
X252Y764D01*
X1215Y764D02*
X1222Y764D01*
X1Y763D02*
X8Y763D01*
X245Y763D02*
X252Y763D01*
X1215Y763D02*
X1222Y763D01*
X1Y762D02*
X8Y762D01*
X245Y762D02*
X252Y762D01*
X1215Y762D02*
X1222Y762D01*
X1Y761D02*
X8Y761D01*
X245Y761D02*
X252Y761D01*
X1215Y761D02*
X1222Y761D01*
X1Y760D02*
X8Y760D01*
X245Y760D02*
X252Y760D01*
X1215Y760D02*
X1222Y760D01*
X1Y759D02*
X8Y759D01*
X245Y759D02*
X252Y759D01*
X1215Y759D02*
X1222Y759D01*
X1Y758D02*
X8Y758D01*
X245Y758D02*
X252Y758D01*
X1215Y758D02*
X1222Y758D01*
X1Y757D02*
X8Y757D01*
X245Y757D02*
X252Y757D01*
X1215Y757D02*
X1222Y757D01*
X1Y756D02*
X8Y756D01*
X245Y756D02*
X252Y756D01*
X1215Y756D02*
X1222Y756D01*
X1Y755D02*
X8Y755D01*
X245Y755D02*
X252Y755D01*
X1215Y755D02*
X1222Y755D01*
X1Y754D02*
X8Y754D01*
X245Y754D02*
X252Y754D01*
X1215Y754D02*
X1222Y754D01*
X1Y753D02*
X8Y753D01*
X245Y753D02*
X252Y753D01*
X1215Y753D02*
X1222Y753D01*
X1Y752D02*
X8Y752D01*
X245Y752D02*
X252Y752D01*
X1215Y752D02*
X1222Y752D01*
X1Y751D02*
X8Y751D01*
X245Y751D02*
X252Y751D01*
X1215Y751D02*
X1222Y751D01*
X1Y750D02*
X8Y750D01*
X245Y750D02*
X252Y750D01*
X1215Y750D02*
X1222Y750D01*
X1Y749D02*
X8Y749D01*
X245Y749D02*
X252Y749D01*
X1215Y749D02*
X1222Y749D01*
X1Y748D02*
X8Y748D01*
X245Y748D02*
X252Y748D01*
X1215Y748D02*
X1222Y748D01*
X1Y747D02*
X8Y747D01*
X245Y747D02*
X252Y747D01*
X1215Y747D02*
X1222Y747D01*
X1Y746D02*
X8Y746D01*
X245Y746D02*
X252Y746D01*
X1215Y746D02*
X1222Y746D01*
X1Y745D02*
X8Y745D01*
X245Y745D02*
X252Y745D01*
X1215Y745D02*
X1222Y745D01*
X1Y744D02*
X8Y744D01*
X245Y744D02*
X252Y744D01*
X1215Y744D02*
X1222Y744D01*
X1Y743D02*
X8Y743D01*
X245Y743D02*
X252Y743D01*
X271Y743D02*
X1205Y743D01*
X1215Y743D02*
X1222Y743D01*
X1Y742D02*
X8Y742D01*
X245Y742D02*
X252Y742D01*
X271Y742D02*
X1205Y742D01*
X1215Y742D02*
X1222Y742D01*
X1Y741D02*
X8Y741D01*
X245Y741D02*
X252Y741D01*
X271Y741D02*
X1205Y741D01*
X1215Y741D02*
X1222Y741D01*
X1Y740D02*
X8Y740D01*
X245Y740D02*
X252Y740D01*
X271Y740D02*
X1205Y740D01*
X1215Y740D02*
X1222Y740D01*
X1Y739D02*
X8Y739D01*
X245Y739D02*
X252Y739D01*
X271Y739D02*
X1205Y739D01*
X1215Y739D02*
X1222Y739D01*
X1Y738D02*
X8Y738D01*
X245Y738D02*
X252Y738D01*
X271Y738D02*
X1205Y738D01*
X1215Y738D02*
X1222Y738D01*
X1Y737D02*
X8Y737D01*
X245Y737D02*
X252Y737D01*
X271Y737D02*
X1205Y737D01*
X1215Y737D02*
X1222Y737D01*
X1Y736D02*
X8Y736D01*
X245Y736D02*
X252Y736D01*
X271Y736D02*
X1205Y736D01*
X1215Y736D02*
X1222Y736D01*
X1Y735D02*
X8Y735D01*
X245Y735D02*
X252Y735D01*
X271Y735D02*
X1205Y735D01*
X1215Y735D02*
X1222Y735D01*
X1Y734D02*
X8Y734D01*
X245Y734D02*
X252Y734D01*
X271Y734D02*
X1205Y734D01*
X1215Y734D02*
X1222Y734D01*
X1Y733D02*
X8Y733D01*
X245Y733D02*
X252Y733D01*
X271Y733D02*
X280Y733D01*
X1196Y733D02*
X1205Y733D01*
X1215Y733D02*
X1222Y733D01*
X1Y732D02*
X8Y732D01*
X245Y732D02*
X252Y732D01*
X271Y732D02*
X280Y732D01*
X1196Y732D02*
X1205Y732D01*
X1215Y732D02*
X1222Y732D01*
X1Y731D02*
X8Y731D01*
X245Y731D02*
X252Y731D01*
X271Y731D02*
X280Y731D01*
X1196Y731D02*
X1205Y731D01*
X1215Y731D02*
X1222Y731D01*
X1Y730D02*
X8Y730D01*
X245Y730D02*
X252Y730D01*
X271Y730D02*
X280Y730D01*
X1196Y730D02*
X1205Y730D01*
X1215Y730D02*
X1222Y730D01*
X1Y729D02*
X8Y729D01*
X15Y729D02*
X32Y729D01*
X245Y729D02*
X252Y729D01*
X271Y729D02*
X280Y729D01*
X1196Y729D02*
X1205Y729D01*
X1215Y729D02*
X1222Y729D01*
X1Y728D02*
X8Y728D01*
X14Y728D02*
X33Y728D01*
X245Y728D02*
X252Y728D01*
X271Y728D02*
X280Y728D01*
X1196Y728D02*
X1205Y728D01*
X1215Y728D02*
X1222Y728D01*
X1Y727D02*
X8Y727D01*
X14Y727D02*
X34Y727D01*
X245Y727D02*
X252Y727D01*
X271Y727D02*
X280Y727D01*
X1196Y727D02*
X1205Y727D01*
X1215Y727D02*
X1222Y727D01*
X1Y726D02*
X8Y726D01*
X14Y726D02*
X15Y726D01*
X32Y726D02*
X34Y726D01*
X245Y726D02*
X252Y726D01*
X271Y726D02*
X280Y726D01*
X1196Y726D02*
X1205Y726D01*
X1215Y726D02*
X1222Y726D01*
X1Y725D02*
X8Y725D01*
X14Y725D02*
X15Y725D01*
X32Y725D02*
X34Y725D01*
X245Y725D02*
X252Y725D01*
X271Y725D02*
X280Y725D01*
X1196Y725D02*
X1205Y725D01*
X1215Y725D02*
X1222Y725D01*
X1Y724D02*
X8Y724D01*
X14Y724D02*
X15Y724D01*
X32Y724D02*
X34Y724D01*
X245Y724D02*
X252Y724D01*
X271Y724D02*
X280Y724D01*
X1196Y724D02*
X1205Y724D01*
X1215Y724D02*
X1222Y724D01*
X1Y723D02*
X8Y723D01*
X14Y723D02*
X15Y723D01*
X32Y723D02*
X34Y723D01*
X245Y723D02*
X252Y723D01*
X271Y723D02*
X280Y723D01*
X1196Y723D02*
X1205Y723D01*
X1215Y723D02*
X1222Y723D01*
X1Y722D02*
X8Y722D01*
X14Y722D02*
X15Y722D01*
X32Y722D02*
X34Y722D01*
X245Y722D02*
X252Y722D01*
X271Y722D02*
X280Y722D01*
X1196Y722D02*
X1205Y722D01*
X1215Y722D02*
X1222Y722D01*
X1Y721D02*
X8Y721D01*
X14Y721D02*
X15Y721D01*
X32Y721D02*
X34Y721D01*
X245Y721D02*
X252Y721D01*
X271Y721D02*
X280Y721D01*
X1196Y721D02*
X1205Y721D01*
X1215Y721D02*
X1222Y721D01*
X1Y720D02*
X8Y720D01*
X14Y720D02*
X15Y720D01*
X32Y720D02*
X34Y720D01*
X245Y720D02*
X252Y720D01*
X271Y720D02*
X280Y720D01*
X1196Y720D02*
X1205Y720D01*
X1215Y720D02*
X1222Y720D01*
X1Y719D02*
X8Y719D01*
X14Y719D02*
X15Y719D01*
X32Y719D02*
X34Y719D01*
X245Y719D02*
X252Y719D01*
X271Y719D02*
X280Y719D01*
X1196Y719D02*
X1205Y719D01*
X1215Y719D02*
X1222Y719D01*
X1Y718D02*
X8Y718D01*
X14Y718D02*
X34Y718D01*
X245Y718D02*
X252Y718D01*
X271Y718D02*
X280Y718D01*
X1196Y718D02*
X1205Y718D01*
X1215Y718D02*
X1222Y718D01*
X1Y717D02*
X8Y717D01*
X14Y717D02*
X33Y717D01*
X245Y717D02*
X252Y717D01*
X271Y717D02*
X280Y717D01*
X1196Y717D02*
X1205Y717D01*
X1215Y717D02*
X1222Y717D01*
X1Y716D02*
X8Y716D01*
X16Y716D02*
X32Y716D01*
X245Y716D02*
X252Y716D01*
X271Y716D02*
X280Y716D01*
X1196Y716D02*
X1205Y716D01*
X1215Y716D02*
X1222Y716D01*
X1Y715D02*
X8Y715D01*
X245Y715D02*
X252Y715D01*
X271Y715D02*
X280Y715D01*
X1196Y715D02*
X1205Y715D01*
X1215Y715D02*
X1222Y715D01*
X1Y714D02*
X8Y714D01*
X245Y714D02*
X252Y714D01*
X271Y714D02*
X280Y714D01*
X1196Y714D02*
X1205Y714D01*
X1215Y714D02*
X1222Y714D01*
X1Y713D02*
X8Y713D01*
X245Y713D02*
X252Y713D01*
X271Y713D02*
X280Y713D01*
X1196Y713D02*
X1205Y713D01*
X1215Y713D02*
X1222Y713D01*
X1Y712D02*
X8Y712D01*
X245Y712D02*
X252Y712D01*
X271Y712D02*
X280Y712D01*
X1196Y712D02*
X1205Y712D01*
X1215Y712D02*
X1222Y712D01*
X1Y711D02*
X8Y711D01*
X245Y711D02*
X252Y711D01*
X271Y711D02*
X280Y711D01*
X1196Y711D02*
X1205Y711D01*
X1215Y711D02*
X1222Y711D01*
X1Y710D02*
X8Y710D01*
X245Y710D02*
X252Y710D01*
X271Y710D02*
X280Y710D01*
X1196Y710D02*
X1205Y710D01*
X1215Y710D02*
X1222Y710D01*
X1Y709D02*
X8Y709D01*
X245Y709D02*
X252Y709D01*
X271Y709D02*
X280Y709D01*
X1196Y709D02*
X1205Y709D01*
X1215Y709D02*
X1222Y709D01*
X1Y708D02*
X8Y708D01*
X245Y708D02*
X252Y708D01*
X271Y708D02*
X280Y708D01*
X1196Y708D02*
X1205Y708D01*
X1215Y708D02*
X1222Y708D01*
X1Y707D02*
X8Y707D01*
X245Y707D02*
X252Y707D01*
X271Y707D02*
X280Y707D01*
X1196Y707D02*
X1205Y707D01*
X1215Y707D02*
X1222Y707D01*
X1Y706D02*
X8Y706D01*
X245Y706D02*
X252Y706D01*
X271Y706D02*
X280Y706D01*
X1196Y706D02*
X1205Y706D01*
X1215Y706D02*
X1222Y706D01*
X1Y705D02*
X8Y705D01*
X28Y705D02*
X31Y705D01*
X245Y705D02*
X252Y705D01*
X271Y705D02*
X280Y705D01*
X1196Y705D02*
X1205Y705D01*
X1215Y705D02*
X1222Y705D01*
X1Y704D02*
X8Y704D01*
X28Y704D02*
X32Y704D01*
X245Y704D02*
X252Y704D01*
X271Y704D02*
X280Y704D01*
X1196Y704D02*
X1205Y704D01*
X1215Y704D02*
X1222Y704D01*
X1Y703D02*
X8Y703D01*
X28Y703D02*
X32Y703D01*
X245Y703D02*
X252Y703D01*
X271Y703D02*
X280Y703D01*
X1196Y703D02*
X1205Y703D01*
X1215Y703D02*
X1222Y703D01*
X1Y702D02*
X8Y702D01*
X28Y702D02*
X32Y702D01*
X245Y702D02*
X252Y702D01*
X271Y702D02*
X280Y702D01*
X1196Y702D02*
X1205Y702D01*
X1215Y702D02*
X1222Y702D01*
X1Y701D02*
X8Y701D01*
X28Y701D02*
X32Y701D01*
X245Y701D02*
X252Y701D01*
X271Y701D02*
X280Y701D01*
X1196Y701D02*
X1205Y701D01*
X1215Y701D02*
X1222Y701D01*
X1Y700D02*
X8Y700D01*
X245Y700D02*
X252Y700D01*
X271Y700D02*
X280Y700D01*
X1196Y700D02*
X1205Y700D01*
X1215Y700D02*
X1222Y700D01*
X1Y699D02*
X8Y699D01*
X245Y699D02*
X252Y699D01*
X271Y699D02*
X280Y699D01*
X1196Y699D02*
X1205Y699D01*
X1215Y699D02*
X1222Y699D01*
X1Y698D02*
X8Y698D01*
X245Y698D02*
X252Y698D01*
X271Y698D02*
X280Y698D01*
X1196Y698D02*
X1205Y698D01*
X1215Y698D02*
X1222Y698D01*
X1Y697D02*
X8Y697D01*
X245Y697D02*
X252Y697D01*
X271Y697D02*
X280Y697D01*
X1196Y697D02*
X1205Y697D01*
X1215Y697D02*
X1222Y697D01*
X1Y696D02*
X8Y696D01*
X245Y696D02*
X252Y696D01*
X271Y696D02*
X280Y696D01*
X1196Y696D02*
X1205Y696D01*
X1215Y696D02*
X1222Y696D01*
X1Y695D02*
X8Y695D01*
X245Y695D02*
X252Y695D01*
X271Y695D02*
X280Y695D01*
X1196Y695D02*
X1205Y695D01*
X1215Y695D02*
X1222Y695D01*
X1Y694D02*
X8Y694D01*
X245Y694D02*
X252Y694D01*
X271Y694D02*
X280Y694D01*
X1196Y694D02*
X1205Y694D01*
X1215Y694D02*
X1222Y694D01*
X1Y693D02*
X8Y693D01*
X245Y693D02*
X252Y693D01*
X271Y693D02*
X280Y693D01*
X1196Y693D02*
X1205Y693D01*
X1215Y693D02*
X1222Y693D01*
X1Y692D02*
X8Y692D01*
X245Y692D02*
X252Y692D01*
X271Y692D02*
X280Y692D01*
X1196Y692D02*
X1205Y692D01*
X1215Y692D02*
X1222Y692D01*
X1Y691D02*
X8Y691D01*
X245Y691D02*
X252Y691D01*
X271Y691D02*
X280Y691D01*
X1196Y691D02*
X1205Y691D01*
X1215Y691D02*
X1222Y691D01*
X1Y690D02*
X8Y690D01*
X16Y690D02*
X22Y690D01*
X245Y690D02*
X252Y690D01*
X271Y690D02*
X280Y690D01*
X1196Y690D02*
X1205Y690D01*
X1215Y690D02*
X1222Y690D01*
X1Y689D02*
X8Y689D01*
X14Y689D02*
X24Y689D01*
X32Y689D02*
X34Y689D01*
X245Y689D02*
X252Y689D01*
X271Y689D02*
X280Y689D01*
X1196Y689D02*
X1205Y689D01*
X1215Y689D02*
X1222Y689D01*
X1Y688D02*
X8Y688D01*
X14Y688D02*
X24Y688D01*
X32Y688D02*
X34Y688D01*
X245Y688D02*
X252Y688D01*
X271Y688D02*
X280Y688D01*
X1196Y688D02*
X1205Y688D01*
X1215Y688D02*
X1222Y688D01*
X1Y687D02*
X8Y687D01*
X14Y687D02*
X15Y687D01*
X23Y687D02*
X25Y687D01*
X32Y687D02*
X34Y687D01*
X245Y687D02*
X252Y687D01*
X271Y687D02*
X280Y687D01*
X1196Y687D02*
X1205Y687D01*
X1215Y687D02*
X1222Y687D01*
X1Y686D02*
X8Y686D01*
X14Y686D02*
X15Y686D01*
X23Y686D02*
X25Y686D01*
X32Y686D02*
X34Y686D01*
X245Y686D02*
X252Y686D01*
X271Y686D02*
X280Y686D01*
X1196Y686D02*
X1205Y686D01*
X1215Y686D02*
X1222Y686D01*
X1Y685D02*
X8Y685D01*
X14Y685D02*
X15Y685D01*
X23Y685D02*
X25Y685D01*
X32Y685D02*
X34Y685D01*
X245Y685D02*
X252Y685D01*
X271Y685D02*
X280Y685D01*
X1196Y685D02*
X1205Y685D01*
X1215Y685D02*
X1222Y685D01*
X1Y684D02*
X8Y684D01*
X14Y684D02*
X15Y684D01*
X23Y684D02*
X25Y684D01*
X32Y684D02*
X34Y684D01*
X245Y684D02*
X252Y684D01*
X271Y684D02*
X280Y684D01*
X1196Y684D02*
X1205Y684D01*
X1215Y684D02*
X1222Y684D01*
X1Y683D02*
X8Y683D01*
X14Y683D02*
X15Y683D01*
X23Y683D02*
X25Y683D01*
X32Y683D02*
X34Y683D01*
X245Y683D02*
X252Y683D01*
X271Y683D02*
X280Y683D01*
X1196Y683D02*
X1205Y683D01*
X1215Y683D02*
X1222Y683D01*
X1Y682D02*
X8Y682D01*
X14Y682D02*
X15Y682D01*
X23Y682D02*
X25Y682D01*
X32Y682D02*
X34Y682D01*
X245Y682D02*
X252Y682D01*
X271Y682D02*
X280Y682D01*
X1196Y682D02*
X1205Y682D01*
X1215Y682D02*
X1222Y682D01*
X1Y681D02*
X8Y681D01*
X14Y681D02*
X15Y681D01*
X23Y681D02*
X25Y681D01*
X32Y681D02*
X34Y681D01*
X245Y681D02*
X252Y681D01*
X271Y681D02*
X280Y681D01*
X1196Y681D02*
X1205Y681D01*
X1215Y681D02*
X1222Y681D01*
X1Y680D02*
X8Y680D01*
X14Y680D02*
X15Y680D01*
X23Y680D02*
X25Y680D01*
X32Y680D02*
X34Y680D01*
X245Y680D02*
X252Y680D01*
X271Y680D02*
X280Y680D01*
X1196Y680D02*
X1205Y680D01*
X1215Y680D02*
X1222Y680D01*
X1Y679D02*
X8Y679D01*
X14Y679D02*
X15Y679D01*
X23Y679D02*
X34Y679D01*
X245Y679D02*
X252Y679D01*
X271Y679D02*
X280Y679D01*
X1196Y679D02*
X1205Y679D01*
X1215Y679D02*
X1222Y679D01*
X1Y678D02*
X8Y678D01*
X14Y678D02*
X15Y678D01*
X23Y678D02*
X34Y678D01*
X245Y678D02*
X252Y678D01*
X271Y678D02*
X280Y678D01*
X1196Y678D02*
X1205Y678D01*
X1215Y678D02*
X1222Y678D01*
X1Y677D02*
X8Y677D01*
X14Y677D02*
X15Y677D01*
X24Y677D02*
X34Y677D01*
X245Y677D02*
X252Y677D01*
X271Y677D02*
X280Y677D01*
X1196Y677D02*
X1205Y677D01*
X1215Y677D02*
X1222Y677D01*
X1Y676D02*
X8Y676D01*
X245Y676D02*
X252Y676D01*
X271Y676D02*
X280Y676D01*
X1196Y676D02*
X1205Y676D01*
X1215Y676D02*
X1222Y676D01*
X1Y675D02*
X8Y675D01*
X245Y675D02*
X252Y675D01*
X271Y675D02*
X280Y675D01*
X1196Y675D02*
X1205Y675D01*
X1215Y675D02*
X1222Y675D01*
X1Y674D02*
X8Y674D01*
X245Y674D02*
X252Y674D01*
X271Y674D02*
X280Y674D01*
X1196Y674D02*
X1205Y674D01*
X1215Y674D02*
X1222Y674D01*
X1Y673D02*
X8Y673D01*
X245Y673D02*
X252Y673D01*
X271Y673D02*
X280Y673D01*
X1196Y673D02*
X1205Y673D01*
X1215Y673D02*
X1222Y673D01*
X1Y672D02*
X8Y672D01*
X245Y672D02*
X252Y672D01*
X271Y672D02*
X280Y672D01*
X1196Y672D02*
X1205Y672D01*
X1215Y672D02*
X1222Y672D01*
X1Y671D02*
X8Y671D01*
X245Y671D02*
X252Y671D01*
X271Y671D02*
X280Y671D01*
X1196Y671D02*
X1205Y671D01*
X1215Y671D02*
X1222Y671D01*
X1Y670D02*
X8Y670D01*
X20Y670D02*
X23Y670D01*
X245Y670D02*
X252Y670D01*
X271Y670D02*
X280Y670D01*
X1196Y670D02*
X1205Y670D01*
X1215Y670D02*
X1222Y670D01*
X1Y669D02*
X8Y669D01*
X19Y669D02*
X25Y669D01*
X245Y669D02*
X252Y669D01*
X271Y669D02*
X280Y669D01*
X1196Y669D02*
X1205Y669D01*
X1215Y669D02*
X1222Y669D01*
X1Y668D02*
X8Y668D01*
X20Y668D02*
X28Y668D01*
X245Y668D02*
X252Y668D01*
X271Y668D02*
X280Y668D01*
X1196Y668D02*
X1205Y668D01*
X1215Y668D02*
X1222Y668D01*
X1Y667D02*
X8Y667D01*
X24Y667D02*
X30Y667D01*
X245Y667D02*
X252Y667D01*
X271Y667D02*
X280Y667D01*
X1196Y667D02*
X1205Y667D01*
X1215Y667D02*
X1222Y667D01*
X1Y666D02*
X8Y666D01*
X26Y666D02*
X32Y666D01*
X245Y666D02*
X252Y666D01*
X271Y666D02*
X280Y666D01*
X1196Y666D02*
X1205Y666D01*
X1215Y666D02*
X1222Y666D01*
X1Y665D02*
X8Y665D01*
X29Y665D02*
X34Y665D01*
X245Y665D02*
X252Y665D01*
X271Y665D02*
X280Y665D01*
X1196Y665D02*
X1205Y665D01*
X1215Y665D02*
X1222Y665D01*
X1Y664D02*
X8Y664D01*
X31Y664D02*
X34Y664D01*
X245Y664D02*
X252Y664D01*
X271Y664D02*
X280Y664D01*
X1196Y664D02*
X1205Y664D01*
X1215Y664D02*
X1222Y664D01*
X1Y663D02*
X8Y663D01*
X31Y663D02*
X34Y663D01*
X245Y663D02*
X252Y663D01*
X271Y663D02*
X280Y663D01*
X1196Y663D02*
X1205Y663D01*
X1215Y663D02*
X1222Y663D01*
X1Y662D02*
X8Y662D01*
X28Y662D02*
X34Y662D01*
X245Y662D02*
X252Y662D01*
X271Y662D02*
X280Y662D01*
X1196Y662D02*
X1205Y662D01*
X1215Y662D02*
X1222Y662D01*
X1Y661D02*
X8Y661D01*
X26Y661D02*
X32Y661D01*
X245Y661D02*
X252Y661D01*
X271Y661D02*
X280Y661D01*
X1196Y661D02*
X1205Y661D01*
X1215Y661D02*
X1222Y661D01*
X1Y660D02*
X8Y660D01*
X24Y660D02*
X30Y660D01*
X245Y660D02*
X252Y660D01*
X271Y660D02*
X280Y660D01*
X1196Y660D02*
X1205Y660D01*
X1215Y660D02*
X1222Y660D01*
X1Y659D02*
X8Y659D01*
X20Y659D02*
X27Y659D01*
X245Y659D02*
X252Y659D01*
X271Y659D02*
X280Y659D01*
X1196Y659D02*
X1205Y659D01*
X1215Y659D02*
X1222Y659D01*
X1Y658D02*
X8Y658D01*
X19Y658D02*
X25Y658D01*
X245Y658D02*
X252Y658D01*
X271Y658D02*
X280Y658D01*
X1196Y658D02*
X1205Y658D01*
X1215Y658D02*
X1222Y658D01*
X1Y657D02*
X8Y657D01*
X20Y657D02*
X23Y657D01*
X245Y657D02*
X252Y657D01*
X271Y657D02*
X280Y657D01*
X1196Y657D02*
X1205Y657D01*
X1215Y657D02*
X1222Y657D01*
X1Y656D02*
X8Y656D01*
X245Y656D02*
X252Y656D01*
X271Y656D02*
X280Y656D01*
X1196Y656D02*
X1205Y656D01*
X1215Y656D02*
X1222Y656D01*
X1Y655D02*
X8Y655D01*
X245Y655D02*
X252Y655D01*
X271Y655D02*
X280Y655D01*
X1196Y655D02*
X1205Y655D01*
X1215Y655D02*
X1222Y655D01*
X1Y654D02*
X8Y654D01*
X245Y654D02*
X252Y654D01*
X271Y654D02*
X280Y654D01*
X1196Y654D02*
X1205Y654D01*
X1215Y654D02*
X1222Y654D01*
X1Y653D02*
X8Y653D01*
X245Y653D02*
X252Y653D01*
X271Y653D02*
X280Y653D01*
X1196Y653D02*
X1205Y653D01*
X1215Y653D02*
X1222Y653D01*
X1Y652D02*
X8Y652D01*
X245Y652D02*
X252Y652D01*
X271Y652D02*
X280Y652D01*
X1196Y652D02*
X1205Y652D01*
X1215Y652D02*
X1222Y652D01*
X1Y651D02*
X8Y651D01*
X245Y651D02*
X252Y651D01*
X271Y651D02*
X280Y651D01*
X1196Y651D02*
X1205Y651D01*
X1215Y651D02*
X1222Y651D01*
X1Y650D02*
X8Y650D01*
X245Y650D02*
X252Y650D01*
X271Y650D02*
X280Y650D01*
X1196Y650D02*
X1205Y650D01*
X1215Y650D02*
X1222Y650D01*
X1Y649D02*
X8Y649D01*
X245Y649D02*
X252Y649D01*
X271Y649D02*
X280Y649D01*
X1196Y649D02*
X1205Y649D01*
X1215Y649D02*
X1222Y649D01*
X1Y648D02*
X8Y648D01*
X245Y648D02*
X252Y648D01*
X271Y648D02*
X280Y648D01*
X1196Y648D02*
X1205Y648D01*
X1215Y648D02*
X1222Y648D01*
X1Y647D02*
X8Y647D01*
X245Y647D02*
X252Y647D01*
X271Y647D02*
X280Y647D01*
X1196Y647D02*
X1205Y647D01*
X1215Y647D02*
X1222Y647D01*
X1Y646D02*
X8Y646D01*
X245Y646D02*
X252Y646D01*
X271Y646D02*
X280Y646D01*
X1196Y646D02*
X1205Y646D01*
X1215Y646D02*
X1222Y646D01*
X1Y645D02*
X8Y645D01*
X245Y645D02*
X252Y645D01*
X271Y645D02*
X280Y645D01*
X1196Y645D02*
X1205Y645D01*
X1215Y645D02*
X1222Y645D01*
X1Y644D02*
X8Y644D01*
X245Y644D02*
X252Y644D01*
X271Y644D02*
X280Y644D01*
X1196Y644D02*
X1205Y644D01*
X1215Y644D02*
X1222Y644D01*
X1Y643D02*
X8Y643D01*
X245Y643D02*
X252Y643D01*
X271Y643D02*
X280Y643D01*
X1196Y643D02*
X1205Y643D01*
X1215Y643D02*
X1222Y643D01*
X1Y642D02*
X8Y642D01*
X245Y642D02*
X252Y642D01*
X271Y642D02*
X280Y642D01*
X1196Y642D02*
X1205Y642D01*
X1215Y642D02*
X1222Y642D01*
X1Y641D02*
X8Y641D01*
X245Y641D02*
X252Y641D01*
X271Y641D02*
X280Y641D01*
X1196Y641D02*
X1205Y641D01*
X1215Y641D02*
X1222Y641D01*
X1Y640D02*
X8Y640D01*
X245Y640D02*
X252Y640D01*
X271Y640D02*
X280Y640D01*
X1196Y640D02*
X1205Y640D01*
X1215Y640D02*
X1222Y640D01*
X1Y639D02*
X8Y639D01*
X245Y639D02*
X252Y639D01*
X271Y639D02*
X280Y639D01*
X1196Y639D02*
X1205Y639D01*
X1215Y639D02*
X1222Y639D01*
X1Y638D02*
X8Y638D01*
X245Y638D02*
X252Y638D01*
X271Y638D02*
X280Y638D01*
X1196Y638D02*
X1205Y638D01*
X1215Y638D02*
X1222Y638D01*
X1Y637D02*
X8Y637D01*
X245Y637D02*
X252Y637D01*
X271Y637D02*
X280Y637D01*
X1196Y637D02*
X1205Y637D01*
X1215Y637D02*
X1222Y637D01*
X1Y636D02*
X8Y636D01*
X245Y636D02*
X252Y636D01*
X271Y636D02*
X280Y636D01*
X1196Y636D02*
X1205Y636D01*
X1215Y636D02*
X1222Y636D01*
X1Y635D02*
X8Y635D01*
X245Y635D02*
X252Y635D01*
X271Y635D02*
X280Y635D01*
X1196Y635D02*
X1205Y635D01*
X1215Y635D02*
X1222Y635D01*
X1Y634D02*
X8Y634D01*
X245Y634D02*
X252Y634D01*
X271Y634D02*
X280Y634D01*
X1196Y634D02*
X1205Y634D01*
X1215Y634D02*
X1222Y634D01*
X1Y633D02*
X8Y633D01*
X245Y633D02*
X252Y633D01*
X271Y633D02*
X280Y633D01*
X1196Y633D02*
X1205Y633D01*
X1215Y633D02*
X1222Y633D01*
X1Y632D02*
X8Y632D01*
X245Y632D02*
X252Y632D01*
X271Y632D02*
X280Y632D01*
X1196Y632D02*
X1205Y632D01*
X1215Y632D02*
X1222Y632D01*
X1Y631D02*
X8Y631D01*
X245Y631D02*
X252Y631D01*
X271Y631D02*
X280Y631D01*
X1196Y631D02*
X1205Y631D01*
X1215Y631D02*
X1222Y631D01*
X1Y630D02*
X8Y630D01*
X26Y630D02*
X26Y630D01*
X245Y630D02*
X252Y630D01*
X271Y630D02*
X280Y630D01*
X1196Y630D02*
X1205Y630D01*
X1215Y630D02*
X1222Y630D01*
X1Y629D02*
X8Y629D01*
X25Y629D02*
X27Y629D01*
X245Y629D02*
X252Y629D01*
X271Y629D02*
X280Y629D01*
X1196Y629D02*
X1205Y629D01*
X1215Y629D02*
X1222Y629D01*
X1Y628D02*
X8Y628D01*
X16Y628D02*
X34Y628D01*
X245Y628D02*
X252Y628D01*
X271Y628D02*
X280Y628D01*
X1196Y628D02*
X1205Y628D01*
X1215Y628D02*
X1222Y628D01*
X1Y627D02*
X8Y627D01*
X16Y627D02*
X34Y627D01*
X245Y627D02*
X252Y627D01*
X271Y627D02*
X280Y627D01*
X1196Y627D02*
X1205Y627D01*
X1215Y627D02*
X1222Y627D01*
X1Y626D02*
X8Y626D01*
X25Y626D02*
X27Y626D01*
X245Y626D02*
X252Y626D01*
X271Y626D02*
X280Y626D01*
X1196Y626D02*
X1205Y626D01*
X1215Y626D02*
X1222Y626D01*
X1Y625D02*
X8Y625D01*
X25Y625D02*
X27Y625D01*
X245Y625D02*
X252Y625D01*
X271Y625D02*
X280Y625D01*
X1196Y625D02*
X1205Y625D01*
X1215Y625D02*
X1222Y625D01*
X1Y624D02*
X8Y624D01*
X25Y624D02*
X27Y624D01*
X245Y624D02*
X252Y624D01*
X271Y624D02*
X280Y624D01*
X1196Y624D02*
X1205Y624D01*
X1215Y624D02*
X1222Y624D01*
X1Y623D02*
X8Y623D01*
X25Y623D02*
X27Y623D01*
X245Y623D02*
X252Y623D01*
X271Y623D02*
X280Y623D01*
X1196Y623D02*
X1205Y623D01*
X1215Y623D02*
X1222Y623D01*
X1Y622D02*
X8Y622D01*
X25Y622D02*
X27Y622D01*
X245Y622D02*
X252Y622D01*
X271Y622D02*
X280Y622D01*
X1196Y622D02*
X1205Y622D01*
X1215Y622D02*
X1222Y622D01*
X1Y621D02*
X8Y621D01*
X25Y621D02*
X27Y621D01*
X245Y621D02*
X252Y621D01*
X271Y621D02*
X280Y621D01*
X1196Y621D02*
X1205Y621D01*
X1215Y621D02*
X1222Y621D01*
X1Y620D02*
X8Y620D01*
X14Y620D02*
X27Y620D01*
X245Y620D02*
X252Y620D01*
X271Y620D02*
X280Y620D01*
X1196Y620D02*
X1205Y620D01*
X1215Y620D02*
X1222Y620D01*
X1Y619D02*
X8Y619D01*
X14Y619D02*
X27Y619D01*
X245Y619D02*
X252Y619D01*
X271Y619D02*
X280Y619D01*
X1196Y619D02*
X1205Y619D01*
X1215Y619D02*
X1222Y619D01*
X1Y618D02*
X8Y618D01*
X15Y618D02*
X26Y618D01*
X245Y618D02*
X252Y618D01*
X271Y618D02*
X280Y618D01*
X1196Y618D02*
X1205Y618D01*
X1215Y618D02*
X1222Y618D01*
X1Y617D02*
X8Y617D01*
X245Y617D02*
X252Y617D01*
X271Y617D02*
X280Y617D01*
X1196Y617D02*
X1205Y617D01*
X1215Y617D02*
X1222Y617D01*
X1Y616D02*
X8Y616D01*
X245Y616D02*
X252Y616D01*
X271Y616D02*
X280Y616D01*
X1196Y616D02*
X1205Y616D01*
X1215Y616D02*
X1222Y616D01*
X1Y615D02*
X8Y615D01*
X245Y615D02*
X252Y615D01*
X271Y615D02*
X280Y615D01*
X1196Y615D02*
X1205Y615D01*
X1215Y615D02*
X1222Y615D01*
X1Y614D02*
X8Y614D01*
X245Y614D02*
X252Y614D01*
X271Y614D02*
X280Y614D01*
X1196Y614D02*
X1205Y614D01*
X1215Y614D02*
X1222Y614D01*
X1Y613D02*
X8Y613D01*
X245Y613D02*
X252Y613D01*
X271Y613D02*
X280Y613D01*
X1196Y613D02*
X1205Y613D01*
X1215Y613D02*
X1222Y613D01*
X1Y612D02*
X8Y612D01*
X245Y612D02*
X252Y612D01*
X271Y612D02*
X280Y612D01*
X1196Y612D02*
X1205Y612D01*
X1215Y612D02*
X1222Y612D01*
X1Y611D02*
X8Y611D01*
X25Y611D02*
X33Y611D01*
X245Y611D02*
X252Y611D01*
X271Y611D02*
X280Y611D01*
X1196Y611D02*
X1205Y611D01*
X1215Y611D02*
X1222Y611D01*
X1Y610D02*
X8Y610D01*
X24Y610D02*
X34Y610D01*
X245Y610D02*
X252Y610D01*
X271Y610D02*
X280Y610D01*
X1196Y610D02*
X1205Y610D01*
X1215Y610D02*
X1222Y610D01*
X1Y609D02*
X8Y609D01*
X24Y609D02*
X34Y609D01*
X245Y609D02*
X252Y609D01*
X271Y609D02*
X280Y609D01*
X1196Y609D02*
X1205Y609D01*
X1215Y609D02*
X1222Y609D01*
X1Y608D02*
X8Y608D01*
X14Y608D02*
X15Y608D01*
X24Y608D02*
X26Y608D01*
X32Y608D02*
X34Y608D01*
X245Y608D02*
X252Y608D01*
X271Y608D02*
X280Y608D01*
X1196Y608D02*
X1205Y608D01*
X1215Y608D02*
X1222Y608D01*
X1Y607D02*
X8Y607D01*
X14Y607D02*
X15Y607D01*
X24Y607D02*
X26Y607D01*
X32Y607D02*
X34Y607D01*
X245Y607D02*
X252Y607D01*
X271Y607D02*
X280Y607D01*
X1196Y607D02*
X1205Y607D01*
X1215Y607D02*
X1222Y607D01*
X1Y606D02*
X8Y606D01*
X14Y606D02*
X15Y606D01*
X24Y606D02*
X26Y606D01*
X32Y606D02*
X34Y606D01*
X245Y606D02*
X252Y606D01*
X271Y606D02*
X280Y606D01*
X1196Y606D02*
X1205Y606D01*
X1215Y606D02*
X1222Y606D01*
X1Y605D02*
X8Y605D01*
X14Y605D02*
X15Y605D01*
X24Y605D02*
X26Y605D01*
X32Y605D02*
X34Y605D01*
X245Y605D02*
X252Y605D01*
X271Y605D02*
X280Y605D01*
X1196Y605D02*
X1205Y605D01*
X1215Y605D02*
X1222Y605D01*
X1Y604D02*
X8Y604D01*
X14Y604D02*
X15Y604D01*
X24Y604D02*
X26Y604D01*
X32Y604D02*
X34Y604D01*
X245Y604D02*
X252Y604D01*
X271Y604D02*
X280Y604D01*
X1196Y604D02*
X1205Y604D01*
X1215Y604D02*
X1222Y604D01*
X1Y603D02*
X8Y603D01*
X14Y603D02*
X15Y603D01*
X24Y603D02*
X26Y603D01*
X32Y603D02*
X34Y603D01*
X245Y603D02*
X252Y603D01*
X271Y603D02*
X280Y603D01*
X1196Y603D02*
X1205Y603D01*
X1215Y603D02*
X1222Y603D01*
X1Y602D02*
X8Y602D01*
X14Y602D02*
X15Y602D01*
X24Y602D02*
X26Y602D01*
X32Y602D02*
X34Y602D01*
X245Y602D02*
X252Y602D01*
X271Y602D02*
X280Y602D01*
X1196Y602D02*
X1205Y602D01*
X1215Y602D02*
X1222Y602D01*
X1Y601D02*
X8Y601D01*
X14Y601D02*
X15Y601D01*
X24Y601D02*
X26Y601D01*
X32Y601D02*
X34Y601D01*
X245Y601D02*
X252Y601D01*
X271Y601D02*
X280Y601D01*
X1196Y601D02*
X1205Y601D01*
X1215Y601D02*
X1222Y601D01*
X1Y600D02*
X8Y600D01*
X14Y600D02*
X34Y600D01*
X245Y600D02*
X252Y600D01*
X271Y600D02*
X280Y600D01*
X1196Y600D02*
X1205Y600D01*
X1215Y600D02*
X1222Y600D01*
X1Y599D02*
X8Y599D01*
X14Y599D02*
X34Y599D01*
X245Y599D02*
X252Y599D01*
X271Y599D02*
X280Y599D01*
X1196Y599D02*
X1205Y599D01*
X1215Y599D02*
X1222Y599D01*
X1Y598D02*
X8Y598D01*
X14Y598D02*
X33Y598D01*
X245Y598D02*
X252Y598D01*
X271Y598D02*
X280Y598D01*
X1196Y598D02*
X1205Y598D01*
X1215Y598D02*
X1222Y598D01*
X1Y597D02*
X8Y597D01*
X245Y597D02*
X252Y597D01*
X271Y597D02*
X280Y597D01*
X1196Y597D02*
X1205Y597D01*
X1215Y597D02*
X1222Y597D01*
X1Y596D02*
X8Y596D01*
X245Y596D02*
X252Y596D01*
X271Y596D02*
X280Y596D01*
X1196Y596D02*
X1205Y596D01*
X1215Y596D02*
X1222Y596D01*
X1Y595D02*
X8Y595D01*
X245Y595D02*
X252Y595D01*
X271Y595D02*
X280Y595D01*
X1196Y595D02*
X1205Y595D01*
X1215Y595D02*
X1222Y595D01*
X1Y594D02*
X8Y594D01*
X245Y594D02*
X252Y594D01*
X271Y594D02*
X280Y594D01*
X1196Y594D02*
X1205Y594D01*
X1215Y594D02*
X1222Y594D01*
X1Y593D02*
X8Y593D01*
X245Y593D02*
X252Y593D01*
X271Y593D02*
X280Y593D01*
X1196Y593D02*
X1205Y593D01*
X1215Y593D02*
X1222Y593D01*
X1Y592D02*
X8Y592D01*
X245Y592D02*
X252Y592D01*
X271Y592D02*
X280Y592D01*
X1196Y592D02*
X1205Y592D01*
X1215Y592D02*
X1222Y592D01*
X1Y591D02*
X8Y591D01*
X14Y591D02*
X15Y591D01*
X33Y591D02*
X33Y591D01*
X245Y591D02*
X252Y591D01*
X271Y591D02*
X280Y591D01*
X1196Y591D02*
X1205Y591D01*
X1215Y591D02*
X1222Y591D01*
X1Y590D02*
X8Y590D01*
X14Y590D02*
X15Y590D01*
X32Y590D02*
X34Y590D01*
X245Y590D02*
X252Y590D01*
X271Y590D02*
X280Y590D01*
X1196Y590D02*
X1205Y590D01*
X1215Y590D02*
X1222Y590D01*
X1Y589D02*
X8Y589D01*
X14Y589D02*
X15Y589D01*
X32Y589D02*
X34Y589D01*
X245Y589D02*
X252Y589D01*
X271Y589D02*
X280Y589D01*
X1196Y589D02*
X1205Y589D01*
X1215Y589D02*
X1222Y589D01*
X1Y588D02*
X8Y588D01*
X14Y588D02*
X15Y588D01*
X32Y588D02*
X34Y588D01*
X245Y588D02*
X252Y588D01*
X271Y588D02*
X280Y588D01*
X1196Y588D02*
X1205Y588D01*
X1215Y588D02*
X1222Y588D01*
X1Y587D02*
X8Y587D01*
X14Y587D02*
X15Y587D01*
X32Y587D02*
X34Y587D01*
X245Y587D02*
X252Y587D01*
X271Y587D02*
X280Y587D01*
X1196Y587D02*
X1205Y587D01*
X1215Y587D02*
X1222Y587D01*
X1Y586D02*
X8Y586D01*
X14Y586D02*
X15Y586D01*
X32Y586D02*
X34Y586D01*
X245Y586D02*
X252Y586D01*
X271Y586D02*
X280Y586D01*
X1196Y586D02*
X1205Y586D01*
X1215Y586D02*
X1222Y586D01*
X1Y585D02*
X8Y585D01*
X14Y585D02*
X15Y585D01*
X32Y585D02*
X34Y585D01*
X245Y585D02*
X252Y585D01*
X271Y585D02*
X280Y585D01*
X1196Y585D02*
X1205Y585D01*
X1215Y585D02*
X1222Y585D01*
X1Y584D02*
X8Y584D01*
X14Y584D02*
X16Y584D01*
X31Y584D02*
X34Y584D01*
X245Y584D02*
X252Y584D01*
X271Y584D02*
X280Y584D01*
X1196Y584D02*
X1205Y584D01*
X1215Y584D02*
X1222Y584D01*
X1Y583D02*
X8Y583D01*
X14Y583D02*
X18Y583D01*
X29Y583D02*
X33Y583D01*
X245Y583D02*
X252Y583D01*
X271Y583D02*
X280Y583D01*
X1196Y583D02*
X1205Y583D01*
X1215Y583D02*
X1222Y583D01*
X1Y582D02*
X8Y582D01*
X15Y582D02*
X20Y582D01*
X28Y582D02*
X32Y582D01*
X245Y582D02*
X252Y582D01*
X271Y582D02*
X280Y582D01*
X1196Y582D02*
X1205Y582D01*
X1215Y582D02*
X1222Y582D01*
X1Y581D02*
X8Y581D01*
X17Y581D02*
X22Y581D01*
X25Y581D02*
X31Y581D01*
X245Y581D02*
X252Y581D01*
X271Y581D02*
X280Y581D01*
X1196Y581D02*
X1205Y581D01*
X1215Y581D02*
X1222Y581D01*
X1Y580D02*
X8Y580D01*
X19Y580D02*
X29Y580D01*
X245Y580D02*
X252Y580D01*
X271Y580D02*
X280Y580D01*
X1196Y580D02*
X1205Y580D01*
X1215Y580D02*
X1222Y580D01*
X1Y579D02*
X8Y579D01*
X21Y579D02*
X27Y579D01*
X245Y579D02*
X252Y579D01*
X271Y579D02*
X280Y579D01*
X1196Y579D02*
X1205Y579D01*
X1215Y579D02*
X1222Y579D01*
X1Y578D02*
X8Y578D01*
X245Y578D02*
X252Y578D01*
X271Y578D02*
X280Y578D01*
X1196Y578D02*
X1205Y578D01*
X1215Y578D02*
X1222Y578D01*
X1Y577D02*
X8Y577D01*
X245Y577D02*
X252Y577D01*
X271Y577D02*
X280Y577D01*
X1196Y577D02*
X1205Y577D01*
X1215Y577D02*
X1222Y577D01*
X1Y576D02*
X8Y576D01*
X245Y576D02*
X252Y576D01*
X271Y576D02*
X280Y576D01*
X1196Y576D02*
X1205Y576D01*
X1215Y576D02*
X1222Y576D01*
X1Y575D02*
X8Y575D01*
X245Y575D02*
X252Y575D01*
X271Y575D02*
X280Y575D01*
X1196Y575D02*
X1205Y575D01*
X1215Y575D02*
X1222Y575D01*
X1Y574D02*
X8Y574D01*
X245Y574D02*
X252Y574D01*
X271Y574D02*
X280Y574D01*
X1196Y574D02*
X1205Y574D01*
X1215Y574D02*
X1222Y574D01*
X1Y573D02*
X8Y573D01*
X245Y573D02*
X252Y573D01*
X271Y573D02*
X280Y573D01*
X1196Y573D02*
X1205Y573D01*
X1215Y573D02*
X1222Y573D01*
X1Y572D02*
X8Y572D01*
X245Y572D02*
X252Y572D01*
X271Y572D02*
X280Y572D01*
X1196Y572D02*
X1205Y572D01*
X1215Y572D02*
X1222Y572D01*
X1Y571D02*
X8Y571D01*
X22Y571D02*
X31Y571D01*
X245Y571D02*
X252Y571D01*
X271Y571D02*
X280Y571D01*
X1196Y571D02*
X1205Y571D01*
X1215Y571D02*
X1222Y571D01*
X1Y570D02*
X8Y570D01*
X21Y570D02*
X32Y570D01*
X245Y570D02*
X252Y570D01*
X271Y570D02*
X280Y570D01*
X1196Y570D02*
X1205Y570D01*
X1215Y570D02*
X1222Y570D01*
X1Y569D02*
X8Y569D01*
X20Y569D02*
X23Y569D01*
X30Y569D02*
X33Y569D01*
X245Y569D02*
X252Y569D01*
X271Y569D02*
X280Y569D01*
X1196Y569D02*
X1205Y569D01*
X1215Y569D02*
X1222Y569D01*
X1Y568D02*
X8Y568D01*
X20Y568D02*
X22Y568D01*
X32Y568D02*
X34Y568D01*
X245Y568D02*
X252Y568D01*
X271Y568D02*
X280Y568D01*
X1196Y568D02*
X1205Y568D01*
X1215Y568D02*
X1222Y568D01*
X1Y567D02*
X8Y567D01*
X19Y567D02*
X21Y567D01*
X32Y567D02*
X34Y567D01*
X245Y567D02*
X252Y567D01*
X271Y567D02*
X280Y567D01*
X1196Y567D02*
X1205Y567D01*
X1215Y567D02*
X1222Y567D01*
X1Y566D02*
X8Y566D01*
X19Y566D02*
X21Y566D01*
X32Y566D02*
X34Y566D01*
X245Y566D02*
X252Y566D01*
X271Y566D02*
X280Y566D01*
X1196Y566D02*
X1205Y566D01*
X1215Y566D02*
X1222Y566D01*
X1Y565D02*
X8Y565D01*
X19Y565D02*
X21Y565D01*
X32Y565D02*
X34Y565D01*
X245Y565D02*
X252Y565D01*
X271Y565D02*
X280Y565D01*
X1196Y565D02*
X1205Y565D01*
X1215Y565D02*
X1222Y565D01*
X1Y564D02*
X8Y564D01*
X19Y564D02*
X21Y564D01*
X32Y564D02*
X34Y564D01*
X245Y564D02*
X252Y564D01*
X271Y564D02*
X280Y564D01*
X1196Y564D02*
X1205Y564D01*
X1215Y564D02*
X1222Y564D01*
X1Y563D02*
X8Y563D01*
X19Y563D02*
X21Y563D01*
X32Y563D02*
X34Y563D01*
X245Y563D02*
X252Y563D01*
X271Y563D02*
X280Y563D01*
X338Y563D02*
X347Y563D01*
X1196Y563D02*
X1205Y563D01*
X1215Y563D02*
X1222Y563D01*
X1Y562D02*
X8Y562D01*
X20Y562D02*
X22Y562D01*
X31Y562D02*
X34Y562D01*
X245Y562D02*
X252Y562D01*
X271Y562D02*
X280Y562D01*
X338Y562D02*
X347Y562D01*
X1196Y562D02*
X1205Y562D01*
X1215Y562D02*
X1222Y562D01*
X1Y561D02*
X8Y561D01*
X20Y561D02*
X33Y561D01*
X245Y561D02*
X252Y561D01*
X271Y561D02*
X280Y561D01*
X338Y561D02*
X347Y561D01*
X1196Y561D02*
X1205Y561D01*
X1215Y561D02*
X1222Y561D01*
X1Y560D02*
X8Y560D01*
X21Y560D02*
X32Y560D01*
X245Y560D02*
X252Y560D01*
X271Y560D02*
X280Y560D01*
X338Y560D02*
X347Y560D01*
X1196Y560D02*
X1205Y560D01*
X1215Y560D02*
X1222Y560D01*
X1Y559D02*
X8Y559D01*
X22Y559D02*
X31Y559D01*
X245Y559D02*
X252Y559D01*
X271Y559D02*
X280Y559D01*
X338Y559D02*
X347Y559D01*
X1196Y559D02*
X1205Y559D01*
X1215Y559D02*
X1222Y559D01*
X1Y558D02*
X8Y558D01*
X245Y558D02*
X252Y558D01*
X271Y558D02*
X280Y558D01*
X338Y558D02*
X347Y558D01*
X1196Y558D02*
X1205Y558D01*
X1215Y558D02*
X1222Y558D01*
X1Y557D02*
X8Y557D01*
X245Y557D02*
X252Y557D01*
X271Y557D02*
X280Y557D01*
X338Y557D02*
X347Y557D01*
X1196Y557D02*
X1205Y557D01*
X1215Y557D02*
X1222Y557D01*
X1Y556D02*
X8Y556D01*
X245Y556D02*
X252Y556D01*
X271Y556D02*
X280Y556D01*
X338Y556D02*
X347Y556D01*
X1196Y556D02*
X1205Y556D01*
X1215Y556D02*
X1222Y556D01*
X1Y555D02*
X8Y555D01*
X245Y555D02*
X252Y555D01*
X271Y555D02*
X280Y555D01*
X338Y555D02*
X347Y555D01*
X1196Y555D02*
X1205Y555D01*
X1215Y555D02*
X1222Y555D01*
X1Y554D02*
X8Y554D01*
X245Y554D02*
X252Y554D01*
X271Y554D02*
X280Y554D01*
X338Y554D02*
X347Y554D01*
X997Y554D02*
X1006Y554D01*
X1196Y554D02*
X1205Y554D01*
X1215Y554D02*
X1222Y554D01*
X1Y553D02*
X8Y553D01*
X245Y553D02*
X252Y553D01*
X271Y553D02*
X280Y553D01*
X338Y553D02*
X347Y553D01*
X997Y553D02*
X1006Y553D01*
X1196Y553D02*
X1205Y553D01*
X1215Y553D02*
X1222Y553D01*
X1Y552D02*
X8Y552D01*
X31Y552D02*
X31Y552D01*
X245Y552D02*
X252Y552D01*
X271Y552D02*
X280Y552D01*
X338Y552D02*
X347Y552D01*
X997Y552D02*
X1006Y552D01*
X1196Y552D02*
X1205Y552D01*
X1215Y552D02*
X1222Y552D01*
X1Y551D02*
X8Y551D01*
X30Y551D02*
X32Y551D01*
X245Y551D02*
X252Y551D01*
X271Y551D02*
X280Y551D01*
X338Y551D02*
X347Y551D01*
X997Y551D02*
X1006Y551D01*
X1196Y551D02*
X1205Y551D01*
X1215Y551D02*
X1222Y551D01*
X1Y550D02*
X8Y550D01*
X30Y550D02*
X33Y550D01*
X245Y550D02*
X252Y550D01*
X271Y550D02*
X280Y550D01*
X338Y550D02*
X347Y550D01*
X997Y550D02*
X1006Y550D01*
X1196Y550D02*
X1205Y550D01*
X1215Y550D02*
X1222Y550D01*
X1Y549D02*
X8Y549D01*
X20Y549D02*
X21Y549D01*
X32Y549D02*
X34Y549D01*
X245Y549D02*
X252Y549D01*
X271Y549D02*
X280Y549D01*
X338Y549D02*
X347Y549D01*
X997Y549D02*
X1006Y549D01*
X1196Y549D02*
X1205Y549D01*
X1215Y549D02*
X1222Y549D01*
X1Y548D02*
X8Y548D01*
X19Y548D02*
X21Y548D01*
X32Y548D02*
X34Y548D01*
X245Y548D02*
X252Y548D01*
X271Y548D02*
X280Y548D01*
X338Y548D02*
X347Y548D01*
X997Y548D02*
X1006Y548D01*
X1196Y548D02*
X1205Y548D01*
X1215Y548D02*
X1222Y548D01*
X1Y547D02*
X8Y547D01*
X19Y547D02*
X21Y547D01*
X32Y547D02*
X34Y547D01*
X245Y547D02*
X252Y547D01*
X271Y547D02*
X280Y547D01*
X338Y547D02*
X347Y547D01*
X997Y547D02*
X1006Y547D01*
X1196Y547D02*
X1205Y547D01*
X1215Y547D02*
X1222Y547D01*
X1Y546D02*
X8Y546D01*
X19Y546D02*
X21Y546D01*
X32Y546D02*
X34Y546D01*
X245Y546D02*
X252Y546D01*
X271Y546D02*
X280Y546D01*
X338Y546D02*
X347Y546D01*
X997Y546D02*
X1006Y546D01*
X1196Y546D02*
X1205Y546D01*
X1215Y546D02*
X1222Y546D01*
X1Y545D02*
X8Y545D01*
X19Y545D02*
X21Y545D01*
X32Y545D02*
X34Y545D01*
X245Y545D02*
X252Y545D01*
X271Y545D02*
X280Y545D01*
X338Y545D02*
X347Y545D01*
X997Y545D02*
X1006Y545D01*
X1196Y545D02*
X1205Y545D01*
X1215Y545D02*
X1222Y545D01*
X1Y544D02*
X8Y544D01*
X16Y544D02*
X34Y544D01*
X245Y544D02*
X252Y544D01*
X271Y544D02*
X280Y544D01*
X338Y544D02*
X347Y544D01*
X997Y544D02*
X1006Y544D01*
X1196Y544D02*
X1205Y544D01*
X1215Y544D02*
X1222Y544D01*
X1Y543D02*
X8Y543D01*
X15Y543D02*
X33Y543D01*
X245Y543D02*
X252Y543D01*
X271Y543D02*
X280Y543D01*
X338Y543D02*
X347Y543D01*
X997Y543D02*
X1006Y543D01*
X1196Y543D02*
X1205Y543D01*
X1215Y543D02*
X1222Y543D01*
X1Y542D02*
X8Y542D01*
X15Y542D02*
X32Y542D01*
X245Y542D02*
X252Y542D01*
X271Y542D02*
X280Y542D01*
X338Y542D02*
X347Y542D01*
X421Y542D02*
X428Y542D01*
X586Y542D02*
X593Y542D01*
X997Y542D02*
X1006Y542D01*
X1196Y542D02*
X1205Y542D01*
X1215Y542D02*
X1222Y542D01*
X1Y541D02*
X8Y541D01*
X19Y541D02*
X21Y541D01*
X245Y541D02*
X252Y541D01*
X271Y541D02*
X280Y541D01*
X338Y541D02*
X347Y541D01*
X421Y541D02*
X428Y541D01*
X504Y541D02*
X513Y541D01*
X586Y541D02*
X593Y541D01*
X695Y541D02*
X704Y541D01*
X997Y541D02*
X1006Y541D01*
X1196Y541D02*
X1205Y541D01*
X1215Y541D02*
X1222Y541D01*
X1Y540D02*
X8Y540D01*
X19Y540D02*
X21Y540D01*
X245Y540D02*
X252Y540D01*
X271Y540D02*
X280Y540D01*
X338Y540D02*
X347Y540D01*
X421Y540D02*
X428Y540D01*
X504Y540D02*
X513Y540D01*
X586Y540D02*
X593Y540D01*
X695Y540D02*
X704Y540D01*
X997Y540D02*
X1006Y540D01*
X1196Y540D02*
X1205Y540D01*
X1215Y540D02*
X1222Y540D01*
X1Y539D02*
X8Y539D01*
X20Y539D02*
X21Y539D01*
X245Y539D02*
X252Y539D01*
X271Y539D02*
X280Y539D01*
X338Y539D02*
X347Y539D01*
X421Y539D02*
X428Y539D01*
X504Y539D02*
X513Y539D01*
X586Y539D02*
X593Y539D01*
X695Y539D02*
X704Y539D01*
X997Y539D02*
X1006Y539D01*
X1196Y539D02*
X1205Y539D01*
X1215Y539D02*
X1222Y539D01*
X1Y538D02*
X8Y538D01*
X245Y538D02*
X252Y538D01*
X271Y538D02*
X280Y538D01*
X338Y538D02*
X347Y538D01*
X421Y538D02*
X428Y538D01*
X504Y538D02*
X513Y538D01*
X586Y538D02*
X593Y538D01*
X695Y538D02*
X704Y538D01*
X997Y538D02*
X1006Y538D01*
X1196Y538D02*
X1205Y538D01*
X1215Y538D02*
X1222Y538D01*
X1Y537D02*
X8Y537D01*
X245Y537D02*
X252Y537D01*
X271Y537D02*
X280Y537D01*
X338Y537D02*
X347Y537D01*
X421Y537D02*
X428Y537D01*
X504Y537D02*
X513Y537D01*
X586Y537D02*
X593Y537D01*
X695Y537D02*
X704Y537D01*
X997Y537D02*
X1006Y537D01*
X1196Y537D02*
X1205Y537D01*
X1215Y537D02*
X1222Y537D01*
X1Y536D02*
X8Y536D01*
X245Y536D02*
X252Y536D01*
X271Y536D02*
X280Y536D01*
X338Y536D02*
X347Y536D01*
X421Y536D02*
X428Y536D01*
X504Y536D02*
X513Y536D01*
X586Y536D02*
X593Y536D01*
X695Y536D02*
X704Y536D01*
X997Y536D02*
X1006Y536D01*
X1196Y536D02*
X1205Y536D01*
X1215Y536D02*
X1222Y536D01*
X1Y535D02*
X8Y535D01*
X245Y535D02*
X252Y535D01*
X271Y535D02*
X280Y535D01*
X338Y535D02*
X347Y535D01*
X421Y535D02*
X428Y535D01*
X504Y535D02*
X513Y535D01*
X586Y535D02*
X593Y535D01*
X695Y535D02*
X704Y535D01*
X997Y535D02*
X1006Y535D01*
X1196Y535D02*
X1205Y535D01*
X1215Y535D02*
X1222Y535D01*
X1Y534D02*
X8Y534D01*
X245Y534D02*
X252Y534D01*
X271Y534D02*
X280Y534D01*
X338Y534D02*
X347Y534D01*
X421Y534D02*
X428Y534D01*
X504Y534D02*
X513Y534D01*
X586Y534D02*
X593Y534D01*
X695Y534D02*
X704Y534D01*
X997Y534D02*
X1006Y534D01*
X1196Y534D02*
X1205Y534D01*
X1215Y534D02*
X1222Y534D01*
X1Y533D02*
X8Y533D01*
X245Y533D02*
X252Y533D01*
X271Y533D02*
X280Y533D01*
X338Y533D02*
X347Y533D01*
X422Y533D02*
X428Y533D01*
X504Y533D02*
X513Y533D01*
X586Y533D02*
X593Y533D01*
X695Y533D02*
X704Y533D01*
X997Y533D02*
X1006Y533D01*
X1196Y533D02*
X1205Y533D01*
X1215Y533D02*
X1222Y533D01*
X1Y532D02*
X8Y532D01*
X17Y532D02*
X21Y532D01*
X26Y532D02*
X30Y532D01*
X245Y532D02*
X252Y532D01*
X271Y532D02*
X280Y532D01*
X338Y532D02*
X347Y532D01*
X422Y532D02*
X428Y532D01*
X504Y532D02*
X513Y532D01*
X587Y532D02*
X593Y532D01*
X695Y532D02*
X704Y532D01*
X997Y532D02*
X1006Y532D01*
X1196Y532D02*
X1205Y532D01*
X1215Y532D02*
X1222Y532D01*
X1Y531D02*
X8Y531D01*
X15Y531D02*
X23Y531D01*
X25Y531D02*
X32Y531D01*
X245Y531D02*
X252Y531D01*
X271Y531D02*
X280Y531D01*
X338Y531D02*
X347Y531D01*
X423Y531D02*
X427Y531D01*
X504Y531D02*
X513Y531D01*
X588Y531D02*
X592Y531D01*
X695Y531D02*
X704Y531D01*
X997Y531D02*
X1006Y531D01*
X1196Y531D02*
X1205Y531D01*
X1215Y531D02*
X1222Y531D01*
X1Y530D02*
X8Y530D01*
X15Y530D02*
X33Y530D01*
X245Y530D02*
X252Y530D01*
X271Y530D02*
X280Y530D01*
X338Y530D02*
X347Y530D01*
X504Y530D02*
X513Y530D01*
X695Y530D02*
X704Y530D01*
X997Y530D02*
X1006Y530D01*
X1196Y530D02*
X1205Y530D01*
X1215Y530D02*
X1222Y530D01*
X1Y529D02*
X8Y529D01*
X14Y529D02*
X16Y529D01*
X22Y529D02*
X26Y529D01*
X31Y529D02*
X33Y529D01*
X245Y529D02*
X252Y529D01*
X271Y529D02*
X280Y529D01*
X338Y529D02*
X347Y529D01*
X504Y529D02*
X513Y529D01*
X695Y529D02*
X704Y529D01*
X997Y529D02*
X1006Y529D01*
X1196Y529D02*
X1205Y529D01*
X1215Y529D02*
X1222Y529D01*
X1Y528D02*
X8Y528D01*
X14Y528D02*
X16Y528D01*
X23Y528D02*
X25Y528D01*
X32Y528D02*
X34Y528D01*
X245Y528D02*
X252Y528D01*
X271Y528D02*
X280Y528D01*
X338Y528D02*
X347Y528D01*
X504Y528D02*
X513Y528D01*
X695Y528D02*
X704Y528D01*
X997Y528D02*
X1006Y528D01*
X1196Y528D02*
X1205Y528D01*
X1215Y528D02*
X1222Y528D01*
X1Y527D02*
X8Y527D01*
X14Y527D02*
X15Y527D01*
X23Y527D02*
X25Y527D01*
X32Y527D02*
X34Y527D01*
X245Y527D02*
X252Y527D01*
X271Y527D02*
X280Y527D01*
X338Y527D02*
X347Y527D01*
X504Y527D02*
X513Y527D01*
X695Y527D02*
X704Y527D01*
X997Y527D02*
X1006Y527D01*
X1196Y527D02*
X1205Y527D01*
X1215Y527D02*
X1222Y527D01*
X1Y526D02*
X8Y526D01*
X14Y526D02*
X15Y526D01*
X23Y526D02*
X25Y526D01*
X32Y526D02*
X34Y526D01*
X245Y526D02*
X252Y526D01*
X271Y526D02*
X280Y526D01*
X338Y526D02*
X347Y526D01*
X504Y526D02*
X513Y526D01*
X695Y526D02*
X704Y526D01*
X861Y526D02*
X868Y526D01*
X997Y526D02*
X1006Y526D01*
X1196Y526D02*
X1205Y526D01*
X1215Y526D02*
X1222Y526D01*
X1Y525D02*
X8Y525D01*
X14Y525D02*
X15Y525D01*
X23Y525D02*
X25Y525D01*
X32Y525D02*
X34Y525D01*
X245Y525D02*
X252Y525D01*
X271Y525D02*
X280Y525D01*
X338Y525D02*
X347Y525D01*
X504Y525D02*
X513Y525D01*
X695Y525D02*
X704Y525D01*
X861Y525D02*
X872Y525D01*
X997Y525D02*
X1006Y525D01*
X1196Y525D02*
X1205Y525D01*
X1215Y525D02*
X1222Y525D01*
X1Y524D02*
X8Y524D01*
X14Y524D02*
X15Y524D01*
X23Y524D02*
X25Y524D01*
X32Y524D02*
X34Y524D01*
X245Y524D02*
X252Y524D01*
X271Y524D02*
X280Y524D01*
X338Y524D02*
X347Y524D01*
X504Y524D02*
X513Y524D01*
X695Y524D02*
X704Y524D01*
X860Y524D02*
X875Y524D01*
X997Y524D02*
X1006Y524D01*
X1196Y524D02*
X1205Y524D01*
X1215Y524D02*
X1222Y524D01*
X1Y523D02*
X8Y523D01*
X14Y523D02*
X15Y523D01*
X23Y523D02*
X25Y523D01*
X32Y523D02*
X34Y523D01*
X245Y523D02*
X252Y523D01*
X271Y523D02*
X280Y523D01*
X338Y523D02*
X347Y523D01*
X504Y523D02*
X513Y523D01*
X695Y523D02*
X704Y523D01*
X860Y523D02*
X877Y523D01*
X997Y523D02*
X1006Y523D01*
X1196Y523D02*
X1205Y523D01*
X1215Y523D02*
X1222Y523D01*
X1Y522D02*
X8Y522D01*
X14Y522D02*
X15Y522D01*
X23Y522D02*
X25Y522D01*
X32Y522D02*
X34Y522D01*
X245Y522D02*
X252Y522D01*
X271Y522D02*
X280Y522D01*
X338Y522D02*
X347Y522D01*
X504Y522D02*
X513Y522D01*
X695Y522D02*
X704Y522D01*
X860Y522D02*
X879Y522D01*
X997Y522D02*
X1006Y522D01*
X1196Y522D02*
X1205Y522D01*
X1215Y522D02*
X1222Y522D01*
X1Y521D02*
X8Y521D01*
X14Y521D02*
X34Y521D01*
X245Y521D02*
X252Y521D01*
X271Y521D02*
X280Y521D01*
X338Y521D02*
X347Y521D01*
X504Y521D02*
X513Y521D01*
X695Y521D02*
X704Y521D01*
X859Y521D02*
X881Y521D01*
X997Y521D02*
X1006Y521D01*
X1196Y521D02*
X1205Y521D01*
X1215Y521D02*
X1222Y521D01*
X1Y520D02*
X8Y520D01*
X14Y520D02*
X34Y520D01*
X245Y520D02*
X252Y520D01*
X271Y520D02*
X280Y520D01*
X338Y520D02*
X347Y520D01*
X504Y520D02*
X513Y520D01*
X695Y520D02*
X704Y520D01*
X859Y520D02*
X883Y520D01*
X997Y520D02*
X1006Y520D01*
X1196Y520D02*
X1205Y520D01*
X1215Y520D02*
X1222Y520D01*
X1Y519D02*
X8Y519D01*
X14Y519D02*
X33Y519D01*
X245Y519D02*
X252Y519D01*
X271Y519D02*
X280Y519D01*
X338Y519D02*
X347Y519D01*
X504Y519D02*
X513Y519D01*
X695Y519D02*
X704Y519D01*
X858Y519D02*
X885Y519D01*
X997Y519D02*
X1006Y519D01*
X1196Y519D02*
X1205Y519D01*
X1215Y519D02*
X1222Y519D01*
X1Y518D02*
X8Y518D01*
X245Y518D02*
X252Y518D01*
X271Y518D02*
X280Y518D01*
X338Y518D02*
X347Y518D01*
X504Y518D02*
X513Y518D01*
X695Y518D02*
X704Y518D01*
X859Y518D02*
X886Y518D01*
X997Y518D02*
X1006Y518D01*
X1196Y518D02*
X1205Y518D01*
X1215Y518D02*
X1222Y518D01*
X1Y517D02*
X8Y517D01*
X245Y517D02*
X252Y517D01*
X271Y517D02*
X280Y517D01*
X338Y517D02*
X347Y517D01*
X504Y517D02*
X513Y517D01*
X695Y517D02*
X704Y517D01*
X861Y517D02*
X887Y517D01*
X997Y517D02*
X1006Y517D01*
X1196Y517D02*
X1205Y517D01*
X1215Y517D02*
X1222Y517D01*
X1Y516D02*
X8Y516D01*
X245Y516D02*
X252Y516D01*
X271Y516D02*
X280Y516D01*
X338Y516D02*
X347Y516D01*
X504Y516D02*
X513Y516D01*
X695Y516D02*
X704Y516D01*
X868Y516D02*
X889Y516D01*
X997Y516D02*
X1006Y516D01*
X1196Y516D02*
X1205Y516D01*
X1215Y516D02*
X1222Y516D01*
X1Y515D02*
X8Y515D01*
X245Y515D02*
X252Y515D01*
X271Y515D02*
X280Y515D01*
X338Y515D02*
X347Y515D01*
X504Y515D02*
X513Y515D01*
X695Y515D02*
X704Y515D01*
X872Y515D02*
X890Y515D01*
X997Y515D02*
X1006Y515D01*
X1196Y515D02*
X1205Y515D01*
X1215Y515D02*
X1222Y515D01*
X1Y514D02*
X8Y514D01*
X245Y514D02*
X252Y514D01*
X271Y514D02*
X280Y514D01*
X338Y514D02*
X347Y514D01*
X504Y514D02*
X513Y514D01*
X695Y514D02*
X704Y514D01*
X874Y514D02*
X891Y514D01*
X997Y514D02*
X1006Y514D01*
X1196Y514D02*
X1205Y514D01*
X1215Y514D02*
X1222Y514D01*
X1Y513D02*
X8Y513D01*
X245Y513D02*
X252Y513D01*
X271Y513D02*
X280Y513D01*
X338Y513D02*
X347Y513D01*
X504Y513D02*
X513Y513D01*
X695Y513D02*
X704Y513D01*
X877Y513D02*
X892Y513D01*
X997Y513D02*
X1006Y513D01*
X1196Y513D02*
X1205Y513D01*
X1215Y513D02*
X1222Y513D01*
X1Y512D02*
X8Y512D01*
X15Y512D02*
X17Y512D01*
X30Y512D02*
X33Y512D01*
X245Y512D02*
X252Y512D01*
X271Y512D02*
X280Y512D01*
X338Y512D02*
X347Y512D01*
X504Y512D02*
X513Y512D01*
X695Y512D02*
X704Y512D01*
X878Y512D02*
X893Y512D01*
X997Y512D02*
X1006Y512D01*
X1196Y512D02*
X1205Y512D01*
X1215Y512D02*
X1222Y512D01*
X1Y511D02*
X8Y511D01*
X14Y511D02*
X17Y511D01*
X28Y511D02*
X33Y511D01*
X245Y511D02*
X252Y511D01*
X271Y511D02*
X280Y511D01*
X338Y511D02*
X347Y511D01*
X504Y511D02*
X513Y511D01*
X695Y511D02*
X704Y511D01*
X880Y511D02*
X894Y511D01*
X997Y511D02*
X1006Y511D01*
X1196Y511D02*
X1205Y511D01*
X1215Y511D02*
X1222Y511D01*
X1Y510D02*
X8Y510D01*
X14Y510D02*
X16Y510D01*
X27Y510D02*
X34Y510D01*
X245Y510D02*
X252Y510D01*
X271Y510D02*
X280Y510D01*
X338Y510D02*
X347Y510D01*
X504Y510D02*
X513Y510D01*
X695Y510D02*
X704Y510D01*
X881Y510D02*
X895Y510D01*
X997Y510D02*
X1006Y510D01*
X1196Y510D02*
X1205Y510D01*
X1215Y510D02*
X1222Y510D01*
X1Y509D02*
X8Y509D01*
X14Y509D02*
X15Y509D01*
X26Y509D02*
X29Y509D01*
X32Y509D02*
X34Y509D01*
X245Y509D02*
X252Y509D01*
X271Y509D02*
X280Y509D01*
X338Y509D02*
X347Y509D01*
X504Y509D02*
X513Y509D01*
X695Y509D02*
X704Y509D01*
X883Y509D02*
X896Y509D01*
X997Y509D02*
X1006Y509D01*
X1196Y509D02*
X1205Y509D01*
X1215Y509D02*
X1222Y509D01*
X1Y508D02*
X8Y508D01*
X14Y508D02*
X15Y508D01*
X25Y508D02*
X28Y508D01*
X32Y508D02*
X34Y508D01*
X245Y508D02*
X252Y508D01*
X271Y508D02*
X280Y508D01*
X338Y508D02*
X347Y508D01*
X504Y508D02*
X513Y508D01*
X695Y508D02*
X704Y508D01*
X884Y508D02*
X897Y508D01*
X997Y508D02*
X1006Y508D01*
X1196Y508D02*
X1205Y508D01*
X1215Y508D02*
X1222Y508D01*
X1Y507D02*
X8Y507D01*
X14Y507D02*
X15Y507D01*
X23Y507D02*
X27Y507D01*
X32Y507D02*
X34Y507D01*
X245Y507D02*
X252Y507D01*
X271Y507D02*
X280Y507D01*
X338Y507D02*
X347Y507D01*
X504Y507D02*
X513Y507D01*
X695Y507D02*
X704Y507D01*
X885Y507D02*
X898Y507D01*
X997Y507D02*
X1006Y507D01*
X1196Y507D02*
X1205Y507D01*
X1215Y507D02*
X1222Y507D01*
X1Y506D02*
X8Y506D01*
X14Y506D02*
X15Y506D01*
X22Y506D02*
X25Y506D01*
X32Y506D02*
X34Y506D01*
X245Y506D02*
X252Y506D01*
X271Y506D02*
X280Y506D01*
X338Y506D02*
X347Y506D01*
X504Y506D02*
X513Y506D01*
X695Y506D02*
X704Y506D01*
X886Y506D02*
X898Y506D01*
X997Y506D02*
X1006Y506D01*
X1196Y506D02*
X1205Y506D01*
X1215Y506D02*
X1222Y506D01*
X1Y505D02*
X8Y505D01*
X14Y505D02*
X15Y505D01*
X21Y505D02*
X24Y505D01*
X32Y505D02*
X34Y505D01*
X245Y505D02*
X252Y505D01*
X271Y505D02*
X280Y505D01*
X338Y505D02*
X347Y505D01*
X504Y505D02*
X513Y505D01*
X695Y505D02*
X704Y505D01*
X887Y505D02*
X899Y505D01*
X997Y505D02*
X1006Y505D01*
X1196Y505D02*
X1205Y505D01*
X1215Y505D02*
X1222Y505D01*
X1Y504D02*
X8Y504D01*
X14Y504D02*
X15Y504D01*
X19Y504D02*
X23Y504D01*
X32Y504D02*
X34Y504D01*
X245Y504D02*
X252Y504D01*
X271Y504D02*
X280Y504D01*
X338Y504D02*
X347Y504D01*
X504Y504D02*
X513Y504D01*
X695Y504D02*
X704Y504D01*
X888Y504D02*
X900Y504D01*
X997Y504D02*
X1006Y504D01*
X1196Y504D02*
X1205Y504D01*
X1215Y504D02*
X1222Y504D01*
X1Y503D02*
X8Y503D01*
X14Y503D02*
X15Y503D01*
X18Y503D02*
X22Y503D01*
X32Y503D02*
X34Y503D01*
X245Y503D02*
X252Y503D01*
X271Y503D02*
X280Y503D01*
X338Y503D02*
X347Y503D01*
X504Y503D02*
X513Y503D01*
X695Y503D02*
X704Y503D01*
X889Y503D02*
X901Y503D01*
X997Y503D02*
X1006Y503D01*
X1196Y503D02*
X1205Y503D01*
X1215Y503D02*
X1222Y503D01*
X1Y502D02*
X8Y502D01*
X14Y502D02*
X20Y502D01*
X31Y502D02*
X34Y502D01*
X245Y502D02*
X252Y502D01*
X271Y502D02*
X280Y502D01*
X338Y502D02*
X347Y502D01*
X504Y502D02*
X513Y502D01*
X695Y502D02*
X704Y502D01*
X890Y502D02*
X901Y502D01*
X997Y502D02*
X1006Y502D01*
X1196Y502D02*
X1205Y502D01*
X1215Y502D02*
X1222Y502D01*
X1Y501D02*
X8Y501D01*
X14Y501D02*
X19Y501D01*
X30Y501D02*
X33Y501D01*
X245Y501D02*
X252Y501D01*
X271Y501D02*
X280Y501D01*
X338Y501D02*
X347Y501D01*
X504Y501D02*
X513Y501D01*
X695Y501D02*
X704Y501D01*
X891Y501D02*
X902Y501D01*
X997Y501D02*
X1006Y501D01*
X1196Y501D02*
X1205Y501D01*
X1215Y501D02*
X1222Y501D01*
X1Y500D02*
X8Y500D01*
X15Y500D02*
X18Y500D01*
X30Y500D02*
X32Y500D01*
X245Y500D02*
X252Y500D01*
X271Y500D02*
X280Y500D01*
X338Y500D02*
X347Y500D01*
X504Y500D02*
X513Y500D01*
X695Y500D02*
X704Y500D01*
X891Y500D02*
X903Y500D01*
X997Y500D02*
X1006Y500D01*
X1196Y500D02*
X1205Y500D01*
X1215Y500D02*
X1222Y500D01*
X1Y499D02*
X8Y499D01*
X245Y499D02*
X252Y499D01*
X271Y499D02*
X280Y499D01*
X338Y499D02*
X347Y499D01*
X504Y499D02*
X513Y499D01*
X695Y499D02*
X704Y499D01*
X892Y499D02*
X903Y499D01*
X997Y499D02*
X1006Y499D01*
X1196Y499D02*
X1205Y499D01*
X1215Y499D02*
X1222Y499D01*
X1Y498D02*
X8Y498D01*
X245Y498D02*
X252Y498D01*
X271Y498D02*
X280Y498D01*
X338Y498D02*
X347Y498D01*
X504Y498D02*
X513Y498D01*
X695Y498D02*
X704Y498D01*
X893Y498D02*
X904Y498D01*
X997Y498D02*
X1006Y498D01*
X1196Y498D02*
X1224Y498D01*
X1Y497D02*
X8Y497D01*
X245Y497D02*
X252Y497D01*
X271Y497D02*
X280Y497D01*
X338Y497D02*
X347Y497D01*
X504Y497D02*
X513Y497D01*
X695Y497D02*
X704Y497D01*
X894Y497D02*
X904Y497D01*
X997Y497D02*
X1006Y497D01*
X1196Y497D02*
X1224Y497D01*
X1Y496D02*
X8Y496D01*
X245Y496D02*
X252Y496D01*
X271Y496D02*
X280Y496D01*
X504Y496D02*
X513Y496D01*
X695Y496D02*
X704Y496D01*
X894Y496D02*
X905Y496D01*
X997Y496D02*
X1006Y496D01*
X1196Y496D02*
X1224Y496D01*
X1Y495D02*
X8Y495D01*
X245Y495D02*
X252Y495D01*
X271Y495D02*
X280Y495D01*
X504Y495D02*
X513Y495D01*
X695Y495D02*
X704Y495D01*
X895Y495D02*
X906Y495D01*
X997Y495D02*
X1006Y495D01*
X1196Y495D02*
X1224Y495D01*
X1Y494D02*
X8Y494D01*
X245Y494D02*
X252Y494D01*
X271Y494D02*
X280Y494D01*
X504Y494D02*
X513Y494D01*
X695Y494D02*
X704Y494D01*
X896Y494D02*
X906Y494D01*
X997Y494D02*
X1006Y494D01*
X1196Y494D02*
X1224Y494D01*
X1Y493D02*
X8Y493D01*
X15Y493D02*
X30Y493D01*
X245Y493D02*
X252Y493D01*
X271Y493D02*
X280Y493D01*
X695Y493D02*
X704Y493D01*
X896Y493D02*
X907Y493D01*
X997Y493D02*
X1006Y493D01*
X1196Y493D02*
X1224Y493D01*
X1Y492D02*
X8Y492D01*
X14Y492D02*
X32Y492D01*
X245Y492D02*
X252Y492D01*
X271Y492D02*
X280Y492D01*
X695Y492D02*
X704Y492D01*
X897Y492D02*
X907Y492D01*
X997Y492D02*
X1006Y492D01*
X1196Y492D02*
X1224Y492D01*
X1Y491D02*
X8Y491D01*
X14Y491D02*
X33Y491D01*
X245Y491D02*
X252Y491D01*
X271Y491D02*
X280Y491D01*
X695Y491D02*
X704Y491D01*
X897Y491D02*
X908Y491D01*
X997Y491D02*
X1006Y491D01*
X1196Y491D02*
X1224Y491D01*
X1Y490D02*
X8Y490D01*
X31Y490D02*
X34Y490D01*
X245Y490D02*
X252Y490D01*
X271Y490D02*
X280Y490D01*
X695Y490D02*
X704Y490D01*
X898Y490D02*
X908Y490D01*
X997Y490D02*
X1006Y490D01*
X1196Y490D02*
X1224Y490D01*
X1Y489D02*
X8Y489D01*
X32Y489D02*
X34Y489D01*
X245Y489D02*
X252Y489D01*
X271Y489D02*
X280Y489D01*
X695Y489D02*
X704Y489D01*
X898Y489D02*
X909Y489D01*
X997Y489D02*
X1006Y489D01*
X1196Y489D02*
X1224Y489D01*
X1Y488D02*
X8Y488D01*
X32Y488D02*
X34Y488D01*
X245Y488D02*
X252Y488D01*
X271Y488D02*
X280Y488D01*
X695Y488D02*
X704Y488D01*
X899Y488D02*
X909Y488D01*
X997Y488D02*
X1006Y488D01*
X1196Y488D02*
X1205Y488D01*
X1215Y488D02*
X1222Y488D01*
X1Y487D02*
X8Y487D01*
X32Y487D02*
X34Y487D01*
X245Y487D02*
X252Y487D01*
X271Y487D02*
X280Y487D01*
X695Y487D02*
X704Y487D01*
X899Y487D02*
X909Y487D01*
X1196Y487D02*
X1205Y487D01*
X1215Y487D02*
X1222Y487D01*
X1Y486D02*
X8Y486D01*
X32Y486D02*
X34Y486D01*
X245Y486D02*
X252Y486D01*
X271Y486D02*
X280Y486D01*
X695Y486D02*
X704Y486D01*
X900Y486D02*
X910Y486D01*
X1196Y486D02*
X1205Y486D01*
X1215Y486D02*
X1222Y486D01*
X1Y485D02*
X8Y485D01*
X32Y485D02*
X34Y485D01*
X245Y485D02*
X252Y485D01*
X271Y485D02*
X280Y485D01*
X695Y485D02*
X704Y485D01*
X900Y485D02*
X910Y485D01*
X1196Y485D02*
X1205Y485D01*
X1215Y485D02*
X1222Y485D01*
X1Y484D02*
X8Y484D01*
X32Y484D02*
X34Y484D01*
X245Y484D02*
X252Y484D01*
X271Y484D02*
X280Y484D01*
X695Y484D02*
X704Y484D01*
X901Y484D02*
X911Y484D01*
X1196Y484D02*
X1205Y484D01*
X1215Y484D02*
X1222Y484D01*
X1Y483D02*
X8Y483D01*
X32Y483D02*
X34Y483D01*
X245Y483D02*
X252Y483D01*
X271Y483D02*
X280Y483D01*
X695Y483D02*
X704Y483D01*
X901Y483D02*
X911Y483D01*
X1196Y483D02*
X1205Y483D01*
X1215Y483D02*
X1222Y483D01*
X1Y482D02*
X8Y482D01*
X14Y482D02*
X33Y482D01*
X245Y482D02*
X252Y482D01*
X271Y482D02*
X280Y482D01*
X695Y482D02*
X704Y482D01*
X902Y482D02*
X911Y482D01*
X1196Y482D02*
X1205Y482D01*
X1215Y482D02*
X1222Y482D01*
X1Y481D02*
X8Y481D01*
X14Y481D02*
X33Y481D01*
X245Y481D02*
X252Y481D01*
X271Y481D02*
X280Y481D01*
X695Y481D02*
X704Y481D01*
X902Y481D02*
X912Y481D01*
X1196Y481D02*
X1205Y481D01*
X1215Y481D02*
X1222Y481D01*
X1Y480D02*
X8Y480D01*
X14Y480D02*
X31Y480D01*
X245Y480D02*
X252Y480D01*
X271Y480D02*
X280Y480D01*
X695Y480D02*
X704Y480D01*
X903Y480D02*
X912Y480D01*
X1196Y480D02*
X1205Y480D01*
X1215Y480D02*
X1222Y480D01*
X1Y479D02*
X8Y479D01*
X245Y479D02*
X252Y479D01*
X271Y479D02*
X280Y479D01*
X695Y479D02*
X704Y479D01*
X903Y479D02*
X913Y479D01*
X1196Y479D02*
X1205Y479D01*
X1215Y479D02*
X1222Y479D01*
X1Y478D02*
X8Y478D01*
X245Y478D02*
X252Y478D01*
X271Y478D02*
X280Y478D01*
X695Y478D02*
X704Y478D01*
X903Y478D02*
X913Y478D01*
X1196Y478D02*
X1205Y478D01*
X1215Y478D02*
X1222Y478D01*
X1Y477D02*
X8Y477D01*
X245Y477D02*
X252Y477D01*
X271Y477D02*
X280Y477D01*
X695Y477D02*
X704Y477D01*
X904Y477D02*
X913Y477D01*
X1196Y477D02*
X1205Y477D01*
X1215Y477D02*
X1222Y477D01*
X1Y476D02*
X8Y476D01*
X245Y476D02*
X252Y476D01*
X271Y476D02*
X280Y476D01*
X695Y476D02*
X704Y476D01*
X904Y476D02*
X913Y476D01*
X1196Y476D02*
X1205Y476D01*
X1215Y476D02*
X1222Y476D01*
X1Y475D02*
X8Y475D01*
X245Y475D02*
X252Y475D01*
X271Y475D02*
X280Y475D01*
X695Y475D02*
X704Y475D01*
X904Y475D02*
X914Y475D01*
X1196Y475D02*
X1205Y475D01*
X1215Y475D02*
X1222Y475D01*
X1Y474D02*
X8Y474D01*
X245Y474D02*
X252Y474D01*
X271Y474D02*
X280Y474D01*
X905Y474D02*
X914Y474D01*
X1196Y474D02*
X1205Y474D01*
X1215Y474D02*
X1222Y474D01*
X1Y473D02*
X8Y473D01*
X245Y473D02*
X252Y473D01*
X271Y473D02*
X280Y473D01*
X905Y473D02*
X914Y473D01*
X1196Y473D02*
X1205Y473D01*
X1215Y473D02*
X1222Y473D01*
X1Y472D02*
X8Y472D01*
X245Y472D02*
X252Y472D01*
X271Y472D02*
X280Y472D01*
X905Y472D02*
X915Y472D01*
X1196Y472D02*
X1205Y472D01*
X1215Y472D02*
X1222Y472D01*
X1Y471D02*
X8Y471D01*
X245Y471D02*
X252Y471D01*
X271Y471D02*
X280Y471D01*
X906Y471D02*
X915Y471D01*
X1196Y471D02*
X1205Y471D01*
X1215Y471D02*
X1222Y471D01*
X1Y470D02*
X8Y470D01*
X245Y470D02*
X252Y470D01*
X271Y470D02*
X280Y470D01*
X906Y470D02*
X915Y470D01*
X1196Y470D02*
X1205Y470D01*
X1215Y470D02*
X1222Y470D01*
X1Y469D02*
X8Y469D01*
X245Y469D02*
X252Y469D01*
X271Y469D02*
X280Y469D01*
X906Y469D02*
X915Y469D01*
X1196Y469D02*
X1205Y469D01*
X1215Y469D02*
X1222Y469D01*
X1Y468D02*
X8Y468D01*
X245Y468D02*
X252Y468D01*
X271Y468D02*
X280Y468D01*
X906Y468D02*
X916Y468D01*
X1196Y468D02*
X1205Y468D01*
X1215Y468D02*
X1222Y468D01*
X1Y467D02*
X8Y467D01*
X245Y467D02*
X252Y467D01*
X271Y467D02*
X280Y467D01*
X907Y467D02*
X916Y467D01*
X1196Y467D02*
X1205Y467D01*
X1215Y467D02*
X1222Y467D01*
X1Y466D02*
X8Y466D01*
X245Y466D02*
X252Y466D01*
X271Y466D02*
X280Y466D01*
X907Y466D02*
X916Y466D01*
X1196Y466D02*
X1205Y466D01*
X1215Y466D02*
X1222Y466D01*
X1Y465D02*
X8Y465D01*
X245Y465D02*
X252Y465D01*
X271Y465D02*
X280Y465D01*
X907Y465D02*
X916Y465D01*
X1196Y465D02*
X1205Y465D01*
X1215Y465D02*
X1222Y465D01*
X1Y464D02*
X8Y464D01*
X245Y464D02*
X252Y464D01*
X271Y464D02*
X280Y464D01*
X907Y464D02*
X917Y464D01*
X1196Y464D02*
X1205Y464D01*
X1215Y464D02*
X1222Y464D01*
X1Y463D02*
X8Y463D01*
X245Y463D02*
X252Y463D01*
X271Y463D02*
X280Y463D01*
X908Y463D02*
X917Y463D01*
X1196Y463D02*
X1205Y463D01*
X1215Y463D02*
X1222Y463D01*
X1Y462D02*
X8Y462D01*
X245Y462D02*
X252Y462D01*
X271Y462D02*
X280Y462D01*
X908Y462D02*
X917Y462D01*
X1196Y462D02*
X1205Y462D01*
X1215Y462D02*
X1222Y462D01*
X1Y461D02*
X8Y461D01*
X245Y461D02*
X252Y461D01*
X271Y461D02*
X280Y461D01*
X908Y461D02*
X917Y461D01*
X1196Y461D02*
X1205Y461D01*
X1215Y461D02*
X1222Y461D01*
X1Y460D02*
X8Y460D01*
X245Y460D02*
X252Y460D01*
X271Y460D02*
X280Y460D01*
X908Y460D02*
X917Y460D01*
X1196Y460D02*
X1205Y460D01*
X1215Y460D02*
X1222Y460D01*
X1Y459D02*
X8Y459D01*
X245Y459D02*
X252Y459D01*
X271Y459D02*
X280Y459D01*
X908Y459D02*
X917Y459D01*
X1196Y459D02*
X1205Y459D01*
X1215Y459D02*
X1222Y459D01*
X1Y458D02*
X8Y458D01*
X245Y458D02*
X252Y458D01*
X271Y458D02*
X280Y458D01*
X909Y458D02*
X918Y458D01*
X1196Y458D02*
X1205Y458D01*
X1215Y458D02*
X1222Y458D01*
X1Y457D02*
X8Y457D01*
X245Y457D02*
X252Y457D01*
X271Y457D02*
X280Y457D01*
X909Y457D02*
X918Y457D01*
X1196Y457D02*
X1205Y457D01*
X1215Y457D02*
X1222Y457D01*
X1Y456D02*
X8Y456D01*
X245Y456D02*
X252Y456D01*
X271Y456D02*
X280Y456D01*
X909Y456D02*
X918Y456D01*
X1196Y456D02*
X1205Y456D01*
X1215Y456D02*
X1222Y456D01*
X1Y455D02*
X8Y455D01*
X245Y455D02*
X252Y455D01*
X271Y455D02*
X280Y455D01*
X909Y455D02*
X918Y455D01*
X1196Y455D02*
X1205Y455D01*
X1215Y455D02*
X1222Y455D01*
X1Y454D02*
X8Y454D01*
X245Y454D02*
X252Y454D01*
X271Y454D02*
X280Y454D01*
X909Y454D02*
X918Y454D01*
X1196Y454D02*
X1205Y454D01*
X1215Y454D02*
X1222Y454D01*
X1Y453D02*
X8Y453D01*
X245Y453D02*
X252Y453D01*
X271Y453D02*
X280Y453D01*
X909Y453D02*
X918Y453D01*
X1196Y453D02*
X1205Y453D01*
X1215Y453D02*
X1222Y453D01*
X1Y452D02*
X8Y452D01*
X245Y452D02*
X252Y452D01*
X271Y452D02*
X280Y452D01*
X909Y452D02*
X918Y452D01*
X1196Y452D02*
X1205Y452D01*
X1215Y452D02*
X1222Y452D01*
X1Y451D02*
X8Y451D01*
X245Y451D02*
X252Y451D01*
X271Y451D02*
X280Y451D01*
X909Y451D02*
X918Y451D01*
X1196Y451D02*
X1205Y451D01*
X1215Y451D02*
X1222Y451D01*
X1Y450D02*
X8Y450D01*
X245Y450D02*
X252Y450D01*
X271Y450D02*
X280Y450D01*
X910Y450D02*
X919Y450D01*
X1196Y450D02*
X1205Y450D01*
X1215Y450D02*
X1222Y450D01*
X1Y449D02*
X8Y449D01*
X245Y449D02*
X252Y449D01*
X271Y449D02*
X280Y449D01*
X910Y449D02*
X919Y449D01*
X1196Y449D02*
X1205Y449D01*
X1215Y449D02*
X1222Y449D01*
X1Y448D02*
X8Y448D01*
X245Y448D02*
X252Y448D01*
X271Y448D02*
X280Y448D01*
X910Y448D02*
X919Y448D01*
X1196Y448D02*
X1205Y448D01*
X1215Y448D02*
X1222Y448D01*
X1Y447D02*
X8Y447D01*
X245Y447D02*
X252Y447D01*
X271Y447D02*
X280Y447D01*
X910Y447D02*
X919Y447D01*
X1196Y447D02*
X1205Y447D01*
X1215Y447D02*
X1222Y447D01*
X1Y446D02*
X8Y446D01*
X245Y446D02*
X252Y446D01*
X271Y446D02*
X280Y446D01*
X910Y446D02*
X919Y446D01*
X1196Y446D02*
X1205Y446D01*
X1215Y446D02*
X1222Y446D01*
X1Y445D02*
X8Y445D01*
X245Y445D02*
X252Y445D01*
X271Y445D02*
X280Y445D01*
X910Y445D02*
X919Y445D01*
X1196Y445D02*
X1205Y445D01*
X1215Y445D02*
X1222Y445D01*
X1Y444D02*
X8Y444D01*
X245Y444D02*
X252Y444D01*
X271Y444D02*
X280Y444D01*
X910Y444D02*
X919Y444D01*
X1196Y444D02*
X1205Y444D01*
X1215Y444D02*
X1222Y444D01*
X1Y443D02*
X8Y443D01*
X245Y443D02*
X252Y443D01*
X271Y443D02*
X280Y443D01*
X910Y443D02*
X919Y443D01*
X1196Y443D02*
X1205Y443D01*
X1215Y443D02*
X1222Y443D01*
X1Y442D02*
X8Y442D01*
X245Y442D02*
X252Y442D01*
X271Y442D02*
X280Y442D01*
X910Y442D02*
X919Y442D01*
X1196Y442D02*
X1205Y442D01*
X1215Y442D02*
X1222Y442D01*
X1Y441D02*
X8Y441D01*
X245Y441D02*
X252Y441D01*
X271Y441D02*
X280Y441D01*
X910Y441D02*
X919Y441D01*
X1196Y441D02*
X1205Y441D01*
X1215Y441D02*
X1222Y441D01*
X1Y440D02*
X8Y440D01*
X245Y440D02*
X252Y440D01*
X271Y440D02*
X280Y440D01*
X910Y440D02*
X919Y440D01*
X1196Y440D02*
X1205Y440D01*
X1215Y440D02*
X1222Y440D01*
X1Y439D02*
X8Y439D01*
X245Y439D02*
X252Y439D01*
X271Y439D02*
X280Y439D01*
X910Y439D02*
X919Y439D01*
X1196Y439D02*
X1205Y439D01*
X1215Y439D02*
X1222Y439D01*
X1Y438D02*
X8Y438D01*
X245Y438D02*
X252Y438D01*
X271Y438D02*
X280Y438D01*
X910Y438D02*
X919Y438D01*
X1196Y438D02*
X1205Y438D01*
X1215Y438D02*
X1222Y438D01*
X1Y437D02*
X8Y437D01*
X245Y437D02*
X252Y437D01*
X271Y437D02*
X280Y437D01*
X910Y437D02*
X919Y437D01*
X1196Y437D02*
X1205Y437D01*
X1215Y437D02*
X1222Y437D01*
X1Y436D02*
X8Y436D01*
X245Y436D02*
X252Y436D01*
X271Y436D02*
X280Y436D01*
X910Y436D02*
X919Y436D01*
X1196Y436D02*
X1205Y436D01*
X1215Y436D02*
X1222Y436D01*
X1Y435D02*
X8Y435D01*
X245Y435D02*
X252Y435D01*
X271Y435D02*
X280Y435D01*
X324Y435D02*
X326Y435D01*
X352Y435D02*
X354Y435D01*
X910Y435D02*
X919Y435D01*
X1196Y435D02*
X1205Y435D01*
X1215Y435D02*
X1222Y435D01*
X1Y434D02*
X8Y434D01*
X245Y434D02*
X252Y434D01*
X271Y434D02*
X280Y434D01*
X323Y434D02*
X326Y434D01*
X352Y434D02*
X355Y434D01*
X910Y434D02*
X919Y434D01*
X1196Y434D02*
X1205Y434D01*
X1215Y434D02*
X1222Y434D01*
X1Y433D02*
X8Y433D01*
X245Y433D02*
X252Y433D01*
X271Y433D02*
X280Y433D01*
X323Y433D02*
X326Y433D01*
X351Y433D02*
X355Y433D01*
X910Y433D02*
X919Y433D01*
X1196Y433D02*
X1205Y433D01*
X1215Y433D02*
X1222Y433D01*
X1Y432D02*
X8Y432D01*
X245Y432D02*
X252Y432D01*
X271Y432D02*
X280Y432D01*
X323Y432D02*
X326Y432D01*
X351Y432D02*
X355Y432D01*
X910Y432D02*
X919Y432D01*
X1196Y432D02*
X1205Y432D01*
X1215Y432D02*
X1222Y432D01*
X1Y431D02*
X8Y431D01*
X245Y431D02*
X252Y431D01*
X271Y431D02*
X280Y431D01*
X323Y431D02*
X326Y431D01*
X351Y431D02*
X355Y431D01*
X910Y431D02*
X919Y431D01*
X1196Y431D02*
X1205Y431D01*
X1215Y431D02*
X1222Y431D01*
X1Y430D02*
X8Y430D01*
X245Y430D02*
X252Y430D01*
X271Y430D02*
X280Y430D01*
X323Y430D02*
X326Y430D01*
X351Y430D02*
X355Y430D01*
X492Y430D02*
X492Y430D01*
X520Y430D02*
X520Y430D01*
X910Y430D02*
X919Y430D01*
X1196Y430D02*
X1205Y430D01*
X1215Y430D02*
X1222Y430D01*
X1Y429D02*
X8Y429D01*
X245Y429D02*
X252Y429D01*
X271Y429D02*
X280Y429D01*
X323Y429D02*
X326Y429D01*
X351Y429D02*
X355Y429D01*
X490Y429D02*
X493Y429D01*
X519Y429D02*
X521Y429D01*
X910Y429D02*
X919Y429D01*
X1196Y429D02*
X1205Y429D01*
X1215Y429D02*
X1222Y429D01*
X1Y428D02*
X8Y428D01*
X245Y428D02*
X252Y428D01*
X271Y428D02*
X280Y428D01*
X323Y428D02*
X326Y428D01*
X351Y428D02*
X355Y428D01*
X490Y428D02*
X493Y428D01*
X518Y428D02*
X521Y428D01*
X910Y428D02*
X919Y428D01*
X1196Y428D02*
X1205Y428D01*
X1215Y428D02*
X1222Y428D01*
X1Y427D02*
X8Y427D01*
X245Y427D02*
X252Y427D01*
X271Y427D02*
X280Y427D01*
X323Y427D02*
X355Y427D01*
X490Y427D02*
X493Y427D01*
X518Y427D02*
X522Y427D01*
X910Y427D02*
X919Y427D01*
X1196Y427D02*
X1205Y427D01*
X1215Y427D02*
X1222Y427D01*
X1Y426D02*
X8Y426D01*
X245Y426D02*
X252Y426D01*
X271Y426D02*
X280Y426D01*
X323Y426D02*
X355Y426D01*
X490Y426D02*
X493Y426D01*
X518Y426D02*
X522Y426D01*
X910Y426D02*
X919Y426D01*
X1196Y426D02*
X1205Y426D01*
X1215Y426D02*
X1222Y426D01*
X1Y425D02*
X8Y425D01*
X245Y425D02*
X252Y425D01*
X271Y425D02*
X280Y425D01*
X323Y425D02*
X355Y425D01*
X490Y425D02*
X493Y425D01*
X518Y425D02*
X522Y425D01*
X910Y425D02*
X919Y425D01*
X1196Y425D02*
X1205Y425D01*
X1215Y425D02*
X1222Y425D01*
X1Y424D02*
X8Y424D01*
X245Y424D02*
X252Y424D01*
X271Y424D02*
X280Y424D01*
X323Y424D02*
X355Y424D01*
X490Y424D02*
X493Y424D01*
X518Y424D02*
X522Y424D01*
X910Y424D02*
X919Y424D01*
X1196Y424D02*
X1205Y424D01*
X1215Y424D02*
X1222Y424D01*
X1Y423D02*
X8Y423D01*
X245Y423D02*
X252Y423D01*
X271Y423D02*
X280Y423D01*
X323Y423D02*
X326Y423D01*
X490Y423D02*
X493Y423D01*
X518Y423D02*
X522Y423D01*
X910Y423D02*
X919Y423D01*
X1196Y423D02*
X1205Y423D01*
X1215Y423D02*
X1222Y423D01*
X1Y422D02*
X8Y422D01*
X245Y422D02*
X252Y422D01*
X271Y422D02*
X280Y422D01*
X323Y422D02*
X326Y422D01*
X490Y422D02*
X494Y422D01*
X518Y422D02*
X522Y422D01*
X909Y422D02*
X918Y422D01*
X1196Y422D02*
X1205Y422D01*
X1215Y422D02*
X1222Y422D01*
X1Y421D02*
X8Y421D01*
X245Y421D02*
X252Y421D01*
X271Y421D02*
X280Y421D01*
X323Y421D02*
X326Y421D01*
X490Y421D02*
X522Y421D01*
X909Y421D02*
X918Y421D01*
X1196Y421D02*
X1205Y421D01*
X1215Y421D02*
X1222Y421D01*
X1Y420D02*
X8Y420D01*
X245Y420D02*
X252Y420D01*
X271Y420D02*
X280Y420D01*
X323Y420D02*
X326Y420D01*
X490Y420D02*
X522Y420D01*
X909Y420D02*
X918Y420D01*
X1196Y420D02*
X1205Y420D01*
X1215Y420D02*
X1222Y420D01*
X1Y419D02*
X8Y419D01*
X245Y419D02*
X252Y419D01*
X271Y419D02*
X280Y419D01*
X323Y419D02*
X334Y419D01*
X490Y419D02*
X522Y419D01*
X909Y419D02*
X918Y419D01*
X1196Y419D02*
X1205Y419D01*
X1215Y419D02*
X1222Y419D01*
X1Y418D02*
X8Y418D01*
X245Y418D02*
X252Y418D01*
X271Y418D02*
X280Y418D01*
X323Y418D02*
X335Y418D01*
X490Y418D02*
X521Y418D01*
X909Y418D02*
X918Y418D01*
X1196Y418D02*
X1205Y418D01*
X1215Y418D02*
X1222Y418D01*
X1Y417D02*
X8Y417D01*
X245Y417D02*
X252Y417D01*
X271Y417D02*
X280Y417D01*
X323Y417D02*
X335Y417D01*
X490Y417D02*
X493Y417D01*
X909Y417D02*
X918Y417D01*
X1196Y417D02*
X1205Y417D01*
X1215Y417D02*
X1222Y417D01*
X1Y416D02*
X8Y416D01*
X245Y416D02*
X252Y416D01*
X271Y416D02*
X280Y416D01*
X324Y416D02*
X334Y416D01*
X490Y416D02*
X493Y416D01*
X909Y416D02*
X918Y416D01*
X1196Y416D02*
X1205Y416D01*
X1215Y416D02*
X1222Y416D01*
X1Y415D02*
X8Y415D01*
X245Y415D02*
X252Y415D01*
X271Y415D02*
X280Y415D01*
X490Y415D02*
X493Y415D01*
X908Y415D02*
X918Y415D01*
X1196Y415D02*
X1205Y415D01*
X1215Y415D02*
X1222Y415D01*
X1Y414D02*
X8Y414D01*
X245Y414D02*
X252Y414D01*
X271Y414D02*
X280Y414D01*
X490Y414D02*
X493Y414D01*
X908Y414D02*
X917Y414D01*
X983Y414D02*
X984Y414D01*
X1011Y414D02*
X1012Y414D01*
X1196Y414D02*
X1205Y414D01*
X1215Y414D02*
X1222Y414D01*
X1Y413D02*
X8Y413D01*
X245Y413D02*
X252Y413D01*
X271Y413D02*
X280Y413D01*
X490Y413D02*
X501Y413D01*
X908Y413D02*
X917Y413D01*
X982Y413D02*
X985Y413D01*
X1010Y413D02*
X1013Y413D01*
X1196Y413D02*
X1205Y413D01*
X1215Y413D02*
X1222Y413D01*
X1Y412D02*
X8Y412D01*
X245Y412D02*
X252Y412D01*
X271Y412D02*
X280Y412D01*
X490Y412D02*
X502Y412D01*
X908Y412D02*
X917Y412D01*
X982Y412D02*
X985Y412D01*
X1010Y412D02*
X1013Y412D01*
X1196Y412D02*
X1205Y412D01*
X1215Y412D02*
X1222Y412D01*
X1Y411D02*
X8Y411D01*
X245Y411D02*
X252Y411D01*
X271Y411D02*
X280Y411D01*
X490Y411D02*
X502Y411D01*
X908Y411D02*
X917Y411D01*
X982Y411D02*
X985Y411D01*
X1010Y411D02*
X1013Y411D01*
X1196Y411D02*
X1205Y411D01*
X1215Y411D02*
X1222Y411D01*
X1Y410D02*
X8Y410D01*
X245Y410D02*
X252Y410D01*
X271Y410D02*
X280Y410D01*
X491Y410D02*
X501Y410D01*
X908Y410D02*
X917Y410D01*
X982Y410D02*
X985Y410D01*
X1010Y410D02*
X1013Y410D01*
X1196Y410D02*
X1205Y410D01*
X1215Y410D02*
X1222Y410D01*
X1Y409D02*
X8Y409D01*
X245Y409D02*
X252Y409D01*
X271Y409D02*
X280Y409D01*
X907Y409D02*
X916Y409D01*
X982Y409D02*
X985Y409D01*
X1010Y409D02*
X1013Y409D01*
X1196Y409D02*
X1205Y409D01*
X1215Y409D02*
X1222Y409D01*
X1Y408D02*
X8Y408D01*
X245Y408D02*
X252Y408D01*
X271Y408D02*
X280Y408D01*
X907Y408D02*
X916Y408D01*
X982Y408D02*
X985Y408D01*
X1010Y408D02*
X1013Y408D01*
X1196Y408D02*
X1205Y408D01*
X1215Y408D02*
X1222Y408D01*
X1Y407D02*
X8Y407D01*
X245Y407D02*
X252Y407D01*
X271Y407D02*
X280Y407D01*
X907Y407D02*
X916Y407D01*
X982Y407D02*
X985Y407D01*
X1010Y407D02*
X1013Y407D01*
X1196Y407D02*
X1205Y407D01*
X1215Y407D02*
X1222Y407D01*
X1Y406D02*
X8Y406D01*
X245Y406D02*
X252Y406D01*
X271Y406D02*
X280Y406D01*
X907Y406D02*
X916Y406D01*
X982Y406D02*
X1013Y406D01*
X1196Y406D02*
X1205Y406D01*
X1215Y406D02*
X1222Y406D01*
X1Y405D02*
X8Y405D01*
X245Y405D02*
X252Y405D01*
X271Y405D02*
X280Y405D01*
X906Y405D02*
X916Y405D01*
X982Y405D02*
X1013Y405D01*
X1196Y405D02*
X1205Y405D01*
X1215Y405D02*
X1222Y405D01*
X1Y404D02*
X8Y404D01*
X245Y404D02*
X252Y404D01*
X271Y404D02*
X280Y404D01*
X325Y404D02*
X327Y404D01*
X906Y404D02*
X915Y404D01*
X982Y404D02*
X1013Y404D01*
X1196Y404D02*
X1205Y404D01*
X1215Y404D02*
X1222Y404D01*
X1Y403D02*
X8Y403D01*
X245Y403D02*
X252Y403D01*
X271Y403D02*
X280Y403D01*
X324Y403D02*
X328Y403D01*
X906Y403D02*
X915Y403D01*
X982Y403D02*
X1013Y403D01*
X1196Y403D02*
X1205Y403D01*
X1215Y403D02*
X1222Y403D01*
X1Y402D02*
X8Y402D01*
X245Y402D02*
X252Y402D01*
X271Y402D02*
X280Y402D01*
X324Y402D02*
X327Y402D01*
X337Y402D02*
X355Y402D01*
X905Y402D02*
X915Y402D01*
X982Y402D02*
X985Y402D01*
X1196Y402D02*
X1205Y402D01*
X1215Y402D02*
X1222Y402D01*
X1Y401D02*
X8Y401D01*
X245Y401D02*
X252Y401D01*
X271Y401D02*
X280Y401D01*
X323Y401D02*
X327Y401D01*
X337Y401D02*
X355Y401D01*
X682Y401D02*
X683Y401D01*
X710Y401D02*
X711Y401D01*
X905Y401D02*
X915Y401D01*
X982Y401D02*
X985Y401D01*
X1196Y401D02*
X1205Y401D01*
X1215Y401D02*
X1222Y401D01*
X1Y400D02*
X8Y400D01*
X245Y400D02*
X252Y400D01*
X271Y400D02*
X280Y400D01*
X323Y400D02*
X326Y400D01*
X337Y400D02*
X355Y400D01*
X681Y400D02*
X684Y400D01*
X709Y400D02*
X712Y400D01*
X905Y400D02*
X914Y400D01*
X982Y400D02*
X985Y400D01*
X1196Y400D02*
X1205Y400D01*
X1215Y400D02*
X1222Y400D01*
X1Y399D02*
X8Y399D01*
X245Y399D02*
X252Y399D01*
X271Y399D02*
X280Y399D01*
X323Y399D02*
X326Y399D01*
X337Y399D02*
X355Y399D01*
X493Y399D02*
X493Y399D01*
X681Y399D02*
X684Y399D01*
X709Y399D02*
X712Y399D01*
X905Y399D02*
X914Y399D01*
X982Y399D02*
X985Y399D01*
X1196Y399D02*
X1205Y399D01*
X1215Y399D02*
X1222Y399D01*
X1Y398D02*
X8Y398D01*
X245Y398D02*
X252Y398D01*
X271Y398D02*
X280Y398D01*
X323Y398D02*
X326Y398D01*
X337Y398D02*
X341Y398D01*
X351Y398D02*
X355Y398D01*
X492Y398D02*
X494Y398D01*
X681Y398D02*
X684Y398D01*
X709Y398D02*
X712Y398D01*
X904Y398D02*
X914Y398D01*
X982Y398D02*
X991Y398D01*
X1196Y398D02*
X1205Y398D01*
X1215Y398D02*
X1222Y398D01*
X1Y397D02*
X8Y397D01*
X245Y397D02*
X252Y397D01*
X271Y397D02*
X280Y397D01*
X323Y397D02*
X326Y397D01*
X337Y397D02*
X341Y397D01*
X351Y397D02*
X355Y397D01*
X491Y397D02*
X494Y397D01*
X681Y397D02*
X684Y397D01*
X709Y397D02*
X712Y397D01*
X904Y397D02*
X913Y397D01*
X982Y397D02*
X993Y397D01*
X1196Y397D02*
X1205Y397D01*
X1215Y397D02*
X1222Y397D01*
X1Y396D02*
X8Y396D01*
X245Y396D02*
X252Y396D01*
X271Y396D02*
X280Y396D01*
X323Y396D02*
X326Y396D01*
X337Y396D02*
X341Y396D01*
X351Y396D02*
X355Y396D01*
X490Y396D02*
X494Y396D01*
X504Y396D02*
X522Y396D01*
X681Y396D02*
X684Y396D01*
X709Y396D02*
X712Y396D01*
X904Y396D02*
X913Y396D01*
X982Y396D02*
X993Y396D01*
X1196Y396D02*
X1205Y396D01*
X1215Y396D02*
X1222Y396D01*
X1Y395D02*
X8Y395D01*
X245Y395D02*
X252Y395D01*
X271Y395D02*
X280Y395D01*
X323Y395D02*
X326Y395D01*
X337Y395D02*
X341Y395D01*
X351Y395D02*
X355Y395D01*
X490Y395D02*
X494Y395D01*
X504Y395D02*
X522Y395D01*
X681Y395D02*
X684Y395D01*
X709Y395D02*
X712Y395D01*
X903Y395D02*
X913Y395D01*
X982Y395D02*
X993Y395D01*
X1196Y395D02*
X1205Y395D01*
X1215Y395D02*
X1222Y395D01*
X1Y394D02*
X8Y394D01*
X245Y394D02*
X252Y394D01*
X271Y394D02*
X280Y394D01*
X323Y394D02*
X326Y394D01*
X337Y394D02*
X341Y394D01*
X351Y394D02*
X355Y394D01*
X490Y394D02*
X493Y394D01*
X504Y394D02*
X522Y394D01*
X681Y394D02*
X684Y394D01*
X709Y394D02*
X712Y394D01*
X903Y394D02*
X912Y394D01*
X983Y394D02*
X992Y394D01*
X1196Y394D02*
X1205Y394D01*
X1215Y394D02*
X1222Y394D01*
X1Y393D02*
X8Y393D01*
X245Y393D02*
X252Y393D01*
X271Y393D02*
X280Y393D01*
X323Y393D02*
X326Y393D01*
X337Y393D02*
X341Y393D01*
X351Y393D02*
X355Y393D01*
X490Y393D02*
X493Y393D01*
X504Y393D02*
X522Y393D01*
X681Y393D02*
X712Y393D01*
X902Y393D02*
X912Y393D01*
X1196Y393D02*
X1205Y393D01*
X1215Y393D02*
X1222Y393D01*
X1Y392D02*
X8Y392D01*
X245Y392D02*
X252Y392D01*
X271Y392D02*
X280Y392D01*
X323Y392D02*
X326Y392D01*
X337Y392D02*
X341Y392D01*
X351Y392D02*
X355Y392D01*
X490Y392D02*
X493Y392D01*
X504Y392D02*
X507Y392D01*
X518Y392D02*
X522Y392D01*
X681Y392D02*
X712Y392D01*
X902Y392D02*
X912Y392D01*
X1196Y392D02*
X1205Y392D01*
X1215Y392D02*
X1222Y392D01*
X1Y391D02*
X8Y391D01*
X245Y391D02*
X252Y391D01*
X271Y391D02*
X280Y391D01*
X323Y391D02*
X326Y391D01*
X337Y391D02*
X341Y391D01*
X351Y391D02*
X355Y391D01*
X490Y391D02*
X493Y391D01*
X504Y391D02*
X507Y391D01*
X518Y391D02*
X522Y391D01*
X681Y391D02*
X712Y391D01*
X902Y391D02*
X911Y391D01*
X1196Y391D02*
X1205Y391D01*
X1215Y391D02*
X1222Y391D01*
X1Y390D02*
X8Y390D01*
X245Y390D02*
X252Y390D01*
X271Y390D02*
X280Y390D01*
X323Y390D02*
X341Y390D01*
X351Y390D02*
X355Y390D01*
X490Y390D02*
X493Y390D01*
X504Y390D02*
X507Y390D01*
X518Y390D02*
X522Y390D01*
X681Y390D02*
X712Y390D01*
X901Y390D02*
X911Y390D01*
X1196Y390D02*
X1205Y390D01*
X1215Y390D02*
X1222Y390D01*
X1Y389D02*
X8Y389D01*
X245Y389D02*
X252Y389D01*
X271Y389D02*
X280Y389D01*
X323Y389D02*
X340Y389D01*
X351Y389D02*
X355Y389D01*
X490Y389D02*
X493Y389D01*
X504Y389D02*
X507Y389D01*
X518Y389D02*
X522Y389D01*
X681Y389D02*
X711Y389D01*
X901Y389D02*
X911Y389D01*
X1196Y389D02*
X1205Y389D01*
X1215Y389D02*
X1222Y389D01*
X1Y388D02*
X8Y388D01*
X245Y388D02*
X252Y388D01*
X271Y388D02*
X280Y388D01*
X324Y388D02*
X340Y388D01*
X351Y388D02*
X355Y388D01*
X490Y388D02*
X493Y388D01*
X504Y388D02*
X507Y388D01*
X518Y388D02*
X522Y388D01*
X681Y388D02*
X684Y388D01*
X900Y388D02*
X910Y388D01*
X1196Y388D02*
X1205Y388D01*
X1215Y388D02*
X1222Y388D01*
X1Y387D02*
X8Y387D01*
X245Y387D02*
X252Y387D01*
X271Y387D02*
X280Y387D01*
X325Y387D02*
X339Y387D01*
X352Y387D02*
X354Y387D01*
X490Y387D02*
X493Y387D01*
X504Y387D02*
X507Y387D01*
X518Y387D02*
X522Y387D01*
X681Y387D02*
X684Y387D01*
X900Y387D02*
X910Y387D01*
X1196Y387D02*
X1205Y387D01*
X1215Y387D02*
X1222Y387D01*
X1Y386D02*
X8Y386D01*
X245Y386D02*
X252Y386D01*
X271Y386D02*
X280Y386D01*
X327Y386D02*
X337Y386D01*
X353Y386D02*
X353Y386D01*
X490Y386D02*
X493Y386D01*
X504Y386D02*
X507Y386D01*
X518Y386D02*
X522Y386D01*
X681Y386D02*
X684Y386D01*
X899Y386D02*
X909Y386D01*
X1196Y386D02*
X1205Y386D01*
X1215Y386D02*
X1222Y386D01*
X1Y385D02*
X8Y385D01*
X245Y385D02*
X252Y385D01*
X271Y385D02*
X280Y385D01*
X490Y385D02*
X493Y385D01*
X504Y385D02*
X507Y385D01*
X518Y385D02*
X522Y385D01*
X681Y385D02*
X684Y385D01*
X899Y385D02*
X909Y385D01*
X1196Y385D02*
X1205Y385D01*
X1215Y385D02*
X1222Y385D01*
X1Y384D02*
X8Y384D01*
X245Y384D02*
X252Y384D01*
X271Y384D02*
X280Y384D01*
X490Y384D02*
X507Y384D01*
X518Y384D02*
X522Y384D01*
X681Y384D02*
X692Y384D01*
X898Y384D02*
X908Y384D01*
X983Y384D02*
X1012Y384D01*
X1196Y384D02*
X1205Y384D01*
X1215Y384D02*
X1222Y384D01*
X1Y383D02*
X8Y383D01*
X245Y383D02*
X252Y383D01*
X271Y383D02*
X280Y383D01*
X490Y383D02*
X507Y383D01*
X518Y383D02*
X522Y383D01*
X681Y383D02*
X692Y383D01*
X898Y383D02*
X908Y383D01*
X982Y383D02*
X1013Y383D01*
X1196Y383D02*
X1205Y383D01*
X1215Y383D02*
X1222Y383D01*
X1Y382D02*
X8Y382D01*
X245Y382D02*
X252Y382D01*
X271Y382D02*
X280Y382D01*
X491Y382D02*
X507Y382D01*
X518Y382D02*
X521Y382D01*
X681Y382D02*
X692Y382D01*
X897Y382D02*
X907Y382D01*
X982Y382D02*
X1013Y382D01*
X1196Y382D02*
X1205Y382D01*
X1215Y382D02*
X1222Y382D01*
X1Y381D02*
X8Y381D01*
X245Y381D02*
X252Y381D01*
X271Y381D02*
X280Y381D01*
X492Y381D02*
X506Y381D01*
X519Y381D02*
X521Y381D01*
X681Y381D02*
X691Y381D01*
X897Y381D02*
X907Y381D01*
X982Y381D02*
X1013Y381D01*
X1196Y381D02*
X1205Y381D01*
X1215Y381D02*
X1222Y381D01*
X1Y380D02*
X8Y380D01*
X245Y380D02*
X252Y380D01*
X271Y380D02*
X280Y380D01*
X896Y380D02*
X906Y380D01*
X993Y380D02*
X1002Y380D01*
X1196Y380D02*
X1205Y380D01*
X1215Y380D02*
X1222Y380D01*
X1Y379D02*
X8Y379D01*
X245Y379D02*
X252Y379D01*
X271Y379D02*
X280Y379D01*
X895Y379D02*
X906Y379D01*
X992Y379D02*
X1003Y379D01*
X1196Y379D02*
X1205Y379D01*
X1215Y379D02*
X1222Y379D01*
X1Y378D02*
X8Y378D01*
X245Y378D02*
X252Y378D01*
X271Y378D02*
X280Y378D01*
X895Y378D02*
X905Y378D01*
X992Y378D02*
X996Y378D01*
X999Y378D02*
X1003Y378D01*
X1196Y378D02*
X1205Y378D01*
X1215Y378D02*
X1222Y378D01*
X1Y377D02*
X8Y377D01*
X245Y377D02*
X252Y377D01*
X271Y377D02*
X280Y377D01*
X894Y377D02*
X905Y377D01*
X991Y377D02*
X995Y377D01*
X1000Y377D02*
X1004Y377D01*
X1196Y377D02*
X1205Y377D01*
X1215Y377D02*
X1222Y377D01*
X1Y376D02*
X8Y376D01*
X245Y376D02*
X252Y376D01*
X271Y376D02*
X280Y376D01*
X893Y376D02*
X904Y376D01*
X990Y376D02*
X994Y376D01*
X1001Y376D02*
X1005Y376D01*
X1196Y376D02*
X1205Y376D01*
X1215Y376D02*
X1222Y376D01*
X1Y375D02*
X8Y375D01*
X245Y375D02*
X252Y375D01*
X271Y375D02*
X280Y375D01*
X325Y375D02*
X353Y375D01*
X893Y375D02*
X904Y375D01*
X989Y375D02*
X994Y375D01*
X1002Y375D02*
X1006Y375D01*
X1196Y375D02*
X1205Y375D01*
X1215Y375D02*
X1222Y375D01*
X1Y374D02*
X8Y374D01*
X245Y374D02*
X252Y374D01*
X271Y374D02*
X280Y374D01*
X324Y374D02*
X354Y374D01*
X892Y374D02*
X903Y374D01*
X988Y374D02*
X993Y374D01*
X1002Y374D02*
X1007Y374D01*
X1196Y374D02*
X1205Y374D01*
X1215Y374D02*
X1222Y374D01*
X1Y373D02*
X8Y373D01*
X245Y373D02*
X252Y373D01*
X271Y373D02*
X280Y373D01*
X324Y373D02*
X354Y373D01*
X891Y373D02*
X902Y373D01*
X987Y373D02*
X992Y373D01*
X1003Y373D02*
X1008Y373D01*
X1196Y373D02*
X1205Y373D01*
X1215Y373D02*
X1222Y373D01*
X1Y372D02*
X8Y372D01*
X245Y372D02*
X252Y372D01*
X271Y372D02*
X280Y372D01*
X323Y372D02*
X355Y372D01*
X890Y372D02*
X902Y372D01*
X986Y372D02*
X991Y372D01*
X1004Y372D02*
X1009Y372D01*
X1196Y372D02*
X1205Y372D01*
X1215Y372D02*
X1222Y372D01*
X1Y371D02*
X8Y371D01*
X245Y371D02*
X252Y371D01*
X271Y371D02*
X280Y371D01*
X323Y371D02*
X326Y371D01*
X351Y371D02*
X355Y371D01*
X682Y371D02*
X711Y371D01*
X890Y371D02*
X901Y371D01*
X986Y371D02*
X990Y371D01*
X1005Y371D02*
X1009Y371D01*
X1196Y371D02*
X1205Y371D01*
X1215Y371D02*
X1222Y371D01*
X1Y370D02*
X8Y370D01*
X245Y370D02*
X252Y370D01*
X271Y370D02*
X280Y370D01*
X323Y370D02*
X326Y370D01*
X351Y370D02*
X355Y370D01*
X681Y370D02*
X712Y370D01*
X889Y370D02*
X900Y370D01*
X985Y370D02*
X989Y370D01*
X1006Y370D02*
X1010Y370D01*
X1196Y370D02*
X1205Y370D01*
X1215Y370D02*
X1222Y370D01*
X1Y369D02*
X8Y369D01*
X245Y369D02*
X252Y369D01*
X271Y369D02*
X280Y369D01*
X323Y369D02*
X326Y369D01*
X351Y369D02*
X355Y369D01*
X492Y369D02*
X520Y369D01*
X681Y369D02*
X712Y369D01*
X888Y369D02*
X900Y369D01*
X984Y369D02*
X988Y369D01*
X1007Y369D02*
X1011Y369D01*
X1196Y369D02*
X1205Y369D01*
X1215Y369D02*
X1222Y369D01*
X1Y368D02*
X8Y368D01*
X245Y368D02*
X252Y368D01*
X271Y368D02*
X280Y368D01*
X323Y368D02*
X326Y368D01*
X351Y368D02*
X355Y368D01*
X491Y368D02*
X521Y368D01*
X681Y368D02*
X712Y368D01*
X887Y368D02*
X899Y368D01*
X983Y368D02*
X988Y368D01*
X1007Y368D02*
X1012Y368D01*
X1196Y368D02*
X1205Y368D01*
X1215Y368D02*
X1222Y368D01*
X1Y367D02*
X8Y367D01*
X245Y367D02*
X252Y367D01*
X271Y367D02*
X280Y367D01*
X323Y367D02*
X326Y367D01*
X351Y367D02*
X355Y367D01*
X490Y367D02*
X521Y367D01*
X682Y367D02*
X710Y367D01*
X886Y367D02*
X898Y367D01*
X982Y367D02*
X987Y367D01*
X1008Y367D02*
X1013Y367D01*
X1196Y367D02*
X1205Y367D01*
X1215Y367D02*
X1222Y367D01*
X1Y366D02*
X8Y366D01*
X245Y366D02*
X252Y366D01*
X271Y366D02*
X280Y366D01*
X323Y366D02*
X326Y366D01*
X351Y366D02*
X355Y366D01*
X490Y366D02*
X521Y366D01*
X691Y366D02*
X701Y366D01*
X885Y366D02*
X897Y366D01*
X982Y366D02*
X986Y366D01*
X1009Y366D02*
X1013Y366D01*
X1196Y366D02*
X1205Y366D01*
X1215Y366D02*
X1222Y366D01*
X1Y365D02*
X8Y365D01*
X245Y365D02*
X252Y365D01*
X271Y365D02*
X280Y365D01*
X323Y365D02*
X326Y365D01*
X351Y365D02*
X355Y365D01*
X490Y365D02*
X493Y365D01*
X518Y365D02*
X522Y365D01*
X690Y365D02*
X695Y365D01*
X697Y365D02*
X702Y365D01*
X884Y365D02*
X896Y365D01*
X982Y365D02*
X985Y365D01*
X1010Y365D02*
X1013Y365D01*
X1196Y365D02*
X1205Y365D01*
X1215Y365D02*
X1222Y365D01*
X1Y364D02*
X8Y364D01*
X245Y364D02*
X252Y364D01*
X271Y364D02*
X280Y364D01*
X323Y364D02*
X326Y364D01*
X351Y364D02*
X355Y364D01*
X490Y364D02*
X493Y364D01*
X518Y364D02*
X522Y364D01*
X690Y364D02*
X694Y364D01*
X698Y364D02*
X703Y364D01*
X882Y364D02*
X896Y364D01*
X983Y364D02*
X984Y364D01*
X1011Y364D02*
X1012Y364D01*
X1196Y364D02*
X1205Y364D01*
X1215Y364D02*
X1222Y364D01*
X1Y363D02*
X8Y363D01*
X245Y363D02*
X252Y363D01*
X271Y363D02*
X280Y363D01*
X323Y363D02*
X326Y363D01*
X351Y363D02*
X355Y363D01*
X490Y363D02*
X493Y363D01*
X518Y363D02*
X522Y363D01*
X689Y363D02*
X693Y363D01*
X699Y363D02*
X704Y363D01*
X881Y363D02*
X895Y363D01*
X1196Y363D02*
X1205Y363D01*
X1215Y363D02*
X1222Y363D01*
X1Y362D02*
X8Y362D01*
X245Y362D02*
X252Y362D01*
X271Y362D02*
X280Y362D01*
X323Y362D02*
X326Y362D01*
X351Y362D02*
X355Y362D01*
X490Y362D02*
X493Y362D01*
X518Y362D02*
X522Y362D01*
X688Y362D02*
X692Y362D01*
X700Y362D02*
X705Y362D01*
X879Y362D02*
X894Y362D01*
X1196Y362D02*
X1205Y362D01*
X1215Y362D02*
X1222Y362D01*
X1Y361D02*
X8Y361D01*
X245Y361D02*
X252Y361D01*
X271Y361D02*
X280Y361D01*
X323Y361D02*
X326Y361D01*
X351Y361D02*
X355Y361D01*
X490Y361D02*
X493Y361D01*
X518Y361D02*
X522Y361D01*
X687Y361D02*
X692Y361D01*
X701Y361D02*
X705Y361D01*
X878Y361D02*
X893Y361D01*
X1196Y361D02*
X1205Y361D01*
X1215Y361D02*
X1222Y361D01*
X1Y360D02*
X8Y360D01*
X245Y360D02*
X252Y360D01*
X271Y360D02*
X280Y360D01*
X323Y360D02*
X326Y360D01*
X351Y360D02*
X355Y360D01*
X490Y360D02*
X493Y360D01*
X518Y360D02*
X522Y360D01*
X686Y360D02*
X691Y360D01*
X702Y360D02*
X706Y360D01*
X876Y360D02*
X892Y360D01*
X1196Y360D02*
X1205Y360D01*
X1215Y360D02*
X1222Y360D01*
X1Y359D02*
X8Y359D01*
X245Y359D02*
X252Y359D01*
X271Y359D02*
X280Y359D01*
X323Y359D02*
X355Y359D01*
X490Y359D02*
X493Y359D01*
X518Y359D02*
X522Y359D01*
X685Y359D02*
X690Y359D01*
X703Y359D02*
X707Y359D01*
X874Y359D02*
X891Y359D01*
X1196Y359D02*
X1205Y359D01*
X1215Y359D02*
X1222Y359D01*
X1Y358D02*
X8Y358D01*
X245Y358D02*
X252Y358D01*
X271Y358D02*
X280Y358D01*
X323Y358D02*
X354Y358D01*
X490Y358D02*
X493Y358D01*
X518Y358D02*
X522Y358D01*
X685Y358D02*
X689Y358D01*
X703Y358D02*
X708Y358D01*
X871Y358D02*
X889Y358D01*
X1196Y358D02*
X1205Y358D01*
X1215Y358D02*
X1222Y358D01*
X1Y357D02*
X8Y357D01*
X245Y357D02*
X252Y357D01*
X271Y357D02*
X280Y357D01*
X324Y357D02*
X354Y357D01*
X490Y357D02*
X493Y357D01*
X518Y357D02*
X522Y357D01*
X684Y357D02*
X688Y357D01*
X704Y357D02*
X709Y357D01*
X865Y357D02*
X888Y357D01*
X1196Y357D02*
X1205Y357D01*
X1215Y357D02*
X1222Y357D01*
X1Y356D02*
X8Y356D01*
X245Y356D02*
X252Y356D01*
X271Y356D02*
X280Y356D01*
X325Y356D02*
X353Y356D01*
X490Y356D02*
X493Y356D01*
X518Y356D02*
X522Y356D01*
X683Y356D02*
X687Y356D01*
X705Y356D02*
X710Y356D01*
X861Y356D02*
X887Y356D01*
X1196Y356D02*
X1205Y356D01*
X1215Y356D02*
X1222Y356D01*
X1Y355D02*
X8Y355D01*
X245Y355D02*
X252Y355D01*
X271Y355D02*
X280Y355D01*
X327Y355D02*
X351Y355D01*
X490Y355D02*
X493Y355D01*
X518Y355D02*
X522Y355D01*
X682Y355D02*
X686Y355D01*
X706Y355D02*
X711Y355D01*
X860Y355D02*
X886Y355D01*
X1196Y355D02*
X1205Y355D01*
X1215Y355D02*
X1222Y355D01*
X1Y354D02*
X8Y354D01*
X245Y354D02*
X252Y354D01*
X271Y354D02*
X280Y354D01*
X490Y354D02*
X493Y354D01*
X518Y354D02*
X522Y354D01*
X681Y354D02*
X686Y354D01*
X707Y354D02*
X711Y354D01*
X860Y354D02*
X884Y354D01*
X1196Y354D02*
X1205Y354D01*
X1215Y354D02*
X1222Y354D01*
X1Y353D02*
X8Y353D01*
X245Y353D02*
X252Y353D01*
X271Y353D02*
X280Y353D01*
X490Y353D02*
X521Y353D01*
X681Y353D02*
X685Y353D01*
X708Y353D02*
X712Y353D01*
X861Y353D02*
X882Y353D01*
X1196Y353D02*
X1205Y353D01*
X1215Y353D02*
X1222Y353D01*
X1Y352D02*
X8Y352D01*
X245Y352D02*
X252Y352D01*
X271Y352D02*
X280Y352D01*
X490Y352D02*
X521Y352D01*
X681Y352D02*
X684Y352D01*
X709Y352D02*
X712Y352D01*
X861Y352D02*
X881Y352D01*
X1196Y352D02*
X1205Y352D01*
X1215Y352D02*
X1222Y352D01*
X1Y351D02*
X8Y351D01*
X245Y351D02*
X252Y351D01*
X271Y351D02*
X280Y351D01*
X491Y351D02*
X521Y351D01*
X681Y351D02*
X683Y351D01*
X710Y351D02*
X711Y351D01*
X861Y351D02*
X879Y351D01*
X1196Y351D02*
X1205Y351D01*
X1215Y351D02*
X1222Y351D01*
X1Y350D02*
X8Y350D01*
X245Y350D02*
X252Y350D01*
X271Y350D02*
X280Y350D01*
X492Y350D02*
X520Y350D01*
X861Y350D02*
X876Y350D01*
X1196Y350D02*
X1205Y350D01*
X1215Y350D02*
X1222Y350D01*
X1Y349D02*
X8Y349D01*
X245Y349D02*
X252Y349D01*
X271Y349D02*
X280Y349D01*
X862Y349D02*
X874Y349D01*
X1196Y349D02*
X1205Y349D01*
X1215Y349D02*
X1222Y349D01*
X1Y348D02*
X8Y348D01*
X245Y348D02*
X252Y348D01*
X271Y348D02*
X280Y348D01*
X862Y348D02*
X871Y348D01*
X1196Y348D02*
X1205Y348D01*
X1215Y348D02*
X1222Y348D01*
X1Y347D02*
X8Y347D01*
X245Y347D02*
X252Y347D01*
X271Y347D02*
X280Y347D01*
X863Y347D02*
X865Y347D01*
X1196Y347D02*
X1205Y347D01*
X1215Y347D02*
X1222Y347D01*
X1Y346D02*
X8Y346D01*
X245Y346D02*
X252Y346D01*
X271Y346D02*
X280Y346D01*
X1196Y346D02*
X1205Y346D01*
X1215Y346D02*
X1222Y346D01*
X1Y345D02*
X8Y345D01*
X245Y345D02*
X252Y345D01*
X271Y345D02*
X280Y345D01*
X1196Y345D02*
X1205Y345D01*
X1215Y345D02*
X1222Y345D01*
X1Y344D02*
X8Y344D01*
X245Y344D02*
X252Y344D01*
X271Y344D02*
X280Y344D01*
X1196Y344D02*
X1205Y344D01*
X1215Y344D02*
X1222Y344D01*
X1Y343D02*
X8Y343D01*
X245Y343D02*
X252Y343D01*
X271Y343D02*
X280Y343D01*
X1196Y343D02*
X1205Y343D01*
X1215Y343D02*
X1222Y343D01*
X1Y342D02*
X8Y342D01*
X245Y342D02*
X252Y342D01*
X271Y342D02*
X280Y342D01*
X1196Y342D02*
X1205Y342D01*
X1215Y342D02*
X1222Y342D01*
X1Y341D02*
X8Y341D01*
X245Y341D02*
X252Y341D01*
X271Y341D02*
X280Y341D01*
X1196Y341D02*
X1205Y341D01*
X1215Y341D02*
X1222Y341D01*
X1Y340D02*
X8Y340D01*
X245Y340D02*
X252Y340D01*
X271Y340D02*
X280Y340D01*
X1196Y340D02*
X1205Y340D01*
X1215Y340D02*
X1222Y340D01*
X1Y339D02*
X8Y339D01*
X245Y339D02*
X252Y339D01*
X271Y339D02*
X280Y339D01*
X1196Y339D02*
X1205Y339D01*
X1215Y339D02*
X1222Y339D01*
X1Y338D02*
X8Y338D01*
X245Y338D02*
X252Y338D01*
X271Y338D02*
X280Y338D01*
X424Y338D02*
X426Y338D01*
X589Y338D02*
X591Y338D01*
X1196Y338D02*
X1205Y338D01*
X1215Y338D02*
X1222Y338D01*
X1Y337D02*
X8Y337D01*
X245Y337D02*
X252Y337D01*
X271Y337D02*
X280Y337D01*
X423Y337D02*
X427Y337D01*
X587Y337D02*
X592Y337D01*
X1196Y337D02*
X1205Y337D01*
X1215Y337D02*
X1222Y337D01*
X1Y336D02*
X8Y336D01*
X245Y336D02*
X252Y336D01*
X271Y336D02*
X280Y336D01*
X422Y336D02*
X428Y336D01*
X587Y336D02*
X593Y336D01*
X1196Y336D02*
X1205Y336D01*
X1215Y336D02*
X1222Y336D01*
X1Y335D02*
X8Y335D01*
X245Y335D02*
X252Y335D01*
X271Y335D02*
X280Y335D01*
X422Y335D02*
X428Y335D01*
X586Y335D02*
X593Y335D01*
X1196Y335D02*
X1205Y335D01*
X1215Y335D02*
X1222Y335D01*
X1Y334D02*
X8Y334D01*
X245Y334D02*
X252Y334D01*
X271Y334D02*
X280Y334D01*
X421Y334D02*
X428Y334D01*
X586Y334D02*
X593Y334D01*
X1196Y334D02*
X1205Y334D01*
X1215Y334D02*
X1222Y334D01*
X1Y333D02*
X8Y333D01*
X245Y333D02*
X252Y333D01*
X271Y333D02*
X280Y333D01*
X421Y333D02*
X428Y333D01*
X586Y333D02*
X593Y333D01*
X1196Y333D02*
X1205Y333D01*
X1215Y333D02*
X1222Y333D01*
X1Y332D02*
X8Y332D01*
X245Y332D02*
X252Y332D01*
X271Y332D02*
X280Y332D01*
X421Y332D02*
X428Y332D01*
X586Y332D02*
X593Y332D01*
X1196Y332D02*
X1205Y332D01*
X1215Y332D02*
X1222Y332D01*
X1Y331D02*
X8Y331D01*
X245Y331D02*
X252Y331D01*
X271Y331D02*
X280Y331D01*
X421Y331D02*
X428Y331D01*
X586Y331D02*
X593Y331D01*
X1196Y331D02*
X1205Y331D01*
X1215Y331D02*
X1222Y331D01*
X1Y330D02*
X8Y330D01*
X245Y330D02*
X252Y330D01*
X271Y330D02*
X280Y330D01*
X421Y330D02*
X428Y330D01*
X586Y330D02*
X593Y330D01*
X1196Y330D02*
X1205Y330D01*
X1215Y330D02*
X1222Y330D01*
X1Y329D02*
X8Y329D01*
X245Y329D02*
X252Y329D01*
X271Y329D02*
X280Y329D01*
X421Y329D02*
X428Y329D01*
X586Y329D02*
X593Y329D01*
X1196Y329D02*
X1205Y329D01*
X1215Y329D02*
X1222Y329D01*
X1Y328D02*
X8Y328D01*
X245Y328D02*
X252Y328D01*
X271Y328D02*
X280Y328D01*
X421Y328D02*
X428Y328D01*
X586Y328D02*
X593Y328D01*
X1196Y328D02*
X1205Y328D01*
X1215Y328D02*
X1222Y328D01*
X1Y327D02*
X8Y327D01*
X245Y327D02*
X252Y327D01*
X271Y327D02*
X280Y327D01*
X421Y327D02*
X428Y327D01*
X586Y327D02*
X593Y327D01*
X1196Y327D02*
X1205Y327D01*
X1215Y327D02*
X1222Y327D01*
X1Y326D02*
X8Y326D01*
X245Y326D02*
X252Y326D01*
X271Y326D02*
X280Y326D01*
X1196Y326D02*
X1205Y326D01*
X1215Y326D02*
X1222Y326D01*
X1Y325D02*
X8Y325D01*
X245Y325D02*
X252Y325D01*
X271Y325D02*
X280Y325D01*
X1196Y325D02*
X1205Y325D01*
X1215Y325D02*
X1222Y325D01*
X1Y324D02*
X8Y324D01*
X245Y324D02*
X252Y324D01*
X271Y324D02*
X280Y324D01*
X1196Y324D02*
X1205Y324D01*
X1215Y324D02*
X1222Y324D01*
X1Y323D02*
X8Y323D01*
X245Y323D02*
X252Y323D01*
X271Y323D02*
X280Y323D01*
X1196Y323D02*
X1205Y323D01*
X1215Y323D02*
X1222Y323D01*
X1Y322D02*
X8Y322D01*
X245Y322D02*
X252Y322D01*
X271Y322D02*
X280Y322D01*
X1196Y322D02*
X1205Y322D01*
X1215Y322D02*
X1222Y322D01*
X1Y321D02*
X8Y321D01*
X245Y321D02*
X252Y321D01*
X271Y321D02*
X280Y321D01*
X1196Y321D02*
X1205Y321D01*
X1215Y321D02*
X1222Y321D01*
X1Y320D02*
X8Y320D01*
X245Y320D02*
X252Y320D01*
X271Y320D02*
X280Y320D01*
X1196Y320D02*
X1205Y320D01*
X1215Y320D02*
X1222Y320D01*
X1Y319D02*
X8Y319D01*
X245Y319D02*
X252Y319D01*
X271Y319D02*
X280Y319D01*
X1196Y319D02*
X1205Y319D01*
X1215Y319D02*
X1222Y319D01*
X1Y318D02*
X8Y318D01*
X245Y318D02*
X252Y318D01*
X271Y318D02*
X280Y318D01*
X1196Y318D02*
X1205Y318D01*
X1215Y318D02*
X1222Y318D01*
X1Y317D02*
X8Y317D01*
X245Y317D02*
X252Y317D01*
X271Y317D02*
X280Y317D01*
X1196Y317D02*
X1205Y317D01*
X1215Y317D02*
X1222Y317D01*
X1Y316D02*
X8Y316D01*
X245Y316D02*
X252Y316D01*
X271Y316D02*
X280Y316D01*
X1196Y316D02*
X1205Y316D01*
X1215Y316D02*
X1222Y316D01*
X1Y315D02*
X8Y315D01*
X245Y315D02*
X252Y315D01*
X271Y315D02*
X280Y315D01*
X1196Y315D02*
X1205Y315D01*
X1215Y315D02*
X1222Y315D01*
X1Y314D02*
X8Y314D01*
X245Y314D02*
X252Y314D01*
X271Y314D02*
X280Y314D01*
X1196Y314D02*
X1205Y314D01*
X1215Y314D02*
X1222Y314D01*
X1Y313D02*
X8Y313D01*
X245Y313D02*
X252Y313D01*
X271Y313D02*
X280Y313D01*
X1196Y313D02*
X1205Y313D01*
X1215Y313D02*
X1222Y313D01*
X1Y312D02*
X8Y312D01*
X245Y312D02*
X252Y312D01*
X271Y312D02*
X280Y312D01*
X1196Y312D02*
X1205Y312D01*
X1215Y312D02*
X1222Y312D01*
X1Y311D02*
X8Y311D01*
X245Y311D02*
X252Y311D01*
X271Y311D02*
X280Y311D01*
X1196Y311D02*
X1205Y311D01*
X1215Y311D02*
X1222Y311D01*
X1Y310D02*
X8Y310D01*
X245Y310D02*
X252Y310D01*
X271Y310D02*
X280Y310D01*
X1196Y310D02*
X1205Y310D01*
X1215Y310D02*
X1222Y310D01*
X1Y309D02*
X8Y309D01*
X245Y309D02*
X252Y309D01*
X271Y309D02*
X280Y309D01*
X1196Y309D02*
X1205Y309D01*
X1215Y309D02*
X1222Y309D01*
X1Y308D02*
X8Y308D01*
X245Y308D02*
X252Y308D01*
X271Y308D02*
X280Y308D01*
X1196Y308D02*
X1205Y308D01*
X1215Y308D02*
X1222Y308D01*
X1Y307D02*
X8Y307D01*
X245Y307D02*
X252Y307D01*
X271Y307D02*
X280Y307D01*
X1196Y307D02*
X1205Y307D01*
X1215Y307D02*
X1222Y307D01*
X1Y306D02*
X8Y306D01*
X245Y306D02*
X252Y306D01*
X271Y306D02*
X280Y306D01*
X1196Y306D02*
X1205Y306D01*
X1215Y306D02*
X1222Y306D01*
X1Y305D02*
X8Y305D01*
X245Y305D02*
X252Y305D01*
X271Y305D02*
X280Y305D01*
X1196Y305D02*
X1205Y305D01*
X1215Y305D02*
X1222Y305D01*
X1Y304D02*
X8Y304D01*
X245Y304D02*
X252Y304D01*
X271Y304D02*
X280Y304D01*
X1196Y304D02*
X1205Y304D01*
X1215Y304D02*
X1222Y304D01*
X1Y303D02*
X8Y303D01*
X245Y303D02*
X252Y303D01*
X271Y303D02*
X280Y303D01*
X1196Y303D02*
X1205Y303D01*
X1215Y303D02*
X1222Y303D01*
X1Y302D02*
X8Y302D01*
X245Y302D02*
X252Y302D01*
X271Y302D02*
X280Y302D01*
X1196Y302D02*
X1205Y302D01*
X1215Y302D02*
X1222Y302D01*
X1Y301D02*
X8Y301D01*
X245Y301D02*
X252Y301D01*
X271Y301D02*
X280Y301D01*
X1196Y301D02*
X1205Y301D01*
X1215Y301D02*
X1222Y301D01*
X1Y300D02*
X8Y300D01*
X245Y300D02*
X252Y300D01*
X271Y300D02*
X280Y300D01*
X1196Y300D02*
X1205Y300D01*
X1215Y300D02*
X1222Y300D01*
X1Y299D02*
X8Y299D01*
X245Y299D02*
X252Y299D01*
X271Y299D02*
X280Y299D01*
X1196Y299D02*
X1205Y299D01*
X1215Y299D02*
X1222Y299D01*
X1Y298D02*
X8Y298D01*
X245Y298D02*
X252Y298D01*
X271Y298D02*
X280Y298D01*
X1196Y298D02*
X1205Y298D01*
X1215Y298D02*
X1222Y298D01*
X1Y297D02*
X8Y297D01*
X245Y297D02*
X252Y297D01*
X271Y297D02*
X280Y297D01*
X1196Y297D02*
X1205Y297D01*
X1215Y297D02*
X1222Y297D01*
X1Y296D02*
X8Y296D01*
X245Y296D02*
X252Y296D01*
X271Y296D02*
X280Y296D01*
X338Y296D02*
X347Y296D01*
X1196Y296D02*
X1205Y296D01*
X1215Y296D02*
X1222Y296D01*
X1Y295D02*
X8Y295D01*
X245Y295D02*
X252Y295D01*
X271Y295D02*
X280Y295D01*
X338Y295D02*
X347Y295D01*
X1196Y295D02*
X1205Y295D01*
X1215Y295D02*
X1222Y295D01*
X1Y294D02*
X8Y294D01*
X245Y294D02*
X252Y294D01*
X271Y294D02*
X280Y294D01*
X338Y294D02*
X347Y294D01*
X1196Y294D02*
X1205Y294D01*
X1215Y294D02*
X1222Y294D01*
X1Y293D02*
X8Y293D01*
X245Y293D02*
X252Y293D01*
X271Y293D02*
X280Y293D01*
X338Y293D02*
X347Y293D01*
X504Y293D02*
X513Y293D01*
X1196Y293D02*
X1205Y293D01*
X1215Y293D02*
X1222Y293D01*
X1Y292D02*
X8Y292D01*
X245Y292D02*
X252Y292D01*
X271Y292D02*
X280Y292D01*
X338Y292D02*
X347Y292D01*
X504Y292D02*
X513Y292D01*
X1196Y292D02*
X1205Y292D01*
X1215Y292D02*
X1222Y292D01*
X1Y291D02*
X8Y291D01*
X245Y291D02*
X252Y291D01*
X271Y291D02*
X280Y291D01*
X338Y291D02*
X347Y291D01*
X504Y291D02*
X513Y291D01*
X1196Y291D02*
X1205Y291D01*
X1215Y291D02*
X1222Y291D01*
X1Y290D02*
X8Y290D01*
X245Y290D02*
X252Y290D01*
X271Y290D02*
X280Y290D01*
X338Y290D02*
X347Y290D01*
X504Y290D02*
X513Y290D01*
X1196Y290D02*
X1205Y290D01*
X1215Y290D02*
X1222Y290D01*
X1Y289D02*
X8Y289D01*
X245Y289D02*
X252Y289D01*
X271Y289D02*
X280Y289D01*
X338Y289D02*
X347Y289D01*
X504Y289D02*
X513Y289D01*
X1196Y289D02*
X1205Y289D01*
X1215Y289D02*
X1222Y289D01*
X1Y288D02*
X8Y288D01*
X245Y288D02*
X252Y288D01*
X271Y288D02*
X280Y288D01*
X338Y288D02*
X347Y288D01*
X504Y288D02*
X513Y288D01*
X1196Y288D02*
X1205Y288D01*
X1215Y288D02*
X1222Y288D01*
X1Y287D02*
X8Y287D01*
X245Y287D02*
X252Y287D01*
X271Y287D02*
X280Y287D01*
X338Y287D02*
X347Y287D01*
X504Y287D02*
X513Y287D01*
X997Y287D02*
X1006Y287D01*
X1196Y287D02*
X1205Y287D01*
X1215Y287D02*
X1222Y287D01*
X1Y286D02*
X8Y286D01*
X245Y286D02*
X252Y286D01*
X271Y286D02*
X280Y286D01*
X338Y286D02*
X347Y286D01*
X504Y286D02*
X513Y286D01*
X997Y286D02*
X1006Y286D01*
X1196Y286D02*
X1205Y286D01*
X1215Y286D02*
X1222Y286D01*
X1Y285D02*
X8Y285D01*
X245Y285D02*
X252Y285D01*
X271Y285D02*
X280Y285D01*
X338Y285D02*
X347Y285D01*
X504Y285D02*
X513Y285D01*
X997Y285D02*
X1006Y285D01*
X1196Y285D02*
X1205Y285D01*
X1215Y285D02*
X1222Y285D01*
X1Y284D02*
X8Y284D01*
X245Y284D02*
X252Y284D01*
X271Y284D02*
X280Y284D01*
X338Y284D02*
X347Y284D01*
X504Y284D02*
X513Y284D01*
X997Y284D02*
X1006Y284D01*
X1196Y284D02*
X1205Y284D01*
X1215Y284D02*
X1222Y284D01*
X1Y283D02*
X8Y283D01*
X245Y283D02*
X252Y283D01*
X271Y283D02*
X280Y283D01*
X338Y283D02*
X347Y283D01*
X504Y283D02*
X513Y283D01*
X997Y283D02*
X1006Y283D01*
X1196Y283D02*
X1205Y283D01*
X1215Y283D02*
X1222Y283D01*
X1Y282D02*
X8Y282D01*
X245Y282D02*
X252Y282D01*
X271Y282D02*
X280Y282D01*
X338Y282D02*
X347Y282D01*
X504Y282D02*
X513Y282D01*
X997Y282D02*
X1006Y282D01*
X1196Y282D02*
X1205Y282D01*
X1215Y282D02*
X1222Y282D01*
X1Y281D02*
X8Y281D01*
X245Y281D02*
X252Y281D01*
X271Y281D02*
X280Y281D01*
X338Y281D02*
X347Y281D01*
X504Y281D02*
X513Y281D01*
X997Y281D02*
X1006Y281D01*
X1196Y281D02*
X1205Y281D01*
X1215Y281D02*
X1222Y281D01*
X1Y280D02*
X8Y280D01*
X245Y280D02*
X252Y280D01*
X271Y280D02*
X280Y280D01*
X338Y280D02*
X347Y280D01*
X504Y280D02*
X513Y280D01*
X997Y280D02*
X1006Y280D01*
X1196Y280D02*
X1205Y280D01*
X1215Y280D02*
X1222Y280D01*
X1Y279D02*
X8Y279D01*
X245Y279D02*
X252Y279D01*
X271Y279D02*
X280Y279D01*
X338Y279D02*
X347Y279D01*
X504Y279D02*
X513Y279D01*
X997Y279D02*
X1006Y279D01*
X1196Y279D02*
X1205Y279D01*
X1215Y279D02*
X1222Y279D01*
X1Y278D02*
X8Y278D01*
X245Y278D02*
X252Y278D01*
X271Y278D02*
X280Y278D01*
X338Y278D02*
X347Y278D01*
X504Y278D02*
X513Y278D01*
X997Y278D02*
X1006Y278D01*
X1196Y278D02*
X1205Y278D01*
X1215Y278D02*
X1222Y278D01*
X1Y277D02*
X8Y277D01*
X245Y277D02*
X252Y277D01*
X271Y277D02*
X280Y277D01*
X338Y277D02*
X347Y277D01*
X504Y277D02*
X513Y277D01*
X997Y277D02*
X1006Y277D01*
X1196Y277D02*
X1205Y277D01*
X1215Y277D02*
X1222Y277D01*
X1Y276D02*
X8Y276D01*
X245Y276D02*
X252Y276D01*
X271Y276D02*
X280Y276D01*
X338Y276D02*
X347Y276D01*
X504Y276D02*
X513Y276D01*
X997Y276D02*
X1006Y276D01*
X1196Y276D02*
X1205Y276D01*
X1215Y276D02*
X1222Y276D01*
X1Y275D02*
X8Y275D01*
X245Y275D02*
X252Y275D01*
X271Y275D02*
X280Y275D01*
X338Y275D02*
X347Y275D01*
X504Y275D02*
X513Y275D01*
X997Y275D02*
X1006Y275D01*
X1196Y275D02*
X1205Y275D01*
X1215Y275D02*
X1222Y275D01*
X1Y274D02*
X8Y274D01*
X245Y274D02*
X252Y274D01*
X271Y274D02*
X280Y274D01*
X338Y274D02*
X347Y274D01*
X504Y274D02*
X513Y274D01*
X695Y274D02*
X704Y274D01*
X997Y274D02*
X1006Y274D01*
X1196Y274D02*
X1205Y274D01*
X1215Y274D02*
X1222Y274D01*
X1Y273D02*
X8Y273D01*
X245Y273D02*
X252Y273D01*
X271Y273D02*
X280Y273D01*
X338Y273D02*
X347Y273D01*
X504Y273D02*
X513Y273D01*
X695Y273D02*
X704Y273D01*
X997Y273D02*
X1006Y273D01*
X1196Y273D02*
X1205Y273D01*
X1215Y273D02*
X1222Y273D01*
X1Y272D02*
X8Y272D01*
X245Y272D02*
X252Y272D01*
X271Y272D02*
X280Y272D01*
X338Y272D02*
X347Y272D01*
X504Y272D02*
X513Y272D01*
X695Y272D02*
X704Y272D01*
X997Y272D02*
X1006Y272D01*
X1196Y272D02*
X1205Y272D01*
X1215Y272D02*
X1222Y272D01*
X1Y271D02*
X8Y271D01*
X245Y271D02*
X252Y271D01*
X271Y271D02*
X280Y271D01*
X338Y271D02*
X347Y271D01*
X504Y271D02*
X513Y271D01*
X695Y271D02*
X704Y271D01*
X997Y271D02*
X1006Y271D01*
X1196Y271D02*
X1205Y271D01*
X1215Y271D02*
X1222Y271D01*
X1Y270D02*
X8Y270D01*
X245Y270D02*
X252Y270D01*
X271Y270D02*
X280Y270D01*
X338Y270D02*
X347Y270D01*
X504Y270D02*
X513Y270D01*
X695Y270D02*
X704Y270D01*
X997Y270D02*
X1006Y270D01*
X1196Y270D02*
X1205Y270D01*
X1215Y270D02*
X1222Y270D01*
X1Y269D02*
X8Y269D01*
X245Y269D02*
X252Y269D01*
X271Y269D02*
X280Y269D01*
X338Y269D02*
X347Y269D01*
X504Y269D02*
X513Y269D01*
X695Y269D02*
X704Y269D01*
X997Y269D02*
X1006Y269D01*
X1196Y269D02*
X1205Y269D01*
X1215Y269D02*
X1222Y269D01*
X1Y268D02*
X8Y268D01*
X245Y268D02*
X252Y268D01*
X271Y268D02*
X280Y268D01*
X338Y268D02*
X347Y268D01*
X504Y268D02*
X513Y268D01*
X695Y268D02*
X704Y268D01*
X997Y268D02*
X1006Y268D01*
X1196Y268D02*
X1205Y268D01*
X1215Y268D02*
X1222Y268D01*
X1Y267D02*
X8Y267D01*
X245Y267D02*
X252Y267D01*
X271Y267D02*
X280Y267D01*
X338Y267D02*
X347Y267D01*
X504Y267D02*
X513Y267D01*
X695Y267D02*
X704Y267D01*
X997Y267D02*
X1006Y267D01*
X1196Y267D02*
X1205Y267D01*
X1215Y267D02*
X1222Y267D01*
X1Y266D02*
X8Y266D01*
X245Y266D02*
X252Y266D01*
X271Y266D02*
X280Y266D01*
X338Y266D02*
X347Y266D01*
X504Y266D02*
X513Y266D01*
X695Y266D02*
X704Y266D01*
X997Y266D02*
X1006Y266D01*
X1196Y266D02*
X1224Y266D01*
X1Y265D02*
X8Y265D01*
X245Y265D02*
X252Y265D01*
X271Y265D02*
X280Y265D01*
X338Y265D02*
X347Y265D01*
X504Y265D02*
X513Y265D01*
X695Y265D02*
X704Y265D01*
X997Y265D02*
X1006Y265D01*
X1196Y265D02*
X1224Y265D01*
X1Y264D02*
X8Y264D01*
X245Y264D02*
X252Y264D01*
X271Y264D02*
X280Y264D01*
X338Y264D02*
X347Y264D01*
X504Y264D02*
X513Y264D01*
X695Y264D02*
X704Y264D01*
X997Y264D02*
X1006Y264D01*
X1196Y264D02*
X1224Y264D01*
X1Y263D02*
X8Y263D01*
X245Y263D02*
X252Y263D01*
X271Y263D02*
X280Y263D01*
X338Y263D02*
X347Y263D01*
X504Y263D02*
X513Y263D01*
X695Y263D02*
X704Y263D01*
X997Y263D02*
X1006Y263D01*
X1196Y263D02*
X1224Y263D01*
X1Y262D02*
X8Y262D01*
X245Y262D02*
X252Y262D01*
X271Y262D02*
X280Y262D01*
X338Y262D02*
X347Y262D01*
X504Y262D02*
X513Y262D01*
X695Y262D02*
X704Y262D01*
X997Y262D02*
X1006Y262D01*
X1196Y262D02*
X1224Y262D01*
X1Y261D02*
X8Y261D01*
X245Y261D02*
X252Y261D01*
X271Y261D02*
X280Y261D01*
X338Y261D02*
X347Y261D01*
X504Y261D02*
X513Y261D01*
X695Y261D02*
X704Y261D01*
X997Y261D02*
X1006Y261D01*
X1196Y261D02*
X1224Y261D01*
X1Y260D02*
X8Y260D01*
X245Y260D02*
X252Y260D01*
X271Y260D02*
X280Y260D01*
X338Y260D02*
X347Y260D01*
X504Y260D02*
X513Y260D01*
X695Y260D02*
X704Y260D01*
X997Y260D02*
X1006Y260D01*
X1196Y260D02*
X1224Y260D01*
X1Y259D02*
X8Y259D01*
X245Y259D02*
X252Y259D01*
X271Y259D02*
X280Y259D01*
X338Y259D02*
X347Y259D01*
X504Y259D02*
X513Y259D01*
X695Y259D02*
X704Y259D01*
X997Y259D02*
X1006Y259D01*
X1196Y259D02*
X1224Y259D01*
X1Y258D02*
X8Y258D01*
X245Y258D02*
X252Y258D01*
X271Y258D02*
X280Y258D01*
X338Y258D02*
X347Y258D01*
X504Y258D02*
X513Y258D01*
X695Y258D02*
X704Y258D01*
X997Y258D02*
X1006Y258D01*
X1196Y258D02*
X1224Y258D01*
X1Y257D02*
X8Y257D01*
X245Y257D02*
X252Y257D01*
X271Y257D02*
X280Y257D01*
X338Y257D02*
X347Y257D01*
X504Y257D02*
X513Y257D01*
X695Y257D02*
X704Y257D01*
X997Y257D02*
X1006Y257D01*
X1196Y257D02*
X1224Y257D01*
X1Y256D02*
X8Y256D01*
X245Y256D02*
X252Y256D01*
X271Y256D02*
X280Y256D01*
X338Y256D02*
X347Y256D01*
X504Y256D02*
X513Y256D01*
X695Y256D02*
X704Y256D01*
X997Y256D02*
X1006Y256D01*
X1196Y256D02*
X1205Y256D01*
X1215Y256D02*
X1222Y256D01*
X1Y255D02*
X8Y255D01*
X245Y255D02*
X252Y255D01*
X271Y255D02*
X280Y255D01*
X338Y255D02*
X347Y255D01*
X504Y255D02*
X513Y255D01*
X695Y255D02*
X704Y255D01*
X997Y255D02*
X1006Y255D01*
X1196Y255D02*
X1205Y255D01*
X1215Y255D02*
X1222Y255D01*
X1Y254D02*
X8Y254D01*
X245Y254D02*
X252Y254D01*
X271Y254D02*
X280Y254D01*
X338Y254D02*
X347Y254D01*
X504Y254D02*
X513Y254D01*
X695Y254D02*
X704Y254D01*
X997Y254D02*
X1006Y254D01*
X1196Y254D02*
X1205Y254D01*
X1215Y254D02*
X1222Y254D01*
X1Y253D02*
X8Y253D01*
X245Y253D02*
X252Y253D01*
X271Y253D02*
X280Y253D01*
X338Y253D02*
X347Y253D01*
X504Y253D02*
X513Y253D01*
X695Y253D02*
X704Y253D01*
X997Y253D02*
X1006Y253D01*
X1196Y253D02*
X1205Y253D01*
X1215Y253D02*
X1222Y253D01*
X1Y252D02*
X8Y252D01*
X245Y252D02*
X252Y252D01*
X271Y252D02*
X280Y252D01*
X338Y252D02*
X347Y252D01*
X504Y252D02*
X513Y252D01*
X695Y252D02*
X704Y252D01*
X997Y252D02*
X1006Y252D01*
X1196Y252D02*
X1205Y252D01*
X1215Y252D02*
X1222Y252D01*
X1Y251D02*
X8Y251D01*
X245Y251D02*
X252Y251D01*
X271Y251D02*
X280Y251D01*
X338Y251D02*
X347Y251D01*
X504Y251D02*
X513Y251D01*
X695Y251D02*
X704Y251D01*
X997Y251D02*
X1006Y251D01*
X1196Y251D02*
X1205Y251D01*
X1215Y251D02*
X1222Y251D01*
X1Y250D02*
X8Y250D01*
X245Y250D02*
X252Y250D01*
X271Y250D02*
X280Y250D01*
X338Y250D02*
X347Y250D01*
X504Y250D02*
X513Y250D01*
X695Y250D02*
X704Y250D01*
X997Y250D02*
X1006Y250D01*
X1196Y250D02*
X1205Y250D01*
X1215Y250D02*
X1222Y250D01*
X1Y249D02*
X8Y249D01*
X245Y249D02*
X252Y249D01*
X271Y249D02*
X280Y249D01*
X338Y249D02*
X347Y249D01*
X504Y249D02*
X513Y249D01*
X695Y249D02*
X704Y249D01*
X997Y249D02*
X1006Y249D01*
X1196Y249D02*
X1205Y249D01*
X1215Y249D02*
X1222Y249D01*
X1Y248D02*
X8Y248D01*
X245Y248D02*
X252Y248D01*
X271Y248D02*
X280Y248D01*
X504Y248D02*
X513Y248D01*
X695Y248D02*
X704Y248D01*
X997Y248D02*
X1006Y248D01*
X1177Y248D02*
X1179Y248D01*
X1196Y248D02*
X1205Y248D01*
X1215Y248D02*
X1222Y248D01*
X1Y247D02*
X8Y247D01*
X245Y247D02*
X252Y247D01*
X271Y247D02*
X280Y247D01*
X504Y247D02*
X513Y247D01*
X695Y247D02*
X704Y247D01*
X997Y247D02*
X1006Y247D01*
X1176Y247D02*
X1180Y247D01*
X1196Y247D02*
X1205Y247D01*
X1215Y247D02*
X1222Y247D01*
X1Y246D02*
X8Y246D01*
X245Y246D02*
X252Y246D01*
X271Y246D02*
X280Y246D01*
X504Y246D02*
X513Y246D01*
X695Y246D02*
X704Y246D01*
X997Y246D02*
X1006Y246D01*
X1175Y246D02*
X1180Y246D01*
X1196Y246D02*
X1205Y246D01*
X1215Y246D02*
X1222Y246D01*
X1Y245D02*
X8Y245D01*
X245Y245D02*
X252Y245D01*
X271Y245D02*
X280Y245D01*
X504Y245D02*
X513Y245D01*
X695Y245D02*
X704Y245D01*
X997Y245D02*
X1006Y245D01*
X1174Y245D02*
X1180Y245D01*
X1196Y245D02*
X1205Y245D01*
X1215Y245D02*
X1222Y245D01*
X1Y244D02*
X8Y244D01*
X245Y244D02*
X252Y244D01*
X271Y244D02*
X280Y244D01*
X504Y244D02*
X513Y244D01*
X695Y244D02*
X704Y244D01*
X997Y244D02*
X1006Y244D01*
X1174Y244D02*
X1179Y244D01*
X1196Y244D02*
X1205Y244D01*
X1215Y244D02*
X1222Y244D01*
X1Y243D02*
X8Y243D01*
X245Y243D02*
X252Y243D01*
X271Y243D02*
X280Y243D01*
X504Y243D02*
X513Y243D01*
X695Y243D02*
X704Y243D01*
X997Y243D02*
X1006Y243D01*
X1174Y243D02*
X1178Y243D01*
X1196Y243D02*
X1205Y243D01*
X1215Y243D02*
X1222Y243D01*
X1Y242D02*
X8Y242D01*
X245Y242D02*
X252Y242D01*
X271Y242D02*
X280Y242D01*
X504Y242D02*
X513Y242D01*
X695Y242D02*
X704Y242D01*
X997Y242D02*
X1006Y242D01*
X1174Y242D02*
X1177Y242D01*
X1196Y242D02*
X1205Y242D01*
X1215Y242D02*
X1222Y242D01*
X1Y241D02*
X8Y241D01*
X245Y241D02*
X252Y241D01*
X271Y241D02*
X280Y241D01*
X504Y241D02*
X513Y241D01*
X695Y241D02*
X704Y241D01*
X997Y241D02*
X1006Y241D01*
X1174Y241D02*
X1176Y241D01*
X1196Y241D02*
X1205Y241D01*
X1215Y241D02*
X1222Y241D01*
X1Y240D02*
X8Y240D01*
X245Y240D02*
X252Y240D01*
X271Y240D02*
X280Y240D01*
X504Y240D02*
X513Y240D01*
X695Y240D02*
X704Y240D01*
X997Y240D02*
X1006Y240D01*
X1174Y240D02*
X1175Y240D01*
X1196Y240D02*
X1205Y240D01*
X1215Y240D02*
X1222Y240D01*
X1Y239D02*
X8Y239D01*
X245Y239D02*
X252Y239D01*
X271Y239D02*
X280Y239D01*
X504Y239D02*
X513Y239D01*
X695Y239D02*
X704Y239D01*
X1174Y239D02*
X1174Y239D01*
X1196Y239D02*
X1205Y239D01*
X1215Y239D02*
X1222Y239D01*
X1Y238D02*
X8Y238D01*
X245Y238D02*
X252Y238D01*
X271Y238D02*
X280Y238D01*
X504Y238D02*
X513Y238D01*
X695Y238D02*
X704Y238D01*
X1196Y238D02*
X1205Y238D01*
X1215Y238D02*
X1222Y238D01*
X1Y237D02*
X8Y237D01*
X245Y237D02*
X252Y237D01*
X271Y237D02*
X280Y237D01*
X504Y237D02*
X513Y237D01*
X695Y237D02*
X704Y237D01*
X1196Y237D02*
X1205Y237D01*
X1215Y237D02*
X1222Y237D01*
X1Y236D02*
X8Y236D01*
X245Y236D02*
X252Y236D01*
X271Y236D02*
X280Y236D01*
X504Y236D02*
X513Y236D01*
X695Y236D02*
X704Y236D01*
X1196Y236D02*
X1205Y236D01*
X1215Y236D02*
X1222Y236D01*
X1Y235D02*
X8Y235D01*
X245Y235D02*
X252Y235D01*
X271Y235D02*
X280Y235D01*
X504Y235D02*
X513Y235D01*
X695Y235D02*
X704Y235D01*
X1196Y235D02*
X1205Y235D01*
X1215Y235D02*
X1222Y235D01*
X1Y234D02*
X8Y234D01*
X245Y234D02*
X252Y234D01*
X271Y234D02*
X280Y234D01*
X504Y234D02*
X513Y234D01*
X695Y234D02*
X704Y234D01*
X1196Y234D02*
X1205Y234D01*
X1215Y234D02*
X1222Y234D01*
X1Y233D02*
X8Y233D01*
X245Y233D02*
X252Y233D01*
X271Y233D02*
X280Y233D01*
X504Y233D02*
X513Y233D01*
X695Y233D02*
X704Y233D01*
X1196Y233D02*
X1205Y233D01*
X1215Y233D02*
X1222Y233D01*
X1Y232D02*
X8Y232D01*
X245Y232D02*
X252Y232D01*
X271Y232D02*
X280Y232D01*
X504Y232D02*
X513Y232D01*
X695Y232D02*
X704Y232D01*
X1196Y232D02*
X1205Y232D01*
X1215Y232D02*
X1222Y232D01*
X1Y231D02*
X8Y231D01*
X245Y231D02*
X252Y231D01*
X271Y231D02*
X280Y231D01*
X504Y231D02*
X513Y231D01*
X695Y231D02*
X704Y231D01*
X1196Y231D02*
X1205Y231D01*
X1215Y231D02*
X1222Y231D01*
X1Y230D02*
X8Y230D01*
X245Y230D02*
X252Y230D01*
X271Y230D02*
X280Y230D01*
X504Y230D02*
X513Y230D01*
X695Y230D02*
X704Y230D01*
X1196Y230D02*
X1205Y230D01*
X1215Y230D02*
X1222Y230D01*
X1Y229D02*
X8Y229D01*
X245Y229D02*
X252Y229D01*
X271Y229D02*
X280Y229D01*
X504Y229D02*
X513Y229D01*
X695Y229D02*
X704Y229D01*
X1196Y229D02*
X1205Y229D01*
X1215Y229D02*
X1222Y229D01*
X1Y228D02*
X8Y228D01*
X245Y228D02*
X252Y228D01*
X271Y228D02*
X280Y228D01*
X504Y228D02*
X513Y228D01*
X695Y228D02*
X704Y228D01*
X1196Y228D02*
X1205Y228D01*
X1215Y228D02*
X1222Y228D01*
X1Y227D02*
X8Y227D01*
X245Y227D02*
X252Y227D01*
X271Y227D02*
X280Y227D01*
X504Y227D02*
X513Y227D01*
X695Y227D02*
X704Y227D01*
X1196Y227D02*
X1205Y227D01*
X1215Y227D02*
X1222Y227D01*
X1Y226D02*
X8Y226D01*
X245Y226D02*
X252Y226D01*
X271Y226D02*
X280Y226D01*
X695Y226D02*
X695Y226D01*
X1196Y226D02*
X1205Y226D01*
X1215Y226D02*
X1222Y226D01*
X1Y225D02*
X8Y225D01*
X245Y225D02*
X252Y225D01*
X271Y225D02*
X280Y225D01*
X1196Y225D02*
X1205Y225D01*
X1215Y225D02*
X1222Y225D01*
X1Y224D02*
X8Y224D01*
X245Y224D02*
X252Y224D01*
X271Y224D02*
X280Y224D01*
X1196Y224D02*
X1205Y224D01*
X1215Y224D02*
X1222Y224D01*
X1Y223D02*
X8Y223D01*
X245Y223D02*
X252Y223D01*
X271Y223D02*
X280Y223D01*
X1196Y223D02*
X1205Y223D01*
X1215Y223D02*
X1222Y223D01*
X1Y222D02*
X8Y222D01*
X245Y222D02*
X252Y222D01*
X271Y222D02*
X280Y222D01*
X1196Y222D02*
X1205Y222D01*
X1215Y222D02*
X1222Y222D01*
X1Y221D02*
X8Y221D01*
X245Y221D02*
X252Y221D01*
X271Y221D02*
X280Y221D01*
X1196Y221D02*
X1205Y221D01*
X1215Y221D02*
X1222Y221D01*
X1Y220D02*
X8Y220D01*
X245Y220D02*
X252Y220D01*
X271Y220D02*
X280Y220D01*
X1196Y220D02*
X1205Y220D01*
X1215Y220D02*
X1222Y220D01*
X1Y219D02*
X8Y219D01*
X245Y219D02*
X252Y219D01*
X271Y219D02*
X280Y219D01*
X1196Y219D02*
X1205Y219D01*
X1215Y219D02*
X1222Y219D01*
X1Y218D02*
X8Y218D01*
X245Y218D02*
X252Y218D01*
X271Y218D02*
X280Y218D01*
X1147Y218D02*
X1153Y218D01*
X1196Y218D02*
X1205Y218D01*
X1215Y218D02*
X1222Y218D01*
X1Y217D02*
X8Y217D01*
X245Y217D02*
X252Y217D01*
X271Y217D02*
X280Y217D01*
X1146Y217D02*
X1152Y217D01*
X1196Y217D02*
X1205Y217D01*
X1215Y217D02*
X1222Y217D01*
X1Y216D02*
X8Y216D01*
X245Y216D02*
X252Y216D01*
X271Y216D02*
X280Y216D01*
X1145Y216D02*
X1151Y216D01*
X1196Y216D02*
X1205Y216D01*
X1215Y216D02*
X1222Y216D01*
X1Y215D02*
X8Y215D01*
X245Y215D02*
X252Y215D01*
X271Y215D02*
X280Y215D01*
X1144Y215D02*
X1150Y215D01*
X1196Y215D02*
X1205Y215D01*
X1215Y215D02*
X1222Y215D01*
X1Y214D02*
X8Y214D01*
X245Y214D02*
X252Y214D01*
X271Y214D02*
X280Y214D01*
X1144Y214D02*
X1149Y214D01*
X1196Y214D02*
X1205Y214D01*
X1215Y214D02*
X1222Y214D01*
X1Y213D02*
X8Y213D01*
X245Y213D02*
X252Y213D01*
X271Y213D02*
X280Y213D01*
X1145Y213D02*
X1148Y213D01*
X1196Y213D02*
X1205Y213D01*
X1215Y213D02*
X1222Y213D01*
X1Y212D02*
X8Y212D01*
X245Y212D02*
X252Y212D01*
X271Y212D02*
X280Y212D01*
X1146Y212D02*
X1147Y212D01*
X1196Y212D02*
X1205Y212D01*
X1215Y212D02*
X1222Y212D01*
X1Y211D02*
X8Y211D01*
X245Y211D02*
X252Y211D01*
X271Y211D02*
X280Y211D01*
X1196Y211D02*
X1205Y211D01*
X1215Y211D02*
X1222Y211D01*
X1Y210D02*
X8Y210D01*
X245Y210D02*
X252Y210D01*
X271Y210D02*
X280Y210D01*
X1196Y210D02*
X1205Y210D01*
X1215Y210D02*
X1222Y210D01*
X1Y209D02*
X8Y209D01*
X245Y209D02*
X252Y209D01*
X271Y209D02*
X280Y209D01*
X1196Y209D02*
X1205Y209D01*
X1215Y209D02*
X1222Y209D01*
X1Y208D02*
X8Y208D01*
X245Y208D02*
X252Y208D01*
X271Y208D02*
X280Y208D01*
X1196Y208D02*
X1205Y208D01*
X1215Y208D02*
X1222Y208D01*
X1Y207D02*
X8Y207D01*
X245Y207D02*
X252Y207D01*
X271Y207D02*
X280Y207D01*
X1196Y207D02*
X1205Y207D01*
X1215Y207D02*
X1222Y207D01*
X1Y206D02*
X8Y206D01*
X245Y206D02*
X252Y206D01*
X271Y206D02*
X280Y206D01*
X1196Y206D02*
X1205Y206D01*
X1215Y206D02*
X1222Y206D01*
X1Y205D02*
X8Y205D01*
X245Y205D02*
X252Y205D01*
X271Y205D02*
X280Y205D01*
X1196Y205D02*
X1205Y205D01*
X1215Y205D02*
X1222Y205D01*
X1Y204D02*
X8Y204D01*
X245Y204D02*
X252Y204D01*
X271Y204D02*
X280Y204D01*
X1196Y204D02*
X1205Y204D01*
X1215Y204D02*
X1222Y204D01*
X1Y203D02*
X8Y203D01*
X245Y203D02*
X252Y203D01*
X271Y203D02*
X280Y203D01*
X1196Y203D02*
X1205Y203D01*
X1215Y203D02*
X1222Y203D01*
X1Y202D02*
X8Y202D01*
X245Y202D02*
X252Y202D01*
X271Y202D02*
X280Y202D01*
X1196Y202D02*
X1205Y202D01*
X1215Y202D02*
X1222Y202D01*
X1Y201D02*
X8Y201D01*
X245Y201D02*
X252Y201D01*
X271Y201D02*
X280Y201D01*
X1196Y201D02*
X1205Y201D01*
X1215Y201D02*
X1222Y201D01*
X1Y200D02*
X8Y200D01*
X245Y200D02*
X252Y200D01*
X271Y200D02*
X280Y200D01*
X1196Y200D02*
X1205Y200D01*
X1215Y200D02*
X1222Y200D01*
X1Y199D02*
X8Y199D01*
X245Y199D02*
X252Y199D01*
X271Y199D02*
X280Y199D01*
X1196Y199D02*
X1205Y199D01*
X1215Y199D02*
X1222Y199D01*
X1Y198D02*
X8Y198D01*
X245Y198D02*
X252Y198D01*
X271Y198D02*
X280Y198D01*
X1196Y198D02*
X1205Y198D01*
X1215Y198D02*
X1222Y198D01*
X1Y197D02*
X8Y197D01*
X245Y197D02*
X252Y197D01*
X271Y197D02*
X280Y197D01*
X1196Y197D02*
X1205Y197D01*
X1215Y197D02*
X1222Y197D01*
X1Y196D02*
X8Y196D01*
X245Y196D02*
X252Y196D01*
X271Y196D02*
X280Y196D01*
X1196Y196D02*
X1205Y196D01*
X1215Y196D02*
X1222Y196D01*
X1Y195D02*
X8Y195D01*
X245Y195D02*
X252Y195D01*
X271Y195D02*
X280Y195D01*
X1196Y195D02*
X1205Y195D01*
X1215Y195D02*
X1222Y195D01*
X1Y194D02*
X8Y194D01*
X245Y194D02*
X252Y194D01*
X271Y194D02*
X280Y194D01*
X1196Y194D02*
X1205Y194D01*
X1215Y194D02*
X1222Y194D01*
X1Y193D02*
X8Y193D01*
X245Y193D02*
X252Y193D01*
X271Y193D02*
X280Y193D01*
X1196Y193D02*
X1205Y193D01*
X1215Y193D02*
X1222Y193D01*
X1Y192D02*
X8Y192D01*
X245Y192D02*
X252Y192D01*
X271Y192D02*
X280Y192D01*
X1196Y192D02*
X1205Y192D01*
X1215Y192D02*
X1222Y192D01*
X1Y191D02*
X8Y191D01*
X245Y191D02*
X252Y191D01*
X271Y191D02*
X280Y191D01*
X1196Y191D02*
X1205Y191D01*
X1215Y191D02*
X1222Y191D01*
X1Y190D02*
X8Y190D01*
X245Y190D02*
X252Y190D01*
X271Y190D02*
X280Y190D01*
X1196Y190D02*
X1205Y190D01*
X1215Y190D02*
X1222Y190D01*
X1Y189D02*
X8Y189D01*
X245Y189D02*
X252Y189D01*
X271Y189D02*
X280Y189D01*
X1196Y189D02*
X1205Y189D01*
X1215Y189D02*
X1222Y189D01*
X1Y188D02*
X8Y188D01*
X245Y188D02*
X252Y188D01*
X271Y188D02*
X280Y188D01*
X1196Y188D02*
X1205Y188D01*
X1215Y188D02*
X1222Y188D01*
X1Y187D02*
X8Y187D01*
X245Y187D02*
X252Y187D01*
X271Y187D02*
X280Y187D01*
X1196Y187D02*
X1205Y187D01*
X1215Y187D02*
X1222Y187D01*
X1Y186D02*
X8Y186D01*
X245Y186D02*
X252Y186D01*
X271Y186D02*
X280Y186D01*
X1196Y186D02*
X1205Y186D01*
X1215Y186D02*
X1222Y186D01*
X1Y185D02*
X8Y185D01*
X245Y185D02*
X252Y185D01*
X271Y185D02*
X280Y185D01*
X1196Y185D02*
X1205Y185D01*
X1215Y185D02*
X1222Y185D01*
X1Y184D02*
X8Y184D01*
X245Y184D02*
X252Y184D01*
X271Y184D02*
X280Y184D01*
X1196Y184D02*
X1205Y184D01*
X1215Y184D02*
X1222Y184D01*
X1Y183D02*
X8Y183D01*
X245Y183D02*
X252Y183D01*
X271Y183D02*
X280Y183D01*
X1196Y183D02*
X1205Y183D01*
X1215Y183D02*
X1222Y183D01*
X1Y182D02*
X8Y182D01*
X245Y182D02*
X252Y182D01*
X271Y182D02*
X280Y182D01*
X1196Y182D02*
X1205Y182D01*
X1215Y182D02*
X1222Y182D01*
X1Y181D02*
X8Y181D01*
X245Y181D02*
X252Y181D01*
X271Y181D02*
X280Y181D01*
X1196Y181D02*
X1205Y181D01*
X1215Y181D02*
X1222Y181D01*
X1Y180D02*
X8Y180D01*
X245Y180D02*
X252Y180D01*
X271Y180D02*
X280Y180D01*
X1196Y180D02*
X1205Y180D01*
X1215Y180D02*
X1222Y180D01*
X1Y179D02*
X8Y179D01*
X245Y179D02*
X252Y179D01*
X271Y179D02*
X280Y179D01*
X1196Y179D02*
X1205Y179D01*
X1215Y179D02*
X1222Y179D01*
X1Y178D02*
X8Y178D01*
X245Y178D02*
X252Y178D01*
X271Y178D02*
X280Y178D01*
X1196Y178D02*
X1205Y178D01*
X1215Y178D02*
X1222Y178D01*
X1Y177D02*
X8Y177D01*
X245Y177D02*
X252Y177D01*
X271Y177D02*
X280Y177D01*
X1196Y177D02*
X1205Y177D01*
X1215Y177D02*
X1222Y177D01*
X1Y176D02*
X8Y176D01*
X245Y176D02*
X252Y176D01*
X271Y176D02*
X280Y176D01*
X1196Y176D02*
X1205Y176D01*
X1215Y176D02*
X1222Y176D01*
X1Y175D02*
X8Y175D01*
X245Y175D02*
X252Y175D01*
X271Y175D02*
X280Y175D01*
X1196Y175D02*
X1205Y175D01*
X1215Y175D02*
X1222Y175D01*
X1Y174D02*
X8Y174D01*
X245Y174D02*
X252Y174D01*
X271Y174D02*
X280Y174D01*
X1196Y174D02*
X1205Y174D01*
X1215Y174D02*
X1222Y174D01*
X1Y173D02*
X8Y173D01*
X245Y173D02*
X252Y173D01*
X271Y173D02*
X280Y173D01*
X1196Y173D02*
X1205Y173D01*
X1215Y173D02*
X1222Y173D01*
X1Y172D02*
X8Y172D01*
X245Y172D02*
X252Y172D01*
X271Y172D02*
X280Y172D01*
X1196Y172D02*
X1205Y172D01*
X1215Y172D02*
X1222Y172D01*
X1Y171D02*
X8Y171D01*
X245Y171D02*
X252Y171D01*
X271Y171D02*
X280Y171D01*
X1196Y171D02*
X1205Y171D01*
X1215Y171D02*
X1222Y171D01*
X1Y170D02*
X8Y170D01*
X245Y170D02*
X252Y170D01*
X271Y170D02*
X280Y170D01*
X1196Y170D02*
X1205Y170D01*
X1215Y170D02*
X1222Y170D01*
X1Y169D02*
X8Y169D01*
X245Y169D02*
X252Y169D01*
X271Y169D02*
X280Y169D01*
X1196Y169D02*
X1205Y169D01*
X1215Y169D02*
X1222Y169D01*
X1Y168D02*
X8Y168D01*
X245Y168D02*
X252Y168D01*
X271Y168D02*
X280Y168D01*
X1196Y168D02*
X1205Y168D01*
X1215Y168D02*
X1222Y168D01*
X1Y167D02*
X8Y167D01*
X245Y167D02*
X252Y167D01*
X271Y167D02*
X280Y167D01*
X1196Y167D02*
X1205Y167D01*
X1215Y167D02*
X1222Y167D01*
X1Y166D02*
X8Y166D01*
X245Y166D02*
X252Y166D01*
X271Y166D02*
X280Y166D01*
X1196Y166D02*
X1205Y166D01*
X1215Y166D02*
X1222Y166D01*
X1Y165D02*
X8Y165D01*
X245Y165D02*
X252Y165D01*
X271Y165D02*
X280Y165D01*
X1196Y165D02*
X1205Y165D01*
X1215Y165D02*
X1222Y165D01*
X1Y164D02*
X8Y164D01*
X245Y164D02*
X252Y164D01*
X271Y164D02*
X280Y164D01*
X1196Y164D02*
X1205Y164D01*
X1215Y164D02*
X1222Y164D01*
X1Y163D02*
X8Y163D01*
X245Y163D02*
X252Y163D01*
X271Y163D02*
X280Y163D01*
X1196Y163D02*
X1205Y163D01*
X1215Y163D02*
X1222Y163D01*
X1Y162D02*
X8Y162D01*
X245Y162D02*
X252Y162D01*
X271Y162D02*
X280Y162D01*
X1196Y162D02*
X1205Y162D01*
X1215Y162D02*
X1222Y162D01*
X1Y161D02*
X8Y161D01*
X245Y161D02*
X252Y161D01*
X271Y161D02*
X280Y161D01*
X1196Y161D02*
X1205Y161D01*
X1215Y161D02*
X1222Y161D01*
X1Y160D02*
X8Y160D01*
X245Y160D02*
X252Y160D01*
X271Y160D02*
X280Y160D01*
X1196Y160D02*
X1205Y160D01*
X1215Y160D02*
X1222Y160D01*
X1Y159D02*
X8Y159D01*
X245Y159D02*
X252Y159D01*
X271Y159D02*
X280Y159D01*
X1196Y159D02*
X1205Y159D01*
X1215Y159D02*
X1222Y159D01*
X1Y158D02*
X8Y158D01*
X245Y158D02*
X252Y158D01*
X271Y158D02*
X280Y158D01*
X1196Y158D02*
X1205Y158D01*
X1215Y158D02*
X1222Y158D01*
X1Y157D02*
X8Y157D01*
X245Y157D02*
X252Y157D01*
X271Y157D02*
X280Y157D01*
X1196Y157D02*
X1205Y157D01*
X1215Y157D02*
X1222Y157D01*
X1Y156D02*
X8Y156D01*
X245Y156D02*
X252Y156D01*
X271Y156D02*
X280Y156D01*
X1196Y156D02*
X1205Y156D01*
X1215Y156D02*
X1222Y156D01*
X1Y155D02*
X8Y155D01*
X245Y155D02*
X252Y155D01*
X271Y155D02*
X280Y155D01*
X1196Y155D02*
X1205Y155D01*
X1215Y155D02*
X1222Y155D01*
X1Y154D02*
X8Y154D01*
X245Y154D02*
X252Y154D01*
X271Y154D02*
X280Y154D01*
X1196Y154D02*
X1205Y154D01*
X1215Y154D02*
X1222Y154D01*
X1Y153D02*
X8Y153D01*
X245Y153D02*
X252Y153D01*
X271Y153D02*
X280Y153D01*
X1196Y153D02*
X1205Y153D01*
X1215Y153D02*
X1222Y153D01*
X1Y152D02*
X8Y152D01*
X245Y152D02*
X252Y152D01*
X271Y152D02*
X280Y152D01*
X1196Y152D02*
X1205Y152D01*
X1215Y152D02*
X1222Y152D01*
X1Y151D02*
X8Y151D01*
X245Y151D02*
X252Y151D01*
X271Y151D02*
X280Y151D01*
X1196Y151D02*
X1205Y151D01*
X1215Y151D02*
X1222Y151D01*
X1Y150D02*
X8Y150D01*
X245Y150D02*
X252Y150D01*
X271Y150D02*
X280Y150D01*
X1196Y150D02*
X1205Y150D01*
X1215Y150D02*
X1222Y150D01*
X1Y149D02*
X8Y149D01*
X245Y149D02*
X252Y149D01*
X271Y149D02*
X280Y149D01*
X1196Y149D02*
X1205Y149D01*
X1215Y149D02*
X1222Y149D01*
X1Y148D02*
X8Y148D01*
X245Y148D02*
X252Y148D01*
X271Y148D02*
X280Y148D01*
X1196Y148D02*
X1205Y148D01*
X1215Y148D02*
X1222Y148D01*
X1Y147D02*
X8Y147D01*
X245Y147D02*
X252Y147D01*
X271Y147D02*
X280Y147D01*
X1196Y147D02*
X1205Y147D01*
X1215Y147D02*
X1222Y147D01*
X1Y146D02*
X8Y146D01*
X245Y146D02*
X252Y146D01*
X271Y146D02*
X280Y146D01*
X1196Y146D02*
X1205Y146D01*
X1215Y146D02*
X1222Y146D01*
X1Y145D02*
X8Y145D01*
X245Y145D02*
X252Y145D01*
X271Y145D02*
X280Y145D01*
X1196Y145D02*
X1205Y145D01*
X1215Y145D02*
X1222Y145D01*
X1Y144D02*
X8Y144D01*
X245Y144D02*
X252Y144D01*
X271Y144D02*
X280Y144D01*
X1196Y144D02*
X1205Y144D01*
X1215Y144D02*
X1222Y144D01*
X1Y143D02*
X8Y143D01*
X245Y143D02*
X252Y143D01*
X271Y143D02*
X280Y143D01*
X1196Y143D02*
X1205Y143D01*
X1215Y143D02*
X1222Y143D01*
X1Y142D02*
X8Y142D01*
X245Y142D02*
X252Y142D01*
X271Y142D02*
X280Y142D01*
X1196Y142D02*
X1205Y142D01*
X1215Y142D02*
X1222Y142D01*
X1Y141D02*
X8Y141D01*
X245Y141D02*
X252Y141D01*
X271Y141D02*
X280Y141D01*
X1196Y141D02*
X1205Y141D01*
X1215Y141D02*
X1222Y141D01*
X1Y140D02*
X8Y140D01*
X245Y140D02*
X252Y140D01*
X271Y140D02*
X280Y140D01*
X1196Y140D02*
X1205Y140D01*
X1215Y140D02*
X1222Y140D01*
X1Y139D02*
X8Y139D01*
X245Y139D02*
X252Y139D01*
X271Y139D02*
X280Y139D01*
X1196Y139D02*
X1205Y139D01*
X1215Y139D02*
X1222Y139D01*
X1Y138D02*
X8Y138D01*
X245Y138D02*
X252Y138D01*
X271Y138D02*
X280Y138D01*
X1196Y138D02*
X1205Y138D01*
X1215Y138D02*
X1222Y138D01*
X1Y137D02*
X8Y137D01*
X245Y137D02*
X252Y137D01*
X271Y137D02*
X280Y137D01*
X1196Y137D02*
X1205Y137D01*
X1215Y137D02*
X1222Y137D01*
X1Y136D02*
X8Y136D01*
X245Y136D02*
X252Y136D01*
X271Y136D02*
X280Y136D01*
X1196Y136D02*
X1205Y136D01*
X1215Y136D02*
X1222Y136D01*
X1Y135D02*
X8Y135D01*
X245Y135D02*
X252Y135D01*
X271Y135D02*
X280Y135D01*
X1196Y135D02*
X1205Y135D01*
X1215Y135D02*
X1222Y135D01*
X1Y134D02*
X8Y134D01*
X245Y134D02*
X252Y134D01*
X271Y134D02*
X280Y134D01*
X1196Y134D02*
X1205Y134D01*
X1215Y134D02*
X1222Y134D01*
X1Y133D02*
X8Y133D01*
X245Y133D02*
X252Y133D01*
X271Y133D02*
X280Y133D01*
X1196Y133D02*
X1205Y133D01*
X1215Y133D02*
X1222Y133D01*
X1Y132D02*
X8Y132D01*
X245Y132D02*
X252Y132D01*
X271Y132D02*
X280Y132D01*
X1196Y132D02*
X1205Y132D01*
X1215Y132D02*
X1222Y132D01*
X1Y131D02*
X8Y131D01*
X245Y131D02*
X252Y131D01*
X271Y131D02*
X280Y131D01*
X1196Y131D02*
X1205Y131D01*
X1215Y131D02*
X1222Y131D01*
X1Y130D02*
X8Y130D01*
X245Y130D02*
X252Y130D01*
X271Y130D02*
X280Y130D01*
X1196Y130D02*
X1205Y130D01*
X1215Y130D02*
X1222Y130D01*
X1Y129D02*
X8Y129D01*
X245Y129D02*
X252Y129D01*
X271Y129D02*
X280Y129D01*
X1196Y129D02*
X1205Y129D01*
X1215Y129D02*
X1222Y129D01*
X1Y128D02*
X8Y128D01*
X245Y128D02*
X252Y128D01*
X271Y128D02*
X280Y128D01*
X1196Y128D02*
X1205Y128D01*
X1215Y128D02*
X1222Y128D01*
X1Y127D02*
X8Y127D01*
X245Y127D02*
X252Y127D01*
X271Y127D02*
X280Y127D01*
X1196Y127D02*
X1205Y127D01*
X1215Y127D02*
X1222Y127D01*
X1Y126D02*
X8Y126D01*
X245Y126D02*
X252Y126D01*
X271Y126D02*
X280Y126D01*
X1196Y126D02*
X1205Y126D01*
X1215Y126D02*
X1222Y126D01*
X1Y125D02*
X8Y125D01*
X245Y125D02*
X252Y125D01*
X271Y125D02*
X280Y125D01*
X1196Y125D02*
X1205Y125D01*
X1215Y125D02*
X1222Y125D01*
X1Y124D02*
X8Y124D01*
X245Y124D02*
X252Y124D01*
X271Y124D02*
X280Y124D01*
X1196Y124D02*
X1205Y124D01*
X1215Y124D02*
X1222Y124D01*
X1Y123D02*
X8Y123D01*
X245Y123D02*
X252Y123D01*
X271Y123D02*
X280Y123D01*
X1196Y123D02*
X1205Y123D01*
X1215Y123D02*
X1222Y123D01*
X1Y122D02*
X8Y122D01*
X245Y122D02*
X252Y122D01*
X271Y122D02*
X280Y122D01*
X1196Y122D02*
X1205Y122D01*
X1215Y122D02*
X1222Y122D01*
X1Y121D02*
X8Y121D01*
X245Y121D02*
X252Y121D01*
X271Y121D02*
X280Y121D01*
X1196Y121D02*
X1205Y121D01*
X1215Y121D02*
X1222Y121D01*
X1Y120D02*
X8Y120D01*
X245Y120D02*
X252Y120D01*
X271Y120D02*
X280Y120D01*
X1196Y120D02*
X1205Y120D01*
X1215Y120D02*
X1222Y120D01*
X1Y119D02*
X8Y119D01*
X245Y119D02*
X252Y119D01*
X271Y119D02*
X280Y119D01*
X1196Y119D02*
X1205Y119D01*
X1215Y119D02*
X1222Y119D01*
X1Y118D02*
X8Y118D01*
X245Y118D02*
X252Y118D01*
X271Y118D02*
X280Y118D01*
X1196Y118D02*
X1205Y118D01*
X1215Y118D02*
X1222Y118D01*
X1Y117D02*
X8Y117D01*
X245Y117D02*
X252Y117D01*
X271Y117D02*
X280Y117D01*
X1196Y117D02*
X1205Y117D01*
X1215Y117D02*
X1222Y117D01*
X1Y116D02*
X8Y116D01*
X245Y116D02*
X252Y116D01*
X271Y116D02*
X280Y116D01*
X1196Y116D02*
X1205Y116D01*
X1215Y116D02*
X1222Y116D01*
X1Y115D02*
X8Y115D01*
X245Y115D02*
X252Y115D01*
X271Y115D02*
X280Y115D01*
X1196Y115D02*
X1205Y115D01*
X1215Y115D02*
X1222Y115D01*
X1Y114D02*
X8Y114D01*
X245Y114D02*
X252Y114D01*
X271Y114D02*
X280Y114D01*
X1196Y114D02*
X1205Y114D01*
X1215Y114D02*
X1222Y114D01*
X1Y113D02*
X8Y113D01*
X245Y113D02*
X252Y113D01*
X271Y113D02*
X280Y113D01*
X1196Y113D02*
X1205Y113D01*
X1215Y113D02*
X1222Y113D01*
X1Y112D02*
X8Y112D01*
X245Y112D02*
X252Y112D01*
X271Y112D02*
X280Y112D01*
X1196Y112D02*
X1205Y112D01*
X1215Y112D02*
X1222Y112D01*
X1Y111D02*
X8Y111D01*
X245Y111D02*
X252Y111D01*
X271Y111D02*
X280Y111D01*
X1196Y111D02*
X1205Y111D01*
X1215Y111D02*
X1222Y111D01*
X1Y110D02*
X8Y110D01*
X245Y110D02*
X252Y110D01*
X271Y110D02*
X280Y110D01*
X1196Y110D02*
X1205Y110D01*
X1215Y110D02*
X1222Y110D01*
X1Y109D02*
X8Y109D01*
X245Y109D02*
X252Y109D01*
X271Y109D02*
X280Y109D01*
X1196Y109D02*
X1205Y109D01*
X1215Y109D02*
X1222Y109D01*
X1Y108D02*
X8Y108D01*
X245Y108D02*
X252Y108D01*
X271Y108D02*
X280Y108D01*
X1196Y108D02*
X1205Y108D01*
X1215Y108D02*
X1222Y108D01*
X1Y107D02*
X8Y107D01*
X245Y107D02*
X252Y107D01*
X271Y107D02*
X280Y107D01*
X1196Y107D02*
X1205Y107D01*
X1215Y107D02*
X1222Y107D01*
X1Y106D02*
X8Y106D01*
X245Y106D02*
X252Y106D01*
X271Y106D02*
X280Y106D01*
X1196Y106D02*
X1205Y106D01*
X1215Y106D02*
X1222Y106D01*
X1Y105D02*
X8Y105D01*
X245Y105D02*
X252Y105D01*
X271Y105D02*
X280Y105D01*
X1196Y105D02*
X1205Y105D01*
X1215Y105D02*
X1222Y105D01*
X1Y104D02*
X8Y104D01*
X245Y104D02*
X252Y104D01*
X271Y104D02*
X280Y104D01*
X1196Y104D02*
X1205Y104D01*
X1215Y104D02*
X1222Y104D01*
X1Y103D02*
X8Y103D01*
X245Y103D02*
X252Y103D01*
X271Y103D02*
X280Y103D01*
X1196Y103D02*
X1205Y103D01*
X1215Y103D02*
X1222Y103D01*
X1Y102D02*
X8Y102D01*
X245Y102D02*
X252Y102D01*
X271Y102D02*
X280Y102D01*
X1196Y102D02*
X1205Y102D01*
X1215Y102D02*
X1222Y102D01*
X1Y101D02*
X8Y101D01*
X245Y101D02*
X252Y101D01*
X271Y101D02*
X280Y101D01*
X1196Y101D02*
X1205Y101D01*
X1215Y101D02*
X1222Y101D01*
X1Y100D02*
X8Y100D01*
X245Y100D02*
X252Y100D01*
X271Y100D02*
X280Y100D01*
X1196Y100D02*
X1205Y100D01*
X1215Y100D02*
X1222Y100D01*
X1Y99D02*
X8Y99D01*
X245Y99D02*
X252Y99D01*
X271Y99D02*
X280Y99D01*
X1196Y99D02*
X1205Y99D01*
X1215Y99D02*
X1222Y99D01*
X1Y98D02*
X8Y98D01*
X245Y98D02*
X252Y98D01*
X271Y98D02*
X280Y98D01*
X1196Y98D02*
X1205Y98D01*
X1215Y98D02*
X1222Y98D01*
X1Y97D02*
X8Y97D01*
X245Y97D02*
X252Y97D01*
X271Y97D02*
X280Y97D01*
X1196Y97D02*
X1205Y97D01*
X1215Y97D02*
X1222Y97D01*
X1Y96D02*
X8Y96D01*
X245Y96D02*
X252Y96D01*
X271Y96D02*
X280Y96D01*
X1196Y96D02*
X1205Y96D01*
X1215Y96D02*
X1222Y96D01*
X1Y95D02*
X8Y95D01*
X245Y95D02*
X252Y95D01*
X271Y95D02*
X280Y95D01*
X1196Y95D02*
X1205Y95D01*
X1215Y95D02*
X1222Y95D01*
X1Y94D02*
X8Y94D01*
X245Y94D02*
X252Y94D01*
X271Y94D02*
X280Y94D01*
X1196Y94D02*
X1205Y94D01*
X1215Y94D02*
X1222Y94D01*
X1Y93D02*
X8Y93D01*
X245Y93D02*
X252Y93D01*
X271Y93D02*
X280Y93D01*
X1196Y93D02*
X1205Y93D01*
X1215Y93D02*
X1222Y93D01*
X1Y92D02*
X8Y92D01*
X245Y92D02*
X252Y92D01*
X271Y92D02*
X280Y92D01*
X1196Y92D02*
X1205Y92D01*
X1215Y92D02*
X1222Y92D01*
X1Y91D02*
X8Y91D01*
X245Y91D02*
X252Y91D01*
X271Y91D02*
X280Y91D01*
X1196Y91D02*
X1205Y91D01*
X1215Y91D02*
X1222Y91D01*
X1Y90D02*
X8Y90D01*
X245Y90D02*
X252Y90D01*
X271Y90D02*
X280Y90D01*
X1196Y90D02*
X1205Y90D01*
X1215Y90D02*
X1222Y90D01*
X1Y89D02*
X8Y89D01*
X245Y89D02*
X252Y89D01*
X271Y89D02*
X280Y89D01*
X1196Y89D02*
X1205Y89D01*
X1215Y89D02*
X1222Y89D01*
X1Y88D02*
X8Y88D01*
X245Y88D02*
X252Y88D01*
X271Y88D02*
X280Y88D01*
X1196Y88D02*
X1205Y88D01*
X1215Y88D02*
X1222Y88D01*
X1Y87D02*
X8Y87D01*
X245Y87D02*
X252Y87D01*
X271Y87D02*
X280Y87D01*
X1196Y87D02*
X1205Y87D01*
X1215Y87D02*
X1222Y87D01*
X1Y86D02*
X8Y86D01*
X245Y86D02*
X252Y86D01*
X271Y86D02*
X280Y86D01*
X1196Y86D02*
X1205Y86D01*
X1215Y86D02*
X1222Y86D01*
X1Y85D02*
X8Y85D01*
X245Y85D02*
X252Y85D01*
X271Y85D02*
X280Y85D01*
X1196Y85D02*
X1205Y85D01*
X1215Y85D02*
X1222Y85D01*
X1Y84D02*
X8Y84D01*
X245Y84D02*
X252Y84D01*
X271Y84D02*
X280Y84D01*
X1196Y84D02*
X1205Y84D01*
X1215Y84D02*
X1222Y84D01*
X1Y83D02*
X8Y83D01*
X245Y83D02*
X252Y83D01*
X271Y83D02*
X280Y83D01*
X1196Y83D02*
X1205Y83D01*
X1215Y83D02*
X1222Y83D01*
X1Y82D02*
X8Y82D01*
X245Y82D02*
X252Y82D01*
X271Y82D02*
X280Y82D01*
X1196Y82D02*
X1205Y82D01*
X1215Y82D02*
X1222Y82D01*
X1Y81D02*
X8Y81D01*
X245Y81D02*
X252Y81D01*
X271Y81D02*
X280Y81D01*
X1196Y81D02*
X1205Y81D01*
X1215Y81D02*
X1222Y81D01*
X1Y80D02*
X8Y80D01*
X245Y80D02*
X252Y80D01*
X271Y80D02*
X280Y80D01*
X1196Y80D02*
X1205Y80D01*
X1215Y80D02*
X1222Y80D01*
X1Y79D02*
X8Y79D01*
X245Y79D02*
X252Y79D01*
X271Y79D02*
X280Y79D01*
X1196Y79D02*
X1205Y79D01*
X1215Y79D02*
X1222Y79D01*
X1Y78D02*
X8Y78D01*
X245Y78D02*
X252Y78D01*
X271Y78D02*
X280Y78D01*
X1196Y78D02*
X1205Y78D01*
X1215Y78D02*
X1222Y78D01*
X1Y77D02*
X8Y77D01*
X245Y77D02*
X252Y77D01*
X271Y77D02*
X280Y77D01*
X1196Y77D02*
X1205Y77D01*
X1215Y77D02*
X1222Y77D01*
X1Y76D02*
X8Y76D01*
X245Y76D02*
X252Y76D01*
X271Y76D02*
X280Y76D01*
X1196Y76D02*
X1205Y76D01*
X1215Y76D02*
X1222Y76D01*
X1Y75D02*
X8Y75D01*
X245Y75D02*
X252Y75D01*
X271Y75D02*
X280Y75D01*
X1196Y75D02*
X1205Y75D01*
X1215Y75D02*
X1222Y75D01*
X1Y74D02*
X8Y74D01*
X245Y74D02*
X252Y74D01*
X271Y74D02*
X280Y74D01*
X1196Y74D02*
X1205Y74D01*
X1215Y74D02*
X1222Y74D01*
X1Y73D02*
X8Y73D01*
X245Y73D02*
X252Y73D01*
X271Y73D02*
X280Y73D01*
X1196Y73D02*
X1205Y73D01*
X1215Y73D02*
X1222Y73D01*
X1Y72D02*
X8Y72D01*
X245Y72D02*
X252Y72D01*
X271Y72D02*
X280Y72D01*
X1196Y72D02*
X1205Y72D01*
X1215Y72D02*
X1222Y72D01*
X1Y71D02*
X8Y71D01*
X245Y71D02*
X252Y71D01*
X271Y71D02*
X280Y71D01*
X1196Y71D02*
X1205Y71D01*
X1215Y71D02*
X1222Y71D01*
X1Y70D02*
X8Y70D01*
X245Y70D02*
X252Y70D01*
X271Y70D02*
X280Y70D01*
X1196Y70D02*
X1205Y70D01*
X1215Y70D02*
X1222Y70D01*
X1Y69D02*
X8Y69D01*
X245Y69D02*
X252Y69D01*
X271Y69D02*
X280Y69D01*
X1196Y69D02*
X1205Y69D01*
X1215Y69D02*
X1222Y69D01*
X1Y68D02*
X8Y68D01*
X245Y68D02*
X252Y68D01*
X271Y68D02*
X280Y68D01*
X1196Y68D02*
X1205Y68D01*
X1215Y68D02*
X1222Y68D01*
X1Y67D02*
X8Y67D01*
X245Y67D02*
X252Y67D01*
X271Y67D02*
X280Y67D01*
X1196Y67D02*
X1205Y67D01*
X1215Y67D02*
X1222Y67D01*
X1Y66D02*
X8Y66D01*
X245Y66D02*
X252Y66D01*
X271Y66D02*
X280Y66D01*
X1196Y66D02*
X1205Y66D01*
X1215Y66D02*
X1222Y66D01*
X1Y65D02*
X8Y65D01*
X245Y65D02*
X252Y65D01*
X271Y65D02*
X280Y65D01*
X1196Y65D02*
X1205Y65D01*
X1215Y65D02*
X1222Y65D01*
X1Y64D02*
X8Y64D01*
X245Y64D02*
X252Y64D01*
X271Y64D02*
X280Y64D01*
X1196Y64D02*
X1205Y64D01*
X1215Y64D02*
X1222Y64D01*
X1Y63D02*
X8Y63D01*
X245Y63D02*
X252Y63D01*
X271Y63D02*
X280Y63D01*
X1196Y63D02*
X1205Y63D01*
X1215Y63D02*
X1222Y63D01*
X1Y62D02*
X8Y62D01*
X245Y62D02*
X252Y62D01*
X271Y62D02*
X280Y62D01*
X1196Y62D02*
X1205Y62D01*
X1215Y62D02*
X1222Y62D01*
X1Y61D02*
X8Y61D01*
X245Y61D02*
X252Y61D01*
X271Y61D02*
X280Y61D01*
X1196Y61D02*
X1205Y61D01*
X1215Y61D02*
X1222Y61D01*
X1Y60D02*
X8Y60D01*
X245Y60D02*
X252Y60D01*
X271Y60D02*
X280Y60D01*
X1196Y60D02*
X1205Y60D01*
X1215Y60D02*
X1222Y60D01*
X1Y59D02*
X8Y59D01*
X245Y59D02*
X252Y59D01*
X271Y59D02*
X280Y59D01*
X1196Y59D02*
X1205Y59D01*
X1215Y59D02*
X1222Y59D01*
X1Y58D02*
X8Y58D01*
X245Y58D02*
X252Y58D01*
X271Y58D02*
X280Y58D01*
X1196Y58D02*
X1205Y58D01*
X1215Y58D02*
X1222Y58D01*
X1Y57D02*
X8Y57D01*
X245Y57D02*
X252Y57D01*
X271Y57D02*
X280Y57D01*
X1196Y57D02*
X1205Y57D01*
X1215Y57D02*
X1222Y57D01*
X1Y56D02*
X8Y56D01*
X245Y56D02*
X252Y56D01*
X271Y56D02*
X280Y56D01*
X1196Y56D02*
X1205Y56D01*
X1215Y56D02*
X1222Y56D01*
X1Y55D02*
X8Y55D01*
X245Y55D02*
X252Y55D01*
X271Y55D02*
X280Y55D01*
X1196Y55D02*
X1205Y55D01*
X1215Y55D02*
X1222Y55D01*
X1Y54D02*
X8Y54D01*
X245Y54D02*
X252Y54D01*
X271Y54D02*
X280Y54D01*
X1196Y54D02*
X1205Y54D01*
X1215Y54D02*
X1222Y54D01*
X1Y53D02*
X8Y53D01*
X245Y53D02*
X252Y53D01*
X271Y53D02*
X280Y53D01*
X1196Y53D02*
X1205Y53D01*
X1215Y53D02*
X1222Y53D01*
X1Y52D02*
X8Y52D01*
X245Y52D02*
X252Y52D01*
X271Y52D02*
X280Y52D01*
X1196Y52D02*
X1205Y52D01*
X1215Y52D02*
X1222Y52D01*
X1Y51D02*
X8Y51D01*
X245Y51D02*
X252Y51D01*
X271Y51D02*
X280Y51D01*
X1196Y51D02*
X1205Y51D01*
X1215Y51D02*
X1222Y51D01*
X1Y50D02*
X8Y50D01*
X245Y50D02*
X252Y50D01*
X271Y50D02*
X280Y50D01*
X1196Y50D02*
X1205Y50D01*
X1215Y50D02*
X1222Y50D01*
X1Y49D02*
X8Y49D01*
X245Y49D02*
X252Y49D01*
X271Y49D02*
X280Y49D01*
X1196Y49D02*
X1205Y49D01*
X1215Y49D02*
X1222Y49D01*
X1Y48D02*
X8Y48D01*
X245Y48D02*
X252Y48D01*
X271Y48D02*
X280Y48D01*
X1196Y48D02*
X1205Y48D01*
X1215Y48D02*
X1222Y48D01*
X1Y47D02*
X8Y47D01*
X245Y47D02*
X252Y47D01*
X271Y47D02*
X280Y47D01*
X1196Y47D02*
X1205Y47D01*
X1215Y47D02*
X1222Y47D01*
X1Y46D02*
X8Y46D01*
X245Y46D02*
X252Y46D01*
X271Y46D02*
X280Y46D01*
X1196Y46D02*
X1205Y46D01*
X1215Y46D02*
X1222Y46D01*
X1Y45D02*
X8Y45D01*
X245Y45D02*
X252Y45D01*
X271Y45D02*
X280Y45D01*
X1196Y45D02*
X1205Y45D01*
X1215Y45D02*
X1222Y45D01*
X1Y44D02*
X8Y44D01*
X245Y44D02*
X252Y44D01*
X271Y44D02*
X280Y44D01*
X1196Y44D02*
X1205Y44D01*
X1215Y44D02*
X1222Y44D01*
X1Y43D02*
X8Y43D01*
X245Y43D02*
X252Y43D01*
X271Y43D02*
X280Y43D01*
X1196Y43D02*
X1205Y43D01*
X1215Y43D02*
X1222Y43D01*
X1Y42D02*
X8Y42D01*
X245Y42D02*
X252Y42D01*
X271Y42D02*
X280Y42D01*
X1196Y42D02*
X1205Y42D01*
X1215Y42D02*
X1222Y42D01*
X1Y41D02*
X8Y41D01*
X245Y41D02*
X252Y41D01*
X271Y41D02*
X280Y41D01*
X1196Y41D02*
X1205Y41D01*
X1215Y41D02*
X1222Y41D01*
X1Y40D02*
X8Y40D01*
X245Y40D02*
X252Y40D01*
X271Y40D02*
X280Y40D01*
X1196Y40D02*
X1205Y40D01*
X1215Y40D02*
X1222Y40D01*
X1Y39D02*
X8Y39D01*
X245Y39D02*
X252Y39D01*
X271Y39D02*
X280Y39D01*
X1196Y39D02*
X1205Y39D01*
X1215Y39D02*
X1222Y39D01*
X1Y38D02*
X8Y38D01*
X245Y38D02*
X252Y38D01*
X271Y38D02*
X280Y38D01*
X1196Y38D02*
X1205Y38D01*
X1215Y38D02*
X1222Y38D01*
X1Y37D02*
X8Y37D01*
X245Y37D02*
X252Y37D01*
X271Y37D02*
X280Y37D01*
X1196Y37D02*
X1205Y37D01*
X1215Y37D02*
X1222Y37D01*
X1Y36D02*
X8Y36D01*
X245Y36D02*
X252Y36D01*
X271Y36D02*
X280Y36D01*
X1196Y36D02*
X1205Y36D01*
X1215Y36D02*
X1222Y36D01*
X1Y35D02*
X8Y35D01*
X245Y35D02*
X252Y35D01*
X271Y35D02*
X1205Y35D01*
X1215Y35D02*
X1222Y35D01*
X1Y34D02*
X8Y34D01*
X245Y34D02*
X252Y34D01*
X271Y34D02*
X1205Y34D01*
X1215Y34D02*
X1222Y34D01*
X1Y33D02*
X8Y33D01*
X245Y33D02*
X252Y33D01*
X271Y33D02*
X1205Y33D01*
X1215Y33D02*
X1222Y33D01*
X1Y32D02*
X8Y32D01*
X245Y32D02*
X252Y32D01*
X271Y32D02*
X1205Y32D01*
X1215Y32D02*
X1222Y32D01*
X1Y31D02*
X8Y31D01*
X245Y31D02*
X252Y31D01*
X271Y31D02*
X1205Y31D01*
X1215Y31D02*
X1222Y31D01*
X1Y30D02*
X8Y30D01*
X245Y30D02*
X252Y30D01*
X271Y30D02*
X1205Y30D01*
X1215Y30D02*
X1222Y30D01*
X1Y29D02*
X8Y29D01*
X245Y29D02*
X252Y29D01*
X271Y29D02*
X1205Y29D01*
X1215Y29D02*
X1222Y29D01*
X1Y28D02*
X8Y28D01*
X245Y28D02*
X252Y28D01*
X271Y28D02*
X1205Y28D01*
X1215Y28D02*
X1222Y28D01*
X1Y27D02*
X8Y27D01*
X245Y27D02*
X252Y27D01*
X271Y27D02*
X1205Y27D01*
X1215Y27D02*
X1222Y27D01*
X1Y26D02*
X8Y26D01*
X245Y26D02*
X252Y26D01*
X271Y26D02*
X1205Y26D01*
X1215Y26D02*
X1222Y26D01*
X1Y25D02*
X8Y25D01*
X245Y25D02*
X252Y25D01*
X1215Y25D02*
X1222Y25D01*
X1Y24D02*
X8Y24D01*
X245Y24D02*
X252Y24D01*
X1215Y24D02*
X1222Y24D01*
X1Y23D02*
X8Y23D01*
X245Y23D02*
X252Y23D01*
X1215Y23D02*
X1222Y23D01*
X1Y22D02*
X8Y22D01*
X245Y22D02*
X252Y22D01*
X1215Y22D02*
X1222Y22D01*
X1Y21D02*
X8Y21D01*
X245Y21D02*
X252Y21D01*
X1215Y21D02*
X1222Y21D01*
X1Y20D02*
X8Y20D01*
X245Y20D02*
X252Y20D01*
X1215Y20D02*
X1222Y20D01*
X1Y19D02*
X8Y19D01*
X245Y19D02*
X252Y19D01*
X1215Y19D02*
X1222Y19D01*
X1Y18D02*
X8Y18D01*
X245Y18D02*
X252Y18D01*
X1215Y18D02*
X1222Y18D01*
X1Y17D02*
X8Y17D01*
X245Y17D02*
X252Y17D01*
X1215Y17D02*
X1222Y17D01*
X1Y16D02*
X8Y16D01*
X245Y16D02*
X252Y16D01*
X1215Y16D02*
X1222Y16D01*
X1Y15D02*
X8Y15D01*
X245Y15D02*
X252Y15D01*
X1215Y15D02*
X1222Y15D01*
X1Y14D02*
X8Y14D01*
X245Y14D02*
X252Y14D01*
X1215Y14D02*
X1222Y14D01*
X1Y13D02*
X8Y13D01*
X245Y13D02*
X252Y13D01*
X1215Y13D02*
X1222Y13D01*
X1Y12D02*
X8Y12D01*
X245Y12D02*
X252Y12D01*
X1215Y12D02*
X1222Y12D01*
X1Y11D02*
X8Y11D01*
X245Y11D02*
X252Y11D01*
X1215Y11D02*
X1222Y11D01*
X1Y10D02*
X8Y10D01*
X245Y10D02*
X252Y10D01*
X1215Y10D02*
X1222Y10D01*
X1Y9D02*
X8Y9D01*
X245Y9D02*
X252Y9D01*
X1215Y9D02*
X1222Y9D01*
X1Y8D02*
X1222Y8D01*
X1Y7D02*
X1222Y7D01*
X1Y6D02*
X1222Y6D01*
X1Y5D02*
X1222Y5D01*
X1Y4D02*
X1222Y4D01*
X1Y3D02*
X125Y3D01*
X150Y3D02*
X1222Y3D01*
X1Y2D02*
X119Y2D01*
X157Y2D02*
X1222Y2D01*
X1Y1D02*
X114Y1D01*
X162Y1D02*
X1222Y1D01*
X245Y0D02*
X252Y0D01*
X245Y-1D02*
X252Y-1D01*
D02*
G04 End of Silk1*
M02*