; NON-PLATED HOLES START AT T1
; THROUGH (PLATED) HOLES START AT T100
M48
INCH
T100C0.038000
T101C0.035000
T102C0.035433
T103C0.040000
T104C0.015748
%
T100
X011296Y004620
X011455Y000846
X010456Y000846
X003457Y006851
X006457Y006851
X008457Y006851
X011456Y006851
X008456Y000846
X010457Y006851
X004457Y006851
X005457Y006851
X007457Y006851
X009456Y000846
X003456Y000846
X009457Y006851
X005456Y000846
X004456Y000846
X007456Y000846
X006456Y000846
X011296Y002620
X011296Y003620
T101
X008199Y004387
X008199Y005387
X005084Y005834
X006996Y001834
X003421Y006057
X008199Y003387
X010010Y005967
X003421Y002057
X010010Y001967
X006996Y005834
X005084Y001834
T102
X004245Y002839
X004245Y005839
X005895Y002839
X005895Y005839
T103
X001938Y004993
X001938Y003903
X000820Y004446
X000820Y002269
X000820Y003360
X001938Y001722
X000820Y005537
X001938Y006084
X001938Y002812
T104
X009265Y005925
T00
M30
