G04 MADE WITH FRITZING*
G04 WWW.FRITZING.ORG*
G04 DOUBLE SIDED*
G04 HOLES PLATED*
G04 CONTOUR ON CENTER OF CONTOUR VECTOR*
%ASAXBY*%
%FSLAX23Y23*%
%MOIN*%
%OFA0B0*%
%SFA1.0B1.0*%
%ADD10C,0.008000*%
%ADD11C,0.010000*%
%ADD12R,0.001000X0.001000*%
%LNSILK1*%
G90*
G70*
G54D10*
X256Y22D02*
X46Y22D01*
D02*
X256Y1235D02*
X46Y1235D01*
D02*
X256Y22D02*
X256Y1235D01*
G54D11*
D02*
X900Y646D02*
X900Y786D01*
D02*
X553Y537D02*
X553Y737D01*
D02*
X553Y737D02*
X619Y737D01*
D02*
X619Y737D02*
X619Y537D01*
D02*
X619Y537D02*
X553Y537D01*
D02*
X375Y718D02*
X375Y518D01*
D02*
X375Y518D02*
X309Y518D01*
D02*
X309Y518D02*
X309Y718D01*
D02*
X309Y718D02*
X375Y718D01*
D02*
X1179Y720D02*
X1179Y520D01*
D02*
X1179Y520D02*
X1113Y520D01*
D02*
X1113Y520D02*
X1113Y720D01*
D02*
X1113Y720D02*
X1179Y720D01*
D02*
X847Y718D02*
X847Y518D01*
D02*
X847Y518D02*
X781Y518D01*
D02*
X781Y518D02*
X781Y718D01*
D02*
X781Y718D02*
X847Y718D01*
G54D10*
D02*
X671Y578D02*
X671Y778D01*
D02*
X671Y778D02*
X701Y778D01*
D02*
X701Y778D02*
X731Y778D01*
D02*
X731Y778D02*
X731Y578D01*
D02*
X731Y578D02*
X701Y578D01*
D02*
X701Y578D02*
X671Y578D01*
D02*
X676Y753D02*
X726Y753D01*
D02*
X439Y578D02*
X439Y778D01*
D02*
X439Y778D02*
X469Y778D01*
D02*
X469Y778D02*
X499Y778D01*
D02*
X499Y778D02*
X499Y578D01*
D02*
X499Y578D02*
X469Y578D01*
D02*
X469Y578D02*
X439Y578D01*
D02*
X444Y753D02*
X494Y753D01*
G54D11*
D02*
X889Y1136D02*
X589Y1136D01*
D02*
X589Y1136D02*
X589Y1036D01*
D02*
X589Y1036D02*
X889Y1036D01*
D02*
X889Y1036D02*
X889Y1136D01*
G54D12*
X1Y1252D02*
X1216Y1252D01*
X1Y1251D02*
X1216Y1251D01*
X1Y1250D02*
X1216Y1250D01*
X1Y1249D02*
X1216Y1249D01*
X1Y1248D02*
X1216Y1248D01*
X1Y1247D02*
X1216Y1247D01*
X1Y1246D02*
X1216Y1246D01*
X1Y1245D02*
X1216Y1245D01*
X1Y1244D02*
X8Y1244D01*
X1209Y1244D02*
X1216Y1244D01*
X1Y1243D02*
X8Y1243D01*
X1209Y1243D02*
X1216Y1243D01*
X1Y1242D02*
X8Y1242D01*
X1209Y1242D02*
X1216Y1242D01*
X1Y1241D02*
X8Y1241D01*
X1209Y1241D02*
X1216Y1241D01*
X1Y1240D02*
X8Y1240D01*
X1209Y1240D02*
X1216Y1240D01*
X1Y1239D02*
X8Y1239D01*
X1209Y1239D02*
X1216Y1239D01*
X1Y1238D02*
X8Y1238D01*
X1209Y1238D02*
X1216Y1238D01*
X1Y1237D02*
X8Y1237D01*
X1209Y1237D02*
X1216Y1237D01*
X1Y1236D02*
X8Y1236D01*
X1209Y1236D02*
X1216Y1236D01*
X1Y1235D02*
X8Y1235D01*
X1209Y1235D02*
X1216Y1235D01*
X1Y1234D02*
X8Y1234D01*
X1209Y1234D02*
X1216Y1234D01*
X1Y1233D02*
X8Y1233D01*
X1209Y1233D02*
X1216Y1233D01*
X1Y1232D02*
X8Y1232D01*
X1209Y1232D02*
X1216Y1232D01*
X1Y1231D02*
X8Y1231D01*
X1209Y1231D02*
X1216Y1231D01*
X1Y1230D02*
X8Y1230D01*
X1209Y1230D02*
X1216Y1230D01*
X1Y1229D02*
X8Y1229D01*
X1209Y1229D02*
X1216Y1229D01*
X1Y1228D02*
X8Y1228D01*
X1209Y1228D02*
X1216Y1228D01*
X1Y1227D02*
X8Y1227D01*
X1209Y1227D02*
X1216Y1227D01*
X1Y1226D02*
X8Y1226D01*
X1209Y1226D02*
X1216Y1226D01*
X1Y1225D02*
X8Y1225D01*
X1209Y1225D02*
X1216Y1225D01*
X1Y1224D02*
X8Y1224D01*
X1209Y1224D02*
X1216Y1224D01*
X1Y1223D02*
X8Y1223D01*
X1209Y1223D02*
X1216Y1223D01*
X1Y1222D02*
X8Y1222D01*
X1209Y1222D02*
X1216Y1222D01*
X1Y1221D02*
X8Y1221D01*
X1209Y1221D02*
X1216Y1221D01*
X1Y1220D02*
X8Y1220D01*
X1209Y1220D02*
X1216Y1220D01*
X1Y1219D02*
X8Y1219D01*
X1209Y1219D02*
X1216Y1219D01*
X1Y1218D02*
X8Y1218D01*
X1209Y1218D02*
X1216Y1218D01*
X1Y1217D02*
X8Y1217D01*
X1209Y1217D02*
X1216Y1217D01*
X1Y1216D02*
X8Y1216D01*
X1209Y1216D02*
X1216Y1216D01*
X1Y1215D02*
X8Y1215D01*
X1209Y1215D02*
X1216Y1215D01*
X1Y1214D02*
X8Y1214D01*
X1209Y1214D02*
X1216Y1214D01*
X1Y1213D02*
X8Y1213D01*
X1209Y1213D02*
X1216Y1213D01*
X1Y1212D02*
X8Y1212D01*
X1209Y1212D02*
X1216Y1212D01*
X1Y1211D02*
X8Y1211D01*
X1209Y1211D02*
X1216Y1211D01*
X1Y1210D02*
X8Y1210D01*
X1209Y1210D02*
X1216Y1210D01*
X1Y1209D02*
X8Y1209D01*
X1209Y1209D02*
X1216Y1209D01*
X1Y1208D02*
X8Y1208D01*
X1209Y1208D02*
X1216Y1208D01*
X1Y1207D02*
X8Y1207D01*
X1209Y1207D02*
X1216Y1207D01*
X1Y1206D02*
X8Y1206D01*
X1209Y1206D02*
X1216Y1206D01*
X1Y1205D02*
X8Y1205D01*
X1209Y1205D02*
X1216Y1205D01*
X1Y1204D02*
X8Y1204D01*
X1209Y1204D02*
X1216Y1204D01*
X1Y1203D02*
X8Y1203D01*
X1209Y1203D02*
X1216Y1203D01*
X1Y1202D02*
X8Y1202D01*
X1209Y1202D02*
X1216Y1202D01*
X1Y1201D02*
X8Y1201D01*
X1209Y1201D02*
X1216Y1201D01*
X1Y1200D02*
X8Y1200D01*
X1209Y1200D02*
X1216Y1200D01*
X1Y1199D02*
X8Y1199D01*
X1209Y1199D02*
X1216Y1199D01*
X1Y1198D02*
X8Y1198D01*
X1209Y1198D02*
X1216Y1198D01*
X1Y1197D02*
X8Y1197D01*
X1209Y1197D02*
X1216Y1197D01*
X1Y1196D02*
X8Y1196D01*
X1209Y1196D02*
X1216Y1196D01*
X1Y1195D02*
X8Y1195D01*
X1209Y1195D02*
X1216Y1195D01*
X1Y1194D02*
X8Y1194D01*
X1209Y1194D02*
X1216Y1194D01*
X1Y1193D02*
X8Y1193D01*
X1209Y1193D02*
X1216Y1193D01*
X1Y1192D02*
X8Y1192D01*
X1209Y1192D02*
X1216Y1192D01*
X1Y1191D02*
X8Y1191D01*
X1209Y1191D02*
X1216Y1191D01*
X1Y1190D02*
X8Y1190D01*
X766Y1190D02*
X768Y1190D01*
X1209Y1190D02*
X1216Y1190D01*
X1Y1189D02*
X8Y1189D01*
X765Y1189D02*
X769Y1189D01*
X1209Y1189D02*
X1216Y1189D01*
X1Y1188D02*
X8Y1188D01*
X765Y1188D02*
X769Y1188D01*
X1209Y1188D02*
X1216Y1188D01*
X1Y1187D02*
X8Y1187D01*
X765Y1187D02*
X769Y1187D01*
X1209Y1187D02*
X1216Y1187D01*
X1Y1186D02*
X8Y1186D01*
X765Y1186D02*
X769Y1186D01*
X1209Y1186D02*
X1216Y1186D01*
X1Y1185D02*
X8Y1185D01*
X765Y1185D02*
X769Y1185D01*
X1209Y1185D02*
X1216Y1185D01*
X1Y1184D02*
X8Y1184D01*
X765Y1184D02*
X769Y1184D01*
X1209Y1184D02*
X1216Y1184D01*
X1Y1183D02*
X8Y1183D01*
X765Y1183D02*
X769Y1183D01*
X1209Y1183D02*
X1216Y1183D01*
X1Y1182D02*
X8Y1182D01*
X765Y1182D02*
X769Y1182D01*
X1209Y1182D02*
X1216Y1182D01*
X1Y1181D02*
X8Y1181D01*
X765Y1181D02*
X769Y1181D01*
X1209Y1181D02*
X1216Y1181D01*
X1Y1180D02*
X8Y1180D01*
X675Y1180D02*
X677Y1180D01*
X681Y1180D02*
X685Y1180D01*
X691Y1180D02*
X694Y1180D01*
X716Y1180D02*
X727Y1180D01*
X752Y1180D02*
X760Y1180D01*
X765Y1180D02*
X769Y1180D01*
X788Y1180D02*
X798Y1180D01*
X1209Y1180D02*
X1216Y1180D01*
X1Y1179D02*
X8Y1179D01*
X674Y1179D02*
X686Y1179D01*
X689Y1179D02*
X696Y1179D01*
X714Y1179D02*
X729Y1179D01*
X750Y1179D02*
X762Y1179D01*
X765Y1179D02*
X769Y1179D01*
X786Y1179D02*
X800Y1179D01*
X1209Y1179D02*
X1216Y1179D01*
X1Y1178D02*
X8Y1178D01*
X674Y1178D02*
X697Y1178D01*
X713Y1178D02*
X730Y1178D01*
X749Y1178D02*
X763Y1178D01*
X765Y1178D02*
X769Y1178D01*
X784Y1178D02*
X801Y1178D01*
X1209Y1178D02*
X1216Y1178D01*
X1Y1177D02*
X8Y1177D01*
X674Y1177D02*
X698Y1177D01*
X712Y1177D02*
X731Y1177D01*
X748Y1177D02*
X769Y1177D01*
X783Y1177D02*
X802Y1177D01*
X1209Y1177D02*
X1216Y1177D01*
X1Y1176D02*
X8Y1176D01*
X674Y1176D02*
X698Y1176D01*
X711Y1176D02*
X732Y1176D01*
X747Y1176D02*
X769Y1176D01*
X783Y1176D02*
X803Y1176D01*
X1209Y1176D02*
X1216Y1176D01*
X1Y1175D02*
X8Y1175D01*
X674Y1175D02*
X681Y1175D01*
X684Y1175D02*
X691Y1175D01*
X694Y1175D02*
X698Y1175D01*
X711Y1175D02*
X716Y1175D01*
X727Y1175D02*
X733Y1175D01*
X746Y1175D02*
X752Y1175D01*
X760Y1175D02*
X769Y1175D01*
X782Y1175D02*
X788Y1175D01*
X798Y1175D02*
X804Y1175D01*
X1209Y1175D02*
X1216Y1175D01*
X1Y1174D02*
X8Y1174D01*
X674Y1174D02*
X680Y1174D01*
X684Y1174D02*
X690Y1174D01*
X694Y1174D02*
X698Y1174D01*
X710Y1174D02*
X715Y1174D01*
X728Y1174D02*
X733Y1174D01*
X746Y1174D02*
X751Y1174D01*
X761Y1174D02*
X769Y1174D01*
X782Y1174D02*
X786Y1174D01*
X799Y1174D02*
X804Y1174D01*
X1209Y1174D02*
X1216Y1174D01*
X1Y1173D02*
X8Y1173D01*
X674Y1173D02*
X679Y1173D01*
X684Y1173D02*
X689Y1173D01*
X694Y1173D02*
X698Y1173D01*
X710Y1173D02*
X714Y1173D01*
X729Y1173D02*
X733Y1173D01*
X746Y1173D02*
X750Y1173D01*
X762Y1173D02*
X769Y1173D01*
X781Y1173D02*
X786Y1173D01*
X800Y1173D02*
X804Y1173D01*
X1209Y1173D02*
X1216Y1173D01*
X1Y1172D02*
X8Y1172D01*
X674Y1172D02*
X678Y1172D01*
X684Y1172D02*
X688Y1172D01*
X694Y1172D02*
X698Y1172D01*
X710Y1172D02*
X714Y1172D01*
X729Y1172D02*
X733Y1172D01*
X745Y1172D02*
X750Y1172D01*
X763Y1172D02*
X769Y1172D01*
X781Y1172D02*
X785Y1172D01*
X801Y1172D02*
X805Y1172D01*
X1209Y1172D02*
X1216Y1172D01*
X1Y1171D02*
X8Y1171D01*
X674Y1171D02*
X678Y1171D01*
X684Y1171D02*
X688Y1171D01*
X694Y1171D02*
X698Y1171D01*
X710Y1171D02*
X714Y1171D01*
X729Y1171D02*
X733Y1171D01*
X745Y1171D02*
X749Y1171D01*
X764Y1171D02*
X769Y1171D01*
X781Y1171D02*
X785Y1171D01*
X801Y1171D02*
X805Y1171D01*
X1209Y1171D02*
X1216Y1171D01*
X1Y1170D02*
X8Y1170D01*
X674Y1170D02*
X678Y1170D01*
X684Y1170D02*
X688Y1170D01*
X694Y1170D02*
X698Y1170D01*
X710Y1170D02*
X714Y1170D01*
X729Y1170D02*
X733Y1170D01*
X745Y1170D02*
X749Y1170D01*
X765Y1170D02*
X769Y1170D01*
X781Y1170D02*
X785Y1170D01*
X801Y1170D02*
X805Y1170D01*
X1209Y1170D02*
X1216Y1170D01*
X1Y1169D02*
X8Y1169D01*
X674Y1169D02*
X678Y1169D01*
X684Y1169D02*
X688Y1169D01*
X694Y1169D02*
X698Y1169D01*
X710Y1169D02*
X714Y1169D01*
X729Y1169D02*
X733Y1169D01*
X745Y1169D02*
X749Y1169D01*
X765Y1169D02*
X769Y1169D01*
X781Y1169D02*
X805Y1169D01*
X1209Y1169D02*
X1216Y1169D01*
X1Y1168D02*
X8Y1168D01*
X674Y1168D02*
X678Y1168D01*
X684Y1168D02*
X688Y1168D01*
X694Y1168D02*
X698Y1168D01*
X710Y1168D02*
X714Y1168D01*
X729Y1168D02*
X733Y1168D01*
X745Y1168D02*
X749Y1168D01*
X765Y1168D02*
X769Y1168D01*
X781Y1168D02*
X805Y1168D01*
X1209Y1168D02*
X1216Y1168D01*
X1Y1167D02*
X8Y1167D01*
X674Y1167D02*
X678Y1167D01*
X684Y1167D02*
X688Y1167D01*
X694Y1167D02*
X698Y1167D01*
X710Y1167D02*
X714Y1167D01*
X729Y1167D02*
X733Y1167D01*
X745Y1167D02*
X749Y1167D01*
X765Y1167D02*
X769Y1167D01*
X781Y1167D02*
X805Y1167D01*
X1209Y1167D02*
X1216Y1167D01*
X1Y1166D02*
X8Y1166D01*
X674Y1166D02*
X678Y1166D01*
X684Y1166D02*
X688Y1166D01*
X694Y1166D02*
X698Y1166D01*
X710Y1166D02*
X714Y1166D01*
X729Y1166D02*
X733Y1166D01*
X745Y1166D02*
X749Y1166D01*
X765Y1166D02*
X769Y1166D01*
X781Y1166D02*
X804Y1166D01*
X1209Y1166D02*
X1216Y1166D01*
X1Y1165D02*
X8Y1165D01*
X674Y1165D02*
X678Y1165D01*
X684Y1165D02*
X688Y1165D01*
X694Y1165D02*
X698Y1165D01*
X710Y1165D02*
X714Y1165D01*
X729Y1165D02*
X733Y1165D01*
X745Y1165D02*
X749Y1165D01*
X765Y1165D02*
X769Y1165D01*
X781Y1165D02*
X804Y1165D01*
X1209Y1165D02*
X1216Y1165D01*
X1Y1164D02*
X8Y1164D01*
X674Y1164D02*
X678Y1164D01*
X684Y1164D02*
X688Y1164D01*
X694Y1164D02*
X698Y1164D01*
X710Y1164D02*
X714Y1164D01*
X729Y1164D02*
X733Y1164D01*
X745Y1164D02*
X749Y1164D01*
X765Y1164D02*
X769Y1164D01*
X781Y1164D02*
X785Y1164D01*
X1209Y1164D02*
X1216Y1164D01*
X1Y1163D02*
X8Y1163D01*
X674Y1163D02*
X678Y1163D01*
X684Y1163D02*
X688Y1163D01*
X694Y1163D02*
X698Y1163D01*
X710Y1163D02*
X714Y1163D01*
X729Y1163D02*
X733Y1163D01*
X745Y1163D02*
X749Y1163D01*
X765Y1163D02*
X769Y1163D01*
X781Y1163D02*
X785Y1163D01*
X1209Y1163D02*
X1216Y1163D01*
X1Y1162D02*
X8Y1162D01*
X674Y1162D02*
X678Y1162D01*
X684Y1162D02*
X688Y1162D01*
X694Y1162D02*
X698Y1162D01*
X710Y1162D02*
X714Y1162D01*
X729Y1162D02*
X733Y1162D01*
X745Y1162D02*
X749Y1162D01*
X764Y1162D02*
X769Y1162D01*
X781Y1162D02*
X785Y1162D01*
X1209Y1162D02*
X1216Y1162D01*
X1Y1161D02*
X8Y1161D01*
X674Y1161D02*
X678Y1161D01*
X684Y1161D02*
X688Y1161D01*
X694Y1161D02*
X698Y1161D01*
X710Y1161D02*
X714Y1161D01*
X729Y1161D02*
X733Y1161D01*
X746Y1161D02*
X750Y1161D01*
X763Y1161D02*
X769Y1161D01*
X781Y1161D02*
X785Y1161D01*
X1209Y1161D02*
X1216Y1161D01*
X1Y1160D02*
X8Y1160D01*
X674Y1160D02*
X678Y1160D01*
X684Y1160D02*
X688Y1160D01*
X694Y1160D02*
X698Y1160D01*
X710Y1160D02*
X715Y1160D01*
X729Y1160D02*
X733Y1160D01*
X746Y1160D02*
X750Y1160D01*
X762Y1160D02*
X769Y1160D01*
X781Y1160D02*
X786Y1160D01*
X1209Y1160D02*
X1216Y1160D01*
X1Y1159D02*
X8Y1159D01*
X674Y1159D02*
X678Y1159D01*
X684Y1159D02*
X688Y1159D01*
X694Y1159D02*
X698Y1159D01*
X710Y1159D02*
X716Y1159D01*
X728Y1159D02*
X733Y1159D01*
X746Y1159D02*
X751Y1159D01*
X761Y1159D02*
X769Y1159D01*
X782Y1159D02*
X787Y1159D01*
X1209Y1159D02*
X1216Y1159D01*
X1Y1158D02*
X8Y1158D01*
X674Y1158D02*
X678Y1158D01*
X684Y1158D02*
X688Y1158D01*
X694Y1158D02*
X698Y1158D01*
X711Y1158D02*
X717Y1158D01*
X726Y1158D02*
X732Y1158D01*
X746Y1158D02*
X753Y1158D01*
X759Y1158D02*
X769Y1158D01*
X782Y1158D02*
X788Y1158D01*
X1209Y1158D02*
X1216Y1158D01*
X1Y1157D02*
X8Y1157D01*
X674Y1157D02*
X678Y1157D01*
X684Y1157D02*
X688Y1157D01*
X694Y1157D02*
X698Y1157D01*
X712Y1157D02*
X732Y1157D01*
X747Y1157D02*
X769Y1157D01*
X783Y1157D02*
X804Y1157D01*
X1209Y1157D02*
X1216Y1157D01*
X1Y1156D02*
X8Y1156D01*
X674Y1156D02*
X678Y1156D01*
X684Y1156D02*
X688Y1156D01*
X694Y1156D02*
X698Y1156D01*
X713Y1156D02*
X731Y1156D01*
X748Y1156D02*
X769Y1156D01*
X784Y1156D02*
X804Y1156D01*
X1209Y1156D02*
X1216Y1156D01*
X1Y1155D02*
X8Y1155D01*
X674Y1155D02*
X678Y1155D01*
X684Y1155D02*
X688Y1155D01*
X694Y1155D02*
X698Y1155D01*
X714Y1155D02*
X730Y1155D01*
X749Y1155D02*
X763Y1155D01*
X765Y1155D02*
X769Y1155D01*
X785Y1155D02*
X805Y1155D01*
X1209Y1155D02*
X1216Y1155D01*
X1Y1154D02*
X8Y1154D01*
X674Y1154D02*
X678Y1154D01*
X684Y1154D02*
X688Y1154D01*
X695Y1154D02*
X698Y1154D01*
X715Y1154D02*
X728Y1154D01*
X751Y1154D02*
X762Y1154D01*
X765Y1154D02*
X769Y1154D01*
X786Y1154D02*
X804Y1154D01*
X1209Y1154D02*
X1216Y1154D01*
X1Y1153D02*
X8Y1153D01*
X675Y1153D02*
X676Y1153D01*
X685Y1153D02*
X687Y1153D01*
X696Y1153D02*
X697Y1153D01*
X717Y1153D02*
X726Y1153D01*
X753Y1153D02*
X759Y1153D01*
X766Y1153D02*
X768Y1153D01*
X788Y1153D02*
X803Y1153D01*
X1209Y1153D02*
X1216Y1153D01*
X1Y1152D02*
X8Y1152D01*
X1209Y1152D02*
X1216Y1152D01*
X1Y1151D02*
X8Y1151D01*
X1209Y1151D02*
X1216Y1151D01*
X1Y1150D02*
X8Y1150D01*
X1209Y1150D02*
X1216Y1150D01*
X1Y1149D02*
X8Y1149D01*
X1209Y1149D02*
X1216Y1149D01*
X1Y1148D02*
X8Y1148D01*
X1209Y1148D02*
X1216Y1148D01*
X1Y1147D02*
X8Y1147D01*
X1209Y1147D02*
X1216Y1147D01*
X1Y1146D02*
X8Y1146D01*
X1209Y1146D02*
X1216Y1146D01*
X1Y1145D02*
X8Y1145D01*
X1209Y1145D02*
X1216Y1145D01*
X1Y1144D02*
X8Y1144D01*
X1209Y1144D02*
X1216Y1144D01*
X1Y1143D02*
X8Y1143D01*
X1209Y1143D02*
X1216Y1143D01*
X1Y1142D02*
X8Y1142D01*
X1209Y1142D02*
X1216Y1142D01*
X1Y1141D02*
X8Y1141D01*
X1209Y1141D02*
X1216Y1141D01*
X1Y1140D02*
X8Y1140D01*
X1209Y1140D02*
X1216Y1140D01*
X1Y1139D02*
X8Y1139D01*
X1209Y1139D02*
X1216Y1139D01*
X1Y1138D02*
X8Y1138D01*
X1209Y1138D02*
X1216Y1138D01*
X1Y1137D02*
X8Y1137D01*
X1209Y1137D02*
X1216Y1137D01*
X1Y1136D02*
X8Y1136D01*
X855Y1136D02*
X857Y1136D01*
X1209Y1136D02*
X1216Y1136D01*
X1Y1135D02*
X8Y1135D01*
X854Y1135D02*
X858Y1135D01*
X1209Y1135D02*
X1216Y1135D01*
X1Y1134D02*
X8Y1134D01*
X853Y1134D02*
X859Y1134D01*
X1209Y1134D02*
X1216Y1134D01*
X1Y1133D02*
X8Y1133D01*
X854Y1133D02*
X860Y1133D01*
X1209Y1133D02*
X1216Y1133D01*
X1Y1132D02*
X8Y1132D01*
X855Y1132D02*
X861Y1132D01*
X1209Y1132D02*
X1216Y1132D01*
X1Y1131D02*
X8Y1131D01*
X856Y1131D02*
X862Y1131D01*
X1209Y1131D02*
X1216Y1131D01*
X1Y1130D02*
X8Y1130D01*
X857Y1130D02*
X863Y1130D01*
X1209Y1130D02*
X1216Y1130D01*
X1Y1129D02*
X8Y1129D01*
X1209Y1129D02*
X1216Y1129D01*
X1Y1128D02*
X8Y1128D01*
X1209Y1128D02*
X1216Y1128D01*
X1Y1127D02*
X8Y1127D01*
X1209Y1127D02*
X1216Y1127D01*
X1Y1126D02*
X8Y1126D01*
X1209Y1126D02*
X1216Y1126D01*
X1Y1125D02*
X8Y1125D01*
X1209Y1125D02*
X1216Y1125D01*
X1Y1124D02*
X8Y1124D01*
X1209Y1124D02*
X1216Y1124D01*
X1Y1123D02*
X8Y1123D01*
X1209Y1123D02*
X1216Y1123D01*
X1Y1122D02*
X8Y1122D01*
X1209Y1122D02*
X1216Y1122D01*
X1Y1121D02*
X8Y1121D01*
X1209Y1121D02*
X1216Y1121D01*
X1Y1120D02*
X8Y1120D01*
X1209Y1120D02*
X1216Y1120D01*
X1Y1119D02*
X8Y1119D01*
X1209Y1119D02*
X1216Y1119D01*
X1Y1118D02*
X8Y1118D01*
X1209Y1118D02*
X1216Y1118D01*
X1Y1117D02*
X8Y1117D01*
X1209Y1117D02*
X1216Y1117D01*
X1Y1116D02*
X8Y1116D01*
X1209Y1116D02*
X1216Y1116D01*
X1Y1115D02*
X8Y1115D01*
X1209Y1115D02*
X1216Y1115D01*
X1Y1114D02*
X8Y1114D01*
X1209Y1114D02*
X1216Y1114D01*
X1Y1113D02*
X8Y1113D01*
X307Y1113D02*
X310Y1113D01*
X476Y1113D02*
X479Y1113D01*
X1209Y1113D02*
X1216Y1113D01*
X1Y1112D02*
X8Y1112D01*
X306Y1112D02*
X311Y1112D01*
X474Y1112D02*
X480Y1112D01*
X1209Y1112D02*
X1216Y1112D01*
X1Y1111D02*
X8Y1111D01*
X305Y1111D02*
X312Y1111D01*
X474Y1111D02*
X480Y1111D01*
X539Y1111D02*
X539Y1111D01*
X1209Y1111D02*
X1216Y1111D01*
X1Y1110D02*
X8Y1110D01*
X305Y1110D02*
X312Y1110D01*
X474Y1110D02*
X480Y1110D01*
X538Y1110D02*
X541Y1110D01*
X1209Y1110D02*
X1216Y1110D01*
X1Y1109D02*
X8Y1109D01*
X305Y1109D02*
X312Y1109D01*
X438Y1109D02*
X439Y1109D01*
X474Y1109D02*
X480Y1109D01*
X537Y1109D02*
X541Y1109D01*
X884Y1109D02*
X884Y1109D01*
X1209Y1109D02*
X1216Y1109D01*
X1Y1108D02*
X8Y1108D01*
X305Y1108D02*
X311Y1108D01*
X437Y1108D02*
X440Y1108D01*
X474Y1108D02*
X480Y1108D01*
X537Y1108D02*
X541Y1108D01*
X884Y1108D02*
X885Y1108D01*
X1209Y1108D02*
X1216Y1108D01*
X1Y1107D02*
X8Y1107D01*
X306Y1107D02*
X311Y1107D01*
X436Y1107D02*
X440Y1107D01*
X475Y1107D02*
X480Y1107D01*
X537Y1107D02*
X541Y1107D01*
X884Y1107D02*
X886Y1107D01*
X1209Y1107D02*
X1216Y1107D01*
X1Y1106D02*
X8Y1106D01*
X436Y1106D02*
X440Y1106D01*
X537Y1106D02*
X541Y1106D01*
X884Y1106D02*
X887Y1106D01*
X1209Y1106D02*
X1216Y1106D01*
X1Y1105D02*
X8Y1105D01*
X436Y1105D02*
X440Y1105D01*
X537Y1105D02*
X541Y1105D01*
X884Y1105D02*
X888Y1105D01*
X1209Y1105D02*
X1216Y1105D01*
X1Y1104D02*
X8Y1104D01*
X436Y1104D02*
X440Y1104D01*
X537Y1104D02*
X541Y1104D01*
X884Y1104D02*
X889Y1104D01*
X1209Y1104D02*
X1216Y1104D01*
X1Y1103D02*
X8Y1103D01*
X436Y1103D02*
X440Y1103D01*
X537Y1103D02*
X541Y1103D01*
X884Y1103D02*
X890Y1103D01*
X1209Y1103D02*
X1216Y1103D01*
X1Y1102D02*
X8Y1102D01*
X436Y1102D02*
X440Y1102D01*
X537Y1102D02*
X541Y1102D01*
X885Y1102D02*
X890Y1102D01*
X1209Y1102D02*
X1216Y1102D01*
X1Y1101D02*
X8Y1101D01*
X436Y1101D02*
X441Y1101D01*
X537Y1101D02*
X541Y1101D01*
X886Y1101D02*
X889Y1101D01*
X1209Y1101D02*
X1216Y1101D01*
X1Y1100D02*
X8Y1100D01*
X299Y1100D02*
X311Y1100D01*
X332Y1100D02*
X344Y1100D01*
X362Y1100D02*
X365Y1100D01*
X381Y1100D02*
X384Y1100D01*
X400Y1100D02*
X416Y1100D01*
X432Y1100D02*
X450Y1100D01*
X470Y1100D02*
X480Y1100D01*
X510Y1100D02*
X525Y1100D01*
X537Y1100D02*
X541Y1100D01*
X555Y1100D02*
X557Y1100D01*
X887Y1100D02*
X888Y1100D01*
X949Y1100D02*
X951Y1100D01*
X954Y1100D02*
X959Y1100D01*
X964Y1100D02*
X969Y1100D01*
X989Y1100D02*
X1001Y1100D01*
X1020Y1100D02*
X1022Y1100D01*
X1038Y1100D02*
X1041Y1100D01*
X1058Y1100D02*
X1073Y1100D01*
X1095Y1100D02*
X1107Y1100D01*
X1209Y1100D02*
X1216Y1100D01*
X1Y1099D02*
X8Y1099D01*
X298Y1099D02*
X311Y1099D01*
X330Y1099D02*
X345Y1099D01*
X361Y1099D02*
X365Y1099D01*
X381Y1099D02*
X384Y1099D01*
X399Y1099D02*
X418Y1099D01*
X432Y1099D02*
X451Y1099D01*
X469Y1099D02*
X480Y1099D01*
X508Y1099D02*
X525Y1099D01*
X537Y1099D02*
X541Y1099D01*
X554Y1099D02*
X558Y1099D01*
X948Y1099D02*
X960Y1099D01*
X963Y1099D02*
X970Y1099D01*
X988Y1099D02*
X1003Y1099D01*
X1019Y1099D02*
X1023Y1099D01*
X1038Y1099D02*
X1042Y1099D01*
X1056Y1099D02*
X1075Y1099D01*
X1093Y1099D02*
X1108Y1099D01*
X1209Y1099D02*
X1216Y1099D01*
X1Y1098D02*
X8Y1098D01*
X298Y1098D02*
X312Y1098D01*
X329Y1098D02*
X346Y1098D01*
X361Y1098D02*
X365Y1098D01*
X381Y1098D02*
X384Y1098D01*
X398Y1098D02*
X419Y1098D01*
X432Y1098D02*
X451Y1098D01*
X469Y1098D02*
X480Y1098D01*
X507Y1098D02*
X525Y1098D01*
X537Y1098D02*
X541Y1098D01*
X552Y1098D02*
X558Y1098D01*
X948Y1098D02*
X971Y1098D01*
X987Y1098D02*
X1004Y1098D01*
X1019Y1098D02*
X1023Y1098D01*
X1038Y1098D02*
X1042Y1098D01*
X1056Y1098D02*
X1076Y1098D01*
X1092Y1098D02*
X1110Y1098D01*
X1209Y1098D02*
X1216Y1098D01*
X1Y1097D02*
X8Y1097D01*
X298Y1097D02*
X312Y1097D01*
X328Y1097D02*
X347Y1097D01*
X361Y1097D02*
X365Y1097D01*
X380Y1097D02*
X384Y1097D01*
X397Y1097D02*
X419Y1097D01*
X432Y1097D02*
X450Y1097D01*
X470Y1097D02*
X480Y1097D01*
X506Y1097D02*
X525Y1097D01*
X537Y1097D02*
X541Y1097D01*
X551Y1097D02*
X558Y1097D01*
X948Y1097D02*
X971Y1097D01*
X986Y1097D02*
X1005Y1097D01*
X1019Y1097D02*
X1023Y1097D01*
X1038Y1097D02*
X1042Y1097D01*
X1055Y1097D02*
X1077Y1097D01*
X1091Y1097D02*
X1110Y1097D01*
X1209Y1097D02*
X1216Y1097D01*
X1Y1096D02*
X8Y1096D01*
X300Y1096D02*
X312Y1096D01*
X327Y1096D02*
X348Y1096D01*
X361Y1096D02*
X365Y1096D01*
X380Y1096D02*
X384Y1096D01*
X397Y1096D02*
X419Y1096D01*
X434Y1096D02*
X449Y1096D01*
X472Y1096D02*
X480Y1096D01*
X505Y1096D02*
X523Y1096D01*
X537Y1096D02*
X541Y1096D01*
X550Y1096D02*
X557Y1096D01*
X948Y1096D02*
X972Y1096D01*
X985Y1096D02*
X1006Y1096D01*
X1019Y1096D02*
X1023Y1096D01*
X1038Y1096D02*
X1042Y1096D01*
X1055Y1096D02*
X1077Y1096D01*
X1091Y1096D02*
X1111Y1096D01*
X1209Y1096D02*
X1216Y1096D01*
X1Y1095D02*
X8Y1095D01*
X308Y1095D02*
X312Y1095D01*
X327Y1095D02*
X332Y1095D01*
X343Y1095D02*
X349Y1095D01*
X361Y1095D02*
X365Y1095D01*
X380Y1095D02*
X384Y1095D01*
X397Y1095D02*
X401Y1095D01*
X416Y1095D02*
X419Y1095D01*
X436Y1095D02*
X440Y1095D01*
X477Y1095D02*
X480Y1095D01*
X504Y1095D02*
X511Y1095D01*
X537Y1095D02*
X541Y1095D01*
X549Y1095D02*
X555Y1095D01*
X948Y1095D02*
X954Y1095D01*
X958Y1095D02*
X965Y1095D01*
X968Y1095D02*
X972Y1095D01*
X984Y1095D02*
X990Y1095D01*
X1001Y1095D02*
X1006Y1095D01*
X1019Y1095D02*
X1023Y1095D01*
X1038Y1095D02*
X1042Y1095D01*
X1055Y1095D02*
X1059Y1095D01*
X1073Y1095D02*
X1076Y1095D01*
X1090Y1095D02*
X1095Y1095D01*
X1107Y1095D02*
X1112Y1095D01*
X1209Y1095D02*
X1216Y1095D01*
X1Y1094D02*
X8Y1094D01*
X308Y1094D02*
X312Y1094D01*
X326Y1094D02*
X331Y1094D01*
X344Y1094D02*
X349Y1094D01*
X361Y1094D02*
X365Y1094D01*
X380Y1094D02*
X384Y1094D01*
X397Y1094D02*
X401Y1094D01*
X417Y1094D02*
X417Y1094D01*
X436Y1094D02*
X440Y1094D01*
X477Y1094D02*
X480Y1094D01*
X503Y1094D02*
X509Y1094D01*
X537Y1094D02*
X541Y1094D01*
X548Y1094D02*
X554Y1094D01*
X948Y1094D02*
X953Y1094D01*
X958Y1094D02*
X963Y1094D01*
X968Y1094D02*
X972Y1094D01*
X984Y1094D02*
X988Y1094D01*
X1002Y1094D02*
X1006Y1094D01*
X1019Y1094D02*
X1023Y1094D01*
X1038Y1094D02*
X1042Y1094D01*
X1055Y1094D02*
X1059Y1094D01*
X1075Y1094D02*
X1075Y1094D01*
X1090Y1094D02*
X1094Y1094D01*
X1108Y1094D02*
X1112Y1094D01*
X1209Y1094D02*
X1216Y1094D01*
X1Y1093D02*
X8Y1093D01*
X308Y1093D02*
X312Y1093D01*
X326Y1093D02*
X330Y1093D01*
X345Y1093D02*
X349Y1093D01*
X362Y1093D02*
X366Y1093D01*
X380Y1093D02*
X384Y1093D01*
X397Y1093D02*
X403Y1093D01*
X436Y1093D02*
X440Y1093D01*
X477Y1093D02*
X480Y1093D01*
X503Y1093D02*
X508Y1093D01*
X537Y1093D02*
X541Y1093D01*
X546Y1093D02*
X553Y1093D01*
X948Y1093D02*
X952Y1093D01*
X958Y1093D02*
X962Y1093D01*
X968Y1093D02*
X972Y1093D01*
X984Y1093D02*
X988Y1093D01*
X1003Y1093D02*
X1007Y1093D01*
X1019Y1093D02*
X1023Y1093D01*
X1038Y1093D02*
X1042Y1093D01*
X1055Y1093D02*
X1060Y1093D01*
X1089Y1093D02*
X1093Y1093D01*
X1108Y1093D02*
X1112Y1093D01*
X1209Y1093D02*
X1216Y1093D01*
X1Y1092D02*
X8Y1092D01*
X308Y1092D02*
X312Y1092D01*
X326Y1092D02*
X330Y1092D01*
X345Y1092D02*
X349Y1092D01*
X362Y1092D02*
X366Y1092D01*
X379Y1092D02*
X384Y1092D01*
X398Y1092D02*
X405Y1092D01*
X436Y1092D02*
X440Y1092D01*
X477Y1092D02*
X480Y1092D01*
X502Y1092D02*
X507Y1092D01*
X537Y1092D02*
X541Y1092D01*
X545Y1092D02*
X552Y1092D01*
X948Y1092D02*
X952Y1092D01*
X958Y1092D02*
X962Y1092D01*
X968Y1092D02*
X972Y1092D01*
X984Y1092D02*
X988Y1092D01*
X1003Y1092D02*
X1007Y1092D01*
X1019Y1092D02*
X1023Y1092D01*
X1038Y1092D02*
X1042Y1092D01*
X1055Y1092D02*
X1062Y1092D01*
X1089Y1092D02*
X1093Y1092D01*
X1109Y1092D02*
X1112Y1092D01*
X1209Y1092D02*
X1216Y1092D01*
X1Y1091D02*
X8Y1091D01*
X308Y1091D02*
X312Y1091D01*
X326Y1091D02*
X330Y1091D01*
X345Y1091D02*
X349Y1091D01*
X362Y1091D02*
X367Y1091D01*
X379Y1091D02*
X383Y1091D01*
X398Y1091D02*
X407Y1091D01*
X436Y1091D02*
X440Y1091D01*
X477Y1091D02*
X480Y1091D01*
X502Y1091D02*
X506Y1091D01*
X537Y1091D02*
X541Y1091D01*
X544Y1091D02*
X551Y1091D01*
X948Y1091D02*
X952Y1091D01*
X958Y1091D02*
X962Y1091D01*
X968Y1091D02*
X972Y1091D01*
X984Y1091D02*
X987Y1091D01*
X1003Y1091D02*
X1007Y1091D01*
X1019Y1091D02*
X1023Y1091D01*
X1038Y1091D02*
X1042Y1091D01*
X1056Y1091D02*
X1065Y1091D01*
X1089Y1091D02*
X1093Y1091D01*
X1109Y1091D02*
X1112Y1091D01*
X1209Y1091D02*
X1216Y1091D01*
X1Y1090D02*
X8Y1090D01*
X308Y1090D02*
X312Y1090D01*
X326Y1090D02*
X330Y1090D01*
X345Y1090D02*
X349Y1090D01*
X363Y1090D02*
X367Y1090D01*
X378Y1090D02*
X383Y1090D01*
X399Y1090D02*
X409Y1090D01*
X436Y1090D02*
X440Y1090D01*
X477Y1090D02*
X480Y1090D01*
X502Y1090D02*
X506Y1090D01*
X537Y1090D02*
X541Y1090D01*
X543Y1090D02*
X550Y1090D01*
X948Y1090D02*
X952Y1090D01*
X958Y1090D02*
X962Y1090D01*
X968Y1090D02*
X972Y1090D01*
X984Y1090D02*
X987Y1090D01*
X1003Y1090D02*
X1007Y1090D01*
X1019Y1090D02*
X1023Y1090D01*
X1038Y1090D02*
X1042Y1090D01*
X1057Y1090D02*
X1067Y1090D01*
X1089Y1090D02*
X1093Y1090D01*
X1109Y1090D02*
X1112Y1090D01*
X1209Y1090D02*
X1216Y1090D01*
X1Y1089D02*
X8Y1089D01*
X308Y1089D02*
X312Y1089D01*
X326Y1089D02*
X330Y1089D01*
X345Y1089D02*
X349Y1089D01*
X363Y1089D02*
X368Y1089D01*
X378Y1089D02*
X382Y1089D01*
X401Y1089D02*
X412Y1089D01*
X436Y1089D02*
X440Y1089D01*
X477Y1089D02*
X480Y1089D01*
X502Y1089D02*
X506Y1089D01*
X537Y1089D02*
X548Y1089D01*
X948Y1089D02*
X952Y1089D01*
X958Y1089D02*
X962Y1089D01*
X968Y1089D02*
X972Y1089D01*
X984Y1089D02*
X987Y1089D01*
X1003Y1089D02*
X1007Y1089D01*
X1019Y1089D02*
X1023Y1089D01*
X1038Y1089D02*
X1042Y1089D01*
X1058Y1089D02*
X1069Y1089D01*
X1089Y1089D02*
X1112Y1089D01*
X1209Y1089D02*
X1216Y1089D01*
X1Y1088D02*
X8Y1088D01*
X308Y1088D02*
X312Y1088D01*
X326Y1088D02*
X330Y1088D01*
X345Y1088D02*
X349Y1088D01*
X364Y1088D02*
X368Y1088D01*
X378Y1088D02*
X382Y1088D01*
X403Y1088D02*
X414Y1088D01*
X436Y1088D02*
X440Y1088D01*
X477Y1088D02*
X480Y1088D01*
X502Y1088D02*
X506Y1088D01*
X537Y1088D02*
X548Y1088D01*
X948Y1088D02*
X952Y1088D01*
X958Y1088D02*
X962Y1088D01*
X968Y1088D02*
X972Y1088D01*
X984Y1088D02*
X987Y1088D01*
X1003Y1088D02*
X1007Y1088D01*
X1019Y1088D02*
X1023Y1088D01*
X1038Y1088D02*
X1042Y1088D01*
X1060Y1088D02*
X1072Y1088D01*
X1089Y1088D02*
X1112Y1088D01*
X1209Y1088D02*
X1216Y1088D01*
X1Y1087D02*
X8Y1087D01*
X308Y1087D02*
X312Y1087D01*
X326Y1087D02*
X330Y1087D01*
X345Y1087D02*
X349Y1087D01*
X364Y1087D02*
X369Y1087D01*
X377Y1087D02*
X381Y1087D01*
X405Y1087D02*
X416Y1087D01*
X436Y1087D02*
X440Y1087D01*
X477Y1087D02*
X480Y1087D01*
X502Y1087D02*
X506Y1087D01*
X537Y1087D02*
X549Y1087D01*
X948Y1087D02*
X952Y1087D01*
X958Y1087D02*
X962Y1087D01*
X968Y1087D02*
X972Y1087D01*
X984Y1087D02*
X987Y1087D01*
X1003Y1087D02*
X1007Y1087D01*
X1019Y1087D02*
X1023Y1087D01*
X1038Y1087D02*
X1042Y1087D01*
X1063Y1087D02*
X1074Y1087D01*
X1089Y1087D02*
X1112Y1087D01*
X1209Y1087D02*
X1216Y1087D01*
X1Y1086D02*
X8Y1086D01*
X308Y1086D02*
X312Y1086D01*
X326Y1086D02*
X330Y1086D01*
X345Y1086D02*
X349Y1086D01*
X365Y1086D02*
X369Y1086D01*
X377Y1086D02*
X381Y1086D01*
X407Y1086D02*
X417Y1086D01*
X436Y1086D02*
X440Y1086D01*
X477Y1086D02*
X480Y1086D01*
X502Y1086D02*
X506Y1086D01*
X537Y1086D02*
X550Y1086D01*
X948Y1086D02*
X952Y1086D01*
X958Y1086D02*
X962Y1086D01*
X968Y1086D02*
X972Y1086D01*
X984Y1086D02*
X987Y1086D01*
X1003Y1086D02*
X1007Y1086D01*
X1019Y1086D02*
X1023Y1086D01*
X1038Y1086D02*
X1042Y1086D01*
X1065Y1086D02*
X1075Y1086D01*
X1089Y1086D02*
X1112Y1086D01*
X1209Y1086D02*
X1216Y1086D01*
X1Y1085D02*
X8Y1085D01*
X308Y1085D02*
X312Y1085D01*
X326Y1085D02*
X330Y1085D01*
X345Y1085D02*
X349Y1085D01*
X365Y1085D02*
X369Y1085D01*
X376Y1085D02*
X381Y1085D01*
X410Y1085D02*
X418Y1085D01*
X436Y1085D02*
X440Y1085D01*
X477Y1085D02*
X480Y1085D01*
X502Y1085D02*
X506Y1085D01*
X537Y1085D02*
X551Y1085D01*
X948Y1085D02*
X952Y1085D01*
X958Y1085D02*
X962Y1085D01*
X968Y1085D02*
X972Y1085D01*
X984Y1085D02*
X987Y1085D01*
X1003Y1085D02*
X1007Y1085D01*
X1019Y1085D02*
X1023Y1085D01*
X1038Y1085D02*
X1042Y1085D01*
X1067Y1085D02*
X1076Y1085D01*
X1089Y1085D02*
X1111Y1085D01*
X1209Y1085D02*
X1216Y1085D01*
X1Y1084D02*
X8Y1084D01*
X308Y1084D02*
X312Y1084D01*
X326Y1084D02*
X330Y1084D01*
X345Y1084D02*
X349Y1084D01*
X365Y1084D02*
X370Y1084D01*
X376Y1084D02*
X380Y1084D01*
X412Y1084D02*
X419Y1084D01*
X436Y1084D02*
X440Y1084D01*
X477Y1084D02*
X480Y1084D01*
X502Y1084D02*
X506Y1084D01*
X537Y1084D02*
X543Y1084D01*
X545Y1084D02*
X552Y1084D01*
X948Y1084D02*
X952Y1084D01*
X958Y1084D02*
X962Y1084D01*
X968Y1084D02*
X972Y1084D01*
X984Y1084D02*
X987Y1084D01*
X1003Y1084D02*
X1007Y1084D01*
X1019Y1084D02*
X1023Y1084D01*
X1038Y1084D02*
X1042Y1084D01*
X1070Y1084D02*
X1076Y1084D01*
X1089Y1084D02*
X1093Y1084D01*
X1209Y1084D02*
X1216Y1084D01*
X1Y1083D02*
X8Y1083D01*
X308Y1083D02*
X312Y1083D01*
X326Y1083D02*
X330Y1083D01*
X345Y1083D02*
X349Y1083D01*
X366Y1083D02*
X370Y1083D01*
X375Y1083D02*
X380Y1083D01*
X414Y1083D02*
X419Y1083D01*
X436Y1083D02*
X440Y1083D01*
X477Y1083D02*
X480Y1083D01*
X502Y1083D02*
X506Y1083D01*
X537Y1083D02*
X541Y1083D01*
X547Y1083D02*
X553Y1083D01*
X948Y1083D02*
X952Y1083D01*
X958Y1083D02*
X962Y1083D01*
X968Y1083D02*
X972Y1083D01*
X984Y1083D02*
X987Y1083D01*
X1003Y1083D02*
X1007Y1083D01*
X1019Y1083D02*
X1023Y1083D01*
X1037Y1083D02*
X1042Y1083D01*
X1072Y1083D02*
X1077Y1083D01*
X1089Y1083D02*
X1093Y1083D01*
X1209Y1083D02*
X1216Y1083D01*
X1Y1082D02*
X8Y1082D01*
X308Y1082D02*
X312Y1082D01*
X326Y1082D02*
X330Y1082D01*
X345Y1082D02*
X349Y1082D01*
X366Y1082D02*
X371Y1082D01*
X375Y1082D02*
X379Y1082D01*
X415Y1082D02*
X419Y1082D01*
X436Y1082D02*
X440Y1082D01*
X452Y1082D02*
X453Y1082D01*
X477Y1082D02*
X480Y1082D01*
X502Y1082D02*
X507Y1082D01*
X537Y1082D02*
X541Y1082D01*
X548Y1082D02*
X554Y1082D01*
X948Y1082D02*
X952Y1082D01*
X958Y1082D02*
X962Y1082D01*
X968Y1082D02*
X972Y1082D01*
X984Y1082D02*
X988Y1082D01*
X1003Y1082D02*
X1007Y1082D01*
X1019Y1082D02*
X1023Y1082D01*
X1036Y1082D02*
X1042Y1082D01*
X1073Y1082D02*
X1077Y1082D01*
X1089Y1082D02*
X1093Y1082D01*
X1209Y1082D02*
X1216Y1082D01*
X1Y1081D02*
X8Y1081D01*
X308Y1081D02*
X312Y1081D01*
X326Y1081D02*
X330Y1081D01*
X345Y1081D02*
X349Y1081D01*
X367Y1081D02*
X371Y1081D01*
X374Y1081D02*
X379Y1081D01*
X416Y1081D02*
X420Y1081D01*
X436Y1081D02*
X440Y1081D01*
X451Y1081D02*
X454Y1081D01*
X477Y1081D02*
X480Y1081D01*
X503Y1081D02*
X508Y1081D01*
X537Y1081D02*
X541Y1081D01*
X549Y1081D02*
X556Y1081D01*
X948Y1081D02*
X952Y1081D01*
X958Y1081D02*
X962Y1081D01*
X968Y1081D02*
X972Y1081D01*
X984Y1081D02*
X988Y1081D01*
X1003Y1081D02*
X1007Y1081D01*
X1019Y1081D02*
X1023Y1081D01*
X1034Y1081D02*
X1042Y1081D01*
X1073Y1081D02*
X1077Y1081D01*
X1089Y1081D02*
X1093Y1081D01*
X1209Y1081D02*
X1216Y1081D01*
X1Y1080D02*
X8Y1080D01*
X308Y1080D02*
X312Y1080D01*
X326Y1080D02*
X331Y1080D01*
X344Y1080D02*
X349Y1080D01*
X367Y1080D02*
X378Y1080D01*
X398Y1080D02*
X398Y1080D01*
X415Y1080D02*
X420Y1080D01*
X436Y1080D02*
X440Y1080D01*
X451Y1080D02*
X455Y1080D01*
X477Y1080D02*
X480Y1080D01*
X503Y1080D02*
X509Y1080D01*
X537Y1080D02*
X541Y1080D01*
X550Y1080D02*
X557Y1080D01*
X948Y1080D02*
X952Y1080D01*
X958Y1080D02*
X962Y1080D01*
X968Y1080D02*
X972Y1080D01*
X984Y1080D02*
X989Y1080D01*
X1002Y1080D02*
X1006Y1080D01*
X1019Y1080D02*
X1023Y1080D01*
X1033Y1080D02*
X1042Y1080D01*
X1056Y1080D02*
X1056Y1080D01*
X1073Y1080D02*
X1077Y1080D01*
X1089Y1080D02*
X1094Y1080D01*
X1209Y1080D02*
X1216Y1080D01*
X1Y1079D02*
X8Y1079D01*
X308Y1079D02*
X312Y1079D01*
X327Y1079D02*
X332Y1079D01*
X343Y1079D02*
X349Y1079D01*
X368Y1079D02*
X378Y1079D01*
X397Y1079D02*
X400Y1079D01*
X415Y1079D02*
X419Y1079D01*
X437Y1079D02*
X441Y1079D01*
X450Y1079D02*
X455Y1079D01*
X477Y1079D02*
X480Y1079D01*
X504Y1079D02*
X511Y1079D01*
X537Y1079D02*
X541Y1079D01*
X551Y1079D02*
X558Y1079D01*
X948Y1079D02*
X952Y1079D01*
X958Y1079D02*
X962Y1079D01*
X968Y1079D02*
X972Y1079D01*
X984Y1079D02*
X990Y1079D01*
X1001Y1079D02*
X1006Y1079D01*
X1019Y1079D02*
X1024Y1079D01*
X1031Y1079D02*
X1042Y1079D01*
X1054Y1079D02*
X1058Y1079D01*
X1073Y1079D02*
X1077Y1079D01*
X1090Y1079D02*
X1095Y1079D01*
X1209Y1079D02*
X1216Y1079D01*
X1Y1078D02*
X8Y1078D01*
X308Y1078D02*
X312Y1078D01*
X327Y1078D02*
X348Y1078D01*
X368Y1078D02*
X378Y1078D01*
X396Y1078D02*
X419Y1078D01*
X437Y1078D02*
X454Y1078D01*
X471Y1078D02*
X486Y1078D01*
X505Y1078D02*
X523Y1078D01*
X537Y1078D02*
X541Y1078D01*
X552Y1078D02*
X559Y1078D01*
X948Y1078D02*
X952Y1078D01*
X958Y1078D02*
X962Y1078D01*
X968Y1078D02*
X972Y1078D01*
X985Y1078D02*
X1005Y1078D01*
X1019Y1078D02*
X1042Y1078D01*
X1054Y1078D02*
X1077Y1078D01*
X1090Y1078D02*
X1111Y1078D01*
X1209Y1078D02*
X1216Y1078D01*
X1Y1077D02*
X8Y1077D01*
X308Y1077D02*
X312Y1077D01*
X328Y1077D02*
X347Y1077D01*
X369Y1077D02*
X377Y1077D01*
X397Y1077D02*
X419Y1077D01*
X437Y1077D02*
X454Y1077D01*
X470Y1077D02*
X487Y1077D01*
X506Y1077D02*
X525Y1077D01*
X537Y1077D02*
X541Y1077D01*
X554Y1077D02*
X560Y1077D01*
X948Y1077D02*
X952Y1077D01*
X958Y1077D02*
X962Y1077D01*
X968Y1077D02*
X972Y1077D01*
X986Y1077D02*
X1005Y1077D01*
X1020Y1077D02*
X1042Y1077D01*
X1054Y1077D02*
X1076Y1077D01*
X1091Y1077D02*
X1112Y1077D01*
X1209Y1077D02*
X1216Y1077D01*
X1Y1076D02*
X8Y1076D01*
X308Y1076D02*
X312Y1076D01*
X329Y1076D02*
X346Y1076D01*
X369Y1076D02*
X377Y1076D01*
X397Y1076D02*
X418Y1076D01*
X438Y1076D02*
X453Y1076D01*
X469Y1076D02*
X488Y1076D01*
X508Y1076D02*
X525Y1076D01*
X537Y1076D02*
X541Y1076D01*
X555Y1076D02*
X560Y1076D01*
X948Y1076D02*
X952Y1076D01*
X958Y1076D02*
X962Y1076D01*
X968Y1076D02*
X972Y1076D01*
X987Y1076D02*
X1004Y1076D01*
X1021Y1076D02*
X1035Y1076D01*
X1038Y1076D02*
X1042Y1076D01*
X1055Y1076D02*
X1075Y1076D01*
X1092Y1076D02*
X1112Y1076D01*
X1209Y1076D02*
X1216Y1076D01*
X1Y1075D02*
X8Y1075D01*
X308Y1075D02*
X312Y1075D01*
X330Y1075D02*
X345Y1075D01*
X372Y1075D02*
X376Y1075D01*
X398Y1075D02*
X417Y1075D01*
X439Y1075D02*
X452Y1075D01*
X469Y1075D02*
X488Y1075D01*
X509Y1075D02*
X525Y1075D01*
X537Y1075D02*
X541Y1075D01*
X556Y1075D02*
X560Y1075D01*
X948Y1075D02*
X952Y1075D01*
X958Y1075D02*
X962Y1075D01*
X968Y1075D02*
X972Y1075D01*
X988Y1075D02*
X1002Y1075D01*
X1022Y1075D02*
X1033Y1075D01*
X1038Y1075D02*
X1042Y1075D01*
X1056Y1075D02*
X1074Y1075D01*
X1094Y1075D02*
X1112Y1075D01*
X1209Y1075D02*
X1216Y1075D01*
X1Y1074D02*
X8Y1074D01*
X308Y1074D02*
X312Y1074D01*
X332Y1074D02*
X343Y1074D01*
X371Y1074D02*
X376Y1074D01*
X400Y1074D02*
X415Y1074D01*
X441Y1074D02*
X451Y1074D01*
X470Y1074D02*
X487Y1074D01*
X510Y1074D02*
X525Y1074D01*
X538Y1074D02*
X540Y1074D01*
X557Y1074D02*
X560Y1074D01*
X949Y1074D02*
X951Y1074D01*
X959Y1074D02*
X961Y1074D01*
X969Y1074D02*
X971Y1074D01*
X990Y1074D02*
X1001Y1074D01*
X1023Y1074D02*
X1031Y1074D01*
X1038Y1074D02*
X1041Y1074D01*
X1058Y1074D02*
X1073Y1074D01*
X1095Y1074D02*
X1112Y1074D01*
X1209Y1074D02*
X1216Y1074D01*
X1Y1073D02*
X8Y1073D01*
X308Y1073D02*
X312Y1073D01*
X371Y1073D02*
X375Y1073D01*
X1209Y1073D02*
X1216Y1073D01*
X1Y1072D02*
X8Y1072D01*
X308Y1072D02*
X312Y1072D01*
X370Y1072D02*
X375Y1072D01*
X1209Y1072D02*
X1216Y1072D01*
X1Y1071D02*
X8Y1071D01*
X294Y1071D02*
X296Y1071D01*
X308Y1071D02*
X312Y1071D01*
X370Y1071D02*
X374Y1071D01*
X1209Y1071D02*
X1216Y1071D01*
X1Y1070D02*
X8Y1070D01*
X293Y1070D02*
X297Y1070D01*
X308Y1070D02*
X312Y1070D01*
X370Y1070D02*
X374Y1070D01*
X1209Y1070D02*
X1216Y1070D01*
X1Y1069D02*
X8Y1069D01*
X293Y1069D02*
X298Y1069D01*
X307Y1069D02*
X311Y1069D01*
X369Y1069D02*
X374Y1069D01*
X1209Y1069D02*
X1216Y1069D01*
X1Y1068D02*
X8Y1068D01*
X293Y1068D02*
X299Y1068D01*
X306Y1068D02*
X311Y1068D01*
X369Y1068D02*
X373Y1068D01*
X1209Y1068D02*
X1216Y1068D01*
X1Y1067D02*
X8Y1067D01*
X294Y1067D02*
X311Y1067D01*
X362Y1067D02*
X373Y1067D01*
X1209Y1067D02*
X1216Y1067D01*
X1Y1066D02*
X8Y1066D01*
X295Y1066D02*
X310Y1066D01*
X361Y1066D02*
X372Y1066D01*
X1209Y1066D02*
X1216Y1066D01*
X1Y1065D02*
X8Y1065D01*
X295Y1065D02*
X309Y1065D01*
X361Y1065D02*
X372Y1065D01*
X1209Y1065D02*
X1216Y1065D01*
X1Y1064D02*
X8Y1064D01*
X297Y1064D02*
X308Y1064D01*
X362Y1064D02*
X371Y1064D01*
X1209Y1064D02*
X1216Y1064D01*
X1Y1063D02*
X8Y1063D01*
X300Y1063D02*
X305Y1063D01*
X363Y1063D02*
X370Y1063D01*
X1209Y1063D02*
X1216Y1063D01*
X1Y1062D02*
X8Y1062D01*
X1209Y1062D02*
X1216Y1062D01*
X1Y1061D02*
X8Y1061D01*
X1209Y1061D02*
X1216Y1061D01*
X1Y1060D02*
X8Y1060D01*
X1209Y1060D02*
X1216Y1060D01*
X1Y1059D02*
X8Y1059D01*
X1209Y1059D02*
X1216Y1059D01*
X1Y1058D02*
X8Y1058D01*
X1209Y1058D02*
X1216Y1058D01*
X1Y1057D02*
X8Y1057D01*
X1209Y1057D02*
X1216Y1057D01*
X1Y1056D02*
X8Y1056D01*
X1209Y1056D02*
X1216Y1056D01*
X1Y1055D02*
X8Y1055D01*
X1209Y1055D02*
X1216Y1055D01*
X1Y1054D02*
X8Y1054D01*
X1209Y1054D02*
X1216Y1054D01*
X1Y1053D02*
X8Y1053D01*
X1209Y1053D02*
X1216Y1053D01*
X1Y1052D02*
X8Y1052D01*
X1209Y1052D02*
X1216Y1052D01*
X1Y1051D02*
X8Y1051D01*
X1209Y1051D02*
X1216Y1051D01*
X1Y1050D02*
X8Y1050D01*
X1209Y1050D02*
X1216Y1050D01*
X1Y1049D02*
X8Y1049D01*
X1209Y1049D02*
X1216Y1049D01*
X1Y1048D02*
X8Y1048D01*
X1209Y1048D02*
X1216Y1048D01*
X1Y1047D02*
X8Y1047D01*
X1209Y1047D02*
X1216Y1047D01*
X1Y1046D02*
X8Y1046D01*
X1209Y1046D02*
X1216Y1046D01*
X1Y1045D02*
X8Y1045D01*
X1209Y1045D02*
X1216Y1045D01*
X1Y1044D02*
X8Y1044D01*
X1209Y1044D02*
X1216Y1044D01*
X1Y1043D02*
X8Y1043D01*
X1209Y1043D02*
X1216Y1043D01*
X1Y1042D02*
X8Y1042D01*
X1209Y1042D02*
X1216Y1042D01*
X1Y1041D02*
X8Y1041D01*
X1209Y1041D02*
X1216Y1041D01*
X1Y1040D02*
X8Y1040D01*
X1209Y1040D02*
X1216Y1040D01*
X1Y1039D02*
X8Y1039D01*
X1209Y1039D02*
X1216Y1039D01*
X1Y1038D02*
X8Y1038D01*
X1209Y1038D02*
X1216Y1038D01*
X1Y1037D02*
X8Y1037D01*
X1209Y1037D02*
X1216Y1037D01*
X1Y1036D02*
X8Y1036D01*
X1209Y1036D02*
X1216Y1036D01*
X1Y1035D02*
X8Y1035D01*
X1209Y1035D02*
X1216Y1035D01*
X1Y1034D02*
X8Y1034D01*
X1209Y1034D02*
X1216Y1034D01*
X1Y1033D02*
X8Y1033D01*
X1209Y1033D02*
X1216Y1033D01*
X1Y1032D02*
X8Y1032D01*
X1209Y1032D02*
X1216Y1032D01*
X1Y1031D02*
X8Y1031D01*
X1209Y1031D02*
X1216Y1031D01*
X1Y1030D02*
X8Y1030D01*
X1209Y1030D02*
X1216Y1030D01*
X1Y1029D02*
X8Y1029D01*
X1209Y1029D02*
X1216Y1029D01*
X1Y1028D02*
X8Y1028D01*
X1209Y1028D02*
X1216Y1028D01*
X1Y1027D02*
X8Y1027D01*
X1209Y1027D02*
X1216Y1027D01*
X1Y1026D02*
X8Y1026D01*
X1209Y1026D02*
X1216Y1026D01*
X1Y1025D02*
X8Y1025D01*
X1209Y1025D02*
X1216Y1025D01*
X1Y1024D02*
X8Y1024D01*
X1209Y1024D02*
X1216Y1024D01*
X1Y1023D02*
X8Y1023D01*
X1209Y1023D02*
X1216Y1023D01*
X1Y1022D02*
X8Y1022D01*
X1209Y1022D02*
X1216Y1022D01*
X1Y1021D02*
X8Y1021D01*
X1209Y1021D02*
X1216Y1021D01*
X1Y1020D02*
X8Y1020D01*
X1209Y1020D02*
X1216Y1020D01*
X1Y1019D02*
X8Y1019D01*
X1209Y1019D02*
X1216Y1019D01*
X1Y1018D02*
X8Y1018D01*
X1209Y1018D02*
X1216Y1018D01*
X1Y1017D02*
X8Y1017D01*
X1209Y1017D02*
X1216Y1017D01*
X1Y1016D02*
X8Y1016D01*
X1209Y1016D02*
X1216Y1016D01*
X1Y1015D02*
X8Y1015D01*
X1209Y1015D02*
X1216Y1015D01*
X1Y1014D02*
X8Y1014D01*
X1209Y1014D02*
X1216Y1014D01*
X1Y1013D02*
X8Y1013D01*
X1209Y1013D02*
X1216Y1013D01*
X1Y1012D02*
X8Y1012D01*
X1209Y1012D02*
X1216Y1012D01*
X1Y1011D02*
X8Y1011D01*
X1209Y1011D02*
X1216Y1011D01*
X1Y1010D02*
X8Y1010D01*
X1209Y1010D02*
X1216Y1010D01*
X1Y1009D02*
X8Y1009D01*
X1209Y1009D02*
X1216Y1009D01*
X1Y1008D02*
X8Y1008D01*
X1209Y1008D02*
X1216Y1008D01*
X1Y1007D02*
X8Y1007D01*
X1209Y1007D02*
X1216Y1007D01*
X1Y1006D02*
X8Y1006D01*
X1209Y1006D02*
X1216Y1006D01*
X1Y1005D02*
X8Y1005D01*
X1209Y1005D02*
X1216Y1005D01*
X1Y1004D02*
X8Y1004D01*
X1209Y1004D02*
X1216Y1004D01*
X1Y1003D02*
X8Y1003D01*
X1209Y1003D02*
X1216Y1003D01*
X1Y1002D02*
X8Y1002D01*
X1209Y1002D02*
X1216Y1002D01*
X1Y1001D02*
X8Y1001D01*
X1209Y1001D02*
X1216Y1001D01*
X1Y1000D02*
X8Y1000D01*
X1209Y1000D02*
X1216Y1000D01*
X1Y999D02*
X8Y999D01*
X1209Y999D02*
X1216Y999D01*
X1Y998D02*
X8Y998D01*
X1209Y998D02*
X1216Y998D01*
X1Y997D02*
X8Y997D01*
X1209Y997D02*
X1216Y997D01*
X1Y996D02*
X8Y996D01*
X1209Y996D02*
X1216Y996D01*
X1Y995D02*
X8Y995D01*
X1209Y995D02*
X1216Y995D01*
X1Y994D02*
X8Y994D01*
X1209Y994D02*
X1216Y994D01*
X1Y993D02*
X8Y993D01*
X1209Y993D02*
X1216Y993D01*
X1Y992D02*
X8Y992D01*
X1209Y992D02*
X1216Y992D01*
X1Y991D02*
X8Y991D01*
X1209Y991D02*
X1216Y991D01*
X1Y990D02*
X8Y990D01*
X1209Y990D02*
X1216Y990D01*
X1Y989D02*
X8Y989D01*
X1209Y989D02*
X1216Y989D01*
X1Y988D02*
X8Y988D01*
X1209Y988D02*
X1216Y988D01*
X1Y987D02*
X8Y987D01*
X271Y987D02*
X1205Y987D01*
X1209Y987D02*
X1216Y987D01*
X1Y986D02*
X8Y986D01*
X271Y986D02*
X1205Y986D01*
X1209Y986D02*
X1216Y986D01*
X1Y985D02*
X8Y985D01*
X271Y985D02*
X1205Y985D01*
X1209Y985D02*
X1216Y985D01*
X1Y984D02*
X8Y984D01*
X271Y984D02*
X1205Y984D01*
X1209Y984D02*
X1216Y984D01*
X1Y983D02*
X8Y983D01*
X271Y983D02*
X1205Y983D01*
X1209Y983D02*
X1216Y983D01*
X1Y982D02*
X8Y982D01*
X271Y982D02*
X1205Y982D01*
X1209Y982D02*
X1216Y982D01*
X1Y981D02*
X8Y981D01*
X271Y981D02*
X1205Y981D01*
X1209Y981D02*
X1216Y981D01*
X1Y980D02*
X8Y980D01*
X271Y980D02*
X1205Y980D01*
X1209Y980D02*
X1216Y980D01*
X1Y979D02*
X8Y979D01*
X271Y979D02*
X1205Y979D01*
X1209Y979D02*
X1216Y979D01*
X1Y978D02*
X8Y978D01*
X271Y978D02*
X1205Y978D01*
X1209Y978D02*
X1216Y978D01*
X1Y977D02*
X8Y977D01*
X271Y977D02*
X280Y977D01*
X1196Y977D02*
X1205Y977D01*
X1209Y977D02*
X1216Y977D01*
X1Y976D02*
X8Y976D01*
X271Y976D02*
X280Y976D01*
X1196Y976D02*
X1205Y976D01*
X1209Y976D02*
X1216Y976D01*
X1Y975D02*
X8Y975D01*
X271Y975D02*
X280Y975D01*
X1196Y975D02*
X1205Y975D01*
X1209Y975D02*
X1216Y975D01*
X1Y974D02*
X8Y974D01*
X271Y974D02*
X280Y974D01*
X1196Y974D02*
X1205Y974D01*
X1209Y974D02*
X1216Y974D01*
X1Y973D02*
X8Y973D01*
X271Y973D02*
X280Y973D01*
X1196Y973D02*
X1205Y973D01*
X1209Y973D02*
X1216Y973D01*
X1Y972D02*
X8Y972D01*
X271Y972D02*
X280Y972D01*
X1196Y972D02*
X1205Y972D01*
X1209Y972D02*
X1216Y972D01*
X1Y971D02*
X8Y971D01*
X271Y971D02*
X280Y971D01*
X1196Y971D02*
X1205Y971D01*
X1209Y971D02*
X1216Y971D01*
X1Y970D02*
X8Y970D01*
X271Y970D02*
X280Y970D01*
X1196Y970D02*
X1205Y970D01*
X1209Y970D02*
X1216Y970D01*
X1Y969D02*
X8Y969D01*
X271Y969D02*
X280Y969D01*
X1196Y969D02*
X1205Y969D01*
X1209Y969D02*
X1216Y969D01*
X1Y968D02*
X8Y968D01*
X271Y968D02*
X280Y968D01*
X1196Y968D02*
X1205Y968D01*
X1209Y968D02*
X1216Y968D01*
X1Y967D02*
X8Y967D01*
X271Y967D02*
X280Y967D01*
X1196Y967D02*
X1205Y967D01*
X1209Y967D02*
X1216Y967D01*
X1Y966D02*
X8Y966D01*
X271Y966D02*
X280Y966D01*
X1196Y966D02*
X1205Y966D01*
X1209Y966D02*
X1216Y966D01*
X1Y965D02*
X8Y965D01*
X271Y965D02*
X280Y965D01*
X1196Y965D02*
X1205Y965D01*
X1209Y965D02*
X1216Y965D01*
X1Y964D02*
X8Y964D01*
X271Y964D02*
X280Y964D01*
X1196Y964D02*
X1205Y964D01*
X1209Y964D02*
X1216Y964D01*
X1Y963D02*
X8Y963D01*
X271Y963D02*
X280Y963D01*
X1196Y963D02*
X1205Y963D01*
X1209Y963D02*
X1216Y963D01*
X1Y962D02*
X8Y962D01*
X271Y962D02*
X280Y962D01*
X1196Y962D02*
X1205Y962D01*
X1209Y962D02*
X1216Y962D01*
X1Y961D02*
X8Y961D01*
X271Y961D02*
X280Y961D01*
X1196Y961D02*
X1205Y961D01*
X1209Y961D02*
X1216Y961D01*
X1Y960D02*
X8Y960D01*
X271Y960D02*
X280Y960D01*
X1196Y960D02*
X1205Y960D01*
X1209Y960D02*
X1216Y960D01*
X1Y959D02*
X8Y959D01*
X271Y959D02*
X280Y959D01*
X1196Y959D02*
X1205Y959D01*
X1209Y959D02*
X1216Y959D01*
X1Y958D02*
X8Y958D01*
X271Y958D02*
X280Y958D01*
X1196Y958D02*
X1205Y958D01*
X1209Y958D02*
X1216Y958D01*
X1Y957D02*
X8Y957D01*
X271Y957D02*
X280Y957D01*
X1196Y957D02*
X1205Y957D01*
X1209Y957D02*
X1216Y957D01*
X1Y956D02*
X8Y956D01*
X271Y956D02*
X280Y956D01*
X1196Y956D02*
X1205Y956D01*
X1209Y956D02*
X1216Y956D01*
X1Y955D02*
X8Y955D01*
X271Y955D02*
X280Y955D01*
X1196Y955D02*
X1205Y955D01*
X1209Y955D02*
X1216Y955D01*
X1Y954D02*
X8Y954D01*
X271Y954D02*
X280Y954D01*
X1196Y954D02*
X1205Y954D01*
X1209Y954D02*
X1216Y954D01*
X1Y953D02*
X8Y953D01*
X271Y953D02*
X280Y953D01*
X1196Y953D02*
X1205Y953D01*
X1209Y953D02*
X1216Y953D01*
X1Y952D02*
X8Y952D01*
X271Y952D02*
X280Y952D01*
X1196Y952D02*
X1205Y952D01*
X1209Y952D02*
X1216Y952D01*
X1Y951D02*
X8Y951D01*
X271Y951D02*
X280Y951D01*
X1196Y951D02*
X1205Y951D01*
X1209Y951D02*
X1216Y951D01*
X1Y950D02*
X8Y950D01*
X271Y950D02*
X280Y950D01*
X1196Y950D02*
X1205Y950D01*
X1209Y950D02*
X1216Y950D01*
X1Y949D02*
X8Y949D01*
X271Y949D02*
X280Y949D01*
X1196Y949D02*
X1205Y949D01*
X1209Y949D02*
X1216Y949D01*
X1Y948D02*
X8Y948D01*
X271Y948D02*
X280Y948D01*
X1196Y948D02*
X1205Y948D01*
X1209Y948D02*
X1216Y948D01*
X1Y947D02*
X8Y947D01*
X271Y947D02*
X280Y947D01*
X1196Y947D02*
X1205Y947D01*
X1209Y947D02*
X1216Y947D01*
X1Y946D02*
X8Y946D01*
X271Y946D02*
X280Y946D01*
X1196Y946D02*
X1205Y946D01*
X1209Y946D02*
X1216Y946D01*
X1Y945D02*
X8Y945D01*
X271Y945D02*
X280Y945D01*
X1196Y945D02*
X1205Y945D01*
X1209Y945D02*
X1216Y945D01*
X1Y944D02*
X8Y944D01*
X271Y944D02*
X280Y944D01*
X1196Y944D02*
X1205Y944D01*
X1209Y944D02*
X1216Y944D01*
X1Y943D02*
X8Y943D01*
X271Y943D02*
X280Y943D01*
X1196Y943D02*
X1205Y943D01*
X1209Y943D02*
X1216Y943D01*
X1Y942D02*
X8Y942D01*
X271Y942D02*
X280Y942D01*
X1196Y942D02*
X1205Y942D01*
X1209Y942D02*
X1216Y942D01*
X1Y941D02*
X8Y941D01*
X271Y941D02*
X280Y941D01*
X1196Y941D02*
X1205Y941D01*
X1209Y941D02*
X1216Y941D01*
X1Y940D02*
X8Y940D01*
X271Y940D02*
X280Y940D01*
X1196Y940D02*
X1205Y940D01*
X1209Y940D02*
X1216Y940D01*
X1Y939D02*
X8Y939D01*
X271Y939D02*
X280Y939D01*
X1196Y939D02*
X1205Y939D01*
X1209Y939D02*
X1216Y939D01*
X1Y938D02*
X8Y938D01*
X271Y938D02*
X280Y938D01*
X1196Y938D02*
X1205Y938D01*
X1209Y938D02*
X1216Y938D01*
X1Y937D02*
X8Y937D01*
X271Y937D02*
X280Y937D01*
X1196Y937D02*
X1205Y937D01*
X1209Y937D02*
X1216Y937D01*
X1Y936D02*
X8Y936D01*
X271Y936D02*
X280Y936D01*
X1196Y936D02*
X1205Y936D01*
X1209Y936D02*
X1216Y936D01*
X1Y935D02*
X8Y935D01*
X271Y935D02*
X280Y935D01*
X1196Y935D02*
X1205Y935D01*
X1209Y935D02*
X1216Y935D01*
X1Y934D02*
X8Y934D01*
X271Y934D02*
X280Y934D01*
X1196Y934D02*
X1205Y934D01*
X1209Y934D02*
X1216Y934D01*
X1Y933D02*
X8Y933D01*
X271Y933D02*
X280Y933D01*
X1196Y933D02*
X1205Y933D01*
X1209Y933D02*
X1216Y933D01*
X1Y932D02*
X8Y932D01*
X271Y932D02*
X280Y932D01*
X1196Y932D02*
X1205Y932D01*
X1209Y932D02*
X1216Y932D01*
X1Y931D02*
X8Y931D01*
X271Y931D02*
X280Y931D01*
X1196Y931D02*
X1205Y931D01*
X1209Y931D02*
X1216Y931D01*
X1Y930D02*
X8Y930D01*
X271Y930D02*
X280Y930D01*
X1196Y930D02*
X1205Y930D01*
X1209Y930D02*
X1216Y930D01*
X1Y929D02*
X8Y929D01*
X271Y929D02*
X280Y929D01*
X1196Y929D02*
X1205Y929D01*
X1209Y929D02*
X1216Y929D01*
X1Y928D02*
X8Y928D01*
X271Y928D02*
X280Y928D01*
X1196Y928D02*
X1205Y928D01*
X1209Y928D02*
X1216Y928D01*
X1Y927D02*
X8Y927D01*
X271Y927D02*
X280Y927D01*
X1196Y927D02*
X1205Y927D01*
X1209Y927D02*
X1216Y927D01*
X1Y926D02*
X8Y926D01*
X271Y926D02*
X280Y926D01*
X1196Y926D02*
X1205Y926D01*
X1209Y926D02*
X1216Y926D01*
X1Y925D02*
X8Y925D01*
X271Y925D02*
X280Y925D01*
X1196Y925D02*
X1205Y925D01*
X1209Y925D02*
X1216Y925D01*
X1Y924D02*
X8Y924D01*
X271Y924D02*
X280Y924D01*
X1196Y924D02*
X1205Y924D01*
X1209Y924D02*
X1216Y924D01*
X1Y923D02*
X8Y923D01*
X271Y923D02*
X280Y923D01*
X1196Y923D02*
X1205Y923D01*
X1209Y923D02*
X1216Y923D01*
X1Y922D02*
X8Y922D01*
X271Y922D02*
X280Y922D01*
X1196Y922D02*
X1205Y922D01*
X1209Y922D02*
X1216Y922D01*
X1Y921D02*
X8Y921D01*
X271Y921D02*
X280Y921D01*
X1196Y921D02*
X1205Y921D01*
X1209Y921D02*
X1216Y921D01*
X1Y920D02*
X8Y920D01*
X271Y920D02*
X280Y920D01*
X1196Y920D02*
X1205Y920D01*
X1209Y920D02*
X1216Y920D01*
X1Y919D02*
X8Y919D01*
X271Y919D02*
X280Y919D01*
X1196Y919D02*
X1205Y919D01*
X1209Y919D02*
X1216Y919D01*
X1Y918D02*
X8Y918D01*
X271Y918D02*
X280Y918D01*
X1196Y918D02*
X1205Y918D01*
X1209Y918D02*
X1216Y918D01*
X1Y917D02*
X8Y917D01*
X271Y917D02*
X280Y917D01*
X1196Y917D02*
X1205Y917D01*
X1209Y917D02*
X1216Y917D01*
X1Y916D02*
X8Y916D01*
X271Y916D02*
X280Y916D01*
X1196Y916D02*
X1205Y916D01*
X1209Y916D02*
X1216Y916D01*
X1Y915D02*
X8Y915D01*
X271Y915D02*
X280Y915D01*
X1196Y915D02*
X1205Y915D01*
X1209Y915D02*
X1216Y915D01*
X1Y914D02*
X8Y914D01*
X271Y914D02*
X280Y914D01*
X1196Y914D02*
X1205Y914D01*
X1209Y914D02*
X1216Y914D01*
X1Y913D02*
X8Y913D01*
X271Y913D02*
X280Y913D01*
X1196Y913D02*
X1205Y913D01*
X1209Y913D02*
X1216Y913D01*
X1Y912D02*
X8Y912D01*
X271Y912D02*
X280Y912D01*
X1196Y912D02*
X1205Y912D01*
X1209Y912D02*
X1216Y912D01*
X1Y911D02*
X8Y911D01*
X271Y911D02*
X280Y911D01*
X1196Y911D02*
X1205Y911D01*
X1209Y911D02*
X1216Y911D01*
X1Y910D02*
X8Y910D01*
X271Y910D02*
X280Y910D01*
X1196Y910D02*
X1205Y910D01*
X1209Y910D02*
X1216Y910D01*
X1Y909D02*
X8Y909D01*
X271Y909D02*
X280Y909D01*
X1196Y909D02*
X1205Y909D01*
X1209Y909D02*
X1216Y909D01*
X1Y908D02*
X8Y908D01*
X271Y908D02*
X280Y908D01*
X1196Y908D02*
X1205Y908D01*
X1209Y908D02*
X1216Y908D01*
X1Y907D02*
X8Y907D01*
X271Y907D02*
X280Y907D01*
X1196Y907D02*
X1205Y907D01*
X1209Y907D02*
X1216Y907D01*
X1Y906D02*
X8Y906D01*
X271Y906D02*
X280Y906D01*
X1196Y906D02*
X1205Y906D01*
X1209Y906D02*
X1216Y906D01*
X1Y905D02*
X8Y905D01*
X271Y905D02*
X280Y905D01*
X1196Y905D02*
X1205Y905D01*
X1209Y905D02*
X1216Y905D01*
X1Y904D02*
X8Y904D01*
X271Y904D02*
X280Y904D01*
X1196Y904D02*
X1205Y904D01*
X1209Y904D02*
X1216Y904D01*
X1Y903D02*
X8Y903D01*
X271Y903D02*
X280Y903D01*
X1196Y903D02*
X1205Y903D01*
X1209Y903D02*
X1216Y903D01*
X1Y902D02*
X8Y902D01*
X271Y902D02*
X280Y902D01*
X1196Y902D02*
X1205Y902D01*
X1209Y902D02*
X1216Y902D01*
X1Y901D02*
X8Y901D01*
X271Y901D02*
X280Y901D01*
X1196Y901D02*
X1205Y901D01*
X1209Y901D02*
X1216Y901D01*
X1Y900D02*
X8Y900D01*
X271Y900D02*
X280Y900D01*
X1196Y900D02*
X1205Y900D01*
X1209Y900D02*
X1216Y900D01*
X1Y899D02*
X8Y899D01*
X271Y899D02*
X280Y899D01*
X1196Y899D02*
X1205Y899D01*
X1209Y899D02*
X1216Y899D01*
X1Y898D02*
X8Y898D01*
X271Y898D02*
X280Y898D01*
X1196Y898D02*
X1205Y898D01*
X1209Y898D02*
X1216Y898D01*
X1Y897D02*
X8Y897D01*
X271Y897D02*
X280Y897D01*
X1196Y897D02*
X1205Y897D01*
X1209Y897D02*
X1216Y897D01*
X1Y896D02*
X8Y896D01*
X271Y896D02*
X280Y896D01*
X1196Y896D02*
X1205Y896D01*
X1209Y896D02*
X1216Y896D01*
X1Y895D02*
X8Y895D01*
X271Y895D02*
X280Y895D01*
X1196Y895D02*
X1205Y895D01*
X1209Y895D02*
X1216Y895D01*
X1Y894D02*
X8Y894D01*
X271Y894D02*
X280Y894D01*
X1196Y894D02*
X1205Y894D01*
X1209Y894D02*
X1216Y894D01*
X1Y893D02*
X8Y893D01*
X271Y893D02*
X280Y893D01*
X1196Y893D02*
X1205Y893D01*
X1209Y893D02*
X1216Y893D01*
X1Y892D02*
X8Y892D01*
X271Y892D02*
X280Y892D01*
X1196Y892D02*
X1205Y892D01*
X1209Y892D02*
X1216Y892D01*
X1Y891D02*
X8Y891D01*
X271Y891D02*
X280Y891D01*
X1196Y891D02*
X1205Y891D01*
X1209Y891D02*
X1216Y891D01*
X1Y890D02*
X8Y890D01*
X271Y890D02*
X280Y890D01*
X1196Y890D02*
X1205Y890D01*
X1209Y890D02*
X1216Y890D01*
X1Y889D02*
X8Y889D01*
X271Y889D02*
X280Y889D01*
X1196Y889D02*
X1205Y889D01*
X1209Y889D02*
X1216Y889D01*
X1Y888D02*
X8Y888D01*
X271Y888D02*
X280Y888D01*
X1196Y888D02*
X1205Y888D01*
X1209Y888D02*
X1216Y888D01*
X1Y887D02*
X8Y887D01*
X271Y887D02*
X280Y887D01*
X1196Y887D02*
X1205Y887D01*
X1209Y887D02*
X1216Y887D01*
X1Y886D02*
X8Y886D01*
X271Y886D02*
X280Y886D01*
X1196Y886D02*
X1205Y886D01*
X1209Y886D02*
X1216Y886D01*
X1Y885D02*
X8Y885D01*
X271Y885D02*
X280Y885D01*
X1196Y885D02*
X1205Y885D01*
X1209Y885D02*
X1216Y885D01*
X1Y884D02*
X8Y884D01*
X271Y884D02*
X280Y884D01*
X1196Y884D02*
X1205Y884D01*
X1209Y884D02*
X1216Y884D01*
X1Y883D02*
X8Y883D01*
X271Y883D02*
X280Y883D01*
X1196Y883D02*
X1205Y883D01*
X1209Y883D02*
X1216Y883D01*
X1Y882D02*
X8Y882D01*
X271Y882D02*
X280Y882D01*
X1196Y882D02*
X1205Y882D01*
X1209Y882D02*
X1216Y882D01*
X1Y881D02*
X8Y881D01*
X271Y881D02*
X280Y881D01*
X1196Y881D02*
X1205Y881D01*
X1209Y881D02*
X1216Y881D01*
X1Y880D02*
X8Y880D01*
X271Y880D02*
X280Y880D01*
X1196Y880D02*
X1205Y880D01*
X1209Y880D02*
X1216Y880D01*
X1Y879D02*
X8Y879D01*
X271Y879D02*
X280Y879D01*
X1196Y879D02*
X1205Y879D01*
X1209Y879D02*
X1216Y879D01*
X1Y878D02*
X8Y878D01*
X271Y878D02*
X280Y878D01*
X1196Y878D02*
X1205Y878D01*
X1209Y878D02*
X1216Y878D01*
X1Y877D02*
X8Y877D01*
X271Y877D02*
X280Y877D01*
X1196Y877D02*
X1205Y877D01*
X1209Y877D02*
X1216Y877D01*
X1Y876D02*
X8Y876D01*
X271Y876D02*
X280Y876D01*
X1196Y876D02*
X1205Y876D01*
X1209Y876D02*
X1216Y876D01*
X1Y875D02*
X8Y875D01*
X271Y875D02*
X280Y875D01*
X1196Y875D02*
X1205Y875D01*
X1209Y875D02*
X1216Y875D01*
X1Y874D02*
X8Y874D01*
X271Y874D02*
X280Y874D01*
X1196Y874D02*
X1205Y874D01*
X1209Y874D02*
X1216Y874D01*
X1Y873D02*
X8Y873D01*
X271Y873D02*
X280Y873D01*
X1196Y873D02*
X1205Y873D01*
X1209Y873D02*
X1216Y873D01*
X1Y872D02*
X8Y872D01*
X271Y872D02*
X280Y872D01*
X1196Y872D02*
X1205Y872D01*
X1209Y872D02*
X1216Y872D01*
X1Y871D02*
X8Y871D01*
X271Y871D02*
X280Y871D01*
X1196Y871D02*
X1205Y871D01*
X1209Y871D02*
X1216Y871D01*
X1Y870D02*
X8Y870D01*
X271Y870D02*
X280Y870D01*
X1196Y870D02*
X1205Y870D01*
X1209Y870D02*
X1216Y870D01*
X1Y869D02*
X8Y869D01*
X271Y869D02*
X280Y869D01*
X1196Y869D02*
X1205Y869D01*
X1209Y869D02*
X1216Y869D01*
X1Y868D02*
X8Y868D01*
X271Y868D02*
X280Y868D01*
X1196Y868D02*
X1205Y868D01*
X1209Y868D02*
X1216Y868D01*
X1Y867D02*
X8Y867D01*
X271Y867D02*
X280Y867D01*
X1196Y867D02*
X1205Y867D01*
X1209Y867D02*
X1216Y867D01*
X1Y866D02*
X8Y866D01*
X271Y866D02*
X280Y866D01*
X1196Y866D02*
X1205Y866D01*
X1209Y866D02*
X1216Y866D01*
X1Y865D02*
X8Y865D01*
X271Y865D02*
X280Y865D01*
X1196Y865D02*
X1205Y865D01*
X1209Y865D02*
X1216Y865D01*
X1Y864D02*
X8Y864D01*
X271Y864D02*
X280Y864D01*
X1196Y864D02*
X1205Y864D01*
X1209Y864D02*
X1216Y864D01*
X1Y863D02*
X8Y863D01*
X271Y863D02*
X280Y863D01*
X1196Y863D02*
X1205Y863D01*
X1209Y863D02*
X1216Y863D01*
X1Y862D02*
X8Y862D01*
X271Y862D02*
X280Y862D01*
X1196Y862D02*
X1205Y862D01*
X1209Y862D02*
X1216Y862D01*
X1Y861D02*
X8Y861D01*
X271Y861D02*
X280Y861D01*
X1196Y861D02*
X1205Y861D01*
X1209Y861D02*
X1216Y861D01*
X1Y860D02*
X8Y860D01*
X271Y860D02*
X280Y860D01*
X1196Y860D02*
X1205Y860D01*
X1209Y860D02*
X1216Y860D01*
X1Y859D02*
X8Y859D01*
X271Y859D02*
X280Y859D01*
X1196Y859D02*
X1205Y859D01*
X1209Y859D02*
X1216Y859D01*
X1Y858D02*
X8Y858D01*
X271Y858D02*
X280Y858D01*
X1196Y858D02*
X1205Y858D01*
X1209Y858D02*
X1216Y858D01*
X1Y857D02*
X8Y857D01*
X271Y857D02*
X280Y857D01*
X1196Y857D02*
X1205Y857D01*
X1209Y857D02*
X1216Y857D01*
X1Y856D02*
X8Y856D01*
X271Y856D02*
X280Y856D01*
X1196Y856D02*
X1205Y856D01*
X1209Y856D02*
X1216Y856D01*
X1Y855D02*
X8Y855D01*
X271Y855D02*
X280Y855D01*
X1196Y855D02*
X1205Y855D01*
X1209Y855D02*
X1216Y855D01*
X1Y854D02*
X8Y854D01*
X271Y854D02*
X280Y854D01*
X1196Y854D02*
X1205Y854D01*
X1209Y854D02*
X1216Y854D01*
X1Y853D02*
X8Y853D01*
X271Y853D02*
X280Y853D01*
X1196Y853D02*
X1205Y853D01*
X1209Y853D02*
X1216Y853D01*
X1Y852D02*
X8Y852D01*
X271Y852D02*
X280Y852D01*
X1196Y852D02*
X1205Y852D01*
X1209Y852D02*
X1216Y852D01*
X1Y851D02*
X8Y851D01*
X271Y851D02*
X280Y851D01*
X1196Y851D02*
X1205Y851D01*
X1209Y851D02*
X1216Y851D01*
X1Y850D02*
X8Y850D01*
X271Y850D02*
X280Y850D01*
X1196Y850D02*
X1205Y850D01*
X1209Y850D02*
X1216Y850D01*
X1Y849D02*
X8Y849D01*
X271Y849D02*
X280Y849D01*
X1196Y849D02*
X1205Y849D01*
X1209Y849D02*
X1216Y849D01*
X1Y848D02*
X8Y848D01*
X271Y848D02*
X280Y848D01*
X1196Y848D02*
X1205Y848D01*
X1209Y848D02*
X1216Y848D01*
X1Y847D02*
X8Y847D01*
X271Y847D02*
X280Y847D01*
X1196Y847D02*
X1205Y847D01*
X1209Y847D02*
X1216Y847D01*
X1Y846D02*
X8Y846D01*
X271Y846D02*
X280Y846D01*
X1196Y846D02*
X1205Y846D01*
X1209Y846D02*
X1216Y846D01*
X1Y845D02*
X8Y845D01*
X271Y845D02*
X280Y845D01*
X1196Y845D02*
X1205Y845D01*
X1209Y845D02*
X1216Y845D01*
X1Y844D02*
X8Y844D01*
X271Y844D02*
X280Y844D01*
X1196Y844D02*
X1205Y844D01*
X1209Y844D02*
X1216Y844D01*
X1Y843D02*
X8Y843D01*
X271Y843D02*
X280Y843D01*
X1196Y843D02*
X1205Y843D01*
X1209Y843D02*
X1216Y843D01*
X1Y842D02*
X8Y842D01*
X271Y842D02*
X280Y842D01*
X1196Y842D02*
X1205Y842D01*
X1209Y842D02*
X1216Y842D01*
X1Y841D02*
X8Y841D01*
X271Y841D02*
X280Y841D01*
X1196Y841D02*
X1205Y841D01*
X1209Y841D02*
X1216Y841D01*
X1Y840D02*
X8Y840D01*
X271Y840D02*
X280Y840D01*
X1196Y840D02*
X1205Y840D01*
X1209Y840D02*
X1216Y840D01*
X1Y839D02*
X8Y839D01*
X271Y839D02*
X280Y839D01*
X1196Y839D02*
X1205Y839D01*
X1209Y839D02*
X1216Y839D01*
X1Y838D02*
X8Y838D01*
X271Y838D02*
X280Y838D01*
X1196Y838D02*
X1205Y838D01*
X1209Y838D02*
X1216Y838D01*
X1Y837D02*
X8Y837D01*
X271Y837D02*
X280Y837D01*
X1196Y837D02*
X1205Y837D01*
X1209Y837D02*
X1216Y837D01*
X1Y836D02*
X8Y836D01*
X271Y836D02*
X280Y836D01*
X1196Y836D02*
X1205Y836D01*
X1209Y836D02*
X1216Y836D01*
X1Y835D02*
X8Y835D01*
X271Y835D02*
X280Y835D01*
X1196Y835D02*
X1205Y835D01*
X1209Y835D02*
X1216Y835D01*
X1Y834D02*
X8Y834D01*
X271Y834D02*
X280Y834D01*
X1196Y834D02*
X1205Y834D01*
X1209Y834D02*
X1216Y834D01*
X1Y833D02*
X8Y833D01*
X271Y833D02*
X280Y833D01*
X1196Y833D02*
X1205Y833D01*
X1209Y833D02*
X1216Y833D01*
X1Y832D02*
X8Y832D01*
X271Y832D02*
X280Y832D01*
X1196Y832D02*
X1205Y832D01*
X1209Y832D02*
X1216Y832D01*
X1Y831D02*
X8Y831D01*
X271Y831D02*
X280Y831D01*
X1196Y831D02*
X1205Y831D01*
X1209Y831D02*
X1216Y831D01*
X1Y830D02*
X8Y830D01*
X271Y830D02*
X280Y830D01*
X1196Y830D02*
X1205Y830D01*
X1209Y830D02*
X1216Y830D01*
X1Y829D02*
X8Y829D01*
X271Y829D02*
X280Y829D01*
X1196Y829D02*
X1205Y829D01*
X1209Y829D02*
X1216Y829D01*
X1Y828D02*
X8Y828D01*
X271Y828D02*
X280Y828D01*
X1196Y828D02*
X1205Y828D01*
X1209Y828D02*
X1216Y828D01*
X1Y827D02*
X8Y827D01*
X271Y827D02*
X280Y827D01*
X1196Y827D02*
X1205Y827D01*
X1209Y827D02*
X1216Y827D01*
X1Y826D02*
X8Y826D01*
X271Y826D02*
X280Y826D01*
X1196Y826D02*
X1205Y826D01*
X1209Y826D02*
X1216Y826D01*
X1Y825D02*
X8Y825D01*
X271Y825D02*
X280Y825D01*
X1196Y825D02*
X1205Y825D01*
X1209Y825D02*
X1216Y825D01*
X1Y824D02*
X8Y824D01*
X271Y824D02*
X280Y824D01*
X1196Y824D02*
X1205Y824D01*
X1209Y824D02*
X1216Y824D01*
X1Y823D02*
X8Y823D01*
X271Y823D02*
X280Y823D01*
X1196Y823D02*
X1205Y823D01*
X1209Y823D02*
X1216Y823D01*
X1Y822D02*
X8Y822D01*
X271Y822D02*
X280Y822D01*
X1196Y822D02*
X1205Y822D01*
X1209Y822D02*
X1216Y822D01*
X1Y821D02*
X8Y821D01*
X271Y821D02*
X280Y821D01*
X1196Y821D02*
X1205Y821D01*
X1209Y821D02*
X1216Y821D01*
X1Y820D02*
X8Y820D01*
X271Y820D02*
X280Y820D01*
X1196Y820D02*
X1205Y820D01*
X1209Y820D02*
X1216Y820D01*
X1Y819D02*
X8Y819D01*
X271Y819D02*
X280Y819D01*
X1196Y819D02*
X1205Y819D01*
X1209Y819D02*
X1216Y819D01*
X1Y818D02*
X8Y818D01*
X271Y818D02*
X280Y818D01*
X1196Y818D02*
X1205Y818D01*
X1209Y818D02*
X1216Y818D01*
X1Y817D02*
X8Y817D01*
X271Y817D02*
X280Y817D01*
X1196Y817D02*
X1205Y817D01*
X1209Y817D02*
X1216Y817D01*
X1Y816D02*
X8Y816D01*
X271Y816D02*
X280Y816D01*
X1196Y816D02*
X1205Y816D01*
X1209Y816D02*
X1216Y816D01*
X1Y815D02*
X8Y815D01*
X271Y815D02*
X280Y815D01*
X1196Y815D02*
X1205Y815D01*
X1209Y815D02*
X1216Y815D01*
X1Y814D02*
X8Y814D01*
X271Y814D02*
X280Y814D01*
X1196Y814D02*
X1205Y814D01*
X1209Y814D02*
X1216Y814D01*
X1Y813D02*
X8Y813D01*
X271Y813D02*
X280Y813D01*
X1196Y813D02*
X1205Y813D01*
X1209Y813D02*
X1216Y813D01*
X1Y812D02*
X8Y812D01*
X271Y812D02*
X280Y812D01*
X1196Y812D02*
X1205Y812D01*
X1209Y812D02*
X1216Y812D01*
X1Y811D02*
X8Y811D01*
X271Y811D02*
X280Y811D01*
X1196Y811D02*
X1205Y811D01*
X1209Y811D02*
X1216Y811D01*
X1Y810D02*
X8Y810D01*
X271Y810D02*
X280Y810D01*
X1196Y810D02*
X1205Y810D01*
X1209Y810D02*
X1216Y810D01*
X1Y809D02*
X8Y809D01*
X271Y809D02*
X280Y809D01*
X1196Y809D02*
X1205Y809D01*
X1209Y809D02*
X1216Y809D01*
X1Y808D02*
X8Y808D01*
X271Y808D02*
X280Y808D01*
X1196Y808D02*
X1205Y808D01*
X1209Y808D02*
X1216Y808D01*
X1Y807D02*
X8Y807D01*
X271Y807D02*
X280Y807D01*
X1196Y807D02*
X1205Y807D01*
X1209Y807D02*
X1216Y807D01*
X1Y806D02*
X8Y806D01*
X271Y806D02*
X280Y806D01*
X1196Y806D02*
X1205Y806D01*
X1209Y806D02*
X1216Y806D01*
X1Y805D02*
X8Y805D01*
X271Y805D02*
X280Y805D01*
X1196Y805D02*
X1205Y805D01*
X1209Y805D02*
X1216Y805D01*
X1Y804D02*
X8Y804D01*
X271Y804D02*
X280Y804D01*
X1196Y804D02*
X1205Y804D01*
X1209Y804D02*
X1216Y804D01*
X1Y803D02*
X8Y803D01*
X271Y803D02*
X280Y803D01*
X1006Y803D02*
X1013Y803D01*
X1196Y803D02*
X1205Y803D01*
X1209Y803D02*
X1216Y803D01*
X1Y802D02*
X8Y802D01*
X271Y802D02*
X280Y802D01*
X1005Y802D02*
X1017Y802D01*
X1196Y802D02*
X1205Y802D01*
X1209Y802D02*
X1216Y802D01*
X1Y801D02*
X8Y801D01*
X271Y801D02*
X280Y801D01*
X1005Y801D02*
X1020Y801D01*
X1196Y801D02*
X1205Y801D01*
X1209Y801D02*
X1216Y801D01*
X1Y800D02*
X8Y800D01*
X271Y800D02*
X280Y800D01*
X1005Y800D02*
X1022Y800D01*
X1196Y800D02*
X1205Y800D01*
X1209Y800D02*
X1216Y800D01*
X1Y799D02*
X8Y799D01*
X271Y799D02*
X280Y799D01*
X1004Y799D02*
X1025Y799D01*
X1196Y799D02*
X1205Y799D01*
X1209Y799D02*
X1216Y799D01*
X1Y798D02*
X8Y798D01*
X271Y798D02*
X280Y798D01*
X1004Y798D02*
X1026Y798D01*
X1196Y798D02*
X1205Y798D01*
X1209Y798D02*
X1216Y798D01*
X1Y797D02*
X8Y797D01*
X271Y797D02*
X280Y797D01*
X1003Y797D02*
X1028Y797D01*
X1196Y797D02*
X1205Y797D01*
X1209Y797D02*
X1216Y797D01*
X1Y796D02*
X8Y796D01*
X271Y796D02*
X280Y796D01*
X1003Y796D02*
X1030Y796D01*
X1196Y796D02*
X1205Y796D01*
X1209Y796D02*
X1216Y796D01*
X1Y795D02*
X8Y795D01*
X271Y795D02*
X280Y795D01*
X1004Y795D02*
X1031Y795D01*
X1196Y795D02*
X1205Y795D01*
X1209Y795D02*
X1216Y795D01*
X1Y794D02*
X8Y794D01*
X271Y794D02*
X280Y794D01*
X1006Y794D02*
X1032Y794D01*
X1196Y794D02*
X1205Y794D01*
X1209Y794D02*
X1216Y794D01*
X1Y793D02*
X8Y793D01*
X271Y793D02*
X280Y793D01*
X1014Y793D02*
X1034Y793D01*
X1196Y793D02*
X1205Y793D01*
X1209Y793D02*
X1216Y793D01*
X1Y792D02*
X8Y792D01*
X271Y792D02*
X280Y792D01*
X1017Y792D02*
X1035Y792D01*
X1196Y792D02*
X1205Y792D01*
X1209Y792D02*
X1216Y792D01*
X1Y791D02*
X8Y791D01*
X271Y791D02*
X280Y791D01*
X1020Y791D02*
X1036Y791D01*
X1196Y791D02*
X1205Y791D01*
X1209Y791D02*
X1216Y791D01*
X1Y790D02*
X8Y790D01*
X271Y790D02*
X280Y790D01*
X1022Y790D02*
X1037Y790D01*
X1196Y790D02*
X1205Y790D01*
X1209Y790D02*
X1216Y790D01*
X1Y789D02*
X8Y789D01*
X271Y789D02*
X280Y789D01*
X1024Y789D02*
X1038Y789D01*
X1196Y789D02*
X1205Y789D01*
X1209Y789D02*
X1216Y789D01*
X1Y788D02*
X8Y788D01*
X271Y788D02*
X280Y788D01*
X1025Y788D02*
X1039Y788D01*
X1196Y788D02*
X1205Y788D01*
X1209Y788D02*
X1216Y788D01*
X1Y787D02*
X8Y787D01*
X271Y787D02*
X280Y787D01*
X1026Y787D02*
X1040Y787D01*
X1141Y787D02*
X1150Y787D01*
X1196Y787D02*
X1205Y787D01*
X1209Y787D02*
X1216Y787D01*
X1Y786D02*
X8Y786D01*
X271Y786D02*
X280Y786D01*
X466Y786D02*
X473Y786D01*
X698Y786D02*
X705Y786D01*
X1028Y786D02*
X1041Y786D01*
X1141Y786D02*
X1150Y786D01*
X1196Y786D02*
X1205Y786D01*
X1209Y786D02*
X1216Y786D01*
X1Y785D02*
X8Y785D01*
X271Y785D02*
X280Y785D01*
X338Y785D02*
X347Y785D01*
X466Y785D02*
X473Y785D01*
X582Y785D02*
X591Y785D01*
X698Y785D02*
X705Y785D01*
X810Y785D02*
X819Y785D01*
X1029Y785D02*
X1042Y785D01*
X1141Y785D02*
X1150Y785D01*
X1196Y785D02*
X1205Y785D01*
X1209Y785D02*
X1216Y785D01*
X1Y784D02*
X8Y784D01*
X271Y784D02*
X280Y784D01*
X338Y784D02*
X347Y784D01*
X466Y784D02*
X473Y784D01*
X582Y784D02*
X591Y784D01*
X698Y784D02*
X705Y784D01*
X810Y784D02*
X819Y784D01*
X1030Y784D02*
X1042Y784D01*
X1141Y784D02*
X1150Y784D01*
X1196Y784D02*
X1205Y784D01*
X1209Y784D02*
X1216Y784D01*
X1Y783D02*
X8Y783D01*
X271Y783D02*
X280Y783D01*
X338Y783D02*
X347Y783D01*
X466Y783D02*
X473Y783D01*
X582Y783D02*
X591Y783D01*
X698Y783D02*
X705Y783D01*
X810Y783D02*
X819Y783D01*
X1031Y783D02*
X1043Y783D01*
X1141Y783D02*
X1150Y783D01*
X1196Y783D02*
X1205Y783D01*
X1209Y783D02*
X1216Y783D01*
X1Y782D02*
X8Y782D01*
X271Y782D02*
X280Y782D01*
X338Y782D02*
X347Y782D01*
X466Y782D02*
X473Y782D01*
X582Y782D02*
X591Y782D01*
X698Y782D02*
X705Y782D01*
X810Y782D02*
X819Y782D01*
X1032Y782D02*
X1044Y782D01*
X1141Y782D02*
X1150Y782D01*
X1196Y782D02*
X1205Y782D01*
X1209Y782D02*
X1216Y782D01*
X1Y781D02*
X8Y781D01*
X271Y781D02*
X280Y781D01*
X338Y781D02*
X347Y781D01*
X466Y781D02*
X473Y781D01*
X582Y781D02*
X591Y781D01*
X698Y781D02*
X705Y781D01*
X810Y781D02*
X819Y781D01*
X1033Y781D02*
X1045Y781D01*
X1141Y781D02*
X1150Y781D01*
X1196Y781D02*
X1205Y781D01*
X1209Y781D02*
X1216Y781D01*
X1Y780D02*
X8Y780D01*
X271Y780D02*
X280Y780D01*
X338Y780D02*
X347Y780D01*
X466Y780D02*
X473Y780D01*
X582Y780D02*
X591Y780D01*
X698Y780D02*
X705Y780D01*
X810Y780D02*
X819Y780D01*
X1034Y780D02*
X1045Y780D01*
X1141Y780D02*
X1150Y780D01*
X1196Y780D02*
X1205Y780D01*
X1209Y780D02*
X1216Y780D01*
X1Y779D02*
X8Y779D01*
X271Y779D02*
X280Y779D01*
X338Y779D02*
X347Y779D01*
X466Y779D02*
X473Y779D01*
X582Y779D02*
X591Y779D01*
X698Y779D02*
X705Y779D01*
X810Y779D02*
X819Y779D01*
X1035Y779D02*
X1046Y779D01*
X1141Y779D02*
X1150Y779D01*
X1196Y779D02*
X1205Y779D01*
X1209Y779D02*
X1216Y779D01*
X1Y778D02*
X8Y778D01*
X271Y778D02*
X280Y778D01*
X338Y778D02*
X347Y778D01*
X466Y778D02*
X473Y778D01*
X582Y778D02*
X591Y778D01*
X698Y778D02*
X705Y778D01*
X810Y778D02*
X819Y778D01*
X1036Y778D02*
X1047Y778D01*
X1141Y778D02*
X1150Y778D01*
X1196Y778D02*
X1205Y778D01*
X1209Y778D02*
X1216Y778D01*
X1Y777D02*
X8Y777D01*
X271Y777D02*
X280Y777D01*
X338Y777D02*
X347Y777D01*
X466Y777D02*
X473Y777D01*
X582Y777D02*
X591Y777D01*
X698Y777D02*
X704Y777D01*
X810Y777D02*
X819Y777D01*
X1036Y777D02*
X1048Y777D01*
X1141Y777D02*
X1150Y777D01*
X1196Y777D02*
X1205Y777D01*
X1209Y777D02*
X1216Y777D01*
X1Y776D02*
X8Y776D01*
X271Y776D02*
X280Y776D01*
X338Y776D02*
X347Y776D01*
X467Y776D02*
X472Y776D01*
X582Y776D02*
X591Y776D01*
X698Y776D02*
X704Y776D01*
X810Y776D02*
X819Y776D01*
X1037Y776D02*
X1048Y776D01*
X1141Y776D02*
X1150Y776D01*
X1196Y776D02*
X1205Y776D01*
X1209Y776D02*
X1216Y776D01*
X1Y775D02*
X8Y775D01*
X271Y775D02*
X280Y775D01*
X338Y775D02*
X347Y775D01*
X467Y775D02*
X471Y775D01*
X582Y775D02*
X591Y775D01*
X699Y775D02*
X703Y775D01*
X810Y775D02*
X819Y775D01*
X1038Y775D02*
X1049Y775D01*
X1141Y775D02*
X1150Y775D01*
X1196Y775D02*
X1205Y775D01*
X1209Y775D02*
X1216Y775D01*
X1Y774D02*
X8Y774D01*
X271Y774D02*
X280Y774D01*
X338Y774D02*
X347Y774D01*
X582Y774D02*
X591Y774D01*
X810Y774D02*
X819Y774D01*
X1038Y774D02*
X1049Y774D01*
X1141Y774D02*
X1150Y774D01*
X1196Y774D02*
X1205Y774D01*
X1209Y774D02*
X1216Y774D01*
X1Y773D02*
X8Y773D01*
X271Y773D02*
X280Y773D01*
X338Y773D02*
X347Y773D01*
X582Y773D02*
X591Y773D01*
X810Y773D02*
X819Y773D01*
X1039Y773D02*
X1050Y773D01*
X1141Y773D02*
X1150Y773D01*
X1196Y773D02*
X1205Y773D01*
X1209Y773D02*
X1216Y773D01*
X1Y772D02*
X8Y772D01*
X271Y772D02*
X280Y772D01*
X338Y772D02*
X347Y772D01*
X582Y772D02*
X591Y772D01*
X810Y772D02*
X819Y772D01*
X1040Y772D02*
X1050Y772D01*
X1141Y772D02*
X1150Y772D01*
X1196Y772D02*
X1205Y772D01*
X1209Y772D02*
X1216Y772D01*
X1Y771D02*
X8Y771D01*
X271Y771D02*
X280Y771D01*
X338Y771D02*
X347Y771D01*
X582Y771D02*
X591Y771D01*
X810Y771D02*
X819Y771D01*
X1040Y771D02*
X1051Y771D01*
X1141Y771D02*
X1150Y771D01*
X1196Y771D02*
X1205Y771D01*
X1209Y771D02*
X1216Y771D01*
X1Y770D02*
X8Y770D01*
X271Y770D02*
X280Y770D01*
X338Y770D02*
X347Y770D01*
X582Y770D02*
X591Y770D01*
X810Y770D02*
X819Y770D01*
X1041Y770D02*
X1052Y770D01*
X1141Y770D02*
X1150Y770D01*
X1196Y770D02*
X1205Y770D01*
X1209Y770D02*
X1216Y770D01*
X1Y769D02*
X8Y769D01*
X271Y769D02*
X280Y769D01*
X338Y769D02*
X347Y769D01*
X582Y769D02*
X591Y769D01*
X810Y769D02*
X819Y769D01*
X1042Y769D02*
X1052Y769D01*
X1141Y769D02*
X1150Y769D01*
X1196Y769D02*
X1205Y769D01*
X1209Y769D02*
X1216Y769D01*
X1Y768D02*
X8Y768D01*
X271Y768D02*
X280Y768D01*
X338Y768D02*
X347Y768D01*
X582Y768D02*
X591Y768D01*
X810Y768D02*
X819Y768D01*
X1042Y768D02*
X1052Y768D01*
X1141Y768D02*
X1150Y768D01*
X1196Y768D02*
X1205Y768D01*
X1209Y768D02*
X1216Y768D01*
X1Y767D02*
X8Y767D01*
X271Y767D02*
X280Y767D01*
X338Y767D02*
X347Y767D01*
X582Y767D02*
X591Y767D01*
X810Y767D02*
X819Y767D01*
X1043Y767D02*
X1053Y767D01*
X1141Y767D02*
X1150Y767D01*
X1196Y767D02*
X1205Y767D01*
X1209Y767D02*
X1216Y767D01*
X1Y766D02*
X8Y766D01*
X271Y766D02*
X280Y766D01*
X338Y766D02*
X347Y766D01*
X582Y766D02*
X591Y766D01*
X810Y766D02*
X819Y766D01*
X1043Y766D02*
X1053Y766D01*
X1141Y766D02*
X1150Y766D01*
X1196Y766D02*
X1205Y766D01*
X1209Y766D02*
X1216Y766D01*
X1Y765D02*
X8Y765D01*
X271Y765D02*
X280Y765D01*
X338Y765D02*
X347Y765D01*
X582Y765D02*
X591Y765D01*
X810Y765D02*
X819Y765D01*
X1044Y765D02*
X1054Y765D01*
X1141Y765D02*
X1150Y765D01*
X1196Y765D02*
X1205Y765D01*
X1209Y765D02*
X1216Y765D01*
X1Y764D02*
X8Y764D01*
X271Y764D02*
X280Y764D01*
X338Y764D02*
X347Y764D01*
X582Y764D02*
X591Y764D01*
X810Y764D02*
X819Y764D01*
X1044Y764D02*
X1054Y764D01*
X1141Y764D02*
X1150Y764D01*
X1196Y764D02*
X1205Y764D01*
X1209Y764D02*
X1216Y764D01*
X1Y763D02*
X8Y763D01*
X271Y763D02*
X280Y763D01*
X338Y763D02*
X347Y763D01*
X582Y763D02*
X591Y763D01*
X810Y763D02*
X819Y763D01*
X1045Y763D02*
X1055Y763D01*
X1141Y763D02*
X1150Y763D01*
X1196Y763D02*
X1205Y763D01*
X1209Y763D02*
X1216Y763D01*
X1Y762D02*
X8Y762D01*
X271Y762D02*
X280Y762D01*
X338Y762D02*
X347Y762D01*
X582Y762D02*
X591Y762D01*
X810Y762D02*
X819Y762D01*
X1045Y762D02*
X1055Y762D01*
X1141Y762D02*
X1150Y762D01*
X1196Y762D02*
X1205Y762D01*
X1209Y762D02*
X1216Y762D01*
X1Y761D02*
X8Y761D01*
X271Y761D02*
X280Y761D01*
X338Y761D02*
X347Y761D01*
X582Y761D02*
X591Y761D01*
X810Y761D02*
X819Y761D01*
X1046Y761D02*
X1055Y761D01*
X1141Y761D02*
X1150Y761D01*
X1196Y761D02*
X1205Y761D01*
X1209Y761D02*
X1216Y761D01*
X1Y760D02*
X8Y760D01*
X271Y760D02*
X280Y760D01*
X338Y760D02*
X347Y760D01*
X582Y760D02*
X591Y760D01*
X810Y760D02*
X819Y760D01*
X1046Y760D02*
X1056Y760D01*
X1141Y760D02*
X1150Y760D01*
X1196Y760D02*
X1205Y760D01*
X1209Y760D02*
X1216Y760D01*
X1Y759D02*
X8Y759D01*
X271Y759D02*
X280Y759D01*
X338Y759D02*
X347Y759D01*
X582Y759D02*
X591Y759D01*
X810Y759D02*
X819Y759D01*
X1047Y759D02*
X1056Y759D01*
X1141Y759D02*
X1150Y759D01*
X1196Y759D02*
X1205Y759D01*
X1209Y759D02*
X1216Y759D01*
X1Y758D02*
X8Y758D01*
X271Y758D02*
X280Y758D01*
X338Y758D02*
X347Y758D01*
X582Y758D02*
X591Y758D01*
X810Y758D02*
X819Y758D01*
X1047Y758D02*
X1057Y758D01*
X1141Y758D02*
X1150Y758D01*
X1196Y758D02*
X1205Y758D01*
X1209Y758D02*
X1216Y758D01*
X1Y757D02*
X8Y757D01*
X271Y757D02*
X280Y757D01*
X338Y757D02*
X347Y757D01*
X582Y757D02*
X591Y757D01*
X810Y757D02*
X819Y757D01*
X1047Y757D02*
X1057Y757D01*
X1141Y757D02*
X1150Y757D01*
X1196Y757D02*
X1205Y757D01*
X1209Y757D02*
X1216Y757D01*
X1Y756D02*
X8Y756D01*
X271Y756D02*
X280Y756D01*
X338Y756D02*
X347Y756D01*
X582Y756D02*
X591Y756D01*
X810Y756D02*
X819Y756D01*
X1048Y756D02*
X1057Y756D01*
X1141Y756D02*
X1150Y756D01*
X1196Y756D02*
X1205Y756D01*
X1209Y756D02*
X1216Y756D01*
X1Y755D02*
X8Y755D01*
X271Y755D02*
X280Y755D01*
X338Y755D02*
X347Y755D01*
X582Y755D02*
X591Y755D01*
X810Y755D02*
X819Y755D01*
X1048Y755D02*
X1058Y755D01*
X1141Y755D02*
X1150Y755D01*
X1196Y755D02*
X1205Y755D01*
X1209Y755D02*
X1216Y755D01*
X1Y754D02*
X8Y754D01*
X271Y754D02*
X280Y754D01*
X338Y754D02*
X347Y754D01*
X582Y754D02*
X591Y754D01*
X810Y754D02*
X819Y754D01*
X1049Y754D02*
X1058Y754D01*
X1141Y754D02*
X1150Y754D01*
X1196Y754D02*
X1205Y754D01*
X1209Y754D02*
X1216Y754D01*
X1Y753D02*
X8Y753D01*
X271Y753D02*
X280Y753D01*
X338Y753D02*
X347Y753D01*
X582Y753D02*
X591Y753D01*
X810Y753D02*
X819Y753D01*
X1049Y753D02*
X1058Y753D01*
X1141Y753D02*
X1150Y753D01*
X1196Y753D02*
X1205Y753D01*
X1209Y753D02*
X1216Y753D01*
X1Y752D02*
X8Y752D01*
X271Y752D02*
X280Y752D01*
X338Y752D02*
X347Y752D01*
X582Y752D02*
X591Y752D01*
X810Y752D02*
X819Y752D01*
X1049Y752D02*
X1059Y752D01*
X1141Y752D02*
X1150Y752D01*
X1196Y752D02*
X1205Y752D01*
X1209Y752D02*
X1216Y752D01*
X1Y751D02*
X8Y751D01*
X271Y751D02*
X280Y751D01*
X338Y751D02*
X347Y751D01*
X582Y751D02*
X591Y751D01*
X810Y751D02*
X819Y751D01*
X1050Y751D02*
X1059Y751D01*
X1141Y751D02*
X1150Y751D01*
X1196Y751D02*
X1205Y751D01*
X1209Y751D02*
X1216Y751D01*
X1Y750D02*
X8Y750D01*
X271Y750D02*
X280Y750D01*
X338Y750D02*
X347Y750D01*
X582Y750D02*
X591Y750D01*
X810Y750D02*
X819Y750D01*
X1050Y750D02*
X1059Y750D01*
X1141Y750D02*
X1150Y750D01*
X1196Y750D02*
X1205Y750D01*
X1209Y750D02*
X1216Y750D01*
X1Y749D02*
X8Y749D01*
X271Y749D02*
X280Y749D01*
X338Y749D02*
X347Y749D01*
X582Y749D02*
X591Y749D01*
X810Y749D02*
X819Y749D01*
X1050Y749D02*
X1059Y749D01*
X1141Y749D02*
X1150Y749D01*
X1196Y749D02*
X1205Y749D01*
X1209Y749D02*
X1216Y749D01*
X1Y748D02*
X8Y748D01*
X271Y748D02*
X280Y748D01*
X338Y748D02*
X347Y748D01*
X582Y748D02*
X591Y748D01*
X810Y748D02*
X819Y748D01*
X1050Y748D02*
X1060Y748D01*
X1141Y748D02*
X1150Y748D01*
X1196Y748D02*
X1205Y748D01*
X1209Y748D02*
X1216Y748D01*
X1Y747D02*
X8Y747D01*
X271Y747D02*
X280Y747D01*
X338Y747D02*
X347Y747D01*
X582Y747D02*
X591Y747D01*
X810Y747D02*
X819Y747D01*
X1051Y747D02*
X1060Y747D01*
X1141Y747D02*
X1150Y747D01*
X1196Y747D02*
X1205Y747D01*
X1209Y747D02*
X1216Y747D01*
X1Y746D02*
X8Y746D01*
X271Y746D02*
X280Y746D01*
X338Y746D02*
X347Y746D01*
X582Y746D02*
X591Y746D01*
X810Y746D02*
X819Y746D01*
X1051Y746D02*
X1060Y746D01*
X1141Y746D02*
X1150Y746D01*
X1196Y746D02*
X1205Y746D01*
X1209Y746D02*
X1216Y746D01*
X1Y745D02*
X8Y745D01*
X271Y745D02*
X280Y745D01*
X338Y745D02*
X347Y745D01*
X582Y745D02*
X591Y745D01*
X810Y745D02*
X819Y745D01*
X1051Y745D02*
X1060Y745D01*
X1141Y745D02*
X1150Y745D01*
X1196Y745D02*
X1205Y745D01*
X1209Y745D02*
X1216Y745D01*
X1Y744D02*
X8Y744D01*
X271Y744D02*
X280Y744D01*
X338Y744D02*
X347Y744D01*
X582Y744D02*
X591Y744D01*
X810Y744D02*
X819Y744D01*
X1051Y744D02*
X1061Y744D01*
X1141Y744D02*
X1150Y744D01*
X1196Y744D02*
X1205Y744D01*
X1209Y744D02*
X1216Y744D01*
X1Y743D02*
X8Y743D01*
X271Y743D02*
X280Y743D01*
X338Y743D02*
X347Y743D01*
X582Y743D02*
X591Y743D01*
X810Y743D02*
X819Y743D01*
X1052Y743D02*
X1061Y743D01*
X1141Y743D02*
X1150Y743D01*
X1196Y743D02*
X1205Y743D01*
X1209Y743D02*
X1216Y743D01*
X1Y742D02*
X8Y742D01*
X271Y742D02*
X280Y742D01*
X338Y742D02*
X347Y742D01*
X582Y742D02*
X591Y742D01*
X810Y742D02*
X819Y742D01*
X1052Y742D02*
X1061Y742D01*
X1141Y742D02*
X1150Y742D01*
X1196Y742D02*
X1218Y742D01*
X1Y741D02*
X8Y741D01*
X271Y741D02*
X280Y741D01*
X338Y741D02*
X347Y741D01*
X582Y741D02*
X591Y741D01*
X810Y741D02*
X819Y741D01*
X1052Y741D02*
X1061Y741D01*
X1141Y741D02*
X1150Y741D01*
X1196Y741D02*
X1218Y741D01*
X1Y740D02*
X8Y740D01*
X271Y740D02*
X280Y740D01*
X338Y740D02*
X347Y740D01*
X582Y740D02*
X591Y740D01*
X810Y740D02*
X819Y740D01*
X1052Y740D02*
X1062Y740D01*
X1141Y740D02*
X1150Y740D01*
X1196Y740D02*
X1218Y740D01*
X1Y739D02*
X8Y739D01*
X271Y739D02*
X280Y739D01*
X338Y739D02*
X347Y739D01*
X582Y739D02*
X591Y739D01*
X810Y739D02*
X819Y739D01*
X1053Y739D02*
X1062Y739D01*
X1141Y739D02*
X1150Y739D01*
X1196Y739D02*
X1218Y739D01*
X1Y738D02*
X8Y738D01*
X271Y738D02*
X280Y738D01*
X338Y738D02*
X347Y738D01*
X582Y738D02*
X591Y738D01*
X810Y738D02*
X819Y738D01*
X1053Y738D02*
X1062Y738D01*
X1141Y738D02*
X1150Y738D01*
X1196Y738D02*
X1218Y738D01*
X1Y737D02*
X8Y737D01*
X271Y737D02*
X280Y737D01*
X338Y737D02*
X347Y737D01*
X810Y737D02*
X819Y737D01*
X1053Y737D02*
X1062Y737D01*
X1141Y737D02*
X1150Y737D01*
X1196Y737D02*
X1218Y737D01*
X1Y736D02*
X8Y736D01*
X271Y736D02*
X280Y736D01*
X338Y736D02*
X347Y736D01*
X810Y736D02*
X819Y736D01*
X1053Y736D02*
X1062Y736D01*
X1141Y736D02*
X1150Y736D01*
X1196Y736D02*
X1218Y736D01*
X1Y735D02*
X8Y735D01*
X271Y735D02*
X280Y735D01*
X338Y735D02*
X347Y735D01*
X810Y735D02*
X819Y735D01*
X1053Y735D02*
X1062Y735D01*
X1141Y735D02*
X1150Y735D01*
X1196Y735D02*
X1218Y735D01*
X1Y734D02*
X8Y734D01*
X271Y734D02*
X280Y734D01*
X338Y734D02*
X347Y734D01*
X810Y734D02*
X819Y734D01*
X1053Y734D02*
X1063Y734D01*
X1141Y734D02*
X1150Y734D01*
X1196Y734D02*
X1218Y734D01*
X1Y733D02*
X8Y733D01*
X271Y733D02*
X280Y733D01*
X338Y733D02*
X347Y733D01*
X810Y733D02*
X819Y733D01*
X1054Y733D02*
X1063Y733D01*
X1141Y733D02*
X1150Y733D01*
X1196Y733D02*
X1218Y733D01*
X1Y732D02*
X8Y732D01*
X271Y732D02*
X280Y732D01*
X338Y732D02*
X347Y732D01*
X810Y732D02*
X819Y732D01*
X1054Y732D02*
X1063Y732D01*
X1141Y732D02*
X1150Y732D01*
X1196Y732D02*
X1206Y732D01*
X1209Y732D02*
X1216Y732D01*
X1Y731D02*
X8Y731D01*
X271Y731D02*
X280Y731D01*
X338Y731D02*
X347Y731D01*
X810Y731D02*
X819Y731D01*
X1054Y731D02*
X1063Y731D01*
X1141Y731D02*
X1150Y731D01*
X1196Y731D02*
X1206Y731D01*
X1209Y731D02*
X1216Y731D01*
X1Y730D02*
X8Y730D01*
X271Y730D02*
X280Y730D01*
X338Y730D02*
X347Y730D01*
X810Y730D02*
X819Y730D01*
X1054Y730D02*
X1063Y730D01*
X1141Y730D02*
X1150Y730D01*
X1196Y730D02*
X1206Y730D01*
X1209Y730D02*
X1216Y730D01*
X1Y729D02*
X8Y729D01*
X271Y729D02*
X280Y729D01*
X338Y729D02*
X347Y729D01*
X810Y729D02*
X819Y729D01*
X1054Y729D02*
X1063Y729D01*
X1141Y729D02*
X1150Y729D01*
X1196Y729D02*
X1206Y729D01*
X1209Y729D02*
X1216Y729D01*
X1Y728D02*
X8Y728D01*
X271Y728D02*
X280Y728D01*
X338Y728D02*
X347Y728D01*
X810Y728D02*
X819Y728D01*
X1054Y728D02*
X1063Y728D01*
X1141Y728D02*
X1150Y728D01*
X1196Y728D02*
X1206Y728D01*
X1209Y728D02*
X1216Y728D01*
X1Y727D02*
X8Y727D01*
X271Y727D02*
X280Y727D01*
X338Y727D02*
X347Y727D01*
X810Y727D02*
X819Y727D01*
X1054Y727D02*
X1063Y727D01*
X1141Y727D02*
X1150Y727D01*
X1196Y727D02*
X1206Y727D01*
X1209Y727D02*
X1216Y727D01*
X1Y726D02*
X8Y726D01*
X271Y726D02*
X280Y726D01*
X338Y726D02*
X347Y726D01*
X810Y726D02*
X819Y726D01*
X1054Y726D02*
X1063Y726D01*
X1141Y726D02*
X1150Y726D01*
X1196Y726D02*
X1206Y726D01*
X1209Y726D02*
X1216Y726D01*
X1Y725D02*
X8Y725D01*
X271Y725D02*
X280Y725D01*
X338Y725D02*
X347Y725D01*
X810Y725D02*
X819Y725D01*
X1055Y725D02*
X1064Y725D01*
X1141Y725D02*
X1150Y725D01*
X1196Y725D02*
X1206Y725D01*
X1209Y725D02*
X1216Y725D01*
X1Y724D02*
X8Y724D01*
X271Y724D02*
X280Y724D01*
X338Y724D02*
X347Y724D01*
X810Y724D02*
X819Y724D01*
X1055Y724D02*
X1064Y724D01*
X1141Y724D02*
X1150Y724D01*
X1196Y724D02*
X1206Y724D01*
X1209Y724D02*
X1216Y724D01*
X1Y723D02*
X8Y723D01*
X271Y723D02*
X280Y723D01*
X338Y723D02*
X347Y723D01*
X810Y723D02*
X819Y723D01*
X1055Y723D02*
X1064Y723D01*
X1141Y723D02*
X1150Y723D01*
X1196Y723D02*
X1206Y723D01*
X1209Y723D02*
X1216Y723D01*
X1Y722D02*
X8Y722D01*
X271Y722D02*
X280Y722D01*
X338Y722D02*
X347Y722D01*
X810Y722D02*
X819Y722D01*
X1055Y722D02*
X1064Y722D01*
X1141Y722D02*
X1150Y722D01*
X1196Y722D02*
X1206Y722D01*
X1209Y722D02*
X1216Y722D01*
X1Y721D02*
X8Y721D01*
X271Y721D02*
X280Y721D01*
X338Y721D02*
X347Y721D01*
X810Y721D02*
X819Y721D01*
X1055Y721D02*
X1064Y721D01*
X1141Y721D02*
X1150Y721D01*
X1196Y721D02*
X1206Y721D01*
X1209Y721D02*
X1216Y721D01*
X1Y720D02*
X8Y720D01*
X271Y720D02*
X280Y720D01*
X338Y720D02*
X347Y720D01*
X810Y720D02*
X819Y720D01*
X1055Y720D02*
X1064Y720D01*
X1196Y720D02*
X1206Y720D01*
X1209Y720D02*
X1216Y720D01*
X1Y719D02*
X8Y719D01*
X271Y719D02*
X280Y719D01*
X338Y719D02*
X347Y719D01*
X810Y719D02*
X819Y719D01*
X1055Y719D02*
X1064Y719D01*
X1196Y719D02*
X1206Y719D01*
X1209Y719D02*
X1216Y719D01*
X1Y718D02*
X8Y718D01*
X271Y718D02*
X280Y718D01*
X1055Y718D02*
X1064Y718D01*
X1196Y718D02*
X1206Y718D01*
X1209Y718D02*
X1216Y718D01*
X1Y717D02*
X8Y717D01*
X271Y717D02*
X280Y717D01*
X1055Y717D02*
X1064Y717D01*
X1196Y717D02*
X1206Y717D01*
X1209Y717D02*
X1216Y717D01*
X1Y716D02*
X8Y716D01*
X271Y716D02*
X280Y716D01*
X1055Y716D02*
X1064Y716D01*
X1196Y716D02*
X1206Y716D01*
X1209Y716D02*
X1216Y716D01*
X1Y715D02*
X8Y715D01*
X271Y715D02*
X280Y715D01*
X1055Y715D02*
X1064Y715D01*
X1196Y715D02*
X1206Y715D01*
X1209Y715D02*
X1216Y715D01*
X1Y714D02*
X8Y714D01*
X271Y714D02*
X280Y714D01*
X1055Y714D02*
X1064Y714D01*
X1196Y714D02*
X1206Y714D01*
X1209Y714D02*
X1216Y714D01*
X1Y713D02*
X8Y713D01*
X271Y713D02*
X280Y713D01*
X1055Y713D02*
X1064Y713D01*
X1196Y713D02*
X1206Y713D01*
X1209Y713D02*
X1216Y713D01*
X1Y712D02*
X8Y712D01*
X271Y712D02*
X280Y712D01*
X1055Y712D02*
X1064Y712D01*
X1196Y712D02*
X1206Y712D01*
X1209Y712D02*
X1216Y712D01*
X1Y711D02*
X8Y711D01*
X271Y711D02*
X280Y711D01*
X1055Y711D02*
X1064Y711D01*
X1196Y711D02*
X1206Y711D01*
X1209Y711D02*
X1216Y711D01*
X1Y710D02*
X8Y710D01*
X271Y710D02*
X280Y710D01*
X1055Y710D02*
X1064Y710D01*
X1196Y710D02*
X1206Y710D01*
X1209Y710D02*
X1216Y710D01*
X1Y709D02*
X8Y709D01*
X271Y709D02*
X280Y709D01*
X1055Y709D02*
X1064Y709D01*
X1196Y709D02*
X1206Y709D01*
X1209Y709D02*
X1216Y709D01*
X1Y708D02*
X8Y708D01*
X271Y708D02*
X280Y708D01*
X1055Y708D02*
X1064Y708D01*
X1196Y708D02*
X1206Y708D01*
X1209Y708D02*
X1216Y708D01*
X1Y707D02*
X8Y707D01*
X271Y707D02*
X280Y707D01*
X1055Y707D02*
X1064Y707D01*
X1196Y707D02*
X1206Y707D01*
X1209Y707D02*
X1216Y707D01*
X1Y706D02*
X8Y706D01*
X271Y706D02*
X280Y706D01*
X1055Y706D02*
X1064Y706D01*
X1196Y706D02*
X1206Y706D01*
X1209Y706D02*
X1216Y706D01*
X1Y705D02*
X8Y705D01*
X271Y705D02*
X280Y705D01*
X1055Y705D02*
X1064Y705D01*
X1196Y705D02*
X1206Y705D01*
X1209Y705D02*
X1216Y705D01*
X1Y704D02*
X8Y704D01*
X271Y704D02*
X280Y704D01*
X1055Y704D02*
X1064Y704D01*
X1196Y704D02*
X1206Y704D01*
X1209Y704D02*
X1216Y704D01*
X1Y703D02*
X8Y703D01*
X271Y703D02*
X280Y703D01*
X1055Y703D02*
X1064Y703D01*
X1196Y703D02*
X1206Y703D01*
X1209Y703D02*
X1216Y703D01*
X1Y702D02*
X8Y702D01*
X271Y702D02*
X280Y702D01*
X1054Y702D02*
X1063Y702D01*
X1196Y702D02*
X1206Y702D01*
X1209Y702D02*
X1216Y702D01*
X1Y701D02*
X8Y701D01*
X271Y701D02*
X280Y701D01*
X1054Y701D02*
X1063Y701D01*
X1196Y701D02*
X1206Y701D01*
X1209Y701D02*
X1216Y701D01*
X1Y700D02*
X8Y700D01*
X271Y700D02*
X280Y700D01*
X1054Y700D02*
X1063Y700D01*
X1196Y700D02*
X1206Y700D01*
X1209Y700D02*
X1216Y700D01*
X1Y699D02*
X8Y699D01*
X271Y699D02*
X280Y699D01*
X1054Y699D02*
X1063Y699D01*
X1196Y699D02*
X1206Y699D01*
X1209Y699D02*
X1216Y699D01*
X1Y698D02*
X8Y698D01*
X271Y698D02*
X280Y698D01*
X1054Y698D02*
X1063Y698D01*
X1196Y698D02*
X1206Y698D01*
X1209Y698D02*
X1216Y698D01*
X1Y697D02*
X8Y697D01*
X271Y697D02*
X280Y697D01*
X1054Y697D02*
X1063Y697D01*
X1196Y697D02*
X1206Y697D01*
X1209Y697D02*
X1216Y697D01*
X1Y696D02*
X8Y696D01*
X271Y696D02*
X280Y696D01*
X1054Y696D02*
X1063Y696D01*
X1196Y696D02*
X1206Y696D01*
X1209Y696D02*
X1216Y696D01*
X1Y695D02*
X8Y695D01*
X271Y695D02*
X280Y695D01*
X1054Y695D02*
X1063Y695D01*
X1196Y695D02*
X1206Y695D01*
X1209Y695D02*
X1216Y695D01*
X1Y694D02*
X8Y694D01*
X271Y694D02*
X280Y694D01*
X1053Y694D02*
X1063Y694D01*
X1196Y694D02*
X1206Y694D01*
X1209Y694D02*
X1216Y694D01*
X1Y693D02*
X8Y693D01*
X271Y693D02*
X280Y693D01*
X1053Y693D02*
X1062Y693D01*
X1196Y693D02*
X1206Y693D01*
X1209Y693D02*
X1216Y693D01*
X1Y692D02*
X8Y692D01*
X271Y692D02*
X280Y692D01*
X1053Y692D02*
X1062Y692D01*
X1196Y692D02*
X1206Y692D01*
X1209Y692D02*
X1216Y692D01*
X1Y691D02*
X8Y691D01*
X271Y691D02*
X280Y691D01*
X1053Y691D02*
X1062Y691D01*
X1196Y691D02*
X1206Y691D01*
X1209Y691D02*
X1216Y691D01*
X1Y690D02*
X8Y690D01*
X271Y690D02*
X280Y690D01*
X1053Y690D02*
X1062Y690D01*
X1196Y690D02*
X1206Y690D01*
X1209Y690D02*
X1216Y690D01*
X1Y689D02*
X8Y689D01*
X271Y689D02*
X280Y689D01*
X1053Y689D02*
X1062Y689D01*
X1196Y689D02*
X1206Y689D01*
X1209Y689D02*
X1216Y689D01*
X1Y688D02*
X8Y688D01*
X271Y688D02*
X280Y688D01*
X1052Y688D02*
X1062Y688D01*
X1196Y688D02*
X1206Y688D01*
X1209Y688D02*
X1216Y688D01*
X1Y687D02*
X8Y687D01*
X271Y687D02*
X280Y687D01*
X1052Y687D02*
X1061Y687D01*
X1196Y687D02*
X1206Y687D01*
X1209Y687D02*
X1216Y687D01*
X1Y686D02*
X8Y686D01*
X271Y686D02*
X280Y686D01*
X1052Y686D02*
X1061Y686D01*
X1196Y686D02*
X1206Y686D01*
X1209Y686D02*
X1216Y686D01*
X1Y685D02*
X8Y685D01*
X271Y685D02*
X280Y685D01*
X1052Y685D02*
X1061Y685D01*
X1196Y685D02*
X1206Y685D01*
X1209Y685D02*
X1216Y685D01*
X1Y684D02*
X8Y684D01*
X271Y684D02*
X280Y684D01*
X1052Y684D02*
X1061Y684D01*
X1196Y684D02*
X1206Y684D01*
X1209Y684D02*
X1216Y684D01*
X1Y683D02*
X8Y683D01*
X271Y683D02*
X280Y683D01*
X1051Y683D02*
X1060Y683D01*
X1196Y683D02*
X1206Y683D01*
X1209Y683D02*
X1216Y683D01*
X1Y682D02*
X8Y682D01*
X271Y682D02*
X280Y682D01*
X1051Y682D02*
X1060Y682D01*
X1196Y682D02*
X1206Y682D01*
X1209Y682D02*
X1216Y682D01*
X1Y681D02*
X8Y681D01*
X271Y681D02*
X280Y681D01*
X1051Y681D02*
X1060Y681D01*
X1196Y681D02*
X1206Y681D01*
X1209Y681D02*
X1216Y681D01*
X1Y680D02*
X8Y680D01*
X271Y680D02*
X280Y680D01*
X1050Y680D02*
X1060Y680D01*
X1196Y680D02*
X1206Y680D01*
X1209Y680D02*
X1216Y680D01*
X1Y679D02*
X8Y679D01*
X271Y679D02*
X280Y679D01*
X1050Y679D02*
X1059Y679D01*
X1196Y679D02*
X1206Y679D01*
X1209Y679D02*
X1216Y679D01*
X1Y678D02*
X8Y678D01*
X271Y678D02*
X280Y678D01*
X1050Y678D02*
X1059Y678D01*
X1196Y678D02*
X1206Y678D01*
X1209Y678D02*
X1216Y678D01*
X1Y677D02*
X8Y677D01*
X271Y677D02*
X280Y677D01*
X1050Y677D02*
X1059Y677D01*
X1196Y677D02*
X1206Y677D01*
X1209Y677D02*
X1216Y677D01*
X1Y676D02*
X8Y676D01*
X271Y676D02*
X280Y676D01*
X1049Y676D02*
X1059Y676D01*
X1196Y676D02*
X1206Y676D01*
X1209Y676D02*
X1216Y676D01*
X1Y675D02*
X8Y675D01*
X271Y675D02*
X280Y675D01*
X1049Y675D02*
X1058Y675D01*
X1196Y675D02*
X1206Y675D01*
X1209Y675D02*
X1216Y675D01*
X1Y674D02*
X8Y674D01*
X271Y674D02*
X280Y674D01*
X1049Y674D02*
X1058Y674D01*
X1196Y674D02*
X1206Y674D01*
X1209Y674D02*
X1216Y674D01*
X1Y673D02*
X8Y673D01*
X271Y673D02*
X280Y673D01*
X568Y673D02*
X571Y673D01*
X597Y673D02*
X599Y673D01*
X1048Y673D02*
X1058Y673D01*
X1196Y673D02*
X1206Y673D01*
X1209Y673D02*
X1216Y673D01*
X1Y672D02*
X8Y672D01*
X271Y672D02*
X280Y672D01*
X568Y672D02*
X571Y672D01*
X596Y672D02*
X599Y672D01*
X1048Y672D02*
X1057Y672D01*
X1196Y672D02*
X1206Y672D01*
X1209Y672D02*
X1216Y672D01*
X1Y671D02*
X8Y671D01*
X271Y671D02*
X280Y671D01*
X568Y671D02*
X571Y671D01*
X596Y671D02*
X599Y671D01*
X1047Y671D02*
X1057Y671D01*
X1196Y671D02*
X1206Y671D01*
X1209Y671D02*
X1216Y671D01*
X1Y670D02*
X8Y670D01*
X271Y670D02*
X280Y670D01*
X568Y670D02*
X571Y670D01*
X596Y670D02*
X599Y670D01*
X1047Y670D02*
X1057Y670D01*
X1196Y670D02*
X1206Y670D01*
X1209Y670D02*
X1216Y670D01*
X1Y669D02*
X8Y669D01*
X271Y669D02*
X280Y669D01*
X568Y669D02*
X571Y669D01*
X596Y669D02*
X599Y669D01*
X1047Y669D02*
X1056Y669D01*
X1196Y669D02*
X1206Y669D01*
X1209Y669D02*
X1216Y669D01*
X1Y668D02*
X8Y668D01*
X271Y668D02*
X280Y668D01*
X568Y668D02*
X571Y668D01*
X596Y668D02*
X599Y668D01*
X1046Y668D02*
X1056Y668D01*
X1196Y668D02*
X1206Y668D01*
X1209Y668D02*
X1216Y668D01*
X1Y667D02*
X8Y667D01*
X271Y667D02*
X280Y667D01*
X568Y667D02*
X571Y667D01*
X596Y667D02*
X599Y667D01*
X1046Y667D02*
X1056Y667D01*
X1196Y667D02*
X1206Y667D01*
X1209Y667D02*
X1216Y667D01*
X1Y666D02*
X8Y666D01*
X271Y666D02*
X280Y666D01*
X568Y666D02*
X571Y666D01*
X596Y666D02*
X599Y666D01*
X1045Y666D02*
X1055Y666D01*
X1196Y666D02*
X1206Y666D01*
X1209Y666D02*
X1216Y666D01*
X1Y665D02*
X8Y665D01*
X271Y665D02*
X280Y665D01*
X568Y665D02*
X599Y665D01*
X1045Y665D02*
X1055Y665D01*
X1196Y665D02*
X1206Y665D01*
X1209Y665D02*
X1216Y665D01*
X1Y664D02*
X8Y664D01*
X271Y664D02*
X280Y664D01*
X568Y664D02*
X599Y664D01*
X1044Y664D02*
X1054Y664D01*
X1196Y664D02*
X1206Y664D01*
X1209Y664D02*
X1216Y664D01*
X1Y663D02*
X8Y663D01*
X271Y663D02*
X280Y663D01*
X568Y663D02*
X599Y663D01*
X1044Y663D02*
X1054Y663D01*
X1196Y663D02*
X1206Y663D01*
X1209Y663D02*
X1216Y663D01*
X1Y662D02*
X8Y662D01*
X271Y662D02*
X280Y662D01*
X568Y662D02*
X599Y662D01*
X1043Y662D02*
X1053Y662D01*
X1196Y662D02*
X1206Y662D01*
X1209Y662D02*
X1216Y662D01*
X1Y661D02*
X8Y661D01*
X271Y661D02*
X280Y661D01*
X568Y661D02*
X571Y661D01*
X1043Y661D02*
X1053Y661D01*
X1196Y661D02*
X1206Y661D01*
X1209Y661D02*
X1216Y661D01*
X1Y660D02*
X8Y660D01*
X271Y660D02*
X280Y660D01*
X568Y660D02*
X571Y660D01*
X1042Y660D02*
X1053Y660D01*
X1196Y660D02*
X1206Y660D01*
X1209Y660D02*
X1216Y660D01*
X1Y659D02*
X8Y659D01*
X271Y659D02*
X280Y659D01*
X568Y659D02*
X571Y659D01*
X1042Y659D02*
X1052Y659D01*
X1196Y659D02*
X1206Y659D01*
X1209Y659D02*
X1216Y659D01*
X1Y658D02*
X8Y658D01*
X271Y658D02*
X280Y658D01*
X568Y658D02*
X571Y658D01*
X1041Y658D02*
X1052Y658D01*
X1196Y658D02*
X1206Y658D01*
X1209Y658D02*
X1216Y658D01*
X1Y657D02*
X8Y657D01*
X271Y657D02*
X280Y657D01*
X324Y657D02*
X326Y657D01*
X352Y657D02*
X354Y657D01*
X568Y657D02*
X579Y657D01*
X1041Y657D02*
X1051Y657D01*
X1196Y657D02*
X1206Y657D01*
X1209Y657D02*
X1216Y657D01*
X1Y656D02*
X8Y656D01*
X271Y656D02*
X280Y656D01*
X323Y656D02*
X326Y656D01*
X352Y656D02*
X355Y656D01*
X568Y656D02*
X579Y656D01*
X1040Y656D02*
X1051Y656D01*
X1196Y656D02*
X1206Y656D01*
X1209Y656D02*
X1216Y656D01*
X1Y655D02*
X8Y655D01*
X271Y655D02*
X280Y655D01*
X323Y655D02*
X327Y655D01*
X352Y655D02*
X355Y655D01*
X568Y655D02*
X579Y655D01*
X1039Y655D02*
X1050Y655D01*
X1196Y655D02*
X1206Y655D01*
X1209Y655D02*
X1216Y655D01*
X1Y654D02*
X8Y654D01*
X271Y654D02*
X280Y654D01*
X323Y654D02*
X327Y654D01*
X352Y654D02*
X355Y654D01*
X569Y654D02*
X579Y654D01*
X1039Y654D02*
X1049Y654D01*
X1196Y654D02*
X1206Y654D01*
X1209Y654D02*
X1216Y654D01*
X1Y653D02*
X8Y653D01*
X271Y653D02*
X280Y653D01*
X323Y653D02*
X327Y653D01*
X352Y653D02*
X355Y653D01*
X1038Y653D02*
X1049Y653D01*
X1196Y653D02*
X1206Y653D01*
X1209Y653D02*
X1216Y653D01*
X1Y652D02*
X8Y652D01*
X271Y652D02*
X280Y652D01*
X323Y652D02*
X327Y652D01*
X352Y652D02*
X355Y652D01*
X1037Y652D02*
X1048Y652D01*
X1196Y652D02*
X1206Y652D01*
X1209Y652D02*
X1216Y652D01*
X1Y651D02*
X8Y651D01*
X271Y651D02*
X280Y651D01*
X323Y651D02*
X327Y651D01*
X352Y651D02*
X355Y651D01*
X1037Y651D02*
X1048Y651D01*
X1196Y651D02*
X1206Y651D01*
X1209Y651D02*
X1216Y651D01*
X1Y650D02*
X8Y650D01*
X271Y650D02*
X280Y650D01*
X323Y650D02*
X327Y650D01*
X352Y650D02*
X355Y650D01*
X1036Y650D02*
X1047Y650D01*
X1196Y650D02*
X1206Y650D01*
X1209Y650D02*
X1216Y650D01*
X1Y649D02*
X8Y649D01*
X271Y649D02*
X280Y649D01*
X323Y649D02*
X355Y649D01*
X1035Y649D02*
X1046Y649D01*
X1196Y649D02*
X1206Y649D01*
X1209Y649D02*
X1216Y649D01*
X1Y648D02*
X8Y648D01*
X271Y648D02*
X280Y648D01*
X323Y648D02*
X355Y648D01*
X1034Y648D02*
X1046Y648D01*
X1196Y648D02*
X1206Y648D01*
X1209Y648D02*
X1216Y648D01*
X1Y647D02*
X8Y647D01*
X271Y647D02*
X280Y647D01*
X323Y647D02*
X355Y647D01*
X1033Y647D02*
X1045Y647D01*
X1128Y647D02*
X1129Y647D01*
X1156Y647D02*
X1157Y647D01*
X1196Y647D02*
X1206Y647D01*
X1209Y647D02*
X1216Y647D01*
X1Y646D02*
X8Y646D01*
X271Y646D02*
X280Y646D01*
X323Y646D02*
X355Y646D01*
X1032Y646D02*
X1044Y646D01*
X1127Y646D02*
X1130Y646D01*
X1155Y646D02*
X1158Y646D01*
X1196Y646D02*
X1206Y646D01*
X1209Y646D02*
X1216Y646D01*
X1Y645D02*
X8Y645D01*
X271Y645D02*
X280Y645D01*
X323Y645D02*
X327Y645D01*
X796Y645D02*
X797Y645D01*
X824Y645D02*
X825Y645D01*
X1031Y645D02*
X1043Y645D01*
X1127Y645D02*
X1130Y645D01*
X1155Y645D02*
X1158Y645D01*
X1196Y645D02*
X1206Y645D01*
X1209Y645D02*
X1216Y645D01*
X1Y644D02*
X8Y644D01*
X271Y644D02*
X280Y644D01*
X323Y644D02*
X327Y644D01*
X795Y644D02*
X798Y644D01*
X823Y644D02*
X826Y644D01*
X1030Y644D02*
X1043Y644D01*
X1127Y644D02*
X1130Y644D01*
X1155Y644D02*
X1158Y644D01*
X1196Y644D02*
X1206Y644D01*
X1209Y644D02*
X1216Y644D01*
X1Y643D02*
X8Y643D01*
X271Y643D02*
X280Y643D01*
X323Y643D02*
X327Y643D01*
X571Y643D02*
X571Y643D01*
X795Y643D02*
X798Y643D01*
X823Y643D02*
X826Y643D01*
X1029Y643D02*
X1042Y643D01*
X1127Y643D02*
X1130Y643D01*
X1155Y643D02*
X1158Y643D01*
X1196Y643D02*
X1206Y643D01*
X1209Y643D02*
X1216Y643D01*
X1Y642D02*
X8Y642D01*
X271Y642D02*
X280Y642D01*
X323Y642D02*
X327Y642D01*
X570Y642D02*
X572Y642D01*
X795Y642D02*
X798Y642D01*
X823Y642D02*
X826Y642D01*
X1028Y642D02*
X1041Y642D01*
X1127Y642D02*
X1130Y642D01*
X1155Y642D02*
X1158Y642D01*
X1196Y642D02*
X1206Y642D01*
X1209Y642D02*
X1216Y642D01*
X1Y641D02*
X8Y641D01*
X271Y641D02*
X280Y641D01*
X323Y641D02*
X333Y641D01*
X569Y641D02*
X572Y641D01*
X795Y641D02*
X798Y641D01*
X823Y641D02*
X826Y641D01*
X1027Y641D02*
X1040Y641D01*
X1127Y641D02*
X1130Y641D01*
X1155Y641D02*
X1158Y641D01*
X1196Y641D02*
X1206Y641D01*
X1209Y641D02*
X1216Y641D01*
X1Y640D02*
X8Y640D01*
X271Y640D02*
X280Y640D01*
X323Y640D02*
X335Y640D01*
X568Y640D02*
X572Y640D01*
X582Y640D02*
X599Y640D01*
X795Y640D02*
X798Y640D01*
X823Y640D02*
X826Y640D01*
X1025Y640D02*
X1039Y640D01*
X1127Y640D02*
X1130Y640D01*
X1155Y640D02*
X1158Y640D01*
X1196Y640D02*
X1206Y640D01*
X1209Y640D02*
X1216Y640D01*
X1Y639D02*
X8Y639D01*
X271Y639D02*
X280Y639D01*
X323Y639D02*
X335Y639D01*
X568Y639D02*
X572Y639D01*
X582Y639D02*
X599Y639D01*
X795Y639D02*
X798Y639D01*
X823Y639D02*
X826Y639D01*
X1024Y639D02*
X1038Y639D01*
X1127Y639D02*
X1158Y639D01*
X1196Y639D02*
X1206Y639D01*
X1209Y639D02*
X1216Y639D01*
X1Y638D02*
X8Y638D01*
X271Y638D02*
X280Y638D01*
X324Y638D02*
X335Y638D01*
X568Y638D02*
X571Y638D01*
X582Y638D02*
X599Y638D01*
X795Y638D02*
X798Y638D01*
X823Y638D02*
X826Y638D01*
X1022Y638D02*
X1037Y638D01*
X1127Y638D02*
X1158Y638D01*
X1196Y638D02*
X1206Y638D01*
X1209Y638D02*
X1216Y638D01*
X1Y637D02*
X8Y637D01*
X271Y637D02*
X280Y637D01*
X325Y637D02*
X333Y637D01*
X568Y637D02*
X571Y637D01*
X582Y637D02*
X599Y637D01*
X795Y637D02*
X798Y637D01*
X823Y637D02*
X826Y637D01*
X1020Y637D02*
X1036Y637D01*
X1127Y637D02*
X1158Y637D01*
X1196Y637D02*
X1206Y637D01*
X1209Y637D02*
X1216Y637D01*
X1Y636D02*
X8Y636D01*
X271Y636D02*
X280Y636D01*
X568Y636D02*
X571Y636D01*
X582Y636D02*
X585Y636D01*
X596Y636D02*
X599Y636D01*
X795Y636D02*
X826Y636D01*
X1018Y636D02*
X1035Y636D01*
X1127Y636D02*
X1158Y636D01*
X1196Y636D02*
X1206Y636D01*
X1209Y636D02*
X1216Y636D01*
X1Y635D02*
X8Y635D01*
X271Y635D02*
X280Y635D01*
X568Y635D02*
X571Y635D01*
X582Y635D02*
X585Y635D01*
X596Y635D02*
X599Y635D01*
X795Y635D02*
X826Y635D01*
X1014Y635D02*
X1034Y635D01*
X1127Y635D02*
X1157Y635D01*
X1196Y635D02*
X1206Y635D01*
X1209Y635D02*
X1216Y635D01*
X1Y634D02*
X8Y634D01*
X271Y634D02*
X280Y634D01*
X568Y634D02*
X571Y634D01*
X582Y634D02*
X585Y634D01*
X596Y634D02*
X599Y634D01*
X795Y634D02*
X826Y634D01*
X1007Y634D02*
X1033Y634D01*
X1127Y634D02*
X1130Y634D01*
X1196Y634D02*
X1206Y634D01*
X1209Y634D02*
X1216Y634D01*
X1Y633D02*
X8Y633D01*
X271Y633D02*
X280Y633D01*
X568Y633D02*
X571Y633D01*
X582Y633D02*
X585Y633D01*
X596Y633D02*
X599Y633D01*
X795Y633D02*
X826Y633D01*
X1005Y633D02*
X1031Y633D01*
X1127Y633D02*
X1130Y633D01*
X1196Y633D02*
X1206Y633D01*
X1209Y633D02*
X1216Y633D01*
X1Y632D02*
X8Y632D01*
X271Y632D02*
X280Y632D01*
X568Y632D02*
X571Y632D01*
X582Y632D02*
X585Y632D01*
X596Y632D02*
X599Y632D01*
X795Y632D02*
X798Y632D01*
X1005Y632D02*
X1030Y632D01*
X1127Y632D02*
X1130Y632D01*
X1196Y632D02*
X1206Y632D01*
X1209Y632D02*
X1216Y632D01*
X1Y631D02*
X8Y631D01*
X271Y631D02*
X280Y631D01*
X568Y631D02*
X571Y631D01*
X582Y631D02*
X585Y631D01*
X596Y631D02*
X599Y631D01*
X795Y631D02*
X798Y631D01*
X1005Y631D02*
X1028Y631D01*
X1127Y631D02*
X1130Y631D01*
X1196Y631D02*
X1206Y631D01*
X1209Y631D02*
X1216Y631D01*
X1Y630D02*
X8Y630D01*
X271Y630D02*
X280Y630D01*
X568Y630D02*
X571Y630D01*
X582Y630D02*
X585Y630D01*
X596Y630D02*
X599Y630D01*
X795Y630D02*
X798Y630D01*
X1005Y630D02*
X1027Y630D01*
X1127Y630D02*
X1138Y630D01*
X1196Y630D02*
X1206Y630D01*
X1209Y630D02*
X1216Y630D01*
X1Y629D02*
X8Y629D01*
X271Y629D02*
X280Y629D01*
X568Y629D02*
X571Y629D01*
X582Y629D02*
X585Y629D01*
X596Y629D02*
X599Y629D01*
X795Y629D02*
X798Y629D01*
X1006Y629D02*
X1025Y629D01*
X1127Y629D02*
X1138Y629D01*
X1196Y629D02*
X1206Y629D01*
X1209Y629D02*
X1216Y629D01*
X1Y628D02*
X8Y628D01*
X271Y628D02*
X280Y628D01*
X568Y628D02*
X585Y628D01*
X596Y628D02*
X599Y628D01*
X795Y628D02*
X806Y628D01*
X1006Y628D02*
X1023Y628D01*
X1127Y628D02*
X1138Y628D01*
X1196Y628D02*
X1206Y628D01*
X1209Y628D02*
X1216Y628D01*
X1Y627D02*
X8Y627D01*
X271Y627D02*
X280Y627D01*
X568Y627D02*
X585Y627D01*
X596Y627D02*
X599Y627D01*
X795Y627D02*
X806Y627D01*
X1006Y627D02*
X1021Y627D01*
X1128Y627D02*
X1137Y627D01*
X1196Y627D02*
X1206Y627D01*
X1209Y627D02*
X1216Y627D01*
X1Y626D02*
X8Y626D01*
X271Y626D02*
X280Y626D01*
X325Y626D02*
X327Y626D01*
X569Y626D02*
X585Y626D01*
X596Y626D02*
X599Y626D01*
X795Y626D02*
X806Y626D01*
X1007Y626D02*
X1018Y626D01*
X1196Y626D02*
X1206Y626D01*
X1209Y626D02*
X1216Y626D01*
X1Y625D02*
X8Y625D01*
X271Y625D02*
X280Y625D01*
X325Y625D02*
X328Y625D01*
X570Y625D02*
X584Y625D01*
X597Y625D02*
X599Y625D01*
X796Y625D02*
X806Y625D01*
X1007Y625D02*
X1014Y625D01*
X1196Y625D02*
X1206Y625D01*
X1209Y625D02*
X1216Y625D01*
X1Y624D02*
X8Y624D01*
X271Y624D02*
X280Y624D01*
X324Y624D02*
X328Y624D01*
X338Y624D02*
X355Y624D01*
X573Y624D02*
X581Y624D01*
X1196Y624D02*
X1206Y624D01*
X1209Y624D02*
X1216Y624D01*
X1Y623D02*
X8Y623D01*
X271Y623D02*
X280Y623D01*
X324Y623D02*
X327Y623D01*
X337Y623D02*
X355Y623D01*
X1196Y623D02*
X1206Y623D01*
X1209Y623D02*
X1216Y623D01*
X1Y622D02*
X8Y622D01*
X271Y622D02*
X280Y622D01*
X323Y622D02*
X327Y622D01*
X337Y622D02*
X355Y622D01*
X1196Y622D02*
X1206Y622D01*
X1209Y622D02*
X1216Y622D01*
X1Y621D02*
X8Y621D01*
X271Y621D02*
X280Y621D01*
X323Y621D02*
X327Y621D01*
X337Y621D02*
X355Y621D01*
X1196Y621D02*
X1206Y621D01*
X1209Y621D02*
X1216Y621D01*
X1Y620D02*
X8Y620D01*
X271Y620D02*
X280Y620D01*
X323Y620D02*
X327Y620D01*
X337Y620D02*
X355Y620D01*
X1196Y620D02*
X1206Y620D01*
X1209Y620D02*
X1216Y620D01*
X1Y619D02*
X8Y619D01*
X271Y619D02*
X280Y619D01*
X323Y619D02*
X327Y619D01*
X337Y619D02*
X341Y619D01*
X352Y619D02*
X355Y619D01*
X1196Y619D02*
X1206Y619D01*
X1209Y619D02*
X1216Y619D01*
X1Y618D02*
X8Y618D01*
X271Y618D02*
X280Y618D01*
X323Y618D02*
X327Y618D01*
X337Y618D02*
X341Y618D01*
X352Y618D02*
X355Y618D01*
X1196Y618D02*
X1206Y618D01*
X1209Y618D02*
X1216Y618D01*
X1Y617D02*
X8Y617D01*
X271Y617D02*
X280Y617D01*
X323Y617D02*
X327Y617D01*
X337Y617D02*
X341Y617D01*
X352Y617D02*
X355Y617D01*
X1128Y617D02*
X1157Y617D01*
X1196Y617D02*
X1206Y617D01*
X1209Y617D02*
X1216Y617D01*
X1Y616D02*
X8Y616D01*
X271Y616D02*
X280Y616D01*
X323Y616D02*
X327Y616D01*
X337Y616D02*
X341Y616D01*
X352Y616D02*
X355Y616D01*
X1127Y616D02*
X1158Y616D01*
X1196Y616D02*
X1206Y616D01*
X1209Y616D02*
X1216Y616D01*
X1Y615D02*
X8Y615D01*
X271Y615D02*
X280Y615D01*
X323Y615D02*
X327Y615D01*
X337Y615D02*
X341Y615D01*
X352Y615D02*
X355Y615D01*
X797Y615D02*
X825Y615D01*
X1127Y615D02*
X1158Y615D01*
X1196Y615D02*
X1206Y615D01*
X1209Y615D02*
X1216Y615D01*
X1Y614D02*
X8Y614D01*
X271Y614D02*
X280Y614D01*
X323Y614D02*
X327Y614D01*
X337Y614D02*
X341Y614D01*
X352Y614D02*
X355Y614D01*
X795Y614D02*
X826Y614D01*
X1127Y614D02*
X1158Y614D01*
X1196Y614D02*
X1206Y614D01*
X1209Y614D02*
X1216Y614D01*
X1Y613D02*
X8Y613D01*
X271Y613D02*
X280Y613D01*
X323Y613D02*
X327Y613D01*
X337Y613D02*
X341Y613D01*
X352Y613D02*
X355Y613D01*
X570Y613D02*
X598Y613D01*
X795Y613D02*
X826Y613D01*
X1129Y613D02*
X1155Y613D01*
X1196Y613D02*
X1206Y613D01*
X1209Y613D02*
X1216Y613D01*
X1Y612D02*
X8Y612D01*
X271Y612D02*
X280Y612D01*
X323Y612D02*
X327Y612D01*
X337Y612D02*
X341Y612D01*
X352Y612D02*
X355Y612D01*
X569Y612D02*
X599Y612D01*
X795Y612D02*
X826Y612D01*
X1137Y612D02*
X1147Y612D01*
X1196Y612D02*
X1206Y612D01*
X1209Y612D02*
X1216Y612D01*
X1Y611D02*
X8Y611D01*
X271Y611D02*
X280Y611D01*
X323Y611D02*
X341Y611D01*
X352Y611D02*
X355Y611D01*
X568Y611D02*
X599Y611D01*
X796Y611D02*
X825Y611D01*
X1136Y611D02*
X1141Y611D01*
X1144Y611D02*
X1148Y611D01*
X1196Y611D02*
X1206Y611D01*
X1209Y611D02*
X1216Y611D01*
X1Y610D02*
X8Y610D01*
X271Y610D02*
X280Y610D01*
X324Y610D02*
X340Y610D01*
X352Y610D02*
X355Y610D01*
X568Y610D02*
X599Y610D01*
X806Y610D02*
X815Y610D01*
X1136Y610D02*
X1140Y610D01*
X1144Y610D02*
X1149Y610D01*
X1196Y610D02*
X1206Y610D01*
X1209Y610D02*
X1216Y610D01*
X1Y609D02*
X8Y609D01*
X271Y609D02*
X280Y609D01*
X324Y609D02*
X340Y609D01*
X352Y609D02*
X355Y609D01*
X568Y609D02*
X571Y609D01*
X596Y609D02*
X599Y609D01*
X805Y609D02*
X809Y609D01*
X812Y609D02*
X816Y609D01*
X1135Y609D02*
X1139Y609D01*
X1145Y609D02*
X1150Y609D01*
X1196Y609D02*
X1206Y609D01*
X1209Y609D02*
X1216Y609D01*
X1Y608D02*
X8Y608D01*
X271Y608D02*
X280Y608D01*
X326Y608D02*
X338Y608D01*
X352Y608D02*
X354Y608D01*
X568Y608D02*
X571Y608D01*
X596Y608D02*
X599Y608D01*
X804Y608D02*
X809Y608D01*
X813Y608D02*
X817Y608D01*
X1134Y608D02*
X1138Y608D01*
X1146Y608D02*
X1151Y608D01*
X1196Y608D02*
X1206Y608D01*
X1209Y608D02*
X1216Y608D01*
X1Y607D02*
X8Y607D01*
X271Y607D02*
X280Y607D01*
X568Y607D02*
X571Y607D01*
X596Y607D02*
X599Y607D01*
X803Y607D02*
X808Y607D01*
X813Y607D02*
X818Y607D01*
X1133Y607D02*
X1138Y607D01*
X1147Y607D02*
X1152Y607D01*
X1196Y607D02*
X1206Y607D01*
X1209Y607D02*
X1216Y607D01*
X1Y606D02*
X8Y606D01*
X271Y606D02*
X280Y606D01*
X568Y606D02*
X571Y606D01*
X596Y606D02*
X599Y606D01*
X802Y606D02*
X807Y606D01*
X814Y606D02*
X819Y606D01*
X1132Y606D02*
X1137Y606D01*
X1148Y606D02*
X1152Y606D01*
X1196Y606D02*
X1206Y606D01*
X1209Y606D02*
X1216Y606D01*
X1Y605D02*
X8Y605D01*
X271Y605D02*
X280Y605D01*
X568Y605D02*
X571Y605D01*
X596Y605D02*
X599Y605D01*
X801Y605D02*
X806Y605D01*
X815Y605D02*
X820Y605D01*
X1131Y605D02*
X1136Y605D01*
X1149Y605D02*
X1153Y605D01*
X1196Y605D02*
X1206Y605D01*
X1209Y605D02*
X1216Y605D01*
X1Y604D02*
X8Y604D01*
X271Y604D02*
X280Y604D01*
X568Y604D02*
X571Y604D01*
X596Y604D02*
X599Y604D01*
X801Y604D02*
X805Y604D01*
X816Y604D02*
X821Y604D01*
X1130Y604D02*
X1135Y604D01*
X1150Y604D02*
X1154Y604D01*
X1196Y604D02*
X1206Y604D01*
X1209Y604D02*
X1216Y604D01*
X1Y603D02*
X8Y603D01*
X271Y603D02*
X280Y603D01*
X568Y603D02*
X571Y603D01*
X596Y603D02*
X599Y603D01*
X800Y603D02*
X804Y603D01*
X817Y603D02*
X821Y603D01*
X1130Y603D02*
X1134Y603D01*
X1150Y603D02*
X1155Y603D01*
X1196Y603D02*
X1206Y603D01*
X1209Y603D02*
X1216Y603D01*
X1Y602D02*
X8Y602D01*
X271Y602D02*
X280Y602D01*
X568Y602D02*
X571Y602D01*
X596Y602D02*
X599Y602D01*
X799Y602D02*
X803Y602D01*
X818Y602D02*
X822Y602D01*
X1129Y602D02*
X1133Y602D01*
X1151Y602D02*
X1156Y602D01*
X1196Y602D02*
X1206Y602D01*
X1209Y602D02*
X1216Y602D01*
X1Y601D02*
X8Y601D01*
X271Y601D02*
X280Y601D01*
X568Y601D02*
X571Y601D01*
X596Y601D02*
X599Y601D01*
X798Y601D02*
X803Y601D01*
X819Y601D02*
X823Y601D01*
X1128Y601D02*
X1132Y601D01*
X1152Y601D02*
X1157Y601D01*
X1196Y601D02*
X1206Y601D01*
X1209Y601D02*
X1216Y601D01*
X1Y600D02*
X8Y600D01*
X271Y600D02*
X280Y600D01*
X568Y600D02*
X571Y600D01*
X596Y600D02*
X599Y600D01*
X797Y600D02*
X802Y600D01*
X819Y600D02*
X824Y600D01*
X1127Y600D02*
X1132Y600D01*
X1153Y600D02*
X1157Y600D01*
X1196Y600D02*
X1206Y600D01*
X1209Y600D02*
X1216Y600D01*
X1Y599D02*
X8Y599D01*
X271Y599D02*
X280Y599D01*
X568Y599D02*
X571Y599D01*
X596Y599D02*
X599Y599D01*
X796Y599D02*
X801Y599D01*
X820Y599D02*
X825Y599D01*
X1127Y599D02*
X1131Y599D01*
X1154Y599D02*
X1158Y599D01*
X1196Y599D02*
X1206Y599D01*
X1209Y599D02*
X1216Y599D01*
X1Y598D02*
X8Y598D01*
X271Y598D02*
X280Y598D01*
X568Y598D02*
X571Y598D01*
X596Y598D02*
X599Y598D01*
X795Y598D02*
X800Y598D01*
X821Y598D02*
X826Y598D01*
X1127Y598D02*
X1130Y598D01*
X1155Y598D02*
X1158Y598D01*
X1196Y598D02*
X1206Y598D01*
X1209Y598D02*
X1216Y598D01*
X1Y597D02*
X8Y597D01*
X271Y597D02*
X280Y597D01*
X326Y597D02*
X352Y597D01*
X568Y597D02*
X599Y597D01*
X795Y597D02*
X799Y597D01*
X822Y597D02*
X826Y597D01*
X1127Y597D02*
X1129Y597D01*
X1156Y597D02*
X1157Y597D01*
X1196Y597D02*
X1206Y597D01*
X1209Y597D02*
X1216Y597D01*
X1Y596D02*
X8Y596D01*
X271Y596D02*
X280Y596D01*
X324Y596D02*
X354Y596D01*
X568Y596D02*
X599Y596D01*
X795Y596D02*
X798Y596D01*
X823Y596D02*
X826Y596D01*
X1196Y596D02*
X1206Y596D01*
X1209Y596D02*
X1216Y596D01*
X1Y595D02*
X8Y595D01*
X271Y595D02*
X280Y595D01*
X324Y595D02*
X354Y595D01*
X569Y595D02*
X599Y595D01*
X795Y595D02*
X797Y595D01*
X824Y595D02*
X826Y595D01*
X1196Y595D02*
X1206Y595D01*
X1209Y595D02*
X1216Y595D01*
X1Y594D02*
X8Y594D01*
X271Y594D02*
X280Y594D01*
X323Y594D02*
X355Y594D01*
X570Y594D02*
X598Y594D01*
X1196Y594D02*
X1206Y594D01*
X1209Y594D02*
X1216Y594D01*
X1Y593D02*
X8Y593D01*
X271Y593D02*
X280Y593D01*
X323Y593D02*
X327Y593D01*
X351Y593D02*
X355Y593D01*
X1196Y593D02*
X1206Y593D01*
X1209Y593D02*
X1216Y593D01*
X1Y592D02*
X8Y592D01*
X271Y592D02*
X280Y592D01*
X323Y592D02*
X327Y592D01*
X352Y592D02*
X355Y592D01*
X1196Y592D02*
X1206Y592D01*
X1209Y592D02*
X1216Y592D01*
X1Y591D02*
X8Y591D01*
X271Y591D02*
X280Y591D01*
X323Y591D02*
X327Y591D01*
X352Y591D02*
X355Y591D01*
X1196Y591D02*
X1206Y591D01*
X1209Y591D02*
X1216Y591D01*
X1Y590D02*
X8Y590D01*
X271Y590D02*
X280Y590D01*
X323Y590D02*
X327Y590D01*
X352Y590D02*
X355Y590D01*
X1196Y590D02*
X1206Y590D01*
X1209Y590D02*
X1216Y590D01*
X1Y589D02*
X8Y589D01*
X271Y589D02*
X280Y589D01*
X323Y589D02*
X327Y589D01*
X352Y589D02*
X355Y589D01*
X1196Y589D02*
X1206Y589D01*
X1209Y589D02*
X1216Y589D01*
X1Y588D02*
X8Y588D01*
X271Y588D02*
X280Y588D01*
X323Y588D02*
X327Y588D01*
X352Y588D02*
X355Y588D01*
X1196Y588D02*
X1206Y588D01*
X1209Y588D02*
X1216Y588D01*
X1Y587D02*
X8Y587D01*
X271Y587D02*
X280Y587D01*
X323Y587D02*
X327Y587D01*
X352Y587D02*
X355Y587D01*
X1196Y587D02*
X1206Y587D01*
X1209Y587D02*
X1216Y587D01*
X1Y586D02*
X8Y586D01*
X271Y586D02*
X280Y586D01*
X323Y586D02*
X327Y586D01*
X352Y586D02*
X355Y586D01*
X1196Y586D02*
X1206Y586D01*
X1209Y586D02*
X1216Y586D01*
X1Y585D02*
X8Y585D01*
X271Y585D02*
X280Y585D01*
X323Y585D02*
X327Y585D01*
X352Y585D02*
X355Y585D01*
X1196Y585D02*
X1206Y585D01*
X1209Y585D02*
X1216Y585D01*
X1Y584D02*
X8Y584D01*
X271Y584D02*
X280Y584D01*
X323Y584D02*
X327Y584D01*
X352Y584D02*
X355Y584D01*
X1196Y584D02*
X1206Y584D01*
X1209Y584D02*
X1216Y584D01*
X1Y583D02*
X8Y583D01*
X271Y583D02*
X280Y583D01*
X323Y583D02*
X327Y583D01*
X352Y583D02*
X355Y583D01*
X1196Y583D02*
X1206Y583D01*
X1209Y583D02*
X1216Y583D01*
X1Y582D02*
X8Y582D01*
X271Y582D02*
X280Y582D01*
X323Y582D02*
X327Y582D01*
X352Y582D02*
X355Y582D01*
X469Y582D02*
X470Y582D01*
X701Y582D02*
X702Y582D01*
X1196Y582D02*
X1206Y582D01*
X1209Y582D02*
X1216Y582D01*
X1Y581D02*
X8Y581D01*
X271Y581D02*
X280Y581D01*
X323Y581D02*
X327Y581D01*
X351Y581D02*
X355Y581D01*
X467Y581D02*
X472Y581D01*
X699Y581D02*
X703Y581D01*
X1196Y581D02*
X1206Y581D01*
X1209Y581D02*
X1216Y581D01*
X1Y580D02*
X8Y580D01*
X271Y580D02*
X280Y580D01*
X323Y580D02*
X355Y580D01*
X466Y580D02*
X472Y580D01*
X698Y580D02*
X704Y580D01*
X1196Y580D02*
X1206Y580D01*
X1209Y580D02*
X1216Y580D01*
X1Y579D02*
X8Y579D01*
X271Y579D02*
X280Y579D01*
X324Y579D02*
X354Y579D01*
X466Y579D02*
X473Y579D01*
X698Y579D02*
X704Y579D01*
X1196Y579D02*
X1206Y579D01*
X1209Y579D02*
X1216Y579D01*
X1Y578D02*
X8Y578D01*
X271Y578D02*
X280Y578D01*
X325Y578D02*
X354Y578D01*
X466Y578D02*
X473Y578D01*
X698Y578D02*
X705Y578D01*
X1196Y578D02*
X1206Y578D01*
X1209Y578D02*
X1216Y578D01*
X1Y577D02*
X8Y577D01*
X271Y577D02*
X280Y577D01*
X326Y577D02*
X352Y577D01*
X466Y577D02*
X473Y577D01*
X698Y577D02*
X705Y577D01*
X1196Y577D02*
X1206Y577D01*
X1209Y577D02*
X1216Y577D01*
X1Y576D02*
X8Y576D01*
X271Y576D02*
X280Y576D01*
X466Y576D02*
X473Y576D01*
X698Y576D02*
X705Y576D01*
X1196Y576D02*
X1206Y576D01*
X1209Y576D02*
X1216Y576D01*
X1Y575D02*
X8Y575D01*
X271Y575D02*
X280Y575D01*
X466Y575D02*
X473Y575D01*
X698Y575D02*
X705Y575D01*
X1196Y575D02*
X1206Y575D01*
X1209Y575D02*
X1216Y575D01*
X1Y574D02*
X8Y574D01*
X271Y574D02*
X280Y574D01*
X466Y574D02*
X473Y574D01*
X698Y574D02*
X705Y574D01*
X1196Y574D02*
X1206Y574D01*
X1209Y574D02*
X1216Y574D01*
X1Y573D02*
X8Y573D01*
X271Y573D02*
X280Y573D01*
X466Y573D02*
X473Y573D01*
X698Y573D02*
X705Y573D01*
X1196Y573D02*
X1206Y573D01*
X1209Y573D02*
X1216Y573D01*
X1Y572D02*
X8Y572D01*
X271Y572D02*
X280Y572D01*
X466Y572D02*
X473Y572D01*
X698Y572D02*
X705Y572D01*
X1196Y572D02*
X1206Y572D01*
X1209Y572D02*
X1216Y572D01*
X1Y571D02*
X8Y571D01*
X271Y571D02*
X280Y571D01*
X466Y571D02*
X473Y571D01*
X698Y571D02*
X705Y571D01*
X1196Y571D02*
X1206Y571D01*
X1209Y571D02*
X1216Y571D01*
X1Y570D02*
X8Y570D01*
X271Y570D02*
X280Y570D01*
X473Y570D02*
X473Y570D01*
X705Y570D02*
X705Y570D01*
X1196Y570D02*
X1206Y570D01*
X1209Y570D02*
X1216Y570D01*
X1Y569D02*
X8Y569D01*
X271Y569D02*
X280Y569D01*
X1196Y569D02*
X1206Y569D01*
X1209Y569D02*
X1216Y569D01*
X1Y568D02*
X8Y568D01*
X271Y568D02*
X280Y568D01*
X1196Y568D02*
X1206Y568D01*
X1209Y568D02*
X1216Y568D01*
X1Y567D02*
X8Y567D01*
X271Y567D02*
X280Y567D01*
X1196Y567D02*
X1206Y567D01*
X1209Y567D02*
X1216Y567D01*
X1Y566D02*
X8Y566D01*
X271Y566D02*
X280Y566D01*
X1196Y566D02*
X1206Y566D01*
X1209Y566D02*
X1216Y566D01*
X1Y565D02*
X8Y565D01*
X271Y565D02*
X280Y565D01*
X1196Y565D02*
X1206Y565D01*
X1209Y565D02*
X1216Y565D01*
X1Y564D02*
X8Y564D01*
X271Y564D02*
X280Y564D01*
X1196Y564D02*
X1206Y564D01*
X1209Y564D02*
X1216Y564D01*
X1Y563D02*
X8Y563D01*
X271Y563D02*
X280Y563D01*
X1196Y563D02*
X1206Y563D01*
X1209Y563D02*
X1216Y563D01*
X1Y562D02*
X8Y562D01*
X271Y562D02*
X280Y562D01*
X1196Y562D02*
X1206Y562D01*
X1209Y562D02*
X1216Y562D01*
X1Y561D02*
X8Y561D01*
X271Y561D02*
X280Y561D01*
X1196Y561D02*
X1206Y561D01*
X1209Y561D02*
X1216Y561D01*
X1Y560D02*
X8Y560D01*
X271Y560D02*
X280Y560D01*
X1196Y560D02*
X1206Y560D01*
X1209Y560D02*
X1216Y560D01*
X1Y559D02*
X8Y559D01*
X271Y559D02*
X280Y559D01*
X1196Y559D02*
X1206Y559D01*
X1209Y559D02*
X1216Y559D01*
X1Y558D02*
X8Y558D01*
X271Y558D02*
X280Y558D01*
X1196Y558D02*
X1206Y558D01*
X1209Y558D02*
X1216Y558D01*
X1Y557D02*
X8Y557D01*
X271Y557D02*
X280Y557D01*
X1196Y557D02*
X1206Y557D01*
X1209Y557D02*
X1216Y557D01*
X1Y556D02*
X8Y556D01*
X271Y556D02*
X280Y556D01*
X1196Y556D02*
X1206Y556D01*
X1209Y556D02*
X1216Y556D01*
X1Y555D02*
X8Y555D01*
X271Y555D02*
X280Y555D01*
X1196Y555D02*
X1206Y555D01*
X1209Y555D02*
X1216Y555D01*
X1Y554D02*
X8Y554D01*
X271Y554D02*
X280Y554D01*
X1196Y554D02*
X1206Y554D01*
X1209Y554D02*
X1216Y554D01*
X1Y553D02*
X8Y553D01*
X271Y553D02*
X280Y553D01*
X1196Y553D02*
X1206Y553D01*
X1209Y553D02*
X1216Y553D01*
X1Y552D02*
X8Y552D01*
X271Y552D02*
X280Y552D01*
X1196Y552D02*
X1206Y552D01*
X1209Y552D02*
X1216Y552D01*
X1Y551D02*
X8Y551D01*
X271Y551D02*
X280Y551D01*
X1196Y551D02*
X1206Y551D01*
X1209Y551D02*
X1216Y551D01*
X1Y550D02*
X8Y550D01*
X271Y550D02*
X280Y550D01*
X1196Y550D02*
X1206Y550D01*
X1209Y550D02*
X1216Y550D01*
X1Y549D02*
X8Y549D01*
X271Y549D02*
X280Y549D01*
X1196Y549D02*
X1206Y549D01*
X1209Y549D02*
X1216Y549D01*
X1Y548D02*
X8Y548D01*
X271Y548D02*
X280Y548D01*
X1196Y548D02*
X1206Y548D01*
X1209Y548D02*
X1216Y548D01*
X1Y547D02*
X8Y547D01*
X271Y547D02*
X280Y547D01*
X1196Y547D02*
X1206Y547D01*
X1209Y547D02*
X1216Y547D01*
X1Y546D02*
X8Y546D01*
X271Y546D02*
X280Y546D01*
X1196Y546D02*
X1206Y546D01*
X1209Y546D02*
X1216Y546D01*
X1Y545D02*
X8Y545D01*
X271Y545D02*
X280Y545D01*
X1196Y545D02*
X1206Y545D01*
X1209Y545D02*
X1216Y545D01*
X1Y544D02*
X8Y544D01*
X271Y544D02*
X280Y544D01*
X1196Y544D02*
X1206Y544D01*
X1209Y544D02*
X1216Y544D01*
X1Y543D02*
X8Y543D01*
X271Y543D02*
X280Y543D01*
X1196Y543D02*
X1206Y543D01*
X1209Y543D02*
X1216Y543D01*
X1Y542D02*
X8Y542D01*
X271Y542D02*
X280Y542D01*
X1196Y542D02*
X1206Y542D01*
X1209Y542D02*
X1216Y542D01*
X1Y541D02*
X8Y541D01*
X271Y541D02*
X280Y541D01*
X1196Y541D02*
X1206Y541D01*
X1209Y541D02*
X1216Y541D01*
X1Y540D02*
X8Y540D01*
X271Y540D02*
X280Y540D01*
X1196Y540D02*
X1206Y540D01*
X1209Y540D02*
X1216Y540D01*
X1Y539D02*
X8Y539D01*
X271Y539D02*
X280Y539D01*
X1196Y539D02*
X1206Y539D01*
X1209Y539D02*
X1216Y539D01*
X1Y538D02*
X8Y538D01*
X271Y538D02*
X280Y538D01*
X1196Y538D02*
X1206Y538D01*
X1209Y538D02*
X1216Y538D01*
X1Y537D02*
X8Y537D01*
X271Y537D02*
X280Y537D01*
X582Y537D02*
X591Y537D01*
X1196Y537D02*
X1206Y537D01*
X1209Y537D02*
X1216Y537D01*
X1Y536D02*
X8Y536D01*
X271Y536D02*
X280Y536D01*
X582Y536D02*
X591Y536D01*
X1196Y536D02*
X1206Y536D01*
X1209Y536D02*
X1216Y536D01*
X1Y535D02*
X8Y535D01*
X271Y535D02*
X280Y535D01*
X582Y535D02*
X591Y535D01*
X1196Y535D02*
X1206Y535D01*
X1209Y535D02*
X1216Y535D01*
X1Y534D02*
X8Y534D01*
X271Y534D02*
X280Y534D01*
X582Y534D02*
X591Y534D01*
X1196Y534D02*
X1206Y534D01*
X1209Y534D02*
X1216Y534D01*
X1Y533D02*
X8Y533D01*
X271Y533D02*
X280Y533D01*
X582Y533D02*
X591Y533D01*
X1196Y533D02*
X1206Y533D01*
X1209Y533D02*
X1216Y533D01*
X1Y532D02*
X8Y532D01*
X271Y532D02*
X280Y532D01*
X582Y532D02*
X591Y532D01*
X1196Y532D02*
X1206Y532D01*
X1209Y532D02*
X1216Y532D01*
X1Y531D02*
X8Y531D01*
X271Y531D02*
X280Y531D01*
X582Y531D02*
X591Y531D01*
X1196Y531D02*
X1206Y531D01*
X1209Y531D02*
X1216Y531D01*
X1Y530D02*
X8Y530D01*
X271Y530D02*
X280Y530D01*
X582Y530D02*
X591Y530D01*
X1196Y530D02*
X1206Y530D01*
X1209Y530D02*
X1216Y530D01*
X1Y529D02*
X8Y529D01*
X271Y529D02*
X280Y529D01*
X582Y529D02*
X591Y529D01*
X1196Y529D02*
X1206Y529D01*
X1209Y529D02*
X1216Y529D01*
X1Y528D02*
X8Y528D01*
X271Y528D02*
X280Y528D01*
X582Y528D02*
X591Y528D01*
X1196Y528D02*
X1206Y528D01*
X1209Y528D02*
X1216Y528D01*
X1Y527D02*
X8Y527D01*
X271Y527D02*
X280Y527D01*
X582Y527D02*
X591Y527D01*
X1196Y527D02*
X1206Y527D01*
X1209Y527D02*
X1216Y527D01*
X1Y526D02*
X8Y526D01*
X271Y526D02*
X280Y526D01*
X582Y526D02*
X591Y526D01*
X1196Y526D02*
X1206Y526D01*
X1209Y526D02*
X1216Y526D01*
X1Y525D02*
X8Y525D01*
X271Y525D02*
X280Y525D01*
X582Y525D02*
X591Y525D01*
X1196Y525D02*
X1206Y525D01*
X1209Y525D02*
X1216Y525D01*
X1Y524D02*
X8Y524D01*
X271Y524D02*
X280Y524D01*
X582Y524D02*
X591Y524D01*
X1196Y524D02*
X1206Y524D01*
X1209Y524D02*
X1216Y524D01*
X1Y523D02*
X8Y523D01*
X271Y523D02*
X280Y523D01*
X582Y523D02*
X591Y523D01*
X1196Y523D02*
X1206Y523D01*
X1209Y523D02*
X1216Y523D01*
X1Y522D02*
X8Y522D01*
X271Y522D02*
X280Y522D01*
X582Y522D02*
X591Y522D01*
X1196Y522D02*
X1206Y522D01*
X1209Y522D02*
X1216Y522D01*
X1Y521D02*
X8Y521D01*
X271Y521D02*
X280Y521D01*
X582Y521D02*
X591Y521D01*
X1196Y521D02*
X1206Y521D01*
X1209Y521D02*
X1216Y521D01*
X1Y520D02*
X8Y520D01*
X271Y520D02*
X280Y520D01*
X582Y520D02*
X591Y520D01*
X1141Y520D02*
X1150Y520D01*
X1196Y520D02*
X1206Y520D01*
X1209Y520D02*
X1216Y520D01*
X1Y519D02*
X8Y519D01*
X271Y519D02*
X280Y519D01*
X582Y519D02*
X591Y519D01*
X1141Y519D02*
X1150Y519D01*
X1196Y519D02*
X1206Y519D01*
X1209Y519D02*
X1216Y519D01*
X1Y518D02*
X8Y518D01*
X271Y518D02*
X280Y518D01*
X338Y518D02*
X347Y518D01*
X582Y518D02*
X591Y518D01*
X810Y518D02*
X818Y518D01*
X1141Y518D02*
X1150Y518D01*
X1196Y518D02*
X1206Y518D01*
X1209Y518D02*
X1216Y518D01*
X1Y517D02*
X8Y517D01*
X271Y517D02*
X280Y517D01*
X338Y517D02*
X347Y517D01*
X582Y517D02*
X591Y517D01*
X810Y517D02*
X819Y517D01*
X1141Y517D02*
X1150Y517D01*
X1196Y517D02*
X1206Y517D01*
X1209Y517D02*
X1216Y517D01*
X1Y516D02*
X8Y516D01*
X271Y516D02*
X280Y516D01*
X338Y516D02*
X347Y516D01*
X582Y516D02*
X591Y516D01*
X810Y516D02*
X819Y516D01*
X1141Y516D02*
X1150Y516D01*
X1196Y516D02*
X1206Y516D01*
X1209Y516D02*
X1216Y516D01*
X1Y515D02*
X8Y515D01*
X271Y515D02*
X280Y515D01*
X338Y515D02*
X347Y515D01*
X582Y515D02*
X591Y515D01*
X810Y515D02*
X819Y515D01*
X1141Y515D02*
X1150Y515D01*
X1196Y515D02*
X1206Y515D01*
X1209Y515D02*
X1216Y515D01*
X1Y514D02*
X8Y514D01*
X271Y514D02*
X280Y514D01*
X338Y514D02*
X347Y514D01*
X582Y514D02*
X591Y514D01*
X810Y514D02*
X819Y514D01*
X1141Y514D02*
X1150Y514D01*
X1196Y514D02*
X1206Y514D01*
X1209Y514D02*
X1216Y514D01*
X1Y513D02*
X8Y513D01*
X271Y513D02*
X280Y513D01*
X338Y513D02*
X347Y513D01*
X582Y513D02*
X591Y513D01*
X810Y513D02*
X819Y513D01*
X1141Y513D02*
X1150Y513D01*
X1196Y513D02*
X1206Y513D01*
X1209Y513D02*
X1216Y513D01*
X1Y512D02*
X8Y512D01*
X271Y512D02*
X280Y512D01*
X338Y512D02*
X347Y512D01*
X582Y512D02*
X591Y512D01*
X810Y512D02*
X819Y512D01*
X1141Y512D02*
X1150Y512D01*
X1196Y512D02*
X1206Y512D01*
X1209Y512D02*
X1216Y512D01*
X1Y511D02*
X8Y511D01*
X271Y511D02*
X280Y511D01*
X338Y511D02*
X347Y511D01*
X582Y511D02*
X591Y511D01*
X810Y511D02*
X819Y511D01*
X1141Y511D02*
X1150Y511D01*
X1196Y511D02*
X1206Y511D01*
X1209Y511D02*
X1216Y511D01*
X1Y510D02*
X8Y510D01*
X271Y510D02*
X280Y510D01*
X338Y510D02*
X347Y510D01*
X582Y510D02*
X591Y510D01*
X810Y510D02*
X819Y510D01*
X1141Y510D02*
X1150Y510D01*
X1196Y510D02*
X1218Y510D01*
X1Y509D02*
X8Y509D01*
X271Y509D02*
X280Y509D01*
X338Y509D02*
X347Y509D01*
X582Y509D02*
X591Y509D01*
X810Y509D02*
X819Y509D01*
X1141Y509D02*
X1150Y509D01*
X1196Y509D02*
X1218Y509D01*
X1Y508D02*
X8Y508D01*
X271Y508D02*
X280Y508D01*
X338Y508D02*
X347Y508D01*
X582Y508D02*
X591Y508D01*
X810Y508D02*
X819Y508D01*
X1141Y508D02*
X1150Y508D01*
X1196Y508D02*
X1218Y508D01*
X1Y507D02*
X8Y507D01*
X271Y507D02*
X280Y507D01*
X338Y507D02*
X347Y507D01*
X582Y507D02*
X591Y507D01*
X810Y507D02*
X819Y507D01*
X1141Y507D02*
X1150Y507D01*
X1196Y507D02*
X1218Y507D01*
X1Y506D02*
X8Y506D01*
X271Y506D02*
X280Y506D01*
X338Y506D02*
X347Y506D01*
X582Y506D02*
X591Y506D01*
X810Y506D02*
X819Y506D01*
X1141Y506D02*
X1150Y506D01*
X1196Y506D02*
X1218Y506D01*
X1Y505D02*
X8Y505D01*
X271Y505D02*
X280Y505D01*
X338Y505D02*
X347Y505D01*
X582Y505D02*
X591Y505D01*
X810Y505D02*
X819Y505D01*
X1141Y505D02*
X1150Y505D01*
X1196Y505D02*
X1218Y505D01*
X1Y504D02*
X8Y504D01*
X271Y504D02*
X280Y504D01*
X338Y504D02*
X347Y504D01*
X582Y504D02*
X591Y504D01*
X810Y504D02*
X819Y504D01*
X1141Y504D02*
X1150Y504D01*
X1196Y504D02*
X1218Y504D01*
X1Y503D02*
X8Y503D01*
X271Y503D02*
X280Y503D01*
X338Y503D02*
X347Y503D01*
X582Y503D02*
X591Y503D01*
X810Y503D02*
X819Y503D01*
X1141Y503D02*
X1150Y503D01*
X1196Y503D02*
X1218Y503D01*
X1Y502D02*
X8Y502D01*
X271Y502D02*
X280Y502D01*
X338Y502D02*
X347Y502D01*
X582Y502D02*
X591Y502D01*
X810Y502D02*
X819Y502D01*
X1141Y502D02*
X1150Y502D01*
X1196Y502D02*
X1218Y502D01*
X1Y501D02*
X8Y501D01*
X271Y501D02*
X280Y501D01*
X338Y501D02*
X347Y501D01*
X582Y501D02*
X591Y501D01*
X810Y501D02*
X819Y501D01*
X1141Y501D02*
X1150Y501D01*
X1196Y501D02*
X1218Y501D01*
X1Y500D02*
X8Y500D01*
X271Y500D02*
X280Y500D01*
X338Y500D02*
X347Y500D01*
X582Y500D02*
X591Y500D01*
X810Y500D02*
X819Y500D01*
X1141Y500D02*
X1150Y500D01*
X1196Y500D02*
X1205Y500D01*
X1209Y500D02*
X1216Y500D01*
X1Y499D02*
X8Y499D01*
X271Y499D02*
X280Y499D01*
X338Y499D02*
X347Y499D01*
X582Y499D02*
X591Y499D01*
X810Y499D02*
X819Y499D01*
X1141Y499D02*
X1150Y499D01*
X1196Y499D02*
X1205Y499D01*
X1209Y499D02*
X1216Y499D01*
X1Y498D02*
X8Y498D01*
X271Y498D02*
X280Y498D01*
X338Y498D02*
X347Y498D01*
X582Y498D02*
X591Y498D01*
X810Y498D02*
X819Y498D01*
X1141Y498D02*
X1150Y498D01*
X1196Y498D02*
X1205Y498D01*
X1209Y498D02*
X1216Y498D01*
X1Y497D02*
X8Y497D01*
X271Y497D02*
X280Y497D01*
X338Y497D02*
X347Y497D01*
X582Y497D02*
X591Y497D01*
X810Y497D02*
X819Y497D01*
X1141Y497D02*
X1150Y497D01*
X1196Y497D02*
X1205Y497D01*
X1209Y497D02*
X1216Y497D01*
X1Y496D02*
X8Y496D01*
X271Y496D02*
X280Y496D01*
X338Y496D02*
X347Y496D01*
X582Y496D02*
X591Y496D01*
X810Y496D02*
X819Y496D01*
X1141Y496D02*
X1150Y496D01*
X1196Y496D02*
X1205Y496D01*
X1209Y496D02*
X1216Y496D01*
X1Y495D02*
X8Y495D01*
X271Y495D02*
X280Y495D01*
X338Y495D02*
X347Y495D01*
X582Y495D02*
X591Y495D01*
X810Y495D02*
X819Y495D01*
X1141Y495D02*
X1150Y495D01*
X1196Y495D02*
X1205Y495D01*
X1209Y495D02*
X1216Y495D01*
X1Y494D02*
X8Y494D01*
X271Y494D02*
X280Y494D01*
X338Y494D02*
X347Y494D01*
X582Y494D02*
X591Y494D01*
X810Y494D02*
X819Y494D01*
X1141Y494D02*
X1150Y494D01*
X1196Y494D02*
X1205Y494D01*
X1209Y494D02*
X1216Y494D01*
X1Y493D02*
X8Y493D01*
X271Y493D02*
X280Y493D01*
X338Y493D02*
X347Y493D01*
X582Y493D02*
X591Y493D01*
X810Y493D02*
X819Y493D01*
X1141Y493D02*
X1150Y493D01*
X1196Y493D02*
X1205Y493D01*
X1209Y493D02*
X1216Y493D01*
X1Y492D02*
X8Y492D01*
X271Y492D02*
X280Y492D01*
X338Y492D02*
X347Y492D01*
X582Y492D02*
X591Y492D01*
X810Y492D02*
X819Y492D01*
X1141Y492D02*
X1150Y492D01*
X1196Y492D02*
X1205Y492D01*
X1209Y492D02*
X1216Y492D01*
X1Y491D02*
X8Y491D01*
X271Y491D02*
X280Y491D01*
X338Y491D02*
X347Y491D01*
X582Y491D02*
X591Y491D01*
X810Y491D02*
X819Y491D01*
X1141Y491D02*
X1150Y491D01*
X1196Y491D02*
X1205Y491D01*
X1209Y491D02*
X1216Y491D01*
X1Y490D02*
X8Y490D01*
X271Y490D02*
X280Y490D01*
X338Y490D02*
X347Y490D01*
X582Y490D02*
X591Y490D01*
X810Y490D02*
X819Y490D01*
X1141Y490D02*
X1150Y490D01*
X1196Y490D02*
X1205Y490D01*
X1209Y490D02*
X1216Y490D01*
X1Y489D02*
X8Y489D01*
X271Y489D02*
X280Y489D01*
X338Y489D02*
X347Y489D01*
X582Y489D02*
X591Y489D01*
X810Y489D02*
X819Y489D01*
X1141Y489D02*
X1150Y489D01*
X1196Y489D02*
X1205Y489D01*
X1209Y489D02*
X1216Y489D01*
X1Y488D02*
X8Y488D01*
X271Y488D02*
X280Y488D01*
X338Y488D02*
X347Y488D01*
X582Y488D02*
X591Y488D01*
X810Y488D02*
X819Y488D01*
X1141Y488D02*
X1150Y488D01*
X1196Y488D02*
X1205Y488D01*
X1209Y488D02*
X1216Y488D01*
X1Y487D02*
X8Y487D01*
X271Y487D02*
X280Y487D01*
X338Y487D02*
X347Y487D01*
X582Y487D02*
X591Y487D01*
X810Y487D02*
X819Y487D01*
X1141Y487D02*
X1150Y487D01*
X1196Y487D02*
X1205Y487D01*
X1209Y487D02*
X1216Y487D01*
X1Y486D02*
X8Y486D01*
X271Y486D02*
X280Y486D01*
X338Y486D02*
X347Y486D01*
X582Y486D02*
X591Y486D01*
X810Y486D02*
X819Y486D01*
X1141Y486D02*
X1150Y486D01*
X1196Y486D02*
X1205Y486D01*
X1209Y486D02*
X1216Y486D01*
X1Y485D02*
X8Y485D01*
X271Y485D02*
X280Y485D01*
X338Y485D02*
X347Y485D01*
X582Y485D02*
X591Y485D01*
X810Y485D02*
X819Y485D01*
X1141Y485D02*
X1150Y485D01*
X1196Y485D02*
X1205Y485D01*
X1209Y485D02*
X1216Y485D01*
X1Y484D02*
X8Y484D01*
X271Y484D02*
X280Y484D01*
X338Y484D02*
X347Y484D01*
X582Y484D02*
X591Y484D01*
X810Y484D02*
X819Y484D01*
X1141Y484D02*
X1150Y484D01*
X1196Y484D02*
X1205Y484D01*
X1209Y484D02*
X1216Y484D01*
X1Y483D02*
X8Y483D01*
X271Y483D02*
X280Y483D01*
X338Y483D02*
X347Y483D01*
X582Y483D02*
X591Y483D01*
X810Y483D02*
X819Y483D01*
X1141Y483D02*
X1150Y483D01*
X1196Y483D02*
X1205Y483D01*
X1209Y483D02*
X1216Y483D01*
X1Y482D02*
X8Y482D01*
X271Y482D02*
X280Y482D01*
X338Y482D02*
X347Y482D01*
X582Y482D02*
X591Y482D01*
X810Y482D02*
X819Y482D01*
X1141Y482D02*
X1150Y482D01*
X1196Y482D02*
X1205Y482D01*
X1209Y482D02*
X1216Y482D01*
X1Y481D02*
X8Y481D01*
X271Y481D02*
X280Y481D01*
X338Y481D02*
X347Y481D01*
X582Y481D02*
X591Y481D01*
X810Y481D02*
X819Y481D01*
X1141Y481D02*
X1150Y481D01*
X1196Y481D02*
X1205Y481D01*
X1209Y481D02*
X1216Y481D01*
X1Y480D02*
X8Y480D01*
X271Y480D02*
X280Y480D01*
X338Y480D02*
X347Y480D01*
X582Y480D02*
X591Y480D01*
X810Y480D02*
X819Y480D01*
X1141Y480D02*
X1150Y480D01*
X1196Y480D02*
X1205Y480D01*
X1209Y480D02*
X1216Y480D01*
X1Y479D02*
X8Y479D01*
X271Y479D02*
X280Y479D01*
X338Y479D02*
X347Y479D01*
X582Y479D02*
X591Y479D01*
X810Y479D02*
X819Y479D01*
X1141Y479D02*
X1150Y479D01*
X1196Y479D02*
X1205Y479D01*
X1209Y479D02*
X1216Y479D01*
X1Y478D02*
X8Y478D01*
X271Y478D02*
X280Y478D01*
X338Y478D02*
X347Y478D01*
X582Y478D02*
X591Y478D01*
X810Y478D02*
X819Y478D01*
X1141Y478D02*
X1150Y478D01*
X1196Y478D02*
X1205Y478D01*
X1209Y478D02*
X1216Y478D01*
X1Y477D02*
X8Y477D01*
X271Y477D02*
X280Y477D01*
X338Y477D02*
X347Y477D01*
X582Y477D02*
X591Y477D01*
X810Y477D02*
X819Y477D01*
X1141Y477D02*
X1150Y477D01*
X1196Y477D02*
X1205Y477D01*
X1209Y477D02*
X1216Y477D01*
X1Y476D02*
X8Y476D01*
X271Y476D02*
X280Y476D01*
X338Y476D02*
X347Y476D01*
X582Y476D02*
X591Y476D01*
X810Y476D02*
X819Y476D01*
X1141Y476D02*
X1150Y476D01*
X1196Y476D02*
X1205Y476D01*
X1209Y476D02*
X1216Y476D01*
X1Y475D02*
X8Y475D01*
X271Y475D02*
X280Y475D01*
X338Y475D02*
X347Y475D01*
X582Y475D02*
X591Y475D01*
X810Y475D02*
X819Y475D01*
X1141Y475D02*
X1150Y475D01*
X1196Y475D02*
X1205Y475D01*
X1209Y475D02*
X1216Y475D01*
X1Y474D02*
X8Y474D01*
X271Y474D02*
X280Y474D01*
X338Y474D02*
X347Y474D01*
X582Y474D02*
X591Y474D01*
X810Y474D02*
X819Y474D01*
X1141Y474D02*
X1150Y474D01*
X1196Y474D02*
X1205Y474D01*
X1209Y474D02*
X1216Y474D01*
X1Y473D02*
X8Y473D01*
X271Y473D02*
X280Y473D01*
X338Y473D02*
X347Y473D01*
X582Y473D02*
X591Y473D01*
X810Y473D02*
X819Y473D01*
X1141Y473D02*
X1150Y473D01*
X1196Y473D02*
X1205Y473D01*
X1209Y473D02*
X1216Y473D01*
X1Y472D02*
X8Y472D01*
X271Y472D02*
X280Y472D01*
X338Y472D02*
X347Y472D01*
X582Y472D02*
X591Y472D01*
X810Y472D02*
X819Y472D01*
X1196Y472D02*
X1205Y472D01*
X1209Y472D02*
X1216Y472D01*
X1Y471D02*
X8Y471D01*
X271Y471D02*
X280Y471D01*
X338Y471D02*
X347Y471D01*
X582Y471D02*
X591Y471D01*
X810Y471D02*
X819Y471D01*
X1196Y471D02*
X1205Y471D01*
X1209Y471D02*
X1216Y471D01*
X1Y470D02*
X8Y470D01*
X271Y470D02*
X280Y470D01*
X338Y470D02*
X338Y470D01*
X582Y470D02*
X582Y470D01*
X819Y470D02*
X819Y470D01*
X1196Y470D02*
X1205Y470D01*
X1209Y470D02*
X1216Y470D01*
X1Y469D02*
X8Y469D01*
X271Y469D02*
X280Y469D01*
X1196Y469D02*
X1205Y469D01*
X1209Y469D02*
X1216Y469D01*
X1Y468D02*
X8Y468D01*
X271Y468D02*
X280Y468D01*
X1196Y468D02*
X1205Y468D01*
X1209Y468D02*
X1216Y468D01*
X1Y467D02*
X8Y467D01*
X271Y467D02*
X280Y467D01*
X1196Y467D02*
X1205Y467D01*
X1209Y467D02*
X1216Y467D01*
X1Y466D02*
X8Y466D01*
X271Y466D02*
X280Y466D01*
X1196Y466D02*
X1205Y466D01*
X1209Y466D02*
X1216Y466D01*
X1Y465D02*
X8Y465D01*
X271Y465D02*
X280Y465D01*
X1196Y465D02*
X1205Y465D01*
X1209Y465D02*
X1216Y465D01*
X1Y464D02*
X8Y464D01*
X271Y464D02*
X280Y464D01*
X1196Y464D02*
X1205Y464D01*
X1209Y464D02*
X1216Y464D01*
X1Y463D02*
X8Y463D01*
X271Y463D02*
X280Y463D01*
X1196Y463D02*
X1205Y463D01*
X1209Y463D02*
X1216Y463D01*
X1Y462D02*
X8Y462D01*
X271Y462D02*
X280Y462D01*
X1196Y462D02*
X1205Y462D01*
X1209Y462D02*
X1216Y462D01*
X1Y461D02*
X8Y461D01*
X271Y461D02*
X280Y461D01*
X1196Y461D02*
X1205Y461D01*
X1209Y461D02*
X1216Y461D01*
X1Y460D02*
X8Y460D01*
X271Y460D02*
X280Y460D01*
X1196Y460D02*
X1205Y460D01*
X1209Y460D02*
X1216Y460D01*
X1Y459D02*
X8Y459D01*
X271Y459D02*
X280Y459D01*
X1196Y459D02*
X1205Y459D01*
X1209Y459D02*
X1216Y459D01*
X1Y458D02*
X8Y458D01*
X271Y458D02*
X280Y458D01*
X1196Y458D02*
X1205Y458D01*
X1209Y458D02*
X1216Y458D01*
X1Y457D02*
X8Y457D01*
X271Y457D02*
X280Y457D01*
X1196Y457D02*
X1205Y457D01*
X1209Y457D02*
X1216Y457D01*
X1Y456D02*
X8Y456D01*
X271Y456D02*
X280Y456D01*
X1196Y456D02*
X1205Y456D01*
X1209Y456D02*
X1216Y456D01*
X1Y455D02*
X8Y455D01*
X271Y455D02*
X280Y455D01*
X1196Y455D02*
X1205Y455D01*
X1209Y455D02*
X1216Y455D01*
X1Y454D02*
X8Y454D01*
X271Y454D02*
X280Y454D01*
X1196Y454D02*
X1205Y454D01*
X1209Y454D02*
X1216Y454D01*
X1Y453D02*
X8Y453D01*
X271Y453D02*
X280Y453D01*
X1196Y453D02*
X1205Y453D01*
X1209Y453D02*
X1216Y453D01*
X1Y452D02*
X8Y452D01*
X271Y452D02*
X280Y452D01*
X1196Y452D02*
X1205Y452D01*
X1209Y452D02*
X1216Y452D01*
X1Y451D02*
X8Y451D01*
X271Y451D02*
X280Y451D01*
X1196Y451D02*
X1205Y451D01*
X1209Y451D02*
X1216Y451D01*
X1Y450D02*
X8Y450D01*
X271Y450D02*
X280Y450D01*
X1196Y450D02*
X1205Y450D01*
X1209Y450D02*
X1216Y450D01*
X1Y449D02*
X8Y449D01*
X271Y449D02*
X280Y449D01*
X1196Y449D02*
X1205Y449D01*
X1209Y449D02*
X1216Y449D01*
X1Y448D02*
X8Y448D01*
X271Y448D02*
X280Y448D01*
X1196Y448D02*
X1205Y448D01*
X1209Y448D02*
X1216Y448D01*
X1Y447D02*
X8Y447D01*
X271Y447D02*
X280Y447D01*
X1196Y447D02*
X1205Y447D01*
X1209Y447D02*
X1216Y447D01*
X1Y446D02*
X8Y446D01*
X271Y446D02*
X280Y446D01*
X1196Y446D02*
X1205Y446D01*
X1209Y446D02*
X1216Y446D01*
X1Y445D02*
X8Y445D01*
X271Y445D02*
X280Y445D01*
X1196Y445D02*
X1205Y445D01*
X1209Y445D02*
X1216Y445D01*
X1Y444D02*
X8Y444D01*
X271Y444D02*
X280Y444D01*
X1196Y444D02*
X1205Y444D01*
X1209Y444D02*
X1216Y444D01*
X1Y443D02*
X8Y443D01*
X271Y443D02*
X280Y443D01*
X1196Y443D02*
X1205Y443D01*
X1209Y443D02*
X1216Y443D01*
X1Y442D02*
X8Y442D01*
X271Y442D02*
X280Y442D01*
X1196Y442D02*
X1205Y442D01*
X1209Y442D02*
X1216Y442D01*
X1Y441D02*
X8Y441D01*
X271Y441D02*
X280Y441D01*
X1196Y441D02*
X1205Y441D01*
X1209Y441D02*
X1216Y441D01*
X1Y440D02*
X8Y440D01*
X271Y440D02*
X280Y440D01*
X1196Y440D02*
X1205Y440D01*
X1209Y440D02*
X1216Y440D01*
X1Y439D02*
X8Y439D01*
X271Y439D02*
X280Y439D01*
X1196Y439D02*
X1205Y439D01*
X1209Y439D02*
X1216Y439D01*
X1Y438D02*
X8Y438D01*
X271Y438D02*
X280Y438D01*
X1196Y438D02*
X1205Y438D01*
X1209Y438D02*
X1216Y438D01*
X1Y437D02*
X8Y437D01*
X271Y437D02*
X280Y437D01*
X1196Y437D02*
X1205Y437D01*
X1209Y437D02*
X1216Y437D01*
X1Y436D02*
X8Y436D01*
X271Y436D02*
X280Y436D01*
X1196Y436D02*
X1205Y436D01*
X1209Y436D02*
X1216Y436D01*
X1Y435D02*
X8Y435D01*
X271Y435D02*
X280Y435D01*
X1196Y435D02*
X1205Y435D01*
X1209Y435D02*
X1216Y435D01*
X1Y434D02*
X8Y434D01*
X271Y434D02*
X280Y434D01*
X1196Y434D02*
X1205Y434D01*
X1209Y434D02*
X1216Y434D01*
X1Y433D02*
X8Y433D01*
X271Y433D02*
X280Y433D01*
X1196Y433D02*
X1205Y433D01*
X1209Y433D02*
X1216Y433D01*
X1Y432D02*
X8Y432D01*
X271Y432D02*
X280Y432D01*
X1196Y432D02*
X1205Y432D01*
X1209Y432D02*
X1216Y432D01*
X1Y431D02*
X8Y431D01*
X271Y431D02*
X280Y431D01*
X1196Y431D02*
X1205Y431D01*
X1209Y431D02*
X1216Y431D01*
X1Y430D02*
X8Y430D01*
X271Y430D02*
X280Y430D01*
X1196Y430D02*
X1205Y430D01*
X1209Y430D02*
X1216Y430D01*
X1Y429D02*
X8Y429D01*
X271Y429D02*
X280Y429D01*
X1196Y429D02*
X1205Y429D01*
X1209Y429D02*
X1216Y429D01*
X1Y428D02*
X8Y428D01*
X271Y428D02*
X280Y428D01*
X1196Y428D02*
X1205Y428D01*
X1209Y428D02*
X1216Y428D01*
X1Y427D02*
X8Y427D01*
X271Y427D02*
X280Y427D01*
X1196Y427D02*
X1205Y427D01*
X1209Y427D02*
X1216Y427D01*
X1Y426D02*
X8Y426D01*
X271Y426D02*
X280Y426D01*
X1196Y426D02*
X1205Y426D01*
X1209Y426D02*
X1216Y426D01*
X1Y425D02*
X8Y425D01*
X271Y425D02*
X280Y425D01*
X1196Y425D02*
X1205Y425D01*
X1209Y425D02*
X1216Y425D01*
X1Y424D02*
X8Y424D01*
X271Y424D02*
X280Y424D01*
X1196Y424D02*
X1205Y424D01*
X1209Y424D02*
X1216Y424D01*
X1Y423D02*
X8Y423D01*
X271Y423D02*
X280Y423D01*
X1196Y423D02*
X1205Y423D01*
X1209Y423D02*
X1216Y423D01*
X1Y422D02*
X8Y422D01*
X271Y422D02*
X280Y422D01*
X1196Y422D02*
X1205Y422D01*
X1209Y422D02*
X1216Y422D01*
X1Y421D02*
X8Y421D01*
X271Y421D02*
X280Y421D01*
X1196Y421D02*
X1205Y421D01*
X1209Y421D02*
X1216Y421D01*
X1Y420D02*
X8Y420D01*
X271Y420D02*
X280Y420D01*
X1196Y420D02*
X1205Y420D01*
X1209Y420D02*
X1216Y420D01*
X1Y419D02*
X8Y419D01*
X271Y419D02*
X280Y419D01*
X1196Y419D02*
X1205Y419D01*
X1209Y419D02*
X1216Y419D01*
X1Y418D02*
X8Y418D01*
X271Y418D02*
X280Y418D01*
X1196Y418D02*
X1205Y418D01*
X1209Y418D02*
X1216Y418D01*
X1Y417D02*
X8Y417D01*
X271Y417D02*
X280Y417D01*
X1196Y417D02*
X1205Y417D01*
X1209Y417D02*
X1216Y417D01*
X1Y416D02*
X8Y416D01*
X271Y416D02*
X280Y416D01*
X1196Y416D02*
X1205Y416D01*
X1209Y416D02*
X1216Y416D01*
X1Y415D02*
X8Y415D01*
X271Y415D02*
X280Y415D01*
X1196Y415D02*
X1205Y415D01*
X1209Y415D02*
X1216Y415D01*
X1Y414D02*
X8Y414D01*
X271Y414D02*
X280Y414D01*
X1196Y414D02*
X1205Y414D01*
X1209Y414D02*
X1216Y414D01*
X1Y413D02*
X8Y413D01*
X271Y413D02*
X280Y413D01*
X1196Y413D02*
X1205Y413D01*
X1209Y413D02*
X1216Y413D01*
X1Y412D02*
X8Y412D01*
X271Y412D02*
X280Y412D01*
X1196Y412D02*
X1205Y412D01*
X1209Y412D02*
X1216Y412D01*
X1Y411D02*
X8Y411D01*
X271Y411D02*
X280Y411D01*
X1196Y411D02*
X1205Y411D01*
X1209Y411D02*
X1216Y411D01*
X1Y410D02*
X8Y410D01*
X271Y410D02*
X280Y410D01*
X1196Y410D02*
X1205Y410D01*
X1209Y410D02*
X1216Y410D01*
X1Y409D02*
X8Y409D01*
X271Y409D02*
X280Y409D01*
X1196Y409D02*
X1205Y409D01*
X1209Y409D02*
X1216Y409D01*
X1Y408D02*
X8Y408D01*
X271Y408D02*
X280Y408D01*
X1196Y408D02*
X1205Y408D01*
X1209Y408D02*
X1216Y408D01*
X1Y407D02*
X8Y407D01*
X271Y407D02*
X280Y407D01*
X1196Y407D02*
X1205Y407D01*
X1209Y407D02*
X1216Y407D01*
X1Y406D02*
X8Y406D01*
X271Y406D02*
X280Y406D01*
X1196Y406D02*
X1205Y406D01*
X1209Y406D02*
X1216Y406D01*
X1Y405D02*
X8Y405D01*
X271Y405D02*
X280Y405D01*
X1196Y405D02*
X1205Y405D01*
X1209Y405D02*
X1216Y405D01*
X1Y404D02*
X8Y404D01*
X271Y404D02*
X280Y404D01*
X1196Y404D02*
X1205Y404D01*
X1209Y404D02*
X1216Y404D01*
X1Y403D02*
X8Y403D01*
X271Y403D02*
X280Y403D01*
X1196Y403D02*
X1205Y403D01*
X1209Y403D02*
X1216Y403D01*
X1Y402D02*
X8Y402D01*
X271Y402D02*
X280Y402D01*
X1196Y402D02*
X1205Y402D01*
X1209Y402D02*
X1216Y402D01*
X1Y401D02*
X8Y401D01*
X271Y401D02*
X280Y401D01*
X1196Y401D02*
X1205Y401D01*
X1209Y401D02*
X1216Y401D01*
X1Y400D02*
X8Y400D01*
X271Y400D02*
X280Y400D01*
X1196Y400D02*
X1205Y400D01*
X1209Y400D02*
X1216Y400D01*
X1Y399D02*
X8Y399D01*
X271Y399D02*
X280Y399D01*
X1196Y399D02*
X1205Y399D01*
X1209Y399D02*
X1216Y399D01*
X1Y398D02*
X8Y398D01*
X271Y398D02*
X280Y398D01*
X1196Y398D02*
X1205Y398D01*
X1209Y398D02*
X1216Y398D01*
X1Y397D02*
X8Y397D01*
X271Y397D02*
X280Y397D01*
X1196Y397D02*
X1205Y397D01*
X1209Y397D02*
X1216Y397D01*
X1Y396D02*
X8Y396D01*
X271Y396D02*
X280Y396D01*
X1196Y396D02*
X1205Y396D01*
X1209Y396D02*
X1216Y396D01*
X1Y395D02*
X8Y395D01*
X271Y395D02*
X280Y395D01*
X1196Y395D02*
X1205Y395D01*
X1209Y395D02*
X1216Y395D01*
X1Y394D02*
X8Y394D01*
X271Y394D02*
X280Y394D01*
X1196Y394D02*
X1205Y394D01*
X1209Y394D02*
X1216Y394D01*
X1Y393D02*
X8Y393D01*
X271Y393D02*
X280Y393D01*
X1196Y393D02*
X1205Y393D01*
X1209Y393D02*
X1216Y393D01*
X1Y392D02*
X8Y392D01*
X271Y392D02*
X280Y392D01*
X1196Y392D02*
X1205Y392D01*
X1209Y392D02*
X1216Y392D01*
X1Y391D02*
X8Y391D01*
X271Y391D02*
X280Y391D01*
X1196Y391D02*
X1205Y391D01*
X1209Y391D02*
X1216Y391D01*
X1Y390D02*
X8Y390D01*
X271Y390D02*
X280Y390D01*
X1196Y390D02*
X1205Y390D01*
X1209Y390D02*
X1216Y390D01*
X1Y389D02*
X8Y389D01*
X271Y389D02*
X280Y389D01*
X1196Y389D02*
X1205Y389D01*
X1209Y389D02*
X1216Y389D01*
X1Y388D02*
X8Y388D01*
X271Y388D02*
X280Y388D01*
X1196Y388D02*
X1205Y388D01*
X1209Y388D02*
X1216Y388D01*
X1Y387D02*
X8Y387D01*
X271Y387D02*
X280Y387D01*
X1196Y387D02*
X1205Y387D01*
X1209Y387D02*
X1216Y387D01*
X1Y386D02*
X8Y386D01*
X271Y386D02*
X280Y386D01*
X1196Y386D02*
X1205Y386D01*
X1209Y386D02*
X1216Y386D01*
X1Y385D02*
X8Y385D01*
X271Y385D02*
X280Y385D01*
X1196Y385D02*
X1205Y385D01*
X1209Y385D02*
X1216Y385D01*
X1Y384D02*
X8Y384D01*
X271Y384D02*
X280Y384D01*
X1196Y384D02*
X1205Y384D01*
X1209Y384D02*
X1216Y384D01*
X1Y383D02*
X8Y383D01*
X271Y383D02*
X280Y383D01*
X1196Y383D02*
X1205Y383D01*
X1209Y383D02*
X1216Y383D01*
X1Y382D02*
X8Y382D01*
X271Y382D02*
X280Y382D01*
X1196Y382D02*
X1205Y382D01*
X1209Y382D02*
X1216Y382D01*
X1Y381D02*
X8Y381D01*
X271Y381D02*
X280Y381D01*
X1196Y381D02*
X1205Y381D01*
X1209Y381D02*
X1216Y381D01*
X1Y380D02*
X8Y380D01*
X271Y380D02*
X280Y380D01*
X1196Y380D02*
X1205Y380D01*
X1209Y380D02*
X1216Y380D01*
X1Y379D02*
X8Y379D01*
X271Y379D02*
X280Y379D01*
X1196Y379D02*
X1205Y379D01*
X1209Y379D02*
X1216Y379D01*
X1Y378D02*
X8Y378D01*
X271Y378D02*
X280Y378D01*
X1196Y378D02*
X1205Y378D01*
X1209Y378D02*
X1216Y378D01*
X1Y377D02*
X8Y377D01*
X271Y377D02*
X280Y377D01*
X1196Y377D02*
X1205Y377D01*
X1209Y377D02*
X1216Y377D01*
X1Y376D02*
X8Y376D01*
X271Y376D02*
X280Y376D01*
X1196Y376D02*
X1205Y376D01*
X1209Y376D02*
X1216Y376D01*
X1Y375D02*
X8Y375D01*
X271Y375D02*
X280Y375D01*
X1196Y375D02*
X1205Y375D01*
X1209Y375D02*
X1216Y375D01*
X1Y374D02*
X8Y374D01*
X271Y374D02*
X280Y374D01*
X1196Y374D02*
X1205Y374D01*
X1209Y374D02*
X1216Y374D01*
X1Y373D02*
X8Y373D01*
X271Y373D02*
X280Y373D01*
X1196Y373D02*
X1205Y373D01*
X1209Y373D02*
X1216Y373D01*
X1Y372D02*
X8Y372D01*
X271Y372D02*
X280Y372D01*
X1196Y372D02*
X1205Y372D01*
X1209Y372D02*
X1216Y372D01*
X1Y371D02*
X8Y371D01*
X271Y371D02*
X280Y371D01*
X1196Y371D02*
X1205Y371D01*
X1209Y371D02*
X1216Y371D01*
X1Y370D02*
X8Y370D01*
X271Y370D02*
X280Y370D01*
X1196Y370D02*
X1205Y370D01*
X1209Y370D02*
X1216Y370D01*
X1Y369D02*
X8Y369D01*
X271Y369D02*
X280Y369D01*
X1196Y369D02*
X1205Y369D01*
X1209Y369D02*
X1216Y369D01*
X1Y368D02*
X8Y368D01*
X271Y368D02*
X280Y368D01*
X1196Y368D02*
X1205Y368D01*
X1209Y368D02*
X1216Y368D01*
X1Y367D02*
X8Y367D01*
X271Y367D02*
X280Y367D01*
X1196Y367D02*
X1205Y367D01*
X1209Y367D02*
X1216Y367D01*
X1Y366D02*
X8Y366D01*
X271Y366D02*
X280Y366D01*
X1196Y366D02*
X1205Y366D01*
X1209Y366D02*
X1216Y366D01*
X1Y365D02*
X8Y365D01*
X271Y365D02*
X280Y365D01*
X1196Y365D02*
X1205Y365D01*
X1209Y365D02*
X1216Y365D01*
X1Y364D02*
X8Y364D01*
X271Y364D02*
X280Y364D01*
X1196Y364D02*
X1205Y364D01*
X1209Y364D02*
X1216Y364D01*
X1Y363D02*
X8Y363D01*
X271Y363D02*
X280Y363D01*
X1196Y363D02*
X1205Y363D01*
X1209Y363D02*
X1216Y363D01*
X1Y362D02*
X8Y362D01*
X271Y362D02*
X280Y362D01*
X1196Y362D02*
X1205Y362D01*
X1209Y362D02*
X1216Y362D01*
X1Y361D02*
X8Y361D01*
X271Y361D02*
X280Y361D01*
X1196Y361D02*
X1205Y361D01*
X1209Y361D02*
X1216Y361D01*
X1Y360D02*
X8Y360D01*
X271Y360D02*
X280Y360D01*
X1196Y360D02*
X1205Y360D01*
X1209Y360D02*
X1216Y360D01*
X1Y359D02*
X8Y359D01*
X271Y359D02*
X280Y359D01*
X1196Y359D02*
X1205Y359D01*
X1209Y359D02*
X1216Y359D01*
X1Y358D02*
X8Y358D01*
X271Y358D02*
X280Y358D01*
X1196Y358D02*
X1205Y358D01*
X1209Y358D02*
X1216Y358D01*
X1Y357D02*
X8Y357D01*
X271Y357D02*
X280Y357D01*
X1196Y357D02*
X1205Y357D01*
X1209Y357D02*
X1216Y357D01*
X1Y356D02*
X8Y356D01*
X271Y356D02*
X280Y356D01*
X1196Y356D02*
X1205Y356D01*
X1209Y356D02*
X1216Y356D01*
X1Y355D02*
X8Y355D01*
X271Y355D02*
X280Y355D01*
X1196Y355D02*
X1205Y355D01*
X1209Y355D02*
X1216Y355D01*
X1Y354D02*
X8Y354D01*
X271Y354D02*
X280Y354D01*
X1196Y354D02*
X1205Y354D01*
X1209Y354D02*
X1216Y354D01*
X1Y353D02*
X8Y353D01*
X271Y353D02*
X280Y353D01*
X1196Y353D02*
X1205Y353D01*
X1209Y353D02*
X1216Y353D01*
X1Y352D02*
X8Y352D01*
X271Y352D02*
X280Y352D01*
X1196Y352D02*
X1205Y352D01*
X1209Y352D02*
X1216Y352D01*
X1Y351D02*
X8Y351D01*
X271Y351D02*
X280Y351D01*
X1196Y351D02*
X1205Y351D01*
X1209Y351D02*
X1216Y351D01*
X1Y350D02*
X8Y350D01*
X271Y350D02*
X280Y350D01*
X1196Y350D02*
X1205Y350D01*
X1209Y350D02*
X1216Y350D01*
X1Y349D02*
X8Y349D01*
X271Y349D02*
X280Y349D01*
X1196Y349D02*
X1205Y349D01*
X1209Y349D02*
X1216Y349D01*
X1Y348D02*
X8Y348D01*
X271Y348D02*
X280Y348D01*
X1196Y348D02*
X1205Y348D01*
X1209Y348D02*
X1216Y348D01*
X1Y347D02*
X8Y347D01*
X271Y347D02*
X280Y347D01*
X1196Y347D02*
X1205Y347D01*
X1209Y347D02*
X1216Y347D01*
X1Y346D02*
X8Y346D01*
X271Y346D02*
X280Y346D01*
X1196Y346D02*
X1205Y346D01*
X1209Y346D02*
X1216Y346D01*
X1Y345D02*
X8Y345D01*
X271Y345D02*
X280Y345D01*
X1196Y345D02*
X1205Y345D01*
X1209Y345D02*
X1216Y345D01*
X1Y344D02*
X8Y344D01*
X271Y344D02*
X280Y344D01*
X1196Y344D02*
X1205Y344D01*
X1209Y344D02*
X1216Y344D01*
X1Y343D02*
X8Y343D01*
X271Y343D02*
X280Y343D01*
X1196Y343D02*
X1205Y343D01*
X1209Y343D02*
X1216Y343D01*
X1Y342D02*
X8Y342D01*
X271Y342D02*
X280Y342D01*
X1196Y342D02*
X1205Y342D01*
X1209Y342D02*
X1216Y342D01*
X1Y341D02*
X8Y341D01*
X271Y341D02*
X280Y341D01*
X1196Y341D02*
X1205Y341D01*
X1209Y341D02*
X1216Y341D01*
X1Y340D02*
X8Y340D01*
X271Y340D02*
X280Y340D01*
X1196Y340D02*
X1205Y340D01*
X1209Y340D02*
X1216Y340D01*
X1Y339D02*
X8Y339D01*
X271Y339D02*
X280Y339D01*
X1196Y339D02*
X1205Y339D01*
X1209Y339D02*
X1216Y339D01*
X1Y338D02*
X8Y338D01*
X271Y338D02*
X280Y338D01*
X1196Y338D02*
X1205Y338D01*
X1209Y338D02*
X1216Y338D01*
X1Y337D02*
X8Y337D01*
X271Y337D02*
X280Y337D01*
X1196Y337D02*
X1205Y337D01*
X1209Y337D02*
X1216Y337D01*
X1Y336D02*
X8Y336D01*
X271Y336D02*
X280Y336D01*
X1196Y336D02*
X1205Y336D01*
X1209Y336D02*
X1216Y336D01*
X1Y335D02*
X8Y335D01*
X271Y335D02*
X280Y335D01*
X1196Y335D02*
X1205Y335D01*
X1209Y335D02*
X1216Y335D01*
X1Y334D02*
X8Y334D01*
X271Y334D02*
X280Y334D01*
X1196Y334D02*
X1205Y334D01*
X1209Y334D02*
X1216Y334D01*
X1Y333D02*
X8Y333D01*
X271Y333D02*
X280Y333D01*
X1196Y333D02*
X1205Y333D01*
X1209Y333D02*
X1216Y333D01*
X1Y332D02*
X8Y332D01*
X271Y332D02*
X280Y332D01*
X1196Y332D02*
X1205Y332D01*
X1209Y332D02*
X1216Y332D01*
X1Y331D02*
X8Y331D01*
X271Y331D02*
X280Y331D01*
X1196Y331D02*
X1205Y331D01*
X1209Y331D02*
X1216Y331D01*
X1Y330D02*
X8Y330D01*
X271Y330D02*
X280Y330D01*
X1196Y330D02*
X1205Y330D01*
X1209Y330D02*
X1216Y330D01*
X1Y329D02*
X8Y329D01*
X271Y329D02*
X280Y329D01*
X1196Y329D02*
X1205Y329D01*
X1209Y329D02*
X1216Y329D01*
X1Y328D02*
X8Y328D01*
X271Y328D02*
X280Y328D01*
X1196Y328D02*
X1205Y328D01*
X1209Y328D02*
X1216Y328D01*
X1Y327D02*
X8Y327D01*
X271Y327D02*
X280Y327D01*
X1196Y327D02*
X1205Y327D01*
X1209Y327D02*
X1216Y327D01*
X1Y326D02*
X8Y326D01*
X271Y326D02*
X280Y326D01*
X1196Y326D02*
X1205Y326D01*
X1209Y326D02*
X1216Y326D01*
X1Y325D02*
X8Y325D01*
X271Y325D02*
X280Y325D01*
X1196Y325D02*
X1205Y325D01*
X1209Y325D02*
X1216Y325D01*
X1Y324D02*
X8Y324D01*
X271Y324D02*
X280Y324D01*
X1196Y324D02*
X1205Y324D01*
X1209Y324D02*
X1216Y324D01*
X1Y323D02*
X8Y323D01*
X271Y323D02*
X280Y323D01*
X1196Y323D02*
X1205Y323D01*
X1209Y323D02*
X1216Y323D01*
X1Y322D02*
X8Y322D01*
X271Y322D02*
X280Y322D01*
X1196Y322D02*
X1205Y322D01*
X1209Y322D02*
X1216Y322D01*
X1Y321D02*
X8Y321D01*
X271Y321D02*
X280Y321D01*
X1196Y321D02*
X1205Y321D01*
X1209Y321D02*
X1216Y321D01*
X1Y320D02*
X8Y320D01*
X271Y320D02*
X280Y320D01*
X1196Y320D02*
X1205Y320D01*
X1209Y320D02*
X1216Y320D01*
X1Y319D02*
X8Y319D01*
X271Y319D02*
X280Y319D01*
X1196Y319D02*
X1205Y319D01*
X1209Y319D02*
X1216Y319D01*
X1Y318D02*
X8Y318D01*
X271Y318D02*
X280Y318D01*
X1196Y318D02*
X1205Y318D01*
X1209Y318D02*
X1216Y318D01*
X1Y317D02*
X8Y317D01*
X271Y317D02*
X280Y317D01*
X1196Y317D02*
X1205Y317D01*
X1209Y317D02*
X1216Y317D01*
X1Y316D02*
X8Y316D01*
X271Y316D02*
X280Y316D01*
X1196Y316D02*
X1205Y316D01*
X1209Y316D02*
X1216Y316D01*
X1Y315D02*
X8Y315D01*
X271Y315D02*
X280Y315D01*
X1196Y315D02*
X1205Y315D01*
X1209Y315D02*
X1216Y315D01*
X1Y314D02*
X8Y314D01*
X271Y314D02*
X280Y314D01*
X1196Y314D02*
X1205Y314D01*
X1209Y314D02*
X1216Y314D01*
X1Y313D02*
X8Y313D01*
X271Y313D02*
X280Y313D01*
X1196Y313D02*
X1205Y313D01*
X1209Y313D02*
X1216Y313D01*
X1Y312D02*
X8Y312D01*
X271Y312D02*
X280Y312D01*
X1196Y312D02*
X1205Y312D01*
X1209Y312D02*
X1216Y312D01*
X1Y311D02*
X8Y311D01*
X271Y311D02*
X280Y311D01*
X1196Y311D02*
X1205Y311D01*
X1209Y311D02*
X1216Y311D01*
X1Y310D02*
X8Y310D01*
X271Y310D02*
X280Y310D01*
X1196Y310D02*
X1205Y310D01*
X1209Y310D02*
X1216Y310D01*
X1Y309D02*
X8Y309D01*
X271Y309D02*
X280Y309D01*
X1196Y309D02*
X1205Y309D01*
X1209Y309D02*
X1216Y309D01*
X1Y308D02*
X8Y308D01*
X271Y308D02*
X280Y308D01*
X1196Y308D02*
X1205Y308D01*
X1209Y308D02*
X1216Y308D01*
X1Y307D02*
X8Y307D01*
X271Y307D02*
X280Y307D01*
X1196Y307D02*
X1205Y307D01*
X1209Y307D02*
X1216Y307D01*
X1Y306D02*
X8Y306D01*
X271Y306D02*
X280Y306D01*
X1196Y306D02*
X1205Y306D01*
X1209Y306D02*
X1216Y306D01*
X1Y305D02*
X8Y305D01*
X271Y305D02*
X280Y305D01*
X1196Y305D02*
X1205Y305D01*
X1209Y305D02*
X1216Y305D01*
X1Y304D02*
X8Y304D01*
X271Y304D02*
X280Y304D01*
X1196Y304D02*
X1205Y304D01*
X1209Y304D02*
X1216Y304D01*
X1Y303D02*
X8Y303D01*
X271Y303D02*
X280Y303D01*
X1196Y303D02*
X1205Y303D01*
X1209Y303D02*
X1216Y303D01*
X1Y302D02*
X8Y302D01*
X271Y302D02*
X280Y302D01*
X1196Y302D02*
X1205Y302D01*
X1209Y302D02*
X1216Y302D01*
X1Y301D02*
X8Y301D01*
X271Y301D02*
X280Y301D01*
X1196Y301D02*
X1205Y301D01*
X1209Y301D02*
X1216Y301D01*
X1Y300D02*
X8Y300D01*
X271Y300D02*
X280Y300D01*
X1196Y300D02*
X1205Y300D01*
X1209Y300D02*
X1216Y300D01*
X1Y299D02*
X8Y299D01*
X271Y299D02*
X280Y299D01*
X1196Y299D02*
X1205Y299D01*
X1209Y299D02*
X1216Y299D01*
X1Y298D02*
X8Y298D01*
X271Y298D02*
X280Y298D01*
X1196Y298D02*
X1205Y298D01*
X1209Y298D02*
X1216Y298D01*
X1Y297D02*
X8Y297D01*
X271Y297D02*
X280Y297D01*
X1196Y297D02*
X1205Y297D01*
X1209Y297D02*
X1216Y297D01*
X1Y296D02*
X8Y296D01*
X271Y296D02*
X280Y296D01*
X1196Y296D02*
X1205Y296D01*
X1209Y296D02*
X1216Y296D01*
X1Y295D02*
X8Y295D01*
X271Y295D02*
X280Y295D01*
X1196Y295D02*
X1205Y295D01*
X1209Y295D02*
X1216Y295D01*
X1Y294D02*
X8Y294D01*
X271Y294D02*
X280Y294D01*
X1196Y294D02*
X1205Y294D01*
X1209Y294D02*
X1216Y294D01*
X1Y293D02*
X8Y293D01*
X271Y293D02*
X280Y293D01*
X1196Y293D02*
X1205Y293D01*
X1209Y293D02*
X1216Y293D01*
X1Y292D02*
X8Y292D01*
X271Y292D02*
X280Y292D01*
X1196Y292D02*
X1205Y292D01*
X1209Y292D02*
X1216Y292D01*
X1Y291D02*
X8Y291D01*
X271Y291D02*
X280Y291D01*
X1196Y291D02*
X1205Y291D01*
X1209Y291D02*
X1216Y291D01*
X1Y290D02*
X8Y290D01*
X271Y290D02*
X280Y290D01*
X1196Y290D02*
X1205Y290D01*
X1209Y290D02*
X1216Y290D01*
X1Y289D02*
X8Y289D01*
X271Y289D02*
X280Y289D01*
X1196Y289D02*
X1205Y289D01*
X1209Y289D02*
X1216Y289D01*
X1Y288D02*
X8Y288D01*
X271Y288D02*
X280Y288D01*
X1196Y288D02*
X1205Y288D01*
X1209Y288D02*
X1216Y288D01*
X1Y287D02*
X8Y287D01*
X271Y287D02*
X280Y287D01*
X1196Y287D02*
X1205Y287D01*
X1209Y287D02*
X1216Y287D01*
X1Y286D02*
X8Y286D01*
X271Y286D02*
X280Y286D01*
X1196Y286D02*
X1205Y286D01*
X1209Y286D02*
X1216Y286D01*
X1Y285D02*
X8Y285D01*
X271Y285D02*
X280Y285D01*
X1196Y285D02*
X1205Y285D01*
X1209Y285D02*
X1216Y285D01*
X1Y284D02*
X8Y284D01*
X271Y284D02*
X280Y284D01*
X1196Y284D02*
X1205Y284D01*
X1209Y284D02*
X1216Y284D01*
X1Y283D02*
X8Y283D01*
X271Y283D02*
X280Y283D01*
X1196Y283D02*
X1205Y283D01*
X1209Y283D02*
X1216Y283D01*
X1Y282D02*
X8Y282D01*
X271Y282D02*
X280Y282D01*
X1196Y282D02*
X1205Y282D01*
X1209Y282D02*
X1216Y282D01*
X1Y281D02*
X8Y281D01*
X271Y281D02*
X280Y281D01*
X1196Y281D02*
X1205Y281D01*
X1209Y281D02*
X1216Y281D01*
X1Y280D02*
X8Y280D01*
X271Y280D02*
X280Y280D01*
X1196Y280D02*
X1205Y280D01*
X1209Y280D02*
X1216Y280D01*
X1Y279D02*
X8Y279D01*
X271Y279D02*
X1205Y279D01*
X1209Y279D02*
X1216Y279D01*
X1Y278D02*
X8Y278D01*
X271Y278D02*
X1205Y278D01*
X1209Y278D02*
X1216Y278D01*
X1Y277D02*
X8Y277D01*
X271Y277D02*
X1205Y277D01*
X1209Y277D02*
X1216Y277D01*
X1Y276D02*
X8Y276D01*
X271Y276D02*
X1205Y276D01*
X1209Y276D02*
X1216Y276D01*
X1Y275D02*
X8Y275D01*
X271Y275D02*
X1205Y275D01*
X1209Y275D02*
X1216Y275D01*
X1Y274D02*
X8Y274D01*
X271Y274D02*
X1205Y274D01*
X1209Y274D02*
X1216Y274D01*
X1Y273D02*
X8Y273D01*
X271Y273D02*
X1205Y273D01*
X1209Y273D02*
X1216Y273D01*
X1Y272D02*
X8Y272D01*
X271Y272D02*
X1205Y272D01*
X1209Y272D02*
X1216Y272D01*
X1Y271D02*
X8Y271D01*
X271Y271D02*
X1205Y271D01*
X1209Y271D02*
X1216Y271D01*
X1Y270D02*
X8Y270D01*
X271Y270D02*
X1205Y270D01*
X1209Y270D02*
X1216Y270D01*
X1Y269D02*
X8Y269D01*
X1209Y269D02*
X1216Y269D01*
X1Y268D02*
X8Y268D01*
X1209Y268D02*
X1216Y268D01*
X1Y267D02*
X8Y267D01*
X1209Y267D02*
X1216Y267D01*
X1Y266D02*
X8Y266D01*
X1209Y266D02*
X1216Y266D01*
X1Y265D02*
X8Y265D01*
X1209Y265D02*
X1216Y265D01*
X1Y264D02*
X8Y264D01*
X1209Y264D02*
X1216Y264D01*
X1Y263D02*
X8Y263D01*
X1209Y263D02*
X1216Y263D01*
X1Y262D02*
X8Y262D01*
X1209Y262D02*
X1216Y262D01*
X1Y261D02*
X8Y261D01*
X1209Y261D02*
X1216Y261D01*
X1Y260D02*
X8Y260D01*
X1209Y260D02*
X1216Y260D01*
X1Y259D02*
X8Y259D01*
X1209Y259D02*
X1216Y259D01*
X1Y258D02*
X8Y258D01*
X1209Y258D02*
X1216Y258D01*
X1Y257D02*
X8Y257D01*
X1209Y257D02*
X1216Y257D01*
X1Y256D02*
X8Y256D01*
X1209Y256D02*
X1216Y256D01*
X1Y255D02*
X8Y255D01*
X1209Y255D02*
X1216Y255D01*
X1Y254D02*
X8Y254D01*
X1209Y254D02*
X1216Y254D01*
X1Y253D02*
X8Y253D01*
X1209Y253D02*
X1216Y253D01*
X1Y252D02*
X8Y252D01*
X1209Y252D02*
X1216Y252D01*
X1Y251D02*
X8Y251D01*
X1209Y251D02*
X1216Y251D01*
X1Y250D02*
X8Y250D01*
X1209Y250D02*
X1216Y250D01*
X1Y249D02*
X8Y249D01*
X1209Y249D02*
X1216Y249D01*
X1Y248D02*
X8Y248D01*
X1209Y248D02*
X1216Y248D01*
X1Y247D02*
X8Y247D01*
X283Y247D02*
X284Y247D01*
X303Y247D02*
X304Y247D01*
X321Y247D02*
X336Y247D01*
X353Y247D02*
X368Y247D01*
X539Y247D02*
X550Y247D01*
X565Y247D02*
X581Y247D01*
X601Y247D02*
X602Y247D01*
X847Y247D02*
X858Y247D01*
X917Y247D02*
X929Y247D01*
X1209Y247D02*
X1216Y247D01*
X1Y246D02*
X8Y246D01*
X282Y246D02*
X285Y246D01*
X302Y246D02*
X305Y246D01*
X319Y246D02*
X337Y246D01*
X352Y246D02*
X370Y246D01*
X537Y246D02*
X551Y246D01*
X564Y246D02*
X582Y246D01*
X600Y246D02*
X603Y246D01*
X846Y246D02*
X859Y246D01*
X916Y246D02*
X929Y246D01*
X1209Y246D02*
X1216Y246D01*
X1Y245D02*
X8Y245D01*
X282Y245D02*
X286Y245D01*
X301Y245D02*
X305Y245D01*
X318Y245D02*
X339Y245D01*
X352Y245D02*
X372Y245D01*
X429Y245D02*
X430Y245D01*
X536Y245D02*
X552Y245D01*
X564Y245D02*
X582Y245D01*
X600Y245D02*
X604Y245D01*
X845Y245D02*
X859Y245D01*
X916Y245D02*
X929Y245D01*
X1209Y245D02*
X1216Y245D01*
X1Y244D02*
X8Y244D01*
X282Y244D02*
X286Y244D01*
X301Y244D02*
X305Y244D01*
X318Y244D02*
X339Y244D01*
X352Y244D02*
X373Y244D01*
X428Y244D02*
X431Y244D01*
X535Y244D02*
X551Y244D01*
X564Y244D02*
X582Y244D01*
X600Y244D02*
X604Y244D01*
X845Y244D02*
X859Y244D01*
X916Y244D02*
X929Y244D01*
X1209Y244D02*
X1216Y244D01*
X1Y243D02*
X8Y243D01*
X282Y243D02*
X286Y243D01*
X301Y243D02*
X305Y243D01*
X317Y243D02*
X340Y243D01*
X352Y243D02*
X374Y243D01*
X428Y243D02*
X431Y243D01*
X534Y243D02*
X551Y243D01*
X564Y243D02*
X581Y243D01*
X600Y243D02*
X604Y243D01*
X616Y243D02*
X616Y243D01*
X846Y243D02*
X859Y243D01*
X917Y243D02*
X929Y243D01*
X1209Y243D02*
X1216Y243D01*
X1Y242D02*
X8Y242D01*
X282Y242D02*
X286Y242D01*
X301Y242D02*
X305Y242D01*
X317Y242D02*
X321Y242D01*
X336Y242D02*
X340Y242D01*
X352Y242D02*
X356Y242D01*
X368Y242D02*
X374Y242D01*
X428Y242D02*
X431Y242D01*
X534Y242D02*
X539Y242D01*
X564Y242D02*
X568Y242D01*
X600Y242D02*
X604Y242D01*
X615Y242D02*
X618Y242D01*
X855Y242D02*
X859Y242D01*
X925Y242D02*
X929Y242D01*
X1209Y242D02*
X1216Y242D01*
X1Y241D02*
X8Y241D01*
X282Y241D02*
X286Y241D01*
X301Y241D02*
X305Y241D01*
X317Y241D02*
X321Y241D01*
X336Y241D02*
X340Y241D01*
X352Y241D02*
X356Y241D01*
X370Y241D02*
X375Y241D01*
X428Y241D02*
X431Y241D01*
X533Y241D02*
X538Y241D01*
X564Y241D02*
X568Y241D01*
X600Y241D02*
X604Y241D01*
X614Y241D02*
X618Y241D01*
X855Y241D02*
X859Y241D01*
X925Y241D02*
X929Y241D01*
X1209Y241D02*
X1216Y241D01*
X1Y240D02*
X8Y240D01*
X282Y240D02*
X286Y240D01*
X301Y240D02*
X305Y240D01*
X317Y240D02*
X322Y240D01*
X337Y240D02*
X340Y240D01*
X352Y240D02*
X356Y240D01*
X371Y240D02*
X375Y240D01*
X428Y240D02*
X431Y240D01*
X533Y240D02*
X537Y240D01*
X564Y240D02*
X568Y240D01*
X600Y240D02*
X604Y240D01*
X614Y240D02*
X618Y240D01*
X855Y240D02*
X859Y240D01*
X925Y240D02*
X929Y240D01*
X1209Y240D02*
X1216Y240D01*
X1Y239D02*
X8Y239D01*
X282Y239D02*
X286Y239D01*
X301Y239D02*
X305Y239D01*
X318Y239D02*
X323Y239D01*
X337Y239D02*
X340Y239D01*
X352Y239D02*
X356Y239D01*
X371Y239D02*
X375Y239D01*
X428Y239D02*
X431Y239D01*
X532Y239D02*
X537Y239D01*
X564Y239D02*
X568Y239D01*
X600Y239D02*
X604Y239D01*
X614Y239D02*
X618Y239D01*
X855Y239D02*
X859Y239D01*
X925Y239D02*
X929Y239D01*
X1209Y239D02*
X1216Y239D01*
X1Y238D02*
X8Y238D01*
X282Y238D02*
X286Y238D01*
X301Y238D02*
X305Y238D01*
X318Y238D02*
X324Y238D01*
X352Y238D02*
X356Y238D01*
X372Y238D02*
X375Y238D01*
X428Y238D02*
X431Y238D01*
X532Y238D02*
X536Y238D01*
X564Y238D02*
X568Y238D01*
X600Y238D02*
X604Y238D01*
X614Y238D02*
X618Y238D01*
X855Y238D02*
X859Y238D01*
X925Y238D02*
X929Y238D01*
X1209Y238D02*
X1216Y238D01*
X1Y237D02*
X8Y237D01*
X282Y237D02*
X286Y237D01*
X301Y237D02*
X305Y237D01*
X319Y237D02*
X325Y237D01*
X352Y237D02*
X356Y237D01*
X372Y237D02*
X376Y237D01*
X427Y237D02*
X432Y237D01*
X531Y237D02*
X536Y237D01*
X564Y237D02*
X568Y237D01*
X600Y237D02*
X604Y237D01*
X614Y237D02*
X618Y237D01*
X855Y237D02*
X859Y237D01*
X925Y237D02*
X929Y237D01*
X1209Y237D02*
X1216Y237D01*
X1Y236D02*
X8Y236D01*
X282Y236D02*
X286Y236D01*
X301Y236D02*
X305Y236D01*
X320Y236D02*
X325Y236D01*
X352Y236D02*
X356Y236D01*
X372Y236D02*
X376Y236D01*
X423Y236D02*
X441Y236D01*
X464Y236D02*
X476Y236D01*
X531Y236D02*
X535Y236D01*
X564Y236D02*
X568Y236D01*
X600Y236D02*
X604Y236D01*
X614Y236D02*
X618Y236D01*
X670Y236D02*
X673Y236D01*
X679Y236D02*
X689Y236D01*
X710Y236D02*
X722Y236D01*
X740Y236D02*
X743Y236D01*
X760Y236D02*
X762Y236D01*
X855Y236D02*
X859Y236D01*
X925Y236D02*
X929Y236D01*
X1209Y236D02*
X1216Y236D01*
X1Y235D02*
X8Y235D01*
X282Y235D02*
X286Y235D01*
X301Y235D02*
X305Y235D01*
X321Y235D02*
X326Y235D01*
X352Y235D02*
X356Y235D01*
X371Y235D02*
X375Y235D01*
X423Y235D02*
X442Y235D01*
X462Y235D02*
X477Y235D01*
X530Y235D02*
X535Y235D01*
X564Y235D02*
X568Y235D01*
X600Y235D02*
X604Y235D01*
X614Y235D02*
X618Y235D01*
X669Y235D02*
X673Y235D01*
X678Y235D02*
X691Y235D01*
X709Y235D02*
X724Y235D01*
X740Y235D02*
X743Y235D01*
X759Y235D02*
X763Y235D01*
X855Y235D02*
X859Y235D01*
X925Y235D02*
X929Y235D01*
X1209Y235D02*
X1216Y235D01*
X1Y234D02*
X8Y234D01*
X282Y234D02*
X286Y234D01*
X301Y234D02*
X305Y234D01*
X322Y234D02*
X327Y234D01*
X352Y234D02*
X356Y234D01*
X371Y234D02*
X375Y234D01*
X423Y234D02*
X442Y234D01*
X461Y234D02*
X478Y234D01*
X530Y234D02*
X534Y234D01*
X564Y234D02*
X568Y234D01*
X600Y234D02*
X604Y234D01*
X614Y234D02*
X618Y234D01*
X669Y234D02*
X673Y234D01*
X677Y234D02*
X691Y234D01*
X707Y234D02*
X725Y234D01*
X740Y234D02*
X744Y234D01*
X759Y234D02*
X763Y234D01*
X855Y234D02*
X859Y234D01*
X925Y234D02*
X929Y234D01*
X1209Y234D02*
X1216Y234D01*
X1Y233D02*
X8Y233D01*
X282Y233D02*
X286Y233D01*
X301Y233D02*
X305Y233D01*
X322Y233D02*
X328Y233D01*
X352Y233D02*
X356Y233D01*
X371Y233D02*
X375Y233D01*
X423Y233D02*
X442Y233D01*
X460Y233D02*
X479Y233D01*
X529Y233D02*
X534Y233D01*
X564Y233D02*
X568Y233D01*
X600Y233D02*
X604Y233D01*
X614Y233D02*
X618Y233D01*
X669Y233D02*
X673Y233D01*
X676Y233D02*
X692Y233D01*
X706Y233D02*
X726Y233D01*
X740Y233D02*
X744Y233D01*
X759Y233D02*
X763Y233D01*
X855Y233D02*
X859Y233D01*
X925Y233D02*
X929Y233D01*
X1209Y233D02*
X1216Y233D01*
X1Y232D02*
X8Y232D01*
X282Y232D02*
X286Y232D01*
X301Y232D02*
X305Y232D01*
X323Y232D02*
X328Y232D01*
X352Y232D02*
X356Y232D01*
X370Y232D02*
X375Y232D01*
X427Y232D02*
X432Y232D01*
X459Y232D02*
X466Y232D01*
X473Y232D02*
X480Y232D01*
X529Y232D02*
X533Y232D01*
X564Y232D02*
X568Y232D01*
X600Y232D02*
X604Y232D01*
X614Y232D02*
X618Y232D01*
X669Y232D02*
X681Y232D01*
X686Y232D02*
X692Y232D01*
X706Y232D02*
X713Y232D01*
X720Y232D02*
X726Y232D01*
X740Y232D02*
X744Y232D01*
X759Y232D02*
X763Y232D01*
X855Y232D02*
X859Y232D01*
X925Y232D02*
X929Y232D01*
X1209Y232D02*
X1216Y232D01*
X1Y231D02*
X8Y231D01*
X282Y231D02*
X286Y231D01*
X301Y231D02*
X305Y231D01*
X324Y231D02*
X329Y231D01*
X352Y231D02*
X356Y231D01*
X368Y231D02*
X374Y231D01*
X428Y231D02*
X431Y231D01*
X459Y231D02*
X464Y231D01*
X475Y231D02*
X481Y231D01*
X529Y231D02*
X533Y231D01*
X564Y231D02*
X568Y231D01*
X600Y231D02*
X604Y231D01*
X614Y231D02*
X618Y231D01*
X669Y231D02*
X680Y231D01*
X688Y231D02*
X692Y231D01*
X705Y231D02*
X710Y231D01*
X722Y231D02*
X727Y231D01*
X740Y231D02*
X744Y231D01*
X759Y231D02*
X763Y231D01*
X855Y231D02*
X859Y231D01*
X925Y231D02*
X929Y231D01*
X1209Y231D02*
X1216Y231D01*
X1Y230D02*
X8Y230D01*
X282Y230D02*
X286Y230D01*
X301Y230D02*
X305Y230D01*
X325Y230D02*
X330Y230D01*
X352Y230D02*
X374Y230D01*
X428Y230D02*
X431Y230D01*
X458Y230D02*
X463Y230D01*
X476Y230D02*
X481Y230D01*
X529Y230D02*
X533Y230D01*
X564Y230D02*
X568Y230D01*
X600Y230D02*
X604Y230D01*
X614Y230D02*
X618Y230D01*
X669Y230D02*
X679Y230D01*
X689Y230D02*
X693Y230D01*
X705Y230D02*
X709Y230D01*
X723Y230D02*
X727Y230D01*
X740Y230D02*
X744Y230D01*
X759Y230D02*
X763Y230D01*
X855Y230D02*
X859Y230D01*
X925Y230D02*
X929Y230D01*
X1209Y230D02*
X1216Y230D01*
X1Y229D02*
X8Y229D01*
X282Y229D02*
X286Y229D01*
X301Y229D02*
X305Y229D01*
X325Y229D02*
X331Y229D01*
X352Y229D02*
X373Y229D01*
X428Y229D02*
X431Y229D01*
X458Y229D02*
X462Y229D01*
X477Y229D02*
X481Y229D01*
X528Y229D02*
X532Y229D01*
X564Y229D02*
X568Y229D01*
X600Y229D02*
X604Y229D01*
X614Y229D02*
X618Y229D01*
X669Y229D02*
X678Y229D01*
X689Y229D02*
X693Y229D01*
X705Y229D02*
X709Y229D01*
X724Y229D02*
X728Y229D01*
X740Y229D02*
X744Y229D01*
X758Y229D02*
X762Y229D01*
X855Y229D02*
X859Y229D01*
X925Y229D02*
X929Y229D01*
X1209Y229D02*
X1216Y229D01*
X1Y228D02*
X8Y228D01*
X282Y228D02*
X286Y228D01*
X301Y228D02*
X305Y228D01*
X326Y228D02*
X332Y228D01*
X352Y228D02*
X372Y228D01*
X428Y228D02*
X431Y228D01*
X458Y228D02*
X462Y228D01*
X477Y228D02*
X481Y228D01*
X528Y228D02*
X532Y228D01*
X564Y228D02*
X585Y228D01*
X600Y228D02*
X604Y228D01*
X614Y228D02*
X618Y228D01*
X669Y228D02*
X677Y228D01*
X689Y228D02*
X692Y228D01*
X704Y228D02*
X708Y228D01*
X724Y228D02*
X728Y228D01*
X740Y228D02*
X745Y228D01*
X758Y228D02*
X762Y228D01*
X855Y228D02*
X859Y228D01*
X925Y228D02*
X929Y228D01*
X1209Y228D02*
X1216Y228D01*
X1Y227D02*
X8Y227D01*
X282Y227D02*
X286Y227D01*
X301Y227D02*
X305Y227D01*
X327Y227D02*
X332Y227D01*
X352Y227D02*
X373Y227D01*
X428Y227D02*
X431Y227D01*
X458Y227D02*
X462Y227D01*
X477Y227D02*
X481Y227D01*
X529Y227D02*
X532Y227D01*
X564Y227D02*
X586Y227D01*
X600Y227D02*
X604Y227D01*
X614Y227D02*
X618Y227D01*
X669Y227D02*
X675Y227D01*
X689Y227D02*
X692Y227D01*
X704Y227D02*
X708Y227D01*
X724Y227D02*
X728Y227D01*
X741Y227D02*
X745Y227D01*
X757Y227D02*
X762Y227D01*
X855Y227D02*
X859Y227D01*
X925Y227D02*
X929Y227D01*
X1209Y227D02*
X1216Y227D01*
X1Y226D02*
X8Y226D01*
X282Y226D02*
X286Y226D01*
X301Y226D02*
X305Y226D01*
X328Y226D02*
X333Y226D01*
X352Y226D02*
X374Y226D01*
X428Y226D02*
X431Y226D01*
X458Y226D02*
X462Y226D01*
X477Y226D02*
X481Y226D01*
X529Y226D02*
X533Y226D01*
X564Y226D02*
X587Y226D01*
X600Y226D02*
X620Y226D01*
X669Y226D02*
X674Y226D01*
X704Y226D02*
X708Y226D01*
X724Y226D02*
X728Y226D01*
X741Y226D02*
X746Y226D01*
X757Y226D02*
X761Y226D01*
X855Y226D02*
X859Y226D01*
X925Y226D02*
X929Y226D01*
X1209Y226D02*
X1216Y226D01*
X1Y225D02*
X8Y225D01*
X282Y225D02*
X286Y225D01*
X301Y225D02*
X305Y225D01*
X329Y225D02*
X334Y225D01*
X352Y225D02*
X356Y225D01*
X369Y225D02*
X375Y225D01*
X428Y225D02*
X431Y225D01*
X458Y225D02*
X462Y225D01*
X477Y225D02*
X481Y225D01*
X529Y225D02*
X533Y225D01*
X564Y225D02*
X587Y225D01*
X600Y225D02*
X621Y225D01*
X669Y225D02*
X673Y225D01*
X704Y225D02*
X728Y225D01*
X742Y225D02*
X746Y225D01*
X756Y225D02*
X761Y225D01*
X855Y225D02*
X859Y225D01*
X925Y225D02*
X929Y225D01*
X1209Y225D02*
X1216Y225D01*
X1Y224D02*
X8Y224D01*
X282Y224D02*
X286Y224D01*
X301Y224D02*
X305Y224D01*
X329Y224D02*
X335Y224D01*
X352Y224D02*
X356Y224D01*
X370Y224D02*
X375Y224D01*
X428Y224D02*
X431Y224D01*
X458Y224D02*
X462Y224D01*
X477Y224D02*
X481Y224D01*
X529Y224D02*
X534Y224D01*
X564Y224D02*
X587Y224D01*
X600Y224D02*
X621Y224D01*
X669Y224D02*
X673Y224D01*
X704Y224D02*
X728Y224D01*
X742Y224D02*
X747Y224D01*
X756Y224D02*
X760Y224D01*
X855Y224D02*
X859Y224D01*
X925Y224D02*
X929Y224D01*
X1209Y224D02*
X1216Y224D01*
X1Y223D02*
X8Y223D01*
X282Y223D02*
X286Y223D01*
X301Y223D02*
X305Y223D01*
X330Y223D02*
X335Y223D01*
X352Y223D02*
X356Y223D01*
X371Y223D02*
X375Y223D01*
X428Y223D02*
X431Y223D01*
X458Y223D02*
X462Y223D01*
X477Y223D02*
X481Y223D01*
X530Y223D02*
X534Y223D01*
X564Y223D02*
X568Y223D01*
X583Y223D02*
X587Y223D01*
X600Y223D02*
X621Y223D01*
X669Y223D02*
X673Y223D01*
X704Y223D02*
X728Y223D01*
X743Y223D02*
X747Y223D01*
X756Y223D02*
X760Y223D01*
X855Y223D02*
X859Y223D01*
X865Y223D02*
X868Y223D01*
X925Y223D02*
X929Y223D01*
X936Y223D02*
X938Y223D01*
X1209Y223D02*
X1216Y223D01*
X1Y222D02*
X8Y222D01*
X282Y222D02*
X286Y222D01*
X301Y222D02*
X305Y222D01*
X331Y222D02*
X336Y222D01*
X352Y222D02*
X356Y222D01*
X371Y222D02*
X375Y222D01*
X428Y222D02*
X431Y222D01*
X458Y222D02*
X462Y222D01*
X477Y222D02*
X481Y222D01*
X530Y222D02*
X535Y222D01*
X564Y222D02*
X568Y222D01*
X583Y222D02*
X587Y222D01*
X600Y222D02*
X620Y222D01*
X669Y222D02*
X673Y222D01*
X704Y222D02*
X727Y222D01*
X743Y222D02*
X747Y222D01*
X755Y222D02*
X760Y222D01*
X785Y222D02*
X788Y222D01*
X855Y222D02*
X859Y222D01*
X865Y222D02*
X868Y222D01*
X891Y222D02*
X894Y222D01*
X925Y222D02*
X929Y222D01*
X935Y222D02*
X939Y222D01*
X1209Y222D02*
X1216Y222D01*
X1Y221D02*
X8Y221D01*
X282Y221D02*
X286Y221D01*
X301Y221D02*
X305Y221D01*
X332Y221D02*
X337Y221D01*
X352Y221D02*
X356Y221D01*
X372Y221D02*
X375Y221D01*
X428Y221D02*
X431Y221D01*
X458Y221D02*
X462Y221D01*
X477Y221D02*
X481Y221D01*
X531Y221D02*
X535Y221D01*
X564Y221D02*
X568Y221D01*
X583Y221D02*
X587Y221D01*
X614Y221D02*
X618Y221D01*
X669Y221D02*
X673Y221D01*
X704Y221D02*
X727Y221D01*
X744Y221D02*
X748Y221D01*
X755Y221D02*
X759Y221D01*
X783Y221D02*
X790Y221D01*
X855Y221D02*
X859Y221D01*
X865Y221D02*
X869Y221D01*
X888Y221D02*
X896Y221D01*
X925Y221D02*
X929Y221D01*
X935Y221D02*
X939Y221D01*
X1209Y221D02*
X1216Y221D01*
X1Y220D02*
X8Y220D01*
X282Y220D02*
X286Y220D01*
X301Y220D02*
X305Y220D01*
X332Y220D02*
X338Y220D01*
X352Y220D02*
X356Y220D01*
X372Y220D02*
X376Y220D01*
X428Y220D02*
X431Y220D01*
X458Y220D02*
X462Y220D01*
X477Y220D02*
X481Y220D01*
X531Y220D02*
X536Y220D01*
X564Y220D02*
X568Y220D01*
X583Y220D02*
X587Y220D01*
X614Y220D02*
X618Y220D01*
X669Y220D02*
X673Y220D01*
X704Y220D02*
X708Y220D01*
X744Y220D02*
X748Y220D01*
X754Y220D02*
X759Y220D01*
X782Y220D02*
X791Y220D01*
X855Y220D02*
X859Y220D01*
X865Y220D02*
X869Y220D01*
X888Y220D02*
X896Y220D01*
X925Y220D02*
X929Y220D01*
X935Y220D02*
X939Y220D01*
X1209Y220D02*
X1216Y220D01*
X1Y219D02*
X8Y219D01*
X282Y219D02*
X286Y219D01*
X301Y219D02*
X305Y219D01*
X333Y219D02*
X339Y219D01*
X352Y219D02*
X356Y219D01*
X372Y219D02*
X376Y219D01*
X428Y219D02*
X431Y219D01*
X458Y219D02*
X462Y219D01*
X477Y219D02*
X481Y219D01*
X532Y219D02*
X536Y219D01*
X564Y219D02*
X568Y219D01*
X583Y219D02*
X587Y219D01*
X614Y219D02*
X618Y219D01*
X669Y219D02*
X673Y219D01*
X704Y219D02*
X708Y219D01*
X744Y219D02*
X749Y219D01*
X754Y219D02*
X758Y219D01*
X782Y219D02*
X791Y219D01*
X855Y219D02*
X859Y219D01*
X865Y219D02*
X869Y219D01*
X888Y219D02*
X897Y219D01*
X925Y219D02*
X929Y219D01*
X935Y219D02*
X939Y219D01*
X1209Y219D02*
X1216Y219D01*
X1Y218D02*
X8Y218D01*
X282Y218D02*
X286Y218D01*
X301Y218D02*
X305Y218D01*
X318Y218D02*
X320Y218D01*
X334Y218D02*
X339Y218D01*
X352Y218D02*
X356Y218D01*
X371Y218D02*
X375Y218D01*
X428Y218D02*
X431Y218D01*
X443Y218D02*
X445Y218D01*
X458Y218D02*
X462Y218D01*
X477Y218D02*
X481Y218D01*
X532Y218D02*
X537Y218D01*
X564Y218D02*
X568Y218D01*
X583Y218D02*
X587Y218D01*
X614Y218D02*
X618Y218D01*
X669Y218D02*
X673Y218D01*
X704Y218D02*
X708Y218D01*
X745Y218D02*
X749Y218D01*
X753Y218D02*
X758Y218D01*
X782Y218D02*
X791Y218D01*
X855Y218D02*
X859Y218D01*
X865Y218D02*
X869Y218D01*
X888Y218D02*
X897Y218D01*
X925Y218D02*
X929Y218D01*
X935Y218D02*
X939Y218D01*
X1209Y218D02*
X1216Y218D01*
X1Y217D02*
X8Y217D01*
X282Y217D02*
X286Y217D01*
X301Y217D02*
X305Y217D01*
X317Y217D02*
X321Y217D01*
X335Y217D02*
X340Y217D01*
X352Y217D02*
X356Y217D01*
X371Y217D02*
X375Y217D01*
X428Y217D02*
X431Y217D01*
X443Y217D02*
X446Y217D01*
X458Y217D02*
X462Y217D01*
X477Y217D02*
X481Y217D01*
X533Y217D02*
X537Y217D01*
X564Y217D02*
X568Y217D01*
X583Y217D02*
X587Y217D01*
X614Y217D02*
X618Y217D01*
X669Y217D02*
X673Y217D01*
X705Y217D02*
X709Y217D01*
X745Y217D02*
X750Y217D01*
X753Y217D02*
X757Y217D01*
X782Y217D02*
X791Y217D01*
X855Y217D02*
X859Y217D01*
X865Y217D02*
X869Y217D01*
X888Y217D02*
X897Y217D01*
X925Y217D02*
X929Y217D01*
X935Y217D02*
X939Y217D01*
X1209Y217D02*
X1216Y217D01*
X1Y216D02*
X8Y216D01*
X282Y216D02*
X286Y216D01*
X301Y216D02*
X305Y216D01*
X317Y216D02*
X321Y216D01*
X336Y216D02*
X340Y216D01*
X352Y216D02*
X356Y216D01*
X370Y216D02*
X375Y216D01*
X428Y216D02*
X432Y216D01*
X442Y216D02*
X446Y216D01*
X458Y216D02*
X463Y216D01*
X476Y216D02*
X481Y216D01*
X533Y216D02*
X538Y216D01*
X564Y216D02*
X568Y216D01*
X583Y216D02*
X587Y216D01*
X614Y216D02*
X618Y216D01*
X669Y216D02*
X673Y216D01*
X705Y216D02*
X710Y216D01*
X746Y216D02*
X750Y216D01*
X752Y216D02*
X757Y216D01*
X782Y216D02*
X791Y216D01*
X855Y216D02*
X859Y216D01*
X865Y216D02*
X869Y216D01*
X888Y216D02*
X897Y216D01*
X925Y216D02*
X929Y216D01*
X935Y216D02*
X939Y216D01*
X1209Y216D02*
X1216Y216D01*
X1Y215D02*
X8Y215D01*
X282Y215D02*
X287Y215D01*
X300Y215D02*
X305Y215D01*
X317Y215D02*
X321Y215D01*
X336Y215D02*
X340Y215D01*
X352Y215D02*
X356Y215D01*
X369Y215D02*
X375Y215D01*
X428Y215D02*
X432Y215D01*
X441Y215D02*
X446Y215D01*
X459Y215D02*
X464Y215D01*
X475Y215D02*
X480Y215D01*
X534Y215D02*
X538Y215D01*
X564Y215D02*
X568Y215D01*
X583Y215D02*
X587Y215D01*
X614Y215D02*
X618Y215D01*
X669Y215D02*
X673Y215D01*
X705Y215D02*
X711Y215D01*
X746Y215D02*
X756Y215D01*
X782Y215D02*
X791Y215D01*
X855Y215D02*
X859Y215D01*
X865Y215D02*
X869Y215D01*
X888Y215D02*
X896Y215D01*
X925Y215D02*
X929Y215D01*
X935Y215D02*
X939Y215D01*
X1209Y215D02*
X1216Y215D01*
X1Y214D02*
X8Y214D01*
X282Y214D02*
X305Y214D01*
X317Y214D02*
X340Y214D01*
X352Y214D02*
X374Y214D01*
X428Y214D02*
X446Y214D01*
X459Y214D02*
X480Y214D01*
X534Y214D02*
X550Y214D01*
X564Y214D02*
X587Y214D01*
X614Y214D02*
X618Y214D01*
X669Y214D02*
X673Y214D01*
X706Y214D02*
X726Y214D01*
X747Y214D02*
X756Y214D01*
X783Y214D02*
X790Y214D01*
X847Y214D02*
X869Y214D01*
X888Y214D02*
X896Y214D01*
X917Y214D02*
X939Y214D01*
X1209Y214D02*
X1216Y214D01*
X1Y213D02*
X8Y213D01*
X283Y213D02*
X304Y213D01*
X318Y213D02*
X340Y213D01*
X352Y213D02*
X373Y213D01*
X429Y213D02*
X445Y213D01*
X460Y213D02*
X479Y213D01*
X535Y213D02*
X551Y213D01*
X564Y213D02*
X587Y213D01*
X614Y213D02*
X618Y213D01*
X669Y213D02*
X673Y213D01*
X707Y213D02*
X727Y213D01*
X747Y213D02*
X756Y213D01*
X784Y213D02*
X789Y213D01*
X846Y213D02*
X869Y213D01*
X890Y213D02*
X894Y213D01*
X916Y213D02*
X939Y213D01*
X1209Y213D02*
X1216Y213D01*
X1Y212D02*
X8Y212D01*
X284Y212D02*
X303Y212D01*
X319Y212D02*
X339Y212D01*
X352Y212D02*
X372Y212D01*
X429Y212D02*
X444Y212D01*
X461Y212D02*
X478Y212D01*
X536Y212D02*
X552Y212D01*
X564Y212D02*
X587Y212D01*
X614Y212D02*
X618Y212D01*
X669Y212D02*
X673Y212D01*
X708Y212D02*
X728Y212D01*
X747Y212D02*
X755Y212D01*
X845Y212D02*
X869Y212D01*
X916Y212D02*
X939Y212D01*
X1209Y212D02*
X1216Y212D01*
X1Y211D02*
X8Y211D01*
X285Y211D02*
X302Y211D01*
X319Y211D02*
X339Y211D01*
X352Y211D02*
X371Y211D01*
X430Y211D02*
X443Y211D01*
X463Y211D02*
X477Y211D01*
X537Y211D02*
X551Y211D01*
X564Y211D02*
X587Y211D01*
X614Y211D02*
X618Y211D01*
X669Y211D02*
X673Y211D01*
X709Y211D02*
X728Y211D01*
X748Y211D02*
X755Y211D01*
X845Y211D02*
X868Y211D01*
X916Y211D02*
X939Y211D01*
X1209Y211D02*
X1216Y211D01*
X1Y210D02*
X8Y210D01*
X286Y210D02*
X301Y210D01*
X321Y210D02*
X337Y210D01*
X352Y210D02*
X369Y210D01*
X432Y210D02*
X442Y210D01*
X464Y210D02*
X475Y210D01*
X538Y210D02*
X551Y210D01*
X564Y210D02*
X586Y210D01*
X615Y210D02*
X617Y210D01*
X670Y210D02*
X672Y210D01*
X711Y210D02*
X727Y210D01*
X749Y210D02*
X754Y210D01*
X846Y210D02*
X868Y210D01*
X917Y210D02*
X938Y210D01*
X1209Y210D02*
X1216Y210D01*
X1Y209D02*
X8Y209D01*
X1209Y209D02*
X1216Y209D01*
X1Y208D02*
X8Y208D01*
X1209Y208D02*
X1216Y208D01*
X1Y207D02*
X8Y207D01*
X1209Y207D02*
X1216Y207D01*
X1Y206D02*
X8Y206D01*
X1209Y206D02*
X1216Y206D01*
X1Y205D02*
X8Y205D01*
X1209Y205D02*
X1216Y205D01*
X1Y204D02*
X8Y204D01*
X1209Y204D02*
X1216Y204D01*
X1Y203D02*
X8Y203D01*
X1209Y203D02*
X1216Y203D01*
X1Y202D02*
X8Y202D01*
X1209Y202D02*
X1216Y202D01*
X1Y201D02*
X8Y201D01*
X1209Y201D02*
X1216Y201D01*
X1Y200D02*
X8Y200D01*
X1209Y200D02*
X1216Y200D01*
X1Y199D02*
X8Y199D01*
X1209Y199D02*
X1216Y199D01*
X1Y198D02*
X8Y198D01*
X1209Y198D02*
X1216Y198D01*
X1Y197D02*
X8Y197D01*
X1209Y197D02*
X1216Y197D01*
X1Y196D02*
X8Y196D01*
X1209Y196D02*
X1216Y196D01*
X1Y195D02*
X8Y195D01*
X1209Y195D02*
X1216Y195D01*
X1Y194D02*
X8Y194D01*
X1209Y194D02*
X1216Y194D01*
X1Y193D02*
X8Y193D01*
X1209Y193D02*
X1216Y193D01*
X1Y192D02*
X8Y192D01*
X1209Y192D02*
X1216Y192D01*
X1Y191D02*
X8Y191D01*
X1209Y191D02*
X1216Y191D01*
X1Y190D02*
X8Y190D01*
X1209Y190D02*
X1216Y190D01*
X1Y189D02*
X8Y189D01*
X1209Y189D02*
X1216Y189D01*
X1Y188D02*
X8Y188D01*
X1209Y188D02*
X1216Y188D01*
X1Y187D02*
X8Y187D01*
X1209Y187D02*
X1216Y187D01*
X1Y186D02*
X8Y186D01*
X1209Y186D02*
X1216Y186D01*
X1Y185D02*
X8Y185D01*
X1209Y185D02*
X1216Y185D01*
X1Y184D02*
X8Y184D01*
X1209Y184D02*
X1216Y184D01*
X1Y183D02*
X8Y183D01*
X1209Y183D02*
X1216Y183D01*
X1Y182D02*
X8Y182D01*
X1209Y182D02*
X1216Y182D01*
X1Y181D02*
X8Y181D01*
X1209Y181D02*
X1216Y181D01*
X1Y180D02*
X8Y180D01*
X280Y180D02*
X291Y180D01*
X403Y180D02*
X408Y180D01*
X463Y180D02*
X464Y180D01*
X510Y180D02*
X515Y180D01*
X1209Y180D02*
X1216Y180D01*
X1Y179D02*
X8Y179D01*
X279Y179D02*
X292Y179D01*
X403Y179D02*
X409Y179D01*
X463Y179D02*
X464Y179D01*
X508Y179D02*
X516Y179D01*
X1209Y179D02*
X1216Y179D01*
X1Y178D02*
X8Y178D01*
X279Y178D02*
X291Y178D01*
X404Y178D02*
X409Y178D01*
X463Y178D02*
X464Y178D01*
X508Y178D02*
X515Y178D01*
X1209Y178D02*
X1216Y178D01*
X1Y177D02*
X8Y177D01*
X279Y177D02*
X281Y177D01*
X407Y177D02*
X409Y177D01*
X463Y177D02*
X464Y177D01*
X507Y177D02*
X509Y177D01*
X1209Y177D02*
X1216Y177D01*
X1Y176D02*
X8Y176D01*
X279Y176D02*
X281Y176D01*
X407Y176D02*
X409Y176D01*
X463Y176D02*
X464Y176D01*
X507Y176D02*
X509Y176D01*
X1209Y176D02*
X1216Y176D01*
X1Y175D02*
X8Y175D01*
X279Y175D02*
X281Y175D01*
X407Y175D02*
X409Y175D01*
X463Y175D02*
X464Y175D01*
X507Y175D02*
X509Y175D01*
X1209Y175D02*
X1216Y175D01*
X1Y174D02*
X8Y174D01*
X279Y174D02*
X281Y174D01*
X300Y174D02*
X301Y174D01*
X303Y174D02*
X305Y174D01*
X308Y174D02*
X311Y174D01*
X322Y174D02*
X330Y174D01*
X341Y174D02*
X342Y174D01*
X346Y174D02*
X351Y174D01*
X361Y174D02*
X362Y174D01*
X372Y174D02*
X373Y174D01*
X384Y174D02*
X391Y174D01*
X407Y174D02*
X409Y174D01*
X425Y174D02*
X432Y174D01*
X463Y174D02*
X464Y174D01*
X485Y174D02*
X494Y174D01*
X504Y174D02*
X512Y174D01*
X526Y174D02*
X534Y174D01*
X549Y174D02*
X557Y174D01*
X568Y174D02*
X574Y174D01*
X1209Y174D02*
X1216Y174D01*
X1Y173D02*
X8Y173D01*
X279Y173D02*
X281Y173D01*
X299Y173D02*
X312Y173D01*
X322Y173D02*
X332Y173D01*
X340Y173D02*
X342Y173D01*
X345Y173D02*
X352Y173D01*
X361Y173D02*
X363Y173D01*
X372Y173D02*
X373Y173D01*
X383Y173D02*
X392Y173D01*
X407Y173D02*
X409Y173D01*
X424Y173D02*
X433Y173D01*
X463Y173D02*
X464Y173D01*
X485Y173D02*
X495Y173D01*
X504Y173D02*
X513Y173D01*
X526Y173D02*
X536Y173D01*
X547Y173D02*
X557Y173D01*
X566Y173D02*
X576Y173D01*
X1209Y173D02*
X1216Y173D01*
X1Y172D02*
X8Y172D01*
X279Y172D02*
X281Y172D01*
X299Y172D02*
X312Y172D01*
X323Y172D02*
X332Y172D01*
X340Y172D02*
X353Y172D01*
X361Y172D02*
X363Y172D01*
X372Y172D02*
X373Y172D01*
X382Y172D02*
X393Y172D01*
X407Y172D02*
X409Y172D01*
X423Y172D02*
X434Y172D01*
X463Y172D02*
X464Y172D01*
X486Y172D02*
X496Y172D01*
X505Y172D02*
X512Y172D01*
X527Y172D02*
X536Y172D01*
X546Y172D02*
X556Y172D01*
X566Y172D02*
X577Y172D01*
X1209Y172D02*
X1216Y172D01*
X1Y171D02*
X8Y171D01*
X279Y171D02*
X285Y171D01*
X299Y171D02*
X302Y171D01*
X305Y171D02*
X308Y171D01*
X311Y171D02*
X313Y171D01*
X331Y171D02*
X333Y171D01*
X340Y171D02*
X346Y171D01*
X351Y171D02*
X353Y171D01*
X361Y171D02*
X363Y171D01*
X372Y171D02*
X373Y171D01*
X381Y171D02*
X384Y171D01*
X391Y171D02*
X394Y171D01*
X407Y171D02*
X409Y171D01*
X422Y171D02*
X425Y171D01*
X432Y171D02*
X434Y171D01*
X463Y171D02*
X464Y171D01*
X494Y171D02*
X496Y171D01*
X507Y171D02*
X509Y171D01*
X535Y171D02*
X537Y171D01*
X545Y171D02*
X548Y171D01*
X565Y171D02*
X567Y171D01*
X575Y171D02*
X577Y171D01*
X1209Y171D02*
X1216Y171D01*
X1Y170D02*
X8Y170D01*
X279Y170D02*
X287Y170D01*
X299Y170D02*
X301Y170D01*
X305Y170D02*
X307Y170D01*
X311Y170D02*
X313Y170D01*
X331Y170D02*
X333Y170D01*
X340Y170D02*
X344Y170D01*
X351Y170D02*
X353Y170D01*
X361Y170D02*
X363Y170D01*
X372Y170D02*
X373Y170D01*
X381Y170D02*
X383Y170D01*
X392Y170D02*
X394Y170D01*
X407Y170D02*
X409Y170D01*
X422Y170D02*
X424Y170D01*
X433Y170D02*
X435Y170D01*
X463Y170D02*
X464Y170D01*
X494Y170D02*
X496Y170D01*
X507Y170D02*
X509Y170D01*
X535Y170D02*
X537Y170D01*
X545Y170D02*
X547Y170D01*
X565Y170D02*
X567Y170D01*
X576Y170D02*
X578Y170D01*
X1209Y170D02*
X1216Y170D01*
X1Y169D02*
X8Y169D01*
X279Y169D02*
X287Y169D01*
X299Y169D02*
X301Y169D01*
X305Y169D02*
X307Y169D01*
X311Y169D02*
X313Y169D01*
X331Y169D02*
X333Y169D01*
X340Y169D02*
X343Y169D01*
X351Y169D02*
X353Y169D01*
X361Y169D02*
X363Y169D01*
X372Y169D02*
X373Y169D01*
X381Y169D02*
X383Y169D01*
X392Y169D02*
X394Y169D01*
X407Y169D02*
X409Y169D01*
X422Y169D02*
X424Y169D01*
X433Y169D02*
X435Y169D01*
X463Y169D02*
X464Y169D01*
X494Y169D02*
X496Y169D01*
X507Y169D02*
X509Y169D01*
X535Y169D02*
X537Y169D01*
X544Y169D02*
X546Y169D01*
X565Y169D02*
X566Y169D01*
X576Y169D02*
X578Y169D01*
X1209Y169D02*
X1216Y169D01*
X1Y168D02*
X8Y168D01*
X279Y168D02*
X282Y168D01*
X299Y168D02*
X301Y168D01*
X305Y168D02*
X307Y168D01*
X311Y168D02*
X313Y168D01*
X322Y168D02*
X333Y168D01*
X340Y168D02*
X342Y168D01*
X351Y168D02*
X353Y168D01*
X361Y168D02*
X363Y168D01*
X372Y168D02*
X373Y168D01*
X381Y168D02*
X383Y168D01*
X392Y168D02*
X394Y168D01*
X407Y168D02*
X409Y168D01*
X422Y168D02*
X424Y168D01*
X433Y168D02*
X435Y168D01*
X463Y168D02*
X464Y168D01*
X485Y168D02*
X496Y168D01*
X507Y168D02*
X509Y168D01*
X526Y168D02*
X537Y168D01*
X544Y168D02*
X546Y168D01*
X565Y168D02*
X567Y168D01*
X575Y168D02*
X578Y168D01*
X1209Y168D02*
X1216Y168D01*
X1Y167D02*
X8Y167D01*
X279Y167D02*
X281Y167D01*
X299Y167D02*
X301Y167D01*
X305Y167D02*
X307Y167D01*
X311Y167D02*
X313Y167D01*
X321Y167D02*
X333Y167D01*
X340Y167D02*
X342Y167D01*
X351Y167D02*
X353Y167D01*
X361Y167D02*
X363Y167D01*
X372Y167D02*
X373Y167D01*
X381Y167D02*
X394Y167D01*
X407Y167D02*
X409Y167D01*
X422Y167D02*
X435Y167D01*
X463Y167D02*
X464Y167D01*
X484Y167D02*
X496Y167D01*
X507Y167D02*
X509Y167D01*
X525Y167D02*
X537Y167D01*
X544Y167D02*
X546Y167D01*
X565Y167D02*
X578Y167D01*
X1209Y167D02*
X1216Y167D01*
X1Y166D02*
X8Y166D01*
X279Y166D02*
X281Y166D01*
X299Y166D02*
X301Y166D01*
X305Y166D02*
X307Y166D01*
X311Y166D02*
X313Y166D01*
X320Y166D02*
X333Y166D01*
X340Y166D02*
X342Y166D01*
X351Y166D02*
X353Y166D01*
X361Y166D02*
X363Y166D01*
X372Y166D02*
X373Y166D01*
X381Y166D02*
X394Y166D01*
X407Y166D02*
X409Y166D01*
X422Y166D02*
X435Y166D01*
X463Y166D02*
X464Y166D01*
X483Y166D02*
X496Y166D01*
X507Y166D02*
X509Y166D01*
X524Y166D02*
X537Y166D01*
X544Y166D02*
X546Y166D01*
X565Y166D02*
X577Y166D01*
X1209Y166D02*
X1216Y166D01*
X1Y165D02*
X8Y165D01*
X279Y165D02*
X281Y165D01*
X299Y165D02*
X301Y165D01*
X305Y165D02*
X307Y165D01*
X311Y165D02*
X313Y165D01*
X320Y165D02*
X322Y165D01*
X331Y165D02*
X333Y165D01*
X340Y165D02*
X342Y165D01*
X351Y165D02*
X353Y165D01*
X361Y165D02*
X363Y165D01*
X372Y165D02*
X373Y165D01*
X381Y165D02*
X383Y165D01*
X407Y165D02*
X409Y165D01*
X422Y165D02*
X424Y165D01*
X463Y165D02*
X464Y165D01*
X483Y165D02*
X485Y165D01*
X494Y165D02*
X496Y165D01*
X507Y165D02*
X509Y165D01*
X524Y165D02*
X526Y165D01*
X535Y165D02*
X537Y165D01*
X544Y165D02*
X546Y165D01*
X565Y165D02*
X567Y165D01*
X1209Y165D02*
X1216Y165D01*
X1Y164D02*
X8Y164D01*
X279Y164D02*
X281Y164D01*
X299Y164D02*
X301Y164D01*
X305Y164D02*
X307Y164D01*
X311Y164D02*
X313Y164D01*
X320Y164D02*
X322Y164D01*
X331Y164D02*
X333Y164D01*
X340Y164D02*
X342Y164D01*
X351Y164D02*
X353Y164D01*
X361Y164D02*
X363Y164D01*
X371Y164D02*
X373Y164D01*
X381Y164D02*
X383Y164D01*
X407Y164D02*
X409Y164D01*
X422Y164D02*
X424Y164D01*
X463Y164D02*
X464Y164D01*
X483Y164D02*
X485Y164D01*
X494Y164D02*
X496Y164D01*
X507Y164D02*
X509Y164D01*
X524Y164D02*
X525Y164D01*
X535Y164D02*
X537Y164D01*
X544Y164D02*
X546Y164D01*
X565Y164D02*
X566Y164D01*
X1209Y164D02*
X1216Y164D01*
X1Y163D02*
X8Y163D01*
X279Y163D02*
X281Y163D01*
X299Y163D02*
X301Y163D01*
X305Y163D02*
X307Y163D01*
X311Y163D02*
X313Y163D01*
X320Y163D02*
X322Y163D01*
X331Y163D02*
X333Y163D01*
X340Y163D02*
X342Y163D01*
X351Y163D02*
X353Y163D01*
X361Y163D02*
X363Y163D01*
X369Y163D02*
X373Y163D01*
X381Y163D02*
X383Y163D01*
X407Y163D02*
X409Y163D01*
X422Y163D02*
X424Y163D01*
X463Y163D02*
X464Y163D01*
X483Y163D02*
X485Y163D01*
X494Y163D02*
X496Y163D01*
X507Y163D02*
X509Y163D01*
X524Y163D02*
X525Y163D01*
X535Y163D02*
X537Y163D01*
X545Y163D02*
X547Y163D01*
X565Y163D02*
X567Y163D01*
X1209Y163D02*
X1216Y163D01*
X1Y162D02*
X8Y162D01*
X279Y162D02*
X281Y162D01*
X299Y162D02*
X301Y162D01*
X305Y162D02*
X307Y162D01*
X311Y162D02*
X313Y162D01*
X320Y162D02*
X322Y162D01*
X329Y162D02*
X333Y162D01*
X340Y162D02*
X342Y162D01*
X351Y162D02*
X353Y162D01*
X361Y162D02*
X363Y162D01*
X368Y162D02*
X373Y162D01*
X381Y162D02*
X384Y162D01*
X407Y162D02*
X409Y162D01*
X422Y162D02*
X425Y162D01*
X463Y162D02*
X464Y162D01*
X483Y162D02*
X485Y162D01*
X492Y162D02*
X496Y162D01*
X507Y162D02*
X509Y162D01*
X524Y162D02*
X526Y162D01*
X533Y162D02*
X537Y162D01*
X545Y162D02*
X549Y162D01*
X565Y162D02*
X568Y162D01*
X1209Y162D02*
X1216Y162D01*
X1Y161D02*
X8Y161D01*
X279Y161D02*
X291Y161D01*
X299Y161D02*
X301Y161D01*
X305Y161D02*
X307Y161D01*
X311Y161D02*
X313Y161D01*
X320Y161D02*
X333Y161D01*
X340Y161D02*
X342Y161D01*
X351Y161D02*
X353Y161D01*
X361Y161D02*
X373Y161D01*
X382Y161D02*
X393Y161D01*
X403Y161D02*
X412Y161D01*
X423Y161D02*
X434Y161D01*
X463Y161D02*
X475Y161D01*
X483Y161D02*
X496Y161D01*
X507Y161D02*
X509Y161D01*
X524Y161D02*
X537Y161D01*
X546Y161D02*
X557Y161D01*
X566Y161D02*
X577Y161D01*
X1209Y161D02*
X1216Y161D01*
X1Y160D02*
X8Y160D01*
X279Y160D02*
X292Y160D01*
X299Y160D02*
X301Y160D01*
X305Y160D02*
X307Y160D01*
X311Y160D02*
X313Y160D01*
X321Y160D02*
X333Y160D01*
X340Y160D02*
X342Y160D01*
X351Y160D02*
X353Y160D01*
X362Y160D02*
X369Y160D01*
X372Y160D02*
X373Y160D01*
X383Y160D02*
X394Y160D01*
X403Y160D02*
X413Y160D01*
X424Y160D02*
X435Y160D01*
X463Y160D02*
X476Y160D01*
X484Y160D02*
X496Y160D01*
X507Y160D02*
X509Y160D01*
X525Y160D02*
X537Y160D01*
X548Y160D02*
X557Y160D01*
X567Y160D02*
X578Y160D01*
X1209Y160D02*
X1216Y160D01*
X1Y159D02*
X8Y159D01*
X280Y159D02*
X291Y159D01*
X300Y159D02*
X300Y159D01*
X306Y159D02*
X306Y159D01*
X311Y159D02*
X312Y159D01*
X322Y159D02*
X328Y159D01*
X332Y159D02*
X332Y159D01*
X341Y159D02*
X342Y159D01*
X352Y159D02*
X352Y159D01*
X363Y159D02*
X367Y159D01*
X372Y159D02*
X373Y159D01*
X385Y159D02*
X393Y159D01*
X403Y159D02*
X412Y159D01*
X425Y159D02*
X434Y159D01*
X463Y159D02*
X475Y159D01*
X485Y159D02*
X492Y159D01*
X495Y159D02*
X495Y159D01*
X507Y159D02*
X508Y159D01*
X526Y159D02*
X532Y159D01*
X536Y159D02*
X536Y159D01*
X549Y159D02*
X557Y159D01*
X568Y159D02*
X577Y159D01*
X1209Y159D02*
X1216Y159D01*
X1Y158D02*
X8Y158D01*
X1209Y158D02*
X1216Y158D01*
X1Y157D02*
X8Y157D01*
X1209Y157D02*
X1216Y157D01*
X1Y156D02*
X8Y156D01*
X1209Y156D02*
X1216Y156D01*
X1Y155D02*
X8Y155D01*
X1209Y155D02*
X1216Y155D01*
X1Y154D02*
X8Y154D01*
X1209Y154D02*
X1216Y154D01*
X1Y153D02*
X8Y153D01*
X1209Y153D02*
X1216Y153D01*
X1Y152D02*
X8Y152D01*
X1209Y152D02*
X1216Y152D01*
X1Y151D02*
X8Y151D01*
X1209Y151D02*
X1216Y151D01*
X1Y150D02*
X8Y150D01*
X1209Y150D02*
X1216Y150D01*
X1Y149D02*
X8Y149D01*
X1209Y149D02*
X1216Y149D01*
X1Y148D02*
X8Y148D01*
X1209Y148D02*
X1216Y148D01*
X1Y147D02*
X8Y147D01*
X1209Y147D02*
X1216Y147D01*
X1Y146D02*
X8Y146D01*
X1209Y146D02*
X1216Y146D01*
X1Y145D02*
X8Y145D01*
X1209Y145D02*
X1216Y145D01*
X1Y144D02*
X8Y144D01*
X1209Y144D02*
X1216Y144D01*
X1Y143D02*
X8Y143D01*
X1209Y143D02*
X1216Y143D01*
X1Y142D02*
X8Y142D01*
X1209Y142D02*
X1216Y142D01*
X1Y141D02*
X8Y141D01*
X1209Y141D02*
X1216Y141D01*
X1Y140D02*
X8Y140D01*
X1209Y140D02*
X1216Y140D01*
X1Y139D02*
X8Y139D01*
X1209Y139D02*
X1216Y139D01*
X1Y138D02*
X8Y138D01*
X1209Y138D02*
X1216Y138D01*
X1Y137D02*
X8Y137D01*
X1209Y137D02*
X1216Y137D01*
X1Y136D02*
X8Y136D01*
X1209Y136D02*
X1216Y136D01*
X1Y135D02*
X8Y135D01*
X1209Y135D02*
X1216Y135D01*
X1Y134D02*
X8Y134D01*
X1209Y134D02*
X1216Y134D01*
X1Y133D02*
X8Y133D01*
X1209Y133D02*
X1216Y133D01*
X1Y132D02*
X8Y132D01*
X1209Y132D02*
X1216Y132D01*
X1Y131D02*
X8Y131D01*
X1209Y131D02*
X1216Y131D01*
X1Y130D02*
X8Y130D01*
X1209Y130D02*
X1216Y130D01*
X1Y129D02*
X8Y129D01*
X1209Y129D02*
X1216Y129D01*
X1Y128D02*
X8Y128D01*
X1209Y128D02*
X1216Y128D01*
X1Y127D02*
X8Y127D01*
X1209Y127D02*
X1216Y127D01*
X1Y126D02*
X8Y126D01*
X1209Y126D02*
X1216Y126D01*
X1Y125D02*
X8Y125D01*
X1209Y125D02*
X1216Y125D01*
X1Y124D02*
X8Y124D01*
X1209Y124D02*
X1216Y124D01*
X1Y123D02*
X8Y123D01*
X1209Y123D02*
X1216Y123D01*
X1Y122D02*
X8Y122D01*
X1209Y122D02*
X1216Y122D01*
X1Y121D02*
X8Y121D01*
X1209Y121D02*
X1216Y121D01*
X1Y120D02*
X8Y120D01*
X1209Y120D02*
X1216Y120D01*
X1Y119D02*
X8Y119D01*
X1209Y119D02*
X1216Y119D01*
X1Y118D02*
X8Y118D01*
X1209Y118D02*
X1216Y118D01*
X1Y117D02*
X8Y117D01*
X1209Y117D02*
X1216Y117D01*
X1Y116D02*
X8Y116D01*
X1209Y116D02*
X1216Y116D01*
X1Y115D02*
X8Y115D01*
X1209Y115D02*
X1216Y115D01*
X1Y114D02*
X8Y114D01*
X1209Y114D02*
X1216Y114D01*
X1Y113D02*
X8Y113D01*
X1209Y113D02*
X1216Y113D01*
X1Y112D02*
X8Y112D01*
X1209Y112D02*
X1216Y112D01*
X1Y111D02*
X8Y111D01*
X1209Y111D02*
X1216Y111D01*
X1Y110D02*
X8Y110D01*
X1209Y110D02*
X1216Y110D01*
X1Y109D02*
X8Y109D01*
X1209Y109D02*
X1216Y109D01*
X1Y108D02*
X8Y108D01*
X1209Y108D02*
X1216Y108D01*
X1Y107D02*
X8Y107D01*
X1209Y107D02*
X1216Y107D01*
X1Y106D02*
X8Y106D01*
X1209Y106D02*
X1216Y106D01*
X1Y105D02*
X8Y105D01*
X1209Y105D02*
X1216Y105D01*
X1Y104D02*
X8Y104D01*
X1209Y104D02*
X1216Y104D01*
X1Y103D02*
X8Y103D01*
X1209Y103D02*
X1216Y103D01*
X1Y102D02*
X8Y102D01*
X1209Y102D02*
X1216Y102D01*
X1Y101D02*
X8Y101D01*
X1209Y101D02*
X1216Y101D01*
X1Y100D02*
X8Y100D01*
X1209Y100D02*
X1216Y100D01*
X1Y99D02*
X8Y99D01*
X1209Y99D02*
X1216Y99D01*
X1Y98D02*
X8Y98D01*
X1209Y98D02*
X1216Y98D01*
X1Y97D02*
X8Y97D01*
X1209Y97D02*
X1216Y97D01*
X1Y96D02*
X8Y96D01*
X1209Y96D02*
X1216Y96D01*
X1Y95D02*
X8Y95D01*
X1209Y95D02*
X1216Y95D01*
X1Y94D02*
X8Y94D01*
X1209Y94D02*
X1216Y94D01*
X1Y93D02*
X8Y93D01*
X1209Y93D02*
X1216Y93D01*
X1Y92D02*
X8Y92D01*
X1209Y92D02*
X1216Y92D01*
X1Y91D02*
X8Y91D01*
X1209Y91D02*
X1216Y91D01*
X1Y90D02*
X8Y90D01*
X1209Y90D02*
X1216Y90D01*
X1Y89D02*
X8Y89D01*
X1209Y89D02*
X1216Y89D01*
X1Y88D02*
X8Y88D01*
X1209Y88D02*
X1216Y88D01*
X1Y87D02*
X8Y87D01*
X1209Y87D02*
X1216Y87D01*
X1Y86D02*
X8Y86D01*
X1209Y86D02*
X1216Y86D01*
X1Y85D02*
X8Y85D01*
X1209Y85D02*
X1216Y85D01*
X1Y84D02*
X8Y84D01*
X1209Y84D02*
X1216Y84D01*
X1Y83D02*
X8Y83D01*
X1209Y83D02*
X1216Y83D01*
X1Y82D02*
X8Y82D01*
X1209Y82D02*
X1216Y82D01*
X1Y81D02*
X8Y81D01*
X1209Y81D02*
X1216Y81D01*
X1Y80D02*
X8Y80D01*
X1209Y80D02*
X1216Y80D01*
X1Y79D02*
X8Y79D01*
X1209Y79D02*
X1216Y79D01*
X1Y78D02*
X8Y78D01*
X1209Y78D02*
X1216Y78D01*
X1Y77D02*
X8Y77D01*
X1209Y77D02*
X1216Y77D01*
X1Y76D02*
X8Y76D01*
X1209Y76D02*
X1216Y76D01*
X1Y75D02*
X8Y75D01*
X1209Y75D02*
X1216Y75D01*
X1Y74D02*
X8Y74D01*
X1209Y74D02*
X1216Y74D01*
X1Y73D02*
X8Y73D01*
X1209Y73D02*
X1216Y73D01*
X1Y72D02*
X8Y72D01*
X1209Y72D02*
X1216Y72D01*
X1Y71D02*
X8Y71D01*
X1209Y71D02*
X1216Y71D01*
X1Y70D02*
X8Y70D01*
X1209Y70D02*
X1216Y70D01*
X1Y69D02*
X8Y69D01*
X1209Y69D02*
X1216Y69D01*
X1Y68D02*
X8Y68D01*
X1209Y68D02*
X1216Y68D01*
X1Y67D02*
X8Y67D01*
X1209Y67D02*
X1216Y67D01*
X1Y66D02*
X8Y66D01*
X1209Y66D02*
X1216Y66D01*
X1Y65D02*
X8Y65D01*
X1209Y65D02*
X1216Y65D01*
X1Y64D02*
X8Y64D01*
X1209Y64D02*
X1216Y64D01*
X1Y63D02*
X8Y63D01*
X1209Y63D02*
X1216Y63D01*
X1Y62D02*
X8Y62D01*
X1209Y62D02*
X1216Y62D01*
X1Y61D02*
X8Y61D01*
X1209Y61D02*
X1216Y61D01*
X1Y60D02*
X8Y60D01*
X1209Y60D02*
X1216Y60D01*
X1Y59D02*
X8Y59D01*
X1209Y59D02*
X1216Y59D01*
X1Y58D02*
X8Y58D01*
X1209Y58D02*
X1216Y58D01*
X1Y57D02*
X8Y57D01*
X1209Y57D02*
X1216Y57D01*
X1Y56D02*
X8Y56D01*
X1209Y56D02*
X1216Y56D01*
X1Y55D02*
X8Y55D01*
X1209Y55D02*
X1216Y55D01*
X1Y54D02*
X8Y54D01*
X1209Y54D02*
X1216Y54D01*
X1Y53D02*
X8Y53D01*
X1209Y53D02*
X1216Y53D01*
X1Y52D02*
X8Y52D01*
X1209Y52D02*
X1216Y52D01*
X1Y51D02*
X8Y51D01*
X1209Y51D02*
X1216Y51D01*
X1Y50D02*
X8Y50D01*
X1209Y50D02*
X1216Y50D01*
X1Y49D02*
X8Y49D01*
X1209Y49D02*
X1216Y49D01*
X1Y48D02*
X8Y48D01*
X1209Y48D02*
X1216Y48D01*
X1Y47D02*
X8Y47D01*
X1209Y47D02*
X1216Y47D01*
X1Y46D02*
X8Y46D01*
X1209Y46D02*
X1216Y46D01*
X1Y45D02*
X8Y45D01*
X1209Y45D02*
X1216Y45D01*
X1Y44D02*
X8Y44D01*
X1209Y44D02*
X1216Y44D01*
X1Y43D02*
X8Y43D01*
X1209Y43D02*
X1216Y43D01*
X1Y42D02*
X8Y42D01*
X1209Y42D02*
X1216Y42D01*
X1Y41D02*
X8Y41D01*
X1209Y41D02*
X1216Y41D01*
X1Y40D02*
X8Y40D01*
X1209Y40D02*
X1216Y40D01*
X1Y39D02*
X8Y39D01*
X1209Y39D02*
X1216Y39D01*
X1Y38D02*
X8Y38D01*
X1209Y38D02*
X1216Y38D01*
X1Y37D02*
X8Y37D01*
X1209Y37D02*
X1216Y37D01*
X1Y36D02*
X8Y36D01*
X1209Y36D02*
X1216Y36D01*
X1Y35D02*
X8Y35D01*
X1209Y35D02*
X1216Y35D01*
X1Y34D02*
X8Y34D01*
X1209Y34D02*
X1216Y34D01*
X1Y33D02*
X8Y33D01*
X1209Y33D02*
X1216Y33D01*
X1Y32D02*
X8Y32D01*
X1209Y32D02*
X1216Y32D01*
X1Y31D02*
X8Y31D01*
X1209Y31D02*
X1216Y31D01*
X1Y30D02*
X8Y30D01*
X1209Y30D02*
X1216Y30D01*
X1Y29D02*
X8Y29D01*
X1209Y29D02*
X1216Y29D01*
X1Y28D02*
X8Y28D01*
X1209Y28D02*
X1216Y28D01*
X1Y27D02*
X8Y27D01*
X1209Y27D02*
X1216Y27D01*
X1Y26D02*
X8Y26D01*
X1209Y26D02*
X1216Y26D01*
X1Y25D02*
X8Y25D01*
X1209Y25D02*
X1216Y25D01*
X1Y24D02*
X8Y24D01*
X1209Y24D02*
X1216Y24D01*
X1Y23D02*
X8Y23D01*
X1209Y23D02*
X1216Y23D01*
X1Y22D02*
X8Y22D01*
X1209Y22D02*
X1216Y22D01*
X1Y21D02*
X8Y21D01*
X1209Y21D02*
X1216Y21D01*
X1Y20D02*
X8Y20D01*
X1209Y20D02*
X1216Y20D01*
X1Y19D02*
X8Y19D01*
X1209Y19D02*
X1216Y19D01*
X1Y18D02*
X8Y18D01*
X1209Y18D02*
X1216Y18D01*
X1Y17D02*
X8Y17D01*
X1209Y17D02*
X1216Y17D01*
X1Y16D02*
X8Y16D01*
X1209Y16D02*
X1216Y16D01*
X1Y15D02*
X8Y15D01*
X1209Y15D02*
X1216Y15D01*
X1Y14D02*
X8Y14D01*
X1209Y14D02*
X1216Y14D01*
X1Y13D02*
X8Y13D01*
X1209Y13D02*
X1216Y13D01*
X1Y12D02*
X8Y12D01*
X1209Y12D02*
X1216Y12D01*
X1Y11D02*
X8Y11D01*
X1209Y11D02*
X1216Y11D01*
X1Y10D02*
X8Y10D01*
X1209Y10D02*
X1216Y10D01*
X1Y9D02*
X8Y9D01*
X1209Y9D02*
X1216Y9D01*
X1Y8D02*
X1216Y8D01*
X1Y7D02*
X1216Y7D01*
X1Y6D02*
X1216Y6D01*
X1Y5D02*
X1216Y5D01*
X1Y4D02*
X1216Y4D01*
X1Y3D02*
X1216Y3D01*
X1Y2D02*
X1216Y2D01*
X1Y1D02*
X1216Y1D01*
D02*
G04 End of Silk1*
M02*