; NON-PLATED HOLES START AT T1
; THROUGH (PLATED) HOLES START AT T100
M48
INCH
T1C0.086614
T100C0.038000
T101C0.035433
T102C0.130000
T103C0.040000
T104C0.035000
%
T1
X003306Y011873
X003306Y000655
X011418Y000655
X011418Y011873
T100
X003457Y009292
X008456Y003288
X005456Y003288
X008390Y010857
X006456Y003288
X008457Y009292
X009457Y009292
X011456Y009292
X006457Y009292
X003456Y003288
X010456Y003288
X005457Y009292
X011455Y003288
X006390Y010857
X009456Y003288
X004456Y003288
X004457Y009292
X007456Y003288
X010457Y009292
X007457Y009292
X007390Y010857
T101
X004690Y008281
X007006Y008281
X004690Y005281
X007006Y005281
T102
X001462Y001361
X001462Y011204
T103
X000902Y005739
X002021Y006282
X000902Y006826
X002021Y008463
X000902Y007916
X000902Y004648
X002021Y005192
X002021Y007373
X002021Y004101
T104
X003421Y008276
X003421Y004276
X009643Y006161
X008137Y004276
X008137Y008276
X009643Y008161
X009643Y007161
X005862Y004276
X005862Y008276
X011455Y008297
X011455Y004297
T00
M30
