; NON-PLATED HOLES START AT T1
; THROUGH (PLATED) HOLES START AT T100
M48
INCH
T100C0.035000
T101C0.035433
T102C0.038000
T103C0.040000
%
T100
X009643Y003942
X003462Y005837
X007552Y005834
X005462Y001838
X009643Y002942
X008442Y001837
X008442Y005837
X005462Y005838
X007552Y001834
X003462Y001837
X009643Y004942
T101
X006457Y002837
X004457Y005837
X006457Y005837
X004457Y002837
T102
X010457Y006852
X010456Y000847
X011296Y003842
X009456Y000847
X009457Y006852
X006456Y000847
X007457Y006852
X003456Y000847
X008457Y006852
X006457Y006852
X011456Y006852
X004456Y000847
X007456Y000847
X005457Y006852
X003457Y006852
X004457Y006852
X008456Y000847
X011296Y004842
X011455Y000847
X005456Y000847
X011296Y002842
T103
X001938Y001722
X001938Y006084
X000820Y003360
X000820Y004446
X000820Y005537
X001938Y004993
X001938Y002812
X000820Y002269
X001938Y003903
T00
M30
