G04 MADE WITH FRITZING*
G04 WWW.FRITZING.ORG*
G04 DOUBLE SIDED*
G04 HOLES PLATED*
G04 CONTOUR ON CENTER OF CONTOUR VECTOR*
%ASAXBY*%
%FSLAX23Y23*%
%MOIN*%
%OFA0B0*%
%SFA1.0B1.0*%
%ADD10R,0.001000X0.001000*%
%LNSILK0*%
G90*
G70*
G54D10*
X1Y777D02*
X1222Y777D01*
X1Y776D02*
X1222Y776D01*
X1Y775D02*
X1222Y775D01*
X1Y774D02*
X1222Y774D01*
X1Y773D02*
X1222Y773D01*
X1Y772D02*
X1222Y772D01*
X1Y771D02*
X1222Y771D01*
X1Y770D02*
X1222Y770D01*
X1Y769D02*
X8Y769D01*
X1215Y769D02*
X1222Y769D01*
X1Y768D02*
X8Y768D01*
X1215Y768D02*
X1222Y768D01*
X1Y767D02*
X8Y767D01*
X1215Y767D02*
X1222Y767D01*
X1Y766D02*
X8Y766D01*
X1215Y766D02*
X1222Y766D01*
X1Y765D02*
X8Y765D01*
X1215Y765D02*
X1222Y765D01*
X1Y764D02*
X8Y764D01*
X1215Y764D02*
X1222Y764D01*
X1Y763D02*
X8Y763D01*
X1215Y763D02*
X1222Y763D01*
X1Y762D02*
X8Y762D01*
X1215Y762D02*
X1222Y762D01*
X1Y761D02*
X8Y761D01*
X1215Y761D02*
X1222Y761D01*
X1Y760D02*
X8Y760D01*
X1215Y760D02*
X1222Y760D01*
X1Y759D02*
X8Y759D01*
X1215Y759D02*
X1222Y759D01*
X1Y758D02*
X8Y758D01*
X1215Y758D02*
X1222Y758D01*
X1Y757D02*
X8Y757D01*
X1215Y757D02*
X1222Y757D01*
X1Y756D02*
X8Y756D01*
X1215Y756D02*
X1222Y756D01*
X1Y755D02*
X8Y755D01*
X1215Y755D02*
X1222Y755D01*
X1Y754D02*
X8Y754D01*
X1215Y754D02*
X1222Y754D01*
X1Y753D02*
X8Y753D01*
X1215Y753D02*
X1222Y753D01*
X1Y752D02*
X8Y752D01*
X1215Y752D02*
X1222Y752D01*
X1Y751D02*
X8Y751D01*
X1215Y751D02*
X1222Y751D01*
X1Y750D02*
X8Y750D01*
X1215Y750D02*
X1222Y750D01*
X1Y749D02*
X8Y749D01*
X1215Y749D02*
X1222Y749D01*
X1Y748D02*
X8Y748D01*
X1215Y748D02*
X1222Y748D01*
X1Y747D02*
X8Y747D01*
X1215Y747D02*
X1222Y747D01*
X1Y746D02*
X8Y746D01*
X1215Y746D02*
X1222Y746D01*
X1Y745D02*
X8Y745D01*
X1215Y745D02*
X1222Y745D01*
X1Y744D02*
X8Y744D01*
X1215Y744D02*
X1222Y744D01*
X1Y743D02*
X8Y743D01*
X1215Y743D02*
X1222Y743D01*
X1Y742D02*
X8Y742D01*
X1215Y742D02*
X1222Y742D01*
X1Y741D02*
X8Y741D01*
X1215Y741D02*
X1222Y741D01*
X1Y740D02*
X8Y740D01*
X1215Y740D02*
X1222Y740D01*
X1Y739D02*
X8Y739D01*
X1215Y739D02*
X1222Y739D01*
X1Y738D02*
X8Y738D01*
X1215Y738D02*
X1222Y738D01*
X1Y737D02*
X8Y737D01*
X1215Y737D02*
X1222Y737D01*
X1Y736D02*
X8Y736D01*
X1215Y736D02*
X1222Y736D01*
X1Y735D02*
X8Y735D01*
X1215Y735D02*
X1222Y735D01*
X1Y734D02*
X8Y734D01*
X1215Y734D02*
X1222Y734D01*
X1Y733D02*
X8Y733D01*
X1215Y733D02*
X1222Y733D01*
X1Y732D02*
X8Y732D01*
X1215Y732D02*
X1222Y732D01*
X1Y731D02*
X8Y731D01*
X1215Y731D02*
X1222Y731D01*
X1Y730D02*
X8Y730D01*
X1215Y730D02*
X1222Y730D01*
X1Y729D02*
X8Y729D01*
X1215Y729D02*
X1222Y729D01*
X1Y728D02*
X8Y728D01*
X1215Y728D02*
X1222Y728D01*
X1Y727D02*
X8Y727D01*
X1215Y727D02*
X1222Y727D01*
X1Y726D02*
X8Y726D01*
X1215Y726D02*
X1222Y726D01*
X1Y725D02*
X8Y725D01*
X1215Y725D02*
X1222Y725D01*
X1Y724D02*
X8Y724D01*
X1215Y724D02*
X1222Y724D01*
X1Y723D02*
X8Y723D01*
X1215Y723D02*
X1222Y723D01*
X1Y722D02*
X8Y722D01*
X1215Y722D02*
X1222Y722D01*
X1Y721D02*
X8Y721D01*
X1215Y721D02*
X1222Y721D01*
X1Y720D02*
X8Y720D01*
X1215Y720D02*
X1222Y720D01*
X1Y719D02*
X8Y719D01*
X1215Y719D02*
X1222Y719D01*
X1Y718D02*
X8Y718D01*
X1215Y718D02*
X1222Y718D01*
X1Y717D02*
X8Y717D01*
X1215Y717D02*
X1222Y717D01*
X1Y716D02*
X8Y716D01*
X1215Y716D02*
X1222Y716D01*
X1Y715D02*
X8Y715D01*
X1215Y715D02*
X1222Y715D01*
X1Y714D02*
X8Y714D01*
X1215Y714D02*
X1222Y714D01*
X1Y713D02*
X8Y713D01*
X1215Y713D02*
X1222Y713D01*
X1Y712D02*
X8Y712D01*
X1215Y712D02*
X1222Y712D01*
X1Y711D02*
X8Y711D01*
X1215Y711D02*
X1222Y711D01*
X1Y710D02*
X8Y710D01*
X1215Y710D02*
X1222Y710D01*
X1Y709D02*
X8Y709D01*
X1215Y709D02*
X1222Y709D01*
X1Y708D02*
X8Y708D01*
X1215Y708D02*
X1222Y708D01*
X1Y707D02*
X8Y707D01*
X1215Y707D02*
X1222Y707D01*
X1Y706D02*
X8Y706D01*
X1215Y706D02*
X1222Y706D01*
X1Y705D02*
X8Y705D01*
X1215Y705D02*
X1222Y705D01*
X1Y704D02*
X8Y704D01*
X1215Y704D02*
X1222Y704D01*
X1Y703D02*
X8Y703D01*
X1215Y703D02*
X1222Y703D01*
X1Y702D02*
X8Y702D01*
X1215Y702D02*
X1222Y702D01*
X1Y701D02*
X8Y701D01*
X1215Y701D02*
X1222Y701D01*
X1Y700D02*
X8Y700D01*
X1215Y700D02*
X1222Y700D01*
X1Y699D02*
X8Y699D01*
X1215Y699D02*
X1222Y699D01*
X1Y698D02*
X8Y698D01*
X1215Y698D02*
X1222Y698D01*
X1Y697D02*
X8Y697D01*
X1215Y697D02*
X1222Y697D01*
X1Y696D02*
X8Y696D01*
X1215Y696D02*
X1222Y696D01*
X1Y695D02*
X8Y695D01*
X1215Y695D02*
X1222Y695D01*
X1Y694D02*
X8Y694D01*
X1215Y694D02*
X1222Y694D01*
X1Y693D02*
X8Y693D01*
X1215Y693D02*
X1222Y693D01*
X1Y692D02*
X8Y692D01*
X1215Y692D02*
X1222Y692D01*
X1Y691D02*
X8Y691D01*
X1215Y691D02*
X1222Y691D01*
X1Y690D02*
X8Y690D01*
X1215Y690D02*
X1222Y690D01*
X1Y689D02*
X8Y689D01*
X1215Y689D02*
X1222Y689D01*
X1Y688D02*
X8Y688D01*
X1215Y688D02*
X1222Y688D01*
X1Y687D02*
X8Y687D01*
X1215Y687D02*
X1222Y687D01*
X1Y686D02*
X8Y686D01*
X1215Y686D02*
X1222Y686D01*
X1Y685D02*
X8Y685D01*
X1215Y685D02*
X1222Y685D01*
X1Y684D02*
X8Y684D01*
X1215Y684D02*
X1222Y684D01*
X1Y683D02*
X8Y683D01*
X1215Y683D02*
X1222Y683D01*
X1Y682D02*
X8Y682D01*
X1215Y682D02*
X1222Y682D01*
X1Y681D02*
X8Y681D01*
X1215Y681D02*
X1222Y681D01*
X1Y680D02*
X8Y680D01*
X1215Y680D02*
X1222Y680D01*
X1Y679D02*
X8Y679D01*
X1215Y679D02*
X1222Y679D01*
X1Y678D02*
X8Y678D01*
X1215Y678D02*
X1222Y678D01*
X1Y677D02*
X8Y677D01*
X1215Y677D02*
X1222Y677D01*
X1Y676D02*
X8Y676D01*
X1215Y676D02*
X1222Y676D01*
X1Y675D02*
X8Y675D01*
X1215Y675D02*
X1222Y675D01*
X1Y674D02*
X8Y674D01*
X1215Y674D02*
X1222Y674D01*
X1Y673D02*
X8Y673D01*
X1215Y673D02*
X1222Y673D01*
X1Y672D02*
X8Y672D01*
X1215Y672D02*
X1222Y672D01*
X1Y671D02*
X8Y671D01*
X1215Y671D02*
X1222Y671D01*
X1Y670D02*
X8Y670D01*
X1215Y670D02*
X1222Y670D01*
X1Y669D02*
X8Y669D01*
X1215Y669D02*
X1222Y669D01*
X1Y668D02*
X8Y668D01*
X1215Y668D02*
X1222Y668D01*
X1Y667D02*
X8Y667D01*
X1215Y667D02*
X1222Y667D01*
X1Y666D02*
X8Y666D01*
X1215Y666D02*
X1222Y666D01*
X1Y665D02*
X8Y665D01*
X1215Y665D02*
X1222Y665D01*
X1Y664D02*
X8Y664D01*
X1215Y664D02*
X1222Y664D01*
X1Y663D02*
X8Y663D01*
X1215Y663D02*
X1222Y663D01*
X1Y662D02*
X8Y662D01*
X1215Y662D02*
X1222Y662D01*
X1Y661D02*
X8Y661D01*
X1215Y661D02*
X1222Y661D01*
X1Y660D02*
X8Y660D01*
X1215Y660D02*
X1222Y660D01*
X1Y659D02*
X8Y659D01*
X1215Y659D02*
X1222Y659D01*
X1Y658D02*
X8Y658D01*
X1215Y658D02*
X1222Y658D01*
X1Y657D02*
X8Y657D01*
X1215Y657D02*
X1222Y657D01*
X1Y656D02*
X8Y656D01*
X1215Y656D02*
X1222Y656D01*
X1Y655D02*
X8Y655D01*
X1215Y655D02*
X1222Y655D01*
X1Y654D02*
X8Y654D01*
X1215Y654D02*
X1222Y654D01*
X1Y653D02*
X8Y653D01*
X1215Y653D02*
X1222Y653D01*
X1Y652D02*
X8Y652D01*
X1215Y652D02*
X1222Y652D01*
X1Y651D02*
X8Y651D01*
X1215Y651D02*
X1222Y651D01*
X1Y650D02*
X8Y650D01*
X1215Y650D02*
X1222Y650D01*
X1Y649D02*
X8Y649D01*
X1215Y649D02*
X1222Y649D01*
X1Y648D02*
X8Y648D01*
X1215Y648D02*
X1222Y648D01*
X1Y647D02*
X8Y647D01*
X1215Y647D02*
X1222Y647D01*
X1Y646D02*
X8Y646D01*
X1215Y646D02*
X1222Y646D01*
X1Y645D02*
X8Y645D01*
X1215Y645D02*
X1222Y645D01*
X1Y644D02*
X8Y644D01*
X1215Y644D02*
X1222Y644D01*
X1Y643D02*
X8Y643D01*
X1215Y643D02*
X1222Y643D01*
X1Y642D02*
X8Y642D01*
X1215Y642D02*
X1222Y642D01*
X1Y641D02*
X8Y641D01*
X1215Y641D02*
X1222Y641D01*
X1Y640D02*
X8Y640D01*
X1215Y640D02*
X1222Y640D01*
X1Y639D02*
X8Y639D01*
X1215Y639D02*
X1222Y639D01*
X1Y638D02*
X8Y638D01*
X1215Y638D02*
X1222Y638D01*
X1Y637D02*
X8Y637D01*
X1215Y637D02*
X1222Y637D01*
X1Y636D02*
X8Y636D01*
X1215Y636D02*
X1222Y636D01*
X1Y635D02*
X8Y635D01*
X1215Y635D02*
X1222Y635D01*
X1Y634D02*
X8Y634D01*
X1215Y634D02*
X1222Y634D01*
X1Y633D02*
X8Y633D01*
X1215Y633D02*
X1222Y633D01*
X1Y632D02*
X8Y632D01*
X1215Y632D02*
X1222Y632D01*
X1Y631D02*
X8Y631D01*
X1215Y631D02*
X1222Y631D01*
X1Y630D02*
X8Y630D01*
X1215Y630D02*
X1222Y630D01*
X1Y629D02*
X8Y629D01*
X1215Y629D02*
X1222Y629D01*
X1Y628D02*
X8Y628D01*
X1215Y628D02*
X1222Y628D01*
X1Y627D02*
X8Y627D01*
X1215Y627D02*
X1222Y627D01*
X1Y626D02*
X8Y626D01*
X1215Y626D02*
X1222Y626D01*
X1Y625D02*
X8Y625D01*
X1215Y625D02*
X1222Y625D01*
X1Y624D02*
X8Y624D01*
X1215Y624D02*
X1222Y624D01*
X1Y623D02*
X8Y623D01*
X1215Y623D02*
X1222Y623D01*
X1Y622D02*
X8Y622D01*
X1215Y622D02*
X1222Y622D01*
X1Y621D02*
X8Y621D01*
X1215Y621D02*
X1222Y621D01*
X1Y620D02*
X8Y620D01*
X1215Y620D02*
X1222Y620D01*
X1Y619D02*
X8Y619D01*
X1215Y619D02*
X1222Y619D01*
X1Y618D02*
X8Y618D01*
X1215Y618D02*
X1222Y618D01*
X1Y617D02*
X8Y617D01*
X1215Y617D02*
X1222Y617D01*
X1Y616D02*
X8Y616D01*
X1215Y616D02*
X1222Y616D01*
X1Y615D02*
X8Y615D01*
X1215Y615D02*
X1222Y615D01*
X1Y614D02*
X8Y614D01*
X1215Y614D02*
X1222Y614D01*
X1Y613D02*
X8Y613D01*
X1215Y613D02*
X1222Y613D01*
X1Y612D02*
X8Y612D01*
X1215Y612D02*
X1222Y612D01*
X1Y611D02*
X8Y611D01*
X1215Y611D02*
X1222Y611D01*
X1Y610D02*
X8Y610D01*
X1215Y610D02*
X1222Y610D01*
X1Y609D02*
X8Y609D01*
X1215Y609D02*
X1222Y609D01*
X1Y608D02*
X8Y608D01*
X1215Y608D02*
X1222Y608D01*
X1Y607D02*
X8Y607D01*
X1215Y607D02*
X1222Y607D01*
X1Y606D02*
X8Y606D01*
X1215Y606D02*
X1222Y606D01*
X1Y605D02*
X8Y605D01*
X1215Y605D02*
X1222Y605D01*
X1Y604D02*
X8Y604D01*
X1215Y604D02*
X1222Y604D01*
X1Y603D02*
X8Y603D01*
X1215Y603D02*
X1222Y603D01*
X1Y602D02*
X8Y602D01*
X1215Y602D02*
X1222Y602D01*
X1Y601D02*
X8Y601D01*
X1215Y601D02*
X1222Y601D01*
X1Y600D02*
X8Y600D01*
X1215Y600D02*
X1222Y600D01*
X1Y599D02*
X8Y599D01*
X1215Y599D02*
X1222Y599D01*
X1Y598D02*
X8Y598D01*
X1215Y598D02*
X1222Y598D01*
X1Y597D02*
X8Y597D01*
X1215Y597D02*
X1222Y597D01*
X1Y596D02*
X8Y596D01*
X1215Y596D02*
X1222Y596D01*
X1Y595D02*
X8Y595D01*
X1215Y595D02*
X1222Y595D01*
X1Y594D02*
X8Y594D01*
X1215Y594D02*
X1222Y594D01*
X1Y593D02*
X8Y593D01*
X1215Y593D02*
X1222Y593D01*
X1Y592D02*
X8Y592D01*
X1215Y592D02*
X1222Y592D01*
X1Y591D02*
X8Y591D01*
X1215Y591D02*
X1222Y591D01*
X1Y590D02*
X8Y590D01*
X1215Y590D02*
X1222Y590D01*
X1Y589D02*
X8Y589D01*
X1215Y589D02*
X1222Y589D01*
X1Y588D02*
X8Y588D01*
X1215Y588D02*
X1222Y588D01*
X1Y587D02*
X8Y587D01*
X1215Y587D02*
X1222Y587D01*
X1Y586D02*
X8Y586D01*
X1215Y586D02*
X1222Y586D01*
X1Y585D02*
X8Y585D01*
X1215Y585D02*
X1222Y585D01*
X1Y584D02*
X8Y584D01*
X1215Y584D02*
X1222Y584D01*
X1Y583D02*
X8Y583D01*
X1215Y583D02*
X1222Y583D01*
X1Y582D02*
X8Y582D01*
X1215Y582D02*
X1222Y582D01*
X1Y581D02*
X8Y581D01*
X1215Y581D02*
X1222Y581D01*
X1Y580D02*
X8Y580D01*
X1215Y580D02*
X1222Y580D01*
X1Y579D02*
X8Y579D01*
X1215Y579D02*
X1222Y579D01*
X1Y578D02*
X8Y578D01*
X1215Y578D02*
X1222Y578D01*
X1Y577D02*
X8Y577D01*
X1215Y577D02*
X1222Y577D01*
X1Y576D02*
X8Y576D01*
X1215Y576D02*
X1222Y576D01*
X1Y575D02*
X8Y575D01*
X1215Y575D02*
X1222Y575D01*
X1Y574D02*
X8Y574D01*
X1215Y574D02*
X1222Y574D01*
X1Y573D02*
X8Y573D01*
X1215Y573D02*
X1222Y573D01*
X1Y572D02*
X8Y572D01*
X1215Y572D02*
X1222Y572D01*
X1Y571D02*
X8Y571D01*
X1215Y571D02*
X1222Y571D01*
X1Y570D02*
X8Y570D01*
X1215Y570D02*
X1222Y570D01*
X1Y569D02*
X8Y569D01*
X1215Y569D02*
X1222Y569D01*
X1Y568D02*
X8Y568D01*
X1215Y568D02*
X1222Y568D01*
X1Y567D02*
X8Y567D01*
X1215Y567D02*
X1222Y567D01*
X1Y566D02*
X8Y566D01*
X1215Y566D02*
X1222Y566D01*
X1Y565D02*
X8Y565D01*
X1215Y565D02*
X1222Y565D01*
X1Y564D02*
X8Y564D01*
X1215Y564D02*
X1222Y564D01*
X1Y563D02*
X8Y563D01*
X1215Y563D02*
X1222Y563D01*
X1Y562D02*
X8Y562D01*
X1215Y562D02*
X1222Y562D01*
X1Y561D02*
X8Y561D01*
X1215Y561D02*
X1222Y561D01*
X1Y560D02*
X8Y560D01*
X1215Y560D02*
X1222Y560D01*
X1Y559D02*
X8Y559D01*
X1215Y559D02*
X1222Y559D01*
X1Y558D02*
X8Y558D01*
X1215Y558D02*
X1222Y558D01*
X1Y557D02*
X8Y557D01*
X1215Y557D02*
X1222Y557D01*
X1Y556D02*
X8Y556D01*
X1215Y556D02*
X1222Y556D01*
X1Y555D02*
X8Y555D01*
X1215Y555D02*
X1222Y555D01*
X1Y554D02*
X8Y554D01*
X1215Y554D02*
X1222Y554D01*
X1Y553D02*
X8Y553D01*
X1215Y553D02*
X1222Y553D01*
X1Y552D02*
X8Y552D01*
X1215Y552D02*
X1222Y552D01*
X1Y551D02*
X8Y551D01*
X1215Y551D02*
X1222Y551D01*
X1Y550D02*
X8Y550D01*
X1215Y550D02*
X1222Y550D01*
X1Y549D02*
X8Y549D01*
X1215Y549D02*
X1222Y549D01*
X1Y548D02*
X8Y548D01*
X1215Y548D02*
X1222Y548D01*
X1Y547D02*
X8Y547D01*
X1215Y547D02*
X1222Y547D01*
X1Y546D02*
X8Y546D01*
X1215Y546D02*
X1222Y546D01*
X1Y545D02*
X8Y545D01*
X1215Y545D02*
X1222Y545D01*
X1Y544D02*
X8Y544D01*
X1215Y544D02*
X1222Y544D01*
X1Y543D02*
X8Y543D01*
X1215Y543D02*
X1222Y543D01*
X1Y542D02*
X8Y542D01*
X1215Y542D02*
X1222Y542D01*
X1Y541D02*
X8Y541D01*
X1215Y541D02*
X1222Y541D01*
X1Y540D02*
X8Y540D01*
X1215Y540D02*
X1222Y540D01*
X1Y539D02*
X8Y539D01*
X1215Y539D02*
X1222Y539D01*
X1Y538D02*
X8Y538D01*
X1215Y538D02*
X1222Y538D01*
X1Y537D02*
X8Y537D01*
X1215Y537D02*
X1222Y537D01*
X1Y536D02*
X8Y536D01*
X1215Y536D02*
X1222Y536D01*
X1Y535D02*
X8Y535D01*
X1215Y535D02*
X1222Y535D01*
X1Y534D02*
X8Y534D01*
X1215Y534D02*
X1222Y534D01*
X1Y533D02*
X8Y533D01*
X1215Y533D02*
X1222Y533D01*
X1Y532D02*
X8Y532D01*
X1215Y532D02*
X1222Y532D01*
X1Y531D02*
X8Y531D01*
X1215Y531D02*
X1222Y531D01*
X1Y530D02*
X8Y530D01*
X1215Y530D02*
X1222Y530D01*
X1Y529D02*
X8Y529D01*
X1215Y529D02*
X1222Y529D01*
X1Y528D02*
X8Y528D01*
X1215Y528D02*
X1222Y528D01*
X1Y527D02*
X8Y527D01*
X1215Y527D02*
X1222Y527D01*
X1Y526D02*
X8Y526D01*
X1215Y526D02*
X1222Y526D01*
X1Y525D02*
X8Y525D01*
X1215Y525D02*
X1222Y525D01*
X1Y524D02*
X8Y524D01*
X1215Y524D02*
X1222Y524D01*
X1Y523D02*
X8Y523D01*
X1215Y523D02*
X1222Y523D01*
X1Y522D02*
X8Y522D01*
X1215Y522D02*
X1222Y522D01*
X1Y521D02*
X8Y521D01*
X1215Y521D02*
X1222Y521D01*
X1Y520D02*
X8Y520D01*
X1215Y520D02*
X1222Y520D01*
X1Y519D02*
X8Y519D01*
X1215Y519D02*
X1222Y519D01*
X1Y518D02*
X8Y518D01*
X1215Y518D02*
X1222Y518D01*
X1Y517D02*
X8Y517D01*
X1215Y517D02*
X1222Y517D01*
X1Y516D02*
X8Y516D01*
X1215Y516D02*
X1222Y516D01*
X1Y515D02*
X8Y515D01*
X1215Y515D02*
X1222Y515D01*
X1Y514D02*
X8Y514D01*
X1215Y514D02*
X1222Y514D01*
X1Y513D02*
X8Y513D01*
X1215Y513D02*
X1222Y513D01*
X1Y512D02*
X8Y512D01*
X1215Y512D02*
X1222Y512D01*
X1Y511D02*
X8Y511D01*
X1215Y511D02*
X1222Y511D01*
X1Y510D02*
X8Y510D01*
X1215Y510D02*
X1222Y510D01*
X1Y509D02*
X8Y509D01*
X1215Y509D02*
X1222Y509D01*
X1Y508D02*
X8Y508D01*
X1215Y508D02*
X1222Y508D01*
X1Y507D02*
X8Y507D01*
X1215Y507D02*
X1222Y507D01*
X1Y506D02*
X8Y506D01*
X1215Y506D02*
X1222Y506D01*
X1Y505D02*
X8Y505D01*
X1215Y505D02*
X1222Y505D01*
X1Y504D02*
X8Y504D01*
X1215Y504D02*
X1222Y504D01*
X1Y503D02*
X8Y503D01*
X1215Y503D02*
X1222Y503D01*
X1Y502D02*
X8Y502D01*
X1215Y502D02*
X1222Y502D01*
X1Y501D02*
X8Y501D01*
X1215Y501D02*
X1222Y501D01*
X1Y500D02*
X8Y500D01*
X1215Y500D02*
X1222Y500D01*
X1Y499D02*
X8Y499D01*
X1215Y499D02*
X1222Y499D01*
X1Y498D02*
X8Y498D01*
X1215Y498D02*
X1222Y498D01*
X1Y497D02*
X8Y497D01*
X1215Y497D02*
X1222Y497D01*
X1Y496D02*
X8Y496D01*
X1215Y496D02*
X1222Y496D01*
X1Y495D02*
X8Y495D01*
X1215Y495D02*
X1222Y495D01*
X1Y494D02*
X8Y494D01*
X1215Y494D02*
X1222Y494D01*
X1Y493D02*
X8Y493D01*
X1215Y493D02*
X1222Y493D01*
X1Y492D02*
X8Y492D01*
X1215Y492D02*
X1222Y492D01*
X1Y491D02*
X8Y491D01*
X1215Y491D02*
X1222Y491D01*
X1Y490D02*
X8Y490D01*
X1215Y490D02*
X1222Y490D01*
X1Y489D02*
X8Y489D01*
X1215Y489D02*
X1222Y489D01*
X1Y488D02*
X8Y488D01*
X1215Y488D02*
X1222Y488D01*
X1Y487D02*
X8Y487D01*
X1215Y487D02*
X1222Y487D01*
X1Y486D02*
X8Y486D01*
X1215Y486D02*
X1222Y486D01*
X1Y485D02*
X8Y485D01*
X1215Y485D02*
X1222Y485D01*
X1Y484D02*
X8Y484D01*
X1215Y484D02*
X1222Y484D01*
X1Y483D02*
X8Y483D01*
X1215Y483D02*
X1222Y483D01*
X1Y482D02*
X8Y482D01*
X1215Y482D02*
X1222Y482D01*
X1Y481D02*
X8Y481D01*
X1215Y481D02*
X1222Y481D01*
X1Y480D02*
X8Y480D01*
X1215Y480D02*
X1222Y480D01*
X1Y479D02*
X8Y479D01*
X1215Y479D02*
X1222Y479D01*
X1Y478D02*
X8Y478D01*
X1215Y478D02*
X1222Y478D01*
X1Y477D02*
X8Y477D01*
X1215Y477D02*
X1222Y477D01*
X1Y476D02*
X8Y476D01*
X1215Y476D02*
X1222Y476D01*
X1Y475D02*
X8Y475D01*
X1215Y475D02*
X1222Y475D01*
X1Y474D02*
X8Y474D01*
X1215Y474D02*
X1222Y474D01*
X1Y473D02*
X8Y473D01*
X1215Y473D02*
X1222Y473D01*
X1Y472D02*
X8Y472D01*
X1215Y472D02*
X1222Y472D01*
X1Y471D02*
X8Y471D01*
X1215Y471D02*
X1222Y471D01*
X1Y470D02*
X8Y470D01*
X1215Y470D02*
X1222Y470D01*
X1Y469D02*
X8Y469D01*
X1215Y469D02*
X1222Y469D01*
X1Y468D02*
X8Y468D01*
X1215Y468D02*
X1222Y468D01*
X1Y467D02*
X8Y467D01*
X1215Y467D02*
X1222Y467D01*
X1Y466D02*
X8Y466D01*
X1215Y466D02*
X1222Y466D01*
X1Y465D02*
X8Y465D01*
X1215Y465D02*
X1222Y465D01*
X1Y464D02*
X8Y464D01*
X1215Y464D02*
X1222Y464D01*
X1Y463D02*
X8Y463D01*
X1215Y463D02*
X1222Y463D01*
X1Y462D02*
X8Y462D01*
X1215Y462D02*
X1222Y462D01*
X1Y461D02*
X8Y461D01*
X1215Y461D02*
X1222Y461D01*
X1Y460D02*
X8Y460D01*
X1215Y460D02*
X1222Y460D01*
X1Y459D02*
X8Y459D01*
X1215Y459D02*
X1222Y459D01*
X1Y458D02*
X8Y458D01*
X1215Y458D02*
X1222Y458D01*
X1Y457D02*
X8Y457D01*
X1215Y457D02*
X1222Y457D01*
X1Y456D02*
X8Y456D01*
X1215Y456D02*
X1222Y456D01*
X1Y455D02*
X8Y455D01*
X1215Y455D02*
X1222Y455D01*
X1Y454D02*
X8Y454D01*
X1215Y454D02*
X1222Y454D01*
X1Y453D02*
X8Y453D01*
X1215Y453D02*
X1222Y453D01*
X1Y452D02*
X8Y452D01*
X1215Y452D02*
X1222Y452D01*
X1Y451D02*
X8Y451D01*
X1215Y451D02*
X1222Y451D01*
X1Y450D02*
X8Y450D01*
X1215Y450D02*
X1222Y450D01*
X1Y449D02*
X8Y449D01*
X1215Y449D02*
X1222Y449D01*
X1Y448D02*
X8Y448D01*
X1215Y448D02*
X1222Y448D01*
X1Y447D02*
X8Y447D01*
X1215Y447D02*
X1222Y447D01*
X1Y446D02*
X8Y446D01*
X1215Y446D02*
X1222Y446D01*
X1Y445D02*
X8Y445D01*
X1215Y445D02*
X1222Y445D01*
X1Y444D02*
X8Y444D01*
X1215Y444D02*
X1222Y444D01*
X1Y443D02*
X8Y443D01*
X1215Y443D02*
X1222Y443D01*
X1Y442D02*
X8Y442D01*
X1215Y442D02*
X1222Y442D01*
X1Y441D02*
X8Y441D01*
X1215Y441D02*
X1222Y441D01*
X1Y440D02*
X8Y440D01*
X1215Y440D02*
X1222Y440D01*
X1Y439D02*
X8Y439D01*
X1215Y439D02*
X1222Y439D01*
X1Y438D02*
X8Y438D01*
X1215Y438D02*
X1222Y438D01*
X1Y437D02*
X8Y437D01*
X1215Y437D02*
X1222Y437D01*
X1Y436D02*
X8Y436D01*
X1215Y436D02*
X1222Y436D01*
X1Y435D02*
X8Y435D01*
X1215Y435D02*
X1222Y435D01*
X1Y434D02*
X8Y434D01*
X1215Y434D02*
X1222Y434D01*
X1Y433D02*
X8Y433D01*
X1215Y433D02*
X1222Y433D01*
X1Y432D02*
X8Y432D01*
X1215Y432D02*
X1222Y432D01*
X1Y431D02*
X8Y431D01*
X1215Y431D02*
X1222Y431D01*
X1Y430D02*
X8Y430D01*
X1215Y430D02*
X1222Y430D01*
X1Y429D02*
X8Y429D01*
X1215Y429D02*
X1222Y429D01*
X1Y428D02*
X8Y428D01*
X1215Y428D02*
X1222Y428D01*
X1Y427D02*
X8Y427D01*
X1215Y427D02*
X1222Y427D01*
X1Y426D02*
X8Y426D01*
X1215Y426D02*
X1222Y426D01*
X1Y425D02*
X8Y425D01*
X1215Y425D02*
X1222Y425D01*
X1Y424D02*
X8Y424D01*
X1215Y424D02*
X1222Y424D01*
X1Y423D02*
X8Y423D01*
X1215Y423D02*
X1222Y423D01*
X1Y422D02*
X8Y422D01*
X1215Y422D02*
X1222Y422D01*
X1Y421D02*
X8Y421D01*
X1215Y421D02*
X1222Y421D01*
X1Y420D02*
X8Y420D01*
X1215Y420D02*
X1222Y420D01*
X1Y419D02*
X8Y419D01*
X1215Y419D02*
X1222Y419D01*
X1Y418D02*
X8Y418D01*
X1215Y418D02*
X1222Y418D01*
X1Y417D02*
X8Y417D01*
X1215Y417D02*
X1222Y417D01*
X1Y416D02*
X8Y416D01*
X1215Y416D02*
X1222Y416D01*
X1Y415D02*
X8Y415D01*
X1215Y415D02*
X1222Y415D01*
X1Y414D02*
X8Y414D01*
X1215Y414D02*
X1222Y414D01*
X1Y413D02*
X8Y413D01*
X1215Y413D02*
X1222Y413D01*
X1Y412D02*
X8Y412D01*
X1215Y412D02*
X1222Y412D01*
X1Y411D02*
X8Y411D01*
X1215Y411D02*
X1222Y411D01*
X1Y410D02*
X8Y410D01*
X1215Y410D02*
X1222Y410D01*
X1Y409D02*
X8Y409D01*
X1215Y409D02*
X1222Y409D01*
X1Y408D02*
X8Y408D01*
X1215Y408D02*
X1222Y408D01*
X1Y407D02*
X8Y407D01*
X1215Y407D02*
X1222Y407D01*
X1Y406D02*
X8Y406D01*
X1215Y406D02*
X1222Y406D01*
X1Y405D02*
X8Y405D01*
X1215Y405D02*
X1222Y405D01*
X1Y404D02*
X8Y404D01*
X1215Y404D02*
X1222Y404D01*
X1Y403D02*
X8Y403D01*
X1215Y403D02*
X1222Y403D01*
X1Y402D02*
X8Y402D01*
X1215Y402D02*
X1222Y402D01*
X1Y401D02*
X8Y401D01*
X1215Y401D02*
X1222Y401D01*
X1Y400D02*
X8Y400D01*
X1215Y400D02*
X1222Y400D01*
X1Y399D02*
X8Y399D01*
X1215Y399D02*
X1222Y399D01*
X1Y398D02*
X8Y398D01*
X1215Y398D02*
X1222Y398D01*
X1Y397D02*
X8Y397D01*
X1215Y397D02*
X1222Y397D01*
X1Y396D02*
X8Y396D01*
X1215Y396D02*
X1222Y396D01*
X1Y395D02*
X8Y395D01*
X1215Y395D02*
X1222Y395D01*
X1Y394D02*
X8Y394D01*
X1215Y394D02*
X1222Y394D01*
X1Y393D02*
X8Y393D01*
X1215Y393D02*
X1222Y393D01*
X1Y392D02*
X8Y392D01*
X1215Y392D02*
X1222Y392D01*
X1Y391D02*
X8Y391D01*
X1215Y391D02*
X1222Y391D01*
X1Y390D02*
X8Y390D01*
X1215Y390D02*
X1222Y390D01*
X1Y389D02*
X8Y389D01*
X1215Y389D02*
X1222Y389D01*
X1Y388D02*
X8Y388D01*
X1215Y388D02*
X1222Y388D01*
X1Y387D02*
X8Y387D01*
X1215Y387D02*
X1222Y387D01*
X1Y386D02*
X8Y386D01*
X1215Y386D02*
X1222Y386D01*
X1Y385D02*
X8Y385D01*
X1215Y385D02*
X1222Y385D01*
X1Y384D02*
X8Y384D01*
X1215Y384D02*
X1222Y384D01*
X1Y383D02*
X8Y383D01*
X1215Y383D02*
X1222Y383D01*
X1Y382D02*
X8Y382D01*
X1215Y382D02*
X1222Y382D01*
X1Y381D02*
X8Y381D01*
X1215Y381D02*
X1222Y381D01*
X1Y380D02*
X8Y380D01*
X1215Y380D02*
X1222Y380D01*
X1Y379D02*
X8Y379D01*
X1215Y379D02*
X1222Y379D01*
X1Y378D02*
X8Y378D01*
X1215Y378D02*
X1222Y378D01*
X1Y377D02*
X8Y377D01*
X1215Y377D02*
X1222Y377D01*
X1Y376D02*
X8Y376D01*
X1215Y376D02*
X1222Y376D01*
X1Y375D02*
X8Y375D01*
X1215Y375D02*
X1222Y375D01*
X1Y374D02*
X8Y374D01*
X1215Y374D02*
X1222Y374D01*
X1Y373D02*
X8Y373D01*
X1215Y373D02*
X1222Y373D01*
X1Y372D02*
X8Y372D01*
X1215Y372D02*
X1222Y372D01*
X1Y371D02*
X8Y371D01*
X1215Y371D02*
X1222Y371D01*
X1Y370D02*
X8Y370D01*
X1215Y370D02*
X1222Y370D01*
X1Y369D02*
X8Y369D01*
X1215Y369D02*
X1222Y369D01*
X1Y368D02*
X8Y368D01*
X1215Y368D02*
X1222Y368D01*
X1Y367D02*
X8Y367D01*
X1215Y367D02*
X1222Y367D01*
X1Y366D02*
X8Y366D01*
X1215Y366D02*
X1222Y366D01*
X1Y365D02*
X8Y365D01*
X1215Y365D02*
X1222Y365D01*
X1Y364D02*
X8Y364D01*
X1215Y364D02*
X1222Y364D01*
X1Y363D02*
X8Y363D01*
X1215Y363D02*
X1222Y363D01*
X1Y362D02*
X8Y362D01*
X1215Y362D02*
X1222Y362D01*
X1Y361D02*
X8Y361D01*
X1215Y361D02*
X1222Y361D01*
X1Y360D02*
X8Y360D01*
X1215Y360D02*
X1222Y360D01*
X1Y359D02*
X8Y359D01*
X1215Y359D02*
X1222Y359D01*
X1Y358D02*
X8Y358D01*
X1215Y358D02*
X1222Y358D01*
X1Y357D02*
X8Y357D01*
X1215Y357D02*
X1222Y357D01*
X1Y356D02*
X8Y356D01*
X1215Y356D02*
X1222Y356D01*
X1Y355D02*
X8Y355D01*
X1215Y355D02*
X1222Y355D01*
X1Y354D02*
X8Y354D01*
X1215Y354D02*
X1222Y354D01*
X1Y353D02*
X8Y353D01*
X1215Y353D02*
X1222Y353D01*
X1Y352D02*
X8Y352D01*
X1215Y352D02*
X1222Y352D01*
X1Y351D02*
X8Y351D01*
X1215Y351D02*
X1222Y351D01*
X1Y350D02*
X8Y350D01*
X1215Y350D02*
X1222Y350D01*
X1Y349D02*
X8Y349D01*
X1215Y349D02*
X1222Y349D01*
X1Y348D02*
X8Y348D01*
X1215Y348D02*
X1222Y348D01*
X1Y347D02*
X8Y347D01*
X1215Y347D02*
X1222Y347D01*
X1Y346D02*
X8Y346D01*
X1215Y346D02*
X1222Y346D01*
X1Y345D02*
X8Y345D01*
X1215Y345D02*
X1222Y345D01*
X1Y344D02*
X8Y344D01*
X1215Y344D02*
X1222Y344D01*
X1Y343D02*
X8Y343D01*
X1215Y343D02*
X1222Y343D01*
X1Y342D02*
X8Y342D01*
X1215Y342D02*
X1222Y342D01*
X1Y341D02*
X8Y341D01*
X1215Y341D02*
X1222Y341D01*
X1Y340D02*
X8Y340D01*
X1215Y340D02*
X1222Y340D01*
X1Y339D02*
X8Y339D01*
X1215Y339D02*
X1222Y339D01*
X1Y338D02*
X8Y338D01*
X1215Y338D02*
X1222Y338D01*
X1Y337D02*
X8Y337D01*
X1215Y337D02*
X1222Y337D01*
X1Y336D02*
X8Y336D01*
X1215Y336D02*
X1222Y336D01*
X1Y335D02*
X8Y335D01*
X1215Y335D02*
X1222Y335D01*
X1Y334D02*
X8Y334D01*
X1215Y334D02*
X1222Y334D01*
X1Y333D02*
X8Y333D01*
X1215Y333D02*
X1222Y333D01*
X1Y332D02*
X8Y332D01*
X1215Y332D02*
X1222Y332D01*
X1Y331D02*
X8Y331D01*
X1215Y331D02*
X1222Y331D01*
X1Y330D02*
X8Y330D01*
X1215Y330D02*
X1222Y330D01*
X1Y329D02*
X8Y329D01*
X1215Y329D02*
X1222Y329D01*
X1Y328D02*
X8Y328D01*
X1215Y328D02*
X1222Y328D01*
X1Y327D02*
X8Y327D01*
X1215Y327D02*
X1222Y327D01*
X1Y326D02*
X8Y326D01*
X1215Y326D02*
X1222Y326D01*
X1Y325D02*
X8Y325D01*
X1215Y325D02*
X1222Y325D01*
X1Y324D02*
X8Y324D01*
X1215Y324D02*
X1222Y324D01*
X1Y323D02*
X8Y323D01*
X1215Y323D02*
X1222Y323D01*
X1Y322D02*
X8Y322D01*
X1215Y322D02*
X1222Y322D01*
X1Y321D02*
X8Y321D01*
X1215Y321D02*
X1222Y321D01*
X1Y320D02*
X8Y320D01*
X1215Y320D02*
X1222Y320D01*
X1Y319D02*
X8Y319D01*
X1215Y319D02*
X1222Y319D01*
X1Y318D02*
X8Y318D01*
X1215Y318D02*
X1222Y318D01*
X1Y317D02*
X8Y317D01*
X1215Y317D02*
X1222Y317D01*
X1Y316D02*
X8Y316D01*
X1215Y316D02*
X1222Y316D01*
X1Y315D02*
X8Y315D01*
X1215Y315D02*
X1222Y315D01*
X1Y314D02*
X8Y314D01*
X1215Y314D02*
X1222Y314D01*
X1Y313D02*
X8Y313D01*
X1215Y313D02*
X1222Y313D01*
X1Y312D02*
X8Y312D01*
X1215Y312D02*
X1222Y312D01*
X1Y311D02*
X8Y311D01*
X1215Y311D02*
X1222Y311D01*
X1Y310D02*
X8Y310D01*
X1215Y310D02*
X1222Y310D01*
X1Y309D02*
X8Y309D01*
X1215Y309D02*
X1222Y309D01*
X1Y308D02*
X8Y308D01*
X1215Y308D02*
X1222Y308D01*
X1Y307D02*
X8Y307D01*
X1215Y307D02*
X1222Y307D01*
X1Y306D02*
X8Y306D01*
X1215Y306D02*
X1222Y306D01*
X1Y305D02*
X8Y305D01*
X1215Y305D02*
X1222Y305D01*
X1Y304D02*
X8Y304D01*
X1215Y304D02*
X1222Y304D01*
X1Y303D02*
X8Y303D01*
X1215Y303D02*
X1222Y303D01*
X1Y302D02*
X8Y302D01*
X1215Y302D02*
X1222Y302D01*
X1Y301D02*
X8Y301D01*
X1215Y301D02*
X1222Y301D01*
X1Y300D02*
X8Y300D01*
X1215Y300D02*
X1222Y300D01*
X1Y299D02*
X8Y299D01*
X1215Y299D02*
X1222Y299D01*
X1Y298D02*
X8Y298D01*
X1215Y298D02*
X1222Y298D01*
X1Y297D02*
X8Y297D01*
X1215Y297D02*
X1222Y297D01*
X1Y296D02*
X8Y296D01*
X1215Y296D02*
X1222Y296D01*
X1Y295D02*
X8Y295D01*
X1215Y295D02*
X1222Y295D01*
X1Y294D02*
X8Y294D01*
X1215Y294D02*
X1222Y294D01*
X1Y293D02*
X8Y293D01*
X1215Y293D02*
X1222Y293D01*
X1Y292D02*
X8Y292D01*
X1215Y292D02*
X1222Y292D01*
X1Y291D02*
X8Y291D01*
X1215Y291D02*
X1222Y291D01*
X1Y290D02*
X8Y290D01*
X1215Y290D02*
X1222Y290D01*
X1Y289D02*
X8Y289D01*
X1215Y289D02*
X1222Y289D01*
X1Y288D02*
X8Y288D01*
X1215Y288D02*
X1222Y288D01*
X1Y287D02*
X8Y287D01*
X1215Y287D02*
X1222Y287D01*
X1Y286D02*
X8Y286D01*
X1215Y286D02*
X1222Y286D01*
X1Y285D02*
X8Y285D01*
X1215Y285D02*
X1222Y285D01*
X1Y284D02*
X8Y284D01*
X1215Y284D02*
X1222Y284D01*
X1Y283D02*
X8Y283D01*
X1215Y283D02*
X1222Y283D01*
X1Y282D02*
X8Y282D01*
X1215Y282D02*
X1222Y282D01*
X1Y281D02*
X8Y281D01*
X1215Y281D02*
X1222Y281D01*
X1Y280D02*
X8Y280D01*
X1215Y280D02*
X1222Y280D01*
X1Y279D02*
X8Y279D01*
X1215Y279D02*
X1222Y279D01*
X1Y278D02*
X8Y278D01*
X1215Y278D02*
X1222Y278D01*
X1Y277D02*
X8Y277D01*
X1215Y277D02*
X1222Y277D01*
X1Y276D02*
X8Y276D01*
X1215Y276D02*
X1222Y276D01*
X1Y275D02*
X8Y275D01*
X1215Y275D02*
X1222Y275D01*
X1Y274D02*
X8Y274D01*
X1215Y274D02*
X1222Y274D01*
X1Y273D02*
X8Y273D01*
X1215Y273D02*
X1222Y273D01*
X1Y272D02*
X8Y272D01*
X1215Y272D02*
X1222Y272D01*
X1Y271D02*
X8Y271D01*
X1215Y271D02*
X1222Y271D01*
X1Y270D02*
X8Y270D01*
X1215Y270D02*
X1222Y270D01*
X1Y269D02*
X8Y269D01*
X1215Y269D02*
X1222Y269D01*
X1Y268D02*
X8Y268D01*
X1215Y268D02*
X1222Y268D01*
X1Y267D02*
X8Y267D01*
X1215Y267D02*
X1222Y267D01*
X1Y266D02*
X8Y266D01*
X1215Y266D02*
X1222Y266D01*
X1Y265D02*
X8Y265D01*
X1215Y265D02*
X1222Y265D01*
X1Y264D02*
X8Y264D01*
X1215Y264D02*
X1222Y264D01*
X1Y263D02*
X8Y263D01*
X1215Y263D02*
X1222Y263D01*
X1Y262D02*
X8Y262D01*
X1215Y262D02*
X1222Y262D01*
X1Y261D02*
X8Y261D01*
X1215Y261D02*
X1222Y261D01*
X1Y260D02*
X8Y260D01*
X1215Y260D02*
X1222Y260D01*
X1Y259D02*
X8Y259D01*
X1215Y259D02*
X1222Y259D01*
X1Y258D02*
X8Y258D01*
X1215Y258D02*
X1222Y258D01*
X1Y257D02*
X8Y257D01*
X1215Y257D02*
X1222Y257D01*
X1Y256D02*
X8Y256D01*
X1215Y256D02*
X1222Y256D01*
X1Y255D02*
X8Y255D01*
X1215Y255D02*
X1222Y255D01*
X1Y254D02*
X8Y254D01*
X1215Y254D02*
X1222Y254D01*
X1Y253D02*
X8Y253D01*
X1215Y253D02*
X1222Y253D01*
X1Y252D02*
X8Y252D01*
X1215Y252D02*
X1222Y252D01*
X1Y251D02*
X8Y251D01*
X1215Y251D02*
X1222Y251D01*
X1Y250D02*
X8Y250D01*
X1215Y250D02*
X1222Y250D01*
X1Y249D02*
X8Y249D01*
X1215Y249D02*
X1222Y249D01*
X1Y248D02*
X8Y248D01*
X1215Y248D02*
X1222Y248D01*
X1Y247D02*
X8Y247D01*
X1215Y247D02*
X1222Y247D01*
X1Y246D02*
X8Y246D01*
X1215Y246D02*
X1222Y246D01*
X1Y245D02*
X8Y245D01*
X1215Y245D02*
X1222Y245D01*
X1Y244D02*
X8Y244D01*
X1215Y244D02*
X1222Y244D01*
X1Y243D02*
X8Y243D01*
X1215Y243D02*
X1222Y243D01*
X1Y242D02*
X8Y242D01*
X1215Y242D02*
X1222Y242D01*
X1Y241D02*
X8Y241D01*
X1215Y241D02*
X1222Y241D01*
X1Y240D02*
X8Y240D01*
X1215Y240D02*
X1222Y240D01*
X1Y239D02*
X8Y239D01*
X1215Y239D02*
X1222Y239D01*
X1Y238D02*
X8Y238D01*
X1215Y238D02*
X1222Y238D01*
X1Y237D02*
X8Y237D01*
X1215Y237D02*
X1222Y237D01*
X1Y236D02*
X8Y236D01*
X1215Y236D02*
X1222Y236D01*
X1Y235D02*
X8Y235D01*
X1215Y235D02*
X1222Y235D01*
X1Y234D02*
X8Y234D01*
X1215Y234D02*
X1222Y234D01*
X1Y233D02*
X8Y233D01*
X1215Y233D02*
X1222Y233D01*
X1Y232D02*
X8Y232D01*
X1215Y232D02*
X1222Y232D01*
X1Y231D02*
X8Y231D01*
X1215Y231D02*
X1222Y231D01*
X1Y230D02*
X8Y230D01*
X1215Y230D02*
X1222Y230D01*
X1Y229D02*
X8Y229D01*
X1215Y229D02*
X1222Y229D01*
X1Y228D02*
X8Y228D01*
X1215Y228D02*
X1222Y228D01*
X1Y227D02*
X8Y227D01*
X1215Y227D02*
X1222Y227D01*
X1Y226D02*
X8Y226D01*
X1215Y226D02*
X1222Y226D01*
X1Y225D02*
X8Y225D01*
X1215Y225D02*
X1222Y225D01*
X1Y224D02*
X8Y224D01*
X1215Y224D02*
X1222Y224D01*
X1Y223D02*
X8Y223D01*
X1215Y223D02*
X1222Y223D01*
X1Y222D02*
X8Y222D01*
X1215Y222D02*
X1222Y222D01*
X1Y221D02*
X8Y221D01*
X1215Y221D02*
X1222Y221D01*
X1Y220D02*
X8Y220D01*
X1215Y220D02*
X1222Y220D01*
X1Y219D02*
X8Y219D01*
X1215Y219D02*
X1222Y219D01*
X1Y218D02*
X8Y218D01*
X1215Y218D02*
X1222Y218D01*
X1Y217D02*
X8Y217D01*
X1215Y217D02*
X1222Y217D01*
X1Y216D02*
X8Y216D01*
X1215Y216D02*
X1222Y216D01*
X1Y215D02*
X8Y215D01*
X1215Y215D02*
X1222Y215D01*
X1Y214D02*
X8Y214D01*
X1215Y214D02*
X1222Y214D01*
X1Y213D02*
X8Y213D01*
X1215Y213D02*
X1222Y213D01*
X1Y212D02*
X8Y212D01*
X1215Y212D02*
X1222Y212D01*
X1Y211D02*
X8Y211D01*
X1215Y211D02*
X1222Y211D01*
X1Y210D02*
X8Y210D01*
X1215Y210D02*
X1222Y210D01*
X1Y209D02*
X8Y209D01*
X1215Y209D02*
X1222Y209D01*
X1Y208D02*
X8Y208D01*
X1215Y208D02*
X1222Y208D01*
X1Y207D02*
X8Y207D01*
X1215Y207D02*
X1222Y207D01*
X1Y206D02*
X8Y206D01*
X1215Y206D02*
X1222Y206D01*
X1Y205D02*
X8Y205D01*
X1215Y205D02*
X1222Y205D01*
X1Y204D02*
X8Y204D01*
X1215Y204D02*
X1222Y204D01*
X1Y203D02*
X8Y203D01*
X1215Y203D02*
X1222Y203D01*
X1Y202D02*
X8Y202D01*
X1215Y202D02*
X1222Y202D01*
X1Y201D02*
X8Y201D01*
X1215Y201D02*
X1222Y201D01*
X1Y200D02*
X8Y200D01*
X1215Y200D02*
X1222Y200D01*
X1Y199D02*
X8Y199D01*
X1215Y199D02*
X1222Y199D01*
X1Y198D02*
X8Y198D01*
X1215Y198D02*
X1222Y198D01*
X1Y197D02*
X8Y197D01*
X1215Y197D02*
X1222Y197D01*
X1Y196D02*
X8Y196D01*
X1215Y196D02*
X1222Y196D01*
X1Y195D02*
X8Y195D01*
X1215Y195D02*
X1222Y195D01*
X1Y194D02*
X8Y194D01*
X1215Y194D02*
X1222Y194D01*
X1Y193D02*
X8Y193D01*
X1215Y193D02*
X1222Y193D01*
X1Y192D02*
X8Y192D01*
X1215Y192D02*
X1222Y192D01*
X1Y191D02*
X8Y191D01*
X1215Y191D02*
X1222Y191D01*
X1Y190D02*
X8Y190D01*
X1215Y190D02*
X1222Y190D01*
X1Y189D02*
X8Y189D01*
X1215Y189D02*
X1222Y189D01*
X1Y188D02*
X8Y188D01*
X1215Y188D02*
X1222Y188D01*
X1Y187D02*
X8Y187D01*
X1215Y187D02*
X1222Y187D01*
X1Y186D02*
X8Y186D01*
X1215Y186D02*
X1222Y186D01*
X1Y185D02*
X8Y185D01*
X1215Y185D02*
X1222Y185D01*
X1Y184D02*
X8Y184D01*
X1215Y184D02*
X1222Y184D01*
X1Y183D02*
X8Y183D01*
X1215Y183D02*
X1222Y183D01*
X1Y182D02*
X8Y182D01*
X1215Y182D02*
X1222Y182D01*
X1Y181D02*
X8Y181D01*
X1215Y181D02*
X1222Y181D01*
X1Y180D02*
X8Y180D01*
X1215Y180D02*
X1222Y180D01*
X1Y179D02*
X8Y179D01*
X1215Y179D02*
X1222Y179D01*
X1Y178D02*
X8Y178D01*
X1215Y178D02*
X1222Y178D01*
X1Y177D02*
X8Y177D01*
X1215Y177D02*
X1222Y177D01*
X1Y176D02*
X8Y176D01*
X1215Y176D02*
X1222Y176D01*
X1Y175D02*
X8Y175D01*
X1215Y175D02*
X1222Y175D01*
X1Y174D02*
X8Y174D01*
X1215Y174D02*
X1222Y174D01*
X1Y173D02*
X8Y173D01*
X1215Y173D02*
X1222Y173D01*
X1Y172D02*
X8Y172D01*
X1215Y172D02*
X1222Y172D01*
X1Y171D02*
X8Y171D01*
X1215Y171D02*
X1222Y171D01*
X1Y170D02*
X8Y170D01*
X1215Y170D02*
X1222Y170D01*
X1Y169D02*
X8Y169D01*
X1215Y169D02*
X1222Y169D01*
X1Y168D02*
X8Y168D01*
X1215Y168D02*
X1222Y168D01*
X1Y167D02*
X8Y167D01*
X1215Y167D02*
X1222Y167D01*
X1Y166D02*
X8Y166D01*
X1215Y166D02*
X1222Y166D01*
X1Y165D02*
X8Y165D01*
X1215Y165D02*
X1222Y165D01*
X1Y164D02*
X8Y164D01*
X1215Y164D02*
X1222Y164D01*
X1Y163D02*
X8Y163D01*
X1215Y163D02*
X1222Y163D01*
X1Y162D02*
X8Y162D01*
X1215Y162D02*
X1222Y162D01*
X1Y161D02*
X8Y161D01*
X1215Y161D02*
X1222Y161D01*
X1Y160D02*
X8Y160D01*
X1215Y160D02*
X1222Y160D01*
X1Y159D02*
X8Y159D01*
X1215Y159D02*
X1222Y159D01*
X1Y158D02*
X8Y158D01*
X1215Y158D02*
X1222Y158D01*
X1Y157D02*
X8Y157D01*
X1215Y157D02*
X1222Y157D01*
X1Y156D02*
X8Y156D01*
X1215Y156D02*
X1222Y156D01*
X1Y155D02*
X8Y155D01*
X1215Y155D02*
X1222Y155D01*
X1Y154D02*
X8Y154D01*
X1215Y154D02*
X1222Y154D01*
X1Y153D02*
X8Y153D01*
X1215Y153D02*
X1222Y153D01*
X1Y152D02*
X8Y152D01*
X1215Y152D02*
X1222Y152D01*
X1Y151D02*
X8Y151D01*
X1215Y151D02*
X1222Y151D01*
X1Y150D02*
X8Y150D01*
X1215Y150D02*
X1222Y150D01*
X1Y149D02*
X8Y149D01*
X1215Y149D02*
X1222Y149D01*
X1Y148D02*
X8Y148D01*
X1215Y148D02*
X1222Y148D01*
X1Y147D02*
X8Y147D01*
X1215Y147D02*
X1222Y147D01*
X1Y146D02*
X8Y146D01*
X1215Y146D02*
X1222Y146D01*
X1Y145D02*
X8Y145D01*
X1215Y145D02*
X1222Y145D01*
X1Y144D02*
X8Y144D01*
X1215Y144D02*
X1222Y144D01*
X1Y143D02*
X8Y143D01*
X1215Y143D02*
X1222Y143D01*
X1Y142D02*
X8Y142D01*
X1215Y142D02*
X1222Y142D01*
X1Y141D02*
X8Y141D01*
X1215Y141D02*
X1222Y141D01*
X1Y140D02*
X8Y140D01*
X1215Y140D02*
X1222Y140D01*
X1Y139D02*
X8Y139D01*
X1215Y139D02*
X1222Y139D01*
X1Y138D02*
X8Y138D01*
X1215Y138D02*
X1222Y138D01*
X1Y137D02*
X8Y137D01*
X1215Y137D02*
X1222Y137D01*
X1Y136D02*
X8Y136D01*
X1215Y136D02*
X1222Y136D01*
X1Y135D02*
X8Y135D01*
X1215Y135D02*
X1222Y135D01*
X1Y134D02*
X8Y134D01*
X1215Y134D02*
X1222Y134D01*
X1Y133D02*
X8Y133D01*
X1215Y133D02*
X1222Y133D01*
X1Y132D02*
X8Y132D01*
X1215Y132D02*
X1222Y132D01*
X1Y131D02*
X8Y131D01*
X1215Y131D02*
X1222Y131D01*
X1Y130D02*
X8Y130D01*
X1215Y130D02*
X1222Y130D01*
X1Y129D02*
X8Y129D01*
X1215Y129D02*
X1222Y129D01*
X1Y128D02*
X8Y128D01*
X1215Y128D02*
X1222Y128D01*
X1Y127D02*
X8Y127D01*
X1215Y127D02*
X1222Y127D01*
X1Y126D02*
X8Y126D01*
X1215Y126D02*
X1222Y126D01*
X1Y125D02*
X8Y125D01*
X1215Y125D02*
X1222Y125D01*
X1Y124D02*
X8Y124D01*
X1215Y124D02*
X1222Y124D01*
X1Y123D02*
X8Y123D01*
X1215Y123D02*
X1222Y123D01*
X1Y122D02*
X8Y122D01*
X1215Y122D02*
X1222Y122D01*
X1Y121D02*
X8Y121D01*
X1215Y121D02*
X1222Y121D01*
X1Y120D02*
X8Y120D01*
X1215Y120D02*
X1222Y120D01*
X1Y119D02*
X8Y119D01*
X1215Y119D02*
X1222Y119D01*
X1Y118D02*
X8Y118D01*
X1215Y118D02*
X1222Y118D01*
X1Y117D02*
X8Y117D01*
X1215Y117D02*
X1222Y117D01*
X1Y116D02*
X8Y116D01*
X1215Y116D02*
X1222Y116D01*
X1Y115D02*
X8Y115D01*
X1215Y115D02*
X1222Y115D01*
X1Y114D02*
X8Y114D01*
X1215Y114D02*
X1222Y114D01*
X1Y113D02*
X8Y113D01*
X1215Y113D02*
X1222Y113D01*
X1Y112D02*
X8Y112D01*
X1215Y112D02*
X1222Y112D01*
X1Y111D02*
X8Y111D01*
X1215Y111D02*
X1222Y111D01*
X1Y110D02*
X8Y110D01*
X1215Y110D02*
X1222Y110D01*
X1Y109D02*
X8Y109D01*
X1215Y109D02*
X1222Y109D01*
X1Y108D02*
X8Y108D01*
X1215Y108D02*
X1222Y108D01*
X1Y107D02*
X8Y107D01*
X1215Y107D02*
X1222Y107D01*
X1Y106D02*
X8Y106D01*
X1215Y106D02*
X1222Y106D01*
X1Y105D02*
X8Y105D01*
X1215Y105D02*
X1222Y105D01*
X1Y104D02*
X8Y104D01*
X1215Y104D02*
X1222Y104D01*
X1Y103D02*
X8Y103D01*
X1215Y103D02*
X1222Y103D01*
X1Y102D02*
X8Y102D01*
X1215Y102D02*
X1222Y102D01*
X1Y101D02*
X8Y101D01*
X1215Y101D02*
X1222Y101D01*
X1Y100D02*
X8Y100D01*
X1215Y100D02*
X1222Y100D01*
X1Y99D02*
X8Y99D01*
X1215Y99D02*
X1222Y99D01*
X1Y98D02*
X8Y98D01*
X1215Y98D02*
X1222Y98D01*
X1Y97D02*
X8Y97D01*
X1215Y97D02*
X1222Y97D01*
X1Y96D02*
X8Y96D01*
X1215Y96D02*
X1222Y96D01*
X1Y95D02*
X8Y95D01*
X1215Y95D02*
X1222Y95D01*
X1Y94D02*
X8Y94D01*
X1215Y94D02*
X1222Y94D01*
X1Y93D02*
X8Y93D01*
X1215Y93D02*
X1222Y93D01*
X1Y92D02*
X8Y92D01*
X1215Y92D02*
X1222Y92D01*
X1Y91D02*
X8Y91D01*
X1215Y91D02*
X1222Y91D01*
X1Y90D02*
X8Y90D01*
X1215Y90D02*
X1222Y90D01*
X1Y89D02*
X8Y89D01*
X1215Y89D02*
X1222Y89D01*
X1Y88D02*
X8Y88D01*
X1215Y88D02*
X1222Y88D01*
X1Y87D02*
X8Y87D01*
X1215Y87D02*
X1222Y87D01*
X1Y86D02*
X8Y86D01*
X1215Y86D02*
X1222Y86D01*
X1Y85D02*
X8Y85D01*
X1215Y85D02*
X1222Y85D01*
X1Y84D02*
X8Y84D01*
X1215Y84D02*
X1222Y84D01*
X1Y83D02*
X8Y83D01*
X1215Y83D02*
X1222Y83D01*
X1Y82D02*
X8Y82D01*
X1215Y82D02*
X1222Y82D01*
X1Y81D02*
X8Y81D01*
X1215Y81D02*
X1222Y81D01*
X1Y80D02*
X8Y80D01*
X1215Y80D02*
X1222Y80D01*
X1Y79D02*
X8Y79D01*
X1215Y79D02*
X1222Y79D01*
X1Y78D02*
X8Y78D01*
X1215Y78D02*
X1222Y78D01*
X1Y77D02*
X8Y77D01*
X1215Y77D02*
X1222Y77D01*
X1Y76D02*
X8Y76D01*
X1215Y76D02*
X1222Y76D01*
X1Y75D02*
X8Y75D01*
X1215Y75D02*
X1222Y75D01*
X1Y74D02*
X8Y74D01*
X1215Y74D02*
X1222Y74D01*
X1Y73D02*
X8Y73D01*
X1215Y73D02*
X1222Y73D01*
X1Y72D02*
X8Y72D01*
X1215Y72D02*
X1222Y72D01*
X1Y71D02*
X8Y71D01*
X1215Y71D02*
X1222Y71D01*
X1Y70D02*
X8Y70D01*
X1215Y70D02*
X1222Y70D01*
X1Y69D02*
X8Y69D01*
X1215Y69D02*
X1222Y69D01*
X1Y68D02*
X8Y68D01*
X1215Y68D02*
X1222Y68D01*
X1Y67D02*
X8Y67D01*
X1215Y67D02*
X1222Y67D01*
X1Y66D02*
X8Y66D01*
X1215Y66D02*
X1222Y66D01*
X1Y65D02*
X8Y65D01*
X1215Y65D02*
X1222Y65D01*
X1Y64D02*
X8Y64D01*
X1215Y64D02*
X1222Y64D01*
X1Y63D02*
X8Y63D01*
X1215Y63D02*
X1222Y63D01*
X1Y62D02*
X8Y62D01*
X1215Y62D02*
X1222Y62D01*
X1Y61D02*
X8Y61D01*
X1215Y61D02*
X1222Y61D01*
X1Y60D02*
X8Y60D01*
X1215Y60D02*
X1222Y60D01*
X1Y59D02*
X8Y59D01*
X1215Y59D02*
X1222Y59D01*
X1Y58D02*
X8Y58D01*
X1215Y58D02*
X1222Y58D01*
X1Y57D02*
X8Y57D01*
X1215Y57D02*
X1222Y57D01*
X1Y56D02*
X8Y56D01*
X1215Y56D02*
X1222Y56D01*
X1Y55D02*
X8Y55D01*
X1215Y55D02*
X1222Y55D01*
X1Y54D02*
X8Y54D01*
X1215Y54D02*
X1222Y54D01*
X1Y53D02*
X8Y53D01*
X1215Y53D02*
X1222Y53D01*
X1Y52D02*
X8Y52D01*
X1215Y52D02*
X1222Y52D01*
X1Y51D02*
X8Y51D01*
X1215Y51D02*
X1222Y51D01*
X1Y50D02*
X8Y50D01*
X1215Y50D02*
X1222Y50D01*
X1Y49D02*
X8Y49D01*
X1215Y49D02*
X1222Y49D01*
X1Y48D02*
X8Y48D01*
X1215Y48D02*
X1222Y48D01*
X1Y47D02*
X8Y47D01*
X1215Y47D02*
X1222Y47D01*
X1Y46D02*
X8Y46D01*
X1215Y46D02*
X1222Y46D01*
X1Y45D02*
X8Y45D01*
X1215Y45D02*
X1222Y45D01*
X1Y44D02*
X8Y44D01*
X1215Y44D02*
X1222Y44D01*
X1Y43D02*
X8Y43D01*
X1215Y43D02*
X1222Y43D01*
X1Y42D02*
X8Y42D01*
X1215Y42D02*
X1222Y42D01*
X1Y41D02*
X8Y41D01*
X1215Y41D02*
X1222Y41D01*
X1Y40D02*
X8Y40D01*
X1215Y40D02*
X1222Y40D01*
X1Y39D02*
X8Y39D01*
X1215Y39D02*
X1222Y39D01*
X1Y38D02*
X8Y38D01*
X1215Y38D02*
X1222Y38D01*
X1Y37D02*
X8Y37D01*
X1215Y37D02*
X1222Y37D01*
X1Y36D02*
X8Y36D01*
X1215Y36D02*
X1222Y36D01*
X1Y35D02*
X8Y35D01*
X1215Y35D02*
X1222Y35D01*
X1Y34D02*
X8Y34D01*
X1215Y34D02*
X1222Y34D01*
X1Y33D02*
X8Y33D01*
X1215Y33D02*
X1222Y33D01*
X1Y32D02*
X8Y32D01*
X1215Y32D02*
X1222Y32D01*
X1Y31D02*
X8Y31D01*
X1215Y31D02*
X1222Y31D01*
X1Y30D02*
X8Y30D01*
X1215Y30D02*
X1222Y30D01*
X1Y29D02*
X8Y29D01*
X1215Y29D02*
X1222Y29D01*
X1Y28D02*
X8Y28D01*
X1215Y28D02*
X1222Y28D01*
X1Y27D02*
X8Y27D01*
X1215Y27D02*
X1222Y27D01*
X1Y26D02*
X8Y26D01*
X1215Y26D02*
X1222Y26D01*
X1Y25D02*
X8Y25D01*
X1215Y25D02*
X1222Y25D01*
X1Y24D02*
X8Y24D01*
X1215Y24D02*
X1222Y24D01*
X1Y23D02*
X8Y23D01*
X1215Y23D02*
X1222Y23D01*
X1Y22D02*
X8Y22D01*
X1215Y22D02*
X1222Y22D01*
X1Y21D02*
X8Y21D01*
X1215Y21D02*
X1222Y21D01*
X1Y20D02*
X8Y20D01*
X1215Y20D02*
X1222Y20D01*
X1Y19D02*
X8Y19D01*
X1215Y19D02*
X1222Y19D01*
X1Y18D02*
X8Y18D01*
X1215Y18D02*
X1222Y18D01*
X1Y17D02*
X8Y17D01*
X1215Y17D02*
X1222Y17D01*
X1Y16D02*
X8Y16D01*
X1215Y16D02*
X1222Y16D01*
X1Y15D02*
X8Y15D01*
X1215Y15D02*
X1222Y15D01*
X1Y14D02*
X8Y14D01*
X1215Y14D02*
X1222Y14D01*
X1Y13D02*
X8Y13D01*
X1215Y13D02*
X1222Y13D01*
X1Y12D02*
X8Y12D01*
X1215Y12D02*
X1222Y12D01*
X1Y11D02*
X8Y11D01*
X1215Y11D02*
X1222Y11D01*
X1Y10D02*
X8Y10D01*
X1215Y10D02*
X1222Y10D01*
X1Y9D02*
X8Y9D01*
X1215Y9D02*
X1222Y9D01*
X1Y8D02*
X1222Y8D01*
X1Y7D02*
X1222Y7D01*
X1Y6D02*
X1222Y6D01*
X1Y5D02*
X1222Y5D01*
X1Y4D02*
X1222Y4D01*
X1Y3D02*
X125Y3D01*
X150Y3D02*
X1222Y3D01*
X1Y2D02*
X119Y2D01*
X157Y2D02*
X1222Y2D01*
X1Y1D02*
X114Y1D01*
X162Y1D02*
X1222Y1D01*
D02*
G04 End of Silk0*
M02*