G04 MADE WITH FRITZING*
G04 WWW.FRITZING.ORG*
G04 DOUBLE SIDED*
G04 HOLES PLATED*
G04 CONTOUR ON CENTER OF CONTOUR VECTOR*
%ASAXBY*%
%FSLAX23Y23*%
%MOIN*%
%OFA0B0*%
%SFA1.0B1.0*%
%ADD10C,0.075000*%
%ADD11C,0.074000*%
%ADD12C,0.078000*%
%ADD13R,0.078000X0.078000*%
%ADD14C,0.012000*%
%ADD15C,0.000100*%
%ADD16R,0.001000X0.001000*%
%LNCOPPER0*%
G90*
G70*
G54D10*
X77Y133D03*
G54D11*
X194Y172D03*
X194Y281D03*
X194Y390D03*
X194Y499D03*
X194Y608D03*
X82Y227D03*
X82Y336D03*
X82Y445D03*
X82Y554D03*
G54D12*
X1146Y685D03*
X1046Y685D03*
X946Y685D03*
X846Y685D03*
X746Y685D03*
X646Y685D03*
X546Y685D03*
X446Y685D03*
X346Y685D03*
X346Y85D03*
X446Y85D03*
X546Y85D03*
X646Y85D03*
X746Y85D03*
X846Y85D03*
X946Y85D03*
X1046Y85D03*
X1146Y85D03*
G54D10*
X964Y294D03*
X964Y394D03*
X964Y494D03*
X546Y184D03*
X546Y584D03*
X346Y584D03*
X346Y184D03*
X844Y584D03*
X844Y184D03*
X755Y583D03*
X755Y183D03*
G54D11*
X646Y284D03*
X646Y584D03*
X446Y284D03*
X446Y584D03*
G54D12*
X1130Y284D03*
X1130Y384D03*
X1130Y484D03*
G54D13*
X1130Y284D03*
G54D14*
X658Y100D02*
X696Y148D01*
D02*
X696Y148D02*
X696Y390D01*
D02*
X696Y390D02*
X214Y390D01*
D02*
X446Y32D02*
X194Y32D01*
D02*
X194Y32D02*
X194Y152D01*
D02*
X446Y66D02*
X446Y32D01*
D02*
X1130Y494D02*
X982Y494D01*
D02*
X1130Y494D02*
X1130Y494D01*
D02*
X947Y394D02*
X755Y394D01*
D02*
X755Y394D02*
X755Y201D01*
D02*
X1046Y749D02*
X1046Y704D01*
D02*
X27Y749D02*
X1046Y749D01*
D02*
X27Y445D02*
X27Y749D01*
D02*
X62Y445D02*
X27Y445D01*
D02*
X447Y183D02*
X364Y184D01*
D02*
X446Y266D02*
X447Y183D01*
D02*
X282Y498D02*
X447Y498D01*
D02*
X447Y498D02*
X446Y566D01*
D02*
X206Y593D02*
X282Y498D01*
D02*
X645Y184D02*
X564Y184D01*
D02*
X646Y266D02*
X645Y184D01*
D02*
X862Y584D02*
X1146Y584D01*
D02*
X1146Y584D02*
X1146Y666D01*
G54D15*
G36*
X897Y76D02*
X898Y75D01*
X898Y74D01*
X898Y74D01*
X901Y66D01*
X905Y58D01*
X906Y57D01*
X911Y50D01*
X912Y49D01*
X918Y44D01*
X919Y44D01*
X927Y40D01*
X927Y39D01*
X935Y37D01*
X940Y36D01*
X941Y36D01*
X946Y36D01*
X950Y36D01*
X951Y36D01*
X956Y37D01*
X965Y40D01*
X973Y44D01*
X974Y45D01*
X980Y50D01*
X981Y51D01*
X986Y57D01*
X987Y58D01*
X991Y66D01*
X991Y67D01*
X993Y74D01*
X994Y75D01*
X995Y75D01*
X995Y76D01*
X997Y75D01*
X998Y75D01*
X998Y74D01*
X998Y74D01*
X1001Y66D01*
X1001Y65D01*
X1005Y58D01*
X1006Y57D01*
X1011Y50D01*
X1012Y49D01*
X1018Y44D01*
X1026Y40D01*
X1036Y37D01*
X1040Y36D01*
X1041Y36D01*
X1046Y36D01*
X1050Y36D01*
X1051Y36D01*
X1056Y37D01*
X1065Y40D01*
X1073Y44D01*
X1074Y45D01*
X1080Y50D01*
X1081Y51D01*
X1086Y57D01*
X1087Y58D01*
X1091Y66D01*
X1091Y67D01*
X1093Y74D01*
X1094Y75D01*
X1095Y75D01*
X1096Y76D01*
X1096Y75D01*
X1097Y75D01*
X1098Y74D01*
X1098Y74D01*
X1101Y66D01*
X1105Y58D01*
X1106Y57D01*
X1111Y50D01*
X1112Y49D01*
X1118Y44D01*
X1119Y44D01*
X1126Y40D01*
X1127Y39D01*
X1135Y37D01*
X1140Y36D01*
X1141Y36D01*
X1146Y36D01*
X1150Y36D01*
X1151Y36D01*
X1156Y37D01*
X1164Y40D01*
X1173Y44D01*
X1174Y45D01*
X1180Y50D01*
X1181Y51D01*
X1186Y57D01*
X1187Y58D01*
X1188Y61D01*
X1189Y62D01*
X1189Y62D01*
X1190Y62D01*
X1191Y62D01*
X1191Y62D01*
X1192Y61D01*
X1192Y60D01*
X1193Y60D01*
X1193Y32D01*
X1192Y31D01*
X1191Y30D01*
X1191Y30D01*
X1190Y30D01*
X464Y30D01*
X463Y31D01*
X462Y31D01*
X462Y32D01*
X462Y32D01*
X462Y37D01*
X462Y39D01*
X463Y39D01*
X465Y40D01*
X473Y44D01*
X474Y45D01*
X480Y50D01*
X481Y51D01*
X486Y57D01*
X491Y66D01*
X493Y74D01*
X494Y75D01*
X495Y75D01*
X495Y76D01*
X496Y76D01*
X497Y76D01*
X498Y75D01*
X498Y74D01*
X498Y74D01*
X501Y66D01*
X505Y57D01*
X511Y50D01*
X512Y49D01*
X518Y44D01*
X519Y44D01*
X527Y40D01*
X527Y39D01*
X535Y37D01*
X540Y36D01*
X541Y36D01*
X546Y36D01*
X550Y36D01*
X551Y36D01*
X556Y37D01*
X565Y40D01*
X573Y44D01*
X574Y45D01*
X580Y50D01*
X581Y51D01*
X586Y57D01*
X591Y66D01*
X593Y74D01*
X594Y75D01*
X595Y75D01*
X595Y76D01*
X596Y76D01*
X597Y76D01*
X598Y75D01*
X598Y74D01*
X598Y74D01*
X601Y66D01*
X605Y58D01*
X606Y57D01*
X611Y50D01*
X612Y49D01*
X618Y44D01*
X619Y44D01*
X627Y40D01*
X627Y39D01*
X635Y37D01*
X640Y36D01*
X641Y36D01*
X646Y36D01*
X650Y36D01*
X651Y36D01*
X656Y37D01*
X665Y40D01*
X673Y44D01*
X674Y45D01*
X680Y50D01*
X681Y51D01*
X686Y57D01*
X691Y66D01*
X693Y74D01*
X694Y75D01*
X695Y75D01*
X695Y76D01*
X696Y76D01*
X697Y76D01*
X698Y75D01*
X698Y74D01*
X698Y74D01*
X701Y66D01*
X705Y58D01*
X706Y57D01*
X711Y50D01*
X712Y49D01*
X718Y44D01*
X719Y44D01*
X727Y40D01*
X727Y39D01*
X735Y37D01*
X740Y36D01*
X741Y36D01*
X746Y36D01*
X750Y36D01*
X751Y36D01*
X756Y37D01*
X765Y40D01*
X773Y44D01*
X774Y45D01*
X780Y50D01*
X781Y51D01*
X786Y57D01*
X787Y58D01*
X791Y66D01*
X791Y67D01*
X793Y74D01*
X794Y75D01*
X795Y75D01*
X795Y76D01*
X796Y76D01*
X797Y76D01*
X798Y75D01*
X798Y74D01*
X798Y74D01*
X801Y66D01*
X805Y58D01*
X806Y57D01*
X811Y50D01*
X812Y49D01*
X818Y44D01*
X819Y44D01*
X827Y40D01*
X827Y39D01*
X835Y37D01*
X840Y36D01*
X841Y36D01*
X846Y36D01*
X850Y36D01*
X851Y36D01*
X856Y37D01*
X865Y40D01*
X873Y44D01*
X874Y45D01*
X880Y50D01*
X881Y51D01*
X886Y57D01*
X887Y58D01*
X891Y66D01*
X891Y67D01*
X893Y74D01*
X894Y75D01*
X895Y75D01*
X895Y76D01*
X896Y76D01*
X897Y76D01*
D02*
G37*
D02*
G36*
X897Y76D02*
X898Y75D01*
X898Y74D01*
X898Y74D01*
X901Y66D01*
X905Y58D01*
X906Y57D01*
X911Y50D01*
X912Y49D01*
X918Y44D01*
X919Y44D01*
X927Y40D01*
X927Y39D01*
X935Y37D01*
X940Y36D01*
X941Y36D01*
X946Y36D01*
X950Y36D01*
X951Y36D01*
X956Y37D01*
X965Y40D01*
X973Y44D01*
X974Y45D01*
X980Y50D01*
X981Y51D01*
X986Y57D01*
X987Y58D01*
X991Y66D01*
X991Y67D01*
X993Y74D01*
X994Y75D01*
X995Y75D01*
X995Y76D01*
X997Y75D01*
X998Y75D01*
X998Y74D01*
X998Y74D01*
X1001Y66D01*
X1001Y65D01*
X1005Y58D01*
X1006Y57D01*
X1011Y50D01*
X1012Y49D01*
X1018Y44D01*
X1026Y40D01*
X1036Y37D01*
X1040Y36D01*
X1041Y36D01*
X1046Y36D01*
X1050Y36D01*
X1051Y36D01*
X1056Y37D01*
X1065Y40D01*
X1073Y44D01*
X1074Y45D01*
X1080Y50D01*
X1081Y51D01*
X1086Y57D01*
X1087Y58D01*
X1091Y66D01*
X1091Y67D01*
X1093Y74D01*
X1094Y75D01*
X1095Y75D01*
X1096Y76D01*
X1096Y75D01*
X1097Y75D01*
X1098Y74D01*
X1098Y74D01*
X1101Y66D01*
X1105Y58D01*
X1106Y57D01*
X1111Y50D01*
X1112Y49D01*
X1118Y44D01*
X1119Y44D01*
X1126Y40D01*
X1127Y39D01*
X1135Y37D01*
X1140Y36D01*
X1141Y36D01*
X1146Y36D01*
X1150Y36D01*
X1151Y36D01*
X1156Y37D01*
X1164Y40D01*
X1173Y44D01*
X1174Y45D01*
X1180Y50D01*
X1181Y51D01*
X1186Y57D01*
X1187Y58D01*
X1188Y61D01*
X1189Y62D01*
X1189Y62D01*
X1190Y62D01*
X1191Y62D01*
X1191Y62D01*
X1192Y61D01*
X1192Y60D01*
X1193Y60D01*
X1193Y32D01*
X1192Y31D01*
X1191Y30D01*
X1191Y30D01*
X1190Y30D01*
X464Y30D01*
X463Y31D01*
X462Y31D01*
X462Y32D01*
X462Y32D01*
X462Y37D01*
X462Y39D01*
X463Y39D01*
X465Y40D01*
X473Y44D01*
X474Y45D01*
X480Y50D01*
X481Y51D01*
X486Y57D01*
X491Y66D01*
X493Y74D01*
X494Y75D01*
X495Y75D01*
X495Y76D01*
X496Y76D01*
X497Y76D01*
X498Y75D01*
X498Y74D01*
X498Y74D01*
X501Y66D01*
X505Y57D01*
X511Y50D01*
X512Y49D01*
X518Y44D01*
X519Y44D01*
X527Y40D01*
X527Y39D01*
X535Y37D01*
X540Y36D01*
X541Y36D01*
X546Y36D01*
X550Y36D01*
X551Y36D01*
X556Y37D01*
X565Y40D01*
X573Y44D01*
X574Y45D01*
X580Y50D01*
X581Y51D01*
X586Y57D01*
X591Y66D01*
X593Y74D01*
X594Y75D01*
X595Y75D01*
X595Y76D01*
X596Y76D01*
X597Y76D01*
X598Y75D01*
X598Y74D01*
X598Y74D01*
X601Y66D01*
X605Y58D01*
X606Y57D01*
X611Y50D01*
X612Y49D01*
X618Y44D01*
X619Y44D01*
X627Y40D01*
X627Y39D01*
X635Y37D01*
X640Y36D01*
X641Y36D01*
X646Y36D01*
X650Y36D01*
X651Y36D01*
X656Y37D01*
X665Y40D01*
X673Y44D01*
X674Y45D01*
X680Y50D01*
X681Y51D01*
X686Y57D01*
X691Y66D01*
X693Y74D01*
X694Y75D01*
X695Y75D01*
X695Y76D01*
X696Y76D01*
X697Y76D01*
X698Y75D01*
X698Y74D01*
X698Y74D01*
X701Y66D01*
X705Y58D01*
X706Y57D01*
X711Y50D01*
X712Y49D01*
X718Y44D01*
X719Y44D01*
X727Y40D01*
X727Y39D01*
X735Y37D01*
X740Y36D01*
X741Y36D01*
X746Y36D01*
X750Y36D01*
X751Y36D01*
X756Y37D01*
X765Y40D01*
X773Y44D01*
X774Y45D01*
X780Y50D01*
X781Y51D01*
X786Y57D01*
X787Y58D01*
X791Y66D01*
X791Y67D01*
X793Y74D01*
X794Y75D01*
X795Y75D01*
X795Y76D01*
X796Y76D01*
X797Y76D01*
X798Y75D01*
X798Y74D01*
X798Y74D01*
X801Y66D01*
X805Y58D01*
X806Y57D01*
X811Y50D01*
X812Y49D01*
X818Y44D01*
X819Y44D01*
X827Y40D01*
X827Y39D01*
X835Y37D01*
X840Y36D01*
X841Y36D01*
X846Y36D01*
X850Y36D01*
X851Y36D01*
X856Y37D01*
X865Y40D01*
X873Y44D01*
X874Y45D01*
X880Y50D01*
X881Y51D01*
X886Y57D01*
X887Y58D01*
X891Y66D01*
X891Y67D01*
X893Y74D01*
X894Y75D01*
X895Y75D01*
X895Y76D01*
X896Y76D01*
X897Y76D01*
D02*
G37*
D02*
G36*
X679Y249D02*
X679Y249D01*
X680Y248D01*
X680Y247D01*
X680Y247D01*
X680Y154D01*
X680Y153D01*
X663Y132D01*
X662Y131D01*
X661Y131D01*
X661Y131D01*
X656Y132D01*
X651Y133D01*
X646Y134D01*
X645Y134D01*
X640Y133D01*
X636Y133D01*
X627Y130D01*
X626Y129D01*
X618Y125D01*
X611Y120D01*
X610Y119D01*
X605Y112D01*
X601Y104D01*
X598Y95D01*
X597Y95D01*
X597Y94D01*
X596Y94D01*
X595Y94D01*
X594Y94D01*
X594Y95D01*
X593Y95D01*
X593Y96D01*
X591Y104D01*
X586Y112D01*
X580Y119D01*
X579Y120D01*
X573Y125D01*
X565Y130D01*
X555Y133D01*
X554Y133D01*
X554Y134D01*
X554Y135D01*
X554Y136D01*
X554Y137D01*
X555Y137D01*
X556Y137D01*
X557Y138D01*
X565Y140D01*
X565Y141D01*
X573Y145D01*
X580Y150D01*
X581Y151D01*
X585Y157D01*
X586Y158D01*
X590Y165D01*
X590Y167D01*
X591Y167D01*
X591Y168D01*
X592Y168D01*
X592Y168D01*
X646Y168D01*
X648Y168D01*
X651Y169D01*
X654Y171D01*
X655Y172D01*
X657Y173D01*
X659Y176D01*
X660Y179D01*
X661Y182D01*
X661Y183D01*
X661Y238D01*
X662Y240D01*
X662Y240D01*
X665Y241D01*
X672Y245D01*
X677Y249D01*
X677Y249D01*
X679Y249D01*
D02*
G37*
D02*
G36*
X679Y249D02*
X679Y249D01*
X680Y248D01*
X680Y247D01*
X680Y247D01*
X680Y154D01*
X680Y153D01*
X663Y132D01*
X662Y131D01*
X661Y131D01*
X661Y131D01*
X656Y132D01*
X651Y133D01*
X646Y134D01*
X645Y134D01*
X640Y133D01*
X636Y133D01*
X627Y130D01*
X626Y129D01*
X618Y125D01*
X611Y120D01*
X610Y119D01*
X605Y112D01*
X601Y104D01*
X598Y95D01*
X597Y95D01*
X597Y94D01*
X596Y94D01*
X595Y94D01*
X594Y94D01*
X594Y95D01*
X593Y95D01*
X593Y96D01*
X591Y104D01*
X586Y112D01*
X580Y119D01*
X579Y120D01*
X573Y125D01*
X565Y130D01*
X555Y133D01*
X554Y133D01*
X554Y134D01*
X554Y135D01*
X554Y136D01*
X554Y137D01*
X555Y137D01*
X556Y137D01*
X557Y138D01*
X565Y140D01*
X565Y141D01*
X573Y145D01*
X580Y150D01*
X581Y151D01*
X585Y157D01*
X586Y158D01*
X590Y165D01*
X590Y167D01*
X591Y167D01*
X591Y168D01*
X592Y168D01*
X592Y168D01*
X646Y168D01*
X648Y168D01*
X651Y169D01*
X654Y171D01*
X655Y172D01*
X657Y173D01*
X659Y176D01*
X660Y179D01*
X661Y182D01*
X661Y183D01*
X661Y238D01*
X662Y240D01*
X662Y240D01*
X665Y241D01*
X672Y245D01*
X677Y249D01*
X677Y249D01*
X679Y249D01*
D02*
G37*
D02*
G36*
X800Y164D02*
X801Y164D01*
X802Y163D01*
X805Y157D01*
X805Y156D01*
X810Y150D01*
X811Y149D01*
X817Y145D01*
X819Y144D01*
X826Y140D01*
X835Y137D01*
X835Y137D01*
X836Y137D01*
X836Y137D01*
X837Y136D01*
X837Y135D01*
X837Y134D01*
X836Y133D01*
X836Y133D01*
X835Y132D01*
X827Y130D01*
X818Y125D01*
X817Y125D01*
X811Y120D01*
X810Y119D01*
X805Y112D01*
X805Y111D01*
X801Y104D01*
X798Y95D01*
X797Y95D01*
X797Y94D01*
X796Y94D01*
X795Y94D01*
X794Y94D01*
X794Y95D01*
X793Y95D01*
X793Y96D01*
X791Y104D01*
X786Y112D01*
X786Y113D01*
X780Y119D01*
X779Y120D01*
X773Y125D01*
X765Y130D01*
X759Y132D01*
X758Y132D01*
X758Y133D01*
X757Y134D01*
X757Y134D01*
X757Y135D01*
X758Y136D01*
X759Y136D01*
X760Y136D01*
X765Y137D01*
X766Y137D01*
X774Y140D01*
X782Y144D01*
X789Y150D01*
X790Y151D01*
X794Y157D01*
X795Y158D01*
X798Y163D01*
X798Y164D01*
X800Y164D01*
X800Y164D01*
D02*
G37*
D02*
G36*
X800Y164D02*
X801Y164D01*
X802Y163D01*
X805Y157D01*
X805Y156D01*
X810Y150D01*
X811Y149D01*
X817Y145D01*
X819Y144D01*
X826Y140D01*
X835Y137D01*
X835Y137D01*
X836Y137D01*
X836Y137D01*
X837Y136D01*
X837Y135D01*
X837Y134D01*
X836Y133D01*
X836Y133D01*
X835Y132D01*
X827Y130D01*
X818Y125D01*
X817Y125D01*
X811Y120D01*
X810Y119D01*
X805Y112D01*
X805Y111D01*
X801Y104D01*
X798Y95D01*
X797Y95D01*
X797Y94D01*
X796Y94D01*
X795Y94D01*
X794Y94D01*
X794Y95D01*
X793Y95D01*
X793Y96D01*
X791Y104D01*
X786Y112D01*
X786Y113D01*
X780Y119D01*
X779Y120D01*
X773Y125D01*
X765Y130D01*
X759Y132D01*
X758Y132D01*
X758Y133D01*
X757Y134D01*
X757Y134D01*
X757Y135D01*
X758Y136D01*
X759Y136D01*
X760Y136D01*
X765Y137D01*
X766Y137D01*
X774Y140D01*
X782Y144D01*
X789Y150D01*
X790Y151D01*
X794Y157D01*
X795Y158D01*
X798Y163D01*
X798Y164D01*
X800Y164D01*
X800Y164D01*
D02*
G37*
D02*
G36*
X715Y157D02*
X716Y156D01*
X717Y156D01*
X721Y150D01*
X722Y150D01*
X729Y144D01*
X730Y144D01*
X737Y140D01*
X742Y138D01*
X743Y138D01*
X743Y137D01*
X743Y136D01*
X743Y135D01*
X743Y134D01*
X742Y134D01*
X742Y134D01*
X736Y133D01*
X727Y130D01*
X726Y129D01*
X718Y125D01*
X717Y125D01*
X711Y120D01*
X710Y119D01*
X705Y112D01*
X705Y111D01*
X701Y104D01*
X698Y95D01*
X697Y95D01*
X697Y94D01*
X696Y94D01*
X695Y94D01*
X694Y94D01*
X694Y95D01*
X693Y95D01*
X693Y96D01*
X691Y104D01*
X688Y109D01*
X687Y110D01*
X688Y111D01*
X688Y111D01*
X710Y139D01*
X710Y140D01*
X711Y141D01*
X712Y144D01*
X712Y146D01*
X712Y147D01*
X712Y155D01*
X713Y156D01*
X714Y156D01*
X714Y157D01*
X715Y157D01*
X715Y157D01*
D02*
G37*
D02*
G36*
X715Y157D02*
X716Y156D01*
X717Y156D01*
X721Y150D01*
X722Y150D01*
X729Y144D01*
X730Y144D01*
X737Y140D01*
X742Y138D01*
X743Y138D01*
X743Y137D01*
X743Y136D01*
X743Y135D01*
X743Y134D01*
X742Y134D01*
X742Y134D01*
X736Y133D01*
X727Y130D01*
X726Y129D01*
X718Y125D01*
X717Y125D01*
X711Y120D01*
X710Y119D01*
X705Y112D01*
X705Y111D01*
X701Y104D01*
X698Y95D01*
X697Y95D01*
X697Y94D01*
X696Y94D01*
X695Y94D01*
X694Y94D01*
X694Y95D01*
X693Y95D01*
X693Y96D01*
X691Y104D01*
X688Y109D01*
X687Y110D01*
X688Y111D01*
X688Y111D01*
X710Y139D01*
X710Y140D01*
X711Y141D01*
X712Y144D01*
X712Y146D01*
X712Y147D01*
X712Y155D01*
X713Y156D01*
X714Y156D01*
X714Y157D01*
X715Y157D01*
X715Y157D01*
D02*
G37*
D02*
G36*
X923Y733D02*
X924Y733D01*
X924Y732D01*
X925Y731D01*
X925Y731D01*
X925Y730D01*
X924Y729D01*
X924Y729D01*
X918Y726D01*
X911Y720D01*
X910Y719D01*
X905Y713D01*
X901Y704D01*
X898Y696D01*
X897Y695D01*
X897Y695D01*
X896Y694D01*
X895Y694D01*
X894Y695D01*
X894Y695D01*
X894Y696D01*
X893Y696D01*
X891Y704D01*
X886Y713D01*
X881Y720D01*
X880Y721D01*
X873Y726D01*
X868Y729D01*
X867Y729D01*
X867Y730D01*
X867Y730D01*
X867Y731D01*
X867Y732D01*
X868Y733D01*
X868Y733D01*
X869Y733D01*
X923Y733D01*
D02*
G37*
D02*
G36*
X923Y733D02*
X924Y733D01*
X924Y732D01*
X925Y731D01*
X925Y731D01*
X925Y730D01*
X924Y729D01*
X924Y729D01*
X918Y726D01*
X911Y720D01*
X910Y719D01*
X905Y713D01*
X901Y704D01*
X898Y696D01*
X897Y695D01*
X897Y695D01*
X896Y694D01*
X895Y694D01*
X894Y695D01*
X894Y695D01*
X894Y696D01*
X893Y696D01*
X891Y704D01*
X886Y713D01*
X881Y720D01*
X880Y721D01*
X873Y726D01*
X868Y729D01*
X867Y729D01*
X867Y730D01*
X867Y730D01*
X867Y731D01*
X867Y732D01*
X868Y733D01*
X868Y733D01*
X869Y733D01*
X923Y733D01*
D02*
G37*
D02*
G36*
X823Y733D02*
X824Y733D01*
X824Y732D01*
X825Y731D01*
X825Y731D01*
X825Y730D01*
X824Y729D01*
X824Y729D01*
X818Y726D01*
X811Y720D01*
X810Y719D01*
X805Y713D01*
X801Y704D01*
X798Y696D01*
X797Y695D01*
X797Y695D01*
X796Y694D01*
X796Y694D01*
X795Y694D01*
X794Y695D01*
X794Y696D01*
X793Y696D01*
X791Y704D01*
X786Y713D01*
X781Y720D01*
X780Y721D01*
X773Y726D01*
X768Y729D01*
X767Y729D01*
X767Y730D01*
X767Y730D01*
X767Y731D01*
X767Y732D01*
X768Y733D01*
X768Y733D01*
X769Y733D01*
X823Y733D01*
D02*
G37*
D02*
G36*
X823Y733D02*
X824Y733D01*
X824Y732D01*
X825Y731D01*
X825Y731D01*
X825Y730D01*
X824Y729D01*
X824Y729D01*
X818Y726D01*
X811Y720D01*
X810Y719D01*
X805Y713D01*
X801Y704D01*
X798Y696D01*
X797Y695D01*
X797Y695D01*
X796Y694D01*
X796Y694D01*
X795Y694D01*
X794Y695D01*
X794Y696D01*
X793Y696D01*
X791Y704D01*
X786Y713D01*
X781Y720D01*
X780Y721D01*
X773Y726D01*
X768Y729D01*
X767Y729D01*
X767Y730D01*
X767Y730D01*
X767Y731D01*
X767Y732D01*
X768Y733D01*
X768Y733D01*
X769Y733D01*
X823Y733D01*
D02*
G37*
D02*
G36*
X1023Y733D02*
X1024Y733D01*
X1024Y732D01*
X1025Y731D01*
X1025Y731D01*
X1025Y730D01*
X1024Y729D01*
X1024Y729D01*
X1018Y726D01*
X1018Y725D01*
X1011Y720D01*
X1010Y719D01*
X1005Y713D01*
X1005Y712D01*
X1001Y704D01*
X998Y696D01*
X997Y695D01*
X997Y695D01*
X996Y694D01*
X995Y694D01*
X994Y695D01*
X994Y695D01*
X994Y696D01*
X993Y696D01*
X991Y704D01*
X986Y713D01*
X981Y720D01*
X980Y721D01*
X973Y726D01*
X968Y729D01*
X967Y729D01*
X967Y730D01*
X967Y730D01*
X967Y731D01*
X967Y732D01*
X968Y733D01*
X968Y733D01*
X969Y733D01*
X1023Y733D01*
D02*
G37*
D02*
G36*
X1023Y733D02*
X1024Y733D01*
X1024Y732D01*
X1025Y731D01*
X1025Y731D01*
X1025Y730D01*
X1024Y729D01*
X1024Y729D01*
X1018Y726D01*
X1018Y725D01*
X1011Y720D01*
X1010Y719D01*
X1005Y713D01*
X1005Y712D01*
X1001Y704D01*
X998Y696D01*
X997Y695D01*
X997Y695D01*
X996Y694D01*
X995Y694D01*
X994Y695D01*
X994Y695D01*
X994Y696D01*
X993Y696D01*
X991Y704D01*
X986Y713D01*
X981Y720D01*
X980Y721D01*
X973Y726D01*
X968Y729D01*
X967Y729D01*
X967Y730D01*
X967Y730D01*
X967Y731D01*
X967Y732D01*
X968Y733D01*
X968Y733D01*
X969Y733D01*
X1023Y733D01*
D02*
G37*
D02*
G36*
X723Y733D02*
X724Y733D01*
X724Y732D01*
X725Y731D01*
X725Y731D01*
X725Y730D01*
X724Y729D01*
X724Y729D01*
X718Y726D01*
X711Y720D01*
X710Y719D01*
X705Y713D01*
X701Y704D01*
X698Y696D01*
X697Y695D01*
X697Y695D01*
X696Y694D01*
X696Y694D01*
X695Y694D01*
X694Y695D01*
X694Y696D01*
X693Y696D01*
X691Y704D01*
X686Y713D01*
X681Y720D01*
X680Y721D01*
X673Y726D01*
X668Y729D01*
X667Y729D01*
X667Y730D01*
X667Y730D01*
X667Y731D01*
X667Y732D01*
X668Y733D01*
X668Y733D01*
X669Y733D01*
X723Y733D01*
D02*
G37*
D02*
G36*
X723Y733D02*
X724Y733D01*
X724Y732D01*
X725Y731D01*
X725Y731D01*
X725Y730D01*
X724Y729D01*
X724Y729D01*
X718Y726D01*
X711Y720D01*
X710Y719D01*
X705Y713D01*
X701Y704D01*
X698Y696D01*
X697Y695D01*
X697Y695D01*
X696Y694D01*
X696Y694D01*
X695Y694D01*
X694Y695D01*
X694Y696D01*
X693Y696D01*
X691Y704D01*
X686Y713D01*
X681Y720D01*
X680Y721D01*
X673Y726D01*
X668Y729D01*
X667Y729D01*
X667Y730D01*
X667Y730D01*
X667Y731D01*
X667Y732D01*
X668Y733D01*
X668Y733D01*
X669Y733D01*
X723Y733D01*
D02*
G37*
D02*
G36*
X623Y733D02*
X624Y733D01*
X624Y732D01*
X625Y731D01*
X625Y731D01*
X625Y730D01*
X624Y729D01*
X624Y729D01*
X618Y726D01*
X611Y720D01*
X610Y719D01*
X605Y713D01*
X601Y704D01*
X598Y696D01*
X597Y695D01*
X597Y695D01*
X596Y694D01*
X596Y694D01*
X595Y694D01*
X594Y695D01*
X594Y696D01*
X593Y696D01*
X591Y704D01*
X586Y713D01*
X581Y720D01*
X580Y721D01*
X573Y726D01*
X568Y729D01*
X567Y729D01*
X567Y730D01*
X567Y730D01*
X567Y731D01*
X567Y732D01*
X568Y733D01*
X568Y733D01*
X569Y733D01*
X623Y733D01*
D02*
G37*
D02*
G36*
X623Y733D02*
X624Y733D01*
X624Y732D01*
X625Y731D01*
X625Y731D01*
X625Y730D01*
X624Y729D01*
X624Y729D01*
X618Y726D01*
X611Y720D01*
X610Y719D01*
X605Y713D01*
X601Y704D01*
X598Y696D01*
X597Y695D01*
X597Y695D01*
X596Y694D01*
X596Y694D01*
X595Y694D01*
X594Y695D01*
X594Y696D01*
X593Y696D01*
X591Y704D01*
X586Y713D01*
X581Y720D01*
X580Y721D01*
X573Y726D01*
X568Y729D01*
X567Y729D01*
X567Y730D01*
X567Y730D01*
X567Y731D01*
X567Y732D01*
X568Y733D01*
X568Y733D01*
X569Y733D01*
X623Y733D01*
D02*
G37*
D02*
G36*
X523Y733D02*
X524Y733D01*
X524Y732D01*
X525Y731D01*
X525Y731D01*
X525Y730D01*
X524Y729D01*
X524Y729D01*
X518Y726D01*
X511Y720D01*
X510Y719D01*
X505Y713D01*
X501Y704D01*
X498Y696D01*
X497Y695D01*
X497Y695D01*
X496Y694D01*
X496Y694D01*
X495Y694D01*
X494Y695D01*
X494Y696D01*
X493Y696D01*
X491Y704D01*
X486Y713D01*
X481Y720D01*
X480Y721D01*
X473Y726D01*
X468Y729D01*
X467Y729D01*
X467Y730D01*
X467Y730D01*
X467Y731D01*
X467Y732D01*
X468Y733D01*
X468Y733D01*
X469Y733D01*
X523Y733D01*
D02*
G37*
D02*
G36*
X523Y733D02*
X524Y733D01*
X524Y732D01*
X525Y731D01*
X525Y731D01*
X525Y730D01*
X524Y729D01*
X524Y729D01*
X518Y726D01*
X511Y720D01*
X510Y719D01*
X505Y713D01*
X501Y704D01*
X498Y696D01*
X497Y695D01*
X497Y695D01*
X496Y694D01*
X496Y694D01*
X495Y694D01*
X494Y695D01*
X494Y696D01*
X493Y696D01*
X491Y704D01*
X486Y713D01*
X481Y720D01*
X480Y721D01*
X473Y726D01*
X468Y729D01*
X467Y729D01*
X467Y730D01*
X467Y730D01*
X467Y731D01*
X467Y732D01*
X468Y733D01*
X468Y733D01*
X469Y733D01*
X523Y733D01*
D02*
G37*
D02*
G36*
X423Y733D02*
X424Y733D01*
X424Y732D01*
X425Y731D01*
X425Y731D01*
X425Y730D01*
X424Y729D01*
X424Y729D01*
X418Y726D01*
X411Y720D01*
X410Y719D01*
X405Y713D01*
X401Y704D01*
X398Y696D01*
X397Y695D01*
X397Y695D01*
X396Y694D01*
X396Y694D01*
X395Y694D01*
X394Y695D01*
X394Y696D01*
X393Y696D01*
X391Y704D01*
X386Y713D01*
X386Y714D01*
X381Y720D01*
X380Y721D01*
X373Y726D01*
X368Y729D01*
X367Y729D01*
X367Y730D01*
X367Y730D01*
X367Y731D01*
X367Y732D01*
X368Y733D01*
X368Y733D01*
X369Y733D01*
X423Y733D01*
D02*
G37*
D02*
G36*
X423Y733D02*
X424Y733D01*
X424Y732D01*
X425Y731D01*
X425Y731D01*
X425Y730D01*
X424Y729D01*
X424Y729D01*
X418Y726D01*
X411Y720D01*
X410Y719D01*
X405Y713D01*
X401Y704D01*
X398Y696D01*
X397Y695D01*
X397Y695D01*
X396Y694D01*
X396Y694D01*
X395Y694D01*
X394Y695D01*
X394Y696D01*
X393Y696D01*
X391Y704D01*
X386Y713D01*
X386Y714D01*
X381Y720D01*
X380Y721D01*
X373Y726D01*
X368Y729D01*
X367Y729D01*
X367Y730D01*
X367Y730D01*
X367Y731D01*
X367Y732D01*
X368Y733D01*
X368Y733D01*
X369Y733D01*
X423Y733D01*
D02*
G37*
D02*
G36*
X1190Y747D02*
X1192Y747D01*
X1192Y746D01*
X1192Y746D01*
X1193Y745D01*
X1193Y710D01*
X1192Y709D01*
X1191Y709D01*
X1191Y708D01*
X1190Y708D01*
X1189Y708D01*
X1189Y708D01*
X1188Y709D01*
X1186Y713D01*
X1186Y713D01*
X1180Y720D01*
X1180Y720D01*
X1173Y726D01*
X1165Y730D01*
X1156Y733D01*
X1151Y734D01*
X1146Y734D01*
X1145Y734D01*
X1140Y734D01*
X1136Y733D01*
X1127Y730D01*
X1118Y726D01*
X1117Y725D01*
X1111Y720D01*
X1110Y719D01*
X1105Y713D01*
X1105Y712D01*
X1101Y704D01*
X1098Y696D01*
X1097Y695D01*
X1097Y695D01*
X1096Y694D01*
X1095Y695D01*
X1094Y695D01*
X1094Y696D01*
X1093Y696D01*
X1091Y704D01*
X1086Y713D01*
X1086Y713D01*
X1081Y720D01*
X1080Y721D01*
X1073Y726D01*
X1065Y730D01*
X1063Y731D01*
X1062Y731D01*
X1062Y732D01*
X1062Y733D01*
X1062Y745D01*
X1062Y746D01*
X1062Y747D01*
X1063Y747D01*
X1064Y747D01*
X1190Y747D01*
D02*
G37*
D02*
G36*
X1190Y747D02*
X1192Y747D01*
X1192Y746D01*
X1192Y746D01*
X1193Y745D01*
X1193Y710D01*
X1192Y709D01*
X1191Y709D01*
X1191Y708D01*
X1190Y708D01*
X1189Y708D01*
X1189Y708D01*
X1188Y709D01*
X1186Y713D01*
X1186Y713D01*
X1180Y720D01*
X1180Y720D01*
X1173Y726D01*
X1165Y730D01*
X1156Y733D01*
X1151Y734D01*
X1146Y734D01*
X1145Y734D01*
X1140Y734D01*
X1136Y733D01*
X1127Y730D01*
X1118Y726D01*
X1117Y725D01*
X1111Y720D01*
X1110Y719D01*
X1105Y713D01*
X1105Y712D01*
X1101Y704D01*
X1098Y696D01*
X1097Y695D01*
X1097Y695D01*
X1096Y694D01*
X1095Y695D01*
X1094Y695D01*
X1094Y696D01*
X1093Y696D01*
X1091Y704D01*
X1086Y713D01*
X1086Y713D01*
X1081Y720D01*
X1080Y721D01*
X1073Y726D01*
X1065Y730D01*
X1063Y731D01*
X1062Y731D01*
X1062Y732D01*
X1062Y733D01*
X1062Y745D01*
X1062Y746D01*
X1062Y747D01*
X1063Y747D01*
X1064Y747D01*
X1190Y747D01*
D02*
G37*
D02*
G54D16*
X45Y733D02*
X323Y733D01*
X44Y732D02*
X324Y732D01*
X44Y731D02*
X325Y731D01*
X44Y730D02*
X324Y730D01*
X44Y729D02*
X324Y729D01*
X44Y728D02*
X322Y728D01*
X44Y727D02*
X320Y727D01*
X44Y726D02*
X319Y726D01*
X44Y725D02*
X317Y725D01*
X44Y724D02*
X316Y724D01*
X44Y723D02*
X315Y723D01*
X44Y722D02*
X314Y722D01*
X44Y721D02*
X312Y721D01*
X44Y720D02*
X311Y720D01*
X44Y719D02*
X310Y719D01*
X44Y718D02*
X309Y718D01*
X44Y717D02*
X309Y717D01*
X44Y716D02*
X308Y716D01*
X44Y715D02*
X307Y715D01*
X44Y714D02*
X306Y714D01*
X44Y713D02*
X305Y713D01*
X44Y712D02*
X305Y712D01*
X44Y711D02*
X304Y711D01*
X44Y710D02*
X304Y710D01*
X44Y709D02*
X303Y709D01*
X44Y708D02*
X303Y708D01*
X44Y707D02*
X302Y707D01*
X44Y706D02*
X302Y706D01*
X44Y705D02*
X301Y705D01*
X44Y704D02*
X301Y704D01*
X44Y703D02*
X300Y703D01*
X44Y702D02*
X300Y702D01*
X44Y701D02*
X300Y701D01*
X44Y700D02*
X299Y700D01*
X44Y699D02*
X299Y699D01*
X44Y698D02*
X299Y698D01*
X44Y697D02*
X298Y697D01*
X44Y696D02*
X298Y696D01*
X44Y695D02*
X298Y695D01*
X44Y694D02*
X297Y694D01*
X44Y693D02*
X297Y693D01*
X44Y692D02*
X297Y692D01*
X44Y691D02*
X297Y691D01*
X44Y690D02*
X297Y690D01*
X44Y689D02*
X297Y689D01*
X44Y688D02*
X297Y688D01*
X44Y687D02*
X297Y687D01*
X44Y686D02*
X297Y686D01*
X44Y685D02*
X297Y685D01*
X44Y684D02*
X297Y684D01*
X44Y683D02*
X297Y683D01*
X44Y682D02*
X297Y682D01*
X44Y681D02*
X297Y681D01*
X44Y680D02*
X297Y680D01*
X44Y679D02*
X297Y679D01*
X44Y678D02*
X297Y678D01*
X44Y677D02*
X297Y677D01*
X44Y676D02*
X298Y676D01*
X396Y676D02*
X396Y676D01*
X496Y676D02*
X496Y676D01*
X596Y676D02*
X596Y676D01*
X695Y676D02*
X696Y676D01*
X795Y676D02*
X796Y676D01*
X895Y676D02*
X896Y676D01*
X995Y676D02*
X996Y676D01*
X1096Y676D02*
X1096Y676D01*
X44Y675D02*
X298Y675D01*
X394Y675D02*
X398Y675D01*
X494Y675D02*
X498Y675D01*
X594Y675D02*
X598Y675D01*
X694Y675D02*
X697Y675D01*
X794Y675D02*
X797Y675D01*
X894Y675D02*
X897Y675D01*
X994Y675D02*
X997Y675D01*
X1094Y675D02*
X1097Y675D01*
X44Y674D02*
X298Y674D01*
X394Y674D02*
X398Y674D01*
X494Y674D02*
X498Y674D01*
X594Y674D02*
X598Y674D01*
X694Y674D02*
X698Y674D01*
X794Y674D02*
X798Y674D01*
X894Y674D02*
X898Y674D01*
X994Y674D02*
X998Y674D01*
X1094Y674D02*
X1098Y674D01*
X44Y673D02*
X298Y673D01*
X394Y673D02*
X398Y673D01*
X494Y673D02*
X498Y673D01*
X594Y673D02*
X598Y673D01*
X694Y673D02*
X698Y673D01*
X793Y673D02*
X798Y673D01*
X893Y673D02*
X898Y673D01*
X993Y673D02*
X998Y673D01*
X1093Y673D02*
X1098Y673D01*
X44Y672D02*
X299Y672D01*
X393Y672D02*
X399Y672D01*
X493Y672D02*
X499Y672D01*
X593Y672D02*
X599Y672D01*
X693Y672D02*
X699Y672D01*
X793Y672D02*
X799Y672D01*
X893Y672D02*
X898Y672D01*
X993Y672D02*
X998Y672D01*
X1093Y672D02*
X1098Y672D01*
X44Y671D02*
X299Y671D01*
X393Y671D02*
X399Y671D01*
X493Y671D02*
X499Y671D01*
X593Y671D02*
X599Y671D01*
X693Y671D02*
X699Y671D01*
X793Y671D02*
X799Y671D01*
X893Y671D02*
X899Y671D01*
X993Y671D02*
X999Y671D01*
X1093Y671D02*
X1099Y671D01*
X44Y670D02*
X299Y670D01*
X393Y670D02*
X399Y670D01*
X493Y670D02*
X499Y670D01*
X593Y670D02*
X599Y670D01*
X693Y670D02*
X699Y670D01*
X792Y670D02*
X799Y670D01*
X892Y670D02*
X899Y670D01*
X992Y670D02*
X999Y670D01*
X1092Y670D02*
X1099Y670D01*
X44Y669D02*
X300Y669D01*
X392Y669D02*
X400Y669D01*
X492Y669D02*
X500Y669D01*
X592Y669D02*
X600Y669D01*
X692Y669D02*
X700Y669D01*
X792Y669D02*
X799Y669D01*
X892Y669D02*
X899Y669D01*
X992Y669D02*
X999Y669D01*
X1092Y669D02*
X1099Y669D01*
X44Y668D02*
X300Y668D01*
X392Y668D02*
X400Y668D01*
X492Y668D02*
X500Y668D01*
X592Y668D02*
X600Y668D01*
X692Y668D02*
X700Y668D01*
X792Y668D02*
X800Y668D01*
X892Y668D02*
X900Y668D01*
X992Y668D02*
X1000Y668D01*
X1092Y668D02*
X1100Y668D01*
X44Y667D02*
X300Y667D01*
X392Y667D02*
X400Y667D01*
X492Y667D02*
X500Y667D01*
X592Y667D02*
X600Y667D01*
X692Y667D02*
X700Y667D01*
X792Y667D02*
X800Y667D01*
X891Y667D02*
X900Y667D01*
X991Y667D02*
X1000Y667D01*
X1091Y667D02*
X1100Y667D01*
X44Y666D02*
X301Y666D01*
X391Y666D02*
X401Y666D01*
X491Y666D02*
X501Y666D01*
X591Y666D02*
X601Y666D01*
X691Y666D02*
X701Y666D01*
X791Y666D02*
X801Y666D01*
X891Y666D02*
X900Y666D01*
X991Y666D02*
X1000Y666D01*
X1091Y666D02*
X1100Y666D01*
X44Y665D02*
X301Y665D01*
X391Y665D02*
X401Y665D01*
X491Y665D02*
X501Y665D01*
X591Y665D02*
X601Y665D01*
X691Y665D02*
X701Y665D01*
X791Y665D02*
X801Y665D01*
X891Y665D02*
X901Y665D01*
X990Y665D02*
X1001Y665D01*
X1090Y665D02*
X1101Y665D01*
X44Y664D02*
X302Y664D01*
X390Y664D02*
X402Y664D01*
X490Y664D02*
X502Y664D01*
X590Y664D02*
X602Y664D01*
X690Y664D02*
X702Y664D01*
X790Y664D02*
X802Y664D01*
X890Y664D02*
X902Y664D01*
X990Y664D02*
X1001Y664D01*
X1090Y664D02*
X1101Y664D01*
X44Y663D02*
X302Y663D01*
X390Y663D02*
X402Y663D01*
X490Y663D02*
X502Y663D01*
X590Y663D02*
X602Y663D01*
X690Y663D02*
X702Y663D01*
X790Y663D02*
X802Y663D01*
X889Y663D02*
X902Y663D01*
X989Y663D02*
X1002Y663D01*
X1089Y663D02*
X1102Y663D01*
X44Y662D02*
X303Y662D01*
X389Y662D02*
X403Y662D01*
X489Y662D02*
X503Y662D01*
X589Y662D02*
X603Y662D01*
X689Y662D02*
X703Y662D01*
X789Y662D02*
X803Y662D01*
X889Y662D02*
X903Y662D01*
X989Y662D02*
X1003Y662D01*
X1089Y662D02*
X1102Y662D01*
X1189Y662D02*
X1191Y662D01*
X44Y661D02*
X303Y661D01*
X389Y661D02*
X403Y661D01*
X489Y661D02*
X503Y661D01*
X589Y661D02*
X603Y661D01*
X689Y661D02*
X703Y661D01*
X788Y661D02*
X803Y661D01*
X888Y661D02*
X903Y661D01*
X988Y661D02*
X1003Y661D01*
X1088Y661D02*
X1103Y661D01*
X1188Y661D02*
X1192Y661D01*
X44Y660D02*
X304Y660D01*
X388Y660D02*
X404Y660D01*
X488Y660D02*
X504Y660D01*
X588Y660D02*
X604Y660D01*
X688Y660D02*
X704Y660D01*
X788Y660D02*
X804Y660D01*
X888Y660D02*
X904Y660D01*
X988Y660D02*
X1004Y660D01*
X1088Y660D02*
X1103Y660D01*
X1188Y660D02*
X1192Y660D01*
X44Y659D02*
X304Y659D01*
X388Y659D02*
X404Y659D01*
X488Y659D02*
X504Y659D01*
X588Y659D02*
X604Y659D01*
X687Y659D02*
X704Y659D01*
X787Y659D02*
X804Y659D01*
X887Y659D02*
X904Y659D01*
X987Y659D02*
X1004Y659D01*
X1087Y659D02*
X1104Y659D01*
X1187Y659D02*
X1192Y659D01*
X44Y658D02*
X305Y658D01*
X387Y658D02*
X405Y658D01*
X487Y658D02*
X505Y658D01*
X587Y658D02*
X605Y658D01*
X687Y658D02*
X705Y658D01*
X787Y658D02*
X805Y658D01*
X887Y658D02*
X905Y658D01*
X987Y658D02*
X1005Y658D01*
X1087Y658D02*
X1105Y658D01*
X1187Y658D02*
X1192Y658D01*
X44Y657D02*
X306Y657D01*
X386Y657D02*
X406Y657D01*
X486Y657D02*
X506Y657D01*
X586Y657D02*
X606Y657D01*
X686Y657D02*
X706Y657D01*
X786Y657D02*
X806Y657D01*
X886Y657D02*
X905Y657D01*
X986Y657D02*
X1005Y657D01*
X1086Y657D02*
X1105Y657D01*
X1186Y657D02*
X1192Y657D01*
X44Y656D02*
X307Y656D01*
X386Y656D02*
X407Y656D01*
X485Y656D02*
X507Y656D01*
X585Y656D02*
X606Y656D01*
X685Y656D02*
X706Y656D01*
X785Y656D02*
X806Y656D01*
X885Y656D02*
X906Y656D01*
X985Y656D02*
X1006Y656D01*
X1085Y656D02*
X1106Y656D01*
X1185Y656D02*
X1192Y656D01*
X44Y655D02*
X189Y655D01*
X200Y655D02*
X307Y655D01*
X385Y655D02*
X407Y655D01*
X485Y655D02*
X507Y655D01*
X585Y655D02*
X607Y655D01*
X685Y655D02*
X707Y655D01*
X785Y655D02*
X807Y655D01*
X884Y655D02*
X907Y655D01*
X984Y655D02*
X1007Y655D01*
X1084Y655D02*
X1107Y655D01*
X1184Y655D02*
X1192Y655D01*
X44Y654D02*
X183Y654D01*
X206Y654D02*
X308Y654D01*
X384Y654D02*
X408Y654D01*
X484Y654D02*
X508Y654D01*
X584Y654D02*
X608Y654D01*
X684Y654D02*
X708Y654D01*
X784Y654D02*
X808Y654D01*
X884Y654D02*
X908Y654D01*
X984Y654D02*
X1008Y654D01*
X1084Y654D02*
X1108Y654D01*
X1183Y654D02*
X1192Y654D01*
X44Y653D02*
X179Y653D01*
X209Y653D02*
X309Y653D01*
X383Y653D02*
X409Y653D01*
X483Y653D02*
X509Y653D01*
X583Y653D02*
X609Y653D01*
X683Y653D02*
X709Y653D01*
X783Y653D02*
X809Y653D01*
X883Y653D02*
X909Y653D01*
X983Y653D02*
X1009Y653D01*
X1083Y653D02*
X1108Y653D01*
X1183Y653D02*
X1192Y653D01*
X44Y652D02*
X176Y652D01*
X212Y652D02*
X310Y652D01*
X382Y652D02*
X410Y652D01*
X482Y652D02*
X510Y652D01*
X582Y652D02*
X610Y652D01*
X682Y652D02*
X710Y652D01*
X782Y652D02*
X810Y652D01*
X882Y652D02*
X910Y652D01*
X982Y652D02*
X1009Y652D01*
X1082Y652D02*
X1109Y652D01*
X1182Y652D02*
X1192Y652D01*
X44Y651D02*
X174Y651D01*
X214Y651D02*
X311Y651D01*
X381Y651D02*
X411Y651D01*
X481Y651D02*
X511Y651D01*
X581Y651D02*
X611Y651D01*
X681Y651D02*
X710Y651D01*
X781Y651D02*
X810Y651D01*
X881Y651D02*
X910Y651D01*
X981Y651D02*
X1010Y651D01*
X1081Y651D02*
X1110Y651D01*
X1181Y651D02*
X1192Y651D01*
X44Y650D02*
X172Y650D01*
X216Y650D02*
X312Y650D01*
X380Y650D02*
X412Y650D01*
X480Y650D02*
X512Y650D01*
X580Y650D02*
X612Y650D01*
X680Y650D02*
X712Y650D01*
X780Y650D02*
X811Y650D01*
X880Y650D02*
X911Y650D01*
X980Y650D02*
X1011Y650D01*
X1080Y650D02*
X1111Y650D01*
X1180Y650D02*
X1192Y650D01*
X44Y649D02*
X170Y649D01*
X218Y649D02*
X313Y649D01*
X379Y649D02*
X413Y649D01*
X479Y649D02*
X513Y649D01*
X579Y649D02*
X613Y649D01*
X679Y649D02*
X713Y649D01*
X779Y649D02*
X813Y649D01*
X879Y649D02*
X913Y649D01*
X979Y649D02*
X1013Y649D01*
X1079Y649D02*
X1112Y649D01*
X1179Y649D02*
X1192Y649D01*
X44Y648D02*
X169Y648D01*
X220Y648D02*
X314Y648D01*
X378Y648D02*
X414Y648D01*
X478Y648D02*
X514Y648D01*
X578Y648D02*
X614Y648D01*
X678Y648D02*
X714Y648D01*
X778Y648D02*
X814Y648D01*
X878Y648D02*
X914Y648D01*
X978Y648D02*
X1014Y648D01*
X1078Y648D02*
X1114Y648D01*
X1177Y648D02*
X1192Y648D01*
X44Y647D02*
X167Y647D01*
X221Y647D02*
X315Y647D01*
X377Y647D02*
X415Y647D01*
X477Y647D02*
X515Y647D01*
X577Y647D02*
X615Y647D01*
X677Y647D02*
X715Y647D01*
X776Y647D02*
X815Y647D01*
X876Y647D02*
X915Y647D01*
X976Y647D02*
X1015Y647D01*
X1076Y647D02*
X1115Y647D01*
X1176Y647D02*
X1192Y647D01*
X44Y646D02*
X166Y646D01*
X223Y646D02*
X317Y646D01*
X375Y646D02*
X417Y646D01*
X475Y646D02*
X517Y646D01*
X575Y646D02*
X617Y646D01*
X675Y646D02*
X716Y646D01*
X775Y646D02*
X816Y646D01*
X875Y646D02*
X916Y646D01*
X975Y646D02*
X1016Y646D01*
X1075Y646D02*
X1116Y646D01*
X1175Y646D02*
X1192Y646D01*
X44Y645D02*
X164Y645D01*
X224Y645D02*
X318Y645D01*
X374Y645D02*
X418Y645D01*
X474Y645D02*
X518Y645D01*
X574Y645D02*
X618Y645D01*
X674Y645D02*
X718Y645D01*
X774Y645D02*
X818Y645D01*
X874Y645D02*
X918Y645D01*
X974Y645D02*
X1018Y645D01*
X1074Y645D02*
X1117Y645D01*
X1174Y645D02*
X1192Y645D01*
X44Y644D02*
X163Y644D01*
X225Y644D02*
X320Y644D01*
X372Y644D02*
X420Y644D01*
X472Y644D02*
X520Y644D01*
X572Y644D02*
X620Y644D01*
X672Y644D02*
X720Y644D01*
X772Y644D02*
X819Y644D01*
X872Y644D02*
X919Y644D01*
X972Y644D02*
X1019Y644D01*
X1072Y644D02*
X1119Y644D01*
X1172Y644D02*
X1192Y644D01*
X44Y643D02*
X162Y643D01*
X226Y643D02*
X322Y643D01*
X370Y643D02*
X422Y643D01*
X470Y643D02*
X522Y643D01*
X570Y643D02*
X621Y643D01*
X670Y643D02*
X721Y643D01*
X770Y643D02*
X821Y643D01*
X870Y643D02*
X921Y643D01*
X970Y643D02*
X1021Y643D01*
X1070Y643D02*
X1121Y643D01*
X1170Y643D02*
X1192Y643D01*
X44Y642D02*
X161Y642D01*
X228Y642D02*
X323Y642D01*
X369Y642D02*
X423Y642D01*
X469Y642D02*
X523Y642D01*
X569Y642D02*
X623Y642D01*
X668Y642D02*
X723Y642D01*
X768Y642D02*
X823Y642D01*
X868Y642D02*
X923Y642D01*
X968Y642D02*
X1023Y642D01*
X1068Y642D02*
X1123Y642D01*
X1168Y642D02*
X1192Y642D01*
X44Y641D02*
X160Y641D01*
X229Y641D02*
X325Y641D01*
X367Y641D02*
X425Y641D01*
X467Y641D02*
X525Y641D01*
X567Y641D02*
X625Y641D01*
X667Y641D02*
X725Y641D01*
X767Y641D02*
X825Y641D01*
X866Y641D02*
X925Y641D01*
X966Y641D02*
X1025Y641D01*
X1066Y641D02*
X1125Y641D01*
X1166Y641D02*
X1192Y641D01*
X44Y640D02*
X159Y640D01*
X229Y640D02*
X328Y640D01*
X364Y640D02*
X428Y640D01*
X464Y640D02*
X528Y640D01*
X564Y640D02*
X628Y640D01*
X664Y640D02*
X728Y640D01*
X764Y640D02*
X827Y640D01*
X864Y640D02*
X927Y640D01*
X964Y640D02*
X1027Y640D01*
X1064Y640D02*
X1127Y640D01*
X1164Y640D02*
X1192Y640D01*
X44Y639D02*
X158Y639D01*
X230Y639D02*
X331Y639D01*
X361Y639D02*
X431Y639D01*
X461Y639D02*
X531Y639D01*
X561Y639D02*
X631Y639D01*
X661Y639D02*
X731Y639D01*
X761Y639D02*
X831Y639D01*
X861Y639D02*
X931Y639D01*
X961Y639D02*
X1030Y639D01*
X1061Y639D02*
X1129Y639D01*
X1163Y639D02*
X1192Y639D01*
X44Y638D02*
X157Y638D01*
X231Y638D02*
X334Y638D01*
X358Y638D02*
X434Y638D01*
X458Y638D02*
X534Y638D01*
X558Y638D02*
X634Y638D01*
X658Y638D02*
X734Y638D01*
X758Y638D02*
X834Y638D01*
X858Y638D02*
X934Y638D01*
X958Y638D02*
X1034Y638D01*
X1058Y638D02*
X1129Y638D01*
X1162Y638D02*
X1192Y638D01*
X44Y637D02*
X157Y637D01*
X232Y637D02*
X338Y637D01*
X354Y637D02*
X438Y637D01*
X454Y637D02*
X538Y637D01*
X554Y637D02*
X638Y637D01*
X654Y637D02*
X738Y637D01*
X754Y637D02*
X838Y637D01*
X854Y637D02*
X938Y637D01*
X954Y637D02*
X1038Y637D01*
X1053Y637D02*
X1129Y637D01*
X1162Y637D02*
X1192Y637D01*
X44Y636D02*
X156Y636D01*
X233Y636D02*
X1129Y636D01*
X1162Y636D02*
X1192Y636D01*
X44Y635D02*
X155Y635D01*
X233Y635D02*
X1129Y635D01*
X1162Y635D02*
X1192Y635D01*
X44Y634D02*
X154Y634D01*
X234Y634D02*
X1129Y634D01*
X1162Y634D02*
X1192Y634D01*
X44Y633D02*
X154Y633D01*
X235Y633D02*
X1129Y633D01*
X1162Y633D02*
X1192Y633D01*
X44Y632D02*
X153Y632D01*
X235Y632D02*
X1129Y632D01*
X1162Y632D02*
X1192Y632D01*
X44Y631D02*
X153Y631D01*
X236Y631D02*
X342Y631D01*
X351Y631D02*
X541Y631D01*
X552Y631D02*
X753Y631D01*
X757Y631D02*
X840Y631D01*
X849Y631D02*
X1129Y631D01*
X1162Y631D02*
X1192Y631D01*
X44Y630D02*
X152Y630D01*
X236Y630D02*
X335Y630D01*
X358Y630D02*
X437Y630D01*
X455Y630D02*
X535Y630D01*
X558Y630D02*
X637Y630D01*
X655Y630D02*
X745Y630D01*
X765Y630D02*
X833Y630D01*
X855Y630D02*
X1129Y630D01*
X1162Y630D02*
X1192Y630D01*
X44Y629D02*
X152Y629D01*
X237Y629D02*
X332Y629D01*
X361Y629D02*
X433Y629D01*
X459Y629D02*
X532Y629D01*
X561Y629D02*
X633Y629D01*
X658Y629D02*
X742Y629D01*
X769Y629D02*
X830Y629D01*
X858Y629D02*
X1129Y629D01*
X1162Y629D02*
X1192Y629D01*
X44Y628D02*
X151Y628D01*
X237Y628D02*
X329Y628D01*
X364Y628D02*
X430Y628D01*
X462Y628D02*
X529Y628D01*
X564Y628D02*
X630Y628D01*
X662Y628D02*
X739Y628D01*
X772Y628D02*
X827Y628D01*
X862Y628D02*
X1129Y628D01*
X1162Y628D02*
X1192Y628D01*
X44Y627D02*
X151Y627D01*
X238Y627D02*
X327Y627D01*
X366Y627D02*
X427Y627D01*
X465Y627D02*
X526Y627D01*
X566Y627D02*
X627Y627D01*
X665Y627D02*
X736Y627D01*
X775Y627D02*
X824Y627D01*
X864Y627D02*
X1129Y627D01*
X1162Y627D02*
X1192Y627D01*
X44Y626D02*
X150Y626D01*
X238Y626D02*
X325Y626D01*
X368Y626D02*
X425Y626D01*
X467Y626D02*
X525Y626D01*
X568Y626D02*
X625Y626D01*
X666Y626D02*
X734Y626D01*
X777Y626D02*
X822Y626D01*
X866Y626D02*
X1129Y626D01*
X1162Y626D02*
X1192Y626D01*
X44Y625D02*
X150Y625D01*
X238Y625D02*
X323Y625D01*
X370Y625D02*
X423Y625D01*
X468Y625D02*
X523Y625D01*
X570Y625D02*
X623Y625D01*
X668Y625D02*
X732Y625D01*
X778Y625D02*
X821Y625D01*
X868Y625D02*
X1129Y625D01*
X1162Y625D02*
X1192Y625D01*
X44Y624D02*
X150Y624D01*
X239Y624D02*
X321Y624D01*
X372Y624D02*
X422Y624D01*
X470Y624D02*
X521Y624D01*
X572Y624D02*
X621Y624D01*
X670Y624D02*
X730Y624D01*
X780Y624D02*
X819Y624D01*
X870Y624D02*
X1129Y624D01*
X1162Y624D02*
X1192Y624D01*
X44Y623D02*
X149Y623D01*
X239Y623D02*
X319Y623D01*
X374Y623D02*
X420Y623D01*
X472Y623D02*
X519Y623D01*
X574Y623D02*
X620Y623D01*
X672Y623D02*
X729Y623D01*
X782Y623D02*
X817Y623D01*
X872Y623D02*
X1129Y623D01*
X1162Y623D02*
X1192Y623D01*
X44Y622D02*
X149Y622D01*
X239Y622D02*
X318Y622D01*
X375Y622D02*
X418Y622D01*
X474Y622D02*
X518Y622D01*
X575Y622D02*
X618Y622D01*
X674Y622D02*
X727Y622D01*
X783Y622D02*
X816Y622D01*
X873Y622D02*
X1129Y622D01*
X1162Y622D02*
X1192Y622D01*
X44Y621D02*
X149Y621D01*
X240Y621D02*
X317Y621D01*
X376Y621D02*
X417Y621D01*
X475Y621D02*
X516Y621D01*
X576Y621D02*
X617Y621D01*
X675Y621D02*
X726Y621D01*
X785Y621D02*
X815Y621D01*
X874Y621D02*
X1129Y621D01*
X1162Y621D02*
X1192Y621D01*
X44Y620D02*
X148Y620D01*
X240Y620D02*
X316Y620D01*
X378Y620D02*
X416Y620D01*
X476Y620D02*
X515Y620D01*
X578Y620D02*
X616Y620D01*
X676Y620D02*
X725Y620D01*
X786Y620D02*
X813Y620D01*
X875Y620D02*
X1129Y620D01*
X1162Y620D02*
X1192Y620D01*
X44Y619D02*
X148Y619D01*
X240Y619D02*
X314Y619D01*
X379Y619D02*
X414Y619D01*
X477Y619D02*
X514Y619D01*
X579Y619D02*
X614Y619D01*
X677Y619D02*
X723Y619D01*
X787Y619D02*
X812Y619D01*
X877Y619D02*
X1129Y619D01*
X1162Y619D02*
X1192Y619D01*
X44Y618D02*
X148Y618D01*
X241Y618D02*
X313Y618D01*
X380Y618D02*
X413Y618D01*
X479Y618D02*
X513Y618D01*
X580Y618D02*
X613Y618D01*
X679Y618D02*
X722Y618D01*
X789Y618D02*
X811Y618D01*
X878Y618D02*
X1129Y618D01*
X1162Y618D02*
X1192Y618D01*
X44Y617D02*
X148Y617D01*
X241Y617D02*
X312Y617D01*
X381Y617D02*
X412Y617D01*
X480Y617D02*
X512Y617D01*
X581Y617D02*
X612Y617D01*
X680Y617D02*
X721Y617D01*
X790Y617D02*
X810Y617D01*
X879Y617D02*
X1129Y617D01*
X1162Y617D02*
X1192Y617D01*
X44Y616D02*
X148Y616D01*
X241Y616D02*
X311Y616D01*
X382Y616D02*
X411Y616D01*
X481Y616D02*
X511Y616D01*
X582Y616D02*
X611Y616D01*
X681Y616D02*
X720Y616D01*
X790Y616D02*
X809Y616D01*
X880Y616D02*
X1129Y616D01*
X1162Y616D02*
X1192Y616D01*
X44Y615D02*
X147Y615D01*
X241Y615D02*
X310Y615D01*
X383Y615D02*
X410Y615D01*
X481Y615D02*
X510Y615D01*
X583Y615D02*
X610Y615D01*
X681Y615D02*
X719Y615D01*
X791Y615D02*
X808Y615D01*
X880Y615D02*
X1129Y615D01*
X1162Y615D02*
X1192Y615D01*
X44Y614D02*
X147Y614D01*
X241Y614D02*
X310Y614D01*
X383Y614D02*
X410Y614D01*
X482Y614D02*
X509Y614D01*
X583Y614D02*
X610Y614D01*
X682Y614D02*
X719Y614D01*
X792Y614D02*
X807Y614D01*
X881Y614D02*
X1129Y614D01*
X1162Y614D02*
X1192Y614D01*
X44Y613D02*
X147Y613D01*
X241Y613D02*
X309Y613D01*
X384Y613D02*
X409Y613D01*
X483Y613D02*
X509Y613D01*
X584Y613D02*
X609Y613D01*
X683Y613D02*
X718Y613D01*
X793Y613D02*
X807Y613D01*
X882Y613D02*
X1129Y613D01*
X1162Y613D02*
X1192Y613D01*
X44Y612D02*
X147Y612D01*
X241Y612D02*
X308Y612D01*
X385Y612D02*
X408Y612D01*
X484Y612D02*
X508Y612D01*
X585Y612D02*
X608Y612D01*
X684Y612D02*
X717Y612D01*
X794Y612D02*
X806Y612D01*
X883Y612D02*
X1129Y612D01*
X1162Y612D02*
X1192Y612D01*
X44Y611D02*
X147Y611D01*
X241Y611D02*
X307Y611D01*
X386Y611D02*
X407Y611D01*
X485Y611D02*
X507Y611D01*
X586Y611D02*
X607Y611D01*
X685Y611D02*
X716Y611D01*
X794Y611D02*
X805Y611D01*
X884Y611D02*
X1129Y611D01*
X1162Y611D02*
X1192Y611D01*
X44Y610D02*
X147Y610D01*
X242Y610D02*
X307Y610D01*
X387Y610D02*
X407Y610D01*
X485Y610D02*
X506Y610D01*
X586Y610D02*
X606Y610D01*
X685Y610D02*
X716Y610D01*
X795Y610D02*
X804Y610D01*
X884Y610D02*
X1129Y610D01*
X1162Y610D02*
X1192Y610D01*
X44Y609D02*
X147Y609D01*
X242Y609D02*
X306Y609D01*
X387Y609D02*
X406Y609D01*
X486Y609D02*
X506Y609D01*
X587Y609D02*
X606Y609D01*
X686Y609D02*
X715Y609D01*
X796Y609D02*
X804Y609D01*
X885Y609D02*
X1129Y609D01*
X1162Y609D02*
X1192Y609D01*
X44Y608D02*
X147Y608D01*
X242Y608D02*
X305Y608D01*
X388Y608D02*
X405Y608D01*
X486Y608D02*
X505Y608D01*
X588Y608D02*
X605Y608D01*
X686Y608D02*
X714Y608D01*
X796Y608D02*
X803Y608D01*
X885Y608D02*
X1129Y608D01*
X1162Y608D02*
X1192Y608D01*
X44Y607D02*
X147Y607D01*
X242Y607D02*
X305Y607D01*
X388Y607D02*
X405Y607D01*
X487Y607D02*
X505Y607D01*
X588Y607D02*
X605Y607D01*
X687Y607D02*
X714Y607D01*
X797Y607D02*
X803Y607D01*
X886Y607D02*
X1129Y607D01*
X1162Y607D02*
X1192Y607D01*
X44Y606D02*
X147Y606D01*
X241Y606D02*
X304Y606D01*
X389Y606D02*
X404Y606D01*
X487Y606D02*
X504Y606D01*
X589Y606D02*
X604Y606D01*
X687Y606D02*
X713Y606D01*
X797Y606D02*
X802Y606D01*
X886Y606D02*
X1129Y606D01*
X1162Y606D02*
X1192Y606D01*
X44Y605D02*
X147Y605D01*
X241Y605D02*
X304Y605D01*
X389Y605D02*
X404Y605D01*
X488Y605D02*
X504Y605D01*
X589Y605D02*
X604Y605D01*
X688Y605D02*
X713Y605D01*
X798Y605D02*
X802Y605D01*
X887Y605D02*
X1129Y605D01*
X1162Y605D02*
X1192Y605D01*
X44Y604D02*
X147Y604D01*
X241Y604D02*
X303Y604D01*
X390Y604D02*
X403Y604D01*
X489Y604D02*
X503Y604D01*
X590Y604D02*
X603Y604D01*
X689Y604D02*
X712Y604D01*
X799Y604D02*
X801Y604D01*
X887Y604D02*
X1129Y604D01*
X1162Y604D02*
X1192Y604D01*
X44Y603D02*
X147Y603D01*
X241Y603D02*
X303Y603D01*
X390Y603D02*
X403Y603D01*
X489Y603D02*
X503Y603D01*
X590Y603D02*
X603Y603D01*
X689Y603D02*
X712Y603D01*
X888Y603D02*
X1129Y603D01*
X1162Y603D02*
X1192Y603D01*
X44Y602D02*
X147Y602D01*
X241Y602D02*
X302Y602D01*
X391Y602D02*
X402Y602D01*
X490Y602D02*
X502Y602D01*
X591Y602D02*
X602Y602D01*
X689Y602D02*
X711Y602D01*
X888Y602D02*
X1129Y602D01*
X1162Y602D02*
X1192Y602D01*
X44Y601D02*
X148Y601D01*
X241Y601D02*
X302Y601D01*
X391Y601D02*
X402Y601D01*
X490Y601D02*
X502Y601D01*
X591Y601D02*
X602Y601D01*
X690Y601D02*
X711Y601D01*
X889Y601D02*
X1129Y601D01*
X1162Y601D02*
X1192Y601D01*
X44Y600D02*
X74Y600D01*
X91Y600D02*
X148Y600D01*
X241Y600D02*
X302Y600D01*
X391Y600D02*
X402Y600D01*
X490Y600D02*
X502Y600D01*
X591Y600D02*
X602Y600D01*
X690Y600D02*
X711Y600D01*
X891Y600D02*
X1127Y600D01*
X1162Y600D02*
X1192Y600D01*
X44Y599D02*
X70Y599D01*
X95Y599D02*
X148Y599D01*
X241Y599D02*
X301Y599D01*
X392Y599D02*
X401Y599D01*
X491Y599D02*
X501Y599D01*
X592Y599D02*
X601Y599D01*
X690Y599D02*
X710Y599D01*
X1162Y599D02*
X1192Y599D01*
X44Y598D02*
X67Y598D01*
X98Y598D02*
X148Y598D01*
X240Y598D02*
X301Y598D01*
X392Y598D02*
X401Y598D01*
X491Y598D02*
X501Y598D01*
X592Y598D02*
X601Y598D01*
X691Y598D02*
X710Y598D01*
X1162Y598D02*
X1192Y598D01*
X44Y597D02*
X64Y597D01*
X101Y597D02*
X148Y597D01*
X240Y597D02*
X301Y597D01*
X392Y597D02*
X401Y597D01*
X491Y597D02*
X501Y597D01*
X592Y597D02*
X601Y597D01*
X691Y597D02*
X710Y597D01*
X1162Y597D02*
X1192Y597D01*
X44Y596D02*
X62Y596D01*
X103Y596D02*
X149Y596D01*
X240Y596D02*
X300Y596D01*
X393Y596D02*
X400Y596D01*
X492Y596D02*
X500Y596D01*
X593Y596D02*
X600Y596D01*
X691Y596D02*
X709Y596D01*
X1162Y596D02*
X1192Y596D01*
X44Y595D02*
X60Y595D01*
X105Y595D02*
X149Y595D01*
X239Y595D02*
X300Y595D01*
X393Y595D02*
X400Y595D01*
X492Y595D02*
X500Y595D01*
X593Y595D02*
X600Y595D01*
X692Y595D02*
X709Y595D01*
X1162Y595D02*
X1192Y595D01*
X44Y594D02*
X58Y594D01*
X107Y594D02*
X149Y594D01*
X239Y594D02*
X300Y594D01*
X393Y594D02*
X400Y594D01*
X492Y594D02*
X500Y594D01*
X593Y594D02*
X600Y594D01*
X692Y594D02*
X709Y594D01*
X1162Y594D02*
X1192Y594D01*
X44Y593D02*
X56Y593D01*
X109Y593D02*
X150Y593D01*
X239Y593D02*
X300Y593D01*
X393Y593D02*
X400Y593D01*
X492Y593D02*
X499Y593D01*
X593Y593D02*
X599Y593D01*
X692Y593D02*
X708Y593D01*
X1162Y593D02*
X1192Y593D01*
X44Y592D02*
X55Y592D01*
X110Y592D02*
X150Y592D01*
X238Y592D02*
X299Y592D01*
X394Y592D02*
X399Y592D01*
X493Y592D02*
X499Y592D01*
X594Y592D02*
X599Y592D01*
X692Y592D02*
X708Y592D01*
X1162Y592D02*
X1192Y592D01*
X44Y591D02*
X54Y591D01*
X111Y591D02*
X150Y591D01*
X238Y591D02*
X299Y591D01*
X394Y591D02*
X399Y591D01*
X493Y591D02*
X499Y591D01*
X594Y591D02*
X599Y591D01*
X693Y591D02*
X708Y591D01*
X1162Y591D02*
X1192Y591D01*
X44Y590D02*
X52Y590D01*
X113Y590D02*
X151Y590D01*
X238Y590D02*
X299Y590D01*
X394Y590D02*
X399Y590D01*
X493Y590D02*
X499Y590D01*
X594Y590D02*
X599Y590D01*
X693Y590D02*
X708Y590D01*
X1162Y590D02*
X1192Y590D01*
X44Y589D02*
X51Y589D01*
X114Y589D02*
X151Y589D01*
X237Y589D02*
X299Y589D01*
X394Y589D02*
X399Y589D01*
X493Y589D02*
X499Y589D01*
X594Y589D02*
X599Y589D01*
X693Y589D02*
X708Y589D01*
X1162Y589D02*
X1192Y589D01*
X44Y588D02*
X50Y588D01*
X115Y588D02*
X152Y588D01*
X237Y588D02*
X299Y588D01*
X394Y588D02*
X399Y588D01*
X493Y588D02*
X499Y588D01*
X594Y588D02*
X599Y588D01*
X693Y588D02*
X708Y588D01*
X1162Y588D02*
X1192Y588D01*
X44Y587D02*
X49Y587D01*
X116Y587D02*
X152Y587D01*
X236Y587D02*
X299Y587D01*
X394Y587D02*
X399Y587D01*
X493Y587D02*
X499Y587D01*
X594Y587D02*
X599Y587D01*
X693Y587D02*
X708Y587D01*
X1162Y587D02*
X1192Y587D01*
X44Y586D02*
X48Y586D01*
X117Y586D02*
X153Y586D01*
X236Y586D02*
X299Y586D01*
X394Y586D02*
X399Y586D01*
X493Y586D02*
X499Y586D01*
X594Y586D02*
X599Y586D01*
X693Y586D02*
X708Y586D01*
X1162Y586D02*
X1192Y586D01*
X45Y585D02*
X47Y585D01*
X118Y585D02*
X153Y585D01*
X235Y585D02*
X299Y585D01*
X394Y585D02*
X399Y585D01*
X493Y585D02*
X499Y585D01*
X594Y585D02*
X598Y585D01*
X693Y585D02*
X707Y585D01*
X1162Y585D02*
X1192Y585D01*
X119Y584D02*
X154Y584D01*
X235Y584D02*
X299Y584D01*
X395Y584D02*
X398Y584D01*
X493Y584D02*
X498Y584D01*
X594Y584D02*
X598Y584D01*
X693Y584D02*
X707Y584D01*
X1162Y584D02*
X1192Y584D01*
X120Y583D02*
X155Y583D01*
X236Y583D02*
X299Y583D01*
X394Y583D02*
X399Y583D01*
X493Y583D02*
X499Y583D01*
X594Y583D02*
X598Y583D01*
X693Y583D02*
X707Y583D01*
X1162Y583D02*
X1192Y583D01*
X120Y582D02*
X155Y582D01*
X236Y582D02*
X299Y582D01*
X394Y582D02*
X399Y582D01*
X493Y582D02*
X499Y582D01*
X594Y582D02*
X599Y582D01*
X693Y582D02*
X708Y582D01*
X1162Y582D02*
X1192Y582D01*
X121Y581D02*
X156Y581D01*
X237Y581D02*
X299Y581D01*
X394Y581D02*
X399Y581D01*
X493Y581D02*
X499Y581D01*
X594Y581D02*
X599Y581D01*
X693Y581D02*
X708Y581D01*
X1162Y581D02*
X1192Y581D01*
X122Y580D02*
X157Y580D01*
X238Y580D02*
X299Y580D01*
X394Y580D02*
X399Y580D01*
X493Y580D02*
X499Y580D01*
X594Y580D02*
X599Y580D01*
X693Y580D02*
X708Y580D01*
X1162Y580D02*
X1192Y580D01*
X122Y579D02*
X158Y579D01*
X239Y579D02*
X299Y579D01*
X394Y579D02*
X399Y579D01*
X493Y579D02*
X499Y579D01*
X594Y579D02*
X599Y579D01*
X693Y579D02*
X708Y579D01*
X1161Y579D02*
X1192Y579D01*
X123Y578D02*
X158Y578D01*
X240Y578D02*
X299Y578D01*
X394Y578D02*
X399Y578D01*
X493Y578D02*
X499Y578D01*
X594Y578D02*
X599Y578D01*
X693Y578D02*
X708Y578D01*
X1161Y578D02*
X1192Y578D01*
X124Y577D02*
X159Y577D01*
X240Y577D02*
X299Y577D01*
X394Y577D02*
X399Y577D01*
X493Y577D02*
X499Y577D01*
X594Y577D02*
X599Y577D01*
X693Y577D02*
X708Y577D01*
X1160Y577D02*
X1192Y577D01*
X124Y576D02*
X160Y576D01*
X241Y576D02*
X299Y576D01*
X394Y576D02*
X399Y576D01*
X493Y576D02*
X499Y576D01*
X594Y576D02*
X599Y576D01*
X692Y576D02*
X708Y576D01*
X1160Y576D02*
X1192Y576D01*
X125Y575D02*
X161Y575D01*
X242Y575D02*
X300Y575D01*
X394Y575D02*
X399Y575D01*
X492Y575D02*
X499Y575D01*
X593Y575D02*
X599Y575D01*
X692Y575D02*
X708Y575D01*
X1159Y575D02*
X1192Y575D01*
X125Y574D02*
X162Y574D01*
X243Y574D02*
X300Y574D01*
X393Y574D02*
X400Y574D01*
X492Y574D02*
X500Y574D01*
X593Y574D02*
X600Y574D01*
X692Y574D02*
X708Y574D01*
X1159Y574D02*
X1192Y574D01*
X126Y573D02*
X163Y573D01*
X244Y573D02*
X300Y573D01*
X393Y573D02*
X400Y573D01*
X492Y573D02*
X500Y573D01*
X593Y573D02*
X600Y573D01*
X692Y573D02*
X709Y573D01*
X1158Y573D02*
X1192Y573D01*
X126Y572D02*
X165Y572D01*
X244Y572D02*
X300Y572D01*
X393Y572D02*
X400Y572D01*
X492Y572D02*
X500Y572D01*
X593Y572D02*
X600Y572D01*
X691Y572D02*
X709Y572D01*
X1157Y572D02*
X1192Y572D01*
X126Y571D02*
X166Y571D01*
X245Y571D02*
X301Y571D01*
X392Y571D02*
X401Y571D01*
X491Y571D02*
X501Y571D01*
X592Y571D02*
X601Y571D01*
X691Y571D02*
X709Y571D01*
X1155Y571D02*
X1192Y571D01*
X127Y570D02*
X167Y570D01*
X246Y570D02*
X301Y570D01*
X392Y570D02*
X401Y570D01*
X491Y570D02*
X501Y570D01*
X592Y570D02*
X601Y570D01*
X691Y570D02*
X710Y570D01*
X1154Y570D02*
X1192Y570D01*
X127Y569D02*
X169Y569D01*
X247Y569D02*
X301Y569D01*
X392Y569D02*
X401Y569D01*
X491Y569D02*
X501Y569D01*
X592Y569D02*
X601Y569D01*
X691Y569D02*
X710Y569D01*
X1152Y569D02*
X1192Y569D01*
X127Y568D02*
X171Y568D01*
X248Y568D02*
X302Y568D01*
X391Y568D02*
X402Y568D01*
X490Y568D02*
X502Y568D01*
X591Y568D02*
X601Y568D01*
X690Y568D02*
X710Y568D01*
X1011Y568D02*
X1192Y568D01*
X128Y567D02*
X173Y567D01*
X248Y567D02*
X302Y567D01*
X391Y567D02*
X402Y567D01*
X490Y567D02*
X502Y567D01*
X591Y567D02*
X602Y567D01*
X690Y567D02*
X711Y567D01*
X889Y567D02*
X1192Y567D01*
X128Y566D02*
X174Y566D01*
X249Y566D02*
X302Y566D01*
X391Y566D02*
X402Y566D01*
X490Y566D02*
X502Y566D01*
X591Y566D02*
X602Y566D01*
X690Y566D02*
X711Y566D01*
X889Y566D02*
X1192Y566D01*
X128Y565D02*
X177Y565D01*
X250Y565D02*
X303Y565D01*
X390Y565D02*
X403Y565D01*
X489Y565D02*
X503Y565D01*
X590Y565D02*
X603Y565D01*
X689Y565D02*
X711Y565D01*
X888Y565D02*
X1192Y565D01*
X129Y564D02*
X180Y564D01*
X251Y564D02*
X303Y564D01*
X390Y564D02*
X403Y564D01*
X489Y564D02*
X503Y564D01*
X590Y564D02*
X603Y564D01*
X689Y564D02*
X712Y564D01*
X800Y564D02*
X800Y564D01*
X888Y564D02*
X1192Y564D01*
X129Y563D02*
X183Y563D01*
X205Y563D02*
X210Y563D01*
X252Y563D02*
X304Y563D01*
X389Y563D02*
X404Y563D01*
X488Y563D02*
X504Y563D01*
X589Y563D02*
X604Y563D01*
X688Y563D02*
X712Y563D01*
X798Y563D02*
X801Y563D01*
X887Y563D02*
X1192Y563D01*
X129Y562D02*
X190Y562D01*
X199Y562D02*
X211Y562D01*
X252Y562D02*
X304Y562D01*
X389Y562D02*
X404Y562D01*
X488Y562D02*
X504Y562D01*
X589Y562D02*
X604Y562D01*
X687Y562D02*
X713Y562D01*
X798Y562D02*
X802Y562D01*
X886Y562D02*
X1192Y562D01*
X129Y561D02*
X211Y561D01*
X253Y561D02*
X305Y561D01*
X388Y561D02*
X405Y561D01*
X487Y561D02*
X505Y561D01*
X588Y561D02*
X605Y561D01*
X687Y561D02*
X713Y561D01*
X797Y561D02*
X803Y561D01*
X886Y561D02*
X1192Y561D01*
X129Y560D02*
X212Y560D01*
X254Y560D02*
X305Y560D01*
X388Y560D02*
X405Y560D01*
X487Y560D02*
X505Y560D01*
X588Y560D02*
X605Y560D01*
X686Y560D02*
X714Y560D01*
X797Y560D02*
X803Y560D01*
X885Y560D02*
X1192Y560D01*
X129Y559D02*
X213Y559D01*
X255Y559D02*
X306Y559D01*
X387Y559D02*
X406Y559D01*
X486Y559D02*
X506Y559D01*
X587Y559D02*
X606Y559D01*
X686Y559D02*
X715Y559D01*
X796Y559D02*
X804Y559D01*
X885Y559D02*
X1192Y559D01*
X130Y558D02*
X214Y558D01*
X256Y558D02*
X306Y558D01*
X387Y558D02*
X406Y558D01*
X485Y558D02*
X506Y558D01*
X586Y558D02*
X606Y558D01*
X685Y558D02*
X715Y558D01*
X796Y558D02*
X804Y558D01*
X884Y558D02*
X1192Y558D01*
X130Y557D02*
X215Y557D01*
X256Y557D02*
X307Y557D01*
X386Y557D02*
X407Y557D01*
X485Y557D02*
X507Y557D01*
X586Y557D02*
X607Y557D01*
X685Y557D02*
X716Y557D01*
X795Y557D02*
X805Y557D01*
X884Y557D02*
X1192Y557D01*
X130Y556D02*
X215Y556D01*
X257Y556D02*
X308Y556D01*
X385Y556D02*
X408Y556D01*
X484Y556D02*
X508Y556D01*
X585Y556D02*
X608Y556D01*
X684Y556D02*
X716Y556D01*
X794Y556D02*
X806Y556D01*
X883Y556D02*
X1192Y556D01*
X130Y555D02*
X216Y555D01*
X258Y555D02*
X309Y555D01*
X384Y555D02*
X409Y555D01*
X483Y555D02*
X509Y555D01*
X584Y555D02*
X609Y555D01*
X683Y555D02*
X717Y555D01*
X793Y555D02*
X806Y555D01*
X882Y555D02*
X1192Y555D01*
X130Y554D02*
X217Y554D01*
X259Y554D02*
X309Y554D01*
X384Y554D02*
X410Y554D01*
X482Y554D02*
X509Y554D01*
X583Y554D02*
X609Y554D01*
X682Y554D02*
X718Y554D01*
X793Y554D02*
X807Y554D01*
X881Y554D02*
X1192Y554D01*
X130Y553D02*
X218Y553D01*
X260Y553D02*
X310Y553D01*
X383Y553D02*
X410Y553D01*
X482Y553D02*
X510Y553D01*
X583Y553D02*
X610Y553D01*
X682Y553D02*
X719Y553D01*
X792Y553D02*
X808Y553D01*
X880Y553D02*
X1192Y553D01*
X130Y552D02*
X219Y552D01*
X260Y552D02*
X311Y552D01*
X382Y552D02*
X411Y552D01*
X481Y552D02*
X511Y552D01*
X582Y552D02*
X611Y552D01*
X681Y552D02*
X720Y552D01*
X791Y552D02*
X809Y552D01*
X880Y552D02*
X1192Y552D01*
X130Y551D02*
X219Y551D01*
X261Y551D02*
X312Y551D01*
X381Y551D02*
X412Y551D01*
X480Y551D02*
X512Y551D01*
X581Y551D02*
X612Y551D01*
X680Y551D02*
X720Y551D01*
X790Y551D02*
X810Y551D01*
X879Y551D02*
X1192Y551D01*
X130Y550D02*
X220Y550D01*
X262Y550D02*
X313Y550D01*
X380Y550D02*
X413Y550D01*
X479Y550D02*
X513Y550D01*
X580Y550D02*
X613Y550D01*
X679Y550D02*
X721Y550D01*
X789Y550D02*
X811Y550D01*
X878Y550D02*
X1192Y550D01*
X129Y549D02*
X221Y549D01*
X263Y549D02*
X314Y549D01*
X379Y549D02*
X414Y549D01*
X478Y549D02*
X514Y549D01*
X579Y549D02*
X614Y549D01*
X678Y549D02*
X723Y549D01*
X788Y549D02*
X812Y549D01*
X877Y549D02*
X1192Y549D01*
X129Y548D02*
X222Y548D01*
X264Y548D02*
X315Y548D01*
X378Y548D02*
X416Y548D01*
X476Y548D02*
X515Y548D01*
X577Y548D02*
X615Y548D01*
X676Y548D02*
X724Y548D01*
X787Y548D02*
X813Y548D01*
X875Y548D02*
X1192Y548D01*
X129Y547D02*
X223Y547D01*
X264Y547D02*
X317Y547D01*
X376Y547D02*
X417Y547D01*
X475Y547D02*
X517Y547D01*
X576Y547D02*
X617Y547D01*
X675Y547D02*
X725Y547D01*
X786Y547D02*
X814Y547D01*
X874Y547D02*
X1192Y547D01*
X129Y546D02*
X188Y546D01*
X200Y546D02*
X223Y546D01*
X265Y546D02*
X318Y546D01*
X375Y546D02*
X418Y546D01*
X474Y546D02*
X518Y546D01*
X575Y546D02*
X618Y546D01*
X674Y546D02*
X726Y546D01*
X784Y546D02*
X816Y546D01*
X873Y546D02*
X1192Y546D01*
X129Y545D02*
X183Y545D01*
X206Y545D02*
X224Y545D01*
X266Y545D02*
X319Y545D01*
X374Y545D02*
X419Y545D01*
X472Y545D02*
X519Y545D01*
X574Y545D02*
X619Y545D01*
X672Y545D02*
X728Y545D01*
X783Y545D02*
X817Y545D01*
X872Y545D02*
X1192Y545D01*
X129Y544D02*
X179Y544D01*
X209Y544D02*
X225Y544D01*
X267Y544D02*
X321Y544D01*
X372Y544D02*
X421Y544D01*
X471Y544D02*
X521Y544D01*
X572Y544D02*
X621Y544D01*
X671Y544D02*
X729Y544D01*
X782Y544D02*
X818Y544D01*
X870Y544D02*
X1192Y544D01*
X128Y543D02*
X176Y543D01*
X212Y543D02*
X226Y543D01*
X268Y543D02*
X323Y543D01*
X370Y543D02*
X423Y543D01*
X469Y543D02*
X523Y543D01*
X570Y543D02*
X623Y543D01*
X669Y543D02*
X731Y543D01*
X780Y543D02*
X820Y543D01*
X868Y543D02*
X1192Y543D01*
X128Y542D02*
X174Y542D01*
X214Y542D02*
X227Y542D01*
X268Y542D02*
X325Y542D01*
X369Y542D02*
X425Y542D01*
X467Y542D02*
X525Y542D01*
X568Y542D02*
X625Y542D01*
X667Y542D02*
X733Y542D01*
X778Y542D02*
X822Y542D01*
X866Y542D02*
X1192Y542D01*
X128Y541D02*
X172Y541D01*
X216Y541D02*
X227Y541D01*
X269Y541D02*
X326Y541D01*
X367Y541D02*
X427Y541D01*
X465Y541D02*
X527Y541D01*
X566Y541D02*
X627Y541D01*
X665Y541D02*
X735Y541D01*
X776Y541D02*
X824Y541D01*
X864Y541D02*
X955Y541D01*
X974Y541D02*
X1192Y541D01*
X128Y540D02*
X170Y540D01*
X218Y540D02*
X228Y540D01*
X270Y540D02*
X329Y540D01*
X364Y540D02*
X429Y540D01*
X464Y540D02*
X529Y540D01*
X564Y540D02*
X630Y540D01*
X662Y540D02*
X737Y540D01*
X774Y540D02*
X826Y540D01*
X862Y540D02*
X951Y540D01*
X977Y540D02*
X1192Y540D01*
X127Y539D02*
X169Y539D01*
X220Y539D02*
X229Y539D01*
X271Y539D02*
X332Y539D01*
X361Y539D02*
X430Y539D01*
X463Y539D02*
X532Y539D01*
X561Y539D02*
X633Y539D01*
X659Y539D02*
X740Y539D01*
X771Y539D02*
X830Y539D01*
X859Y539D02*
X948Y539D01*
X980Y539D02*
X1192Y539D01*
X127Y538D02*
X167Y538D01*
X222Y538D02*
X230Y538D01*
X272Y538D02*
X335Y538D01*
X358Y538D02*
X430Y538D01*
X463Y538D02*
X535Y538D01*
X558Y538D02*
X636Y538D01*
X656Y538D02*
X743Y538D01*
X768Y538D02*
X833Y538D01*
X856Y538D02*
X945Y538D01*
X983Y538D02*
X1192Y538D01*
X127Y537D02*
X166Y537D01*
X223Y537D02*
X231Y537D01*
X272Y537D02*
X341Y537D01*
X352Y537D02*
X430Y537D01*
X463Y537D02*
X541Y537D01*
X551Y537D02*
X645Y537D01*
X647Y537D02*
X747Y537D01*
X763Y537D02*
X838Y537D01*
X850Y537D02*
X943Y537D01*
X985Y537D02*
X1192Y537D01*
X126Y536D02*
X164Y536D01*
X224Y536D02*
X231Y536D01*
X273Y536D02*
X430Y536D01*
X463Y536D02*
X942Y536D01*
X987Y536D02*
X1192Y536D01*
X126Y535D02*
X163Y535D01*
X225Y535D02*
X232Y535D01*
X274Y535D02*
X430Y535D01*
X463Y535D02*
X940Y535D01*
X989Y535D02*
X1192Y535D01*
X125Y534D02*
X162Y534D01*
X227Y534D02*
X233Y534D01*
X275Y534D02*
X430Y534D01*
X463Y534D02*
X938Y534D01*
X991Y534D02*
X1192Y534D01*
X125Y533D02*
X161Y533D01*
X228Y533D02*
X234Y533D01*
X276Y533D02*
X430Y533D01*
X463Y533D02*
X936Y533D01*
X992Y533D02*
X1124Y533D01*
X1136Y533D02*
X1192Y533D01*
X124Y532D02*
X160Y532D01*
X229Y532D02*
X235Y532D01*
X276Y532D02*
X430Y532D01*
X463Y532D02*
X935Y532D01*
X994Y532D02*
X1118Y532D01*
X1141Y532D02*
X1192Y532D01*
X124Y531D02*
X159Y531D01*
X229Y531D02*
X235Y531D01*
X277Y531D02*
X430Y531D01*
X463Y531D02*
X934Y531D01*
X995Y531D02*
X1115Y531D01*
X1144Y531D02*
X1192Y531D01*
X123Y530D02*
X158Y530D01*
X230Y530D02*
X236Y530D01*
X278Y530D02*
X430Y530D01*
X463Y530D02*
X933Y530D01*
X996Y530D02*
X1112Y530D01*
X1147Y530D02*
X1192Y530D01*
X123Y529D02*
X157Y529D01*
X231Y529D02*
X237Y529D01*
X279Y529D02*
X430Y529D01*
X463Y529D02*
X931Y529D01*
X997Y529D02*
X1109Y529D01*
X1150Y529D02*
X1192Y529D01*
X122Y528D02*
X157Y528D01*
X232Y528D02*
X238Y528D01*
X280Y528D02*
X430Y528D01*
X463Y528D02*
X930Y528D01*
X998Y528D02*
X1107Y528D01*
X1152Y528D02*
X1192Y528D01*
X121Y527D02*
X156Y527D01*
X233Y527D02*
X239Y527D01*
X281Y527D02*
X430Y527D01*
X463Y527D02*
X929Y527D01*
X999Y527D02*
X1106Y527D01*
X1154Y527D02*
X1192Y527D01*
X121Y526D02*
X155Y526D01*
X233Y526D02*
X239Y526D01*
X281Y526D02*
X430Y526D01*
X463Y526D02*
X929Y526D01*
X1000Y526D02*
X1104Y526D01*
X1155Y526D02*
X1192Y526D01*
X120Y525D02*
X154Y525D01*
X234Y525D02*
X240Y525D01*
X282Y525D02*
X430Y525D01*
X463Y525D02*
X928Y525D01*
X1001Y525D02*
X1102Y525D01*
X1157Y525D02*
X1192Y525D01*
X119Y524D02*
X154Y524D01*
X235Y524D02*
X241Y524D01*
X283Y524D02*
X430Y524D01*
X463Y524D02*
X927Y524D01*
X1002Y524D02*
X1101Y524D01*
X1159Y524D02*
X1192Y524D01*
X45Y523D02*
X47Y523D01*
X118Y523D02*
X153Y523D01*
X235Y523D02*
X242Y523D01*
X284Y523D02*
X430Y523D01*
X463Y523D02*
X926Y523D01*
X1003Y523D02*
X1099Y523D01*
X1160Y523D02*
X1192Y523D01*
X44Y522D02*
X48Y522D01*
X117Y522D02*
X153Y522D01*
X236Y522D02*
X243Y522D01*
X285Y522D02*
X430Y522D01*
X463Y522D02*
X925Y522D01*
X1003Y522D02*
X1098Y522D01*
X1161Y522D02*
X1192Y522D01*
X44Y521D02*
X49Y521D01*
X116Y521D02*
X152Y521D01*
X236Y521D02*
X243Y521D01*
X285Y521D02*
X430Y521D01*
X463Y521D02*
X925Y521D01*
X1004Y521D02*
X1097Y521D01*
X1162Y521D02*
X1192Y521D01*
X44Y520D02*
X50Y520D01*
X115Y520D02*
X152Y520D01*
X237Y520D02*
X244Y520D01*
X286Y520D02*
X430Y520D01*
X463Y520D02*
X924Y520D01*
X1005Y520D02*
X1096Y520D01*
X1164Y520D02*
X1192Y520D01*
X44Y519D02*
X51Y519D01*
X114Y519D02*
X151Y519D01*
X237Y519D02*
X245Y519D01*
X287Y519D02*
X430Y519D01*
X463Y519D02*
X924Y519D01*
X1005Y519D02*
X1094Y519D01*
X1165Y519D02*
X1192Y519D01*
X44Y518D02*
X52Y518D01*
X113Y518D02*
X151Y518D01*
X238Y518D02*
X246Y518D01*
X288Y518D02*
X430Y518D01*
X463Y518D02*
X923Y518D01*
X1006Y518D02*
X1094Y518D01*
X1166Y518D02*
X1192Y518D01*
X44Y517D02*
X53Y517D01*
X112Y517D02*
X150Y517D01*
X238Y517D02*
X247Y517D01*
X289Y517D02*
X430Y517D01*
X463Y517D02*
X922Y517D01*
X1006Y517D02*
X1093Y517D01*
X1166Y517D02*
X1192Y517D01*
X44Y516D02*
X55Y516D01*
X110Y516D02*
X150Y516D01*
X238Y516D02*
X247Y516D01*
X289Y516D02*
X430Y516D01*
X463Y516D02*
X922Y516D01*
X1007Y516D02*
X1092Y516D01*
X1167Y516D02*
X1192Y516D01*
X44Y515D02*
X56Y515D01*
X109Y515D02*
X150Y515D01*
X239Y515D02*
X248Y515D01*
X290Y515D02*
X430Y515D01*
X463Y515D02*
X921Y515D01*
X1007Y515D02*
X1091Y515D01*
X1168Y515D02*
X1192Y515D01*
X44Y514D02*
X58Y514D01*
X107Y514D02*
X149Y514D01*
X239Y514D02*
X249Y514D01*
X463Y514D02*
X921Y514D01*
X1008Y514D02*
X1090Y514D01*
X1169Y514D02*
X1192Y514D01*
X44Y513D02*
X60Y513D01*
X105Y513D02*
X149Y513D01*
X239Y513D02*
X250Y513D01*
X463Y513D02*
X920Y513D01*
X1008Y513D02*
X1090Y513D01*
X1170Y513D02*
X1192Y513D01*
X44Y512D02*
X61Y512D01*
X103Y512D02*
X149Y512D01*
X240Y512D02*
X251Y512D01*
X463Y512D02*
X920Y512D01*
X1009Y512D02*
X1089Y512D01*
X1170Y512D02*
X1192Y512D01*
X44Y511D02*
X63Y511D01*
X102Y511D02*
X148Y511D01*
X240Y511D02*
X251Y511D01*
X463Y511D02*
X920Y511D01*
X1010Y511D02*
X1088Y511D01*
X1171Y511D02*
X1192Y511D01*
X44Y510D02*
X66Y510D01*
X99Y510D02*
X148Y510D01*
X240Y510D02*
X252Y510D01*
X463Y510D02*
X919Y510D01*
X1172Y510D02*
X1192Y510D01*
X44Y509D02*
X69Y509D01*
X96Y509D02*
X148Y509D01*
X241Y509D02*
X253Y509D01*
X463Y509D02*
X919Y509D01*
X1172Y509D02*
X1192Y509D01*
X44Y508D02*
X73Y508D01*
X92Y508D02*
X148Y508D01*
X241Y508D02*
X254Y508D01*
X463Y508D02*
X919Y508D01*
X1173Y508D02*
X1192Y508D01*
X44Y507D02*
X81Y507D01*
X83Y507D02*
X148Y507D01*
X241Y507D02*
X255Y507D01*
X463Y507D02*
X918Y507D01*
X1173Y507D02*
X1192Y507D01*
X44Y506D02*
X147Y506D01*
X241Y506D02*
X255Y506D01*
X463Y506D02*
X918Y506D01*
X1174Y506D02*
X1192Y506D01*
X44Y505D02*
X147Y505D01*
X241Y505D02*
X256Y505D01*
X463Y505D02*
X918Y505D01*
X1174Y505D02*
X1192Y505D01*
X44Y504D02*
X147Y504D01*
X241Y504D02*
X257Y504D01*
X463Y504D02*
X918Y504D01*
X1175Y504D02*
X1192Y504D01*
X44Y503D02*
X147Y503D01*
X241Y503D02*
X258Y503D01*
X463Y503D02*
X917Y503D01*
X1175Y503D02*
X1192Y503D01*
X44Y502D02*
X147Y502D01*
X241Y502D02*
X259Y502D01*
X464Y502D02*
X917Y502D01*
X1176Y502D02*
X1192Y502D01*
X44Y501D02*
X147Y501D01*
X242Y501D02*
X259Y501D01*
X464Y501D02*
X917Y501D01*
X1176Y501D02*
X1192Y501D01*
X44Y500D02*
X147Y500D01*
X242Y500D02*
X260Y500D01*
X464Y500D02*
X917Y500D01*
X1176Y500D02*
X1192Y500D01*
X44Y499D02*
X147Y499D01*
X242Y499D02*
X261Y499D01*
X464Y499D02*
X917Y499D01*
X1176Y499D02*
X1192Y499D01*
X44Y498D02*
X147Y498D01*
X242Y498D02*
X262Y498D01*
X464Y498D02*
X917Y498D01*
X1177Y498D02*
X1192Y498D01*
X44Y497D02*
X147Y497D01*
X241Y497D02*
X263Y497D01*
X463Y497D02*
X917Y497D01*
X1177Y497D02*
X1192Y497D01*
X44Y496D02*
X147Y496D01*
X241Y496D02*
X263Y496D01*
X463Y496D02*
X917Y496D01*
X1177Y496D02*
X1192Y496D01*
X44Y495D02*
X147Y495D01*
X241Y495D02*
X264Y495D01*
X463Y495D02*
X916Y495D01*
X1178Y495D02*
X1192Y495D01*
X44Y494D02*
X147Y494D01*
X241Y494D02*
X265Y494D01*
X463Y494D02*
X916Y494D01*
X1178Y494D02*
X1192Y494D01*
X44Y493D02*
X147Y493D01*
X241Y493D02*
X266Y493D01*
X463Y493D02*
X917Y493D01*
X1178Y493D02*
X1192Y493D01*
X44Y492D02*
X148Y492D01*
X241Y492D02*
X267Y492D01*
X462Y492D02*
X917Y492D01*
X1178Y492D02*
X1192Y492D01*
X44Y491D02*
X74Y491D01*
X91Y491D02*
X148Y491D01*
X241Y491D02*
X267Y491D01*
X462Y491D02*
X917Y491D01*
X1179Y491D02*
X1192Y491D01*
X44Y490D02*
X70Y490D01*
X95Y490D02*
X148Y490D01*
X241Y490D02*
X268Y490D01*
X461Y490D02*
X917Y490D01*
X1179Y490D02*
X1192Y490D01*
X44Y489D02*
X67Y489D01*
X98Y489D02*
X148Y489D01*
X240Y489D02*
X269Y489D01*
X461Y489D02*
X917Y489D01*
X1179Y489D02*
X1192Y489D01*
X44Y488D02*
X64Y488D01*
X101Y488D02*
X148Y488D01*
X240Y488D02*
X270Y488D01*
X460Y488D02*
X917Y488D01*
X1179Y488D02*
X1192Y488D01*
X44Y487D02*
X62Y487D01*
X103Y487D02*
X149Y487D01*
X240Y487D02*
X271Y487D01*
X459Y487D02*
X917Y487D01*
X1179Y487D02*
X1192Y487D01*
X44Y486D02*
X60Y486D01*
X105Y486D02*
X149Y486D01*
X239Y486D02*
X272Y486D01*
X458Y486D02*
X917Y486D01*
X1179Y486D02*
X1192Y486D01*
X44Y485D02*
X58Y485D01*
X107Y485D02*
X149Y485D01*
X239Y485D02*
X273Y485D01*
X457Y485D02*
X917Y485D01*
X1179Y485D02*
X1192Y485D01*
X44Y484D02*
X56Y484D01*
X109Y484D02*
X150Y484D01*
X239Y484D02*
X275Y484D01*
X455Y484D02*
X918Y484D01*
X1179Y484D02*
X1192Y484D01*
X44Y483D02*
X55Y483D01*
X110Y483D02*
X150Y483D01*
X238Y483D02*
X277Y483D01*
X453Y483D02*
X918Y483D01*
X1179Y483D02*
X1192Y483D01*
X44Y482D02*
X54Y482D01*
X111Y482D02*
X150Y482D01*
X238Y482D02*
X918Y482D01*
X1179Y482D02*
X1192Y482D01*
X44Y481D02*
X52Y481D01*
X113Y481D02*
X151Y481D01*
X238Y481D02*
X919Y481D01*
X1179Y481D02*
X1192Y481D01*
X44Y480D02*
X51Y480D01*
X114Y480D02*
X151Y480D01*
X237Y480D02*
X919Y480D01*
X1179Y480D02*
X1192Y480D01*
X44Y479D02*
X50Y479D01*
X115Y479D02*
X152Y479D01*
X237Y479D02*
X919Y479D01*
X1179Y479D02*
X1192Y479D01*
X44Y478D02*
X49Y478D01*
X116Y478D02*
X152Y478D01*
X236Y478D02*
X920Y478D01*
X1010Y478D02*
X1080Y478D01*
X1179Y478D02*
X1192Y478D01*
X44Y477D02*
X48Y477D01*
X117Y477D02*
X153Y477D01*
X236Y477D02*
X920Y477D01*
X1009Y477D02*
X1081Y477D01*
X1178Y477D02*
X1192Y477D01*
X45Y476D02*
X47Y476D01*
X118Y476D02*
X153Y476D01*
X235Y476D02*
X920Y476D01*
X1008Y476D02*
X1081Y476D01*
X1178Y476D02*
X1192Y476D01*
X119Y475D02*
X154Y475D01*
X234Y475D02*
X921Y475D01*
X1008Y475D02*
X1081Y475D01*
X1178Y475D02*
X1192Y475D01*
X120Y474D02*
X155Y474D01*
X234Y474D02*
X921Y474D01*
X1007Y474D02*
X1081Y474D01*
X1178Y474D02*
X1192Y474D01*
X120Y473D02*
X155Y473D01*
X233Y473D02*
X922Y473D01*
X1007Y473D02*
X1082Y473D01*
X1177Y473D02*
X1192Y473D01*
X121Y472D02*
X156Y472D01*
X232Y472D02*
X922Y472D01*
X1006Y472D02*
X1082Y472D01*
X1177Y472D02*
X1192Y472D01*
X122Y471D02*
X157Y471D01*
X232Y471D02*
X923Y471D01*
X1006Y471D02*
X1082Y471D01*
X1177Y471D02*
X1192Y471D01*
X122Y470D02*
X158Y470D01*
X231Y470D02*
X924Y470D01*
X1005Y470D02*
X1083Y470D01*
X1177Y470D02*
X1192Y470D01*
X123Y469D02*
X158Y469D01*
X230Y469D02*
X924Y469D01*
X1005Y469D02*
X1083Y469D01*
X1176Y469D02*
X1192Y469D01*
X124Y468D02*
X159Y468D01*
X229Y468D02*
X925Y468D01*
X1004Y468D02*
X1083Y468D01*
X1176Y468D02*
X1192Y468D01*
X124Y467D02*
X160Y467D01*
X228Y467D02*
X925Y467D01*
X1003Y467D02*
X1084Y467D01*
X1176Y467D02*
X1192Y467D01*
X125Y466D02*
X161Y466D01*
X227Y466D02*
X926Y466D01*
X1003Y466D02*
X1084Y466D01*
X1175Y466D02*
X1192Y466D01*
X125Y465D02*
X162Y465D01*
X226Y465D02*
X927Y465D01*
X1002Y465D02*
X1084Y465D01*
X1175Y465D02*
X1192Y465D01*
X126Y464D02*
X163Y464D01*
X225Y464D02*
X928Y464D01*
X1001Y464D02*
X1085Y464D01*
X1174Y464D02*
X1192Y464D01*
X126Y463D02*
X165Y463D01*
X224Y463D02*
X929Y463D01*
X1000Y463D02*
X1085Y463D01*
X1174Y463D02*
X1192Y463D01*
X126Y462D02*
X166Y462D01*
X222Y462D02*
X929Y462D01*
X999Y462D02*
X1086Y462D01*
X1173Y462D02*
X1192Y462D01*
X127Y461D02*
X167Y461D01*
X221Y461D02*
X930Y461D01*
X998Y461D02*
X1086Y461D01*
X1173Y461D02*
X1192Y461D01*
X127Y460D02*
X169Y460D01*
X220Y460D02*
X931Y460D01*
X997Y460D02*
X1087Y460D01*
X1172Y460D02*
X1192Y460D01*
X127Y459D02*
X171Y459D01*
X218Y459D02*
X933Y459D01*
X996Y459D02*
X1088Y459D01*
X1172Y459D02*
X1192Y459D01*
X128Y458D02*
X173Y458D01*
X216Y458D02*
X934Y458D01*
X995Y458D02*
X1088Y458D01*
X1171Y458D02*
X1192Y458D01*
X128Y457D02*
X175Y457D01*
X214Y457D02*
X935Y457D01*
X994Y457D02*
X1089Y457D01*
X1170Y457D02*
X1192Y457D01*
X128Y456D02*
X177Y456D01*
X211Y456D02*
X936Y456D01*
X992Y456D02*
X1089Y456D01*
X1170Y456D02*
X1192Y456D01*
X129Y455D02*
X180Y455D01*
X208Y455D02*
X938Y455D01*
X991Y455D02*
X1090Y455D01*
X1169Y455D02*
X1192Y455D01*
X129Y454D02*
X183Y454D01*
X205Y454D02*
X940Y454D01*
X989Y454D02*
X1091Y454D01*
X1168Y454D02*
X1192Y454D01*
X129Y453D02*
X190Y453D01*
X198Y453D02*
X942Y453D01*
X987Y453D02*
X1092Y453D01*
X1167Y453D02*
X1192Y453D01*
X129Y452D02*
X943Y452D01*
X985Y452D02*
X1093Y452D01*
X1167Y452D02*
X1192Y452D01*
X129Y451D02*
X945Y451D01*
X983Y451D02*
X1093Y451D01*
X1166Y451D02*
X1192Y451D01*
X129Y450D02*
X948Y450D01*
X980Y450D02*
X1094Y450D01*
X1165Y450D02*
X1192Y450D01*
X130Y449D02*
X951Y449D01*
X977Y449D02*
X1095Y449D01*
X1164Y449D02*
X1192Y449D01*
X130Y448D02*
X955Y448D01*
X974Y448D02*
X1097Y448D01*
X1163Y448D02*
X1192Y448D01*
X130Y447D02*
X1098Y447D01*
X1161Y447D02*
X1192Y447D01*
X130Y446D02*
X1099Y446D01*
X1160Y446D02*
X1192Y446D01*
X130Y445D02*
X1100Y445D01*
X1159Y445D02*
X1192Y445D01*
X130Y444D02*
X1102Y444D01*
X1158Y444D02*
X1192Y444D01*
X130Y443D02*
X1103Y443D01*
X1156Y443D02*
X1192Y443D01*
X130Y442D02*
X963Y442D01*
X966Y442D02*
X1105Y442D01*
X1154Y442D02*
X1192Y442D01*
X130Y441D02*
X955Y441D01*
X974Y441D02*
X1107Y441D01*
X1152Y441D02*
X1192Y441D01*
X129Y440D02*
X951Y440D01*
X977Y440D02*
X1109Y440D01*
X1150Y440D02*
X1192Y440D01*
X129Y439D02*
X948Y439D01*
X981Y439D02*
X1112Y439D01*
X1148Y439D02*
X1192Y439D01*
X129Y438D02*
X945Y438D01*
X983Y438D02*
X1115Y438D01*
X1145Y438D02*
X1192Y438D01*
X129Y437D02*
X188Y437D01*
X200Y437D02*
X943Y437D01*
X985Y437D02*
X1118Y437D01*
X1141Y437D02*
X1192Y437D01*
X129Y436D02*
X183Y436D01*
X206Y436D02*
X941Y436D01*
X987Y436D02*
X1119Y436D01*
X1140Y436D02*
X1192Y436D01*
X129Y435D02*
X179Y435D01*
X209Y435D02*
X940Y435D01*
X989Y435D02*
X1120Y435D01*
X1139Y435D02*
X1192Y435D01*
X128Y434D02*
X176Y434D01*
X212Y434D02*
X938Y434D01*
X991Y434D02*
X1120Y434D01*
X1139Y434D02*
X1192Y434D01*
X128Y433D02*
X174Y433D01*
X214Y433D02*
X936Y433D01*
X992Y433D02*
X1119Y433D01*
X1140Y433D02*
X1192Y433D01*
X128Y432D02*
X172Y432D01*
X216Y432D02*
X935Y432D01*
X994Y432D02*
X1118Y432D01*
X1141Y432D02*
X1192Y432D01*
X128Y431D02*
X170Y431D01*
X218Y431D02*
X934Y431D01*
X995Y431D02*
X1115Y431D01*
X1144Y431D02*
X1192Y431D01*
X127Y430D02*
X169Y430D01*
X220Y430D02*
X933Y430D01*
X996Y430D02*
X1112Y430D01*
X1147Y430D02*
X1192Y430D01*
X127Y429D02*
X167Y429D01*
X222Y429D02*
X931Y429D01*
X997Y429D02*
X1109Y429D01*
X1150Y429D02*
X1192Y429D01*
X32Y428D02*
X38Y428D01*
X127Y428D02*
X166Y428D01*
X223Y428D02*
X930Y428D01*
X999Y428D02*
X1107Y428D01*
X1152Y428D02*
X1192Y428D01*
X31Y427D02*
X39Y427D01*
X126Y427D02*
X164Y427D01*
X224Y427D02*
X929Y427D01*
X999Y427D02*
X1106Y427D01*
X1154Y427D02*
X1192Y427D01*
X31Y426D02*
X39Y426D01*
X126Y426D02*
X163Y426D01*
X225Y426D02*
X929Y426D01*
X1000Y426D02*
X1104Y426D01*
X1156Y426D02*
X1192Y426D01*
X31Y425D02*
X40Y425D01*
X125Y425D02*
X162Y425D01*
X227Y425D02*
X928Y425D01*
X1001Y425D02*
X1102Y425D01*
X1157Y425D02*
X1192Y425D01*
X31Y424D02*
X40Y424D01*
X125Y424D02*
X161Y424D01*
X228Y424D02*
X927Y424D01*
X1002Y424D02*
X1101Y424D01*
X1159Y424D02*
X1192Y424D01*
X31Y423D02*
X41Y423D01*
X124Y423D02*
X160Y423D01*
X229Y423D02*
X926Y423D01*
X1003Y423D02*
X1099Y423D01*
X1160Y423D02*
X1192Y423D01*
X31Y422D02*
X41Y422D01*
X124Y422D02*
X159Y422D01*
X229Y422D02*
X925Y422D01*
X1003Y422D02*
X1098Y422D01*
X1161Y422D02*
X1192Y422D01*
X31Y421D02*
X42Y421D01*
X123Y421D02*
X158Y421D01*
X230Y421D02*
X925Y421D01*
X1004Y421D02*
X1097Y421D01*
X1162Y421D02*
X1192Y421D01*
X31Y420D02*
X42Y420D01*
X123Y420D02*
X157Y420D01*
X231Y420D02*
X924Y420D01*
X1005Y420D02*
X1096Y420D01*
X1164Y420D02*
X1192Y420D01*
X31Y419D02*
X43Y419D01*
X122Y419D02*
X157Y419D01*
X232Y419D02*
X923Y419D01*
X1005Y419D02*
X1094Y419D01*
X1165Y419D02*
X1192Y419D01*
X31Y418D02*
X44Y418D01*
X121Y418D02*
X156Y418D01*
X233Y418D02*
X923Y418D01*
X1006Y418D02*
X1094Y418D01*
X1166Y418D02*
X1192Y418D01*
X31Y417D02*
X44Y417D01*
X121Y417D02*
X155Y417D01*
X233Y417D02*
X922Y417D01*
X1006Y417D02*
X1093Y417D01*
X1166Y417D02*
X1192Y417D01*
X31Y416D02*
X45Y416D01*
X120Y416D02*
X154Y416D01*
X234Y416D02*
X922Y416D01*
X1007Y416D02*
X1092Y416D01*
X1167Y416D02*
X1192Y416D01*
X31Y415D02*
X46Y415D01*
X119Y415D02*
X154Y415D01*
X235Y415D02*
X921Y415D01*
X1007Y415D02*
X1091Y415D01*
X1168Y415D02*
X1192Y415D01*
X31Y414D02*
X47Y414D01*
X118Y414D02*
X153Y414D01*
X235Y414D02*
X921Y414D01*
X1008Y414D02*
X1090Y414D01*
X1169Y414D02*
X1192Y414D01*
X31Y413D02*
X48Y413D01*
X117Y413D02*
X153Y413D01*
X236Y413D02*
X920Y413D01*
X1008Y413D02*
X1090Y413D01*
X1170Y413D02*
X1192Y413D01*
X31Y412D02*
X49Y412D01*
X116Y412D02*
X152Y412D01*
X236Y412D02*
X920Y412D01*
X1009Y412D02*
X1089Y412D01*
X1170Y412D02*
X1192Y412D01*
X31Y411D02*
X50Y411D01*
X115Y411D02*
X152Y411D01*
X237Y411D02*
X919Y411D01*
X1009Y411D02*
X1088Y411D01*
X1171Y411D02*
X1192Y411D01*
X31Y410D02*
X51Y410D01*
X114Y410D02*
X151Y410D01*
X237Y410D02*
X751Y410D01*
X1009Y410D02*
X1088Y410D01*
X1172Y410D02*
X1192Y410D01*
X31Y409D02*
X52Y409D01*
X113Y409D02*
X151Y409D01*
X238Y409D02*
X748Y409D01*
X1010Y409D02*
X1087Y409D01*
X1172Y409D02*
X1192Y409D01*
X31Y408D02*
X53Y408D01*
X112Y408D02*
X150Y408D01*
X238Y408D02*
X746Y408D01*
X1010Y408D02*
X1087Y408D01*
X1173Y408D02*
X1192Y408D01*
X31Y407D02*
X55Y407D01*
X110Y407D02*
X150Y407D01*
X239Y407D02*
X745Y407D01*
X1010Y407D02*
X1086Y407D01*
X1173Y407D02*
X1192Y407D01*
X31Y406D02*
X56Y406D01*
X109Y406D02*
X150Y406D01*
X701Y406D02*
X744Y406D01*
X1011Y406D02*
X1085Y406D01*
X1174Y406D02*
X1192Y406D01*
X31Y405D02*
X58Y405D01*
X107Y405D02*
X149Y405D01*
X704Y405D02*
X743Y405D01*
X1011Y405D02*
X1085Y405D01*
X1174Y405D02*
X1192Y405D01*
X31Y404D02*
X60Y404D01*
X105Y404D02*
X149Y404D01*
X706Y404D02*
X742Y404D01*
X1011Y404D02*
X1084Y404D01*
X1175Y404D02*
X1192Y404D01*
X31Y403D02*
X61Y403D01*
X103Y403D02*
X149Y403D01*
X707Y403D02*
X741Y403D01*
X1011Y403D02*
X1084Y403D01*
X1175Y403D02*
X1192Y403D01*
X31Y402D02*
X63Y402D01*
X102Y402D02*
X148Y402D01*
X708Y402D02*
X741Y402D01*
X1012Y402D02*
X1084Y402D01*
X1176Y402D02*
X1192Y402D01*
X31Y401D02*
X66Y401D01*
X99Y401D02*
X148Y401D01*
X709Y401D02*
X740Y401D01*
X1012Y401D02*
X1083Y401D01*
X1176Y401D02*
X1192Y401D01*
X31Y400D02*
X69Y400D01*
X96Y400D02*
X148Y400D01*
X710Y400D02*
X740Y400D01*
X1012Y400D02*
X1083Y400D01*
X1176Y400D02*
X1192Y400D01*
X31Y399D02*
X73Y399D01*
X92Y399D02*
X148Y399D01*
X711Y399D02*
X740Y399D01*
X1012Y399D02*
X1083Y399D01*
X1176Y399D02*
X1192Y399D01*
X31Y398D02*
X81Y398D01*
X83Y398D02*
X148Y398D01*
X711Y398D02*
X739Y398D01*
X1012Y398D02*
X1082Y398D01*
X1177Y398D02*
X1192Y398D01*
X31Y397D02*
X147Y397D01*
X712Y397D02*
X739Y397D01*
X1012Y397D02*
X1082Y397D01*
X1177Y397D02*
X1192Y397D01*
X31Y396D02*
X147Y396D01*
X712Y396D02*
X739Y396D01*
X1012Y396D02*
X1082Y396D01*
X1177Y396D02*
X1192Y396D01*
X31Y395D02*
X147Y395D01*
X712Y395D02*
X739Y395D01*
X1012Y395D02*
X1081Y395D01*
X1178Y395D02*
X1192Y395D01*
X31Y394D02*
X147Y394D01*
X713Y394D02*
X739Y394D01*
X1012Y394D02*
X1081Y394D01*
X1178Y394D02*
X1192Y394D01*
X31Y393D02*
X147Y393D01*
X713Y393D02*
X739Y393D01*
X1012Y393D02*
X1081Y393D01*
X1178Y393D02*
X1192Y393D01*
X31Y392D02*
X147Y392D01*
X713Y392D02*
X739Y392D01*
X1012Y392D02*
X1081Y392D01*
X1178Y392D02*
X1192Y392D01*
X31Y391D02*
X147Y391D01*
X713Y391D02*
X739Y391D01*
X1012Y391D02*
X1081Y391D01*
X1179Y391D02*
X1192Y391D01*
X31Y390D02*
X147Y390D01*
X713Y390D02*
X739Y390D01*
X1012Y390D02*
X1081Y390D01*
X1179Y390D02*
X1192Y390D01*
X31Y389D02*
X147Y389D01*
X713Y389D02*
X739Y389D01*
X1012Y389D02*
X1080Y389D01*
X1179Y389D02*
X1192Y389D01*
X31Y388D02*
X147Y388D01*
X713Y388D02*
X739Y388D01*
X1012Y388D02*
X1080Y388D01*
X1179Y388D02*
X1192Y388D01*
X31Y387D02*
X147Y387D01*
X713Y387D02*
X739Y387D01*
X1012Y387D02*
X1080Y387D01*
X1179Y387D02*
X1192Y387D01*
X31Y386D02*
X147Y386D01*
X713Y386D02*
X739Y386D01*
X1011Y386D02*
X1080Y386D01*
X1179Y386D02*
X1192Y386D01*
X31Y385D02*
X147Y385D01*
X713Y385D02*
X739Y385D01*
X1011Y385D02*
X1080Y385D01*
X1179Y385D02*
X1192Y385D01*
X31Y384D02*
X147Y384D01*
X713Y384D02*
X739Y384D01*
X1011Y384D02*
X1080Y384D01*
X1179Y384D02*
X1192Y384D01*
X31Y383D02*
X80Y383D01*
X86Y383D02*
X148Y383D01*
X713Y383D02*
X739Y383D01*
X1011Y383D02*
X1080Y383D01*
X1179Y383D02*
X1192Y383D01*
X31Y382D02*
X72Y382D01*
X93Y382D02*
X148Y382D01*
X713Y382D02*
X739Y382D01*
X1010Y382D02*
X1080Y382D01*
X1179Y382D02*
X1192Y382D01*
X31Y381D02*
X69Y381D01*
X96Y381D02*
X148Y381D01*
X713Y381D02*
X739Y381D01*
X1010Y381D02*
X1080Y381D01*
X1179Y381D02*
X1192Y381D01*
X31Y380D02*
X65Y380D01*
X100Y380D02*
X148Y380D01*
X713Y380D02*
X739Y380D01*
X1010Y380D02*
X1080Y380D01*
X1179Y380D02*
X1192Y380D01*
X31Y379D02*
X63Y379D01*
X102Y379D02*
X148Y379D01*
X713Y379D02*
X739Y379D01*
X1009Y379D02*
X1081Y379D01*
X1179Y379D02*
X1192Y379D01*
X31Y378D02*
X61Y378D01*
X104Y378D02*
X149Y378D01*
X713Y378D02*
X739Y378D01*
X773Y378D02*
X919Y378D01*
X1009Y378D02*
X1081Y378D01*
X1179Y378D02*
X1192Y378D01*
X31Y377D02*
X59Y377D01*
X106Y377D02*
X149Y377D01*
X713Y377D02*
X739Y377D01*
X772Y377D02*
X920Y377D01*
X1009Y377D02*
X1081Y377D01*
X1178Y377D02*
X1192Y377D01*
X31Y376D02*
X57Y376D01*
X108Y376D02*
X149Y376D01*
X713Y376D02*
X739Y376D01*
X772Y376D02*
X920Y376D01*
X1008Y376D02*
X1081Y376D01*
X1178Y376D02*
X1192Y376D01*
X31Y375D02*
X56Y375D01*
X109Y375D02*
X150Y375D01*
X713Y375D02*
X739Y375D01*
X772Y375D02*
X921Y375D01*
X1008Y375D02*
X1081Y375D01*
X1178Y375D02*
X1192Y375D01*
X31Y374D02*
X54Y374D01*
X111Y374D02*
X150Y374D01*
X239Y374D02*
X679Y374D01*
X713Y374D02*
X739Y374D01*
X772Y374D02*
X921Y374D01*
X1007Y374D02*
X1081Y374D01*
X1178Y374D02*
X1192Y374D01*
X31Y373D02*
X53Y373D01*
X112Y373D02*
X150Y373D01*
X238Y373D02*
X680Y373D01*
X713Y373D02*
X739Y373D01*
X772Y373D02*
X922Y373D01*
X1007Y373D02*
X1082Y373D01*
X1177Y373D02*
X1192Y373D01*
X31Y372D02*
X52Y372D01*
X113Y372D02*
X151Y372D01*
X238Y372D02*
X680Y372D01*
X713Y372D02*
X739Y372D01*
X772Y372D02*
X922Y372D01*
X1006Y372D02*
X1082Y372D01*
X1177Y372D02*
X1192Y372D01*
X31Y371D02*
X51Y371D01*
X114Y371D02*
X151Y371D01*
X237Y371D02*
X680Y371D01*
X713Y371D02*
X739Y371D01*
X772Y371D02*
X923Y371D01*
X1006Y371D02*
X1082Y371D01*
X1177Y371D02*
X1192Y371D01*
X31Y370D02*
X49Y370D01*
X116Y370D02*
X152Y370D01*
X237Y370D02*
X680Y370D01*
X713Y370D02*
X739Y370D01*
X772Y370D02*
X924Y370D01*
X1005Y370D02*
X1083Y370D01*
X1177Y370D02*
X1192Y370D01*
X31Y369D02*
X48Y369D01*
X117Y369D02*
X152Y369D01*
X236Y369D02*
X680Y369D01*
X713Y369D02*
X739Y369D01*
X772Y369D02*
X924Y369D01*
X1005Y369D02*
X1083Y369D01*
X1176Y369D02*
X1192Y369D01*
X31Y368D02*
X48Y368D01*
X117Y368D02*
X153Y368D01*
X236Y368D02*
X680Y368D01*
X713Y368D02*
X739Y368D01*
X772Y368D02*
X925Y368D01*
X1004Y368D02*
X1083Y368D01*
X1176Y368D02*
X1192Y368D01*
X31Y367D02*
X47Y367D01*
X118Y367D02*
X153Y367D01*
X235Y367D02*
X680Y367D01*
X713Y367D02*
X739Y367D01*
X772Y367D02*
X925Y367D01*
X1003Y367D02*
X1084Y367D01*
X1176Y367D02*
X1192Y367D01*
X31Y366D02*
X46Y366D01*
X119Y366D02*
X154Y366D01*
X234Y366D02*
X680Y366D01*
X713Y366D02*
X739Y366D01*
X772Y366D02*
X926Y366D01*
X1003Y366D02*
X1084Y366D01*
X1175Y366D02*
X1192Y366D01*
X31Y365D02*
X45Y365D01*
X120Y365D02*
X155Y365D01*
X234Y365D02*
X680Y365D01*
X713Y365D02*
X739Y365D01*
X772Y365D02*
X927Y365D01*
X1002Y365D02*
X1084Y365D01*
X1175Y365D02*
X1192Y365D01*
X31Y364D02*
X44Y364D01*
X121Y364D02*
X155Y364D01*
X233Y364D02*
X680Y364D01*
X713Y364D02*
X739Y364D01*
X772Y364D02*
X928Y364D01*
X1001Y364D02*
X1085Y364D01*
X1174Y364D02*
X1192Y364D01*
X31Y363D02*
X43Y363D01*
X121Y363D02*
X156Y363D01*
X232Y363D02*
X680Y363D01*
X713Y363D02*
X739Y363D01*
X772Y363D02*
X929Y363D01*
X1000Y363D02*
X1085Y363D01*
X1174Y363D02*
X1192Y363D01*
X31Y362D02*
X43Y362D01*
X122Y362D02*
X157Y362D01*
X232Y362D02*
X680Y362D01*
X713Y362D02*
X739Y362D01*
X772Y362D02*
X929Y362D01*
X999Y362D02*
X1086Y362D01*
X1173Y362D02*
X1192Y362D01*
X31Y361D02*
X42Y361D01*
X123Y361D02*
X158Y361D01*
X231Y361D02*
X680Y361D01*
X713Y361D02*
X739Y361D01*
X772Y361D02*
X930Y361D01*
X998Y361D02*
X1086Y361D01*
X1173Y361D02*
X1192Y361D01*
X31Y360D02*
X42Y360D01*
X123Y360D02*
X158Y360D01*
X230Y360D02*
X680Y360D01*
X713Y360D02*
X739Y360D01*
X772Y360D02*
X931Y360D01*
X997Y360D02*
X1087Y360D01*
X1172Y360D02*
X1192Y360D01*
X31Y359D02*
X41Y359D01*
X124Y359D02*
X159Y359D01*
X229Y359D02*
X680Y359D01*
X713Y359D02*
X739Y359D01*
X772Y359D02*
X933Y359D01*
X996Y359D02*
X1088Y359D01*
X1172Y359D02*
X1192Y359D01*
X31Y358D02*
X41Y358D01*
X124Y358D02*
X160Y358D01*
X228Y358D02*
X680Y358D01*
X713Y358D02*
X739Y358D01*
X772Y358D02*
X934Y358D01*
X995Y358D02*
X1088Y358D01*
X1171Y358D02*
X1192Y358D01*
X31Y357D02*
X40Y357D01*
X125Y357D02*
X161Y357D01*
X227Y357D02*
X680Y357D01*
X713Y357D02*
X739Y357D01*
X772Y357D02*
X935Y357D01*
X994Y357D02*
X1089Y357D01*
X1170Y357D02*
X1192Y357D01*
X31Y356D02*
X40Y356D01*
X125Y356D02*
X162Y356D01*
X226Y356D02*
X680Y356D01*
X713Y356D02*
X739Y356D01*
X772Y356D02*
X936Y356D01*
X992Y356D02*
X1089Y356D01*
X1170Y356D02*
X1192Y356D01*
X31Y355D02*
X39Y355D01*
X126Y355D02*
X163Y355D01*
X225Y355D02*
X680Y355D01*
X713Y355D02*
X739Y355D01*
X772Y355D02*
X938Y355D01*
X991Y355D02*
X1090Y355D01*
X1169Y355D02*
X1192Y355D01*
X31Y354D02*
X39Y354D01*
X126Y354D02*
X165Y354D01*
X224Y354D02*
X680Y354D01*
X713Y354D02*
X739Y354D01*
X772Y354D02*
X940Y354D01*
X989Y354D02*
X1091Y354D01*
X1168Y354D02*
X1192Y354D01*
X31Y353D02*
X38Y353D01*
X127Y353D02*
X166Y353D01*
X223Y353D02*
X680Y353D01*
X713Y353D02*
X739Y353D01*
X772Y353D02*
X942Y353D01*
X987Y353D02*
X1092Y353D01*
X1167Y353D02*
X1192Y353D01*
X31Y352D02*
X38Y352D01*
X127Y352D02*
X167Y352D01*
X221Y352D02*
X680Y352D01*
X713Y352D02*
X739Y352D01*
X772Y352D02*
X944Y352D01*
X985Y352D02*
X1093Y352D01*
X1167Y352D02*
X1192Y352D01*
X31Y351D02*
X38Y351D01*
X127Y351D02*
X169Y351D01*
X220Y351D02*
X680Y351D01*
X713Y351D02*
X739Y351D01*
X772Y351D02*
X945Y351D01*
X983Y351D02*
X1093Y351D01*
X1166Y351D02*
X1192Y351D01*
X31Y350D02*
X37Y350D01*
X128Y350D02*
X171Y350D01*
X218Y350D02*
X680Y350D01*
X713Y350D02*
X739Y350D01*
X772Y350D02*
X948Y350D01*
X980Y350D02*
X1094Y350D01*
X1165Y350D02*
X1192Y350D01*
X31Y349D02*
X37Y349D01*
X128Y349D02*
X173Y349D01*
X216Y349D02*
X680Y349D01*
X713Y349D02*
X739Y349D01*
X772Y349D02*
X952Y349D01*
X977Y349D02*
X1095Y349D01*
X1164Y349D02*
X1192Y349D01*
X31Y348D02*
X37Y348D01*
X128Y348D02*
X175Y348D01*
X214Y348D02*
X680Y348D01*
X713Y348D02*
X739Y348D01*
X772Y348D02*
X955Y348D01*
X973Y348D02*
X1097Y348D01*
X1162Y348D02*
X1192Y348D01*
X31Y347D02*
X36Y347D01*
X129Y347D02*
X177Y347D01*
X211Y347D02*
X680Y347D01*
X713Y347D02*
X739Y347D01*
X772Y347D02*
X1098Y347D01*
X1161Y347D02*
X1192Y347D01*
X31Y346D02*
X36Y346D01*
X129Y346D02*
X180Y346D01*
X208Y346D02*
X680Y346D01*
X713Y346D02*
X739Y346D01*
X772Y346D02*
X1099Y346D01*
X1160Y346D02*
X1192Y346D01*
X31Y345D02*
X36Y345D01*
X129Y345D02*
X183Y345D01*
X205Y345D02*
X680Y345D01*
X713Y345D02*
X739Y345D01*
X772Y345D02*
X1100Y345D01*
X1159Y345D02*
X1192Y345D01*
X31Y344D02*
X36Y344D01*
X129Y344D02*
X190Y344D01*
X198Y344D02*
X680Y344D01*
X713Y344D02*
X739Y344D01*
X772Y344D02*
X1102Y344D01*
X1157Y344D02*
X1192Y344D01*
X31Y343D02*
X36Y343D01*
X129Y343D02*
X680Y343D01*
X713Y343D02*
X739Y343D01*
X772Y343D02*
X1104Y343D01*
X1156Y343D02*
X1192Y343D01*
X31Y342D02*
X36Y342D01*
X129Y342D02*
X680Y342D01*
X713Y342D02*
X739Y342D01*
X772Y342D02*
X963Y342D01*
X966Y342D02*
X1105Y342D01*
X1154Y342D02*
X1192Y342D01*
X31Y341D02*
X35Y341D01*
X129Y341D02*
X680Y341D01*
X713Y341D02*
X739Y341D01*
X772Y341D02*
X954Y341D01*
X974Y341D02*
X1107Y341D01*
X1152Y341D02*
X1192Y341D01*
X31Y340D02*
X35Y340D01*
X130Y340D02*
X680Y340D01*
X713Y340D02*
X739Y340D01*
X772Y340D02*
X951Y340D01*
X978Y340D02*
X1109Y340D01*
X1150Y340D02*
X1192Y340D01*
X31Y339D02*
X35Y339D01*
X130Y339D02*
X680Y339D01*
X713Y339D02*
X739Y339D01*
X772Y339D02*
X948Y339D01*
X981Y339D02*
X1112Y339D01*
X1147Y339D02*
X1192Y339D01*
X31Y338D02*
X35Y338D01*
X130Y338D02*
X680Y338D01*
X713Y338D02*
X739Y338D01*
X772Y338D02*
X945Y338D01*
X984Y338D02*
X1114Y338D01*
X1145Y338D02*
X1192Y338D01*
X31Y337D02*
X35Y337D01*
X130Y337D02*
X680Y337D01*
X713Y337D02*
X739Y337D01*
X772Y337D02*
X943Y337D01*
X985Y337D02*
X1115Y337D01*
X1144Y337D02*
X1192Y337D01*
X31Y336D02*
X35Y336D01*
X130Y336D02*
X680Y336D01*
X713Y336D02*
X739Y336D01*
X772Y336D02*
X941Y336D01*
X987Y336D02*
X1115Y336D01*
X1144Y336D02*
X1192Y336D01*
X31Y335D02*
X35Y335D01*
X130Y335D02*
X680Y335D01*
X713Y335D02*
X739Y335D01*
X772Y335D02*
X939Y335D01*
X989Y335D02*
X1115Y335D01*
X1144Y335D02*
X1192Y335D01*
X31Y334D02*
X35Y334D01*
X130Y334D02*
X680Y334D01*
X713Y334D02*
X739Y334D01*
X772Y334D02*
X938Y334D01*
X991Y334D02*
X1114Y334D01*
X1145Y334D02*
X1192Y334D01*
X31Y333D02*
X35Y333D01*
X130Y333D02*
X680Y333D01*
X713Y333D02*
X739Y333D01*
X772Y333D02*
X936Y333D01*
X993Y333D02*
X1087Y333D01*
X1172Y333D02*
X1192Y333D01*
X31Y332D02*
X35Y332D01*
X130Y332D02*
X680Y332D01*
X713Y332D02*
X739Y332D01*
X772Y332D02*
X935Y332D01*
X994Y332D02*
X1085Y332D01*
X1174Y332D02*
X1192Y332D01*
X31Y331D02*
X36Y331D01*
X129Y331D02*
X445Y331D01*
X447Y331D02*
X645Y331D01*
X647Y331D02*
X680Y331D01*
X713Y331D02*
X739Y331D01*
X772Y331D02*
X934Y331D01*
X995Y331D02*
X1084Y331D01*
X1176Y331D02*
X1192Y331D01*
X31Y330D02*
X36Y330D01*
X129Y330D02*
X436Y330D01*
X456Y330D02*
X636Y330D01*
X656Y330D02*
X680Y330D01*
X713Y330D02*
X739Y330D01*
X772Y330D02*
X933Y330D01*
X996Y330D02*
X1083Y330D01*
X1177Y330D02*
X1192Y330D01*
X31Y329D02*
X36Y329D01*
X129Y329D02*
X433Y329D01*
X459Y329D02*
X633Y329D01*
X659Y329D02*
X680Y329D01*
X713Y329D02*
X739Y329D01*
X772Y329D02*
X931Y329D01*
X998Y329D02*
X1082Y329D01*
X1177Y329D02*
X1192Y329D01*
X31Y328D02*
X36Y328D01*
X129Y328D02*
X188Y328D01*
X200Y328D02*
X430Y328D01*
X462Y328D02*
X630Y328D01*
X662Y328D02*
X680Y328D01*
X713Y328D02*
X739Y328D01*
X772Y328D02*
X930Y328D01*
X999Y328D02*
X1081Y328D01*
X1178Y328D02*
X1192Y328D01*
X31Y327D02*
X36Y327D01*
X129Y327D02*
X183Y327D01*
X206Y327D02*
X427Y327D01*
X465Y327D02*
X627Y327D01*
X665Y327D02*
X680Y327D01*
X713Y327D02*
X739Y327D01*
X772Y327D02*
X929Y327D01*
X999Y327D02*
X1081Y327D01*
X1178Y327D02*
X1192Y327D01*
X31Y326D02*
X36Y326D01*
X129Y326D02*
X179Y326D01*
X209Y326D02*
X425Y326D01*
X467Y326D02*
X625Y326D01*
X667Y326D02*
X680Y326D01*
X713Y326D02*
X739Y326D01*
X772Y326D02*
X928Y326D01*
X1000Y326D02*
X1081Y326D01*
X1179Y326D02*
X1192Y326D01*
X31Y325D02*
X37Y325D01*
X128Y325D02*
X176Y325D01*
X212Y325D02*
X423Y325D01*
X469Y325D02*
X623Y325D01*
X669Y325D02*
X680Y325D01*
X713Y325D02*
X739Y325D01*
X772Y325D02*
X928Y325D01*
X1001Y325D02*
X1080Y325D01*
X1179Y325D02*
X1192Y325D01*
X31Y324D02*
X37Y324D01*
X128Y324D02*
X174Y324D01*
X214Y324D02*
X421Y324D01*
X471Y324D02*
X621Y324D01*
X671Y324D02*
X680Y324D01*
X713Y324D02*
X739Y324D01*
X772Y324D02*
X927Y324D01*
X1002Y324D02*
X1080Y324D01*
X1179Y324D02*
X1192Y324D01*
X31Y323D02*
X37Y323D01*
X128Y323D02*
X172Y323D01*
X216Y323D02*
X419Y323D01*
X473Y323D02*
X619Y323D01*
X673Y323D02*
X680Y323D01*
X713Y323D02*
X739Y323D01*
X772Y323D02*
X926Y323D01*
X1003Y323D02*
X1080Y323D01*
X1179Y323D02*
X1192Y323D01*
X31Y322D02*
X38Y322D01*
X127Y322D02*
X170Y322D01*
X218Y322D02*
X418Y322D01*
X474Y322D02*
X618Y322D01*
X674Y322D02*
X680Y322D01*
X713Y322D02*
X739Y322D01*
X772Y322D02*
X925Y322D01*
X1003Y322D02*
X1080Y322D01*
X1179Y322D02*
X1192Y322D01*
X31Y321D02*
X38Y321D01*
X127Y321D02*
X169Y321D01*
X220Y321D02*
X417Y321D01*
X475Y321D02*
X617Y321D01*
X675Y321D02*
X680Y321D01*
X713Y321D02*
X739Y321D01*
X772Y321D02*
X925Y321D01*
X1004Y321D02*
X1080Y321D01*
X1179Y321D02*
X1192Y321D01*
X31Y320D02*
X38Y320D01*
X127Y320D02*
X167Y320D01*
X222Y320D02*
X416Y320D01*
X476Y320D02*
X615Y320D01*
X676Y320D02*
X680Y320D01*
X713Y320D02*
X739Y320D01*
X772Y320D02*
X924Y320D01*
X1005Y320D02*
X1080Y320D01*
X1179Y320D02*
X1192Y320D01*
X31Y319D02*
X39Y319D01*
X126Y319D02*
X166Y319D01*
X223Y319D02*
X414Y319D01*
X478Y319D02*
X614Y319D01*
X678Y319D02*
X678Y319D01*
X713Y319D02*
X739Y319D01*
X772Y319D02*
X923Y319D01*
X1005Y319D02*
X1080Y319D01*
X1179Y319D02*
X1192Y319D01*
X31Y318D02*
X39Y318D01*
X126Y318D02*
X164Y318D01*
X224Y318D02*
X413Y318D01*
X479Y318D02*
X613Y318D01*
X713Y318D02*
X739Y318D01*
X772Y318D02*
X923Y318D01*
X1006Y318D02*
X1080Y318D01*
X1179Y318D02*
X1192Y318D01*
X31Y317D02*
X39Y317D01*
X126Y317D02*
X163Y317D01*
X225Y317D02*
X412Y317D01*
X480Y317D02*
X612Y317D01*
X713Y317D02*
X739Y317D01*
X772Y317D02*
X922Y317D01*
X1006Y317D02*
X1080Y317D01*
X1179Y317D02*
X1192Y317D01*
X31Y316D02*
X40Y316D01*
X125Y316D02*
X162Y316D01*
X227Y316D02*
X411Y316D01*
X481Y316D02*
X611Y316D01*
X713Y316D02*
X739Y316D01*
X772Y316D02*
X922Y316D01*
X1007Y316D02*
X1080Y316D01*
X1179Y316D02*
X1192Y316D01*
X31Y315D02*
X40Y315D01*
X124Y315D02*
X161Y315D01*
X228Y315D02*
X410Y315D01*
X482Y315D02*
X610Y315D01*
X713Y315D02*
X739Y315D01*
X772Y315D02*
X921Y315D01*
X1007Y315D02*
X1080Y315D01*
X1179Y315D02*
X1192Y315D01*
X31Y314D02*
X41Y314D01*
X124Y314D02*
X160Y314D01*
X229Y314D02*
X410Y314D01*
X482Y314D02*
X609Y314D01*
X713Y314D02*
X739Y314D01*
X772Y314D02*
X921Y314D01*
X1008Y314D02*
X1080Y314D01*
X1179Y314D02*
X1192Y314D01*
X31Y313D02*
X42Y313D01*
X123Y313D02*
X159Y313D01*
X229Y313D02*
X409Y313D01*
X483Y313D02*
X609Y313D01*
X713Y313D02*
X739Y313D01*
X772Y313D02*
X920Y313D01*
X1008Y313D02*
X1080Y313D01*
X1179Y313D02*
X1192Y313D01*
X31Y312D02*
X42Y312D01*
X123Y312D02*
X158Y312D01*
X230Y312D02*
X408Y312D01*
X484Y312D02*
X608Y312D01*
X713Y312D02*
X739Y312D01*
X772Y312D02*
X920Y312D01*
X1009Y312D02*
X1080Y312D01*
X1179Y312D02*
X1192Y312D01*
X31Y311D02*
X43Y311D01*
X122Y311D02*
X157Y311D01*
X231Y311D02*
X407Y311D01*
X485Y311D02*
X607Y311D01*
X713Y311D02*
X739Y311D01*
X772Y311D02*
X920Y311D01*
X1009Y311D02*
X1080Y311D01*
X1179Y311D02*
X1192Y311D01*
X31Y310D02*
X43Y310D01*
X122Y310D02*
X157Y310D01*
X232Y310D02*
X406Y310D01*
X486Y310D02*
X606Y310D01*
X713Y310D02*
X739Y310D01*
X772Y310D02*
X919Y310D01*
X1009Y310D02*
X1080Y310D01*
X1179Y310D02*
X1192Y310D01*
X31Y309D02*
X44Y309D01*
X121Y309D02*
X156Y309D01*
X233Y309D02*
X406Y309D01*
X486Y309D02*
X606Y309D01*
X713Y309D02*
X739Y309D01*
X772Y309D02*
X919Y309D01*
X1010Y309D02*
X1080Y309D01*
X1179Y309D02*
X1192Y309D01*
X31Y308D02*
X45Y308D01*
X120Y308D02*
X155Y308D01*
X233Y308D02*
X405Y308D01*
X487Y308D02*
X605Y308D01*
X713Y308D02*
X739Y308D01*
X772Y308D02*
X919Y308D01*
X1010Y308D02*
X1080Y308D01*
X1179Y308D02*
X1192Y308D01*
X31Y307D02*
X46Y307D01*
X119Y307D02*
X154Y307D01*
X234Y307D02*
X405Y307D01*
X487Y307D02*
X605Y307D01*
X713Y307D02*
X739Y307D01*
X772Y307D02*
X918Y307D01*
X1010Y307D02*
X1080Y307D01*
X1179Y307D02*
X1192Y307D01*
X31Y306D02*
X46Y306D01*
X119Y306D02*
X154Y306D01*
X235Y306D02*
X404Y306D01*
X488Y306D02*
X604Y306D01*
X713Y306D02*
X739Y306D01*
X772Y306D02*
X918Y306D01*
X1011Y306D02*
X1080Y306D01*
X1179Y306D02*
X1192Y306D01*
X31Y305D02*
X47Y305D01*
X118Y305D02*
X153Y305D01*
X235Y305D02*
X404Y305D01*
X488Y305D02*
X604Y305D01*
X713Y305D02*
X739Y305D01*
X772Y305D02*
X918Y305D01*
X1011Y305D02*
X1080Y305D01*
X1179Y305D02*
X1192Y305D01*
X31Y304D02*
X48Y304D01*
X117Y304D02*
X153Y304D01*
X236Y304D02*
X403Y304D01*
X489Y304D02*
X603Y304D01*
X713Y304D02*
X739Y304D01*
X772Y304D02*
X917Y304D01*
X1011Y304D02*
X1080Y304D01*
X1179Y304D02*
X1192Y304D01*
X31Y303D02*
X49Y303D01*
X116Y303D02*
X152Y303D01*
X236Y303D02*
X403Y303D01*
X489Y303D02*
X603Y303D01*
X713Y303D02*
X739Y303D01*
X772Y303D02*
X917Y303D01*
X1011Y303D02*
X1080Y303D01*
X1179Y303D02*
X1192Y303D01*
X31Y302D02*
X50Y302D01*
X115Y302D02*
X152Y302D01*
X237Y302D02*
X402Y302D01*
X490Y302D02*
X602Y302D01*
X713Y302D02*
X739Y302D01*
X772Y302D02*
X917Y302D01*
X1012Y302D02*
X1080Y302D01*
X1179Y302D02*
X1192Y302D01*
X31Y301D02*
X51Y301D01*
X114Y301D02*
X151Y301D01*
X237Y301D02*
X402Y301D01*
X490Y301D02*
X602Y301D01*
X713Y301D02*
X739Y301D01*
X772Y301D02*
X917Y301D01*
X1012Y301D02*
X1080Y301D01*
X1179Y301D02*
X1192Y301D01*
X31Y300D02*
X53Y300D01*
X112Y300D02*
X151Y300D01*
X238Y300D02*
X402Y300D01*
X490Y300D02*
X601Y300D01*
X713Y300D02*
X739Y300D01*
X772Y300D02*
X917Y300D01*
X1012Y300D02*
X1080Y300D01*
X1179Y300D02*
X1192Y300D01*
X31Y299D02*
X54Y299D01*
X111Y299D02*
X150Y299D01*
X238Y299D02*
X401Y299D01*
X491Y299D02*
X601Y299D01*
X713Y299D02*
X739Y299D01*
X772Y299D02*
X917Y299D01*
X1012Y299D02*
X1080Y299D01*
X1179Y299D02*
X1192Y299D01*
X31Y298D02*
X55Y298D01*
X110Y298D02*
X150Y298D01*
X238Y298D02*
X401Y298D01*
X491Y298D02*
X601Y298D01*
X713Y298D02*
X739Y298D01*
X772Y298D02*
X917Y298D01*
X1012Y298D02*
X1080Y298D01*
X1179Y298D02*
X1192Y298D01*
X31Y297D02*
X57Y297D01*
X108Y297D02*
X150Y297D01*
X239Y297D02*
X401Y297D01*
X491Y297D02*
X601Y297D01*
X713Y297D02*
X739Y297D01*
X772Y297D02*
X917Y297D01*
X1012Y297D02*
X1080Y297D01*
X1179Y297D02*
X1192Y297D01*
X31Y296D02*
X58Y296D01*
X107Y296D02*
X149Y296D01*
X239Y296D02*
X400Y296D01*
X492Y296D02*
X600Y296D01*
X713Y296D02*
X739Y296D01*
X772Y296D02*
X917Y296D01*
X1012Y296D02*
X1080Y296D01*
X1179Y296D02*
X1192Y296D01*
X31Y295D02*
X60Y295D01*
X105Y295D02*
X149Y295D01*
X239Y295D02*
X400Y295D01*
X492Y295D02*
X600Y295D01*
X713Y295D02*
X739Y295D01*
X772Y295D02*
X916Y295D01*
X1012Y295D02*
X1080Y295D01*
X1179Y295D02*
X1192Y295D01*
X31Y294D02*
X62Y294D01*
X103Y294D02*
X149Y294D01*
X240Y294D02*
X400Y294D01*
X492Y294D02*
X600Y294D01*
X713Y294D02*
X739Y294D01*
X772Y294D02*
X916Y294D01*
X1012Y294D02*
X1080Y294D01*
X1179Y294D02*
X1192Y294D01*
X31Y293D02*
X64Y293D01*
X101Y293D02*
X148Y293D01*
X240Y293D02*
X399Y293D01*
X492Y293D02*
X599Y293D01*
X713Y293D02*
X739Y293D01*
X772Y293D02*
X917Y293D01*
X1012Y293D02*
X1080Y293D01*
X1179Y293D02*
X1192Y293D01*
X31Y292D02*
X67Y292D01*
X98Y292D02*
X148Y292D01*
X240Y292D02*
X399Y292D01*
X493Y292D02*
X599Y292D01*
X713Y292D02*
X739Y292D01*
X772Y292D02*
X917Y292D01*
X1012Y292D02*
X1080Y292D01*
X1179Y292D02*
X1192Y292D01*
X31Y291D02*
X71Y291D01*
X94Y291D02*
X148Y291D01*
X241Y291D02*
X399Y291D01*
X493Y291D02*
X599Y291D01*
X713Y291D02*
X739Y291D01*
X772Y291D02*
X917Y291D01*
X1012Y291D02*
X1080Y291D01*
X1179Y291D02*
X1192Y291D01*
X31Y290D02*
X76Y290D01*
X89Y290D02*
X148Y290D01*
X241Y290D02*
X399Y290D01*
X493Y290D02*
X599Y290D01*
X713Y290D02*
X739Y290D01*
X772Y290D02*
X917Y290D01*
X1012Y290D02*
X1080Y290D01*
X1179Y290D02*
X1192Y290D01*
X31Y289D02*
X148Y289D01*
X241Y289D02*
X399Y289D01*
X493Y289D02*
X599Y289D01*
X713Y289D02*
X739Y289D01*
X772Y289D02*
X917Y289D01*
X1012Y289D02*
X1080Y289D01*
X1179Y289D02*
X1192Y289D01*
X31Y288D02*
X147Y288D01*
X241Y288D02*
X399Y288D01*
X493Y288D02*
X599Y288D01*
X713Y288D02*
X739Y288D01*
X772Y288D02*
X917Y288D01*
X1012Y288D02*
X1080Y288D01*
X1179Y288D02*
X1192Y288D01*
X31Y287D02*
X147Y287D01*
X241Y287D02*
X399Y287D01*
X493Y287D02*
X599Y287D01*
X713Y287D02*
X739Y287D01*
X772Y287D02*
X917Y287D01*
X1012Y287D02*
X1080Y287D01*
X1179Y287D02*
X1192Y287D01*
X31Y286D02*
X147Y286D01*
X241Y286D02*
X399Y286D01*
X493Y286D02*
X599Y286D01*
X713Y286D02*
X739Y286D01*
X772Y286D02*
X917Y286D01*
X1011Y286D02*
X1080Y286D01*
X1179Y286D02*
X1192Y286D01*
X31Y285D02*
X147Y285D01*
X241Y285D02*
X399Y285D01*
X493Y285D02*
X598Y285D01*
X713Y285D02*
X739Y285D01*
X772Y285D02*
X918Y285D01*
X1011Y285D02*
X1080Y285D01*
X1179Y285D02*
X1192Y285D01*
X31Y284D02*
X147Y284D01*
X241Y284D02*
X399Y284D01*
X493Y284D02*
X598Y284D01*
X713Y284D02*
X739Y284D01*
X772Y284D02*
X918Y284D01*
X1011Y284D02*
X1080Y284D01*
X1179Y284D02*
X1192Y284D01*
X31Y283D02*
X147Y283D01*
X242Y283D02*
X399Y283D01*
X493Y283D02*
X598Y283D01*
X713Y283D02*
X739Y283D01*
X772Y283D02*
X918Y283D01*
X1011Y283D02*
X1080Y283D01*
X1179Y283D02*
X1192Y283D01*
X31Y282D02*
X147Y282D01*
X242Y282D02*
X399Y282D01*
X493Y282D02*
X599Y282D01*
X713Y282D02*
X739Y282D01*
X772Y282D02*
X918Y282D01*
X1010Y282D02*
X1080Y282D01*
X1179Y282D02*
X1192Y282D01*
X31Y281D02*
X147Y281D01*
X242Y281D02*
X399Y281D01*
X493Y281D02*
X599Y281D01*
X713Y281D02*
X739Y281D01*
X772Y281D02*
X919Y281D01*
X1010Y281D02*
X1080Y281D01*
X1179Y281D02*
X1192Y281D01*
X31Y280D02*
X147Y280D01*
X242Y280D02*
X399Y280D01*
X493Y280D02*
X599Y280D01*
X713Y280D02*
X739Y280D01*
X772Y280D02*
X919Y280D01*
X1010Y280D02*
X1080Y280D01*
X1179Y280D02*
X1192Y280D01*
X31Y279D02*
X147Y279D01*
X241Y279D02*
X399Y279D01*
X493Y279D02*
X599Y279D01*
X713Y279D02*
X739Y279D01*
X772Y279D02*
X919Y279D01*
X1009Y279D02*
X1080Y279D01*
X1179Y279D02*
X1192Y279D01*
X31Y278D02*
X147Y278D01*
X241Y278D02*
X399Y278D01*
X493Y278D02*
X599Y278D01*
X713Y278D02*
X739Y278D01*
X772Y278D02*
X920Y278D01*
X1009Y278D02*
X1080Y278D01*
X1179Y278D02*
X1192Y278D01*
X31Y277D02*
X147Y277D01*
X241Y277D02*
X399Y277D01*
X493Y277D02*
X599Y277D01*
X713Y277D02*
X739Y277D01*
X772Y277D02*
X920Y277D01*
X1009Y277D02*
X1080Y277D01*
X1179Y277D02*
X1192Y277D01*
X31Y276D02*
X147Y276D01*
X241Y276D02*
X399Y276D01*
X493Y276D02*
X599Y276D01*
X713Y276D02*
X739Y276D01*
X772Y276D02*
X920Y276D01*
X1008Y276D02*
X1080Y276D01*
X1179Y276D02*
X1192Y276D01*
X31Y275D02*
X147Y275D01*
X241Y275D02*
X400Y275D01*
X492Y275D02*
X599Y275D01*
X713Y275D02*
X739Y275D01*
X772Y275D02*
X921Y275D01*
X1008Y275D02*
X1080Y275D01*
X1179Y275D02*
X1192Y275D01*
X31Y274D02*
X79Y274D01*
X86Y274D02*
X148Y274D01*
X241Y274D02*
X400Y274D01*
X492Y274D02*
X600Y274D01*
X713Y274D02*
X739Y274D01*
X772Y274D02*
X922Y274D01*
X1007Y274D02*
X1080Y274D01*
X1179Y274D02*
X1192Y274D01*
X31Y273D02*
X72Y273D01*
X93Y273D02*
X148Y273D01*
X241Y273D02*
X400Y273D01*
X492Y273D02*
X600Y273D01*
X713Y273D02*
X739Y273D01*
X772Y273D02*
X922Y273D01*
X1007Y273D02*
X1080Y273D01*
X1179Y273D02*
X1192Y273D01*
X31Y272D02*
X69Y272D01*
X96Y272D02*
X148Y272D01*
X241Y272D02*
X400Y272D01*
X492Y272D02*
X600Y272D01*
X713Y272D02*
X739Y272D01*
X772Y272D02*
X923Y272D01*
X1006Y272D02*
X1080Y272D01*
X1179Y272D02*
X1192Y272D01*
X31Y271D02*
X65Y271D01*
X100Y271D02*
X148Y271D01*
X240Y271D02*
X401Y271D01*
X491Y271D02*
X601Y271D01*
X713Y271D02*
X739Y271D01*
X772Y271D02*
X923Y271D01*
X1006Y271D02*
X1080Y271D01*
X1179Y271D02*
X1192Y271D01*
X31Y270D02*
X63Y270D01*
X102Y270D02*
X148Y270D01*
X240Y270D02*
X401Y270D01*
X491Y270D02*
X601Y270D01*
X713Y270D02*
X739Y270D01*
X772Y270D02*
X924Y270D01*
X1005Y270D02*
X1080Y270D01*
X1179Y270D02*
X1192Y270D01*
X31Y269D02*
X61Y269D01*
X104Y269D02*
X149Y269D01*
X240Y269D02*
X401Y269D01*
X491Y269D02*
X601Y269D01*
X713Y269D02*
X739Y269D01*
X772Y269D02*
X924Y269D01*
X1005Y269D02*
X1080Y269D01*
X1179Y269D02*
X1192Y269D01*
X31Y268D02*
X59Y268D01*
X106Y268D02*
X149Y268D01*
X239Y268D02*
X402Y268D01*
X490Y268D02*
X602Y268D01*
X713Y268D02*
X739Y268D01*
X772Y268D02*
X925Y268D01*
X1004Y268D02*
X1080Y268D01*
X1179Y268D02*
X1192Y268D01*
X31Y267D02*
X57Y267D01*
X108Y267D02*
X149Y267D01*
X239Y267D02*
X402Y267D01*
X490Y267D02*
X602Y267D01*
X713Y267D02*
X739Y267D01*
X772Y267D02*
X926Y267D01*
X1003Y267D02*
X1080Y267D01*
X1179Y267D02*
X1192Y267D01*
X31Y266D02*
X56Y266D01*
X109Y266D02*
X150Y266D01*
X239Y266D02*
X402Y266D01*
X490Y266D02*
X602Y266D01*
X713Y266D02*
X739Y266D01*
X772Y266D02*
X926Y266D01*
X1002Y266D02*
X1080Y266D01*
X1179Y266D02*
X1192Y266D01*
X31Y265D02*
X54Y265D01*
X111Y265D02*
X150Y265D01*
X238Y265D02*
X403Y265D01*
X489Y265D02*
X603Y265D01*
X713Y265D02*
X739Y265D01*
X772Y265D02*
X927Y265D01*
X1002Y265D02*
X1080Y265D01*
X1179Y265D02*
X1192Y265D01*
X31Y264D02*
X53Y264D01*
X112Y264D02*
X150Y264D01*
X238Y264D02*
X403Y264D01*
X489Y264D02*
X603Y264D01*
X713Y264D02*
X739Y264D01*
X772Y264D02*
X928Y264D01*
X1001Y264D02*
X1080Y264D01*
X1179Y264D02*
X1192Y264D01*
X31Y263D02*
X52Y263D01*
X113Y263D02*
X151Y263D01*
X238Y263D02*
X404Y263D01*
X488Y263D02*
X604Y263D01*
X713Y263D02*
X739Y263D01*
X772Y263D02*
X929Y263D01*
X1000Y263D02*
X1080Y263D01*
X1179Y263D02*
X1192Y263D01*
X31Y262D02*
X51Y262D01*
X114Y262D02*
X151Y262D01*
X237Y262D02*
X404Y262D01*
X487Y262D02*
X604Y262D01*
X713Y262D02*
X739Y262D01*
X772Y262D02*
X930Y262D01*
X999Y262D02*
X1080Y262D01*
X1179Y262D02*
X1192Y262D01*
X31Y261D02*
X49Y261D01*
X116Y261D02*
X152Y261D01*
X237Y261D02*
X405Y261D01*
X487Y261D02*
X605Y261D01*
X713Y261D02*
X739Y261D01*
X772Y261D02*
X930Y261D01*
X998Y261D02*
X1080Y261D01*
X1179Y261D02*
X1192Y261D01*
X31Y260D02*
X48Y260D01*
X117Y260D02*
X152Y260D01*
X236Y260D02*
X405Y260D01*
X486Y260D02*
X605Y260D01*
X713Y260D02*
X739Y260D01*
X772Y260D02*
X932Y260D01*
X997Y260D02*
X1080Y260D01*
X1179Y260D02*
X1192Y260D01*
X31Y259D02*
X47Y259D01*
X117Y259D02*
X153Y259D01*
X236Y259D02*
X406Y259D01*
X486Y259D02*
X606Y259D01*
X713Y259D02*
X739Y259D01*
X772Y259D02*
X933Y259D01*
X996Y259D02*
X1080Y259D01*
X1179Y259D02*
X1192Y259D01*
X31Y258D02*
X47Y258D01*
X118Y258D02*
X153Y258D01*
X235Y258D02*
X407Y258D01*
X485Y258D02*
X606Y258D01*
X713Y258D02*
X739Y258D01*
X772Y258D02*
X934Y258D01*
X995Y258D02*
X1080Y258D01*
X1179Y258D02*
X1192Y258D01*
X31Y257D02*
X46Y257D01*
X119Y257D02*
X154Y257D01*
X235Y257D02*
X407Y257D01*
X485Y257D02*
X607Y257D01*
X713Y257D02*
X739Y257D01*
X772Y257D02*
X935Y257D01*
X993Y257D02*
X1080Y257D01*
X1179Y257D02*
X1192Y257D01*
X31Y256D02*
X45Y256D01*
X120Y256D02*
X155Y256D01*
X234Y256D02*
X408Y256D01*
X484Y256D02*
X608Y256D01*
X713Y256D02*
X739Y256D01*
X772Y256D02*
X937Y256D01*
X992Y256D02*
X1080Y256D01*
X1179Y256D02*
X1192Y256D01*
X31Y255D02*
X44Y255D01*
X121Y255D02*
X155Y255D01*
X233Y255D02*
X409Y255D01*
X483Y255D02*
X609Y255D01*
X713Y255D02*
X739Y255D01*
X772Y255D02*
X938Y255D01*
X991Y255D02*
X1080Y255D01*
X1179Y255D02*
X1192Y255D01*
X31Y254D02*
X43Y254D01*
X121Y254D02*
X156Y254D01*
X232Y254D02*
X410Y254D01*
X482Y254D02*
X610Y254D01*
X713Y254D02*
X739Y254D01*
X772Y254D02*
X940Y254D01*
X989Y254D02*
X1080Y254D01*
X1179Y254D02*
X1192Y254D01*
X31Y253D02*
X43Y253D01*
X122Y253D02*
X157Y253D01*
X232Y253D02*
X411Y253D01*
X481Y253D02*
X610Y253D01*
X713Y253D02*
X739Y253D01*
X772Y253D02*
X942Y253D01*
X987Y253D02*
X1080Y253D01*
X1179Y253D02*
X1192Y253D01*
X31Y252D02*
X42Y252D01*
X123Y252D02*
X158Y252D01*
X231Y252D02*
X411Y252D01*
X481Y252D02*
X611Y252D01*
X713Y252D02*
X739Y252D01*
X772Y252D02*
X944Y252D01*
X985Y252D02*
X1080Y252D01*
X1179Y252D02*
X1192Y252D01*
X31Y251D02*
X42Y251D01*
X123Y251D02*
X158Y251D01*
X230Y251D02*
X412Y251D01*
X480Y251D02*
X612Y251D01*
X713Y251D02*
X739Y251D01*
X772Y251D02*
X946Y251D01*
X983Y251D02*
X1080Y251D01*
X1179Y251D02*
X1192Y251D01*
X31Y250D02*
X41Y250D01*
X124Y250D02*
X159Y250D01*
X229Y250D02*
X413Y250D01*
X479Y250D02*
X613Y250D01*
X713Y250D02*
X739Y250D01*
X772Y250D02*
X949Y250D01*
X980Y250D02*
X1080Y250D01*
X1179Y250D02*
X1192Y250D01*
X31Y249D02*
X41Y249D01*
X124Y249D02*
X160Y249D01*
X228Y249D02*
X415Y249D01*
X477Y249D02*
X614Y249D01*
X713Y249D02*
X739Y249D01*
X772Y249D02*
X952Y249D01*
X977Y249D02*
X1080Y249D01*
X1179Y249D02*
X1192Y249D01*
X31Y248D02*
X40Y248D01*
X125Y248D02*
X161Y248D01*
X227Y248D02*
X416Y248D01*
X476Y248D02*
X616Y248D01*
X713Y248D02*
X739Y248D01*
X772Y248D02*
X956Y248D01*
X973Y248D02*
X1080Y248D01*
X1179Y248D02*
X1192Y248D01*
X31Y247D02*
X40Y247D01*
X125Y247D02*
X162Y247D01*
X226Y247D02*
X417Y247D01*
X475Y247D02*
X617Y247D01*
X713Y247D02*
X739Y247D01*
X772Y247D02*
X1080Y247D01*
X1179Y247D02*
X1192Y247D01*
X31Y246D02*
X39Y246D01*
X126Y246D02*
X163Y246D01*
X225Y246D02*
X418Y246D01*
X474Y246D02*
X618Y246D01*
X713Y246D02*
X739Y246D01*
X772Y246D02*
X1080Y246D01*
X1179Y246D02*
X1192Y246D01*
X31Y245D02*
X39Y245D01*
X126Y245D02*
X165Y245D01*
X224Y245D02*
X420Y245D01*
X472Y245D02*
X620Y245D01*
X713Y245D02*
X739Y245D01*
X772Y245D02*
X1080Y245D01*
X1179Y245D02*
X1192Y245D01*
X31Y244D02*
X38Y244D01*
X127Y244D02*
X166Y244D01*
X222Y244D02*
X422Y244D01*
X470Y244D02*
X621Y244D01*
X713Y244D02*
X739Y244D01*
X772Y244D02*
X1080Y244D01*
X1179Y244D02*
X1192Y244D01*
X31Y243D02*
X38Y243D01*
X127Y243D02*
X167Y243D01*
X221Y243D02*
X423Y243D01*
X468Y243D02*
X623Y243D01*
X713Y243D02*
X739Y243D01*
X772Y243D02*
X1081Y243D01*
X1179Y243D02*
X1192Y243D01*
X31Y242D02*
X38Y242D01*
X127Y242D02*
X169Y242D01*
X219Y242D02*
X425Y242D01*
X467Y242D02*
X625Y242D01*
X713Y242D02*
X739Y242D01*
X772Y242D02*
X1081Y242D01*
X1178Y242D02*
X1192Y242D01*
X31Y241D02*
X37Y241D01*
X128Y241D02*
X171Y241D01*
X218Y241D02*
X427Y241D01*
X465Y241D02*
X627Y241D01*
X713Y241D02*
X739Y241D01*
X772Y241D02*
X1081Y241D01*
X1178Y241D02*
X1192Y241D01*
X31Y240D02*
X37Y240D01*
X128Y240D02*
X173Y240D01*
X216Y240D02*
X429Y240D01*
X463Y240D02*
X629Y240D01*
X713Y240D02*
X739Y240D01*
X772Y240D02*
X1082Y240D01*
X1177Y240D02*
X1192Y240D01*
X31Y239D02*
X37Y239D01*
X128Y239D02*
X175Y239D01*
X214Y239D02*
X430Y239D01*
X463Y239D02*
X629Y239D01*
X713Y239D02*
X739Y239D01*
X772Y239D02*
X1083Y239D01*
X1177Y239D02*
X1192Y239D01*
X31Y238D02*
X36Y238D01*
X129Y238D02*
X177Y238D01*
X211Y238D02*
X430Y238D01*
X463Y238D02*
X629Y238D01*
X713Y238D02*
X739Y238D01*
X772Y238D02*
X1084Y238D01*
X1176Y238D02*
X1192Y238D01*
X31Y237D02*
X36Y237D01*
X129Y237D02*
X180Y237D01*
X208Y237D02*
X430Y237D01*
X463Y237D02*
X629Y237D01*
X713Y237D02*
X739Y237D01*
X772Y237D02*
X1085Y237D01*
X1174Y237D02*
X1192Y237D01*
X31Y236D02*
X36Y236D01*
X129Y236D02*
X183Y236D01*
X205Y236D02*
X430Y236D01*
X463Y236D02*
X629Y236D01*
X713Y236D02*
X739Y236D01*
X772Y236D02*
X1087Y236D01*
X1172Y236D02*
X1192Y236D01*
X31Y235D02*
X36Y235D01*
X129Y235D02*
X191Y235D01*
X198Y235D02*
X430Y235D01*
X463Y235D02*
X629Y235D01*
X713Y235D02*
X739Y235D01*
X772Y235D02*
X1192Y235D01*
X31Y234D02*
X36Y234D01*
X129Y234D02*
X430Y234D01*
X463Y234D02*
X629Y234D01*
X713Y234D02*
X739Y234D01*
X772Y234D02*
X1192Y234D01*
X31Y233D02*
X36Y233D01*
X129Y233D02*
X430Y233D01*
X463Y233D02*
X629Y233D01*
X713Y233D02*
X739Y233D01*
X772Y233D02*
X1192Y233D01*
X31Y232D02*
X35Y232D01*
X129Y232D02*
X430Y232D01*
X463Y232D02*
X629Y232D01*
X713Y232D02*
X739Y232D01*
X772Y232D02*
X1192Y232D01*
X31Y231D02*
X35Y231D01*
X130Y231D02*
X340Y231D01*
X353Y231D02*
X430Y231D01*
X463Y231D02*
X539Y231D01*
X554Y231D02*
X629Y231D01*
X713Y231D02*
X739Y231D01*
X772Y231D02*
X838Y231D01*
X851Y231D02*
X1192Y231D01*
X31Y230D02*
X35Y230D01*
X130Y230D02*
X335Y230D01*
X358Y230D02*
X430Y230D01*
X463Y230D02*
X534Y230D01*
X559Y230D02*
X629Y230D01*
X713Y230D02*
X739Y230D01*
X772Y230D02*
X832Y230D01*
X856Y230D02*
X1192Y230D01*
X31Y229D02*
X35Y229D01*
X130Y229D02*
X331Y229D01*
X361Y229D02*
X430Y229D01*
X463Y229D02*
X531Y229D01*
X562Y229D02*
X629Y229D01*
X713Y229D02*
X739Y229D01*
X772Y229D02*
X829Y229D01*
X859Y229D02*
X1192Y229D01*
X31Y228D02*
X35Y228D01*
X130Y228D02*
X328Y228D01*
X365Y228D02*
X430Y228D01*
X463Y228D02*
X528Y228D01*
X565Y228D02*
X629Y228D01*
X713Y228D02*
X738Y228D01*
X773Y228D02*
X826Y228D01*
X862Y228D02*
X1192Y228D01*
X31Y227D02*
X35Y227D01*
X130Y227D02*
X326Y227D01*
X367Y227D02*
X430Y227D01*
X463Y227D02*
X526Y227D01*
X567Y227D02*
X629Y227D01*
X713Y227D02*
X735Y227D01*
X775Y227D02*
X824Y227D01*
X865Y227D02*
X1192Y227D01*
X31Y226D02*
X35Y226D01*
X130Y226D02*
X324Y226D01*
X369Y226D02*
X430Y226D01*
X463Y226D02*
X524Y226D01*
X569Y226D02*
X629Y226D01*
X713Y226D02*
X734Y226D01*
X777Y226D02*
X822Y226D01*
X867Y226D02*
X1192Y226D01*
X31Y225D02*
X35Y225D01*
X130Y225D02*
X322Y225D01*
X371Y225D02*
X430Y225D01*
X463Y225D02*
X522Y225D01*
X571Y225D02*
X629Y225D01*
X713Y225D02*
X732Y225D01*
X779Y225D02*
X820Y225D01*
X868Y225D02*
X1192Y225D01*
X31Y224D02*
X35Y224D01*
X130Y224D02*
X321Y224D01*
X373Y224D02*
X430Y224D01*
X463Y224D02*
X520Y224D01*
X573Y224D02*
X629Y224D01*
X713Y224D02*
X730Y224D01*
X781Y224D02*
X818Y224D01*
X870Y224D02*
X1192Y224D01*
X31Y223D02*
X35Y223D01*
X130Y223D02*
X319Y223D01*
X374Y223D02*
X430Y223D01*
X463Y223D02*
X519Y223D01*
X574Y223D02*
X629Y223D01*
X713Y223D02*
X728Y223D01*
X782Y223D02*
X817Y223D01*
X872Y223D02*
X1192Y223D01*
X31Y222D02*
X36Y222D01*
X129Y222D02*
X318Y222D01*
X375Y222D02*
X430Y222D01*
X463Y222D02*
X517Y222D01*
X575Y222D02*
X629Y222D01*
X713Y222D02*
X727Y222D01*
X784Y222D02*
X815Y222D01*
X873Y222D02*
X1192Y222D01*
X31Y221D02*
X36Y221D01*
X129Y221D02*
X316Y221D01*
X377Y221D02*
X430Y221D01*
X463Y221D02*
X516Y221D01*
X577Y221D02*
X629Y221D01*
X713Y221D02*
X726Y221D01*
X785Y221D02*
X814Y221D01*
X874Y221D02*
X1192Y221D01*
X31Y220D02*
X36Y220D01*
X129Y220D02*
X315Y220D01*
X378Y220D02*
X430Y220D01*
X463Y220D02*
X515Y220D01*
X578Y220D02*
X629Y220D01*
X713Y220D02*
X724Y220D01*
X786Y220D02*
X813Y220D01*
X876Y220D02*
X1192Y220D01*
X31Y219D02*
X36Y219D01*
X129Y219D02*
X153Y219D01*
X235Y219D02*
X314Y219D01*
X379Y219D02*
X430Y219D01*
X463Y219D02*
X514Y219D01*
X579Y219D02*
X629Y219D01*
X713Y219D02*
X723Y219D01*
X788Y219D02*
X812Y219D01*
X877Y219D02*
X1192Y219D01*
X31Y218D02*
X36Y218D01*
X129Y218D02*
X151Y218D01*
X237Y218D02*
X313Y218D01*
X380Y218D02*
X430Y218D01*
X463Y218D02*
X513Y218D01*
X580Y218D02*
X629Y218D01*
X713Y218D02*
X722Y218D01*
X789Y218D02*
X810Y218D01*
X878Y218D02*
X1192Y218D01*
X31Y217D02*
X36Y217D01*
X129Y217D02*
X150Y217D01*
X238Y217D02*
X312Y217D01*
X381Y217D02*
X430Y217D01*
X463Y217D02*
X512Y217D01*
X581Y217D02*
X629Y217D01*
X713Y217D02*
X721Y217D01*
X790Y217D02*
X810Y217D01*
X879Y217D02*
X1192Y217D01*
X31Y216D02*
X37Y216D01*
X128Y216D02*
X149Y216D01*
X239Y216D02*
X311Y216D01*
X382Y216D02*
X430Y216D01*
X463Y216D02*
X511Y216D01*
X582Y216D02*
X629Y216D01*
X713Y216D02*
X720Y216D01*
X791Y216D02*
X809Y216D01*
X880Y216D02*
X1192Y216D01*
X31Y215D02*
X37Y215D01*
X128Y215D02*
X148Y215D01*
X240Y215D02*
X310Y215D01*
X383Y215D02*
X430Y215D01*
X463Y215D02*
X510Y215D01*
X583Y215D02*
X629Y215D01*
X713Y215D02*
X719Y215D01*
X791Y215D02*
X808Y215D01*
X881Y215D02*
X1192Y215D01*
X31Y214D02*
X37Y214D01*
X128Y214D02*
X148Y214D01*
X241Y214D02*
X309Y214D01*
X384Y214D02*
X430Y214D01*
X463Y214D02*
X509Y214D01*
X584Y214D02*
X629Y214D01*
X713Y214D02*
X718Y214D01*
X792Y214D02*
X807Y214D01*
X881Y214D02*
X1192Y214D01*
X31Y213D02*
X38Y213D01*
X127Y213D02*
X147Y213D01*
X241Y213D02*
X309Y213D01*
X384Y213D02*
X430Y213D01*
X463Y213D02*
X508Y213D01*
X584Y213D02*
X629Y213D01*
X713Y213D02*
X718Y213D01*
X793Y213D02*
X806Y213D01*
X882Y213D02*
X1192Y213D01*
X31Y212D02*
X38Y212D01*
X127Y212D02*
X147Y212D01*
X241Y212D02*
X308Y212D01*
X385Y212D02*
X430Y212D01*
X463Y212D02*
X508Y212D01*
X585Y212D02*
X629Y212D01*
X713Y212D02*
X717Y212D01*
X794Y212D02*
X806Y212D01*
X883Y212D02*
X1192Y212D01*
X31Y211D02*
X38Y211D01*
X127Y211D02*
X147Y211D01*
X242Y211D02*
X307Y211D01*
X386Y211D02*
X430Y211D01*
X463Y211D02*
X507Y211D01*
X586Y211D02*
X629Y211D01*
X714Y211D02*
X716Y211D01*
X795Y211D02*
X805Y211D01*
X884Y211D02*
X1192Y211D01*
X31Y210D02*
X39Y210D01*
X126Y210D02*
X147Y210D01*
X242Y210D02*
X306Y210D01*
X387Y210D02*
X430Y210D01*
X463Y210D02*
X506Y210D01*
X587Y210D02*
X629Y210D01*
X795Y210D02*
X804Y210D01*
X884Y210D02*
X1192Y210D01*
X31Y209D02*
X39Y209D01*
X126Y209D02*
X147Y209D01*
X158Y209D02*
X231Y209D01*
X242Y209D02*
X306Y209D01*
X387Y209D02*
X430Y209D01*
X463Y209D02*
X506Y209D01*
X587Y209D02*
X629Y209D01*
X796Y209D02*
X804Y209D01*
X885Y209D02*
X1192Y209D01*
X31Y208D02*
X39Y208D01*
X126Y208D02*
X147Y208D01*
X158Y208D02*
X231Y208D01*
X242Y208D02*
X305Y208D01*
X388Y208D02*
X430Y208D01*
X463Y208D02*
X505Y208D01*
X588Y208D02*
X629Y208D01*
X796Y208D02*
X803Y208D01*
X885Y208D02*
X1192Y208D01*
X31Y207D02*
X40Y207D01*
X125Y207D02*
X147Y207D01*
X158Y207D02*
X231Y207D01*
X242Y207D02*
X305Y207D01*
X388Y207D02*
X430Y207D01*
X463Y207D02*
X505Y207D01*
X588Y207D02*
X629Y207D01*
X797Y207D02*
X803Y207D01*
X886Y207D02*
X1192Y207D01*
X31Y206D02*
X40Y206D01*
X124Y206D02*
X147Y206D01*
X158Y206D02*
X231Y206D01*
X242Y206D02*
X304Y206D01*
X389Y206D02*
X430Y206D01*
X463Y206D02*
X504Y206D01*
X589Y206D02*
X629Y206D01*
X798Y206D02*
X802Y206D01*
X887Y206D02*
X1192Y206D01*
X31Y205D02*
X41Y205D01*
X124Y205D02*
X147Y205D01*
X158Y205D02*
X231Y205D01*
X242Y205D02*
X304Y205D01*
X389Y205D02*
X430Y205D01*
X463Y205D02*
X504Y205D01*
X589Y205D02*
X629Y205D01*
X798Y205D02*
X801Y205D01*
X887Y205D02*
X1192Y205D01*
X31Y204D02*
X42Y204D01*
X123Y204D02*
X147Y204D01*
X158Y204D02*
X231Y204D01*
X242Y204D02*
X303Y204D01*
X390Y204D02*
X430Y204D01*
X463Y204D02*
X503Y204D01*
X590Y204D02*
X629Y204D01*
X799Y204D02*
X800Y204D01*
X888Y204D02*
X1192Y204D01*
X31Y203D02*
X42Y203D01*
X123Y203D02*
X147Y203D01*
X158Y203D02*
X231Y203D01*
X242Y203D02*
X303Y203D01*
X390Y203D02*
X430Y203D01*
X463Y203D02*
X503Y203D01*
X590Y203D02*
X629Y203D01*
X888Y203D02*
X1192Y203D01*
X31Y202D02*
X43Y202D01*
X122Y202D02*
X147Y202D01*
X158Y202D02*
X231Y202D01*
X242Y202D02*
X302Y202D01*
X391Y202D02*
X430Y202D01*
X463Y202D02*
X502Y202D01*
X591Y202D02*
X629Y202D01*
X889Y202D02*
X1192Y202D01*
X31Y201D02*
X43Y201D01*
X122Y201D02*
X147Y201D01*
X158Y201D02*
X231Y201D01*
X242Y201D02*
X302Y201D01*
X391Y201D02*
X430Y201D01*
X463Y201D02*
X502Y201D01*
X591Y201D02*
X628Y201D01*
X889Y201D02*
X1192Y201D01*
X31Y200D02*
X44Y200D01*
X121Y200D02*
X147Y200D01*
X158Y200D02*
X231Y200D01*
X242Y200D02*
X302Y200D01*
X410Y200D02*
X428Y200D01*
X463Y200D02*
X501Y200D01*
X889Y200D02*
X1192Y200D01*
X31Y199D02*
X45Y199D01*
X120Y199D02*
X147Y199D01*
X158Y199D02*
X231Y199D01*
X242Y199D02*
X301Y199D01*
X463Y199D02*
X501Y199D01*
X890Y199D02*
X1192Y199D01*
X31Y198D02*
X46Y198D01*
X119Y198D02*
X147Y198D01*
X158Y198D02*
X231Y198D01*
X242Y198D02*
X301Y198D01*
X463Y198D02*
X501Y198D01*
X890Y198D02*
X1192Y198D01*
X31Y197D02*
X46Y197D01*
X119Y197D02*
X147Y197D01*
X158Y197D02*
X231Y197D01*
X242Y197D02*
X301Y197D01*
X463Y197D02*
X500Y197D01*
X890Y197D02*
X1192Y197D01*
X31Y196D02*
X47Y196D01*
X118Y196D02*
X147Y196D01*
X158Y196D02*
X231Y196D01*
X242Y196D02*
X300Y196D01*
X463Y196D02*
X500Y196D01*
X890Y196D02*
X1192Y196D01*
X31Y195D02*
X48Y195D01*
X117Y195D02*
X147Y195D01*
X158Y195D02*
X231Y195D01*
X242Y195D02*
X300Y195D01*
X463Y195D02*
X500Y195D01*
X891Y195D02*
X1192Y195D01*
X31Y194D02*
X49Y194D01*
X116Y194D02*
X147Y194D01*
X158Y194D02*
X231Y194D01*
X242Y194D02*
X300Y194D01*
X463Y194D02*
X500Y194D01*
X891Y194D02*
X1192Y194D01*
X31Y193D02*
X50Y193D01*
X115Y193D02*
X147Y193D01*
X158Y193D02*
X231Y193D01*
X242Y193D02*
X299Y193D01*
X463Y193D02*
X499Y193D01*
X891Y193D02*
X1192Y193D01*
X31Y192D02*
X51Y192D01*
X114Y192D02*
X147Y192D01*
X158Y192D02*
X189Y192D01*
X199Y192D02*
X231Y192D01*
X242Y192D02*
X299Y192D01*
X463Y192D02*
X499Y192D01*
X891Y192D02*
X1192Y192D01*
X31Y191D02*
X53Y191D01*
X112Y191D02*
X147Y191D01*
X158Y191D02*
X186Y191D01*
X203Y191D02*
X231Y191D01*
X242Y191D02*
X299Y191D01*
X463Y191D02*
X499Y191D01*
X892Y191D02*
X1192Y191D01*
X31Y190D02*
X54Y190D01*
X111Y190D02*
X147Y190D01*
X158Y190D02*
X184Y190D01*
X204Y190D02*
X231Y190D01*
X242Y190D02*
X299Y190D01*
X463Y190D02*
X499Y190D01*
X892Y190D02*
X1192Y190D01*
X31Y189D02*
X55Y189D01*
X110Y189D02*
X147Y189D01*
X158Y189D02*
X182Y189D01*
X206Y189D02*
X231Y189D01*
X242Y189D02*
X299Y189D01*
X463Y189D02*
X499Y189D01*
X892Y189D02*
X1192Y189D01*
X31Y188D02*
X57Y188D01*
X108Y188D02*
X147Y188D01*
X158Y188D02*
X181Y188D01*
X207Y188D02*
X231Y188D01*
X242Y188D02*
X299Y188D01*
X463Y188D02*
X499Y188D01*
X892Y188D02*
X1192Y188D01*
X31Y187D02*
X59Y187D01*
X106Y187D02*
X147Y187D01*
X158Y187D02*
X180Y187D01*
X209Y187D02*
X231Y187D01*
X242Y187D02*
X299Y187D01*
X463Y187D02*
X499Y187D01*
X892Y187D02*
X1192Y187D01*
X31Y186D02*
X60Y186D01*
X105Y186D02*
X147Y186D01*
X158Y186D02*
X179Y186D01*
X210Y186D02*
X231Y186D01*
X242Y186D02*
X299Y186D01*
X463Y186D02*
X499Y186D01*
X892Y186D02*
X1192Y186D01*
X31Y185D02*
X62Y185D01*
X103Y185D02*
X147Y185D01*
X158Y185D02*
X178Y185D01*
X210Y185D02*
X231Y185D01*
X242Y185D02*
X299Y185D01*
X463Y185D02*
X498Y185D01*
X892Y185D02*
X1192Y185D01*
X31Y184D02*
X64Y184D01*
X101Y184D02*
X147Y184D01*
X158Y184D02*
X177Y184D01*
X211Y184D02*
X231Y184D01*
X242Y184D02*
X299Y184D01*
X464Y184D02*
X498Y184D01*
X892Y184D02*
X1192Y184D01*
X31Y183D02*
X67Y183D01*
X97Y183D02*
X147Y183D01*
X158Y183D02*
X177Y183D01*
X212Y183D02*
X231Y183D01*
X242Y183D02*
X299Y183D01*
X463Y183D02*
X499Y183D01*
X892Y183D02*
X1192Y183D01*
X31Y182D02*
X71Y182D01*
X94Y182D02*
X147Y182D01*
X158Y182D02*
X176Y182D01*
X212Y182D02*
X231Y182D01*
X242Y182D02*
X299Y182D01*
X463Y182D02*
X499Y182D01*
X892Y182D02*
X1192Y182D01*
X31Y181D02*
X76Y181D01*
X89Y181D02*
X147Y181D01*
X158Y181D02*
X176Y181D01*
X213Y181D02*
X231Y181D01*
X242Y181D02*
X299Y181D01*
X463Y181D02*
X499Y181D01*
X892Y181D02*
X1192Y181D01*
X31Y180D02*
X147Y180D01*
X158Y180D02*
X175Y180D01*
X213Y180D02*
X231Y180D01*
X242Y180D02*
X299Y180D01*
X463Y180D02*
X499Y180D01*
X892Y180D02*
X1192Y180D01*
X31Y179D02*
X147Y179D01*
X158Y179D02*
X175Y179D01*
X214Y179D02*
X231Y179D01*
X242Y179D02*
X299Y179D01*
X463Y179D02*
X499Y179D01*
X892Y179D02*
X1192Y179D01*
X31Y178D02*
X147Y178D01*
X158Y178D02*
X175Y178D01*
X214Y178D02*
X231Y178D01*
X242Y178D02*
X299Y178D01*
X462Y178D02*
X499Y178D01*
X892Y178D02*
X1192Y178D01*
X31Y177D02*
X147Y177D01*
X158Y177D02*
X174Y177D01*
X214Y177D02*
X231Y177D01*
X242Y177D02*
X299Y177D01*
X462Y177D02*
X499Y177D01*
X891Y177D02*
X1192Y177D01*
X31Y176D02*
X147Y176D01*
X158Y176D02*
X174Y176D01*
X214Y176D02*
X231Y176D01*
X242Y176D02*
X299Y176D01*
X461Y176D02*
X499Y176D01*
X891Y176D02*
X1192Y176D01*
X31Y175D02*
X147Y175D01*
X158Y175D02*
X174Y175D01*
X215Y175D02*
X231Y175D01*
X242Y175D02*
X300Y175D01*
X461Y175D02*
X499Y175D01*
X891Y175D02*
X1192Y175D01*
X31Y174D02*
X147Y174D01*
X158Y174D02*
X174Y174D01*
X215Y174D02*
X231Y174D01*
X242Y174D02*
X300Y174D01*
X460Y174D02*
X500Y174D01*
X891Y174D02*
X1192Y174D01*
X31Y173D02*
X147Y173D01*
X158Y173D02*
X174Y173D01*
X215Y173D02*
X231Y173D01*
X242Y173D02*
X300Y173D01*
X459Y173D02*
X500Y173D01*
X891Y173D02*
X1192Y173D01*
X31Y172D02*
X147Y172D01*
X158Y172D02*
X174Y172D01*
X215Y172D02*
X231Y172D01*
X242Y172D02*
X300Y172D01*
X458Y172D02*
X500Y172D01*
X890Y172D02*
X1192Y172D01*
X31Y171D02*
X147Y171D01*
X158Y171D02*
X174Y171D01*
X215Y171D02*
X231Y171D01*
X242Y171D02*
X301Y171D01*
X457Y171D02*
X501Y171D01*
X890Y171D02*
X1192Y171D01*
X31Y170D02*
X147Y170D01*
X158Y170D02*
X174Y170D01*
X214Y170D02*
X231Y170D01*
X242Y170D02*
X301Y170D01*
X455Y170D02*
X501Y170D01*
X890Y170D02*
X1192Y170D01*
X31Y169D02*
X147Y169D01*
X158Y169D02*
X174Y169D01*
X214Y169D02*
X231Y169D01*
X242Y169D02*
X301Y169D01*
X453Y169D02*
X501Y169D01*
X889Y169D02*
X1192Y169D01*
X31Y168D02*
X147Y168D01*
X158Y168D02*
X174Y168D01*
X214Y168D02*
X231Y168D01*
X242Y168D02*
X302Y168D01*
X393Y168D02*
X502Y168D01*
X889Y168D02*
X1192Y168D01*
X31Y167D02*
X147Y167D01*
X158Y167D02*
X175Y167D01*
X214Y167D02*
X231Y167D01*
X242Y167D02*
X302Y167D01*
X391Y167D02*
X502Y167D01*
X889Y167D02*
X1192Y167D01*
X31Y166D02*
X147Y166D01*
X158Y166D02*
X175Y166D01*
X214Y166D02*
X231Y166D01*
X242Y166D02*
X302Y166D01*
X391Y166D02*
X502Y166D01*
X888Y166D02*
X1192Y166D01*
X31Y165D02*
X147Y165D01*
X158Y165D02*
X175Y165D01*
X213Y165D02*
X231Y165D01*
X242Y165D02*
X303Y165D01*
X390Y165D02*
X503Y165D01*
X888Y165D02*
X1192Y165D01*
X31Y164D02*
X147Y164D01*
X158Y164D02*
X176Y164D01*
X213Y164D02*
X231Y164D01*
X242Y164D02*
X303Y164D01*
X390Y164D02*
X503Y164D01*
X887Y164D02*
X1192Y164D01*
X31Y163D02*
X147Y163D01*
X158Y163D02*
X176Y163D01*
X212Y163D02*
X231Y163D01*
X242Y163D02*
X304Y163D01*
X389Y163D02*
X504Y163D01*
X887Y163D02*
X1192Y163D01*
X31Y162D02*
X147Y162D01*
X158Y162D02*
X177Y162D01*
X212Y162D02*
X231Y162D01*
X242Y162D02*
X304Y162D01*
X389Y162D02*
X504Y162D01*
X886Y162D02*
X1192Y162D01*
X31Y161D02*
X147Y161D01*
X158Y161D02*
X178Y161D01*
X211Y161D02*
X231Y161D01*
X242Y161D02*
X305Y161D01*
X388Y161D02*
X505Y161D01*
X886Y161D02*
X1192Y161D01*
X31Y160D02*
X147Y160D01*
X158Y160D02*
X178Y160D01*
X210Y160D02*
X231Y160D01*
X242Y160D02*
X306Y160D01*
X388Y160D02*
X505Y160D01*
X885Y160D02*
X1192Y160D01*
X31Y159D02*
X147Y159D01*
X158Y159D02*
X179Y159D01*
X209Y159D02*
X231Y159D01*
X242Y159D02*
X306Y159D01*
X387Y159D02*
X506Y159D01*
X885Y159D02*
X1192Y159D01*
X31Y158D02*
X147Y158D01*
X158Y158D02*
X180Y158D01*
X208Y158D02*
X231Y158D01*
X242Y158D02*
X307Y158D01*
X386Y158D02*
X507Y158D01*
X884Y158D02*
X1192Y158D01*
X31Y157D02*
X147Y157D01*
X158Y157D02*
X181Y157D01*
X207Y157D02*
X231Y157D01*
X242Y157D02*
X307Y157D01*
X386Y157D02*
X507Y157D01*
X883Y157D02*
X1192Y157D01*
X31Y156D02*
X147Y156D01*
X158Y156D02*
X183Y156D01*
X206Y156D02*
X231Y156D01*
X242Y156D02*
X308Y156D01*
X385Y156D02*
X508Y156D01*
X883Y156D02*
X1192Y156D01*
X31Y155D02*
X147Y155D01*
X158Y155D02*
X185Y155D01*
X204Y155D02*
X231Y155D01*
X242Y155D02*
X309Y155D01*
X384Y155D02*
X509Y155D01*
X882Y155D02*
X1192Y155D01*
X31Y154D02*
X147Y154D01*
X158Y154D02*
X187Y154D01*
X202Y154D02*
X231Y154D01*
X242Y154D02*
X310Y154D01*
X383Y154D02*
X510Y154D01*
X881Y154D02*
X1192Y154D01*
X31Y153D02*
X147Y153D01*
X158Y153D02*
X190Y153D01*
X198Y153D02*
X231Y153D01*
X242Y153D02*
X310Y153D01*
X383Y153D02*
X510Y153D01*
X880Y153D02*
X1192Y153D01*
X31Y152D02*
X147Y152D01*
X158Y152D02*
X231Y152D01*
X242Y152D02*
X311Y152D01*
X382Y152D02*
X511Y152D01*
X880Y152D02*
X1192Y152D01*
X31Y151D02*
X147Y151D01*
X158Y151D02*
X231Y151D01*
X242Y151D02*
X312Y151D01*
X381Y151D02*
X512Y151D01*
X879Y151D02*
X1192Y151D01*
X31Y150D02*
X147Y150D01*
X158Y150D02*
X231Y150D01*
X242Y150D02*
X313Y150D01*
X380Y150D02*
X513Y150D01*
X878Y150D02*
X1192Y150D01*
X31Y149D02*
X147Y149D01*
X158Y149D02*
X231Y149D01*
X242Y149D02*
X314Y149D01*
X379Y149D02*
X514Y149D01*
X876Y149D02*
X1192Y149D01*
X31Y148D02*
X147Y148D01*
X158Y148D02*
X231Y148D01*
X242Y148D02*
X316Y148D01*
X377Y148D02*
X516Y148D01*
X875Y148D02*
X1192Y148D01*
X31Y147D02*
X147Y147D01*
X158Y147D02*
X231Y147D01*
X242Y147D02*
X317Y147D01*
X376Y147D02*
X517Y147D01*
X874Y147D02*
X1192Y147D01*
X31Y146D02*
X147Y146D01*
X158Y146D02*
X231Y146D01*
X242Y146D02*
X318Y146D01*
X375Y146D02*
X518Y146D01*
X873Y146D02*
X1192Y146D01*
X31Y145D02*
X147Y145D01*
X158Y145D02*
X231Y145D01*
X242Y145D02*
X319Y145D01*
X374Y145D02*
X520Y145D01*
X871Y145D02*
X1192Y145D01*
X31Y144D02*
X147Y144D01*
X158Y144D02*
X231Y144D01*
X242Y144D02*
X321Y144D01*
X372Y144D02*
X521Y144D01*
X870Y144D02*
X1192Y144D01*
X31Y143D02*
X147Y143D01*
X158Y143D02*
X231Y143D01*
X242Y143D02*
X323Y143D01*
X370Y143D02*
X523Y143D01*
X868Y143D02*
X1192Y143D01*
X31Y142D02*
X147Y142D01*
X158Y142D02*
X231Y142D01*
X242Y142D02*
X325Y142D01*
X368Y142D02*
X525Y142D01*
X866Y142D02*
X1192Y142D01*
X31Y141D02*
X147Y141D01*
X158Y141D02*
X231Y141D01*
X242Y141D02*
X327Y141D01*
X366Y141D02*
X527Y141D01*
X864Y141D02*
X1192Y141D01*
X31Y140D02*
X147Y140D01*
X158Y140D02*
X231Y140D01*
X242Y140D02*
X330Y140D01*
X363Y140D02*
X530Y140D01*
X861Y140D02*
X1192Y140D01*
X31Y139D02*
X147Y139D01*
X158Y139D02*
X231Y139D01*
X242Y139D02*
X333Y139D01*
X360Y139D02*
X533Y139D01*
X858Y139D02*
X1192Y139D01*
X31Y138D02*
X147Y138D01*
X158Y138D02*
X231Y138D01*
X242Y138D02*
X336Y138D01*
X357Y138D02*
X536Y138D01*
X855Y138D02*
X1192Y138D01*
X31Y137D02*
X147Y137D01*
X158Y137D02*
X231Y137D01*
X242Y137D02*
X337Y137D01*
X355Y137D02*
X537Y137D01*
X854Y137D02*
X1192Y137D01*
X31Y136D02*
X147Y136D01*
X158Y136D02*
X231Y136D01*
X242Y136D02*
X338Y136D01*
X355Y136D02*
X538Y136D01*
X853Y136D02*
X1192Y136D01*
X31Y135D02*
X147Y135D01*
X242Y135D02*
X338Y135D01*
X355Y135D02*
X538Y135D01*
X854Y135D02*
X1192Y135D01*
X31Y134D02*
X147Y134D01*
X242Y134D02*
X337Y134D01*
X355Y134D02*
X442Y134D01*
X450Y134D02*
X537Y134D01*
X854Y134D02*
X942Y134D01*
X949Y134D02*
X1042Y134D01*
X1049Y134D02*
X1142Y134D01*
X1149Y134D02*
X1192Y134D01*
X31Y133D02*
X147Y133D01*
X241Y133D02*
X335Y133D01*
X357Y133D02*
X435Y133D01*
X457Y133D02*
X535Y133D01*
X856Y133D02*
X935Y133D01*
X956Y133D02*
X1035Y133D01*
X1056Y133D02*
X1135Y133D01*
X1156Y133D02*
X1192Y133D01*
X31Y132D02*
X147Y132D01*
X241Y132D02*
X332Y132D01*
X360Y132D02*
X432Y132D01*
X460Y132D02*
X532Y132D01*
X859Y132D02*
X932Y132D01*
X959Y132D02*
X1032Y132D01*
X1059Y132D02*
X1132Y132D01*
X1159Y132D02*
X1192Y132D01*
X31Y131D02*
X148Y131D01*
X241Y131D02*
X329Y131D01*
X363Y131D02*
X429Y131D01*
X463Y131D02*
X529Y131D01*
X863Y131D02*
X929Y131D01*
X963Y131D02*
X1029Y131D01*
X1063Y131D02*
X1128Y131D01*
X1162Y131D02*
X1192Y131D01*
X31Y130D02*
X149Y130D01*
X240Y130D02*
X326Y130D01*
X366Y130D02*
X426Y130D01*
X466Y130D02*
X526Y130D01*
X865Y130D02*
X926Y130D01*
X965Y130D02*
X1026Y130D01*
X1065Y130D02*
X1126Y130D01*
X1165Y130D02*
X1192Y130D01*
X31Y129D02*
X149Y129D01*
X239Y129D02*
X324Y129D01*
X368Y129D02*
X424Y129D01*
X468Y129D02*
X524Y129D01*
X867Y129D02*
X924Y129D01*
X967Y129D02*
X1024Y129D01*
X1067Y129D02*
X1124Y129D01*
X1167Y129D02*
X1192Y129D01*
X31Y128D02*
X150Y128D01*
X238Y128D02*
X322Y128D01*
X369Y128D02*
X422Y128D01*
X469Y128D02*
X522Y128D01*
X869Y128D02*
X922Y128D01*
X969Y128D02*
X1022Y128D01*
X1069Y128D02*
X1122Y128D01*
X1169Y128D02*
X1192Y128D01*
X31Y127D02*
X152Y127D01*
X237Y127D02*
X320Y127D01*
X371Y127D02*
X420Y127D01*
X471Y127D02*
X520Y127D01*
X871Y127D02*
X920Y127D01*
X971Y127D02*
X1020Y127D01*
X1071Y127D02*
X1120Y127D01*
X1171Y127D02*
X1192Y127D01*
X31Y126D02*
X154Y126D01*
X234Y126D02*
X319Y126D01*
X373Y126D02*
X419Y126D01*
X473Y126D02*
X518Y126D01*
X873Y126D02*
X918Y126D01*
X973Y126D02*
X1018Y126D01*
X1073Y126D02*
X1118Y126D01*
X1173Y126D02*
X1192Y126D01*
X31Y125D02*
X177Y125D01*
X212Y125D02*
X317Y125D01*
X375Y125D02*
X417Y125D01*
X475Y125D02*
X517Y125D01*
X875Y125D02*
X917Y125D01*
X974Y125D02*
X1017Y125D01*
X1074Y125D02*
X1117Y125D01*
X1174Y125D02*
X1192Y125D01*
X31Y124D02*
X178Y124D01*
X211Y124D02*
X316Y124D01*
X376Y124D02*
X416Y124D01*
X476Y124D02*
X516Y124D01*
X876Y124D02*
X916Y124D01*
X976Y124D02*
X1016Y124D01*
X1076Y124D02*
X1115Y124D01*
X1176Y124D02*
X1192Y124D01*
X31Y123D02*
X178Y123D01*
X211Y123D02*
X315Y123D01*
X377Y123D02*
X415Y123D01*
X477Y123D02*
X515Y123D01*
X877Y123D02*
X914Y123D01*
X977Y123D02*
X1014Y123D01*
X1077Y123D02*
X1114Y123D01*
X1177Y123D02*
X1192Y123D01*
X31Y122D02*
X178Y122D01*
X211Y122D02*
X313Y122D01*
X378Y122D02*
X413Y122D01*
X478Y122D02*
X513Y122D01*
X878Y122D02*
X913Y122D01*
X978Y122D02*
X1013Y122D01*
X1078Y122D02*
X1113Y122D01*
X1178Y122D02*
X1192Y122D01*
X31Y121D02*
X178Y121D01*
X211Y121D02*
X312Y121D01*
X380Y121D02*
X412Y121D01*
X480Y121D02*
X512Y121D01*
X879Y121D02*
X912Y121D01*
X979Y121D02*
X1012Y121D01*
X1079Y121D02*
X1112Y121D01*
X1179Y121D02*
X1192Y121D01*
X31Y120D02*
X178Y120D01*
X211Y120D02*
X311Y120D01*
X381Y120D02*
X411Y120D01*
X481Y120D02*
X511Y120D01*
X881Y120D02*
X911Y120D01*
X981Y120D02*
X1011Y120D01*
X1081Y120D02*
X1111Y120D01*
X1180Y120D02*
X1192Y120D01*
X31Y119D02*
X178Y119D01*
X211Y119D02*
X310Y119D01*
X382Y119D02*
X410Y119D01*
X482Y119D02*
X510Y119D01*
X882Y119D02*
X910Y119D01*
X982Y119D02*
X1010Y119D01*
X1081Y119D02*
X1110Y119D01*
X1181Y119D02*
X1192Y119D01*
X31Y118D02*
X178Y118D01*
X211Y118D02*
X309Y118D01*
X383Y118D02*
X409Y118D01*
X483Y118D02*
X509Y118D01*
X882Y118D02*
X909Y118D01*
X982Y118D02*
X1009Y118D01*
X1082Y118D02*
X1109Y118D01*
X1182Y118D02*
X1192Y118D01*
X31Y117D02*
X178Y117D01*
X211Y117D02*
X308Y117D01*
X383Y117D02*
X408Y117D01*
X483Y117D02*
X508Y117D01*
X883Y117D02*
X908Y117D01*
X983Y117D02*
X1008Y117D01*
X1083Y117D02*
X1108Y117D01*
X1183Y117D02*
X1192Y117D01*
X31Y116D02*
X178Y116D01*
X211Y116D02*
X308Y116D01*
X384Y116D02*
X408Y116D01*
X484Y116D02*
X508Y116D01*
X884Y116D02*
X907Y116D01*
X984Y116D02*
X1007Y116D01*
X1084Y116D02*
X1107Y116D01*
X1184Y116D02*
X1192Y116D01*
X31Y115D02*
X178Y115D01*
X211Y115D02*
X307Y115D01*
X385Y115D02*
X407Y115D01*
X485Y115D02*
X507Y115D01*
X885Y115D02*
X907Y115D01*
X985Y115D02*
X1007Y115D01*
X1085Y115D02*
X1106Y115D01*
X1185Y115D02*
X1192Y115D01*
X31Y114D02*
X178Y114D01*
X211Y114D02*
X306Y114D01*
X386Y114D02*
X406Y114D01*
X486Y114D02*
X506Y114D01*
X886Y114D02*
X906Y114D01*
X986Y114D02*
X1006Y114D01*
X1086Y114D02*
X1106Y114D01*
X1185Y114D02*
X1192Y114D01*
X31Y113D02*
X178Y113D01*
X211Y113D02*
X305Y113D01*
X387Y113D02*
X405Y113D01*
X487Y113D02*
X505Y113D01*
X886Y113D02*
X905Y113D01*
X986Y113D02*
X1005Y113D01*
X1086Y113D02*
X1105Y113D01*
X1186Y113D02*
X1192Y113D01*
X31Y112D02*
X178Y112D01*
X211Y112D02*
X305Y112D01*
X387Y112D02*
X405Y112D01*
X487Y112D02*
X505Y112D01*
X887Y112D02*
X904Y112D01*
X987Y112D02*
X1004Y112D01*
X1087Y112D02*
X1104Y112D01*
X1187Y112D02*
X1192Y112D01*
X31Y111D02*
X178Y111D01*
X211Y111D02*
X304Y111D01*
X388Y111D02*
X404Y111D01*
X488Y111D02*
X504Y111D01*
X888Y111D02*
X904Y111D01*
X987Y111D02*
X1004Y111D01*
X1087Y111D02*
X1104Y111D01*
X1187Y111D02*
X1192Y111D01*
X31Y110D02*
X178Y110D01*
X211Y110D02*
X304Y110D01*
X388Y110D02*
X404Y110D01*
X488Y110D02*
X503Y110D01*
X888Y110D02*
X903Y110D01*
X988Y110D02*
X1003Y110D01*
X1088Y110D02*
X1103Y110D01*
X1188Y110D02*
X1192Y110D01*
X31Y109D02*
X178Y109D01*
X211Y109D02*
X303Y109D01*
X389Y109D02*
X403Y109D01*
X489Y109D02*
X503Y109D01*
X889Y109D02*
X903Y109D01*
X989Y109D02*
X1003Y109D01*
X1088Y109D02*
X1103Y109D01*
X1189Y109D02*
X1191Y109D01*
X31Y108D02*
X178Y108D01*
X211Y108D02*
X303Y108D01*
X389Y108D02*
X402Y108D01*
X489Y108D02*
X502Y108D01*
X889Y108D02*
X902Y108D01*
X989Y108D02*
X1002Y108D01*
X1089Y108D02*
X1102Y108D01*
X1190Y108D02*
X1190Y108D01*
X31Y107D02*
X178Y107D01*
X211Y107D02*
X302Y107D01*
X390Y107D02*
X402Y107D01*
X490Y107D02*
X502Y107D01*
X890Y107D02*
X902Y107D01*
X990Y107D02*
X1002Y107D01*
X1090Y107D02*
X1102Y107D01*
X31Y106D02*
X178Y106D01*
X211Y106D02*
X301Y106D01*
X390Y106D02*
X401Y106D01*
X490Y106D02*
X501Y106D01*
X890Y106D02*
X901Y106D01*
X990Y106D02*
X1001Y106D01*
X1090Y106D02*
X1101Y106D01*
X31Y105D02*
X178Y105D01*
X211Y105D02*
X301Y105D01*
X391Y105D02*
X401Y105D01*
X491Y105D02*
X501Y105D01*
X891Y105D02*
X901Y105D01*
X991Y105D02*
X1001Y105D01*
X1091Y105D02*
X1100Y105D01*
X31Y104D02*
X178Y104D01*
X211Y104D02*
X300Y104D01*
X391Y104D02*
X400Y104D01*
X491Y104D02*
X500Y104D01*
X891Y104D02*
X900Y104D01*
X991Y104D02*
X1000Y104D01*
X1091Y104D02*
X1100Y104D01*
X31Y103D02*
X178Y103D01*
X211Y103D02*
X300Y103D01*
X392Y103D02*
X400Y103D01*
X492Y103D02*
X500Y103D01*
X892Y103D02*
X900Y103D01*
X991Y103D02*
X1000Y103D01*
X1091Y103D02*
X1100Y103D01*
X31Y102D02*
X178Y102D01*
X211Y102D02*
X300Y102D01*
X392Y102D02*
X400Y102D01*
X492Y102D02*
X500Y102D01*
X892Y102D02*
X899Y102D01*
X992Y102D02*
X999Y102D01*
X1092Y102D02*
X1099Y102D01*
X31Y101D02*
X178Y101D01*
X211Y101D02*
X299Y101D01*
X392Y101D02*
X399Y101D01*
X492Y101D02*
X499Y101D01*
X892Y101D02*
X899Y101D01*
X992Y101D02*
X999Y101D01*
X1092Y101D02*
X1099Y101D01*
X31Y100D02*
X178Y100D01*
X211Y100D02*
X299Y100D01*
X393Y100D02*
X399Y100D01*
X493Y100D02*
X499Y100D01*
X893Y100D02*
X899Y100D01*
X992Y100D02*
X999Y100D01*
X1092Y100D02*
X1099Y100D01*
X31Y99D02*
X178Y99D01*
X211Y99D02*
X299Y99D01*
X393Y99D02*
X399Y99D01*
X493Y99D02*
X499Y99D01*
X893Y99D02*
X898Y99D01*
X993Y99D02*
X998Y99D01*
X1093Y99D02*
X1098Y99D01*
X31Y98D02*
X178Y98D01*
X211Y98D02*
X298Y98D01*
X393Y98D02*
X398Y98D01*
X493Y98D02*
X498Y98D01*
X893Y98D02*
X898Y98D01*
X993Y98D02*
X998Y98D01*
X1093Y98D02*
X1098Y98D01*
X31Y97D02*
X178Y97D01*
X211Y97D02*
X298Y97D01*
X394Y97D02*
X398Y97D01*
X494Y97D02*
X498Y97D01*
X894Y97D02*
X898Y97D01*
X993Y97D02*
X998Y97D01*
X1093Y97D02*
X1098Y97D01*
X31Y96D02*
X178Y96D01*
X211Y96D02*
X298Y96D01*
X394Y96D02*
X398Y96D01*
X494Y96D02*
X498Y96D01*
X894Y96D02*
X898Y96D01*
X994Y96D02*
X997Y96D01*
X1094Y96D02*
X1097Y96D01*
X31Y95D02*
X178Y95D01*
X211Y95D02*
X298Y95D01*
X395Y95D02*
X397Y95D01*
X495Y95D02*
X497Y95D01*
X895Y95D02*
X897Y95D01*
X995Y95D02*
X997Y95D01*
X1095Y95D02*
X1097Y95D01*
X31Y94D02*
X178Y94D01*
X211Y94D02*
X297Y94D01*
X31Y93D02*
X178Y93D01*
X211Y93D02*
X297Y93D01*
X31Y92D02*
X178Y92D01*
X211Y92D02*
X297Y92D01*
X31Y91D02*
X178Y91D01*
X211Y91D02*
X297Y91D01*
X31Y90D02*
X178Y90D01*
X211Y90D02*
X297Y90D01*
X31Y89D02*
X178Y89D01*
X211Y89D02*
X297Y89D01*
X31Y88D02*
X178Y88D01*
X211Y88D02*
X297Y88D01*
X31Y87D02*
X178Y87D01*
X211Y87D02*
X297Y87D01*
X31Y86D02*
X178Y86D01*
X211Y86D02*
X297Y86D01*
X31Y85D02*
X178Y85D01*
X211Y85D02*
X297Y85D01*
X31Y84D02*
X178Y84D01*
X211Y84D02*
X297Y84D01*
X31Y83D02*
X178Y83D01*
X211Y83D02*
X297Y83D01*
X31Y82D02*
X178Y82D01*
X211Y82D02*
X297Y82D01*
X31Y81D02*
X178Y81D01*
X211Y81D02*
X297Y81D01*
X31Y80D02*
X178Y80D01*
X211Y80D02*
X297Y80D01*
X31Y79D02*
X178Y79D01*
X211Y79D02*
X297Y79D01*
X31Y78D02*
X178Y78D01*
X211Y78D02*
X297Y78D01*
X31Y77D02*
X178Y77D01*
X211Y77D02*
X297Y77D01*
X31Y76D02*
X178Y76D01*
X211Y76D02*
X298Y76D01*
X31Y75D02*
X178Y75D01*
X211Y75D02*
X298Y75D01*
X31Y74D02*
X178Y74D01*
X211Y74D02*
X298Y74D01*
X31Y73D02*
X178Y73D01*
X211Y73D02*
X298Y73D01*
X31Y72D02*
X178Y72D01*
X211Y72D02*
X299Y72D01*
X31Y71D02*
X178Y71D01*
X211Y71D02*
X299Y71D01*
X31Y70D02*
X178Y70D01*
X211Y70D02*
X299Y70D01*
X31Y69D02*
X178Y69D01*
X211Y69D02*
X300Y69D01*
X31Y68D02*
X178Y68D01*
X211Y68D02*
X300Y68D01*
X31Y67D02*
X178Y67D01*
X211Y67D02*
X300Y67D01*
X31Y66D02*
X178Y66D01*
X211Y66D02*
X301Y66D01*
X31Y65D02*
X178Y65D01*
X211Y65D02*
X301Y65D01*
X31Y64D02*
X178Y64D01*
X211Y64D02*
X302Y64D01*
X31Y63D02*
X178Y63D01*
X211Y63D02*
X302Y63D01*
X31Y62D02*
X178Y62D01*
X211Y62D02*
X303Y62D01*
X31Y61D02*
X178Y61D01*
X211Y61D02*
X303Y61D01*
X31Y60D02*
X178Y60D01*
X211Y60D02*
X304Y60D01*
X31Y59D02*
X178Y59D01*
X211Y59D02*
X304Y59D01*
X31Y58D02*
X178Y58D01*
X211Y58D02*
X305Y58D01*
X31Y57D02*
X178Y57D01*
X211Y57D02*
X306Y57D01*
X31Y56D02*
X178Y56D01*
X211Y56D02*
X306Y56D01*
X31Y55D02*
X178Y55D01*
X211Y55D02*
X307Y55D01*
X31Y54D02*
X178Y54D01*
X211Y54D02*
X308Y54D01*
X31Y53D02*
X178Y53D01*
X211Y53D02*
X309Y53D01*
X31Y52D02*
X178Y52D01*
X211Y52D02*
X309Y52D01*
X31Y51D02*
X178Y51D01*
X211Y51D02*
X309Y51D01*
X31Y50D02*
X178Y50D01*
X211Y50D02*
X309Y50D01*
X31Y49D02*
X178Y49D01*
X212Y49D02*
X308Y49D01*
X31Y48D02*
X178Y48D01*
X31Y47D02*
X178Y47D01*
X31Y46D02*
X178Y46D01*
X31Y45D02*
X178Y45D01*
X31Y44D02*
X178Y44D01*
X31Y43D02*
X178Y43D01*
X31Y42D02*
X178Y42D01*
X31Y41D02*
X178Y41D01*
X31Y40D02*
X178Y40D01*
X31Y39D02*
X178Y39D01*
X31Y38D02*
X178Y38D01*
X31Y37D02*
X178Y37D01*
X31Y36D02*
X178Y36D01*
X31Y35D02*
X178Y35D01*
X31Y34D02*
X178Y34D01*
X31Y33D02*
X178Y33D01*
X31Y32D02*
X178Y32D01*
X32Y31D02*
X177Y31D01*
D02*
G04 End of Copper0*
M02*